/* XPM */
static char * abiword_xpm[] = {
"48 48 526 2",
"  	c None",
". 	c #B2C5DD",
"+ 	c #CAD7E9",
"@ 	c #C8D6E7",
"# 	c #91ACCE",
"$ 	c #7C9BC4",
"% 	c #CAD8E9",
"& 	c #C3D3E8",
"* 	c #AEC4E0",
"= 	c #ADC3DF",
"- 	c #C3D2E8",
"; 	c #AABFDA",
"> 	c #9EB6D4",
", 	c #D0DCEE",
"' 	c #BDCFE6",
") 	c #B5C9E3",
"! 	c #B5C8E2",
"~ 	c #B1C6E1",
"{ 	c #ABC0DE",
"] 	c #B1C6E0",
"^ 	c #A4BAD7",
"/ 	c #9AB3D2",
"( 	c #D0DDEE",
"_ 	c #BED0E7",
": 	c #BCCEE6",
"< 	c #BACCE5",
"[ 	c #B6CAE4",
"} 	c #B3C7E1",
"| 	c #AFC4E0",
"1 	c #ABC1DE",
"2 	c #ADC3DE",
"3 	c #9DB5D4",
"4 	c #7D9CC5",
"5 	c #D7E2F1",
"6 	c #C5D4EA",
"7 	c #C3D3E9",
"8 	c #BFD1E8",
"9 	c #B9CCE4",
"0 	c #B5C8E3",
"a 	c #B1C5E0",
"b 	c #A7BEDC",
"c 	c #8CA9CD",
"d 	c #7697C1",
"e 	c #D7E2F0",
"f 	c #CEDCEF",
"g 	c #C8D7EC",
"h 	c #C5D5EA",
"i 	c #C1D2E8",
"j 	c #B9CBE5",
"k 	c #B5C9E2",
"l 	c #A9BFDC",
"m 	c #A4BCDA",
"n 	c #7093C1",
"o 	c #D6E2EF",
"p 	c #D3E0F2",
"q 	c #CDDBEE",
"r 	c #C9D9EC",
"s 	c #C6D6EB",
"t 	c #C0D1E8",
"u 	c #B6CAE3",
"v 	c #ADC2DE",
"w 	c #A8BFDC",
"x 	c #A1B9D9",
"y 	c #92AED2",
"z 	c #B4C6DF",
"A 	c #DCE6F5",
"B 	c #D1DEF1",
"C 	c #CFDCEF",
"D 	c #CAD9EC",
"E 	c #C4D5E9",
"F 	c #B8CBE4",
"G 	c #8BA8CE",
"H 	c #6A8EBE",
"I 	c #8EAACF",
"J 	c #AAC0DD",
"K 	c #A4BBDA",
"L 	c #A0B8D9",
"M 	c #A1B9D8",
"N 	c #7698C4",
"O 	c #82A1C8",
"P 	c #DCE6F3",
"Q 	c #D4E0F2",
"R 	c #D1DEF0",
"S 	c #CCDCEE",
"T 	c #C9D8EC",
"U 	c #ACC2DE",
"V 	c #6A8FBD",
"W 	c #7798C4",
"X 	c #A3BBDA",
"Y 	c #A4BCDB",
"Z 	c #9FB8D8",
"` 	c #9BB5D6",
" .	c #9AB4D5",
"..	c #5D85B8",
"+.	c #8E8991",
"@.	c #D8E2EF",
"#.	c #D2E0F1",
"$.	c #CFDDEF",
"%.	c #CDDCEE",
"&.	c #CAD9ED",
"*.	c #CAD8EC",
"=.	c #B9CCE5",
"-.	c #7799C5",
";.	c #9EB6D8",
">.	c #9AB4D6",
",.	c #97B2D4",
"'.	c #88A7CD",
").	c #97C36B",
"!.	c #94C068",
"~.	c #657953",
"{.	c #B8C9E0",
"].	c #D9E4F3",
"^.	c #C9D8ED",
"/.	c #CBDAED",
"(.	c #C2D2E9",
"_.	c #648ABB",
":.	c #87A4CC",
"<.	c #A0B9D9",
"[.	c #98B3D5",
"}.	c #94AFD2",
"|.	c #91ADD2",
"1.	c #6A8FBF",
"2.	c #91C063",
"3.	c #ADD883",
"4.	c #68BE15",
"5.	c #55A408",
"6.	c #8AA6CB",
"7.	c #D5E0F0",
"8.	c #C3D4EA",
"9.	c #C7D7EB",
"0.	c #C5D6EB",
"a.	c #C3D4E9",
"b.	c #7A9BC6",
"c.	c #89A7CE",
"d.	c #93AED2",
"e.	c #8FACD1",
"f.	c #7C9CC7",
"g.	c #88BC56",
"h.	c #A3D375",
"i.	c #6EC11E",
"j.	c #5CAA12",
"k.	c #B4C7DF",
"l.	c #96B1D4",
"m.	c #567FB4",
"n.	c #91ADD1",
"o.	c #8DAACF",
"p.	c #5A82B6",
"q.	c #76B03E",
"r.	c #B3DB8C",
"s.	c #71C322",
"t.	c #62B215",
"u.	c #7697C3",
"v.	c #CEDBEC",
"w.	c #BDCFE7",
"x.	c #BFD0E7",
"y.	c #7194C1",
"z.	c #90ACD1",
"A.	c #8AA8CE",
"B.	c #89A6CD",
"C.	c #789AC5",
"D.	c #B5DB8F",
"E.	c #70C320",
"F.	c #64B616",
"G.	c #539C0C",
"H.	c #BBCCE1",
"I.	c #B9CDE5",
"J.	c #BACDE5",
"K.	c #85A3CB",
"L.	c #84A3CB",
"M.	c #5B83B6",
"N.	c #A6D37B",
"O.	c #79C72E",
"P.	c #66B916",
"Q.	c #5AA611",
"R.	c #94AECF",
"S.	c #C6D6E9",
"T.	c #B2C7E1",
"U.	c #BBCEE5",
"V.	c #8EABCF",
"W.	c #5881B6",
"X.	c #83A1CA",
"Y.	c #7FA0C9",
"Z.	c #7496C3",
"`.	c #AED388",
" +	c #82CB3B",
".+	c #69BC19",
"++	c #5FAD13",
"@+	c #C0D1E4",
"#+	c #B0C5E0",
"$+	c #B0C6E1",
"%+	c #B2C6E1",
"&+	c #A9C0DD",
"*+	c #6C90C0",
"=+	c #83A2CA",
"-+	c #7C9DC7",
";+	c #5881B5",
">+	c #ABD185",
",+	c #8CD147",
"'+	c #67BC15",
")+	c #62B216",
"!+	c #4E9509",
"~+	c #92ACCE",
"{+	c #B3C7E0",
"]+	c #AEC4DF",
"^+	c #84A3CA",
"/+	c #6187BB",
"(+	c #A0CD73",
"_+	c #8DD14B",
":+	c #68BD15",
"<+	c #64B518",
"[+	c #539D0C",
"}+	c #A8BEDB",
"|+	c #A7BEDB",
"1+	c #A8BEDC",
"2+	c #6289BA",
"3+	c #7396C3",
"4+	c #6B8EC7",
"5+	c #96C85C",
"6+	c #96D459",
"7+	c #6CC01B",
"8+	c #67B719",
"9+	c #57A40F",
"0+	c #6A8EBC",
"a+	c #B0C4DE",
"b+	c #A1BADA",
"c+	c #AAC0DE",
"d+	c #799AC6",
"e+	c #7093C3",
"f+	c #668CB4",
"g+	c #87B572",
"h+	c #A7DE6D",
"i+	c #6BC117",
"j+	c #68B91A",
"k+	c #5DAC13",
"l+	c #99B2D2",
"m+	c #A3BBD9",
"n+	c #9EB7D7",
"o+	c #A2BAD9",
"p+	c #557EB9",
"q+	c #6B90BE",
"r+	c #85B27D",
"s+	c #A1DA63",
"t+	c #6CC31A",
"u+	c #69BB1A",
"v+	c #60AF14",
"w+	c #4F970A",
"x+	c #6086B7",
"y+	c #AAC0DB",
"z+	c #9BB4D5",
"A+	c #6EA171",
"B+	c #A5DB67",
"C+	c #72C721",
"D+	c #6BBD1C",
"E+	c #63B216",
"F+	c #519A0B",
"G+	c #90ACCF",
"H+	c #9AB3D5",
"I+	c #94AFD3",
"J+	c #97B1D4",
"K+	c #89A7CD",
"L+	c #70B229",
"M+	c #AFDD7B",
"N+	c #77CA27",
"O+	c #6CBE1C",
"P+	c #64B516",
"Q+	c #56A20C",
"R+	c #99B2D3",
"S+	c #8EABD0",
"T+	c #93AFD3",
"U+	c #A7D877",
"V+	c #7BCD2B",
"W+	c #6BBF1A",
"X+	c #66B71A",
"Y+	c #5BAA0C",
"Z+	c #498B2A",
"`+	c #7597C2",
" @	c #8FABCF",
".@	c #8DA9CF",
"+@	c #8BA7CD",
"@@	c #A2D471",
"#@	c #7DCD2E",
"$@	c #67B91B",
"%@	c #5EAF07",
"&@	c #508E3A",
"*@	c #4772B7",
"=@	c #7A9AC5",
"-@	c #88A6CC",
";@	c #88A6CD",
">@	c #7195C1",
",@	c #9BCD6B",
"'@	c #89D440",
")@	c #6FC31E",
"!@	c #68BA1B",
"~@	c #60B110",
"{@	c #519718",
"]@	c #537BB4",
"^@	c #4975B2",
"/@	c #81A0C8",
"(@	c #85A4CB",
"_@	c #85A4CC",
":@	c #4774AE",
"<@	c #9FD06D",
"[@	c #8ED749",
"}@	c #6EC41B",
"|@	c #69BB1B",
"1@	c #61B215",
"2@	c #56A306",
"3@	c #447975",
"4@	c #517ABB",
"5@	c #4A76AE",
"6@	c #82A1CA",
"7@	c #7E9EC8",
"8@	c #809FC8",
"9@	c #84A2CB",
"0@	c #6C90BF",
"a@	c #97CA68",
"b@	c #8BD542",
"c@	c #71C61E",
"d@	c #6BBE1C",
"e@	c #63B416",
"f@	c #59A70E",
"g@	c #4370AE",
"h@	c #4A77AF",
"i@	c #3B6BA7",
"j@	c #658ABC",
"k@	c #7D9DC7",
"l@	c #7A9CC7",
"m@	c #7D9EC7",
"n@	c #507AB2",
"o@	c #4C77B4",
"p@	c #517EA8",
"q@	c #83BA5E",
"r@	c #9BDD54",
"s@	c #72C820",
"t@	c #6DBF1E",
"u@	c #65B517",
"v@	c #5CAC11",
"w@	c #4D9508",
"x@	c #4672AD",
"y@	c #3E6CA9",
"z@	c #7799C4",
"A@	c #7899C5",
"B@	c #567FB5",
"C@	c #5B83B7",
"D@	c #648ABC",
"E@	c #6086B1",
"F@	c #88BC69",
"G@	c #A0DF5A",
"H@	c #74CA21",
"I@	c #6EC11F",
"J@	c #66B718",
"K@	c #5EAD12",
"L@	c #509909",
"M@	c #3E6DA9",
"N@	c #3F6EA9",
"O@	c #4673AC",
"P@	c #7395C2",
"Q@	c #7295C2",
"R@	c #7497C2",
"S@	c #4E79B1",
"T@	c #6188BA",
"U@	c #678DBD",
"V@	c #698EBD",
"W@	c #688DBD",
"X@	c #547FB7",
"Y@	c #7D889D",
"Z@	c #A7D577",
"`@	c #73D019",
" #	c #70C220",
".#	c #67B819",
"+#	c #539E0B",
"@#	c #3C6BA8",
"##	c #3667A6",
"$#	c #537DB3",
"%#	c #7094C1",
"&#	c #6D91C0",
"*#	c #6E92C1",
"=#	c #5B84B8",
"-#	c #4774AD",
";#	c #557FB4",
">#	c #668BBB",
",#	c #658CBD",
"'#	c #5F88BD",
")#	c #4777B5",
"!#	c #657482",
"~#	c #BABAB4",
"{#	c #9B9C9C",
"]#	c #76B23D",
"^#	c #68BD16",
"/#	c #62B114",
"(#	c #57A60E",
"_#	c #4C9707",
":#	c #3868A7",
"<#	c #3667A5",
"[#	c #6B8FBE",
"}#	c #698EBE",
"|#	c #6A8FBE",
"1#	c #6B8FC0",
"2#	c #547CB0",
"3#	c #4F7AB2",
"4#	c #5780B5",
"5#	c #5E86B8",
"6#	c #678DBC",
"7#	c #688DBC",
"8#	c #638BBE",
"9#	c #577FB3",
"0#	c #5278AB",
"a#	c #B8B9B2",
"b#	c #A7AAA4",
"c#	c #868A88",
"d#	c #727476",
"e#	c #5D853B",
"f#	c #57A211",
"g#	c #4C8E0C",
"h#	c #315F9B",
"i#	c #3467A8",
"j#	c #5A83B7",
"k#	c #668CBC",
"l#	c #658BBC",
"m#	c #668BBC",
"n#	c #587FAF",
"o#	c #5075A7",
"p#	c #5983B9",
"q#	c #638BBD",
"r#	c #658ABB",
"s#	c #658ABA",
"t#	c #5680B8",
"u#	c #486A96",
"v#	c #B8BAB5",
"w#	c #AAADA7",
"x#	c #898D89",
"y#	c #747876",
"z#	c #5E6262",
"A#	c #46494E",
"B#	c #364235",
"C#	c #3567A6",
"D#	c #5981B7",
"E#	c #6288BA",
"F#	c #6189BA",
"G#	c #6387BA",
"H#	c #6388BB",
"I#	c #5C85BC",
"J#	c #6489B8",
"K#	c #6287B7",
"L#	c #6087B7",
"M#	c #6186B7",
"N#	c #5E84B6",
"O#	c #557EB4",
"P#	c #446998",
"Q#	c #9B9E9B",
"R#	c #AFB2AC",
"S#	c #8B8E8A",
"T#	c #777C78",
"U#	c #616564",
"V#	c #4B5150",
"W#	c #363B3D",
"X#	c #385984",
"Y#	c #3665A2",
"Z#	c #5E85B7",
"`#	c #5D84B7",
" $	c #5D84B6",
".$	c #5E85B6",
"+$	c #5F84B5",
"@$	c #5E84B3",
"#$	c #5E83B3",
"$$	c #5E84B4",
"%$	c #5B82B5",
"&$	c #547BAD",
"*$	c #4F73A1",
"=$	c #787B78",
"-$	c #B2B5B0",
";$	c #8D918D",
">$	c #797D7A",
",$	c #646867",
"'$	c #4F5454",
")$	c #393F3F",
"!$	c #375D8B",
"~$	c #4270AC",
"{$	c #5C85B9",
"]$	c #5A82B5",
"^$	c #5A81B4",
"/$	c #5A82B3",
"($	c #5B81B3",
"_$	c #5A81B3",
":$	c #5880B4",
"<$	c #527BB0",
"[$	c #4A6F9E",
"}$	c #466182",
"|$	c #626563",
"1$	c #8B8F8B",
"2$	c #7B7F7B",
"3$	c #666B69",
"4$	c #535757",
"5$	c #3B4041",
"6$	c #3B3F3E",
"7$	c #4471AA",
"8$	c #4C78B1",
"9$	c #4E7BB3",
"0$	c #4D77AF",
"a$	c #4A74A9",
"b$	c #466B9B",
"c$	c #425D80",
"d$	c #696E6B",
"e$	c #767976",
"f$	c #666A68",
"g$	c #555A59",
"h$	c #414646",
"i$	c #3A3F3F",
"j$	c #8D8F8A",
"k$	c #979A95",
"l$	c #636663",
"m$	c #555856",
"n$	c #434847",
"o$	c #3D4140",
"p$	c #B3B7B0",
"q$	c #949791",
"r$	c #70726E",
"s$	c #494C4A",
"t$	c #A3A6A1",
"u$	c #92918A",
"v$	c #7E817B",
"w$	c #6C6F6A",
"x$	c #A5A8A2",
"y$	c #959791",
"z$	c #777974",
"A$	c #8F918C",
"                                                                                                ",
"                                                                                                ",
"                                        . + @ #                                                 ",
"                                    $ % & * = - ;                                               ",
"                                  > , ' ) ! ~ { ] ^                                             ",
"                                / ( _ : < [ } | 1 2 3                                           ",
"                              4 5 6 7 8 : 9 0 a = b 2 c                                         ",
"                            d e f g h i ' j k a = l m m n                                       ",
"                            o p q r s i _ t ' u v w m x y                                       ",
"                          z A B C D s E F G H I = J K L M N                                     ",
"                        O P Q R S T g U V       W X Y Z `  ...                              +.  ",
"                        @.#.$.%.&.*.=.            -.m ;.>.,.'.                          ).!.~.  ",
"                      {.].^./.^.T (._.              :.<.[.}.|.1.                      2.3.4.5.  ",
"                    6.7.8.9.9.0.a.b.                  c.>.d.e.f.                    g.h.i.j.    ",
"                    k.E (.a.(.a.l.                    m.n.|.o.G p.                q.r.s.t.      ",
"                  u.v.w._ _ x.0                         y.z.A.B.C.                D.E.F.G.      ",
"                  H._ 9 I.J.8 W                           K.A.L.K.M.            N.O.P.Q.        ",
"                R.S.T.! k U.V.                            W.G X.Y.Z.          `. +.+++          ",
"                @+= #+$+%+&+                                *+=+-+C.;+      >+,+'+)+!+          ",
"              ~+{+J U U ]+^+                                  -.b.N /+    (+_+:+<+[+            ",
"              ^ }+|+1+&+X                                     2+-.3+4+  5+6+7+8+9+              ",
"            0+a+b+X X c+d+                                      y.e+f+g+h+i+j+k+                ",
"            l+m+n+Z o+}.                                        p+q+r+s+t+u+v+w+                ",
"          x+y+,. .z+Z _.                                          A+B+C+D+E+F+                  ",
"          G+H+I+l.J+K+                                          L+M+N+O+P+Q+                    ",
"          R+S+n.n.T+n                                           U+V+W+X+Y+Z+                    ",
"        `+ @G .@V.+@                                          @@#@i.$@%@&@*@                    ",
"        =@-@;@;@o.>@                                        ,@'@)@!@~@{@]@^@                    ",
"        /@=+L.(@_@:@                                      <@[@}@|@1@2@3@4@5@                    ",
"      m.6@7@8@9@0@                                      a@b@c@d@e@f@    g@h@i@                  ",
"      j@k@l@-+m@n@                                o@p@q@r@s@t@u@v@w@      x@y@                  ",
"      n z@N A@n                             B@C@D@E@F@G@H@I@J@K@L@        M@N@                  ",
"    O@P@Q@Q@R@2+                      S@T@U@V@W@X@Y@Z@`@ #.#v++#            @###                ",
"    $#%#&#*#n =#                -#;#>#0@H ,#'#)#!#~#{#]#^#/#(#_#            :#<#                ",
"    p.[#}#|#1#2#          3#4#5#6#V@7#8#9#0#    a#b#c#d#e#f#g#              h#i#                ",
"    j#k#l#m#U@n#    o#p#q#r#>#r#s#q#t#u#      v#w#x#y#z#A#B#                  C#                ",
"    D#E#T@F#G#H#I#'#_.J#K#L#M#N#O#P#        Q#R#S#T#U#V#W#                    X#Y#              ",
"    O#Z#`#`# $.$+$@$#$$$%$&$*$            =$-$;$>$,$'$)$                        !$              ",
"    ~${$]$^$/$($_$:$<$[$}$                |$1$2$3$4$5$6$                                        ",
"      7$8$9$0$a$b$c$                      d$e$f$g$h$i$                                          ",
"                                        j$k$l$m$n$o$                                            ",
"                                        p$q$r$s$                                                ",
"                                      t$u$v$w$                                                  ",
"                                      x$y$z$                                                    ",
"                                      A$                                                        ",
"                                                                                                ",
"                                                                                                ",
"                                                                                                "};
