/* XPM */
static char * anjuta_xpm[] = {
"48 48 601 2",
"  	c None",
". 	c #241730",
"+ 	c #261933",
"@ 	c #251831",
"# 	c #241830",
"$ 	c #271A34",
"% 	c #231630",
"& 	c #1F122C",
"* 	c #948C9C",
"= 	c #4B3F57",
"- 	c #23162F",
"; 	c #4C4059",
"> 	c #1E112C",
", 	c #AFA8B5",
"' 	c #AA9FB4",
") 	c #2C1F39",
"! 	c #251830",
"~ 	c #261934",
"{ 	c #C1B8C8",
"] 	c #1E102B",
"^ 	c #1D1327",
"/ 	c #231830",
"( 	c #1E112B",
"_ 	c #B0A9B8",
": 	c #C5B9D1",
"< 	c #6A5D77",
"[ 	c #22152F",
"} 	c #2F223D",
"| 	c #D2CADB",
"1 	c #61536E",
"2 	c #1F132C",
"3 	c #22162E",
"4 	c #30233C",
"5 	c #32253E",
"6 	c #2E213B",
"7 	c #1F122D",
"8 	c #A99FB3",
"9 	c #BCAEC9",
"0 	c #A396B0",
"a 	c #1B1224",
"b 	c #342741",
"c 	c #C4BACF",
"d 	c #AEA0BB",
"e 	c #281B36",
"f 	c #42364D",
"g 	c #A19AA7",
"h 	c #B5B0BB",
"i 	c #C7C3CB",
"j 	c #D0CCD4",
"k 	c #928B9A",
"l 	c #A295AF",
"m 	c #BBAEC7",
"n 	c #A79AB4",
"o 	c #1F122B",
"p 	c #21152D",
"q 	c #241731",
"r 	c #31243D",
"s 	c #B9ADC5",
"t 	c #C1B4CE",
"u 	c #655872",
"v 	c #241732",
"w 	c #E4E2E6",
"x 	c #FFFFFF",
"y 	c #FFFEFF",
"z 	c #9F98A5",
"A 	c #B7AAC4",
"B 	c #B9ACC6",
"C 	c #998CA5",
"D 	c #251932",
"E 	c #6F6579",
"F 	c #31243E",
"G 	c #21142E",
"H 	c #231730",
"I 	c #31253E",
"J 	c #AEA1BB",
"K 	c #C4B7D0",
"L 	c #ADA0BA",
"M 	c #382B45",
"N 	c #665A72",
"O 	c #D5CBDE",
"P 	c #D3CBDD",
"Q 	c #EAE6EE",
"R 	c #847C8C",
"S 	c #2A1D37",
"T 	c #BEB1CB",
"U 	c #B8ABC5",
"V 	c #857892",
"W 	c #2B1F38",
"X 	c #CAC5CE",
"Y 	c #FBF8FE",
"Z 	c #7E7487",
"` 	c #2C1F38",
" .	c #62586B",
"..	c #C8C4CB",
"+.	c #3A2F46",
"@.	c #786B85",
"#.	c #C5B8D2",
"$.	c #A699B3",
"%.	c #B1A4BE",
"&.	c #BCAEC8",
"*.	c #B5A7C1",
"=.	c #5B4E67",
"-.	c #493B55",
";.	c #B2A5BF",
">.	c #D0CBD5",
",.	c #F8F4FA",
"'.	c #FCF9FF",
").	c #C1BBC7",
"!.	c #44384F",
"~.	c #20122C",
"{.	c #746B7D",
"].	c #F2F1F4",
"^.	c #FCFCFD",
"/.	c #7B7383",
"(.	c #281B35",
"_.	c #C2B5CF",
":.	c #BFB2CC",
"<.	c #BCAFC9",
"[.	c #BBAEC8",
"}.	c #A99CB6",
"|.	c #ADA0B9",
"1.	c #71647D",
"2.	c #564B62",
"3.	c #D3CBDA",
"4.	c #AEA7B7",
"5.	c #EEE8F3",
"6.	c #EFEAF4",
"7.	c #EFE9F4",
"8.	c #F0EAF5",
"9.	c #E3DDE9",
"0.	c #52475D",
"a.	c #5D5367",
"b.	c #FCFBFD",
"c.	c #FEFEFF",
"d.	c #C5C1C9",
"e.	c #2F223B",
"f.	c #867993",
"g.	c #B6A9C2",
"h.	c #B5A8C1",
"i.	c #90839D",
"j.	c #1A0D28",
"k.	c #A49BAB",
"l.	c #F3EEF8",
"m.	c #F0EBF5",
"n.	c #EFE9F5",
"o.	c #EEE8F4",
"p.	c #EDE7F3",
"q.	c #EDE6F3",
"r.	c #E7E0ED",
"s.	c #54485F",
"t.	c #1D102A",
"u.	c #584D62",
"v.	c #F9F8FA",
"w.	c #FDFCFE",
"x.	c #FDFCFD",
"y.	c #857D8D",
"z.	c #60526D",
"A.	c #BEB2C9",
"B.	c #BDB0C9",
"C.	c #B5A8C2",
"D.	c #B4A7C1",
"E.	c #B3A6C0",
"F.	c #B0A3BD",
"G.	c #645770",
"H.	c #21132D",
"I.	c #8C8396",
"J.	c #CCC5D3",
"K.	c #D2CCD9",
"L.	c #DBD4E1",
"M.	c #F2ECF8",
"N.	c #EEE7F4",
"O.	c #D5CEDD",
"P.	c #3F334B",
"Q.	c #3A2E46",
"R.	c #E3E2E6",
"S.	c #D5D1D8",
"T.	c #3D3249",
"U.	c #352841",
"V.	c #D1C9D8",
"W.	c #BEB2CA",
"X.	c #B9ACC5",
"Y.	c #AEA1BA",
"Z.	c #5F526C",
"`.	c #2F233C",
" +	c #342840",
".+	c #786D82",
"++	c #E9E2EF",
"@+	c #EBE4F2",
"#+	c #EEE7F5",
"$+	c #CAC2D2",
"%+	c #241831",
"&+	c #A09AA6",
"*+	c #FEFDFF",
"=+	c #D4D1D8",
"-+	c #332640",
";+	c #C6BECE",
">+	c #D6CEDF",
",+	c #BAADC6",
"'+	c #B2A5BE",
")+	c #B1A4BD",
"!+	c #AFA2BC",
"~+	c #978AA3",
"{+	c #71647E",
"]+	c #6D607A",
"^+	c #574A63",
"/+	c #1C0F2A",
"(+	c #9F96A8",
"_+	c #EFE8F5",
":+	c #EAE3F1",
"<+	c #F0E8F6",
"[+	c #91879B",
"}+	c #473C52",
"|+	c #F7F5F8",
"1+	c #FEFDFE",
"2+	c #D5D2D8",
"3+	c #493D55",
"4+	c #CCC5D2",
"5+	c #E2DCE8",
"6+	c #C0B4CB",
"7+	c #B6A9C3",
"8+	c #B4A7C0",
"9+	c #B0A3BC",
"0+	c #AB9EB8",
"a+	c #AC9FB8",
"b+	c #AC9FB9",
"c+	c #A89BB5",
"d+	c #584B65",
"e+	c #D4CDDC",
"f+	c #ECE5F3",
"g+	c #E9E2F0",
"h+	c #E1D9E8",
"i+	c #1D102B",
"j+	c #BBB5BF",
"k+	c #493E55",
"l+	c #D0C9D7",
"m+	c #E4DEE9",
"n+	c #C8BED2",
"o+	c #AA9DB6",
"p+	c #A99CB5",
"q+	c #A89BB4",
"r+	c #A699B2",
"s+	c #9386A0",
"t+	c #2B1E38",
"u+	c #5D5168",
"v+	c #F3ECFA",
"w+	c #E9E1F0",
"x+	c #E9E2F1",
"y+	c #978DA1",
"z+	c #2B1E37",
"A+	c #B7B2BC",
"B+	c #BDB8C2",
"C+	c #281C35",
"D+	c #91879C",
"E+	c #EEE9F1",
"F+	c #D2C9DA",
"G+	c #B6A8C3",
"H+	c #AA9DB7",
"I+	c #A598B1",
"J+	c #A497B0",
"K+	c #594C66",
"L+	c #2D213A",
"M+	c #C0B7C8",
"N+	c #E8E0F0",
"O+	c #D7CFDF",
"P+	c #382C45",
"Q+	c #21162C",
"R+	c #2F213B",
"S+	c #F0EFF2",
"T+	c #FBFAFC",
"U+	c #271934",
"V+	c #E2DBE8",
"W+	c #DDD7E4",
"X+	c #BBAFC7",
"Y+	c #B7AAC3",
"Z+	c #B3A6BF",
"`+	c #AFA2BB",
" @	c #A598B2",
".@	c #A295AE",
"+@	c #9B8DA7",
"@@	c #7A6F84",
"#@	c #E6DEEE",
"$@	c #E7DFEF",
"%@	c #F1E9F9",
"&@	c #6B6077",
"*@	c #392D45",
"=@	c #3D3149",
"-@	c #EDEAF0",
";@	c #51475D",
">@	c #61556E",
",@	c #EAE5F0",
"'@	c #CAC1D4",
")@	c #AB9EB7",
"!@	c #A497B1",
"~@	c #A194AE",
"{@	c #A093AD",
"]@	c #62556F",
"^@	c #D8CFE0",
"/@	c #EAE2F2",
"(@	c #BBB1C4",
"_@	c #160F1E",
":@	c #21152C",
"<@	c #50455B",
"[@	c #564B60",
"}@	c #FAF8FB",
"|@	c #E0DBE5",
"1@	c #281B34",
"2@	c #A097AA",
"3@	c #E1DAE7",
"4@	c #BCB0C8",
"5@	c #A79AB3",
"6@	c #A396AF",
"7@	c #9F92AB",
"8@	c #9E91AA",
"9@	c #9487A0",
"0@	c #81768C",
"a@	c #EBE3F4",
"b@	c #EDE5F7",
"c@	c #1B1124",
"d@	c #22162F",
"e@	c #62586C",
"f@	c #6E6577",
"g@	c #F6F3F9",
"h@	c #CAC4CF",
"i@	c #1A0C27",
"j@	c #C8C0CF",
"k@	c #D2CADA",
"l@	c #9588A1",
"m@	c #877A93",
"n@	c #A194AD",
"o@	c #9C8FA9",
"p@	c #9B8EA7",
"q@	c #5D506A",
"r@	c #C3BACC",
"s@	c #EAE2F3",
"t@	c #EDE5F6",
"u@	c #1B1026",
"v@	c #352941",
"w@	c #7A7182",
"x@	c #F8F5FB",
"y@	c #968D9E",
"z@	c #342742",
"A@	c #D3CDDA",
"B@	c #544761",
"C@	c #352842",
"D@	c #9D90A9",
"E@	c #9A8DA6",
"F@	c #43364F",
"G@	c #DBD2E4",
"H@	c #ECE3F4",
"I@	c #655A72",
"J@	c #1B0F26",
"K@	c #8A8291",
"L@	c #3A2E45",
"M@	c #706679",
"N@	c #FFFCFF",
"O@	c #FAF7FE",
"P@	c #63596D",
"Q@	c #53475F",
"R@	c #CCC4D4",
"S@	c #645771",
"T@	c #9D90AA",
"U@	c #9F92AC",
"V@	c #9B8EA8",
"W@	c #796C86",
"X@	c #261932",
"Y@	c #594C64",
"Z@	c #D6CDE0",
"`@	c #70657C",
" #	c #1A0F26",
".#	c #A19BA8",
"+#	c #3E324A",
"@#	c #544A5F",
"##	c #FDFAFF",
"$#	c #6C6078",
"%#	c #BCB0C7",
"&#	c #6C5F79",
"*#	c #9C90A8",
"=#	c #A093AC",
"-#	c #9E91AB",
";#	c #9A8DA7",
">#	c #998CA6",
",#	c #978AA4",
"'#	c #9689A3",
")#	c #73667F",
"!#	c #291C37",
"~#	c #41344D",
"{#	c #4C3F58",
"]#	c #1E1329",
"^#	c #A9A3B0",
"/#	c #53495D",
"(#	c #FCF8FF",
"_#	c #DCD7E1",
":#	c #7F728C",
"<#	c #6C5F7A",
"[#	c #B3AABB",
"}#	c #A99DB5",
"|#	c #9C8FA8",
"1#	c #988BA4",
"2#	c #9588A2",
"3#	c #93869F",
"4#	c #92859F",
"5#	c #857891",
"6#	c #41344E",
"7#	c #20132E",
"8#	c #251832",
"9#	c #A19AA8",
"0#	c #362942",
"a#	c #EDE8F1",
"b#	c #A199A9",
"c#	c #6E617B",
"d#	c #30243C",
"e#	c #C1BAC7",
"f#	c #ADA1B9",
"g#	c #9689A2",
"h#	c #92859E",
"i#	c #90839C",
"j#	c #9487A1",
"k#	c #6A5D76",
"l#	c #20152B",
"m#	c #22152E",
"n#	c #918A99",
"o#	c #938C9A",
"p#	c #DED9E3",
"q#	c #5D5368",
"r#	c #32253F",
"s#	c #756881",
"t#	c #2C2039",
"u#	c #BCB6C2",
"v#	c #B8AEC2",
"w#	c #A496B1",
"x#	c #8F829B",
"y#	c #8E819A",
"z#	c #8E819B",
"A#	c #83768F",
"B#	c #23172F",
"C#	c #7A7183",
"D#	c #ADA7B4",
"E#	c #2A1D36",
"F#	c #B1AAB9",
"G#	c #382C44",
"H#	c #534660",
"I#	c #8A7D96",
"J#	c #9D95A5",
"K#	c #CEC7D5",
"L#	c #8C7F98",
"M#	c #8B7E97",
"N#	c #897C95",
"O#	c #5E516B",
"P#	c #20142D",
"Q#	c #21152E",
"R#	c #5D5267",
"S#	c #C4BECB",
"T#	c #6B6176",
"U#	c #8B7D97",
"V#	c #665C71",
"W#	c #C9C1D0",
"X#	c #B4AABE",
"Y#	c #887B94",
"Z#	c #7E718A",
"`#	c #372A43",
" $	c #DED9E4",
".$	c #2E213A",
"+$	c #2F223C",
"@$	c #736681",
"#$	c #6F647A",
"$$	c #9B90A6",
"%$	c #998DA5",
"&$	c #91849D",
"*$	c #7C6F88",
"=$	c #82758E",
"-$	c #8F829C",
";$	c #8C7F99",
">$	c #867992",
",$	c #7F728B",
"'$	c #3B2D47",
")$	c #1B1225",
"!$	c #1B0E29",
"~$	c #CCC6D2",
"{$	c #61546E",
"]$	c #2D203A",
"^$	c #463953",
"/$	c #887B95",
"($	c #847791",
"_$	c #3E304B",
":$	c #1E1429",
"<$	c #1D112A",
"[$	c #776D81",
"}$	c #675C71",
"|$	c #271A35",
"1$	c #5A4D67",
"2$	c #3B2E48",
"3$	c #332740",
"4$	c #AAA0B3",
"5$	c #AEA4B7",
"6$	c #9A90A5",
"7$	c #665A71",
"8$	c #362943",
"9$	c #241631",
"0$	c #695C76",
"a$	c #8D8099",
"b$	c #8A7D97",
"c$	c #7D7089",
"d$	c #ACA5B4",
"e$	c #746680",
"f$	c #4A3D57",
"g$	c #392C45",
"h$	c #E8DFF0",
"i$	c #EAE1F3",
"j$	c #EBE2F3",
"k$	c #EFE7F8",
"l$	c #D2C8DC",
"m$	c #796D84",
"n$	c #847790",
"o$	c #82758F",
"p$	c #776A83",
"q$	c #7E7488",
"r$	c #B7ABC4",
"s$	c #3C3049",
"t$	c #EEE6F7",
"u$	c #E5DCED",
"v$	c #E4DBED",
"w$	c #E2D8EB",
"x$	c #DED5E9",
"y$	c #C4B9CF",
"z$	c #4E415B",
"A$	c #21142D",
"B$	c #A99DB6",
"C$	c #443851",
"D$	c #F1E8F9",
"E$	c #E3DAEC",
"F$	c #E3D9EC",
"G$	c #E2D9EC",
"H$	c #E3D9ED",
"I$	c #D8CEE2",
"J$	c #968AA2",
"K$	c #80738C",
"L$	c #81748D",
"M$	c #1C1326",
"N$	c #766882",
"O$	c #473B53",
"P$	c #F0E7F8",
"Q$	c #E1D7EB",
"R$	c #E2D8EC",
"S$	c #BAAFC5",
"T$	c #4A3E58",
"U$	c #473A54",
"V$	c #392C46",
"W$	c #3E324B",
"X$	c #EEE6F8",
"Y$	c #E0D6EA",
"Z$	c #E0D5EA",
"`$	c #E4DAEF",
" %	c #52465F",
".%	c #23162E",
"+%	c #170F1E",
"@%	c #988BA5",
"#%	c #483B55",
"$%	c #E0D7EA",
"%%	c #E0D6EB",
"&%	c #9488A0",
"*%	c #291C36",
"=%	c #1C1225",
"-%	c #61546D",
";%	c #30233D",
">%	c #C3B9CD",
",%	c #E3DAED",
"'%	c #DFD5EA",
")%	c #E9DEF3",
"!%	c #A296AD",
"~%	c #1E1328",
"{%	c #93869E",
"]%	c #92879D",
"^%	c #E4DAEE",
"/%	c #E8DEF3",
"(%	c #1F142A",
"_%	c #93879E",
":%	c #40334D",
"<%	c #473B54",
"[%	c #D3C9DD",
"}%	c #E2D7EC",
"|%	c #E1D6EB",
"1%	c #D3C9DF",
"2%	c #796E86",
"3%	c #22162D",
"4%	c #7D7287",
"5%	c #91859D",
"6%	c #9B8DA8",
"7%	c #655971",
"8%	c #DACFE4",
"9%	c #9E93AA",
"0%	c #4D405A",
"a%	c #756A7E",
"b%	c #8B7F96",
"c%	c #91839D",
"d%	c #6B5E78",
"e%	c #3D3049",
"f%	c #5E5666",
"g%	c #675E70",
"h%	c #6B6174",
"i%	c #6C6375",
"j%	c #362C3F",
"                                              .                                                 ",
"                                              + @                                               ",
"                            #                 + $ %                                             ",
"                          @ + #               & * = .                                           ",
"                          - ; %               > , ' ) !                                         ",
"                          ~ { ] ^           / ( _ : < [                                         ",
"                          } | 1 2 3 + ) 4 5 6 7 8 9 0 & a                                       ",
"                          b c d e f g h i j k % l m n & o p                                     ",
"                        q r s t u v w x x y z ( A B C D E F G #                                 ",
"                      H I [ J K L M N O P Q R S T U V W X Y Z ` .                               ",
"                    (  ...+.@.#.K $.%.&.B *.=.-.m ;.@.+ >.,.'.).!.~.                            ",
"                  q {.].^./.(._.:.T <.[.B U }.|.1.2.3.4.5.6.7.8.9.0.&                           ",
"                % a.b.c.y d.e.f._.<.[.B U A g.h.i.j.k.l.m.n.o.p.q.r.s.@                         ",
"              t.u.v.x w.x.x y.z.A.B.B U A C.D.E.F.G.H.I.J.K.L.M.q.N.O.P..                       ",
"            3 Q.R.c.x.^.y S.T.U.V.W.X.A C.h.E.%.F.Y.Z.& `.I  +.+++@+#+$+> %+                    ",
"            (.&+c.w.^.*+=+U.-+;+>+,+U g.h.E.'+)+!+L %.~+{+]+^+/+(+_+:+<+[+&                     ",
"          %+}+|+1+^.x 2+`.3+4+5+6+A 7+h.8+'+)+9+Y.|.0+a+b+a+c+d+$ e+f+g+h+3+p                   ",
"          i+j+x ^.b.b.k+U.l+m+n+A 7+C.D.;.%.9+Y.L a+o+p+q+r+r+s+t+u+v+w+x+y+(.                  ",
"        H z+A+c.b.*+B+C+D+E+F+G+7+C.D.;.%.F.J L b+H+}.q+$.I+J+p+K+L+M+x+N+O+P+Q+                ",
"        H R+r S+x.T+R U+V+W+X+Y+g.D.Z+%.F.`+L b+H+}.c+$. @J+l .@+@$ @@#@$@%@&@[                 ",
"        5 *@=@x b.-@;@>@,@'@A g.h.Z+'+)+`+L b+)@}.c+$.r+!@l ~@{@~@]@L+^@$@/@(@t._@              ",
"      :@<@6 [@x }@|@1@2@3@4@g.C.E.Z+;.`+Y.|.)@o+p+5@r+I+6@.@{@7@8@9@U+0@a@#@b@% c@              ",
"      d@e@5 f@x g@h@i@j@k@D.C.E.D.l@m@)+L 0+H+p+n r+I+6@.@n@7@8@o@p@q@% r@s@t@= u@              ",
"      [ {.v@w@x x@y@z@A@4@*.E.;.A B@C@H+b+H+}.n $.I+0 .@n@7@8@D@p@E@i.e.F@G@H@I@J@              ",
"      q K@L@M@N@O@P@Q@R@8+8+Z+%.C.S@6 T@H+}.n $. @0 l ~@U@8@T@V@E@C E@W@X@Y@Z@`@ #              ",
"      $ .#+#@#N@##e.$#%#8+Z+'+9+8+&#L+*#o+q+$.r+J+6@~@=#-#T@V@;#>#,#'#C )#!#~#{#]#              ",
"      $ ^#/#=@(#_#& :#7+E.;.9+!+;.<#5 [#}#5@r+J+6@.@=#7@T@|#;#>#1#'#2#3#4#5#6#7##               ",
"      8#9#{.0#a#b#(.'#D.;.F.!+J %.c#d#e#f#r+!@6@.@=#7@8@|#p@E@1#'#g#9@4#h#i#j#k#F + l#          ",
"      m#n#o#`.p#q#r#9+;.)+!+J b+!+s#t#u#v#w#0 .@{@7@8@|#p@E@1#~+g#9@3#h#i#x#y#z#A#B@+ B#        ",
"      d@C#D#E#F#G#H#X.)+9+J |.0+|.I#8#J#K#~@l {@U@-#o@V@;#1#,#g#9@3#h#i#x#y#L#M#I#N#O#P#        ",
"      Q#R#S#q T#C+U#h.9+!+|.a+)@o+a+1@V#W#X#~@=#-#8@D@;#>#,#'#j#3#h#i#x#y#L#M#I#Y#m@Z#t+        ",
"        `# $i+.$+$C.F.!+L b+)@}.q+p+@$. #$$$%$&$Y#:#*$=$i#V@'#s+4#i.-$y#;$M#I#Y#m@>$,$'$)$      ",
"        !$~$U.( {+E.!+L b+0+}.c+n  @.@{$% ) 6 6 ]$8#q $ ) ^$A#g#i.i#z#;$L#I#/$m@>$($,$_$:$      ",
"        <$[$}$|$!@!+Y.|.0+}.c+n  @!@0 $.z#S@1$2$3$4$5$6$7$8$9$0$i#x#a$L#b$N#Y#f.5#A#c$M a       ",
"        B#(.d$e$L Y.|.0+o+p+n r+I+J+.@{@{@l q+f$g$h$i$j$k$l$m$m$a$a$L#M#N#Y#m@5#n$o$p$e         ",
"          G q$r$Y.L a+o+}.q+r+I+J+.@n@=#8@D@.@s$s$t$u$v$v$v$w$x$y$I#I#I#Y#m@5#n$A#5#z$A$        ",
"          8#F B$L b+H+}.q+$. @J+.@n@=#8@D@|#n@C@C$D$v$v$E$F$G$w$H$I$J$c#K$n$5#n$L$u [ M$        ",
"            $ N$L H+}.c+$. @!@l ~@=#-#D@|#E@=#-+O$P$v$E$F$G$w$Q$Q$R$S$3$} T$K+K+U$$ l#          ",
"                p+}.c+5@r+!@l .@{@-#T@o@;#>#-#V$W$X$E$F$G$w$Q$Q$Y$Z$`$ %q .%U+$ B#+%            ",
"                  q+5@r+I+6@.@n@7@8@o@p@>#@%o@#%M $%F$G$w$Q$Q$Y$Z$%%&%*%=%                      ",
"                    .@I+0 .@n@7@8@D@p@E@@%~+>#-%;%>%,%R$Q$Q$Y$'%)%!%6 ~%                        ",
"                      {%!@~@U@8@D@p@E@C ~+g#g#>$G ]%^%Q$Q$%%Z$/%a$*%(%                          ",
"                          _%|#T@|#E@>#~+g#l@3#~+:%<%[%}%|%}%1%2%q 3%                            ",
"                              4%5%6%>#,#2#3#h#&$,$+ 7%8%Z$9%0%( =%                              ",
"                                    a%b%l@j#4#c%-$d%(.e%<%S :@                                  ",
"                                            f%g%h%i%j%H - +%                                    ",
"                                                                                                ",
"                                                                                                "};
