/* XPM */
static char * audacity_xpm[] = {
"48 48 671 2",
"  	c None",
". 	c #C1D0EF",
"+ 	c #D1DCF3",
"@ 	c #DCE4F6",
"# 	c #E5EBF8",
"$ 	c #DAE2F6",
"% 	c #D1DAF4",
"& 	c #C2CFEF",
"* 	c #93ABE3",
"= 	c #97ACE4",
"- 	c #7F9BDE",
"; 	c #5276D2",
"> 	c #2F59C9",
", 	c #1E4AC4",
"' 	c #1946C3",
") 	c #204DC5",
"! 	c #335DCA",
"~ 	c #577AD4",
"{ 	c #85A0E0",
"] 	c #99AFE4",
"^ 	c #93AAE3",
"/ 	c #8BA5E1",
"( 	c #7492DB",
"_ 	c #5075D2",
": 	c #2352C9",
"< 	c #0139C2",
"[ 	c #0031BE",
"} 	c #0031B7",
"| 	c #0032AF",
"1 	c #0031AA",
"2 	c #0031A8",
"3 	c #0032B0",
"4 	c #0030B8",
"5 	c #0031BF",
"6 	c #043AC3",
"7 	c #2A58CA",
"8 	c #567AD3",
"9 	c #7895DC",
"0 	c #88A3E0",
"a 	c #7795DC",
"b 	c #355FCA",
"c 	c #093EC2",
"d 	c #003AC1",
"e 	c #0032A9",
"f 	c #002B90",
"g 	c #00267F",
"h 	c #00216E",
"i 	c #001D61",
"j 	c #001B59",
"k 	c #001A56",
"l 	c #001A58",
"m 	c #002170",
"n 	c #002680",
"o 	c #002B91",
"p 	c #0033AD",
"q 	c #003AC3",
"r 	c #0D40C3",
"s 	c #436BCE",
"t 	c #809CDE",
"u 	c #6083D6",
"v 	c #5F82D6",
"w 	c #1243C2",
"x 	c #0035B9",
"y 	c #00309F",
"z 	c #002479",
"A 	c #00133D",
"B 	c #001240",
"C 	c #001E64",
"D 	c #00257B",
"E 	c #0031A1",
"F 	c #0033B8",
"G 	c #1546C3",
"H 	c #6285D7",
"I 	c #5E81D6",
"J 	c #476ED0",
"K 	c #063CBF",
"L 	c #002FA3",
"M 	c #001A57",
"N 	c #002782",
"O 	c #0031A6",
"P 	c #0D41C0",
"Q 	c #5076D2",
"R 	c #5E82D5",
"S 	c #4D75D2",
"T 	c #3F6ACF",
"U 	c #053AB9",
"V 	c #002A90",
"W 	c #001F68",
"X 	c #001F69",
"Y 	c #002C96",
"Z 	c #053ABD",
"` 	c #4C74D1",
" .	c #4A72D1",
"..	c #0B3DB7",
"+.	c #002A8E",
"@.	c #001C5A",
"#.	c #001D62",
"$.	c #002C8F",
"%.	c #0B3EBD",
"&.	c #4A73D1",
"*.	c #1B4BC0",
"=.	c #002992",
"-.	c #00184E",
";.	c #002D96",
">.	c #2352C3",
",.	c #436CCD",
"'.	c #416BCE",
").	c #3260CC",
"!.	c #002B99",
"~.	c #00206B",
"{.	c #0332A4",
"].	c #3F6AD0",
"^.	c #2D4D96",
"/.	c #3F69CF",
"(.	c #0D3CB0",
"_.	c #00298A",
":.	c #002586",
"<.	c #204EBE",
"[.	c #3F68C9",
"}.	c #305DC8",
"|.	c #03309D",
"1.	c #001548",
"2.	c #012E9D",
"3.	c #3D68CE",
"4.	c #3360CC",
"5.	c #214EBA",
"6.	c #002988",
"7.	c #002891",
"8.	c #2A58C3",
"9.	c #2A4B9A",
"0.	c #315FCA",
"a.	c #1845B2",
"b.	c #001D64",
"c.	c #1845B1",
"d.	c #2F53A9",
"e.	c #2F5DC9",
"f.	c #103CA8",
"g.	c #0B37A2",
"h.	c #3159B7",
"i.	c #2E5CC8",
"j.	c #0A359B",
"k.	c #07339D",
"l.	c #2F59BC",
"m.	c #073195",
"n.	c #06319D",
"o.	c #2D58BE",
"p.	c #0037BD",
"q.	c #093BBE",
"r.	c #0034AF",
"s.	c #001D8E",
"t.	c #0027B6",
"u.	c #0236B1",
"v.	c #083ABB",
"w.	c #002B93",
"x.	c #0031BB",
"y.	c #2650C6",
"z.	c #829BDE",
"A.	c #7995DD",
"B.	c #335CC9",
"C.	c #073ABF",
"D.	c #083CBF",
"E.	c #4064CC",
"F.	c #829DDF",
"G.	c #0939BE",
"H.	c #7794DC",
"I.	c #1844C2",
"J.	c #0033BB",
"K.	c #043ABF",
"L.	c #728EDA",
"M.	c #F5F8FC",
"N.	c #DFE5F6",
"O.	c #244DC5",
"P.	c #E2E7F7",
"Q.	c #F1F4FB",
"R.	c #456CD0",
"S.	c #FFAA00",
"T.	c #FFAF00",
"U.	c #4566CC",
"V.	c #FFFFFF",
"W.	c #D6E0F5",
"X.	c #0A38BE",
"Y.	c #E2E9F7",
"Z.	c #F8FAFD",
"`.	c #597AD4",
" +	c #0036BD",
".+	c #0030BB",
"++	c #6382D6",
"@+	c #DCE4F7",
"#+	c #D3DCF4",
"$+	c #C4D0F0",
"%+	c #204BC4",
"&+	c #CAD6F2",
"*+	c #3B66D1",
"=+	c #FFBC00",
"-+	c #FFC400",
";+	c #FFC300",
">+	c #FFA900",
",+	c #FFC000",
"'+	c #FFBF00",
")+	c #FF9400",
"!+	c #FF9A00",
"~+	c #FFB200",
"{+	c #0038BD",
"]+	c #3A5FCA",
"^+	c #DFE6F7",
"/+	c #BCCCEE",
"(+	c #C4D1F1",
"_+	c #D3DDF4",
":+	c #D9E1F6",
"<+	c #003AC2",
"[+	c #0033BC",
"}+	c #2855C7",
"|+	c #C5D1F0",
"1+	c #BCCAEE",
"2+	c #BCCBEE",
"3+	c #B0C0EA",
"4+	c #1D49C3",
"5+	c #AFBFEA",
"6+	c #B4C5EB",
"7+	c #3461D0",
"8+	c #FFB000",
"9+	c #FFC500",
"0+	c #FF8C00",
"a+	c #FFBA00",
"b+	c #FF7700",
"c+	c #FFB500",
"d+	c #FFC100",
"e+	c #FFC200",
"f+	c #FFCB00",
"g+	c #FF8500",
"h+	c #FF9900",
"i+	c #345AC9",
"j+	c #C6D3F0",
"k+	c #A8BBE8",
"l+	c #0938BE",
"m+	c #B0C2EB",
"n+	c #BECCEE",
"o+	c #AEC0EA",
"p+	c #1243C5",
"q+	c #002D8F",
"r+	c #839DDF",
"s+	c #A6BAE9",
"t+	c #A6BAE8",
"u+	c #A7BAE9",
"v+	c #9BB1E6",
"w+	c #1947C3",
"x+	c #9AB0E5",
"y+	c #A0B5E7",
"z+	c #2E5DCF",
"A+	c #FFCD00",
"B+	c #FFC900",
"C+	c #FF9B00",
"D+	c #FFCA00",
"E+	c #FF6E00",
"F+	c #FF5E00",
"G+	c #FFAC00",
"H+	c #FF9300",
"I+	c #FFBD00",
"J+	c #FFD300",
"K+	c #FF7100",
"L+	c #FF7E00",
"M+	c #FFCC00",
"N+	c #3F5696",
"O+	c #2C55C9",
"P+	c #B0C2EC",
"Q+	c #95ADE4",
"R+	c #0838BE",
"S+	c #9BB2E6",
"T+	c #A8BAE9",
"U+	c #5578D3",
"V+	c #0032B9",
"W+	c #184AC4",
"X+	c #8AA3E1",
"Y+	c #8FA8E2",
"Z+	c #90A8E2",
"`+	c #90A9E2",
" @	c #86A1DF",
".@	c #1645C2",
"+@	c #84A0DF",
"@@	c #89A3E1",
"#@	c #2858CD",
"$@	c #FFC700",
"%@	c #FFD100",
"&@	c #FFCE00",
"*@	c #FF5000",
"=@	c #FFA500",
"-@	c #FF4800",
";@	c #FF9F00",
">@	c #FFB900",
",@	c #FF6500",
"'@	c #FFDB00",
")@	c #FF5A00",
"!@	c #FF6000",
"~@	c #FFD400",
"{@	c #616F75",
"]@	c #254FCC",
"^@	c #97AFE4",
"/@	c #7F9CDE",
"(@	c #0739BE",
"_@	c #87A2E0",
":@	c #91AAE3",
"<@	c #90A9E3",
"[@	c #8CA4E1",
"}@	c #0034BB",
"|@	c #315DCA",
"1@	c #7896DC",
"2@	c #7997DD",
"3@	c #7A97DD",
"4@	c #7A98DE",
"5@	c #7291DA",
"6@	c #1343C2",
"7@	c #708FDB",
"8@	c #7393DB",
"9@	c #1E4FCE",
"0@	c #5C5741",
"a@	c #E4AF00",
"b@	c #FFCF00",
"c@	c #FF6100",
"d@	c #FF9500",
"e@	c #FF3800",
"f@	c #FF3600",
"g@	c #FF8E00",
"h@	c #FFAB00",
"i@	c #FFDE00",
"j@	c #FF4400",
"k@	c #FF3E00",
"l@	c #FF9D00",
"m@	c #FFC800",
"n@	c #637074",
"o@	c #1E4BCA",
"p@	c #6B8CDA",
"q@	c #0638BD",
"r@	c #7291DB",
"s@	c #7B98DE",
"t@	c #7996DD",
"u@	c #819DDF",
"v@	c #2051C5",
"w@	c #002484",
"x@	c #0139BE",
"y@	c #3963CC",
"z@	c #6487D8",
"A@	c #6386D7",
"B@	c #6486D8",
"C@	c #6587D8",
"D@	c #5D81D6",
"E@	c #0F41C1",
"F@	c #5B7FD5",
"G@	c #1649CC",
"H@	c #A58C33",
"I@	c #F3BE00",
"J@	c #FFDC00",
"K@	c #FF2700",
"L@	c #FF7300",
"M@	c #FF2500",
"N@	c #FF7D00",
"O@	c #FF8800",
"P@	c #FF2300",
"Q@	c #FF7600",
"R@	c #FFDF00",
"S@	c #FF2D00",
"T@	c #FF2400",
"U@	c #FF7400",
"V@	c #FF9C00",
"W@	c #FF9000",
"X@	c #6E776C",
"Y@	c #1846CA",
"Z@	c #6789D9",
"`@	c #577CD4",
" #	c #0539BD",
".#	c #5E82D6",
"+#	c #6487D7",
"@#	c #6687D8",
"##	c #002793",
"$#	c #023ABF",
"%#	c #335FCA",
"&#	c #4D74D2",
"*#	c #4D75D1",
"=#	c #4E75D2",
"-#	c #4971D0",
";#	c #0C40C0",
">#	c #456ECF",
",#	c #4770D0",
"'#	c #0D43CC",
")#	c #B99530",
"!#	c #F8D700",
"~#	c #FFD900",
"{#	c #FFDA00",
"]#	c #FFB800",
"^#	c #FF1C00",
"/#	c #FF3700",
"(#	c #FF1600",
"_#	c #FF4E00",
":#	c #FF1700",
"<#	c #FF5F00",
"[#	c #FF1A00",
"}#	c #FF2B00",
"|#	c #FF1800",
"1#	c #FF1300",
"2#	c #FFA700",
"3#	c #FF3D00",
"4#	c #FF5900",
"5#	c #777766",
"6#	c #1043C9",
"7#	c #4F76D1",
"8#	c #436CCF",
"9#	c #0439BE",
"0#	c #4972D1",
"a#	c #4E76D2",
"b#	c #4D74D1",
"c#	c #3764CD",
"d#	c #002B9B",
"e#	c #023ABE",
"f#	c #2758C8",
"g#	c #3663CD",
"h#	c #3763CD",
"i#	c #3764CC",
"j#	c #3865CC",
"k#	c #3462CB",
"l#	c #083DBF",
"m#	c #305ECB",
"n#	c #3260CB",
"o#	c #063ECB",
"p#	c #BC992F",
"q#	c #FEE800",
"r#	c #FF0000",
"s#	c #FFC600",
"t#	c #FF0A00",
"u#	c #FF0500",
"v#	c #FF2600",
"w#	c #FF0800",
"x#	c #FF5C00",
"y#	c #FF2A00",
"z#	c #FF0D00",
"A#	c #FF0100",
"B#	c #FF0300",
"C#	c #FF7200",
"D#	c #FF7900",
"E#	c #FF0200",
"F#	c #FF1E00",
"G#	c #7A6F63",
"H#	c #0A3EC7",
"I#	c #2E5ECB",
"J#	c #0339BF",
"K#	c #3562CC",
"L#	c #3864CC",
"M#	c #2C5BCA",
"N#	c #0239BE",
"O#	c #184CC4",
"P#	c #2152C5",
"Q#	c #2053C5",
"R#	c #2253C6",
"S#	c #2254C7",
"T#	c #2051C6",
"U#	c #053CBF",
"V#	c #1B4DC4",
"W#	c #1C4EC4",
"X#	c #003BC9",
"Y#	c #BF7C2E",
"Z#	c #FFED00",
"`#	c #FF2200",
" $	c #FFB700",
".$	c #FF6C00",
"+$	c #FF0700",
"@$	c #FF3F00",
"#$	c #FF0F00",
"$$	c #FF0C00",
"%$	c #FF0E00",
"&$	c #FF3000",
"*$	c #FF1500",
"=$	c #FF1100",
"-$	c #FF1400",
";$	c #814D5E",
">$	c #033BC7",
",$	c #1E50C5",
"'$	c #0239BF",
")$	c #2051C7",
"!$	c #2154C6",
"~$	c #2153C6",
"{$	c #2052C6",
"]$	c #2052C5",
"^$	c #1B4EC6",
"/$	c #0031A7",
"($	c #0039BE",
"_$	c #073EC0",
":$	c #0A40C1",
"<$	c #0B41C1",
"[$	c #0C41C1",
"}$	c #013ABF",
"|$	c #063EC0",
"1$	c #003DC9",
"2$	c #C0272E",
"3$	c #FF1D00",
"4$	c #FF4B00",
"5$	c #FF1F00",
"6$	c #FF3100",
"7$	c #FF5400",
"8$	c #FF2800",
"9$	c #FF2C00",
"0$	c #FF2900",
"a$	c #FF2E00",
"b$	c #FF2F00",
"c$	c #874F5A",
"d$	c #0037C6",
"e$	c #073FC0",
"f$	c #073EBF",
"g$	c #013ABE",
"h$	c #0940C1",
"i$	c #083FC1",
"j$	c #0031A5",
"k$	c #0039BF",
"l$	c #003AC9",
"m$	c #BE422F",
"n$	c #FF3C00",
"o$	c #FF3B00",
"p$	c #FF4100",
"q$	c #FF4300",
"r$	c #FF4500",
"s$	c #FF4600",
"t$	c #FF4700",
"u$	c #FF4900",
"v$	c #FF4A00",
"w$	c #8B6258",
"x$	c #0034C7",
"y$	c #003AC0",
"z$	c #0030A1",
"A$	c #0037B6",
"B$	c #0034AE",
"C$	c #0038C5",
"D$	c #BA4D30",
"E$	c #FF4F00",
"F$	c #FF5100",
"G$	c #FF5300",
"H$	c #FF5600",
"I$	c #FF8000",
"J$	c #FF4D00",
"K$	c #FF4C00",
"L$	c #FF5B00",
"M$	c #FF6300",
"N$	c #87625B",
"O$	c #0033C3",
"P$	c #0034AD",
"Q$	c #0038B9",
"R$	c #002F9A",
"S$	c #002E97",
"T$	c #002E98",
"U$	c #B84932",
"V$	c #FB4800",
"W$	c #FF7500",
"X$	c #FF6700",
"Y$	c #FF9100",
"Z$	c #FF5700",
"`$	c #FF5800",
" %	c #FF8D00",
".%	c #FF6B00",
"+%	c #FFD700",
"@%	c #FF5500",
"#%	c #FF5200",
"$%	c #FF8400",
"%%	c #FFB100",
"&%	c #7A6664",
"*%	c #0032BC",
"=%	c #002D94",
"-%	c #002C94",
";%	c #0035B1",
">%	c #002A8C",
",%	c #0034AC",
"'%	c #002781",
")%	c #B16635",
"!%	c #F95600",
"~%	c #FFBB00",
"{%	c #FF6A00",
"]%	c #FF7800",
"^%	c #FF6400",
"/%	c #FF8100",
"(%	c #FFB300",
"_%	c #FF7F00",
":%	c #FFEF00",
"<%	c #FF8200",
"[%	c #FF6200",
"}%	c #FFE300",
"|%	c #FF9600",
"1%	c #FF8B00",
"2%	c #757768",
"3%	c #0030B6",
"4%	c #00257A",
"5%	c #0036B5",
"6%	c #0036B4",
"7%	c #00206D",
"8%	c #001F6A",
"9%	c #002CAF",
"0%	c #A18F38",
"a%	c #F37600",
"b%	c #FFA200",
"c%	c #FFE000",
"d%	c #FFB600",
"e%	c #FF7B00",
"f%	c #FF9E00",
"g%	c #FF9200",
"h%	c #FFEE00",
"i%	c #FFA600",
"j%	c #FF9700",
"k%	c #FFE500",
"l%	c #FFE700",
"m%	c #FFBE00",
"n%	c #6E746D",
"o%	c #002FB0",
"p%	c #001D63",
"q%	c #001F67",
"r%	c #002270",
"s%	c #003CC6",
"t%	c #002477",
"u%	c #00174B",
"v%	c #001950",
"w%	c #001952",
"x%	c #002BA9",
"y%	c #9A843A",
"z%	c #E9AA00",
"A%	c #FFD600",
"B%	c #FFE600",
"C%	c #FFA100",
"D%	c #FF8900",
"E%	c #FFE900",
"F%	c #566880",
"G%	c #002EA9",
"H%	c #001648",
"I%	c #001649",
"J%	c #002F9B",
"K%	c #002C93",
"L%	c #0039BD",
"M%	c #001341",
"N%	c #001035",
"O%	c #001139",
"P%	c #00123C",
"Q%	c #0029A2",
"R%	c #927E3C",
"S%	c #E3AC00",
"T%	c #FFE200",
"U%	c #FFD200",
"V%	c #4B618A",
"W%	c #002DA2",
"X%	c #000E30",
"Y%	c #001037",
"Z%	c #0038B7",
"`%	c #0035AE",
" &	c #000F32",
".&	c #00091F",
"+&	c #000A1F",
"@&	c #000920",
"#&	c #000B26",
"$&	c #00299D",
"%&	c #756B42",
"&&	c #DCA700",
"*&	c #FFB400",
"=&	c #103CBC",
"-&	c #000717",
";&	c #001137",
">&	c #0035AF",
",&	c #001B5A",
"'&	c #00123D",
")&	c #001955",
"!&	c #00257D",
"~&	c #0032AB",
"{&	c #002375",
"]&	c #00184D",
"^&	c #0036B6",
"/&	c #002A8A",
"(&	c #0034A9",
"_&	c #0035B0",
":&	c #0031A3",
"<&	c #0032A8",
"[&	c #0032A6",
"                                                                                                ",
"                                                                                                ",
"                                        . + @ # $ % &                                           ",
"                                  * = - ; > , ' ) ! ~ { ] ^                                     ",
"                            / ( _ : < [ } | 1 2 1 3 4 5 6 7 8 9 0                               ",
"                          a b c d e f g h i j k l i m n o p q r s t                             ",
"                      u v w x y z i A                   B C D E F G H                           ",
"                    I J K L D k                               M N O P Q R                       ",
"                  S T U V W                                       X Y Z `                       ",
"                   ...+.@.                                          #.$.%.&.                    ",
"                 .*.=.-.                                              C ;.>.,.                  ",
"              '.).!.W                                                   ~.{.].^.                ",
"              /.(._.                                                      :.<.[.                ",
"              }.|.1.                                                        2.3.                ",
"            4.5.6.                                                          7.8.9.              ",
"            0.a.b.                                                          Y c.d.              ",
"            e.f.                                                              g.h.              ",
"            i.j.                                                              k.l.              ",
"            i.m.                                                              n.o.              ",
"          p.q.r.s.                                                          t.u.v.w.            ",
"        x.y.z.) A.B.C.                                                  D.E.F.G.H.I.J.          ",
"      K.L.M.N.O.P.Q.R.                      S.          T.            p.U.V.W.X.Y.Z.`. +        ",
"    .+++@+#+$+%+$+&+*+          =+-+;+>+,+'+)+=+;+;+;+-+!+~+          {+]+^+/+X.(+_+:+; <+      ",
"  [+}+|+1+2+3+4+5+6+7+        ;+8+9+,+0+-+a+b+c+d+a+e+f+g+h+            i+j+k+l+m+n+2+o+p+q+    ",
"  [+r+s+t+u+v+w+x+y+z+      A+B+C+D+a+E+B+~+F+G+=+H+I+J+K+L+M+  -+    N+O+P+Q+R+S+T+t+m+U+V+    ",
"  W+X+Y+Z+`+ @.@+@@@#@    $@A+%@L+&@~+*@f+=@-@;@>@,@c+'@)@!@~@I+d+-+  {@]@^@/@(@_@:@Z+<@[@}@    ",
"  |@1@2@3@4@5@6@7@8@9@0@a@d+b@J+c@J+d@e@f+)+f@g@h@e@=@i@j@k@'@l@m@;+%@n@o@- p@q@r@s@3@t@u@v@w@  ",
"x@y@z@A@B@C@D@E@F@D@G@H@I@B+~@D+k@J@,@K@&@L@M@N@O@P@Q@R@S@T@&@U@A+V@W@X@Y@Z@`@ #.#C@+#A@@#).##  ",
"$#%#&#*#*#=#-#;#>#,#'#)#!#~#{#]#^#R@/#(#b@_#:#E+<#[#}#~#|#1#2#-@f+3#4#5#6#7#8#9#0#a#S *#b#c#d#  ",
"e#f#g#h#i#j#k#l#m#n#o#p#q#=@R@h+r#s#t#u#f+v#w#x#y#z#A#l@B#u#C#^#D#E#F#G#H#c#I#J#K#L#L#h#g#M#L   ",
"N#O#P#Q#R#S#T#U#V#W#X#Y#Z#`# $.$r#C#r#r#~++$+$@$z##$$$K@%$z#&$*$=$-$z#;$>$,$V#'$)$!$~${$]$^$/$  ",
"($_$:$:$<$[$<$}$|$_$1$2$C+3$f@4$5$6$5$3$7$3$M@S@8$}#}#8$9$9$0$a$b$a$0$c$d$e$f$g$<$<$<$:$h$i$j$  ",
"($($k$k$k$k$k$k$k$k$l$m$n$o$n$3#k@k@j@p$p$q$q$q$j@j@r$r$s$t$-@u$v$v$v$w$x$($k$k$k$k$k$k$k$y$z$  ",
"($A$B$B$B$B$B$B$B$r.C$D$E$F$G$H$)@G$I$.$J$K$H$4#x#<#x#E+L$L$!@c@M$c@!@N$O$P$B$B$B$B$B$B$B$Q$R$  ",
"  P$S$S$S$S$S$S$S$T$ +U$V$M$,@W$;@X$2#Y$)@Z$`$4#.$ %.%+%@%#%!+$%%%,@F+&%*%=%S$S$S$S$S$S$-%;%>%  ",
"  ,%'%n n n n n n '%} )%!%V@O@0+~@$%~%8+{%Q@]%^%/%(%_%:%<%[%}%|%Z#1%1%2%3%D n n n n n n 4%5%    ",
"  6%7%X X X X X X 8%9%0%a%(%-+b%c%d%s#d+e%h+W@W$f%;+g%h%i%j%k%=@l%B+m%n%o%p%X X X X X q%r%d     ",
"  s%t%u%v%v%v%v%v%w%x%y%z%'+m@A%&@B%d+%@ %c+C%D%(%B+;@E%~%=+J@c+c%B+&@F%G%H%v%v%v%v%v%I%J%K%    ",
"    L%M%N%O%O%O%O%P%Q%R%S%;+'+T%9+k%~%U%2#,+~+;@,+D+G+i@=+m%A%;+J+B+  V%W%X%O%O%O%O%Y%j Z%      ",
"    q `% &.&+&+&@&#&$&%&&&-+'+~#,+'@I+f+*&d+>@=@;+-+~+A%m%'+%@s#9+    =&R$-&.&+&+&@&;&>&i       ",
"      j$P$,&P%'&)&!&~&      d+&@,+M+,+  d+,+I+G+e+        d+f+-+        ;%{&]&'&P%q%^&/&        ",
"          (&_&;%:&~.                          d%                          r%<&_&_&[&            ",
"                                                                                                ",
"                                                                                                ",
"                                                                                                ",
"                                                                                                ",
"                                                                                                ",
"                                                                                                "};
