/* XPM */
static char * avidemux_xpm[] = {
"48 48 225 2",
"  	g None",
". 	g #333333",
"+ 	g #363636",
"@ 	g #323232",
"# 	g #1C1C1C",
"$ 	g #242424",
"% 	g #484848",
"& 	g #676767",
"* 	g #717171",
"= 	g #787878",
"- 	g #858585",
"; 	g #696969",
"> 	g #292929",
", 	g #2A2A2A",
"' 	g #272727",
") 	g #343434",
"! 	g #575757",
"~ 	g #A4A4A4",
"{ 	g #D2D2D2",
"] 	g #DEDEDE",
"^ 	g #E6E6E6",
"/ 	g #606060",
"( 	g #232323",
"_ 	g #8A8A8A",
": 	g #282828",
"< 	g #3A3A3A",
"[ 	g #3E3E3E",
"} 	g #494949",
"| 	g #656565",
"1 	g #7F7F7F",
"2 	g #888888",
"3 	g #B9B9B9",
"4 	g #E9E9E9",
"5 	g #DBDBDB",
"6 	g #D5D5D5",
"7 	g #A9A9A9",
"8 	g #090909",
"9 	g #000000",
"0 	g #868686",
"a 	g #404040",
"b 	g #252525",
"c 	g #646464",
"d 	g #848484",
"e 	g #A7A7A7",
"f 	g #C9C9C9",
"g 	g #BDBDBD",
"h 	g #636363",
"i 	g #444444",
"j 	g #060606",
"k 	g #D3D3D3",
"l 	g #737373",
"m 	g #6D6D6D",
"n 	g #262626",
"o 	g #2C2C2C",
"p 	g #999999",
"q 	g #E5E5E5",
"r 	g #E1E1E1",
"s 	g #5E5E5E",
"t 	g #393939",
"u 	g #DCDCDC",
"v 	g #D4D4D4",
"w 	g #CBCBCB",
"x 	g #3B3B3B",
"y 	g #424242",
"z 	g #C1C1C1",
"A 	g #373737",
"B 	g #9D9D9D",
"C 	g #D0D0D0",
"D 	g #A5A5A5",
"E 	g #7D7D7D",
"F 	g #545454",
"G 	g #1F1F1F",
"H 	g #D7D7D7",
"I 	g #C5C5C5",
"J 	g #212121",
"K 	g #C0C0C0",
"L 	g #171717",
"M 	g #2F2F2F",
"N 	g #585858",
"O 	g #7C7C7C",
"P 	g #B5B5B5",
"Q 	g #ABABAB",
"R 	g #434343",
"S 	g #535353",
"T 	g #686868",
"U 	g #7B7B7B",
"V 	g #A1A1A1",
"W 	g #F0F0F0",
"X 	g #F7F7F7",
"Y 	g #EFEFEF",
"Z 	g #0A0A0A",
"` 	g #080808",
" .	g #A3A3A3",
"..	g #151515",
"+.	g #E7E7E7",
"@.	g #F1F1F1",
"#.	g #B8B8B8",
"$.	g #6F6F6F",
"%.	g #6A6A6A",
"&.	g #565656",
"*.	g #222222",
"=.	g #797979",
"-.	g #B2B2B2",
";.	g #DADADA",
">.	g #9B9B9B",
",.	g #747474",
"'.	g #4F4F4F",
").	g #040404",
"!.	g #353535",
"~.	g #616161",
"{.	g #ADADAD",
"].	g #F3F3F3",
"^.	g #CCCCCC",
"/.	g #949494",
"(.	g #5C5C5C",
"_.	g #313131",
":.	g #2D2D2D",
"<.	g #3D3D3D",
"[.	g #E0E0E0",
"}.	g #454545",
"|.	g #E2E2E2",
"1.	g #E3E3E3",
"2.	g #020202",
"3.	g #D8D8D8",
"4.	g #8E8E8E",
"5.	g #FFFFFF",
"6.	g #A2A2A2",
"7.	g #383838",
"8.	g #050505",
"9.	g #161616",
"0.	g #181818",
"a.	g #F9F9F9",
"b.	g #303030",
"c.	g #ECECEC",
"d.	g #828282",
"e.	g #5F5F5F",
"f.	g #B3B3B3",
"g.	g #BFBFBF",
"h.	g #EEEEEE",
"i.	g #B1B1B1",
"j.	g #A6A6A6",
"k.	g #B4B4B4",
"l.	g #727272",
"m.	g #8D8D8D",
"n.	g #B0B0B0",
"o.	g #9E9E9E",
"p.	g #959595",
"q.	g #989898",
"r.	g #939393",
"s.	g #919191",
"t.	g #4A4A4A",
"u.	g #1E1E1E",
"v.	g #929292",
"w.	g #909090",
"x.	g #BBBBBB",
"y.	g #C2C2C2",
"z.	g #777777",
"A.	g #D1D1D1",
"B.	g #A8A8A8",
"C.	g #757575",
"D.	g #2E2E2E",
"E.	g #CDCDCD",
"F.	g #0F0F0F",
"G.	g #D9D9D9",
"H.	g #101010",
"I.	g #0D0D0D",
"J.	g #DDDDDD",
"K.	g #0B0B0B",
"L.	g #202020",
"M.	g #F4F4F4",
"N.	g #AEAEAE",
"O.	g #EAEAEA",
"P.	g #878787",
"Q.	g #8C8C8C",
"R.	g #8B8B8B",
"S.	g #0E0E0E",
"T.	g #010101",
"U.	g #9F9F9F",
"V.	g #D6D6D6",
"W.	g #E4E4E4",
"X.	g #AAAAAA",
"Y.	g #626262",
"Z.	g #F5F5F5",
"`.	g #3C3C3C",
" +	g #141414",
".+	g #AFAFAF",
"++	g #1B1B1B",
"@+	g #C7C7C7",
"#+	g #CACACA",
"$+	g #808080",
"%+	g #EDEDED",
"&+	g #414141",
"*+	g #5A5A5A",
"=+	g #FBFBFB",
"-+	g #C6C6C6",
";+	g #C4C4C4",
">+	g #C3C3C3",
",+	g #7A7A7A",
"'+	g #B6B6B6",
")+	g #707070",
"!+	g #7E7E7E",
"~+	g #595959",
"{+	g #555555",
"]+	g #525252",
"^+	g #515151",
"/+	g #505050",
"(+	g #5B5B5B",
"_+	g #5D5D5D",
":+	g #898989",
"<+	g #FAFAFA",
"[+	g #F8F8F8",
"}+	g #FCFCFC",
"|+	g #BEBEBE",
"1+	g #767676",
"2+	g #BABABA",
"3+	g #F2F2F2",
"4+	g #4D4D4D",
"5+	g #4E4E4E",
"6+	g #FDFDFD",
"7+	g #818181",
"8+	g #979797",
"9+	g #6C6C6C",
"0+	g #4C4C4C",
"a+	g #4B4B4B",
"b+	g #666666",
"                                                                              . + @             ",
"                                                                    # $ % & * = - ; >           ",
"                                                            , ' ) ! ~ { ] ^ / ( ( _ :           ",
"                                                    ) < [ } | 1 2 3 4 5 6 7 8 9 9 0 a           ",
"                                          b ' + c d e f g h i : j g 6 k 6 l 9 9 9 | m           ",
"                                  n $ o % & 0 p q r 5 6 s 9 9 9 t u k v w x 9 9 9 y z #         ",
"                          ) A y h B C D E F G 1 H k k I J 9 9 9 p 6 k v K L M N O P Q G         ",
"                # ( R S T U V W X Y I Z 9 9 ` z v k 6  .9 9 9 ..f ] +.@.#.$.%.&.R [ $           ",
"        n *.+ =.-.;.>.,.'.L 3 ^ r ^ h 9 9 9 } C k k ;.y ).!.~.{.].^./.(.t _.:.                  ",
"      <. .[.[.(.}.,.9 9 9 $ 6 |.r 1.2.9 9 2.2 3.3.] |.= 4.O F '.M $ '                           ",
"      ; 5.5.t U 6.7.8.9 9 & |.r ^ d 9 9._.N [.1.I ~ $.A b 0.(                                   ",
"      i a.5.$ 3 ;.P b.8.` 7 1.|.c.d.- 2 * %.e.a t @                                             ",
"      x H 5.$ f.c.g.4.*.) h.4 |.z ~.[ ' > >                                                     ",
"      !.i.5.( j.3 P k.l.. 0 h }.b n                                                             ",
"        m.5.( B n.7 ~ o.c ..                                                                    ",
"        x T ( p.D o.q.r.s.t.u.b.. @ @ . + + A A + . . . . !.t t t t !.) ) . . x < x x .         ",
"        y D ( _ o./.v.v.r.w.A t U U =.E x.g.K y.g.0 =.= z.1 A.{ v 6 B.= z.C.* -.4 1.^ s.D.      ",
"        N c.G 2 1.4.v.r.q.E.p.:.0.F.F.Z (.[.H G.5 0 H.I.I.8 & W ^ +.J.J K.K.K.L.3.M.X N.@       ",
"        ! O.L.= P.Q.Q.Q.R.2 Q.l S.T.9 9 9 U.3.v V.3., 9 9 9 8 f.1.W.c.X.9 9 9 9 Y.h.Z.N.@       ",
"        &.W.; :.b.b.b.b.t `.`.t =  +9 9 9 ..K v k ;.3 2.9 9 9 <.;.|.W.W l.9 9 9 9 N.X .+@       ",
"        ! [.k  .*.++# # a ^.@+#+u B u.' > , $+u u ] W.p :.+ A ) P %+c.h.W.| &+i R *+=+f..       ",
"        i f 3.] Q R.Q.Q.Q.3 k A.A.V.V P.2 0 d g.-+;+>+K Q.,+=.z.,.#.'+k.k.U.,.)+m T $+%.        ",
"          ( y + + + !.!.!.. @ @ _._.. . . . @ _._.@ @ @ !.) ) ) ) @ . . . !.7.7.7.t [ (         ",
"          J !+~+N ~+~+*+*+*+*+*+~+*+~+~+N N N ! ! ! &.&.{+{+F {+F F S S ]+]+]+^+^+/+/ '         ",
"          J $+(+~+(+*+(+(.(.(.(+*+(+~+*+~+~+N ! ! &.! &.{+{+F F F S S ]+]+^+]+/+^+'.e.'         ",
"          L.1 (+~+*+(+*+(+(+(+*+(+*+~+~+~+&.{+N ! &.! {+&.{+{+F S S ]+S ^+]+^+/+/+'._+'         ",
"          J E *+~+*+*+*+(+*+~+(+*+*+~+F ! l.1 ! ! &.! {+&.{+{+F S S ]+S ^+]+^+^+/+'._+n         ",
"          J O *+N ~+~+_+~.$.=.&.N (+; @+~.5.:+! &.! &.&.{+F F F ! S ]+]+^+]+^+^+/+/+(+n         ",
"          J ,+*+~+N e.k.J.%+;./.r. .,+<+= 5.m.{+! &.&.{+{+F F N ,+/+S ]+]+^+^+/+/+/+~+n         ",
"          J =.~+! ~+*+T z.r 6 y.c.5.[+5.r }+|+2 F {+{+{+F {+S ~+1 /+S ]+]+^+/+/+'./+N n         ",
"          L.z.~+! ! N N s { N./+x.I & x.#.M.V.C.F {+{+F F S S ~+1 /+]+^+^+/+^+'./+'.! n         ",
"          L.1+N ! N s / h w -+(.2+N.*+! ,.!+* s s s _+_+(.(.(.e.!+~+*+*+*+N ^+'./+'.{+n         ",
"          L.,.N &.~+=.!+!+-+3+= 0 d.E !+E E 1 !+E E E O U O ,+,+1 ,+U ,+,+,.S /+'.'.F n         ",
"          L.l ! {+&.F F S /. ./+F F F S {+(+]+^+^+]+/+/+/+'.m +.h _+^+4+5+^+'.'.5+'.S n         ",
"          G * &.&.{+&.{+&.S /+&.&.&.{+(+-.3 /+_ C.]+4.p O ~+= 5.y.4 O | p Y.'.'.5+5+/+b         ",
"          G )+&.{+F ]+S S S S S ]+]+]+! 3+1.- 6+[+1.f @.G.c Y.5.=+5.1.1 *+5+5+5+'.5+'.b         ",
"          L.m {+F N U $+$+$+$+$+$+$+$+U x.7+m.P.k.8+= 1+1+O _ =+^ j.v.=.O z.]+'.5+5+'.b         ",
"          G 9+{+S F (._+_+_+_+_+_+_+_+_+~+_+(+(+N *+(.(+(+(+| v _ F ! ~+~+! '.5+4+5+0+b         ",
"          G %.S S F S S S S S S S S S ]+]+]+]+]+]+^+^+^+^+/+^+~+/+'.'.5+5+5+5+4+5+4+a+$         ",
"          G T S ]+S &.{+{+{+{+{+{+{+{+{+{+{+{+]+^+^+^+/+/+^+/+'./+'.'.5+'.5+4+5+4+0+t.$         ",
"          G & S ]+&.1+,.,.,.,.,.,.,.,.l l l )+F ^+^+/+^+/+/+'./+'.5+'.5+5+5+4+4+4+0+% $         ",
"          u.b+]+]+]+&.&.&.&.&.&.&.&.&.&.&.{+F ^+/+^+/+/+/+/+'.'.'.'.5+4+5+4+0+4+0+a+% $         ",
"          u.c ]+]+]+]+]+]+]+]+]+]+^+^+^+^+^+^+^+^+/+/+/+/+'.'.'.'.5+5+5+4+4+4+0+0+0+% (         ",
"          ++~+N ! ! &.&.&.{+{+F F S S ]+]+^+^+^+/+'.5+5+4+4+0+a+t.t.t.} } } % % % % R L.        ",
"          L L.J J J J J J L.L.L.L.L.L.L.L.L.L.L.L.L.L.L.L.L.G G G G G G G G G G G G u.L         ",
"                                                                                                ",
"                                                                                                ",
"                                                                                                "};
