/* XPM */
static char * blender3d_xpm[] = {
"48 48 617 2",
"  	c None",
". 	c #CA5800",
"+ 	c #CC5B00",
"@ 	c #D76301",
"# 	c #E8740A",
"$ 	c #E47008",
"% 	c #CF5C00",
"& 	c #D36000",
"* 	c #FA9530",
"= 	c #F8A452",
"- 	c #F8A14A",
"; 	c #F2871F",
"> 	c #D56302",
", 	c #CD5B00",
"' 	c #D05D00",
") 	c #EC8322",
"! 	c #F9A24D",
"~ 	c #F8A14C",
"{ 	c #F8A351",
"] 	c #F59336",
"^ 	c #DE6C08",
"/ 	c #CC5900",
"( 	c #D05E01",
"_ 	c #E67917",
": 	c #F9A552",
"< 	c #F7A553",
"[ 	c #F8A453",
"} 	c #F7A24E",
"| 	c #EA7A12",
"1 	c #CE5C00",
"2 	c #E2720D",
"3 	c #F7A14E",
"4 	c #F8A859",
"5 	c #F7A655",
"6 	c #F9AA5D",
"7 	c #EF8725",
"8 	c #D36103",
"9 	c #CB5800",
"0 	c #D96908",
"a 	c #F3963F",
"b 	c #F9AC63",
"c 	c #F8A758",
"d 	c #FAAC5F",
"e 	c #F4973E",
"f 	c #DC6B09",
"g 	c #CC5A00",
"h 	c #D26104",
"i 	c #F18E2F",
"j 	c #FAB16B",
"k 	c #F8A95B",
"l 	c #F8A75A",
"m 	c #E57917",
"n 	c #CF5D00",
"o 	c #D05F02",
"p 	c #D05F03",
"q 	c #D15F03",
"r 	c #F0923B",
"s 	c #FAB26B",
"t 	c #F8AA5D",
"u 	c #FAAE63",
"v 	c #ED8627",
"w 	c #D05F01",
"x 	c #D36205",
"y 	c #E98429",
"z 	c #F1943E",
"A 	c #F29842",
"B 	c #F29843",
"C 	c #F29945",
"D 	c #F29946",
"E 	c #F29A47",
"F 	c #F39B49",
"G 	c #F39C4A",
"H 	c #F39D4B",
"I 	c #F39E4D",
"J 	c #F39E4E",
"K 	c #F39F4F",
"L 	c #F39F51",
"M 	c #F39F52",
"N 	c #F3A052",
"O 	c #F3A153",
"P 	c #F3A154",
"Q 	c #F3A152",
"R 	c #F3A861",
"S 	c #F9B069",
"T 	c #F9AC61",
"U 	c #F8AB5E",
"V 	c #F8AB60",
"W 	c #FAAF66",
"X 	c #F49943",
"Y 	c #DA6A0A",
"Z 	c #EE8B2F",
"` 	c #F9A34F",
" .	c #F89D44",
"..	c #F89F47",
"+.	c #F8A04B",
"@.	c #F8A24F",
"#.	c #F8A552",
"$.	c #F8A656",
"%.	c #F8AA5C",
"&.	c #F9AB60",
"*.	c #F9AD62",
"=.	c #F9AE66",
"-.	c #F9B068",
";.	c #F9B16B",
">.	c #F9B26D",
",.	c #F9B36F",
"'.	c #F9B46F",
").	c #F9B470",
"!.	c #F9B36E",
"~.	c #F9B16C",
"{.	c #F8B068",
"].	c #F9AE65",
"^.	c #F9AD63",
"/.	c #F9AB5F",
"(.	c #F8A658",
"_.	c #E37513",
":.	c #CB5900",
"<.	c #F8A24C",
"[.	c #F89D46",
"}.	c #F8A049",
"|.	c #F8A24D",
"1.	c #F8A555",
"2.	c #F8A95C",
"3.	c #F8AE65",
"4.	c #F9B26C",
"5.	c #F8B36E",
"6.	c #F9B571",
"7.	c #F9B572",
"8.	c #F8B26E",
"9.	c #F8B16B",
"0.	c #F8B069",
"a.	c #F8AC62",
"b.	c #EC8423",
"c.	c #D05E00",
"d.	c #CD5A00",
"e.	c #DB6E11",
"f.	c #F29841",
"g.	c #F69E49",
"h.	c #F69E4B",
"i.	c #F6A04C",
"j.	c #F6A14E",
"k.	c #F6A150",
"l.	c #F6A151",
"m.	c #F6A353",
"n.	c #F6A355",
"o.	c #F5A455",
"p.	c #F6AB63",
"q.	c #F8B472",
"r.	c #F8B36F",
"s.	c #F9B675",
"t.	c #FAB776",
"u.	c #FAB573",
"v.	c #F9BB7E",
"w.	c #F9BC80",
"x.	c #F9B878",
"y.	c #F9AF67",
"z.	c #F8AA5E",
"A.	c #F9AB5E",
"B.	c #F19239",
"C.	c #D66404",
"D.	c #D16004",
"E.	c #D16104",
"F.	c #DF7E2A",
"G.	c #FABE82",
"H.	c #F8B26D",
"I.	c #FAB775",
"J.	c #F9B776",
"K.	c #FAC694",
"L.	c #FDE6D0",
"M.	c #FEF6EE",
"N.	c #FEF8F3",
"O.	c #FEF9F3",
"P.	c #FEF8F2",
"Q.	c #FEF5ED",
"R.	c #FCE2C9",
"S.	c #F9BC7F",
"T.	c #F9A95B",
"U.	c #F69D47",
"V.	c #D96704",
"W.	c #CF5F05",
"X.	c #E28533",
"Y.	c #FABB7C",
"Z.	c #F9B674",
"`.	c #F9B877",
" +	c #FAC28C",
".+	c #FDEBD9",
"++	c #FFFFFF",
"@+	c #FDE6D1",
"#+	c #F9A859",
"$+	c #F7A555",
"%+	c #F7A34F",
"&+	c #F8AF67",
"*+	c #F69E48",
"=+	c #D66505",
"-+	c #D4680E",
";+	c #EC9A4F",
">+	c #FBB876",
",+	c #F9B16A",
"'+	c #F8B26C",
")+	c #F9B471",
"!+	c #FBCB9D",
"~+	c #FFFFFE",
"{+	c #F8FAFC",
"]+	c #F1F4F8",
"^+	c #FFFEFE",
"/+	c #FEF7F0",
"(+	c #FABF87",
"_+	c #F7A350",
":+	c #F7A14C",
"<+	c #F1933A",
"[+	c #DB741D",
"}+	c #F5AE6B",
"|+	c #FAB16C",
"1+	c #FAC48F",
"2+	c #FDFCFA",
"3+	c #FDFDFE",
"4+	c #FDFDFD",
"5+	c #FEFEFD",
"6+	c #EAEFF4",
"7+	c #AFC2DB",
"8+	c #9CB4D3",
"9+	c #98B1D1",
"0+	c #97B0D0",
"a+	c #A8BDD8",
"b+	c #E9EEF5",
"c+	c #FEFEFE",
"d+	c #FEFEFF",
"e+	c #FEFDFC",
"f+	c #F9B979",
"g+	c #F89F49",
"h+	c #FAAD61",
"i+	c #E3791C",
"j+	c #CF5E02",
"k+	c #E1812E",
"l+	c #FAB570",
"m+	c #FAF3EB",
"n+	c #FBFBFC",
"o+	c #FBFBFB",
"p+	c #FCFCFC",
"q+	c #D9E1ED",
"r+	c #92ACCE",
"s+	c #91ACCE",
"t+	c #90ABCD",
"u+	c #8DA9CC",
"v+	c #8BA7CB",
"w+	c #87A5C9",
"x+	c #81A0C7",
"y+	c #CED9E8",
"z+	c #FBECDE",
"A+	c #F57B05",
"B+	c #F47600",
"C+	c #F5810F",
"D+	c #F99C41",
"E+	c #D4670C",
"F+	c #ED994C",
"G+	c #FBB36B",
"H+	c #F8A759",
"I+	c #F9A95C",
"J+	c #F9CEA4",
"K+	c #F9F8F8",
"L+	c #FAFAF9",
"M+	c #FCFBFB",
"N+	c #DEE5EE",
"O+	c #8DA8CC",
"P+	c #90AACD",
"Q+	c #8FAACD",
"R+	c #8EA9CC",
"S+	c #86A3C8",
"T+	c #698EBC",
"U+	c #4E79B0",
"V+	c #3667A5",
"W+	c #C8D4E3",
"X+	c #F8F8F8",
"Y+	c #F8F7F6",
"Z+	c #F6AD65",
"`+	c #F47800",
" @	c #F57700",
".@	c #F8983B",
"+@	c #E57E21",
"@@	c #CA5600",
"#@	c #DA7018",
"$@	c #F6AA61",
"%@	c #F8A350",
"&@	c #F7A453",
"*@	c #F7A656",
"=@	c #F9A85A",
"-@	c #F9AC60",
";@	c #F7DFC7",
">@	c #F7F7F8",
",@	c #FBFAF9",
"'@	c #9EB5D3",
")@	c #8CA7CC",
"!@	c #8CA8CB",
"~@	c #8CA7CB",
"{@	c #6B8FBC",
"]@	c #3E6DA8",
"^@	c #3566A4",
"/@	c #3364A3",
"(@	c #3264A3",
"_@	c #577FB3",
":@	c #FDFBF9",
"<@	c #F6F6F6",
"[@	c #F6F7F8",
"}@	c #F5CCA4",
"|@	c #F47C06",
"1@	c #F57900",
"2@	c #F47700",
"3@	c #F58619",
"4@	c #CD5900",
"5@	c #CF5D01",
"6@	c #E4832D",
"7@	c #F8A655",
"8@	c #F79E48",
"9@	c #F8A451",
"0@	c #F8A554",
"a@	c #F8A757",
"b@	c #F6E8DA",
"c@	c #F5F6F6",
"d@	c #ECEEF2",
"e@	c #91ACCD",
"f@	c #88A5C9",
"g@	c #7E9DC5",
"h@	c #4975AD",
"i@	c #2F61A2",
"j@	c #3465A4",
"k@	c #4470AA",
"l@	c #E3E7EC",
"m@	c #F4F4F3",
"n@	c #F3F4F4",
"o@	c #F4DDC7",
"p@	c #F4800F",
"q@	c #F57800",
"r@	c #F47900",
"s@	c #F59F4D",
"t@	c #D56509",
"u@	c #CB5700",
"v@	c #D4650A",
"w@	c #ED9646",
"x@	c #FAAC61",
"y@	c #F79F48",
"z@	c #F79A3F",
"A@	c #F8A85A",
"B@	c #F9B169",
"C@	c #F3A963",
"D@	c #F8AB62",
"E@	c #F4EADF",
"F@	c #F4F4F4",
"G@	c #E9ECEF",
"H@	c #84A1C8",
"I@	c #6187B8",
"J@	c #3767A5",
"K@	c #3163A3",
"L@	c #4370AA",
"M@	c #E0E4E9",
"N@	c #F1F1F1",
"O@	c #F0F1F1",
"P@	c #F1E0D0",
"Q@	c #F48111",
"R@	c #F69D48",
"S@	c #D86D12",
"T@	c #DD7317",
"U@	c #F6A95E",
"V@	c #F8A654",
"W@	c #F7983B",
"X@	c #F6983C",
"Y@	c #FBAE63",
"Z@	c #DF7315",
"`@	c #DE751A",
" #	c #F9B472",
".#	c #F7AC62",
"+#	c #F2E3D5",
"@#	c #F2F2F2",
"##	c #F6F5F3",
"$#	c #90AACC",
"%#	c #4773AD",
"&#	c #547CB1",
"*#	c #F4F2F0",
"=#	c #EEEEEE",
"-#	c #EEEEEF",
";#	c #EFD9C2",
">#	c #F69C44",
",#	c #DA6F15",
"'#	c #D05E02",
")#	c #E4812A",
"!#	c #F79E46",
"~#	c #F69230",
"{#	c #F79739",
"]#	c #F6A75B",
"^#	c #D8690A",
"/#	c #E0771C",
"(#	c #F9B370",
"_#	c #F7A04A",
":#	c #F7A657",
"<#	c #F2D6BC",
"[#	c #EFF0F0",
"}#	c #EFEFEF",
"|#	c #F2F1F0",
"1#	c #B2C1D4",
"2#	c #3162A2",
"3#	c #3263A3",
"4#	c #B9C6D6",
"5#	c #EEEDEC",
"6#	c #EAEAEA",
"7#	c #EBECED",
"8#	c #EEC59D",
"9#	c #F69F4A",
"0#	c #D96E13",
"a#	c #CA5700",
"b#	c #D66608",
"c#	c #EE9442",
"d#	c #FAAA5C",
"e#	c #F79535",
"f#	c #F68F2B",
"g#	c #F7973A",
"h#	c #FBAF65",
"i#	c #F19A49",
"j#	c #D66507",
"k#	c #DF761B",
"l#	c #F8A14D",
"m#	c #F8A24E",
"n#	c #F3C190",
"o#	c #EDEDEC",
"p#	c #E5E5E5",
"q#	c #ECE9E7",
"r#	c #98ADC8",
"s#	c #3868A5",
"t#	c #2E61A2",
"u#	c #3465A3",
"v#	c #3968A5",
"w#	c #9CB0CB",
"x#	c #EFEDEA",
"y#	c #E7E7E7",
"z#	c #E8E7E6",
"A#	c #EFA65E",
"B#	c #F6A557",
"C#	c #D7690C",
"D#	c #DD7215",
"E#	c #F6A95F",
"F#	c #F68D26",
"G#	c #EA892E",
"H#	c #CF5E01",
"I#	c #DA6D10",
"J#	c #F8B473",
"K#	c #F79B40",
"L#	c #F89E46",
"M#	c #F8A04A",
"N#	c #F8A553",
"O#	c #E8DFD6",
"P#	c #E2E2E2",
"Q#	c #C4CDD8",
"R#	c #7292BA",
"S#	c #3A69A6",
"T#	c #295DA0",
"U#	c #3A6AA7",
"V#	c #7493BB",
"W#	c #C6CFD9",
"X#	c #E4E4E4",
"Y#	c #E7D9CC",
"Z#	c #F47C08",
"`#	c #F58416",
" $	c #F5A356",
".$	c #D15D00",
"+$	c #FBAD62",
"@$	c #F79537",
"#$	c #F5871A",
"$$	c #F68A21",
"%$	c #E58127",
"&$	c #F6AC65",
"*$	c #F79B41",
"=$	c #F89C44",
"-$	c #F78C24",
";$	c #F08F2F",
">$	c #E0DDDC",
",$	c #DFE0E1",
"'$	c #DFDFDF",
")$	c #E0E0E0",
"!$	c #E6E4E2",
"~$	c #E9E7E3",
"{$	c #E9E6E3",
"]$	c #E7E5E3",
"^$	c #E2E2E1",
"/$	c #E1E1E1",
"($	c #E2E3E4",
"_$	c #E2E0DF",
":$	c #F18F2E",
"<$	c #F57600",
"[$	c #F89B41",
"}$	c #EF9037",
"|$	c #F59D49",
"1$	c #F58314",
"2$	c #F5861A",
"3$	c #F8A14B",
"4$	c #F7A95E",
"5$	c #DE7519",
"6$	c #CD5800",
"7$	c #C95500",
"8$	c #EC8C34",
"9$	c #F7993E",
"0$	c #F6871B",
"a$	c #F57500",
"b$	c #EE943C",
"c$	c #DFD3C8",
"d$	c #DCDFE2",
"e$	c #DDDCDC",
"f$	c #DCDCDC",
"g$	c #DDDDDD",
"h$	c #DEDEDE",
"i$	c #DFDEDE",
"j$	c #DEE1E4",
"k$	c #E1D5CA",
"l$	c #EF953D",
"m$	c #F57F0B",
"n$	c #FBAC5E",
"o$	c #DA6A09",
"p$	c #F9A656",
"q$	c #F79637",
"r$	c #F68A20",
"s$	c #F4A152",
"t$	c #D5660A",
"u$	c #D36001",
"v$	c #FBB065",
"w$	c #F7912E",
"x$	c #F57C06",
"y$	c #F28419",
"z$	c #E2BE9C",
"A$	c #D8DFE7",
"B$	c #D9DBDD",
"C$	c #DADADA",
"D$	c #DBDBDB",
"E$	c #DCDDDF",
"F$	c #DAE2E8",
"G$	c #E3C09D",
"H$	c #F2841A",
"I$	c #F89738",
"J$	c #F1943B",
"K$	c #E0761B",
"L$	c #F5AD69",
"M$	c #EE9441",
"N$	c #D25F01",
"O$	c #C65700",
"P$	c #E78125",
"Q$	c #F8A34E",
"R$	c #F57B04",
"S$	c #F67400",
"T$	c #F08A26",
"U$	c #E3B78C",
"V$	c #DDCEBF",
"W$	c #DCD1C7",
"X$	c #DCD2C8",
"Y$	c #F08926",
"Z$	c #F58210",
"`$	c #D76608",
" %	c #D36203",
".%	c #CB5600",
"+%	c #F19B4B",
"@%	c #F38112",
"#%	c #F57D08",
"$%	c #F8A95A",
"%%	c #E5822A",
"&%	c #CB5A00",
"*%	c #863B00",
"=%	c #F6AA60",
"-%	c #F79D44",
";%	c #F57F0A",
">%	c #ED923C",
",%	c #9E4500",
"'%	c #D46203",
")%	c #F5A95E",
"!%	c #F57901",
"~%	c #F58517",
"{%	c #F8AD64",
"]%	c #EC8F39",
"^%	c #924000",
"/%	c #D15F02",
"(%	c #EB913F",
"_%	c #F5800E",
":%	c #F9A34D",
"<%	c #F7AB61",
"[%	c #E27C24",
"}%	c #C75700",
"|%	c #C35800",
"1%	c #D96B0E",
"2%	c #F29B48",
"3%	c #FCB773",
"4%	c #F57E0A",
"5%	c #F47500",
"6%	c #F6810F",
"7%	c #F79536",
"8%	c #FAAF67",
"9%	c #FBB36C",
"0%	c #E88731",
"a%	c #D36206",
"b%	c #BA5300",
"c%	c #9E4600",
"d%	c #D66607",
"e%	c #EC8E39",
"f%	c #F5AA63",
"g%	c #F7B576",
"h%	c #F8B372",
"i%	c #F8AC65",
"j%	c #F8AA5F",
"k%	c #F7B375",
"l%	c #F4A55B",
"m%	c #E6832B",
"n%	c #C55600",
"o%	c #8D3D00",
"p%	c #AD4900",
"q%	c #C45400",
"r%	c #D36305",
"s%	c #DC7014",
"t%	c #DF761D",
"u%	c #DF7922",
"v%	c #DE761D",
"w%	c #D96D12",
"x%	c #CF6003",
"y%	c #BF5100",
"z%	c #AF4A00",
"                                                                                                ",
"                                                                                                ",
"                                                                                                ",
"                                                                                                ",
"                                                  . .                                           ",
"                                              + @ # $ %                                         ",
"                                              & * = - ; > ,                                     ",
"                                              ' ) ! ~ { ] ^ /                                   ",
"                                                ( _ : < [ } | 1                                 ",
"                                                  / 2 3 4 5 6 7 8 ,                             ",
"                                                    9 0 a b c d e f g                           ",
"                                                        h i j k 6 l m ,                         ",
"                    n o p p p p p p o o o o p p p p p q p ' r s t 6 u v w                       ",
"                  x y z A B C D E F G H I J K L M N O P O Q R S T U V W X Y g                   ",
"                / Z `  ...+.@.#.$.4 %.&.*.=.-.;.>.,.'.).).!.~.{.].^./.t T (._.:.                ",
"                9 e <.[.}.|.{ 1.c 2./.*.].3.{.4.5.).6.7.7.).8.9.0.3.^./.2.a.u b.c.              ",
"                d.e.f.g.h.i.j.k.l.m.n.o.p.q.;.r.7.s.t.s.).u.v.w.x.y.z.V A.4 2.u B.C.:.          ",
"                  1 p D.E.E.D.D.D.D.D.( F.G.H.7.I.x.J.K.L.M.N.O.P.Q.R.S.c T.4 $.^.U.V.:.        ",
"                                    W.X.Y.r.).Z.`. +.+++++++++++++++++++@+).#+$+%+&+*+=+        ",
"                                  -+;+>+,+'+)+).!+P.++~+++++{+]+{+++++^+++/+(+_+= :+&.<+c.      ",
"                              d.[+}+|+].&+;.'+1+2+3+4+5+6+7+8+9+0+a+b+~+c+d+e+f+@.+.g+h+i+g     ",
"                            j+k+l+T z.*.=.0.q.m+n+o+p+q+r+s+t+u+v+w+x+y+4+o+o+z+A+B+B+C+D+'     ",
"                        / E+F+G+k H+I+&.^.=.J+K+L+M+N+O+P+Q+O+R+S+T+U+V+W+2+X+Y+Z+`+`+ @.@+@@@  ",
"                      9 #@$@t %@&@*@=@t -@&+;@>@X+,@'@)@!@v+~@{@]@^@/@(@_@:@<@[@}@|@1@2@3@B 4@  ",
"                    5@6@G+7@8@9@7@0@a@=@6 0.b@c@<@d@e@f@f@g@h@i@/@j@j@j@k@l@m@n@o@p@1@q@r@s@t@  ",
"                u@v@w@x@y@z@A@B@C@D@&@a@A@&+E@n@F@G@O+H@I@J@K@j@j@j@j@j@L@M@N@O@P@Q@1@1@B+R@S@  ",
"              u@T@U@V@W@X@6 Y@Z@`@ #} &@*@.#+#@#@###$#%#j@/@j@j@j@j@j@/@&#*#=#-#;#p@1@1@B+>#,#  ",
"            '#)#y.!#~#{#A@]#^#/ /#(#_#@.= :#<#[#}#|#1#2#/@j@j@j@j@j@/@3#4#5#6#7#8#|@1@1@B+9#0#  ",
"        a#b#c#d#e#f#g#h#i#j#/   k#!.!#+.l#m#n#o#6#p#q#r#s#t#(@u#(@t#v#w#x#y#y#z#A#q@1@q@2@B#C#  ",
"      , D#E#~ F#F#e#G+G#H#      I#J#K#L#g+M#N#O#P#P#P#P#Q#R#S#T#U#V#W#X#p#p#p#Y#Z#q@1@`+`# $.$  ",
"    , I#+$@$#$$$g#~.%$,         & &$%@*$=$ .-$;$>$,$'$'$)$!$~${$~$]$^$/$/$($_$:$<$r@`+B+[$}$@@  ",
"    9 |$W@1$2$3$4$5$6$          7$8$)+9$W@0$q@a$b$c$d$e$f$g$h$h$g$h$'$i$j$k$l$a$r@1@`+m$n$o$    ",
"    u@p$q$r$T.s$t$d.              u$v$w$x$`+`+r@q@y$z$A$B$C$D$D$D$D$E$F$G$H$q@r@1@1@1@I$J$/     ",
"    g K$Z+L$M$N$                  O$P$Q$R$`+1@1@r@q@S$T$U$V$W$X$W$V$U$Y$S$q@r@1@1@`+Z$k `$+     ",
"      / u$ %.%                      ( +%W@B+`+1@1@1@r@ @S$ @@%y$@% @S$ @r@1@1@1@2@#%$%%%&%      ",
"                                    *%j#=%-% @`+1@1@1@1@r@q@q@q@q@q@r@1@1@1@1@`+;%*.>%g         ",
"                                      ,%'%)%~ m$q@`+`+1@1@1@1@1@1@1@1@1@`+`+!%~%{%]%@@          ",
"                                        ^%/%(%u .@_%B+2@`+q@1@1@1@`+`+B+B+0$:%<%[%}%            ",
"                                            |%1%2%3%=@w$4%5%B+B+5%5%6%7%8%9%0%a%b%              ",
"                                              c%}%d%e%f%g%h%i%j%{%J#k%l%m%' n%                  ",
"                                                  o%p%q%r%s%t%u%v%w%x%y%z%                      ",
"                                                                                                ",
"                                                                                                ",
"                                                                                                ",
"                                                                                                ",
"                                                                                                ",
"                                                                                                ",
"                                                                                                "};
