/* XPM */
static char * bluefish_xpm[] = {
"48 48 673 2",
"  	c None",
". 	c #6D9ECD",
"+ 	c #6D9ED1",
"@ 	c #6FA1D5",
"# 	c #76A8DB",
"$ 	c #76A8DC",
"% 	c #486B8C",
"& 	c #73A5D7",
"* 	c #7CACDE",
"= 	c #78AADD",
"- 	c #71A5D9",
"; 	c #151F2A",
"> 	c #2F6BB4",
", 	c #2E6BB3",
"' 	c #2E6AB2",
") 	c #2E6AB1",
"! 	c #2E69B0",
"~ 	c #2F69AE",
"{ 	c #3870B1",
"] 	c #4779B5",
"^ 	c #4A7AB4",
"/ 	c #7FAEDE",
"( 	c #72A6DB",
"_ 	c #5F8BB6",
": 	c #000000",
"< 	c #5986BD",
"[ 	c #5886BC",
"} 	c #5683B9",
"| 	c #5280B5",
"1 	c #3F73B3",
"2 	c #2F6DB5",
"3 	c #2F6DB6",
"4 	c #2F6CB5",
"5 	c #2F6CB4",
"6 	c #3A72B5",
"7 	c #5988BF",
"8 	c #5C8CC1",
"9 	c #5D8CC2",
"0 	c #5C8BC0",
"a 	c #5987BD",
"b 	c #5181B6",
"c 	c #7AAADB",
"d 	c #81B0DF",
"e 	c #76A9DC",
"f 	c #50759A",
"g 	c #5C8DC1",
"h 	c #5F8FC4",
"i 	c #5F8FC5",
"j 	c #5E8EC3",
"k 	c #5485BE",
"l 	c #3873B7",
"m 	c #2F6EB7",
"n 	c #2F6EB8",
"o 	c #3672B6",
"p 	c #5A8ABF",
"q 	c #6090C5",
"r 	c #6394C9",
"s 	c #6495CA",
"t 	c #6292C8",
"u 	c #5988BE",
"v 	c #4E7CB3",
"w 	c #2F63A6",
"x 	c #70A4D8",
"y 	c #83B1DF",
"z 	c #415F7D",
"A 	c #5D8DC2",
"B 	c #6596CC",
"C 	c #6698CD",
"D 	c #578BC6",
"E 	c #3170B8",
"F 	c #2F6FB8",
"G 	c #2F6FB9",
"H 	c #3070BA",
"I 	c #2F70BA",
"J 	c #5384BC",
"K 	c #6496CB",
"L 	c #699BD0",
"M 	c #6A9DD2",
"N 	c #6799CE",
"O 	c #6293C8",
"P 	c #5785BA",
"Q 	c #3C689F",
"R 	c #295D9E",
"S 	c #79AADC",
"T 	c #79AADD",
"U 	c #31475E",
"V 	c #5A89BE",
"W 	c #6697CC",
"X 	c #6B9DD2",
"Y 	c #5B91CC",
"Z 	c #316FB7",
"` 	c #3071BC",
" .	c #3072BD",
"..	c #3874B9",
"+.	c #5A89BF",
"@.	c #6091C6",
"#.	c #6798CD",
"$.	c #6DA0D5",
"%.	c #70A4D9",
"&.	c #6A9CD1",
"*.	c #5E8DC3",
"=.	c #5786BB",
"-.	c #507DB3",
";.	c #2C5A93",
">.	c #2B5FA0",
",.	c #80AFDF",
"'.	c #82B0DF",
").	c #75A8DC",
"!.	c #283A4E",
"~.	c #6196CE",
"{.	c #316FB6",
"].	c #3073BF",
"^.	c #3072BE",
"/.	c #457AB9",
"(.	c #6B9ED3",
"_.	c #689ACF",
":.	c #6293C9",
"<.	c #5785BB",
"[.	c #517EB3",
"}.	c #376298",
"|.	c #295B9A",
"1.	c #2B5D9F",
"2.	c #6E9FD2",
"3.	c #84B2E0",
"4.	c #81AFDF",
"5.	c #73A6DB",
"6.	c #233546",
"7.	c #5481B6",
"8.	c #5E8EC4",
"9.	c #6193C9",
"0.	c #3874B8",
"a.	c #3070BB",
"b.	c #3174C1",
"c.	c #3175C2",
"d.	c #3175C1",
"e.	c #3074C0",
"f.	c #4B7CB6",
"g.	c #5C8BC1",
"h.	c #6191C6",
"i.	c #6596CB",
"j.	c #6393C9",
"k.	c #5482B8",
"l.	c #4F7BB1",
"m.	c #456FA3",
"n.	c #275691",
"o.	c #2B5E9F",
"p.	c #2A5C9C",
"q.	c #2A5A99",
"r.	c #77A8DB",
"s.	c #84B1E0",
"t.	c #7EAEDE",
"u.	c #202F3D",
"v.	c #547FB4",
"w.	c #5784B9",
"x.	c #437ABA",
"y.	c #2F6DB7",
"z.	c #3071BB",
"A.	c #3174C0",
"B.	c #3177C4",
"C.	c #3176C3",
"D.	c #507CB2",
"E.	c #5381B6",
"F.	c #5E8CC1",
"G.	c #6995C7",
"H.	c #6795C7",
"I.	c #5D8CC1",
"J.	c #5A88BE",
"K.	c #5684B9",
"L.	c #517EB4",
"M.	c #4C78AE",
"N.	c #4C76AB",
"O.	c #26528A",
"P.	c #2A5998",
"Q.	c #2A5895",
"R.	c #7BACDD",
"S.	c #71A5DA",
"T.	c #6FA3D8",
"U.	c #1B2733",
"V.	c #92A8C5",
"W.	c #D7DBE1",
"X.	c #DAE0E8",
"Y.	c #326DB3",
"Z.	c #3177C5",
"`.	c #6A8FBE",
" +	c #B8CAE0",
".+	c #EAEFF6",
"++	c #FFFFFF",
"@+	c #FEFEFE",
"#+	c #DEE7F1",
"$+	c #B1C6DE",
"%+	c #81A1C8",
"&+	c #4E79AE",
"*+	c #4974AA",
"=+	c #2A548A",
"-+	c #2B5D9E",
";+	c #2A5B9B",
">+	c #295897",
",+	c #295794",
"'+	c #70A3D8",
")+	c #6EA2D7",
"!+	c #D8D8D8",
"~+	c #E0E0E0",
"{+	c #84A3C8",
"]+	c #2E6CB4",
"^+	c #CFDEF0",
"/+	c #FDFDFD",
"(+	c #FCFCFC",
"_+	c #FBFBFB",
":+	c #FAFAFA",
"<+	c #F9F9F9",
"[+	c #F8F8F8",
"}+	c #C7D3E2",
"|+	c #5980B1",
"1+	c #396093",
"2+	c #2A5D9C",
"3+	c #295A99",
"4+	c #295896",
"5+	c #295693",
"6+	c #275490",
"7+	c #6798CE",
"8+	c #83B0DF",
"9+	c #7FADDD",
"0+	c #75A7D9",
"a+	c #6C9ED4",
"b+	c #10181F",
"c+	c #D2D2D2",
"d+	c #4F5153",
"e+	c #2E65A7",
"f+	c #3073BE",
"g+	c #E7ECF1",
"h+	c #F4F4F4",
"i+	c #F3F3F3",
"j+	c #F2F2F2",
"k+	c #F1F1F1",
"l+	c #F0F0F0",
"m+	c #EFEFEF",
"n+	c #E3E3E3",
"o+	c #8E8E8E",
"p+	c #C1C1C1",
"q+	c #DCE0E5",
"r+	c #6C8EB8",
"s+	c #4F739E",
"t+	c #295A9A",
"u+	c #295A98",
"v+	c #295795",
"w+	c #295692",
"x+	c #27538F",
"y+	c #38639C",
"z+	c #80ADDB",
"A+	c #7BA9D9",
"B+	c #73A4D6",
"C+	c #699BD1",
"D+	c #6899CE",
"E+	c #0A0D12",
"F+	c #A6A6A6",
"G+	c #0C1A2D",
"H+	c #2D68AE",
"I+	c #2E6BB2",
"J+	c #3171BC",
"K+	c #E4E6E8",
"L+	c #E8E8E8",
"M+	c #E7E7E7",
"N+	c #E6E6E6",
"O+	c #E5E5E5",
"P+	c #E4E4E4",
"Q+	c #555555",
"R+	c #111111",
"S+	c #585858",
"T+	c #D1D1D1",
"U+	c #D5D7DB",
"V+	c #5D7CA3",
"W+	c #295997",
"X+	c #285693",
"Y+	c #285490",
"Z+	c #27538E",
"`+	c #27508A",
" @	c #4D78AC",
".@	c #78A6D6",
"+@	c #71A1D3",
"@@	c #517AA5",
"#@	c #BDBDBD",
"$@	c #213E62",
"%@	c #2D67AD",
"&@	c #2E69AF",
"*@	c #C7D0DA",
"=@	c #DDDDDD",
"-@	c #DCDCDC",
";@	c #DBDBDB",
">@	c #DADADA",
",@	c #D9D9D9",
"'@	c #3D3D3D",
")@	c #101010",
"!@	c #B9B9B9",
"~@	c #D3D3D3",
"{@	c #6785AC",
"]@	c #285795",
"^@	c #285692",
"/@	c #27548F",
"(@	c #27518C",
"_@	c #275089",
":@	c #254D85",
"<@	c #5C88BA",
"[@	c #6E9DD0",
"}@	c #6597CC",
"|@	c #2A4057",
"1@	c #BABABA",
"2@	c #4E79AD",
"3@	c #2D66AC",
"4@	c #B1BFD0",
"5@	c #D0D0D0",
"6@	c #CFCFCF",
"7@	c #CECECE",
"8@	c #CDCDCD",
"9@	c #CCCCCC",
"0@	c #AAAAAA",
"a@	c #4B4B4B",
"b@	c #7D7D7D",
"c@	c #C8C8C8",
"d@	c #C6C6C7",
"e@	c #7192BC",
"f@	c #234B7F",
"g@	c #285794",
"h@	c #26518B",
"i@	c #264E87",
"j@	c #254D84",
"k@	c #2B5189",
"l@	c #6896C9",
"m@	c #5D8ABC",
"n@	c #030305",
"o@	c #B2B2B2",
"p@	c #376AAA",
"q@	c #2D65AB",
"r@	c #2E68AE",
"s@	c #8BA4C3",
"t@	c #C6C6C6",
"u@	c #C5C5C5",
"v@	c #C4C4C4",
"w@	c #C3C3C3",
"x@	c #C2C2C2",
"y@	c #C0C0C0",
"z@	c #BFBFBF",
"A@	c #BEBEBE",
"B@	c #AFB6C0",
"C@	c #6187B5",
"D@	c #295082",
"E@	c #26508A",
"F@	c #28548F",
"G@	c #26528C",
"H@	c #265089",
"I@	c #254E86",
"J@	c #254C83",
"K@	c #254A80",
"L@	c #4872A7",
"M@	c #4A6F9A",
"N@	c #2D63A7",
"O@	c #2D65A9",
"P@	c #2D66AB",
"Q@	c #5380B6",
"R@	c #B4B8BC",
"S@	c #B8B8B8",
"T@	c #B7B7B7",
"U@	c #B6B6B6",
"V@	c #B5B5B5",
"W@	c #B4B4B4",
"X@	c #B3B3B3",
"Y@	c #B1B1B1",
"Z@	c #8AA1BF",
"`@	c #517AAE",
" #	c #30578A",
".#	c #254E84",
"+#	c #26528E",
"@#	c #26518A",
"##	c #264F87",
"$#	c #254B82",
"%#	c #24497E",
"&#	c #294D82",
"*#	c #5D8AC1",
"=#	c #375474",
"-#	c #2C62A6",
";#	c #2C63A8",
">#	c #2E68AF",
",#	c #3D6FAD",
"'#	c #889EB9",
")#	c #AEAEAE",
"!#	c #ADADAD",
"~#	c #ACACAC",
"{#	c #ABABAB",
"]#	c #A9A9A9",
"^#	c #A8A8A8",
"/#	c #A7A7A7",
"(#	c #96A0AD",
"_#	c #6489B7",
":#	c #294F81",
"<#	c #234B80",
"[#	c #264D85",
"}#	c #244980",
"|#	c #23487D",
"1#	c #23467A",
"2#	c #4E7AAF",
"3#	c #223549",
"4#	c #2C61A4",
"5#	c #2D64A9",
"6#	c #366CAD",
"7#	c #4F79AD",
"8#	c #8699B1",
"9#	c #A1A1A1",
"0#	c #A0A0A0",
"a#	c #9F9F9F",
"b#	c #9E9E9E",
"c#	c #9D9D9D",
"d#	c #9C9C9C",
"e#	c #8D97A3",
"f#	c #6A8CB6",
"g#	c #4D77AC",
"h#	c #4873A9",
"i#	c #204675",
"j#	c #244C81",
"k#	c #244A81",
"l#	c #23477B",
"m#	c #234578",
"n#	c #416A9E",
"o#	c #131D29",
"p#	c #2C60A3",
"q#	c #2C63A7",
"r#	c #2D65AA",
"s#	c #2D67AC",
"t#	c #2E66AC",
"u#	c #4471A9",
"v#	c #4F78AD",
"w#	c #748EAD",
"x#	c #8B949E",
"y#	c #939495",
"z#	c #939393",
"A#	c #8C9198",
"B#	c #7E8FA4",
"C#	c #6387B5",
"D#	c #4E78AC",
"E#	c #365F92",
"F#	c #1F4371",
"G#	c #264F88",
"H#	c #244B82",
"I#	c #244A7F",
"J#	c #23487C",
"K#	c #224477",
"L#	c #4570A4",
"M#	c #1D2D3F",
"N#	c #2B5FA1",
"O#	c #2C60A2",
"P#	c #2C62A5",
"Q#	c #2D64A8",
"R#	c #3165A4",
"S#	c #4A75AA",
"T#	c #547CAF",
"U#	c #5D83B1",
"V#	c #6486B1",
"W#	c #5A81B2",
"X#	c #537CAF",
"Y#	c #426CA0",
"Z#	c #204373",
"`#	c #214677",
" $	c #265088",
".$	c #244C82",
"+$	c #244A80",
"@$	c #24487D",
"#$	c #23467B",
"$$	c #224578",
"%$	c #224476",
"&$	c #4E7BB0",
"*$	c #263C56",
"=$	c #2B60A2",
"-$	c #2C63A6",
";$	c #2C64A8",
">$	c #2C62A7",
",$	c #2B62A5",
"'$	c #2B61A2",
")$	c #2C578E",
"!$	c #426DA3",
"~$	c #3A6397",
"{$	c #224676",
"]$	c #204372",
"^$	c #244D84",
"/$	c #244B80",
"($	c #224679",
"_$	c #224376",
":$	c #294C7F",
"<$	c #2E4868",
"[$	c #2B5C9E",
"}$	c #2B5EA0",
"|$	c #2C61A5",
"1$	c #2B61A3",
"2$	c #2A5B9A",
"3$	c #234D81",
"4$	c #30598D",
"5$	c #386296",
"6$	c #406A9F",
"7$	c #3D679C",
"8$	c #355E91",
"9$	c #295081",
"0$	c #1F4372",
"a$	c #214577",
"b$	c #244B81",
"c$	c #22467A",
"d$	c #224374",
"e$	c #3E6599",
"f$	c #4E7BB1",
"g$	c #3D618D",
"h$	c #2B5C9D",
"i$	c #2B5FA2",
"j$	c #2C5FA2",
"k$	c #2A5E9E",
"l$	c #2A5D9D",
"m$	c #295C9B",
"n$	c #285995",
"o$	c #26538D",
"p$	c #244E83",
"q$	c #22497C",
"r$	c #204779",
"s$	c #234A81",
"t$	c #254F88",
"u$	c #224375",
"v$	c #264878",
"w$	c #4C78AD",
"x$	c #4A76AB",
"y$	c #0E1823",
"z$	c #2A5B9C",
"A$	c #2B5F9F",
"B$	c #2A5D9E",
"C$	c #285793",
"D$	c #275591",
"E$	c #27528C",
"F$	c #27518B",
"G$	c #244A7E",
"H$	c #224475",
"I$	c #214273",
"J$	c #3B6396",
"K$	c #4B76AC",
"L$	c #314D71",
"M$	c #72A5DB",
"N$	c #5184BD",
"O$	c #2A5A9A",
"P$	c #2B5D9D",
"Q$	c #295998",
"R$	c #305E99",
"S$	c #4A7AB3",
"T$	c #5D8FC5",
"U$	c #254E85",
"V$	c #23477C",
"W$	c #224577",
"X$	c #224274",
"Y$	c #1C3863",
"Z$	c #385981",
"`$	c #4974A9",
" %	c #1F3249",
".%	c #6FA2D7",
"+%	c #6295CB",
"@%	c #4677B2",
"#%	c #2E5E9D",
"$%	c #295996",
"%%	c #285796",
"&%	c #31609C",
"*%	c #4777B0",
"=%	c #5C8DC4",
"-%	c #699CD1",
";%	c #5888BF",
">%	c #254E87",
",%	c #234A7E",
"'%	c #203E6E",
")%	c #446D9F",
"!%	c #456EA3",
"~%	c #162435",
"{%	c #6192C7",
"]%	c #6191C7",
"^%	c #5181B9",
"/%	c #4C7CB4",
"(%	c #4878B1",
"_%	c #4574AE",
":%	c #4170AA",
"<%	c #3F6EA9",
"[%	c #4675AF",
"}%	c #4F7EB5",
"|%	c #5888BD",
"1%	c #5F8EC4",
"2%	c #315D95",
"3%	c #23497E",
"4%	c #204070",
"5%	c #11253F",
"6%	c #385B84",
"7%	c #456DA0",
"8%	c #456FA2",
"9%	c #1B2A3F",
"0%	c #5583B7",
"a%	c #5482B7",
"b%	c #5481B7",
"c%	c #527FB5",
"d%	c #527FB4",
"e%	c #5582B8",
"f%	c #3F6CA2",
"g%	c #254D83",
"h%	c #204170",
"i%	c #162C4C",
"j%	c #172434",
"k%	c #5A87B8",
"l%	c #4E77A6",
"m%	c #4A72A4",
"n%	c #4973A7",
"o%	c #4974A8",
"p%	c #4A74A7",
"q%	c #4F79AA",
"r%	c #5582B4",
"s%	c #5B8ABF",
"t%	c #4471A7",
"u%	c #23497D",
"v%	c #193258",
"w%	c #5683B7",
"x%	c #4E78A9",
"y%	c #486E9C",
"z%	c #446996",
"A%	c #456B98",
"B%	c #466D9B",
"C%	c #49709F",
"D%	c #4B74A2",
"E%	c #4D77A7",
"F%	c #507AAC",
"G%	c #3D689E",
"H%	c #24497F",
"I%	c #224579",
"J%	c #1A335B",
"K%	c #4E7AB0",
"L%	c #4D7AAF",
"M%	c #4D79AF",
"N%	c #4D78AE",
"O%	c #4C77AD",
"P%	c #4672A8",
"Q%	c #325B91",
"R%	c #24487E",
"S%	c #22477B",
"T%	c #204172",
"U%	c #172D50",
"V%	c #446EA4",
"W%	c #355D93",
"X%	c #254B81",
"Y%	c #24487C",
"Z%	c #23477A",
"`%	c #214272",
" &	c #204171",
".&	c #1F3E6E",
"+&	c #142846",
"@&	c #3C659C",
"#&	c #3B649A",
"$&	c #3A6399",
"%&	c #325990",
"&&	c #294F85",
"*&	c #234679",
"=&	c #214172",
"-&	c #1D3964",
";&	c #234579",
">&	c #214274",
",&	c #214071",
"'&	c #203E6D",
")&	c #182E50",
"!&	c #244679",
"~&	c #234577",
"{&	c #234376",
"]&	c #214375",
"^&	c #214171",
"/&	c #1E3B6A",
"(&	c #182F51",
"_&	c #224172",
":&	c #203F6C",
"<&	c #20406E",
"[&	c #1E3D6B",
"}&	c #1D3863",
"|&	c #1B365E",
"                                                                                                ",
"                                                                                                ",
"                                                                                                ",
"                                                                                                ",
"                                                                                                ",
"                                                                                      . +       ",
"                                                                                  @ # $ %       ",
"                                                                                & * = - ;       ",
"                                > , ' ) ! ~ { ] ^                               / * ( _ :       ",
"                  < [ } | 1 2 3 3 4 5 , 6 7 8 9 0 a b                         c d e ( f         ",
"              g h i j k l m n n n m 3 o p q r s t j u v w                   x y / ( ( z         ",
"            A t B C D E F G H H H I G J h K L M N O 8 P Q R                 S y T ( ( U         ",
"          V q W X Y Z F H ` `  . .` ..+.@.#.$.%.&.s *.=.-.;.>.              ,.'.).( ( !.        ",
"          +.@.C ~.{.n I `  .].].].^./.u i B &.(._.:.9 <.[.}.|.1.          2.3.4.5.( ( 6.        ",
"        7.a 8.9.0.3 G a. .].b.c.d.e.f.<.g.h.s i.j.h V k.l.m.n.o.p.q.      r.s.t.( ( ( u.        ",
"        v.w.0 x.5 y.G z.^.A.c.B.C.b.D.E.[ F.G.H.I.J.K.L.M.N.O.o.p.P.Q.    * y R.( S.T.U.        ",
"        V.W.X.Y.5 m G ` ^.A.C.Z.C.b.`. +.+++++@+#+$+%+&+*+*+=+-+;+>+,+  @ ,.'.S '+)+$.;         ",
"        !+~+{+' ]+3 G a. .].d.c.c.A.^+++@+/+(+_+:+<+[+}+|+*+1+2+3+4+5+6+7+8+9+0+$.a+M b+        ",
"        c+d+e+) , 3 n H ` ^.].A.].f+g+h+i+j+k+l+m+n+o+p+q+r+s+t+u+v+w+x+y+z+A+B+X C+D+E+        ",
"        F+G+H+! I+4 m G H `  . . .J+K+L+M+N+O+P+n+Q+R+S+T+U+V+4+W+X+Y+Z+`+ @.@+@_.#.@@:         ",
"        #@$@%@&@) , 2 m G H a.a.a.H *@=@-@;@>@,@!+'@: )@!@~@{@Z+]@^@/@(@_@:@<@[@}@s |@          ",
"        1@2@3@H+! ' ]+2 y.n F G G n 4@T+5@6@7@8@9@0@a@b@c@d@e@f@g@Y+Z+h@i@j@k@l@r m@n@          ",
"        o@p@q@%@r@! ' , 5 2 3 3 3 3 s@t@u@v@w@x@p+y@z@A@#@B@C@D@E@F@G@H@I@J@K@L@@.M@            ",
"          N@O@P@%@r@! ) I+, ]+]+]+, Q@R@!@S@T@U@V@W@X@o@Y@Z@`@ #.#+#@###:@$#%#&#*#=#            ",
"          -#;#O@P@%@H+>#! ) ) ) ) ) ,#'#)#!#~#{#0@]#^#/#(#_#*+:#<#h@H@[#J@}#|#1#2#3#            ",
"          4#-#;#5#q@3@%@H+>#>#>#>#>#6#7#8#9#0#a#b#c#d#e#f#g#h#i#j#@#i@j@k#%#l#m#n#o#            ",
"          p#4#-#q#5#r#P@3@s#%@%@%@s#t#u#v#w#x#y#z#A#B#C#D#*+E#F#:@G#j@H#I#J#1#K#L#M#            ",
"          N#O#4#P#q#;#Q#O@r#r#r#r#r#Q#R#h#S#T#U#V#W#X#*+*+Y#Z#`# $:@.$+$@$#$$$%$&$*$            ",
"          o.N#=$p#4#P#-$q#q#;$;$;$>$,$'$)$!$*+*+*+*+*+*+~${$]$^$I@J@/$%#l#($_$:$L.<$            ",
"          [$1.}$N#=$p#4#|$P#P#P#4#1$=$>.2$3$4$5$6$7$8$9$0$a$^$I@j@b$%#J#c$K#d$e$f$g$            ",
"            h$-+o.}$N#i$=$p#O#j$}$}$k$l$m$n$o$p$q$r$q$s$j@t$I@j@b$%#J#($K#u$v$w$w$x$y$          ",
"            ;+z$h$-+1.o.}$A$}$k$B$p.;+t+u+W+,+C$D$/@E$F$t$I@j@b$G$|#c$$$H$I$J$K$*+*+L$          ",
"          M$N$O$;+z$p.h$P$p.p.2$O$q.Q$4+]@C$R$S$T$E$@#t$U$j@b$I#V$c$W$H$X$Y$Z$`$*+*+`$ %        ",
"          .%.%+%@%#%O$O$q.t+u+Q$$%%%g@&%*%=%(.-%;%E@>%U$J@b$,%V$1#W$%$I$'%      )%*+*+!%~%      ",
"          t {%{%]%i ^%/%(%_%:%<%[%}%|%1%8.j r -%2%I@j@$#k#3%V$c$W$%$I$4%5%        6%7%*+8%9%    ",
"          0%a%a%b%b%E.Q@Q@Q@| c%c%c%d%L.e%j s f%:@g%b$I#3%V$c$W$u$I$h%i%                j%      ",
"          k%l%m%n%*+*+*+*+*+*+`$o%p%q%r%s%g.t%J@.$/$%#u%l#($K#d$I$h%v%                          ",
"            <.w%x%y%z%A%B%C%D%E%F%b%a%b%b%G%H#b$H%%#J#c$I%%$d$I$h%J%                            ",
"              K%K%K%L%M%M%M%N%M.M.M.O%P%Q%k#I#R%@$S%I%W$%$X$T%4%U%                              ",
"                *+*+*+*+*+*+*+*+*+V%W%X%H%%#Y%Z%c$$$%$u$`% &.&+&                                ",
"                      V%@&#&$&%&&&H%3%J#J#Z%*&$$%$u$X$=&4%-&                                    ",
"                          I#H%R%@$|##$1#;&m#K#u$>&`%,&'&)&                                      ",
"                              l#!&;&m#~&{&]&I$=&^&/&(&                                          ",
"                                    _&:&<&[&}&|&                                                ",
"                                                                                                ",
"                                                                                                ",
"                                                                                                ",
"                                                                                                "};
