/* XPM */
static char * calculator_xpm[] = {
"48 48 434 2",
"  	c None",
". 	c #303639",
"+ 	c #2D3335",
"@ 	c #2E3436",
"# 	c #383E3F",
"$ 	c #5E6260",
"% 	c #747573",
"& 	c #757774",
"* 	c #757673",
"= 	c #737572",
"- 	c #5E615F",
"; 	c #2F3637",
"> 	c #5E6060",
", 	c #636562",
"' 	c #525451",
") 	c #515350",
"! 	c #616360",
"~ 	c #5B5E5E",
"{ 	c #707271",
"] 	c #4F524F",
"^ 	c #4E514E",
"/ 	c #A9AAA8",
"( 	c #80827F",
"_ 	c #B1B2B0",
": 	c #8D8F8C",
"< 	c #A7A9A6",
"[ 	c #90928F",
"} 	c #B0B1AE",
"| 	c #818380",
"1 	c #BDBEBC",
"2 	c #826D49",
"3 	c #6A6D6B",
"4 	c #6F726F",
"5 	c #4C4F4C",
"6 	c #A8A9A7",
"7 	c #7E817D",
"8 	c #B0B1AF",
"9 	c #8C8E8B",
"0 	c #A6A8A5",
"a 	c #8F908E",
"b 	c #AFB0AD",
"c 	c #9C9E9B",
"d 	c #BEBFBD",
"e 	c #806B47",
"f 	c #696B69",
"g 	c #6B6E6C",
"h 	c #4A4D4B",
"i 	c #656866",
"j 	c #676A68",
"k 	c #474B49",
"l 	c #76A945",
"m 	c #90E341",
"n 	c #91E441",
"o 	c #92E442",
"p 	c #93E443",
"q 	c #93E444",
"r 	c #94E445",
"s 	c #94E546",
"t 	c #95E546",
"u 	c #95E547",
"v 	c #95E548",
"w 	c #96E549",
"x 	c #97E54A",
"y 	c #96E44B",
"z 	c #7AAC4B",
"A 	c #606462",
"B 	c #636665",
"C 	c #454947",
"D 	c #99E54F",
"E 	c #9AE650",
"F 	c #9BE651",
"G 	c #9BE652",
"H 	c #9CE653",
"I 	c #9CE754",
"J 	c #9DE755",
"K 	c #9EE756",
"L 	c #9EE757",
"M 	c #9FE758",
"N 	c #9FE759",
"O 	c #A0E759",
"P 	c #9FE75A",
"Q 	c #5C605E",
"R 	c #5F6262",
"S 	c #434746",
"T 	c #A2E85E",
"U 	c #A3E85F",
"V 	c #A3E860",
"W 	c #B6CBA1",
"X 	c #C2DAAB",
"Y 	c #C2DAAC",
"Z 	c #C3DAAC",
"` 	c #C3DAAD",
" .	c #ABBF98",
"..	c #AEC29B",
"+.	c #C4DBAE",
"@.	c #C5DBAF",
"#.	c #A8E968",
"$.	c #A8EA69",
"%.	c #585C5B",
"&.	c #5B5F5E",
"*.	c #414544",
"=.	c #ABEA6D",
"-.	c #ABEA6E",
";.	c #ACEA6F",
">.	c #C8DDB3",
",.	c #DEF6C6",
"'.	c #DEF7C6",
").	c #DDF6C5",
"!.	c #DDF6C4",
"~.	c #DCF6C3",
"{.	c #B0C49E",
"].	c #758269",
"^.	c #D4EABD",
"/.	c #DFF7C8",
"(.	c #A1B290",
"_.	c #B9CDA6",
":.	c #A7B996",
"<.	c #A3B492",
"[.	c #CEE4B8",
"}.	c #B1EC77",
"|.	c #B1EC78",
"1.	c #555958",
"2.	c #575B5A",
"3.	c #3E4342",
"4.	c #B4EC7C",
"5.	c #B4EC7D",
"6.	c #C2D9AB",
"7.	c #D7F5BA",
"8.	c #D4F4B4",
"9.	c #D1F3AF",
"0.	c #D0F3AE",
"a.	c #B1CF95",
"b.	c #82966E",
"c.	c #D3F1B6",
"d.	c #DAF5BF",
"e.	c #AABD97",
"f.	c #CFE5BB",
"g.	c #94A186",
"h.	c #909E83",
"i.	c #D9EDC5",
"j.	c #B9EE85",
"k.	c #505554",
"l.	c #535756",
"m.	c #3C4140",
"n.	c #B8ED84",
"o.	c #8EE33B",
"p.	c #8AE234",
"q.	c #B1CF94",
"r.	c #CAECA9",
"s.	c #81976C",
"t.	c #C1E2A2",
"u.	c #83996E",
"v.	c #BFDFA0",
"w.	c #859871",
"x.	c #C6DFAF",
"y.	c #B5ED7F",
"z.	c #4C5150",
"A.	c #4F5353",
"B.	c #3A3F3F",
"C.	c #8DE33A",
"D.	c #8AA173",
"E.	c #B3D296",
"F.	c #C5E6A4",
"G.	c #C9EAA8",
"H.	c #C5E7A5",
"I.	c #C8E9A7",
"J.	c #8BE236",
"K.	c #98E54C",
"L.	c #B7ED82",
"M.	c #484D4D",
"N.	c #4A4E4F",
"O.	c #373C3D",
"P.	c #89E134",
"Q.	c #8CE237",
"R.	c #9AE551",
"S.	c #434748",
"T.	c #464A4B",
"U.	c #353A3B",
"V.	c #69A037",
"W.	c #3F4344",
"X.	c #414648",
"Y.	c #33383A",
"Z.	c #3A3F41",
"`.	c #484B49",
" +	c #ABADA9",
".+	c #888A85",
"++	c #898B86",
"@+	c #8A8C87",
"#+	c #8B8D88",
"$+	c #8C8E89",
"%+	c #8D8F8A",
"&+	c #8D908A",
"*+	c #8E908B",
"=+	c #8F918C",
"-+	c #90928D",
";+	c #91938D",
">+	c #91938E",
",+	c #92948F",
"'+	c #939590",
")+	c #949690",
"!+	c #949791",
"~+	c #959792",
"{+	c #969893",
"]+	c #979993",
"^+	c #979A94",
"/+	c #989A95",
"(+	c #999B96",
"_+	c #9A9C96",
":+	c #9A9D97",
"<+	c #B9BAB7",
"[+	c #555753",
"}+	c #8E918B",
"|+	c #91948E",
"1+	c #949691",
"2+	c #959791",
"3+	c #959892",
"4+	c #979994",
"5+	c #989A94",
"6+	c #989B95",
"7+	c #9A9C97",
"8+	c #9B9D97",
"9+	c #9B9E98",
"0+	c #BABCB7",
"a+	c #5B5F5D",
"b+	c #303537",
"c+	c #71736F",
"d+	c #575955",
"e+	c #737571",
"f+	c #8C8F89",
"g+	c #747671",
"h+	c #767873",
"i+	c #777974",
"j+	c #787B76",
"k+	c #7B7D78",
"l+	c #BABCB8",
"m+	c #7E807D",
"n+	c #828380",
"o+	c #686B67",
"p+	c #BDBFBB",
"q+	c #C7C9C5",
"r+	c #BEC0BB",
"s+	c #A7A8A4",
"t+	c #575A55",
"u+	c #ADAFAC",
"v+	c #B8B9B6",
"w+	c #B4B5B2",
"x+	c #AEAFAC",
"y+	c #9FA09D",
"z+	c #BBBDB9",
"A+	c #6E6F6C",
"B+	c #BFC1BC",
"C+	c #C5C7C2",
"D+	c #CACBC7",
"E+	c #ADB0A9",
"F+	c #8F918B",
"G+	c #D3D5D1",
"H+	c #D7D8D5",
"I+	c #CFD1CD",
"J+	c #D6D7D3",
"K+	c #A6A8A4",
"L+	c #8F908C",
"M+	c #BCBEBA",
"N+	c #50534F",
"O+	c #585A55",
"P+	c #A2A49F",
"Q+	c #B3B6AF",
"R+	c #B6B9B2",
"S+	c #A2A5A0",
"T+	c #585A56",
"U+	c #8F928C",
"V+	c #868784",
"W+	c #81837F",
"X+	c #757773",
"Y+	c #787A75",
"Z+	c #797B76",
"`+	c #7D7F7A",
" @	c #8B8E88",
".@	c #92948E",
"+@	c #92958F",
"@@	c #9C9F99",
"#@	c #9D9F9A",
"$@	c #9EA09A",
"%@	c #9EA19B",
"&@	c #9FA29C",
"*@	c #A0A29D",
"=@	c #A1A39D",
"-@	c #A2A49E",
";@	c #BEC0BC",
">@	c #ACAEAA",
",@	c #5D615F",
"'@	c #747672",
")@	c #767874",
"!@	c #93958F",
"~@	c #7A7C77",
"{@	c #7C7E79",
"]@	c #9DA09A",
"^@	c #7E807B",
"/@	c #BEC1BC",
"(@	c #ADAEAB",
"_@	c #BFC1BD",
":@	c #AEAFAB",
"<@	c #C8CAC5",
"[@	c #DBDCD9",
"}@	c #CED0CC",
"|@	c #D3D4D0",
"1@	c #D4D5D2",
"2@	c #C0C2BE",
"3@	c #AEB0AC",
"4@	c #969892",
"5@	c #9B9D98",
"6@	c #A0A39D",
"7@	c #C1C3BE",
"8@	c #5F6361",
"9@	c #787A76",
"0@	c #797C76",
"a@	c #7B7E78",
"b@	c #9C9E99",
"c@	c #A1A49E",
"d@	c #80827D",
"e@	c #C1C3BF",
"f@	c #A2A59F",
"g@	c #A3A6A0",
"h@	c #A4A6A0",
"i@	c #A5A7A1",
"j@	c #A5A8A2",
"k@	c #A6A9A3",
"l@	c #A7A9A3",
"m@	c #A8AAA4",
"n@	c #C2C4C0",
"o@	c #B0B2AE",
"p@	c #939690",
"q@	c #777975",
"r@	c #797C77",
"s@	c #999B95",
"t@	c #7A7D77",
"u@	c #7C7F7A",
"v@	c #9EA09B",
"w@	c #7F817C",
"x@	c #81837E",
"y@	c #C3C5C1",
"z@	c #B1B2AF",
"A@	c #9FA19C",
"B@	c #A4A7A1",
"C@	c #A9AAA7",
"D@	c #9A9C99",
"E@	c #B2B3B0",
"F@	c #B8BBB4",
"G@	c #D5D6D3",
"H@	c #CDCECA",
"I@	c #D4D6D2",
"J@	c #B3B4B1",
"K@	c #C4C6C2",
"L@	c #B2B4B0",
"M@	c #969993",
"N@	c #9C9E98",
"O@	c #C5C7C3",
"P@	c #B3B5B1",
"Q@	c #616563",
"R@	c #626664",
"S@	c #9D9F99",
"T@	c #7E817C",
"U@	c #A7AAA4",
"V@	c #A4A6A2",
"W@	c #C5C8C3",
"X@	c #999C96",
"Y@	c #9FA19B",
"Z@	c #A7AAA3",
"`@	c #A8ABA5",
" #	c #C7C8C4",
".#	c #B5B6B2",
"+#	c #636765",
"@#	c #7F827D",
"##	c #A9ACA6",
"$#	c #C8C9C5",
"%#	c #B5B7B3",
"&#	c #A0A29C",
"*#	c #A5A7A3",
"=#	c #90918E",
"-#	c #AAADA7",
";#	c #B6B7B4",
">#	c #B1B4AD",
",#	c #B3B5AF",
"'#	c #D0D2CE",
")#	c #D2D3D0",
"!#	c #ABAEA8",
"~#	c #C9CAC6",
"{#	c #B7B8B5",
"]#	c #848682",
"^#	c #ADAFA9",
"/#	c #565854",
"(#	c #B5B6B3",
"_#	c #646867",
":#	c #656967",
"<#	c #A3A59F",
"[#	c #81847F",
"}#	c #81847E",
"|#	c #838580",
"1#	c #AEB0AA",
"2#	c #848681",
"3#	c #878984",
"4#	c #545552",
"5#	c #989A96",
"6#	c #ACAEA9",
"7#	c #AAADA6",
"8#	c #ABADA7",
"9#	c #ACAFA9",
"0#	c #AEB1AA",
"a#	c #AFB1AB",
"b#	c #AFB2AC",
"c#	c #B0B3AC",
"d#	c #B2B4AE",
"e#	c #B2B5AE",
"f#	c #B4B7B0",
"g#	c #C1C3BD",
"h#	c #555654",
"i#	c #60625E",
"j#	c #999B97",
"k#	c #B8B9B5",
"l#	c #BBBCB9",
"m#	c #BCBDB9",
"n#	c #BEBFBB",
"o#	c #C0C2BD",
"p#	c #C1C2BE",
"q#	c #C2C4BF",
"r#	c #C3C4C0",
"s#	c #C4C6C1",
"t#	c #C5C6C2",
"u#	c #C6C8C3",
"v#	c #C7C9C4",
"w#	c #C9CBC6",
"x#	c #CACCC7",
"y#	c #626360",
"z#	c #50524F",
"A#	c #525350",
"                                                                                                ",
"              . + @ @ @ @ @ @ @ @ @ @ @ @ @ @ @ @ @ @ @ @ @ @ @ @ @ @ @ @ @ @ + .               ",
"            # $ % & & & & & & & & & & & & & & & & & & & & & & & & & & & & * * = - #             ",
"          ; > , ' ) ) ) ) ) ) ) ) ) ) ) ) ) ) ) ) ) ) ) ) ) ) ) ) ) ) ) ) ) ) ' ! ~ ;           ",
"          + { ] ^ ^ / ( _ : < [ } | 1 ^ ^ ^ ^ ^ ^ ^ ^ ^ ^ ^ ^ 2 2 2 2 2 2 2 2 ^ ] 3 +           ",
"          @ 4 5 5 5 6 7 8 9 0 a b c d 5 5 5 5 5 5 5 5 5 5 5 5 e e e e e e e e 5 5 f @           ",
"          @ g h h h h h h h h h h h h h h h h h h h h h h h h h h h h h h h h h h i @           ",
"          @ j k l m n o o o o p p q q q r r s s t t u u u v v w w w w w x x y z k A @           ",
"          @ B C D E E F F F F G G G H H I I I J J J J K K L L L M M N N N O O P C Q @           ",
"          @ R S T U U U V W X X Y Y Z Z Z ` ` ` ` `  ...+.+.+.+.@.@.@.#.#.$.$.$.S %.@           ",
"          @ &.*.=.=.-.-.;.>.,.'.'.).).).!.!.!.~.~.~.{.].^./.(._.:.<.[.}.}.}.|.|.*.1.@           ",
"          @ 2.3.4.4.5.4.=.6.7.8.9.0.0.0.0.0.0.0.0.0.a.b.c.d.e.f.g.h.i.j.j.j.j.j.3.k.@           ",
"          @ l.m.n.;.J o.p.q.0.0.0.0.0.0.0.0.0.0.0.0.r.s.t.0.u.v.9.w.x.y.j.j.j.j.m.z.@           ",
"          @ A.B.C.p.p.p.p.q.0.0.0.0.0.0.0.0.0.0.0.0.D.s.E.0.F.G.0.H.I.J.K.$.L.j.B.M.@           ",
"          @ N.O.P.p.p.p.p.p.p.p.p.p.p.p.p.p.p.p.p.p.p.p.p.p.p.p.p.p.p.p.p.p.Q.R.O.S.@           ",
"          @ T.U.V.P.p.p.p.p.p.p.p.p.p.p.p.p.p.p.p.p.p.p.p.p.p.p.p.p.p.p.p.p.P.V.U.W.@           ",
"          @ X.Y.Y.Y.Y.Y.Y.Y.Y.Y.Y.Y.Y.Y.Y.Y.Y.Y.Y.Y.Y.Y.Y.Y.Y.Y.Y.Y.Y.Y.Y.Y.Y.Y.Y.Z.@           ",
"          `. +.+.+.+.+.+.+.+.+.+.+++@+@+#+$+%+&+*+=+-+;+>+,+'+)+!+~+{+]+^+/+(+_+:+<+`.          ",
"          [+ +.+.+.+.+.+.+.+.+.+++@+#+#+$+%+*+}+=+-+>+|+,+'+1+2+3+{+4+5+6+(+7+8+9+0+[+          ",
"          [+ +a+b+@ b+a+.+c+d+[+[+d+e+f+g+d+[+[+d+h+,+i+d+[+[+d+j+4+j+d+[+[+[+d+k+l+[+          ",
"          [+ +b+m+n+o+b+.+d+p+q+r+s+t+&+d+p+q+r+s+t+'+d+p+q+r+s+t+/+d+u+v+w+x+y+d+z+[+          ",
"          [+ +@ A+[+[+@ ++[+B+C+D+E+[+F+[+B+G+H+E+[+1+[+B+I+J+E+[+(+[+K+.+.+.+L+[+M+[+          ",
"          [+ +b+N+[+N+b+@+O+P+Q+R+S+T+U+O+P+Q+R+S+T+~+O+P+Q+R+S+T+7+d+V+.+.+.+W+d+M+[+          ",
"          [+ +a+b+@ b+Q #+e+T+[+[+T+X+;+h+T+[+[+T+Y+{+Z+T+[+[+T+k+9+k+d+[+[+[+d+`+p+[+          ",
"          [+ +.+++@+#+ @$+%+*+F+=+-+>+.@+@'+1+2+3+{+4+5+6+(+7+8+9+@@#@$@%@&@*@=@-@;@[+          ",
"          [+>@&.b+@ b+,@%+'@d+[+[+d+)@!@i+d+[+[+d+Z+/+~@d+[+[+d+{@]@{@d+[+[+[+d+^@/@[+          ",
"          [+(@b+m+n+o+b+*+d+p+q+r+s+t+)+d+p+q+r+s+t+(+d+p+q+r+s+t+%@d+u+v+w+x+y+d+_@[+          ",
"          [+:@@ A+[+[+@ =+[+B+<@[@E+[+2+[+B+}@|@E+[+7+[+B+|@1@E+[+&@[+K+.+.+.+L+[+2@[+          ",
"          [+3@b+N+[+N+b+-+O+P+Q+R+S+T+4@O+P+Q+R+S+T+5@O+P+Q+R+S+T+6@d+V+.+.+.+W+d+7@[+          ",
"          [+b $ b+@ b+8@|+)@T+[+[+T+9@]+0@T+[+[+T+a@b@{@T+[+[+T+^@c@^@d+[+[+[+d+d@e@[+          ",
"          [+} F+=+-+>+.@+@'+1+2+3+{+4+5+6+(+7+8+9+@@#@$@%@&@*@=@-@f@g@h@i@j@k@l@m@n@[+          ",
"          [+o@8@b+@ b+A p@q@d+[+[+d+r@s@t@d+[+[+d+u@v@`+d+[+[+d+w@g@w@d+[+[+[+d+x@y@[+          ",
"          [+z@b+m+n+o+b+!+d+p+q+r+s+t+_+d+p+q+r+s+t+A@d+p+q+r+s+t+B@d+u+w+b C@D@d+y@[+          ",
"          [+E@@ A+[+[+@ 3+[+B+F@G@E+[+8+[+B+H@G@E+[+6@[+B+C+I@E+[+j@[+J@.+.+.+b@[+K@[+          ",
"          [+L@b+N+[+N+b+M@O+P+Q+R+S+T+N@O+P+Q+R+S+T+c@O+P+Q+R+S+T+k@[+ +.+.+.+~+[+O@[+          ",
"          [+P@Q@b+@ b+R@^+r@T+[+[+T+{@S@`+T+[+[+T+T@f@w@T+[+[+T+x@U@[+V@.+.+.+*+[+W@[+          ",
"          [+w+2+3+{+4+5+6+X@7+8+N@@@#@$@Y@&@6@=@-@f@g@h@i@j@k@Z@m@`@[+#@.+.+.+.+[+ #[+          ",
"          [+.#R@b+@ b++#X@k+d+[+[+d+`+Y@^@d+[+[+d+@#B@w@d+[+[+d+x@##[+{+.+.+.+.+[+$#[+          ",
"          [+%#b+m+n+o+b+:+d+p+q+r+s+t+&#d+p+q+r+s+t+j@d+u+J@*#=#d+-#[+L+.+.+.+.+[+<@[+          ",
"          [+;#@ A+[+[+@ N@[+B+>#,#E+[+=@[+B+'#)#E+[+k@[+*#.+.+.+[+!#[+.+.+.+.+.+[+~#[+          ",
"          [+{#b+N+[+N+b+S@O+P+Q+R+S+T+-@O+P+Q+R+S+T+U@d+]#.+.+W+d+^#d+W+.+.+.+W+t+D+[+          ",
"          /#(#_#b+@ b+:#$@`+T+[+[+T+w@<#d@T+[+[+T+[#`@}#d+[+[+d+|#1#2#d+[+[+[+t+3# #/#          ",
"          4#5#6#$@@@#@$@Y@&@6@=@-@f@g@h@i@j@k@Z@m@`@##7#8#!#9#E+0#a#b#c#>#d#e#f#g#*#h#          ",
"            i#j#k#l+l#m#M+M+p+n#;@/@_@o#p#7@e@q#r#y@y@s#t#O@W@u#v#$#<@<@w#D+x#v#*#y#            ",
"              z#[+[+[+[+[+[+[+[+[+[+[+[+[+[+[+[+[+[+[+[+[+[+[+[+[+[+[+[+[+[+[+[+A#              ",
"                                                                                                ",
"                                                                                                ",
"                                                                                                "};
