/* XPM */
static char * charmap_xpm[] = {
"48 48 279 2",
"  	c None",
". 	c #A6A8A4",
"+ 	c #A3A5A0",
"@ 	c #A4A6A0",
"# 	c #A4A6A1",
"$ 	c #A6A8A3",
"% 	c #B6B8B4",
"& 	c #E4E6E3",
"* 	c #F1F2EF",
"= 	c #F1F2F0",
"- 	c #F2F2F0",
"; 	c #F2F3F1",
"> 	c #F3F4F1",
", 	c #F0F1EE",
"' 	c #EFF0ED",
") 	c #EEF0ED",
"! 	c #EEF0EC",
"~ 	c #EDEFEC",
"{ 	c #EDEEEB",
"] 	c #ECEEEA",
"^ 	c #ECEDE9",
"/ 	c #EBEDE9",
"( 	c #E4E6E1",
"_ 	c #C0C1BC",
": 	c #A6A8A2",
"< 	c #A4A7A2",
"[ 	c #E0E0DE",
"} 	c #EAEAE7",
"| 	c #E7E8E4",
"1 	c #E8E9E5",
"2 	c #E8EAE6",
"3 	c #E9EAE6",
"4 	c #EAEBE7",
"5 	c #EAEBE8",
"6 	c #E9EAE7",
"7 	c #E6E7E3",
"8 	c #E5E7E2",
"9 	c #E3E5E0",
"0 	c #E2E4DE",
"a 	c #E1E3DD",
"b 	c #E0E2DC",
"c 	c #DFE1DB",
"d 	c #DDE0DA",
"e 	c #DCDFD8",
"f 	c #DDE0D9",
"g 	c #E4E7E1",
"h 	c #DEE1DA",
"i 	c #E5E6E2",
"j 	c #A5A7A3",
"k 	c #A0A29D",
"l 	c #E7E9E4",
"m 	c #EBEBE8",
"n 	c #EBECE9",
"o 	c #EBECE8",
"p 	c #E7E9E5",
"q 	c #E6E8E3",
"r 	c #E2E4DF",
"s 	c #E1E3DE",
"t 	c #DEE0DA",
"u 	c #DDDFD9",
"v 	c #DCE0D8",
"w 	c #E9EBE6",
"x 	c #A8A9A6",
"y 	c #9FA19C",
"z 	c #ECEDEA",
"A 	c #ECECE9",
"B 	c #E4E5E0",
"C 	c #E3E5DF",
"D 	c #E1E4DE",
"E 	c #E0E3DD",
"F 	c #DFE2DB",
"G 	c #DCDFD9",
"H 	c #EAECE8",
"I 	c #A8A9A4",
"J 	c #9D9F9A",
"K 	c #F3F3F2",
"L 	c #F3F4F2",
"M 	c #F2F2F1",
"N 	c #F1F1EF",
"O 	c #F0F1EF",
"P 	c #EFF1ED",
"Q 	c #EEEFEC",
"R 	c #EDEEEA",
"S 	c #EAECE9",
"T 	c #EAECE7",
"U 	c #E9EBE7",
"V 	c #EBEDE8",
"W 	c #E8EAE5",
"X 	c #9B9D98",
"Y 	c #F4F4F1",
"Z 	c #F0F0EE",
"` 	c #EFEFEC",
" .	c #EFEFED",
"..	c #EEEEEC",
"+.	c #DFE2DC",
"@.	c #E4E7E0",
"#.	c #EBEEE9",
"$.	c #9A9C96",
"%.	c #F7F7F6",
"&.	c #DEE1DB",
"*.	c #A3A59F",
"=.	c #989A95",
"-.	c #F8F8F7",
";.	c #EEEEEB",
">.	c #EAEBE6",
",.	c #E9EAE5",
"'.	c #E2E4E0",
").	c #A1A39E",
"!.	c #969893",
"~.	c #FBFBFA",
"{.	c #E7E8E3",
"].	c #E6E7E2",
"^.	c #E5E7E1",
"/.	c #D5D7D1",
"(.	c #D4D6D1",
"_.	c #DFE2DD",
":.	c #F7F8F6",
"<.	c #959791",
"[.	c #FDFDFD",
"}.	c #EDEDEC",
"|.	c #ECEDEB",
"1.	c #EBECEA",
"2.	c #D2D4CF",
"3.	c #191919",
"4.	c #000000",
"5.	c #626361",
"6.	c #E1E4DD",
"7.	c #E1E3DC",
"8.	c #E0E3DC",
"9.	c #E0E2DD",
"0.	c #9EA09B",
"a.	c #939590",
"b.	c #E8E9E6",
"c.	c #FFFFFF",
"d.	c #EDEDEA",
"e.	c #EDEEEC",
"f.	c #EDEDEB",
"g.	c #ECECEA",
"h.	c #E4E5E1",
"i.	c #383937",
"j.	c #555553",
"k.	c #E4E6E0",
"l.	c #FEFEFE",
"m.	c #92938E",
"n.	c #636362",
"o.	c #484847",
"p.	c #E6E8E4",
"q.	c #9B9D99",
"r.	c #91928C",
"s.	c #EDEDE9",
"t.	c #939391",
"u.	c #3D3D3C",
"v.	c #E3E4E1",
"w.	c #E9E9E6",
"x.	c #E8E8E5",
"y.	c #E7E8E5",
"z.	c #9B9C97",
"A.	c #8E918A",
"B.	c #E6E6E3",
"C.	c #6F6F6E",
"D.	c #6D6D6B",
"E.	c #E0E0DD",
"F.	c #EAEAE6",
"G.	c #999B95",
"H.	c #8C8E89",
"I.	c #EBEDEA",
"J.	c #EBEBE9",
"K.	c #979994",
"L.	c #8B8D87",
"M.	c #DFDFDD",
"N.	c #9E9E9C",
"O.	c #5B5B5B",
"P.	c #2A2A2A",
"Q.	c #121212",
"R.	c #010101",
"S.	c #1A1A1A",
"T.	c #787877",
"U.	c #959793",
"V.	c #898B85",
"W.	c #777776",
"X.	c #040404",
"Y.	c #0D0D0D",
"Z.	c #B5B5B4",
"`.	c #878984",
" +	c #7F7F7E",
".+	c #4F4F4F",
"++	c #A5A5A4",
"@+	c #D5D5D3",
"#+	c #9B9B9A",
"$+	c #212120",
"%+	c #1F1F1F",
"&+	c #E6E6E4",
"*+	c #93958E",
"=+	c #868882",
"-+	c #D1D1CF",
";+	c #101010",
">+	c #838382",
",+	c #91938D",
"'+	c #848680",
")+	c #565655",
"!+	c #90928C",
"~+	c #82847E",
"{+	c #DDDDDB",
"]+	c #9D9D9B",
"^+	c #858583",
"/+	c #6D6D6C",
"(+	c #616160",
"_+	c #60605F",
":+	c #2D2D2C",
"<+	c #353535",
"[+	c #8D908A",
"}+	c #81837D",
"|+	c #E2E2E0",
"1+	c #5B5B5A",
"2+	c #070707",
"3+	c #1E1E1E",
"4+	c #8C8D89",
"5+	c #7F817C",
"6+	c #464645",
"7+	c #070706",
"8+	c #474746",
"9+	c #6B6B6A",
"0+	c #90908F",
"a+	c #C9C9C7",
"b+	c #1D1D1D",
"c+	c #8B8C88",
"d+	c #B1B1B0",
"e+	c #505050",
"f+	c #8B8C87",
"g+	c #7F817B",
"h+	c #7E7E7D",
"i+	c #0F0F0F",
"j+	c #252525",
"k+	c #757574",
"l+	c #D4D4D2",
"m+	c #9F9F9D",
"n+	c #A2A2A1",
"o+	c #686867",
"p+	c #AFAFAE",
"q+	c #151515",
"r+	c #EAEAE8",
"s+	c #343434",
"t+	c #181818",
"u+	c #3F3F3F",
"v+	c #585857",
"w+	c #D6D6D4",
"x+	c #4B4B4A",
"y+	c #030303",
"z+	c #E1E1DF",
"A+	c #C8C8C6",
"B+	c #929290",
"C+	c #BBBBB9",
"D+	c #E3E3E1",
"E+	c #D8D8D6",
"F+	c #DADAD9",
"G+	c #FCFDFC",
"H+	c #F1F1F0",
"I+	c #FBFCFB",
"J+	c #FCFCFC",
"K+	c #FCFDFB",
"L+	c #FDFDFC",
"M+	c #FAFBFA",
"N+	c #E6E9E4",
"O+	c #7E817A",
"P+	c #81847E",
"Q+	c #D4D6D2",
"R+	c #E2E5DF",
"S+	c #E1E3DF",
"T+	c #838580",
"U+	c #959792",
"V+	c #DADBD7",
"W+	c #DFE1DC",
"X+	c #A6A7A2",
"Y+	c #777976",
"Z+	c #6F736F",
"`+	c #81827D",
" @	c #80827B",
".@	c #80827C",
"+@	c #767875",
"                                                                                                ",
"                                                                                                ",
"                                                                                                ",
"          . + + + @ @ # # # # # # # # # # # # # # # # # # # # # # # # # # # # # # # $           ",
"        % & * = - ; ; ; ; > ; ; ; - = * , , ' ) ! ~ { ] ^ / / / / / / / / / / / / / ( _ :       ",
"      < [ } | 1 2 3 4 5 5 5 5 4 6 3 1 | 7 8 ( 9 0 a b c d e e e e e e e e e e e f g h i j       ",
"      k { l l 1 3 4 m n n n n o 4 6 2 p q 8 ( 9 r s b c t u e e e e e e e e e v 4 2 f w x       ",
"      y { 1 1 3 4 m n z z z z A o 4 3 1 | 7 i B C D E F h f e e e e e e e e G H 1 e e w I       ",
"      J { 1 1 6 5 { = K L L L ; M = N O P ' Q ~ R z / S T U 3 3 3 3 3 3 3 q V W e e e w $       ",
"      X { W 2 4 o Y Z ` ' '  ...{ ^ o 4 3 l q 8 ( C 0 E +.h f f f f f f f @.#.e e e e w #       ",
"      $.{ 3 3 4 o %.{ Q  . .Q { z n 4 3 1 | 8 ( 9 0 a b &.f e e e e e e e e ' e e e e w *.      ",
"      =.{ 3 3 4 n -.{ ` Z Z  .;.z n 5 >.,.1 q i ( '.s b &.f e e e e e e e f L e e e e w ).      ",
"      !.{ 3 3 4 n ~.{ Q  . .` ;.z n 5 4 3 1 {.].^.u /.(._.+.&.&.&.&.&.h h c :.e e e e w y       ",
"      <.{ 2 3 4 o [.}.........{ |.1.m o 4 2 1 | 2.3.4.5.r 6.7.8.8.E E 9.9.s ~.e e e e w 0.      ",
"      a.{ 1 b.6 5 c.d.{ ....e.f.g.g.^ n 5 U 3 h.i.4.j.( k.9 r r r r r r 0 C l.e e e e w J       ",
"      m.{ 1 1 3 4 c.d.f.f.f.f.d.z g.A n m 5 4 n.4.o.( p.7 8 i i ( ( ( ( ( 7 [.e e e e w q.      ",
"      r.R l p 2 6 c.f.f.f.f.f.|.g.g.s.^ A o t.4.u.v.w.b.x.y.| | | | p.p.p.1 l.e e e e w z.      ",
"      A.z | | 1 3 c.f.f.f.f.f.f.|.g.d.d.^ B.C.D.E.m 4 4 F.3 6 6 6 6 w.w.b.5 l.e e e e w G.      ",
"      H.I.q q | 1 c.}.}.}.}.}.}.f.f.{ { f.d.d.m z g.A A n o m m m m m m J.g.[.e e e e w K.      ",
"      L.I.7 7 p.l c.........{ { }.}.M.N.O.P.Q.R.S.u.T.v.f.f.f.f.f.f.f.f.d.f.l.e e e e w U.      ",
"      V.n 8 8 7 q c.................W.4.4.4.X.Y.4.4.4.3.Z................. .l.e e e e w <.      ",
"      `.o ( ( 8 ].c................. +.+++@+J...[ #+$+4.%+&+.............. .l.e e e e w *+      ",
"      =+5 k.9 ( i c.................................-+;+4.>+.............. .l.e e e e w ,+      ",
"      '+5 9 C 9 ( c....................................+4.)+.............. .l.e e e e w !+      ",
"      ~+U r 0 r 9 c.....................{+]+^+/+(+_+_+:+4.<+.............. .l.e e e e w [+      ",
"      }+6 D s 0 r c.................|+1+2+4.4.4.4.4.4.4.4.3+.............. .l.e e e e w 4+      ",
"      5+2 a 9.a s c...............g.6+4.7+8+9+0+Z.a+a+O.4.b+.............. .l.e e e e w c+      ",
"      5+W b +.b E c...............d+4.4.++............e+4.b+.............. .l.e e e e w f+      ",
"      g+p F &.c +.c...............h+4.i+f.............j+4.b+.............. .l.e e e e w f+      ",
"      g+y.h t h &.c...............k+4.X.l+..........m+4.4.b+.............. .l.e e e e w f+      ",
"      g+| f u f d c...............n+4.4.o+f.......p+q+4.4.b+.............. .l.e e e e w f+      ",
"      g+| f e e G c...............r+s+4.4.t+(+C.u+R.:+v+4.b+.............. .l.e e e e w f+      ",
"      g+| f e e e c.................w+x+4.4.4.4.y+8+z+C.4.b+.............. .l.e e e e w f+      ",
"      g+| f e e e c.....................A+n+B+C+&+....D+E+F+.............. .l.e e e e w f+      ",
"      g+| f e e e c....................................................... .l.e e e e w f+      ",
"      g+| f e e e c....................................................... .l.e e e e w f+      ",
"      g+| f e e e G+H+....................................................K I+e e e e w f+      ",
"      g+| f e e D [.[.J+J+J+J+J+J+J+J+J+J+J+J+J+J+J+J+J+J+J+J+J+J+J+J+J+K+l.L+D e e e w f+      ",
"      g+| f e h L U f E E E E E E E E E E E E E E E E E E E E E E E E E E f w M+c e e w f+      ",
"      g+| f e N+q e e e e e e e e e e e e e e e e e e e e e e e e e e e e e e l U e e w f+      ",
"      O+| f e b e e e e e e e e e e e e e e e e e e e e e e e e e e e e e e e e h e e w f+      ",
"      O+| f e e e e e e e e e e e e e e e e e e e e e e e e e e e e e e e e e e e e e w f+      ",
"      P+Q+R+d d d d d d d d d d d d d d d d d d d d d d d d d d d d d d d d d d d d b S+T+      ",
"        U+V+4 4 4 4 4 4 4 4 4 4 4 4 4 4 4 4 4 4 4 4 4 4 4 4 4 4 4 4 4 4 4 4 4 4 4 4 W+X+Y+      ",
"        Z+`+ @.@.@.@.@.@.@.@.@.@.@.@.@.@.@.@.@.@.@.@.@.@.@.@.@.@.@.@.@.@.@.@.@.@.@.@}++@        ",
"                                                                                                ",
"                                                                                                ",
"                                                                                                "};
