/* XPM */
static char * cheese_xpm[] = {
"48 48 510 2",
"  	c None",
". 	c #8E8F8B",
"+ 	c #888A85",
"@ 	c #F4F4F3",
"# 	c #F7F7F6",
"$ 	c #EEEEEC",
"% 	c #A58DA7",
"& 	c #75507B",
"* 	c #BF9CBB",
"= 	c #C19EBD",
"- 	c #C19FBD",
"; 	c #C29FBE",
"> 	c #C2A0BE",
", 	c #C09DBC",
"' 	c #C09CBC",
") 	c #BF9BBB",
"! 	c #BE9ABA",
"~ 	c #BE99BA",
"{ 	c #BD98B9",
"] 	c #BC97B8",
"^ 	c #BB95B7",
"/ 	c #BA94B6",
"( 	c #BA93B5",
"_ 	c #B991B4",
": 	c #B890B3",
"< 	c #B78EB2",
"[ 	c #B68DB1",
"} 	c #B58BB0",
"| 	c #B187AD",
"1 	c #C2A0BF",
"2 	c #C3A1BF",
"3 	c #C3A2C0",
"4 	c #C4A2C0",
"5 	c #BB94B6",
"6 	c #B78FB3",
"7 	c #B48AAF",
"8 	c #C4A4C1",
"9 	c #C5A4C1",
"0 	c #C5A5C2",
"a 	c #C6A6C2",
"b 	c #C4A3C1",
"c 	c #B992B5",
"d 	c #B891B4",
"e 	c #B68DB2",
"f 	c #B48BB0",
"g 	c #C6A7C3",
"h 	c #C7A8C4",
"i 	c #C8A9C4",
"j 	c #C6A6C3",
"k 	c #907891",
"l 	c #524D57",
"m 	c #424248",
"n 	c #45434A",
"o 	c #4B4751",
"p 	c #7B677C",
"q 	c #AD86A9",
"r 	c #C7A7C3",
"s 	c #C9AAC5",
"t 	c #C9ABC6",
"u 	c #CAACC6",
"v 	c #C8AAC5",
"w 	c #AC8EAA",
"x 	c #45444B",
"y 	c #2E3436",
"z 	c #4C4951",
"A 	c #645968",
"B 	c #756376",
"C 	c #816C82",
"D 	c #7C677C",
"E 	c #7A657B",
"F 	c #6C4D72",
"G 	c #927F92",
"H 	c #6A616D",
"I 	c #46464C",
"J 	c #3A3D41",
"K 	c #59565E",
"L 	c #7B6F7D",
"M 	c #BCA1B9",
"N 	c #AC8EA9",
"O 	c #504C55",
"P 	c #746576",
"Q 	c #A789A6",
"R 	c #BA93B6",
"S 	c #B890B4",
"T 	c #DCDCDA",
"U 	c #423C49",
"V 	c #3F4146",
"W 	c #55525A",
"X 	c #655D69",
"Y 	c #726774",
"Z 	c #635C67",
"` 	c #4D4C52",
" .	c #414248",
"..	c #8B7A8C",
"+.	c #C4A3C0",
"@.	c #AA8CA7",
"#.	c #BD99B9",
"$.	c #BC96B8",
"%.	c #ECEDEC",
"&.	c #AEB0AE",
"*.	c #6B4C71",
"=.	c #BA9DB7",
"-.	c #BE9FBC",
";.	c #B68EB2",
">.	c #BB96B7",
",.	c #AE81A9",
"'.	c #B288AE",
").	c #AD80A8",
"!.	c #AD7FA8",
"~.	c #6F537F",
"{.	c #E3E6E8",
"].	c #B084AB",
"^.	c #A97FA8",
"/.	c #5B6FA7",
"(.	c #3A67A5",
"_.	c #3A69A6",
":.	c #4572AC",
"<.	c #647A93",
"[.	c #AC7FA7",
"}.	c #91728C",
"|.	c #506795",
"1.	c #3C6CA7",
"2.	c #608EC3",
"3.	c #6896C8",
"4.	c #6795C7",
"5.	c #5988BD",
"6.	c #3565A4",
"7.	c #465E7A",
"8.	c #B287AD",
"9.	c #AF82AA",
"0.	c #9F799B",
"a.	c #6C656A",
"b.	c #838383",
"c.	c #B1B6BB",
"d.	c #688AB6",
"e.	c #527BB1",
"f.	c #4C78AF",
"g.	c #4E7AB1",
"h.	c #527CB1",
"i.	c #809ABC",
"j.	c #B2B4B3",
"k.	c #686966",
"l.	c #5C5E5A",
"m.	c #B389AF",
"n.	c #B185AC",
"o.	c #836E80",
"p.	c #636361",
"q.	c #CACBCA",
"r.	c #FAFAFA",
"s.	c #F8F8F8",
"t.	c #F7F7F7",
"u.	c #F6F6F6",
"v.	c #F9F9F9",
"w.	c #F5F5F5",
"x.	c #A7A8A6",
"y.	c #5D5E5A",
"z.	c #776973",
"A.	c #929291",
"B.	c #F1F1F1",
"C.	c #DFE0DF",
"D.	c #6C6E6A",
"E.	c #8E728A",
"F.	c #797877",
"G.	c #EDF1E8",
"H.	c #F4F4F4",
"I.	c #E6E6E5",
"J.	c #5C5E5B",
"K.	c #A47DA0",
"L.	c #626261",
"M.	c #EAEAEA",
"N.	c #A3C87F",
"O.	c #509B09",
"P.	c #D5E4C7",
"Q.	c #E2E2E3",
"R.	c #EBECEC",
"S.	c #F2F2F2",
"T.	c #BFC0BE",
"U.	c #5E605D",
"V.	c #7A557E",
"W.	c #AE80A9",
"X.	c #AF83AB",
"Y.	c #B78FB4",
"Z.	c #BB93B6",
"`.	c #746D72",
" +	c #C6C6C5",
".+	c #C6DCB2",
"++	c #7DB448",
"@+	c #E7EEE1",
"#+	c #EBEBEB",
"$+	c #7A7E7F",
"%+	c #3A4041",
"&+	c #3E4446",
"*+	c #373D3F",
"=+	c #43484A",
"-+	c #A5A8A8",
";+	c #F3F3F3",
">+	c #F0F0F0",
",+	c #EFEFEF",
"'+	c #EEEEEE",
")+	c #878986",
"!+	c #6D5971",
"~+	c #9B8197",
"{+	c #A78BA5",
"]+	c #B394B0",
"^+	c #BB98B9",
"/+	c #BC97B9",
"(+	c #BD97B9",
"_+	c #BC96B9",
":+	c #BD98BA",
"<+	c #BD9ABA",
"[+	c #B895B4",
"}+	c #B08EAB",
"|+	c #9C8098",
"1+	c #887485",
"2+	c #786D75",
"3+	c #656363",
"4+	c #5A5C58",
"5+	c #DADBDB",
"6+	c #3F4446",
"7+	c #666969",
"8+	c #939593",
"9+	c #979896",
"0+	c #999A97",
"a+	c #898C89",
"b+	c #4F5355",
"c+	c #636769",
"d+	c #EDEDED",
"e+	c #ECECEC",
"f+	c #D3D3D2",
"g+	c #60625E",
"h+	c #555753",
"i+	c #7E7D7C",
"j+	c #706F6E",
"k+	c #565854",
"l+	c #5E5E5C",
"m+	c #61605F",
"n+	c #5F5F5C",
"o+	c #595B57",
"p+	c #585A56",
"q+	c #5D5D5B",
"r+	c #636360",
"s+	c #7C7A79",
"t+	c #999997",
"u+	c #AFAFAB",
"v+	c #BBBCBB",
"w+	c #81827F",
"x+	c #555A5C",
"y+	c #7E8180",
"z+	c #9D9E9B",
"A+	c #8A8C88",
"B+	c #838481",
"C+	c #767874",
"D+	c #858683",
"E+	c #A2A4A2",
"F+	c #5B6060",
"G+	c #929596",
"H+	c #EAEBEA",
"I+	c #5B5D59",
"J+	c #C3C4C0",
"K+	c #E1E1E0",
"L+	c #DEDEDC",
"M+	c #E2E2E0",
"N+	c #E8E8E6",
"O+	c #B8B9B5",
"P+	c #E2E3E0",
"Q+	c #C7C8C3",
"R+	c #ACADAA",
"S+	c #ADAEAB",
"T+	c #BCBEBF",
"U+	c #5B5E5E",
"V+	c #AFB0AF",
"W+	c #8A8B89",
"X+	c #D2D2D1",
"Y+	c #888987",
"Z+	c #949593",
"`+	c #A8A9A8",
" @	c #373C3E",
".@	c #E8E8E8",
"+@	c #E7E7E7",
"@@	c #676865",
"#@	c #C8C8C5",
"$@	c #BEBFBB",
"%@	c #EDEDEB",
"&@	c #C3C4C1",
"*@	c #8D8E8B",
"=@	c #CFCFCE",
"-@	c #8F9293",
";@	c #868888",
">@	c #B0B1AF",
",@	c #9C9D9B",
"'@	c #AEAFAD",
")@	c #BABBB9",
"!@	c #555A5B",
"~@	c #C5C6C6",
"{@	c #E6E6E6",
"]@	c #E5E5E5",
"^@	c #8F918E",
"/@	c #EBEBE9",
"(@	c #D4D4D1",
"_@	c #C6C7C3",
":@	c #CACAC7",
"<@	c #969794",
"[@	c #C5C6C4",
"}@	c #747778",
"|@	c #7B7D7C",
"1@	c #8A8C8A",
"2@	c #828481",
"3@	c #939492",
"4@	c #858684",
"5@	c #757773",
"6@	c #656764",
"7@	c #868784",
"8@	c #565B5B",
"9@	c #AFB1B2",
"0@	c #E3E3E3",
"a@	c #818381",
"b@	c #E7E7E5",
"c@	c #DFDFDE",
"d@	c #CECECC",
"e@	c #D1D1CE",
"f@	c #B8B9B6",
"g@	c #9E9F9D",
"h@	c #A0A2A3",
"i@	c #636766",
"j@	c #7D7F7B",
"k@	c #90918E",
"l@	c #404648",
"m@	c #D0D1D1",
"n@	c #635C63",
"o@	c #6A6A68",
"p@	c #E5E5E2",
"q@	c #D6D6D3",
"r@	c #D9D9D6",
"s@	c #D9D9D7",
"t@	c #6F716E",
"u@	c #D3D4D4",
"v@	c #3F4546",
"w@	c #8C8E8C",
"x@	c #626460",
"y@	c #747673",
"z@	c #797C7A",
"A@	c #424749",
"B@	c #E4E4E4",
"C@	c #E1E1E1",
"D@	c #DEDEDE",
"E@	c #5C5F5A",
"F@	c #92738E",
"G@	c #646161",
"H@	c #868683",
"I@	c #DDDDDA",
"J@	c #DEDFDC",
"K@	c #E3E3E0",
"L@	c #61635F",
"M@	c #838687",
"N@	c #545959",
"O@	c #8E8F8C",
"P@	c #656763",
"Q@	c #686A67",
"R@	c #7E7F7C",
"S@	c #858785",
"T@	c #414647",
"U@	c #B8B9BA",
"V@	c #E0E0E0",
"W@	c #C1C1C0",
"X@	c #5D5F5A",
"Y@	c #AB7EA6",
"Z@	c #826D7F",
"`@	c #828181",
" #	c #BEBEBC",
".#	c #EAEAE8",
"+#	c #E6E6E4",
"@#	c #ECECEA",
"##	c #9C9D9A",
"$#	c #9A9B99",
"%#	c #777B7C",
"&#	c #434849",
"*#	c #6C6E6D",
"=#	c #7E807E",
"-#	c #787B7A",
";#	c #626666",
">#	c #393F41",
",#	c #A2A4A5",
"'#	c #E2E2E2",
")#	c #A97DA4",
"!#	c #8C6F87",
"~#	c #6F676C",
"{#	c #5E5F5C",
"]#	c #898987",
"^#	c #A5A5A3",
"/#	c #BDBEBB",
"(#	c #D4D5D2",
"_#	c #CDCECB",
":#	c #C5C6C2",
"<#	c #B4B4B1",
"[#	c #8D8D8B",
"}#	c #696866",
"|#	c #CCCCCC",
"1#	c #BCBDBE",
"2#	c #525757",
"3#	c #5B6061",
"4#	c #868A8B",
"5#	c #D0D0CF",
"6#	c #71736F",
"7#	c #D4D4D4",
"8#	c #8D8E8C",
"9#	c #A37A9E",
"0#	c #8B7088",
"a#	c #7E6B7B",
"b#	c #6F656D",
"c#	c #646163",
"d#	c #656264",
"e#	c #696467",
"f#	c #6E666D",
"g#	c #736670",
"h#	c #7D657C",
"i#	c #8D6A8C",
"j#	c #936E90",
"k#	c #61625F",
"l#	c #BBBBBA",
"m#	c #BEBEBD",
"n#	c #5D5E5B",
"o#	c #A679A2",
"p#	c #A477A1",
"q#	c #A578A1",
"r#	c #A578A2",
"s#	c #AA7CA5",
"t#	c #8D718A",
"u#	c #646562",
"v#	c #C9CAC9",
"w#	c #E9E9E9",
"x#	c #DFDFDF",
"y#	c #A1A3A0",
"z#	c #5A5C59",
"A#	c #9D7898",
"B#	c #686366",
"C#	c #858784",
"D#	c #CDCECD",
"E#	c #5A5D58",
"F#	c #AB7DA6",
"G#	c #AC7EA7",
"H#	c #4F4953",
"I#	c #747674",
"J#	c #747572",
"K#	c #9B9B9A",
"L#	c #C0C0BF",
"M#	c #D8D9D8",
"N#	c #D1D1D1",
"O#	c #B3B4B3",
"P#	c #8E8E8D",
"Q#	c #636561",
"R#	c #616463",
"S#	c #64496B",
"T#	c #5A5C5F",
"U#	c #9C9E9B",
"V#	c #575955",
"W#	c #5E605B",
"X#	c #A9AAA9",
"Y#	c #353B3D",
"Z#	c #7D8080",
"`#	c #7F8281",
" $	c #818280",
".$	c #535759",
"+$	c #484A49",
"@$	c #525451",
"#$	c #545652",
"$$	c #F6F6F5",
"%$	c #EDEDEC",
"&$	c #E3E3E2",
"*$	c #898C8C",
"=$	c #5A5E5E",
"-$	c #AAABA9",
";$	c #868885",
">$	c #787A77",
",$	c #727370",
"'$	c #6C6D6A",
")$	c #676965",
"!$	c #6E6F6C",
"~$	c #7A7C79",
"{$	c #929390",
"]$	c #A6A7A5",
"^$	c #33393A",
"/$	c #848681",
"($	c #858782",
"_$	c #7F817C",
":$	c #7A7C77",
"<$	c #6E716E",
"[$	c #464B4B",
"}$	c #767978",
"|$	c #838685",
"1$	c #8C8E8D",
"2$	c #949695",
"3$	c #9D9E9D",
"4$	c #9A9C9A",
"5$	c #929493",
"6$	c #8A8D8B",
"7$	c #818483",
"8$	c #6C706F",
"9$	c #363B3E",
"0$	c #2D3131",
"a$	c #1C2022",
"b$	c #24282A",
"c$	c #282C2D",
"d$	c #2B2F31",
"e$	c #2D3233",
"f$	c #2E3334",
"g$	c #2D3335",
"h$	c #2B3232",
"i$	c #292D2F",
"j$	c #25292B",
"k$	c #232627",
"                                                                                                ",
"                                                                                                ",
"                                                                                                ",
"                                                                                                ",
"        . + + + + + + + + + + + + + + + + + + + + + + + + + + + + + + + + .                     ",
"        + @ # # # # # # # # # # # # # # # # # # # # # # # # # # # # # # @ +                     ",
"        + # $ $ $ $ $ $ $ $ $ $ $ $ $ $ $ $ $ $ $ $ $ $ $ $ $ $ $ $ $ $ # +                     ",
"        + # $ % & & & & & & & & & & & & & & & & & & & & & & & & & & % $ # +                     ",
"        + # $ & * = - ; ; > ; - - = , ' ) ! ~ { ] ^ / ( _ : < [ } | & $ # +                     ",
"        + # $ & 1 2 3 4 4 4 4 3 2 2 > - = ' ) ! { ] ^ 5 ( _ 6 < [ 7 & $ # +                     ",
"        + # $ & 4 8 9 0 a a 0 0 9 b 3 2 ; = , ) ! { ] ^ / c d 6 e f & $ # +                     ",
"        + # $ & 9 a g h h i h h j 0 8 4 2 ; = ' ) ~ ] k l m n o p q & $ # +                     ",
"        + # $ & a r i s t u t v h g 0 b 3 1 - , ) w x y z A B C D E F $ # +                     ",
"        + # $ & G H I J K L M v h g 0 8 3 1 - , N O P Q ^ R c S < } & $ # +                     ",
"        + # T U V W X Y Z `  ...a a 9 +.2 > = , @.#.{ $.^ ( _ : < } & $ # +                     ",
"        + %.&.*.+.9 0 a j g j =.-.8 +.2 > - , * ! #.] ^ / c d 6 ;.f & $ # +                     ",
"        + # $ & 2 3 4 b b 8 b +.4 2 1 ; = , * ! #.] >.5 ( _ : < f ,.& $ # +                     ",
"        + # $ & = - > 1 1 1 1 1 > - = , ' ) ! { ] >.5 R c S 6 '.).!.~.{.# +                     ",
"        + # $ & * ' , , , = , , , ' ) ) ! #.{ $.^ 5 ( _ S [ ].^./.(.(._.:.<.                    ",
"        + # $ & #.! ! ! ! ! ! ! ! ~ #.{ ] $.^ 5 R c d } ].[.}.|.1.2.3.4.5.6.7.                  ",
"        + # $ & $.$.] ] ] ] ] ] ] $.>.^ 5 / c 6 f 8.9.!.0.a.b.c.d.e.f.g.h.i.j.k.l.              ",
"        + # $ & R R / 5 5 R _ 6 e } m.8.n.9.!.!.!.!.[.o.p.q.r.s.t.u.u.u.t.s.v.w.x.y.            ",
"        + # $ & } '.].,.).!.!.!.!.!.!.!.!.!.!.!.!.!.z.A.B.v.u.u.u.u.u.u.u.u.u.t.v.C.D.          ",
"        + # $ & !.!.!.!.!.!.!.!.!.!.!.!.!.!.!.!.!.E.F.s.t.G.u.u.u.u.u.u.u.u.u.w.H.w.I.J.        ",
"        + # $ & !.!.!.!.!.!.!.!.!.!.!.!.!.!.!.!.K.L.M.s.N.O.P.u.u.u.Q.R.u.u.w.H.S.B.w.T.U.      ",
"        + # $ V.'.].W.!.!.!.!.!.!.).X.8.f Y.Z.{ `. +v.u..+++@+#+$+%+&+*+=+-+;+S.>+,+'+w.)+      ",
"        + # $ !+~+{+]+^+/+(+_+$.:+<+[+}+|+1+2+3+4+s.u.u.u.u.5+6+7+8+9+0+a+b+c+'+,+d+e+,+f+g+    ",
"        + # $ h+i+j+L.k+l+m+n+o+k+p+q+r+s+t+u+v+w+r.u.u.u.H.x+y+z+A+B+C+D+E+F+G+d+#+M.M.H+I+    ",
"        + # $ h+$ $ $ J+K+L+M+N+O+$ $ $ $ P+Q+R+S+v.u.u.u.T+U+V+W+X+X+Y+Y+Z+`+ @.@M..@+@S.@@    ",
"        + # $ h+$ $ $ #@$ $ $ $ $@$ $ $ $ %@&@*@=@s.u.u.u.-@;@>@,@'@'@,@,@,@)@!@~@.@{@]@,+^@    ",
"        + # $ h+$ $ /@(@$ $ $ $ _@$ $ $ $ $ :@<@[@s.u.u.u.}@|@1@2@^@3@4@5@6@7@8@9@{@]@0@,+a@    ",
"        + # $ h+/@$ b@c@$ $ $ $ d@$ $ $ $ $ e@f@g@v.u.u.u.h@i@j@h+h+h+h+h+k+k@l@m@]@0@0@,+I+    ",
"        + # $ n@o@[@p@/@$ $ $ $ q@$ $ $ $ $ r@s@t@r.u.u.u.u@v@w@x@h+h+h+h+y@z@A@B@0@C@B@D@E@    ",
"        + # $ & F@G@H@I@$ $ $ $ J@$ $ $ $ $ K@/@L@S.t.u.w.;+M@N@O@y@P@Q@R@S@T@U@0@C@V@.@W@X@    ",
"        + # $ & !.Y@Z@q+`@ #.#$ +#$ $ $ $ $ @#N+##$#r.H.;+B.M.%#&#*#=#-#;#>#,#'#C@D@0@+@6@      ",
"        + # $ & !.!.!.)#!#~#{#]#^#/#(#q@_#:#<#[#}#{#|#t.B.>+'+d+1#$+2#3#4#m@'#5#6#7#d+8#o+      ",
"        + # $ & !.!.!.!.!.!.9#0#a#b#c#d#e#f#g#h#i#j#k#M.w.'+d+#+M..@+@]@B@'#C@l#>@#+m#n#        ",
"        + # $ & !.!.!.!.!.!.!.!.!.!.Y@o#p#q#r#s#!.!.t#u#v#H.'+w#.@{@]@0@'#V@x#{@w#y#z#  h+      ",
"        + # $ & !.!.!.!.!.!.!.!.!.!.!.!.!.!.!.!.!.!.!.A#B#C#+@S.'+#++@+@.@#+'+D#6@E#    h+      ",
"        + # $ & F#!.!.!.!.!.!.!.!.!.!.!.!.!.!.!.!.!.!.G#H#I#I+J#K#L#M#N#O#P#k.Q#R#        h+    ",
"        + # $ % & & & & & & & & & & & & & & & & & & & S#T#U#V#h+h+z#W#{#p+h+h+x@X#Y#      h+h+  ",
"        + # $ $ $ $ $ $ $ $ $ $ $ $ $ $ $ $ $ $ $ $ +#Z#`# $h+h+h+h+h+h+h+h+h+h+g@.$+$@$#$h+    ",
"        + @ # # # # # # # # # # # # # # # # # # $$%$&$*$=$-$;$>$,$'$P@)$!$y@~${$]$^$            ",
"        /$+ + + + + + + + + + + + + + + + + + + ($_$:$<$ @[$}$|$1$2$3$4$5$6$7$8$9$0$            ",
"                                                          a$b$c$d$e$f$g$h$i$j$k$                ",
"                                                                                                ",
"                                                                                                ",
"                                                                                                "};
