/* XPM */
static char * chm_xpm[] = {
"48 48 78 1",
" 	c None",
".	c #FFFF00",
"+	c #FFFFFF",
"@	c #808080",
"#	c #000000",
"$	c #404000",
"%	c #BFBF00",
"&	c #FAFAFA",
"*	c #F8F8F8",
"=	c #EDEDED",
"-	c #E9E9E9",
";	c #E4E4E4",
">	c #F7F7F7",
",	c #404040",
"'	c #303000",
")	c #EFEF00",
"!	c #9F9F00",
"~	c #101000",
"{	c #DFDF00",
"]	c #CFCF00",
"^	c #7F7F00",
"/	c #707000",
"(	c #A3A3A3",
"_	c #606000",
":	c #E5E5E5",
"<	c #3C3C3C",
"[	c #343434",
"}	c #7C7C7C",
"|	c #C3C3C3",
"1	c #A5A5A5",
"2	c #040404",
"3	c #737373",
"4	c #0C0C0C",
"5	c #BFBFBF",
"6	c #939393",
"7	c #202000",
"8	c #5C5C5C",
"9	c #8F8F00",
"0	c #545454",
"a	c #2C2C2C",
"b	c #505000",
"c	c #D5D5D5",
"d	c #CBCBCB",
"e	c #606060",
"f	c #202020",
"g	c #C5C5C5",
"h	c #BCBCBC",
"i	c #AFAF00",
"j	c #8F8F8F",
"k	c #636363",
"l	c #303030",
"m	c #B5B5B5",
"n	c #CFCFCF",
"o	c #525252",
"p	c #505050",
"q	c #141414",
"r	c #565656",
"s	c #2E2E2E",
"t	c #9C9C9C",
"u	c #1C1C1C",
"v	c #EBEBEB",
"w	c #FBFBFB",
"x	c #8C8C8C",
"y	c #EFEFEF",
"z	c #444444",
"A	c #0E0E0E",
"B	c #4C4C4C",
"C	c #3A3A3A",
"D	c #3E3E3E",
"E	c #1E1E1E",
"F	c #ACACAC",
"G	c #DFDFDF",
"H	c #121212",
"I	c #6B6B6B",
"J	c #666666",
"K	c #101010",
"L	c #9F9F9F",
"M	c #FFFFFF",
"                        vB###########Bv         ",
"                      m###'!.......i$###m       ",
"                     2#~{.............{~#2      ",
"                    ##].................]##     ",
"                   ##.....................##    ",
"                  ##.......................##   ",
"                 6#{........................#0  ",
"                 #$.........................^#  ",
"@@@@@@@@@@@@@@@@D#...........................#8 ",
"@@@@@@@@@@@@@@@@#7...........................'# ",
"@@@@@@@@@@@@@@@@#{...........{###]...........i# ",
"@@@+++++++++++++#...........!##f##)...........# ",
"@@@+++++++++++++#..........{#g+@@#$...........# ",
"@@@++++++++++++5$..........$#++@@#_...........# ",
"@@@+++++++++++++#..........##++@##...........i# ",
"@@@+++++++++++++##########$#<++##)...........7# ",
"@@@+++++++++++++<##########4++z#)............#} ",
"@@@++++++++++++++++++++++++++[#.............'#  ",
"@@@+++++++++++++++++++++++++2#!............%#(  ",
"@@@++++++++++++++++++++++++2#]............)#q   ",
"@@@+++++++++++++++++++++++k#]............)##    ",
"@@@+++++++@@@@@@@@@@@@@@+:#/............]##     ",
"@@@+++++++@@@@@@@@@@@@@@+##............!#2      ",
"@@@+++++++@@@@@@@@@@@@@@+#%..........._#[       ",
"@@@+++++++@@@@@@@@@@@@@@,#...........##         ",
"@@@+++++++&&&&&&&&&&&&&&#~..........##          ",
"@@@+++++++>>>>>>>>>>>>>>#$.........{#c          ",
"@@@+++++++@@@@@@@@@@@@@@#^........./#           ",
"@@@+++++++@@@@@@@@@@@@@@#^.........$#           ",
"@@@+++++++@@@@@@@@@@@@@@#############           ",
"@@@+++++++@@@@@@@@@@@@@@+<#########<            ",
"@@@+++++++++++++++++++++############4           ",
"@@@+++++++++++++++++++++#..........%#           ",
"@@@+++++++**************#..........%#           ",
"@@@+++++++@@@@@@@@@@@@@@#..........%#           ",
"@@@+++++++@@@@@@@@@@@@@@#..........%#           ",
"@@@+++++++@@@@@@@@@@@@@@#..........%#           ",
"@@@+++++++@@@@@@@@@@@@@@#..........%#           ",
"@@@+++++++++++++++++++++#..........%#           ",
"@@@+++++++++++++++++++++#..........%#           ",
"@@@+++++++++++++++++++++#..........%#           ",
"@@@+++++++++++++++++++++#..........%#           ",
"@@@+++++++++++++++++++++############q           ",
"@@@++++++++++++++++++++++++++++@@@              ",
"@@@++++++++++++++++++++++++++++@@@              ",
"@@@@@@@@@@@@@@@@@@@@@@@@@@@@@@@@@@              ",
"@@@@@@@@@@@@@@@@@@@@@@@@@@@@@@@@@@              ",
"@@@@@@@@@@@@@@@@@@@@@@@@@@@@@@@@@@              "};
