/* XPM */
static char * clock_xpm[] = {
"48 48 737 2",
"  	c None",
". 	c #FEFEFE",
"+ 	c #FFFFFF",
"@ 	c #F5F5F5",
"# 	c #EAEAEA",
"$ 	c #DDDCDD",
"% 	c #B5B4B4",
"& 	c #9C9999",
"* 	c #918E8F",
"= 	c #949191",
"- 	c #A4A3A3",
"; 	c #C9C8C8",
"> 	c #E5E4E4",
", 	c #EEEEEE",
"' 	c #FBFBFB",
") 	c #D1D0D1",
"! 	c #868484",
"~ 	c #514C4E",
"{ 	c #342F30",
"] 	c #211A1B",
"^ 	c #292224",
"/ 	c #2E2729",
"( 	c #655F61",
"_ 	c #332C2E",
": 	c #2E2728",
"< 	c #251E1F",
"[ 	c #251E20",
"} 	c #403B3D",
"| 	c #656162",
"1 	c #A4A2A1",
"2 	c #F0EFF0",
"3 	c #E1E0E1",
"4 	c #4B4748",
"5 	c #201A1C",
"6 	c #3C3638",
"7 	c #534D4F",
"8 	c #5E585A",
"9 	c #635D5F",
"0 	c #746E70",
"a 	c #706A6C",
"b 	c #D0CDCE",
"c 	c #5C5658",
"d 	c #817C7D",
"e 	c #666062",
"f 	c #6C6668",
"g 	c #565052",
"h 	c #4E484A",
"i 	c #312B2D",
"j 	c #231C1E",
"k 	c #878485",
"l 	c #F3F3F3",
"m 	c #8C8A8A",
"n 	c #161011",
"o 	c #3C3637",
"p 	c #676161",
"q 	c #60595A",
"r 	c #A29E9F",
"s 	c #827C7D",
"t 	c #A29D9E",
"u 	c #7A7576",
"v 	c #8E898B",
"w 	c #CECCCC",
"x 	c #5D5657",
"y 	c #9F9B9B",
"z 	c #857F80",
"A 	c #B3B0B0",
"B 	c #8D8989",
"C 	c #6B6465",
"D 	c #6D6768",
"E 	c #585152",
"F 	c #2A2425",
"G 	c #272023",
"H 	c #C6C5C5",
"I 	c #D4D3D4",
"J 	c #4A4647",
"K 	c #20191A",
"L 	c #7E7879",
"M 	c #B2AEB0",
"N 	c #7F797A",
"O 	c #918C8D",
"P 	c #908B8C",
"Q 	c #6E6869",
"R 	c #736D6E",
"S 	c #5B5456",
"T 	c #D5D4D4",
"U 	c #554E4F",
"V 	c #5F585A",
"W 	c #686263",
"X 	c #6A6465",
"Y 	c #858081",
"Z 	c #645D5F",
"` 	c #C8C7C6",
" .	c #696264",
"..	c #C2BFC0",
"+.	c #3D3638",
"@.	c #211B1C",
"#.	c #7D7B7C",
"$.	c #C7C6C7",
"%.	c #221D1E",
"&.	c #413A3B",
"*.	c #676162",
"=.	c #575152",
"-.	c #C4C0C1",
";.	c #767172",
">.	c #615B5C",
",.	c #595354",
"'.	c #585253",
").	c #6A6566",
"!.	c #655F60",
"~.	c #ADA9AB",
"{.	c #787274",
"].	c #6D6869",
"^.	c #5D5758",
"/.	c #272022",
"(.	c #474244",
"_.	c #FAFAFA",
":.	c #DADADA",
"<.	c #262022",
"[.	c #474041",
"}.	c #645D5E",
"|.	c #979293",
"1.	c #8E8A8A",
"2.	c #6C6667",
"3.	c #ADAAAA",
"4.	c #575051",
"5.	c #564F51",
"6.	c #666061",
"7.	c #B1ADAE",
"8.	c #D1CFD0",
"9.	c #5E5759",
"0.	c #2B2526",
"a.	c #5C595A",
"b.	c #E8E7E8",
"c.	c #2B2728",
"d.	c #3B3436",
"e.	c #50494B",
"f.	c #999596",
"g.	c #5C5557",
"h.	c #6B6567",
"i.	c #564F52",
"j.	c #554D50",
"k.	c #534C4E",
"l.	c #676062",
"m.	c #554E50",
"n.	c #544D4F",
"o.	c #5B5356",
"p.	c #534B4E",
"q.	c #5D5558",
"r.	c #9C9899",
"s.	c #5D5659",
"t.	c #696365",
"u.	c #20191B",
"v.	c #737071",
"w.	c #3C3738",
"x.	c #332C2D",
"y.	c #5C5456",
"z.	c #CFCDCD",
"A.	c #574F51",
"B.	c #51494C",
"C.	c #524A4C",
"D.	c #51494B",
"E.	c #4A4244",
"F.	c #C1BEBF",
"G.	c #6A6365",
"H.	c #50484A",
"I.	c #4E4648",
"J.	c #7C7678",
"K.	c #150F10",
"L.	c #969395",
"M.	c #959393",
"N.	c #241D1E",
"O.	c #5A5355",
"P.	c #868283",
"Q.	c #666162",
"R.	c #4F484A",
"S.	c #474042",
"T.	c #C8C7C7",
"U.	c #4D4648",
"V.	c #4F4849",
"W.	c #898586",
"X.	c #4A4345",
"Y.	c #1A1516",
"Z.	c #DEDDDE",
"`.	c #EFEFEF",
" +	c #332D2F",
".+	c #979394",
"++	c #736C6E",
"@+	c #544C4E",
"#+	c #4C4446",
"$+	c #4D4446",
"%+	c #443C3E",
"&+	c #C8C5C6",
"*+	c #716A6C",
"=+	c #635C5E",
"-+	c #A49FA1",
";+	c #4F494A",
">+	c #6E6A6B",
",+	c #FCFCFC",
"'+	c #FFFEFF",
")+	c #999698",
"!+	c #21191B",
"~+	c #615A5C",
"{+	c #BEBABB",
"]+	c #A7A3A4",
"^+	c #4C4546",
"/+	c #4A4344",
"(+	c #C7C4C5",
"_+	c #655E60",
":+	c #484142",
"<+	c #746E6F",
"[+	c #D1CECF",
"}+	c #797475",
"|+	c #221C1E",
"1+	c #FFFEFE",
"2+	c #FBFDFE",
"3+	c #FCFEFF",
"4+	c #393133",
"5+	c #70696B",
"6+	c #4B4446",
"7+	c #6B6466",
"8+	c #473F41",
"9+	c #484042",
"0+	c #403739",
"a+	c #C7C4C4",
"b+	c #645C5E",
"c+	c #463E40",
"d+	c #423A3C",
"e+	c #B0ADAE",
"f+	c #1F1719",
"g+	c #8B8A8B",
"h+	c #FCFEFE",
"i+	c #F7FAFC",
"j+	c #FBFDFF",
"k+	c #B6B6B9",
"l+	c #0D0607",
"m+	c #453D3F",
"n+	c #7D7778",
"o+	c #6D6769",
"p+	c #3C3436",
"q+	c #3C3335",
"r+	c #C5C3C3",
"s+	c #60595B",
"t+	c #3D3537",
"u+	c #888484",
"v+	c #6B6566",
"w+	c #3B3336",
"x+	c #231D1F",
"y+	c #FEFFFF",
"z+	c #F7F9FC",
"A+	c #F5F7FA",
"B+	c #F2F5F8",
"C+	c #F9FCFF",
"D+	c #585556",
"E+	c #281F21",
"F+	c #7F7A7B",
"G+	c #B7B3B4",
"H+	c #433B3D",
"I+	c #3A3234",
"J+	c #C5C2C3",
"K+	c #40383A",
"L+	c #6C6567",
"M+	c #4B4345",
"N+	c #0B0305",
"O+	c #C4C4C7",
"P+	c #F4F6F9",
"Q+	c #EFF2F5",
"R+	c #E7E9EC",
"S+	c #ECEEF2",
"T+	c #4A4446",
"U+	c #40393B",
"V+	c #3F383A",
"W+	c #362F31",
"X+	c #C3C2C2",
"Y+	c #5B5557",
"Z+	c #3C3437",
"`+	c #4C4547",
" @	c #1D1517",
".@	c #7D7B7D",
"+@	c #EFF2F6",
"@@	c #ECEDF1",
"#@	c #E3E4E8",
"$@	c #E5E7EA",
"%@	c #C8C9CC",
"&@	c #1E181A",
"*@	c #443D3F",
"=@	c #777273",
"-@	c #595254",
";@	c #3C3537",
">@	c #332B2E",
",@	c #C3C1C1",
"'@	c #595153",
")@	c #322B2D",
"!@	c #807C7D",
"~@	c #2A2224",
"{@	c #484446",
"]@	c #EDEFF2",
"^@	c #E6E7EA",
"/@	c #DEE0E3",
"(@	c #DCDFE2",
"_@	c #AEAEB2",
":@	c #171113",
"<@	c #B7B4B4",
"[@	c #494243",
"}@	c #3B3335",
"|@	c #3A3335",
"1@	c #2E2628",
"2@	c #C0BEBF",
"3@	c #A4A0A2",
"4@	c #382F31",
"5@	c #807B7C",
"6@	c #322A2C",
"7@	c #262023",
"8@	c #E6E8EC",
"9@	c #DBDCE0",
"0@	c #D8D9DD",
"a@	c #D6D8DB",
"b@	c #9E9EA1",
"c@	c #171012",
"d@	c #2C2527",
"e@	c #383032",
"f@	c #472D2F",
"g@	c #632729",
"h@	c #642829",
"i@	c #56292A",
"j@	c #73686B",
"k@	c #E3E1E1",
"l@	c #C6C2C3",
"m@	c #988A8B",
"n@	c #452E30",
"o@	c #442E2F",
"p@	c #452D2F",
"q@	c #3D2F31",
"r@	c #443C3F",
"s@	c #2F272A",
"t@	c #120B0D",
"u@	c #D7D9DB",
"v@	c #D5D7D9",
"w@	c #D0D2D4",
"x@	c #D0D2D5",
"y@	c #959496",
"z@	c #817C7E",
"A@	c #797476",
"B@	c #837F80",
"C@	c #534D4E",
"D@	c #2B2425",
"E@	c #372F31",
"F@	c #362E30",
"G@	c #352D2F",
"H@	c #302E30",
"I@	c #A11517",
"J@	c #FF0000",
"K@	c #F70506",
"L@	c #CD9C9D",
"M@	c #EBE5E6",
"N@	c #9B3C3D",
"O@	c #A61415",
"P@	c #A71516",
"Q@	c #AC1415",
"R@	c #622526",
"S@	c #342F31",
"T@	c #848081",
"U@	c #7E797B",
"V@	c #4F4A4B",
"W@	c #1D1819",
"X@	c #CDCED1",
"Y@	c #CFD0D3",
"Z@	c #C9CACD",
"`@	c #CBCCCF",
" #	c #969598",
".#	c #130C0E",
"+#	c #181113",
"@#	c #110A0C",
"##	c #0D0608",
"$#	c #292124",
"%#	c #342C2E",
"&#	c #332B2D",
"*#	c #3C292B",
"=#	c #482628",
"-#	c #472728",
";#	c #47292B",
">#	c #A49B9C",
",#	c #C6C1C2",
"'#	c #989293",
")#	c #413031",
"!#	c #3F282A",
"~#	c #3F292A",
"{#	c #40292B",
"]#	c #422A2C",
"^#	c #332527",
"/#	c #1D1518",
"(#	c #10090B",
"_#	c #161012",
":#	c #211B1D",
"<#	c #CCCDD0",
"[#	c #C9CBCE",
"}#	c #C3C4C7",
"|#	c #C4C5C8",
"1#	c #9D9D9F",
"2#	c #1A1315",
"3#	c #A09E9E",
"4#	c #1C1618",
"5#	c #0C0507",
"6#	c #0B0406",
"7#	c #0A0305",
"8#	c #0D0708",
"9#	c #191315",
"0#	c #261D20",
"a#	c #2C2426",
"b#	c #2E2528",
"c#	c #2F2629",
"d#	c #31282B",
"e#	c #928D8E",
"f#	c #8A8485",
"g#	c #494143",
"h#	c #31282A",
"i#	c #30272A",
"j#	c #302729",
"k#	c #2D2427",
"l#	c #292022",
"m#	c #1E1619",
"n#	c #11090C",
"o#	c #070002",
"p#	c #605D5D",
"q#	c #747172",
"r#	c #0F080A",
"s#	c #262122",
"t#	c #CECFD2",
"u#	c #BCBCBF",
"v#	c #BDBDC0",
"w#	c #AAA9AB",
"x#	c #1A1416",
"y#	c #474243",
"z#	c #363032",
"A#	c #1F181A",
"B#	c #A9A5A6",
"C#	c #817D7E",
"D#	c #120A0B",
"E#	c #7F7B7C",
"F#	c #30292A",
"G#	c #1C1516",
"H#	c #1D1617",
"I#	c #1B1415",
"J#	c #191213",
"K#	c #120B0C",
"L#	c #5B5658",
"M#	c #080103",
"N#	c #433E40",
"O#	c #C5C6C8",
"P#	c #BDBCBF",
"Q#	c #BBBBBE",
"R#	c #0F0709",
"S#	c #A6A2A3",
"T#	c #5C5758",
"U#	c #150E10",
"V#	c #686568",
"W#	c #B0B0B3",
"X#	c #B7B8BB",
"Y#	c #160E10",
"Z#	c #322C2E",
"`#	c #9B999A",
" $	c #020000",
".$	c #8D898A",
"+$	c #1A1415",
"@$	c #10080A",
"#$	c #979699",
"$$	c #B2B2B5",
"%$	c #A9A9AC",
"&$	c #ACACAF",
"*$	c #868487",
"=$	c #191012",
"-$	c #1B1416",
";$	c #504B4D",
">$	c #443F40",
",$	c #0E0709",
"'$	c #060001",
")$	c #5D595A",
"!$	c #1A1113",
"~$	c #292324",
"{$	c #B0B1B3",
"]$	c #AAA9AC",
"^$	c #A3A2A5",
"/$	c #A7A6A9",
"($	c #3B3537",
"_$	c #1E1416",
":$	c #403B3C",
"<$	c #383335",
"[$	c #090204",
"}$	c #040000",
"|$	c #938F91",
"1$	c #2F292A",
"2$	c #2F292B",
"3$	c #241B1C",
"4$	c #716E70",
"5$	c #A5A5A8",
"6$	c #9E9C9F",
"7$	c #9F9DA0",
"8$	c #7C797B",
"9$	c #332A2B",
"0$	c #292123",
"a$	c #8E8A8C",
"b$	c #9F9C9D",
"c$	c #383234",
"d$	c #BDBCBB",
"e$	c #514D4E",
"f$	c #2D2426",
"g$	c #979598",
"h$	c #979698",
"i$	c #959395",
"j$	c #979192",
"k$	c #3E383A",
"l$	c #403A3C",
"m$	c #221B1C",
"n$	c #8B8586",
"o$	c #554D4F",
"p$	c #706D6F",
"q$	c #908F91",
"r$	c #908E91",
"s$	c #918F92",
"t$	c #898789",
"u$	c #3F3638",
"v$	c #392F31",
"w$	c #140D0F",
"x$	c #1D1718",
"y$	c #2D2728",
"z$	c #6B6365",
"A$	c #2C2123",
"B$	c #605A5C",
"C$	c #8F8D90",
"D$	c #8A898B",
"E$	c #939295",
"F$	c #8B8889",
"G$	c #332A2C",
"H$	c #302527",
"I$	c #B7B3B3",
"J$	c #342E30",
"K$	c #100A0C",
"L$	c #8C8989",
"M$	c #766F71",
"N$	c #291F21",
"O$	c #918F90",
"P$	c #858386",
"Q$	c #8B8788",
"R$	c #372D2F",
"S$	c #382E30",
"T$	c #665E5F",
"U$	c #5B5556",
"V$	c #2A2426",
"W$	c #241E20",
"X$	c #3D3335",
"Y$	c #4D4647",
"Z$	c #8F8D8F",
"`$	c #838184",
" %	c #838284",
".%	c #848285",
"+%	c #7F7D7F",
"@%	c #89888A",
"#%	c #9C9A9C",
"$%	c #ABA8AB",
"%%	c #8F8B8C",
"&%	c #3F3537",
"*%	c #7F797B",
"=%	c #726B6D",
"-%	c #838081",
";%	c #090305",
">%	c #8F8A8C",
",%	c #372E30",
"'%	c #BEBBBC",
")%	c #40373A",
"!%	c #9B9799",
"~%	c #7F7D80",
"{%	c #7D7B7E",
"]%	c #7A777A",
"^%	c #949395",
"/%	c #A8A6A8",
"(%	c #C1C0C1",
"_%	c #A39FA0",
":%	c #3B3235",
"<%	c #362C2E",
"[%	c #BDB9BB",
"}%	c #5D5557",
"|%	c #41393B",
"1%	c #241C1E",
"2%	c #181012",
"3%	c #0E0608",
"4%	c #1C1416",
"5%	c #2D2527",
"6%	c #473E41",
"7%	c #574F50",
"8%	c #504749",
"9%	c #B7B5B6",
"0%	c #787679",
"a%	c #787578",
"b%	c #737173",
"c%	c #9A9799",
"d%	c #B6B5B6",
"e%	c #CCCACC",
"f%	c #C6C3C4",
"g%	c #9A9596",
"h%	c #665E60",
"i%	c #777072",
"j%	c #726B6C",
"k%	c #5F5759",
"l%	c #675F61",
"m%	c #3D3436",
"n%	c #CBC8C9",
"o%	c #41383B",
"p%	c #4B4245",
"q%	c #5B5355",
"r%	c #776F71",
"s%	c #584F52",
"t%	c #B2ADAE",
"u%	c #534B4D",
"v%	c #A6A1A3",
"w%	c #33292C",
"x%	c #898486",
"y%	c #A7A4A6",
"z%	c #706E70",
"A%	c #716F71",
"B%	c #726F72",
"C%	c #6C6A6C",
"D%	c #656365",
"E%	c #9D9B9D",
"F%	c #C4C2C4",
"G%	c #D2D0D2",
"H%	c #E4E2E3",
"I%	c #C1BFBF",
"J%	c #40383B",
"K%	c #3F3639",
"L%	c #443B3D",
"M%	c #787173",
"N%	c #A39D9F",
"O%	c #6E6769",
"P%	c #443B3E",
"Q%	c #908A8C",
"R%	c #5A5254",
"S%	c #B9B5B6",
"T%	c #50474A",
"U%	c #31272A",
"V%	c #777274",
"W%	c #827F81",
"X%	c #6C696B",
"Y%	c #6B686A",
"Z%	c #4F4D4F",
"`%	c #4D4B4C",
" &	c #CDCBCD",
".&	c #DFDDDF",
"+&	c #F1EFF0",
"@&	c #9F9B9C",
"#&	c #4D4548",
"$&	c #4D4346",
"%&	c #473D3F",
"&&	c #42383B",
"*&	c #584F51",
"=&	c #4E4446",
"-&	c #C8C4C5",
";&	c #44393B",
">&	c #61595B",
",&	c #493F41",
"'&	c #443A3D",
")&	c #4B4143",
"!&	c #B8B7B7",
"~&	c #A7A6A8",
"{&	c #5D5A5C",
"]&	c #646163",
"^&	c #656264",
"/&	c #615E60",
"(&	c #3B393B",
"_&	c #2F2D2E",
":&	c #747173",
"<&	c #B9B6B8",
"[&	c #F3F2F3",
"}&	c #F4F3F3",
"|&	c #BFBDBE",
"1&	c #9F9C9C",
"2&	c #8F8A8B",
"3&	c #7D7879",
"4&	c #696364",
"5&	c #9E9A9B",
"6&	c #756F70",
"7&	c #878283",
"8&	c #918D8E",
"9&	c #9D9A9B",
"0&	c #9D9B9C",
"a&	c #676465",
"b&	c #5A5658",
"c&	c #605C5E",
"d&	c #4E4B4D",
"e&	c #222120",
"f&	c #0E0D0E",
"g&	c #403E3F",
"h&	c #777376",
"i&	c #D0CDCF",
"j&	c #F7F6F7",
"k&	c #E1DFE0",
"l&	c #CFCDCE",
"m&	c #C1BFC0",
"n&	c #B0ADAF",
"o&	c #A4A1A3",
"p&	c #A3A0A2",
"q&	c #949192",
"r&	c #8A8789",
"s&	c #817E7F",
"t&	c #6A6669",
"u&	c #696669",
"v&	c #635F62",
"w&	c #5A5659",
"x&	c #575356",
"y&	c #585457",
"z&	c #535052",
"A&	c #292728",
"B&	c #353234",
"C&	c #615D5F",
"D&	c #989496",
"E&	c #B2B0B2",
"F&	c #A8A5A7",
"G&	c #999699",
"H&	c #888587",
"I&	c #757274",
"J&	c #534F51",
"K&	c #4F4C4F",
"L&	c #524E51",
"M&	c #514D50",
"N&	c #504C4F",
"O&	c #4B4749",
"P&	c #2E2C2E",
"Q&	c #1C1A1B",
"R&	c #4C484A",
"S&	c #575556",
"T&	c #5C575A",
"U&	c #575355",
"V&	c #4F4C4E",
"W&	c #494547",
"X&	c #454244",
"Y&	c #413F41",
"Z&	c #3B3839",
"`&	c #302E2F",
" *	c #1C1A1C",
"                                                                                                ",
"                                    . + + + + . + + . + + .                                     ",
"                              . + + + . + + + + + + + . + + + + +                               ",
"                          + + + + + @ # $ % & * = - ; > , ' + + + +                             ",
"                        + . + + ) ! ~ { ] ^ / ( _ : < [ } | 1 2 + + . .                         ",
"                    + . + + 3 4 5 6 7 8 9 0 a b c d e f g h i j k + + . +                       ",
"                  + . + l m n o p q r s t u v w x y z A B C D E F G H . + . +                   ",
"                . . + I J K L M N O P Q R S E T U V W X Y Z `  ...+.@.#.+ + . .                 ",
"              + . + $.%.&.*.=.-.;.>.,.,.'.,.=.).'.,.'.'.,.,.!.~.{.].^./.(._.+ . +               ",
"            + . + :.<.[.}.|.1.2.3.E 4.4.4.4.4.5.4.4.4.4.4.4.6.7.S 8.W 9.0.a.@ + .               ",
"            . + b.c.d.e.f.{.g.5.h.i.j.j.j.j.k.l.m.n.j.j.j.j.o.f p.q.r.s.t.u.v.+ . +             ",
"          . + + w.x.y.z.S A.B.C.D.C.C.C.C.C.E.F.G.H.C.C.C.C.C.D.C.C.I...J.E.K.L.+ . +           ",
"        + . + M.N.O.P.Q.D.R.R.R.R.R.R.R.R.R.S.T.X U.R.R.R.R.R.R.R.R.R.V.6.W.X.Y.Z.+ .           ",
"        + . `. +.+G.++@+#+$+$+$+$+$+$+$+$+$+%+&+l.E.$+$+$+$+$+$+$+$+$+E.*+=+-+;+>+,+. +         ",
"        '++ )+!+~+{+]+^+/+/+/+/+/+/+/+/+/+/+&.(+_+[./+/+/+/+/+/+/+/+/+:+<+[+}+:+|+b.1+'+        ",
"      2+3++ %.4+5+6+v 7+8+9+9+9+9+9+9+9+9+9+0+a+b+c+9+9+9+9+9+9+9+9+9+d+e+#+}.W f+g++ h+        ",
"      i+j+k+l+m+n+o+p+d+%+%+%+%+%+%+%+%+%+%+q+r+s+d+%+%+%+%+%+%+%+%+%+m+t+%+u+v+w+x+y+z+A+      ",
"      B+C+D+E+F+G+p+H+H+H+H+H+H+H+H+H+H+H+H+I+J+9.K+H+H+H+H+H+H+H+H+H+H+H+0+L+]+M+N+O+P+Q+      ",
"    R+S+S+|+d.T+U+V+V+V+V+V+V+V+V+V+V+V+V+V+W+X+Y++.V+V+V+V+V+V+V+V+V+V+V+V+Z+`+R. @.@+@@@      ",
"    #@$@%@&@*@=@-@d.;@;@;@;@;@;@;@;@;@;@;@;@>@,@'@)@d.;@;@;@;@;@;@;@;@;@;@;@4+!@,.~@{@]@^@      ",
"    /@(@_@:@_ <@[@}@}@}@}@}@}@}@}@}@}@|@|@|@1@2@4.3@U.}@}@}@}@}@}@}@}@}@}@}@4@5@f.6@7@8@/@9@    ",
"    0@a@b@c@c@d@d+t+e@e@e@e@e@e@e@e@f@g@h@i@j@k@l@m@n@o@o@o@o@o@o@o@p@q@e@4+d+r@s@t@%.u@0@v@    ",
"    w@x@y@<.z@A@B@C@D@E@F@G@G@G@G@H@I@J@J@K@L@+ M@N@O@P@P@P@P@P@P@P@Q@R@S@}@d T@U@V@W@X@x@Y@    ",
"    Z@`@ #c@c@.#+#@###c@$#%#%#&#&#)@*#=#-#;#>#,#'#)#!#!#!#!#!#!#~#{#]#^#/#(#_#+#.#.#:#<#[#Z@    ",
"    }#|#1#:@2#3#4#5#5#6#7#8#9#0#a#b#c#b#d#e#f#..g#b#h#i#j#c#b#k#l#m#n#7#6#6#o#p#q#r#s#t#}#}#    ",
"    u#v#w#x###y#z#7#5#5#6#6#7#7#6#(#.#A#B#C#D#E#F#G#H#I#J#K.K###7#7#6#6#5#5#o#L#i M#N#O#P#      ",
"    k+k+Q#[ R#5 ##5#5#5#5#5#5#6#6#5###S#T#7#6#(#5#6#6#6#6#6#6#6#6#5#5#5#5#5#o#U#U#6#V#u#k+      ",
"      W#X#J Y#Z#`# $5#5#5#5#5#5#6#o#.$E#7#5#5#5#5#5#5#5#5#5#5#5#5#5#5#5#5#o#w.3#+$@$#$$$W#      ",
"      %$&$*$=$-$;$>$ $M#5#5#5#5#6#,$=@'$6#5#5#5#5#5#5#5#5#5#5#5#5#5#5#5# $##)$A#!$~${$]$]$      ",
"      ^$^$/$($_$:$(#;$<$7#5#5#5#5#6#[$6#5#5#5#5#5#5#5#5#5#5#5#5#5#5#5#}$|$+#1$2$3$4$5$^$        ",
"        6$7$8$9$0$a$b$.#5#5#5#5#5#5#5#5#5#5#5#5#5#5#5#5#5#5#5#5#5#5#5#7#c$d$e$f$U+g$6$6$        ",
"        h$h$i$7 j$E k$+#6#5#5#5#5#5#5#5#5#5#5#5#5#5#5#5#5#5#5#5#5#5#5#o#l$m$n$o$p$h$h$h$        ",
"        q$r$s$t$u$v$^.w$w$6#5#5#5#5#5#5#5#5#5#5#5#5#5#5#5#5#5#5#5#5#7#x$y$z$A$B$C$q$r$          ",
"          D$D$E$F$G$H$I$J$K$6#6#6#6#5#5#5#5#5#5#5#5#5#5#5#5#6#6#6#5#5#L$M$N$e.O$D$D$D$          ",
"            P$q$7$Q$R$S$T$U$5 5#V$,$5#5#5#5#5#5#5#5#5#5#5#6#U#W$7#u.u X$X$Y$Z$`$ %.%            ",
"            +%@%#%$%%%j#&%*%=%H+-%;%7#6#6#5#5#5#5#5#5#6#6#7#@.>%,%'%&%R$)%!%~%{%{%              ",
"              ]%^%/%(%_%:%)%<%[%}%|%1%2%@$@$##5 3%r#@$@#4%5%6%t 7%8%q+e.9%0%a%a%                ",
"                b%c%d%e%f%!.G.g%h%i%j%k%l%m%,%n%b#o%p%q%r%s%t%u%v%w%x%y%z%A%B%C%                ",
"                  D%E%F%G%H%I%J%K%L%M%l%N%O%=%f%P%Q%R%S% .8%T%U%V%T.W%X%Y%X%Z%                  ",
"                    `%c% &.&+&+ @&#&$&%&&&*&=&-&;&>&,&'&)&#+o.!&~&{&]&^&/&(&                    ",
"                      _&:&<&[&+ + }&|&1&2&3&4&5&6.6&7&v 8&9&0&a&b&c&c&d&e&                      ",
"                        f&g&h&i&j&k&l&m&n&o&p&q&r&s&t&u&v&w&x&y&w&z&A&                          ",
"                              B&C&D&E&F&G&H&I&v&J&K&L&L&L&M&N&O&P&                              ",
"                                  Q&_&R&S&T&U&V&W&{@X&Y&Z&`& *                                  ",
"                                                                                                ",
"                                                                                                ",
"                                                                                                ",
"                                                                                                "};
