/* XPM */
static char * conf_editor_d_xpm[] = {
"48 48 464 2",
"  	c None",
". 	c #626262",
"+ 	c #707070",
"@ 	c #7C7C7C",
"# 	c #868686",
"$ 	c #8D8D8D",
"% 	c #919191",
"& 	c #8E8E8E",
"* 	c #797979",
"= 	c #929292",
"- 	c #848484",
"; 	c #7E7E7E",
"> 	c #7B7B7B",
", 	c #777777",
"' 	c #828282",
") 	c #909090",
"! 	c #BCBCBC",
"~ 	c #DBDBDB",
"{ 	c #C2C2C2",
"] 	c #8F8F8F",
"^ 	c #A9A9A9",
"/ 	c #8A8A8A",
"( 	c #AEB0B0",
"_ 	c #CBCECE",
": 	c #DADFDF",
"< 	c #EAF1F1",
"[ 	c #DADEDE",
"} 	c #CACDCD",
"| 	c #ADAFAE",
"1 	c #858686",
"2 	c #787878",
"3 	c #9B9B9B",
"4 	c #E7E7E7",
"5 	c #C3C3C3",
"6 	c #9A9A9A",
"7 	c #9FA1A1",
"8 	c #E4EAE9",
"9 	c #F3FAF9",
"0 	c #F4FAFA",
"a 	c #F5FAFA",
"b 	c #F6FBFA",
"c 	c #F5FBFA",
"d 	c #F4FAF9",
"e 	c #E4E9E8",
"f 	c #A1A3A3",
"g 	c #9F9F9F",
"h 	c #D4D4D4",
"i 	c #FFFFFF",
"j 	c #ACACAC",
"k 	c #E3E3E3",
"l 	c #909191",
"m 	c #DFE5E4",
"n 	c #F7FBFB",
"o 	c #F8FCFC",
"p 	c #F8FCFB",
"q 	c #F8FBFB",
"r 	c #F6F9F9",
"s 	c #EFEBEA",
"t 	c #E7DADA",
"u 	c #DFCCCB",
"v 	c #CFBBBB",
"w 	c #9C9B9B",
"x 	c #878686",
"y 	c #BFBFBF",
"z 	c #B6B6B6",
"A 	c #DDDDDD",
"B 	c #7A7A7A",
"C 	c #A6A8A8",
"D 	c #F1F8F7",
"E 	c #FAFCFC",
"F 	c #F9F9F8",
"G 	c #F2ECEB",
"H 	c #EDDFDF",
"I 	c #E7D2D2",
"J 	c #E1C7C7",
"K 	c #DBBBBB",
"L 	c #D6B1B0",
"M 	c #D4AFAF",
"N 	c #D3ACAC",
"O 	c #D6B4B4",
"P 	c #F4F2F2",
"Q 	c #B7B8B8",
"R 	c #7F7F7F",
"S 	c #ADADAD",
"T 	c #B7BBBB",
"U 	c #F0F1F0",
"V 	c #EDE6E6",
"W 	c #E9DBDB",
"X 	c #E6D3D3",
"Y 	c #E2CAC9",
"Z 	c #DFC2C2",
"` 	c #DCBCBC",
" .	c #DBBABA",
"..	c #DAB8B8",
"+.	c #D9B6B6",
"@.	c #D9B3B3",
"#.	c #D7B1B1",
"$.	c #D5AFAF",
"%.	c #D5ACAC",
"&.	c #D8B5B5",
"*.	c #F7F5F4",
"=.	c #FBFDFD",
"-.	c #FAFDFD",
";.	c #F9FCFC",
">.	c #C8CACA",
",.	c #A2A2A2",
"'.	c #D2D2D2",
").	c #828181",
"!.	c #A29595",
"~.	c #D8BFBE",
"{.	c #D5B7B7",
"].	c #D7B6B6",
"^.	c #D9B8B7",
"/.	c #DAB9B9",
"(.	c #DCB9B9",
"_.	c #DBB8B8",
":.	c #DAB7B7",
"<.	c #DAB5B5",
"[.	c #D8B2B2",
"}.	c #D6AFAF",
"|.	c #D6ACAC",
"1.	c #F4ECEC",
"2.	c #FDFEFE",
"3.	c #FCFEFE",
"4.	c #F7F8F8",
"5.	c #A7A8A8",
"6.	c #979797",
"7.	c #8D8484",
"8.	c #D2B1B1",
"9.	c #D3B1B0",
"0.	c #D4B2B2",
"a.	c #D8B5B4",
"b.	c #D9B5B5",
"c.	c #DAB6B6",
"d.	c #DAB4B4",
"e.	c #D9B4B4",
"f.	c #D7AFAF",
"g.	c #D6AEAE",
"h.	c #D4AAAA",
"i.	c #EBD6D6",
"j.	c #FEFFFF",
"k.	c #DDC2C2",
"l.	c #F3F9F8",
"m.	c #8C8D8D",
"n.	c #B9B9B9",
"o.	c #D1C4C4",
"p.	c #D1AEAD",
"q.	c #D3AFAF",
"r.	c #D4B1B0",
"s.	c #D5B1B1",
"t.	c #D8B1B1",
"u.	c #D9B1B1",
"v.	c #D8AFAF",
"w.	c #D6AAAA",
"x.	c #D5A9A9",
"y.	c #DFBFBF",
"z.	c #F8F3F3",
"A.	c #D2A8A8",
"B.	c #D0A7A7",
"C.	c #DCE0E0",
"D.	c #727272",
"E.	c #888888",
"F.	c #9C9E9D",
"G.	c #E6E0DF",
"H.	c #D1ACAB",
"I.	c #D3ADAD",
"J.	c #D4AEAD",
"K.	c #D5AEAE",
"L.	c #D7AEAE",
"M.	c #D6ADAD",
"N.	c #D5ABAB",
"O.	c #D4A9A9",
"P.	c #FAF6F6",
"Q.	c #F5EBEB",
"R.	c #B76F6F",
"S.	c #AB5858",
"T.	c #AC5C5C",
"U.	c #898A8A",
"V.	c #737373",
"W.	c #4F4F4F",
"X.	c #E1E7E7",
"Y.	c #EEF0EF",
"Z.	c #D0A8A8",
"`.	c #D2AAAA",
" +	c #D3AAAA",
".+	c #D5AAAA",
"++	c #D6ABAB",
"@+	c #D4A8A8",
"#+	c #CA9494",
"$+	c #C18080",
"%+	c #B86E6E",
"&+	c #AE5B5B",
"*+	c #FDFBFB",
"=+	c #B06161",
"-+	c #9C3737",
";+	c #9B3737",
">+	c #9B3838",
",+	c #747474",
"'+	c #4C4C4C",
")+	c #D1A9A9",
"!+	c #D1A6A6",
"~+	c #D3A8A8",
"{+	c #D3A7A7",
"]+	c #D2A4A4",
"^+	c #C48787",
"/+	c #B36666",
"(+	c #A64B4B",
"_+	c #A64A4A",
":+	c #A74D4D",
"<+	c #A74E4E",
"[+	c #BC7777",
"}+	c #CB9595",
"|+	c #9D3939",
"1+	c #9C3838",
"2+	c #767676",
"3+	c #5E5E5E",
"4+	c #717171",
"5+	c #ABADAD",
"6+	c #DFC6C6",
"7+	c #D0A3A3",
"8+	c #D0A4A4",
"9+	c #D1A3A3",
"0+	c #C48888",
"a+	c #B26363",
"b+	c #A34343",
"c+	c #A24343",
"d+	c #A54949",
"e+	c #AA5252",
"f+	c #AB5555",
"g+	c #AC5757",
"h+	c #EEDDDD",
"i+	c #E6CDCD",
"j+	c #A04040",
"k+	c #9D3A3A",
"l+	c #9D3838",
"m+	c #9C3939",
"n+	c #B16868",
"o+	c #828484",
"p+	c #6C6C6C",
"q+	c #383838",
"r+	c #6A6A6A",
"s+	c #CFD2D2",
"t+	c #F7FCFB",
"u+	c #FAFDFC",
"v+	c #FBFEFD",
"w+	c #F0E4E3",
"x+	c #C58B8B",
"y+	c #9E3A3A",
"z+	c #A14141",
"A+	c #A54848",
"B+	c #A84F4F",
"C+	c #AD5A5A",
"D+	c #AF5D5D",
"E+	c #CE9C9C",
"F+	c #F8F1F1",
"G+	c #A34545",
"H+	c #A03E3E",
"I+	c #A95555",
"J+	c #3F3F3F",
"K+	c #5F5F5F",
"L+	c #E1E5E4",
"M+	c #FCFEFD",
"N+	c #E1C3C3",
"O+	c #9F3D3D",
"P+	c #AA5454",
"Q+	c #B16161",
"R+	c #B76D6D",
"S+	c #C58888",
"T+	c #A95151",
"U+	c #A14242",
"V+	c #9E3B3B",
"W+	c #A34848",
"X+	c #444444",
"Y+	c #505050",
"Z+	c #757575",
"`+	c #E7EFEE",
" @	c #FDFAFA",
".@	c #C07F7F",
"+@	c #A44848",
"@@	c #A85050",
"#@	c #AC5858",
"$@	c #B05F5F",
"%@	c #B46767",
"&@	c #AF5C5C",
"*@	c #A74C4C",
"=@	c #A34444",
"-@	c #9F3C3C",
";@	c #9F3B3B",
">@	c #9F403F",
",@	c #464646",
"'@	c #EEE5E4",
")@	c #FEFEFE",
"!@	c #C99292",
"~@	c #A95252",
"{@	c #AE5A5A",
"]@	c #F7EEEE",
"^@	c #C08080",
"/@	c #A84E4E",
"(@	c #A34646",
"_@	c #9E3C3C",
":@	c #9D3B3B",
"<@	c #AB5757",
"[@	c #E7CECE",
"}@	c #D2A5A5",
"|@	c #D09F9F",
"1@	c #E6CCCC",
"2@	c #B46868",
"3@	c #B06060",
"4@	c #A44646",
"5@	c #9D3C3B",
"6@	c #A14444",
"7@	c #FEFDFD",
"8@	c #DBB6B6",
"9@	c #B16262",
"0@	c #F0E2E2",
"a@	c #FEFCFC",
"b@	c #C18181",
"c@	c #AF5E5E",
"d@	c #AB5656",
"e@	c #B57272",
"f@	c #828585",
"g@	c #A75151",
"h@	c #BE7C7C",
"i@	c #FCF9F9",
"j@	c #EBD8D8",
"k@	c #AA5353",
"l@	c #AC5D5D",
"m@	c #838585",
"n@	c #AD6161",
"o@	c #9F3E3E",
"p@	c #B76C6C",
"q@	c #F8F2F2",
"r@	c #BA7474",
"s@	c #A44747",
"t@	c #A03F3F",
"u@	c #9E3D3D",
"v@	c #9D3C3C",
"w@	c #A54F4E",
"x@	c #494949",
"y@	c #B77978",
"z@	c #9D3D3D",
"A@	c #B05E5E",
"B@	c #F4E9E9",
"C@	c #E8D1D1",
"D@	c #AD5858",
"E@	c #AB5454",
"F@	c #A04444",
"G@	c #3B3B3B",
"H@	c #7D7F7F",
"I@	c #A14040",
"J@	c #F9F3F3",
"K@	c #C88F8F",
"L@	c #A95050",
"M@	c #9C3D3D",
"N@	c #9C3E3D",
"O@	c #7E7D7D",
"P@	c #515151",
"Q@	c #9D3E3D",
"R@	c #9F3E3D",
"S@	c #B97272",
"T@	c #FEFBFB",
"U@	c #FBF6F6",
"V@	c #A54A4A",
"W@	c #933F3F",
"X@	c #757373",
"Y@	c #686868",
"Z@	c #777878",
"`@	c #9F4545",
" #	c #9E3E3E",
".#	c #DCB8B8",
"+#	c #A24242",
"@#	c #A24141",
"##	c #9D3E3E",
"$#	c #9C3E3E",
"%#	c #7A5555",
"&#	c #696565",
"*#	c #484848",
"=#	c #808282",
"-#	c #A45150",
";#	c #D1A1A1",
">#	c #BA7272",
",#	c #A04141",
"'#	c #9F3F3F",
")#	c #9E3F3F",
"!#	c #814D4D",
"~#	c #736A6A",
"{#	c #A8605F",
"]#	c #9D3F3F",
"^#	c #9E3F3E",
"/#	c #9F3F3E",
"(#	c #A85151",
"_#	c #AD5F5F",
":#	c #B57574",
"<#	c #8E8888",
"[#	c #535353",
"}#	c #565656",
"|#	c #806565",
"1#	c #9B4040",
"2#	c #9C3F3F",
"3#	c #9D3F3E",
"4#	c #9F4040",
"5#	c #A44949",
"6#	c #B26565",
"7#	c #BD7E7E",
"8#	c #999999",
"9#	c #616161",
"0#	c #727171",
"a#	c #7A5A59",
"b#	c #944343",
"c#	c #A14C4C",
"d#	c #A75959",
"e#	c #B16B6B",
"f#	c #ABABAB",
"g#	c #AFAFAF",
"h#	c #5B5B5B",
"i#	c #BABABA",
"j#	c #7E8080",
"k#	c #B8B8B8",
"l#	c #CDCDCD",
"m#	c #A7A7A7",
"n#	c #4D4D4D",
"o#	c #636363",
"p#	c #424242",
"q#	c #6D6D6D",
"r#	c #7D7D7D",
"s#	c #989A9A",
"t#	c #BDC0C0",
"u#	c #BDBEBE",
"v#	c #CECECE",
"w#	c #E2E2E2",
"x#	c #C0C0C0",
"y#	c #343434",
"z#	c #333333",
"A#	c #454545",
"B#	c #575757",
"C#	c #4B4B4B",
"D#	c #9E9E9E",
"E#	c #B4B4B4",
"F#	c #C4C4C4",
"G#	c #D5D5D5",
"H#	c #DEDEDE",
"I#	c #DCDCDC",
"J#	c #D9D9D9",
"K#	c #C9C9C9",
"L#	c #898989",
"M#	c #323232",
"N#	c #5A5A5A",
"O#	c #5D5D5D",
"P#	c #606060",
"Q#	c #373737",
"R#	c #4E4E4E",
"S#	c #353535",
"T#	c #393939",
"U#	c #646464",
"V#	c #3C3C3C",
"W#	c #363636",
"X#	c #474747",
"Y#	c #434343",
"Z#	c #313131",
"`#	c #3E3E3E",
" $	c #2E2E2E",
".$	c #3D3D3D",
"+$	c #2C2C2C",
"@$	c #2F2F2F",
"                              . + @ # $ % % &                                                   ",
"                        * & = - ; > , , @ ' ) ! ~ {                                             ",
"                    ] ^ / , # ( _ : < < [ } | 1 2 3 4 5                                         ",
"                  { 6 2 7 8 9 0 a b b b b c a d e f * g h   i i                                 ",
"              j k - l m d a b n o o o o p q r s t u v w x 5 y                                   ",
"            z A B C D 0 b p o E F G H I J K L M N O P n Q R S )                                 ",
"            A B T 9 U V W X Y Z `  ...+.@.#.$.%.&.*.=.-.;.>.; ,.                                ",
"          '.).!.~.{.].^.../.(._._.:.<.[.#.}.|.%.1.2.3.=.-.4.5.@ &                               ",
"        S 6.7.8.9.0.O a.b.+.c.d.d.e.[.f.g.%.h.i.j.j.2.3.*.k.l.m.R +                             ",
"        n., o.p.q.r.s.#.[.t.u.t.u.v.f.|.w.x.y.i i j.j.z.A.B.n C.2 D.                            ",
"      6 E.F.G.H.I.J.K.L.f.L.L.L.M.|.|.N.O.L.P.i i i Q.R.S.T.    U.V.W.                          ",
"      g , X.Y.Z.`. +h.N..+++N..+@+#+$+%+&+y.i i i *+=+-+;+>+      ,+'+                          ",
"      $ - 9 0 )+!+!+~+{+{+]+^+/+(+_+:+<+[+i i i i }+|+1+1+1+      2+3+                          ",
"    4+> 5+n ;.6+7+8+9+0+a+b+c+d+<+e+f+g+h+i i i i+j+k+k+l+m+n+    o+p+q+                        ",
"    r+, s+t+u+v+w+x+c+y+y+z+A+B+f+C+D+E+i i i F+D+G+H+k+|+|+I+      4+J+                        ",
"    K+2+L+p -.M+2.j.N+D+O+G+:+P+&+Q+R+F+i i i S+T+d+U+V+V+k+W+      V.X+                        ",
"    Y+Z+`+a E M+2.j.i  @.@+@@@#@$@%@L.i i i i+&@f+*@=@-@;@y+>@      Z+,@                        ",
"    ,@Z+      '@P.j.i i )@!@~@{@a+R+]@i i )@^@$@g+/@(@O+_@y+:@      Z+,@                        ",
"    X+V.        <@[@i i i i }@&+a+|@i i i 1@2@3@g+B+4@H+_@V+5@      V.X+                        ",
"    J+4+        6@_@#+7@i i i 8@9@0@i i a@b@/+c@d@<+G+H+O+_@V+e@    4+J+                        ",
"    q+p+f@      g@_@_@h@i@i i i j@i i i N+%@Q+{@k@(+c+H+O+_@:@l@  m@p+q+                        ",
"      3+2+      n@_@_@o@p@q@i i i i i 7@r@3@&+f+B+s@j+t@O+u@v@w@  2+3+                          ",
"      x@,+      y@z@u@O+t@A@B@i i i i C@&+D@E@B+d+c+j+H+O+-@v@F@  ,+x@                          ",
"      G@p+H@      z@u@O+t@I@$@J@i i i K@e+L@:+d+c+I@t@o@u@u@M@N@O@p+G@                          ",
"        P@,+      Q@z@R@o@t@I@S@T@i U@T+V@A+G+U+z+j+H+o@u@z@M@W@X@P@                            ",
"        G@Y@Z@    `@z@ #o@t@t@j+0+i .#+#+#U+@#z+j+t@H+o@##z@$#%#&#G@                            ",
"          *#D.=#  -#$# # #o@t@j+j+;#>#z+z+,#j+j+'#'#)# #Q@$#!#~#*#                              ",
"            P@,+  {#]#]# #^#'#/#t@j+j+j+j+j+t@'#(@(#_#:#  <#B [#                                ",
"              }#,+|#1#2#]#3#)#^#'#4#5#P+6#7#            6.8#9#)                                 ",
"                P@0#a#b#c#d#e#                        f#g#h#h#i#D.'+                            ",
"                  *#Y@,+j#                        k#l#m#n#o#% X+p#q#[#                          ",
"                    G@P@p+r#E.s#          t#u#v#w#x#. G@    p#y#z#A#4+B#                        ",
"                        G@C#V.D#E#F#G#H#I#J#K#L#n#G@        M#z#z#z#x@, N#                      ",
"                              q+J+X+,@,@X+J+q+                M#z#z#z#C#> O#                    ",
"                                                                z#y#z#z#n#r#P#                  ",
"                                                                  y#Q#z#z#R#R o#                ",
"                                                                    S#T#z#z#R#; U#              ",
"                                                                      S#V#z#z#R#; U#            ",
"                                                                        S#J+z#z#n#@ o#          ",
"                                                                          S#p#z#z#'+B .         ",
"                                                                            S#A#y#z#x@2+K+      ",
"                                                                              W#X#S#z#,@D.O#    ",
"                                                                                W#x@S#z#Y#p+R#  ",
"                                                                                Z#S#C#W#z#`#T#  ",
"                                                                                   $y#.$Z#z#    ",
"                                                                                    +$ $@$      ",
"                                                                                                ",
"                                                                                                "};
