/* XPM */
static char * conf_editor_g_xpm[] = {
"48 48 935 2",
"  	c None",
". 	c #000000",
"+ 	c #070000",
"@ 	c #8E5649",
"# 	c #DE684D",
"$ 	c #DC664A",
"% 	c #DB5B3F",
"& 	c #D75A3F",
"* 	c #D6593E",
"= 	c #DE5D3F",
"- 	c #E05D3E",
"; 	c #E96041",
"> 	c #E76042",
", 	c #E35333",
"' 	c #D33A18",
") 	c #A52C12",
"! 	c #2A0D06",
"~ 	c #3C1D15",
"{ 	c #DD7B66",
"] 	c #E34B28",
"^ 	c #D53C19",
"/ 	c #CC3A18",
"( 	c #C83A17",
"_ 	c #C73918",
": 	c #C93919",
"< 	c #CA3B19",
"[ 	c #CD3918",
"} 	c #D03A18",
"| 	c #D43C19",
"1 	c #D53D1B",
"2 	c #DD4422",
"3 	c #E94C28",
"4 	c #C84123",
"5 	c #742413",
"6 	c #100502",
"7 	c #88857D",
"8 	c #F2F1EF",
"9 	c #BAB5AB",
"0 	c #030000",
"a 	c #CB715E",
"b 	c #E43F1B",
"c 	c #D53C18",
"d 	c #CB3918",
"e 	c #C63818",
"f 	c #C73718",
"g 	c #C9391A",
"h 	c #CB391A",
"i 	c #CF3B1A",
"j 	c #D03B1A",
"k 	c #D23C1A",
"l 	c #D43B1A",
"m 	c #D83B19",
"n 	c #DC411E",
"o 	c #E04725",
"p 	c #E9522F",
"q 	c #F25736",
"r 	c #E95431",
"s 	c #692112",
"t 	c #1A0804",
"u 	c #DDDBD6",
"v 	c #CCC8C1",
"w 	c #C9C6BE",
"x 	c #010000",
"y 	c #EF6143",
"z 	c #DF5333",
"A 	c #DB7761",
"B 	c #82240F",
"C 	c #CB3A19",
"D 	c #C93918",
"E 	c #AF351A",
"F 	c #BD3F23",
"G 	c #BB3D23",
"H 	c #BE3E22",
"I 	c #D14223",
"J 	c #E3502F",
"K 	c #E4421F",
"L 	c #E94420",
"M 	c #ED4D28",
"N 	c #F25633",
"O 	c #F55E3D",
"P 	c #F9613E",
"Q 	c #FA5A39",
"R 	c #6C2313",
"S 	c #140804",
"T 	c #F1F0EF",
"U 	c #E5E3E0",
"V 	c #E95F41",
"W 	c #E89A88",
"X 	c #652718",
"Y 	c #C33717",
"Z 	c #CD3919",
"` 	c #D03B19",
" .	c #BE3618",
"..	c #C9381A",
"+.	c #D13C1A",
"@.	c #D73C1B",
"#.	c #DD3F1C",
"$.	c #E3411D",
"%.	c #ED5938",
"&.	c #EE431D",
"*.	c #F34923",
"=.	c #F7522E",
"-.	c #F95B38",
";.	c #FB6241",
">.	c #FA623F",
",.	c #DC4F30",
"'.	c #40150B",
").	c #F2F2F0",
"!.	c #F6F5F5",
"~.	c #2E2E2E",
"{.	c #020000",
"].	c #E35F41",
"^.	c #E3917E",
"/.	c #E3A091",
"(.	c #822B19",
"_.	c #CB3A18",
":.	c #CA391A",
"<.	c #B83417",
"[.	c #CD3A1B",
"}.	c #D23C1B",
"|.	c #DC3F1D",
"1.	c #E3421E",
"2.	c #EB5333",
"3.	c #F2502C",
"4.	c #F74B24",
"5.	c #F94F2A",
"6.	c #F95531",
"7.	c #FA5E3B",
"8.	c #F96241",
"9.	c #F8603D",
"0.	c #581F12",
"a.	c #7A6259",
"b.	c #EEECEA",
"c.	c #F0EFED",
"d.	c #C1C0BF",
"e.	c #C6C4BF",
"f.	c #E15F41",
"g.	c #CC3A19",
"h.	c #DD8B7A",
"i.	c #5E1A0B",
"j.	c #C83817",
"k.	c #C8381A",
"l.	c #C5391A",
"m.	c #B63417",
"n.	c #C93A19",
"o.	c #D03C1B",
"p.	c #D83E1C",
"q.	c #E5431E",
"r.	c #EB431F",
"s.	c #F25B3A",
"t.	c #F64C25",
"u.	c #F74B26",
"v.	c #F8512C",
"w.	c #F95935",
"x.	c #F8603E",
"y.	c #F76341",
"z.	c #0B0B0B",
"A.	c #F4F3F1",
"B.	c #F3F1F0",
"C.	c #EAE9E5",
"D.	c #94918C",
"E.	c #DE5E40",
"F.	c #DB8977",
"G.	c #681D0C",
"H.	c #BD3416",
"I.	c #BE3718",
"J.	c #C2371A",
"K.	c #B13216",
"L.	c #D03B1B",
"M.	c #D93F1D",
"N.	c #E2411E",
"O.	c #EC4420",
"P.	c #F0532F",
"Q.	c #F65B37",
"R.	c #F64C26",
"S.	c #F8502A",
"T.	c #F85531",
"U.	c #F75B39",
"V.	c #070707",
"W.	c #F2F2F1",
"X.	c #B9B6B1",
"Y.	c #A9A7A3",
"Z.	c #A3A09A",
"`.	c #A8A59F",
" +	c #A09D95",
".+	c #7D7A75",
"++	c #DA5C40",
"@+	c #C93E20",
"#+	c #C07262",
"$+	c #721F0D",
"%+	c #A22D13",
"&+	c #B33316",
"*+	c #BB3516",
"=+	c #D13B1A",
"-+	c #D93F1C",
";+	c #E3431E",
">+	c #EC451F",
",+	c #EF4822",
"'+	c #F75F3D",
")+	c #F54C26",
"!+	c #F74F29",
"~+	c #F6522B",
"{+	c #050505",
"]+	c #F3F2F1",
"^+	c #E1DFDC",
"/+	c #9C9B9B",
"(+	c #898885",
"_+	c #0F0402",
":+	c #D95B3F",
"<+	c #D06249",
"[+	c #9E4F3E",
"}+	c #912810",
"|+	c #A02B12",
"1+	c #B03015",
"2+	c #B43215",
"3+	c #BF3517",
"4+	c #B63415",
"5+	c #CE3818",
"6+	c #DF401B",
"7+	c #E7431F",
"8+	c #ED4520",
"9+	c #F2512C",
"0+	c #F65E3C",
"a+	c #F74E27",
"b+	c #DAD7D2",
"c+	c #A6A6A5",
"d+	c #898888",
"e+	c #C24326",
"f+	c #100806",
"g+	c #D9826E",
"h+	c #903926",
"i+	c #9E2B11",
"j+	c #A22C11",
"k+	c #A92E13",
"l+	c #B03013",
"m+	c #BA3416",
"n+	c #B53314",
"o+	c #CE3A19",
"p+	c #D73C19",
"q+	c #DE3F1B",
"r+	c #E6411D",
"s+	c #EE4520",
"t+	c #F14924",
"u+	c #F4603F",
"v+	c #4C4C4C",
"w+	c #F3F2F2",
"x+	c #BDBBBA",
"y+	c #808080",
"z+	c #F26444",
"A+	c #F05B39",
"B+	c #A53921",
"C+	c #120906",
"D+	c #D8593E",
"E+	c #D87D69",
"F+	c #863B2B",
"G+	c #B13317",
"H+	c #AF3014",
"I+	c #A32D14",
"J+	c #B03214",
"K+	c #B53014",
"L+	c #B03012",
"M+	c #D53B1A",
"N+	c #DD3E1B",
"O+	c #E23F1C",
"P+	c #EB4520",
"Q+	c #F04721",
"R+	c #D8D6D0",
"S+	c #B9B9B7",
"T+	c #7F7F7F",
"U+	c #F05F3E",
"V+	c #F06646",
"W+	c #F06342",
"X+	c #EF5836",
"Y+	c #812E1B",
"Z+	c #0E0A0A",
"`+	c #D6593D",
" @	c #D57B68",
".@	c #802B19",
"+@	c #B23114",
"@@	c #B33214",
"#@	c #A82E15",
"$@	c #B73215",
"%@	c #AB2D13",
"&@	c #A02B11",
"*@	c #6A1D0C",
"=@	c #170703",
"-@	c #F4F4F3",
";@	c #BBB6AC",
">@	c #C5C4C1",
",@	c #777777",
"'@	c #EF522E",
")@	c #EF5B37",
"!@	c #EF6040",
"~@	c #F06444",
"{@	c #EF603F",
"]@	c #CF4B2E",
"^@	c #0F0A08",
"/@	c #D5583D",
"(@	c #D37A67",
"_@	c #7F2713",
":@	c #B73314",
"<@	c #B53214",
"[@	c #AF3116",
"}@	c #AA2E15",
"|@	c #B33215",
"1@	c #952811",
"2@	c #1C0703",
"3@	c #CBC9C6",
"4@	c #F7F6F4",
"5@	c #F6F5F4",
"6@	c #EFEEEC",
"7@	c #B8B6B4",
"8@	c #5C5C5A",
"9@	c #EE4D28",
"0@	c #EE512C",
"a@	c #EE532F",
"b@	c #EE5B3B",
"c@	c #EF6545",
"d@	c #EF6646",
"e@	c #EE6D52",
"f@	c #9F371F",
"g@	c #090909",
"h@	c #D45B3F",
"i@	c #D27661",
"j@	c #7F2714",
"k@	c #B83415",
"l@	c #B23016",
"m@	c #AD3115",
"n@	c #B33315",
"o@	c #4A1408",
"p@	c #8E8A83",
"q@	c #E1DFDB",
"r@	c #E2E0DC",
"s@	c #92908B",
"t@	c #EB5736",
"u@	c #EB4C28",
"v@	c #EC4D2B",
"w@	c #EC512D",
"x@	c #EC5A38",
"y@	c #EC6242",
"z@	c #ED6648",
"A@	c #F07E64",
"B@	c #CE6046",
"C@	c #190C0A",
"D@	c #D15B40",
"E@	c #C9725E",
"F@	c #832510",
"G@	c #BB3316",
"H@	c #B93314",
"I@	c #B53114",
"J@	c #B13014",
"K@	c #E6E4E0",
"L@	c #7F2D1B",
"M@	c #89857E",
"N@	c #E0DDDA",
"O@	c #8B5E53",
"P@	c #5C1C0D",
"Q@	c #EA5F3F",
"R@	c #E94A27",
"S@	c #EA4D2A",
"T@	c #EB4F2C",
"U@	c #EB5431",
"V@	c #EB5B3B",
"W@	c #EC6142",
"X@	c #EC6646",
"Y@	c #EF7E64",
"Z@	c #B84228",
"`@	c #090606",
" #	c #D4674F",
".#	c #995344",
"+#	c #A22F13",
"@#	c #BE3316",
"##	c #B93316",
"$#	c #B73216",
"%#	c #B13114",
"&#	c #AF3114",
"*#	c #621D0D",
"=#	c #D34322",
"-#	c #D84726",
";#	c #CDCBC9",
">#	c #903520",
",#	c #E85B3B",
"'#	c #E95A3B",
")#	c #E94C29",
"!#	c #EA4E2A",
"~#	c #EA4F2C",
"{#	c #EB5434",
"]#	c #EA5B3A",
"^#	c #EC6344",
"/#	c #EC6C4F",
"(#	c #D7705A",
"_#	c #100705",
":#	c #E49482",
"<#	c #863C2B",
"[#	c #BA3215",
"}#	c #BF3215",
"|#	c #BD3417",
"1#	c #B43214",
"2#	c #B13116",
"3#	c #B33115",
"4#	c #B53316",
"5#	c #BB3416",
"6#	c #C53617",
"7#	c #D33B19",
"8#	c #D63D1A",
"9#	c #9B9A96",
"0#	c #CA3D1C",
"a#	c #E54722",
"b#	c #E74A27",
"c#	c #EA4B28",
"d#	c #EA4D29",
"e#	c #E95430",
"f#	c #EA5B3B",
"g#	c #E95D3E",
"h#	c #EC775D",
"i#	c #AC3D24",
"j#	c #130806",
"k#	c #1B0803",
"l#	c #EBA190",
"m#	c #902C14",
"n#	c #C63716",
"o#	c #C63617",
"p#	c #C8573B",
"q#	c #C04F35",
"r#	c #BC4F35",
"s#	c #BA4D34",
"t#	c #B94C35",
"u#	c #C55136",
"v#	c #D15539",
"w#	c #D6583C",
"x#	c #8A8783",
"y#	c #6C6965",
"z#	c #E76143",
"A#	c #E86446",
"B#	c #EA6548",
"C#	c #EC684A",
"D#	c #EC674C",
"E#	c #EC6A4D",
"F#	c #EC6B4E",
"G#	c #EB6E52",
"H#	c #EC775A",
"I#	c #EC795F",
"J#	c #E85F41",
"K#	c #E75B3D",
"L#	c #DB5333",
"M#	c #030101",
"N#	c #F05836",
"O#	c #D39284",
"P#	c #9A2D16",
"Q#	c #AC2E12",
"R#	c #AD3012",
"S#	c #A92F13",
"T#	c #A72E12",
"U#	c #A52E12",
"V#	c #A52E11",
"W#	c #AA2E13",
"X#	c #AE3013",
"Y#	c #837F78",
"Z#	c #9C9B99",
"`#	c #6F6D68",
" $	c #BC3618",
".$	c #BE381A",
"+$	c #BE391B",
"@$	c #C03C1E",
"#$	c #C03E20",
"$$	c #C14124",
"%$	c #C14528",
"&$	c #C14A2F",
"*$	c #B74C33",
"=$	c #9E4937",
"-$	c #A9523E",
";$	c #A84F3B",
">$	c #C85135",
",$	c #040201",
"'$	c #F86748",
")$	c #F1765C",
"!$	c #DC9889",
"~$	c #222222",
"{$	c #606060",
"]$	c #505050",
"^$	c #383838",
"/$	c #494949",
"($	c #454545",
"_$	c #5C5C5C",
":$	c #424242",
"<$	c #4B4B4B",
"[$	c #2B2B2B",
"}$	c #464646",
"|$	c #676767",
"1$	c #2D2D2D",
"2$	c #3D3D3D",
"3$	c #4D4D4D",
"4$	c #585858",
"5$	c #797979",
"6$	c #6A6A6A",
"7$	c #6C2819",
"8$	c #5E2619",
"9$	c #9A412E",
"0$	c #EA6E54",
"a$	c #EA785E",
"b$	c #E97155",
"c$	c #E9765B",
"d$	c #FB6A4B",
"e$	c #F58267",
"f$	c #EC694C",
"g$	c #553933",
"h$	c #333333",
"i$	c #767676",
"j$	c #393939",
"k$	c #5E5E5E",
"l$	c #6E6E6E",
"m$	c #707070",
"n$	c #747474",
"o$	c #959595",
"p$	c #AEAEAE",
"q$	c #ACACAC",
"r$	c #8A8A8A",
"s$	c #D0D0D0",
"t$	c #9C9C9C",
"u$	c #404040",
"v$	c #A6A6A6",
"w$	c #BDBDBD",
"x$	c #A0A0A0",
"y$	c #6C3B2F",
"z$	c #592D23",
"A$	c #9D4430",
"B$	c #DC674F",
"C$	c #E66D52",
"D$	c #EE9580",
"E$	c #EA7A60",
"F$	c #E86A4D",
"G$	c #E24A28",
"H$	c #FE6B4B",
"I$	c #FC8166",
"J$	c #F16E52",
"K$	c #E24C2B",
"L$	c #54352E",
"M$	c #2F2F2F",
"N$	c #515151",
"O$	c #8C8C8C",
"P$	c #B5B5B5",
"Q$	c #CBCBCB",
"R$	c #E2E2E2",
"S$	c #DCDCDC",
"T$	c #BBBBBB",
"U$	c #B7B7B7",
"V$	c #D3D3D3",
"W$	c #979797",
"X$	c #B9B9B9",
"Y$	c #D4D4D4",
"Z$	c #DADADA",
"`$	c #44231B",
" %	c #6C3023",
".%	c #D96448",
"+%	c #EE856D",
"@%	c #EB7358",
"#%	c #EE8A74",
"$%	c #E44B27",
"%%	c #E34926",
"&%	c #E24824",
"*%	c #E1431F",
"=%	c #FF6949",
"-%	c #FF866B",
";%	c #F97255",
">%	c #ED512F",
",%	c #DD431F",
"'%	c #902811",
")%	c #433633",
"!%	c #8F8F8F",
"~%	c #A2A2A2",
"{%	c #CACACA",
"]%	c #C4C4C4",
"^%	c #C5C5C5",
"/%	c #B8B8B8",
"(%	c #BCBCBC",
"_%	c #909090",
":%	c #868686",
"<%	c #919191",
"[%	c #878787",
"}%	c #5D5D5D",
"|%	c #4A2B24",
"1%	c #AB4C35",
"2%	c #EB6E53",
"3%	c #ED7E65",
"4%	c #E85C3C",
"5%	c #EA7055",
"6%	c #E55432",
"7%	c #E34520",
"8%	c #E2441F",
"9%	c #E1421E",
"0%	c #E0421E",
"a%	c #FF694A",
"b%	c #FF8166",
"c%	c #FE7658",
"d%	c #FB5734",
"e%	c #ED4721",
"f%	c #DB3E1B",
"g%	c #AA2F14",
"h%	c #512218",
"i%	c #252525",
"j%	c #9E9E9E",
"k%	c #DFDFDF",
"l%	c #DEDEDE",
"m%	c #D7D7D7",
"n%	c #D2D2D2",
"o%	c #CECECE",
"p%	c #D8D8D8",
"q%	c #BEBEBE",
"r%	c #5D3C34",
"s%	c #CB6751",
"t%	c #EE8269",
"u%	c #EC765B",
"v%	c #E7502E",
"w%	c #E9694C",
"x%	c #E55230",
"y%	c #E3441F",
"z%	c #E2431E",
"A%	c #E2421E",
"B%	c #040101",
"C%	c #FF6B4A",
"D%	c #FF8368",
"E%	c #FE7C5F",
"F%	c #FE5B37",
"G%	c #FC4E27",
"H%	c #F1461F",
"I%	c #DA3D1B",
"J%	c #C83818",
"K%	c #7F240E",
"L%	c #484848",
"M%	c #989898",
"N%	c #B0B0B0",
"O%	c #C3C3C3",
"P%	c #7B7B7B",
"Q%	c #8E8E8E",
"R%	c #4C1B10",
"S%	c #D1624A",
"T%	c #EE8770",
"U%	c #EC7A60",
"V%	c #E75130",
"W%	c #E8684B",
"X%	c #E75A3A",
"Y%	c #E4441F",
"Z%	c #A83016",
"`%	c #FA6443",
" &	c #D0593F",
".&	c #9F4835",
"+&	c #8F331F",
"@&	c #AC371D",
"#&	c #F04620",
"$&	c #F0441F",
"%&	c #DC3F1C",
"&&	c #C83A19",
"*&	c #7F230F",
"=&	c #4A3A36",
"-&	c #9B9B9B",
";&	c #C9C9C9",
">&	c #838383",
",&	c #2A2A2A",
"'&	c #C5624A",
")&	c #EF8F78",
"!&	c #ED8167",
"~&	c #E45534",
"{&	c #AE361D",
"]&	c #952C15",
"^&	c #AC3115",
"/&	c #D63F1C",
"(&	c #DF421E",
"_&	c #310E06",
":&	c #020100",
"<&	c #AA442E",
"[&	c #7B4335",
"}&	c #CBB5B1",
"|&	c #F8F8F8",
"1&	c #EBC9C1",
"2&	c #E56042",
"3&	c #F3451F",
"4&	c #E03F1D",
"5&	c #CF3C1A",
"6&	c #A52F14",
"7&	c #491A0F",
"8&	c #6C6C6C",
"9&	c #696969",
"0&	c #4F4F4F",
"a&	c #626262",
"b&	c #6F6F6F",
"c&	c #D06349",
"d&	c #EB6E51",
"e&	c #EE8167",
"f&	c #D35236",
"g&	c #8B4435",
"h&	c #B7A29E",
"i&	c #FFFFFF",
"j&	c #ECCBC4",
"k&	c #D95D41",
"l&	c #0D0401",
"m&	c #F16143",
"n&	c #943C28",
"o&	c #EBD1CC",
"p&	c #EBEBEB",
"q&	c #E9E9E9",
"r&	c #EAC3BA",
"s&	c #EF4924",
"t&	c #E8421F",
"u&	c #D63D1B",
"v&	c #B73417",
"w&	c #C23618",
"x&	c #CB6A55",
"y&	c #D0654D",
"z&	c #D57763",
"A&	c #F47154",
"B&	c #F4785B",
"C&	c #F48167",
"D&	c #F2775B",
"E&	c #F16647",
"F&	c #F06647",
"G&	c #AC3117",
"H&	c #621D0E",
"I&	c #722815",
"J&	c #B74930",
"K&	c #EC7357",
"L&	c #EA6143",
"M&	c #E95C3B",
"N&	c #8A2F1B",
"O&	c #CDB3AD",
"P&	c #ECECEC",
"Q&	c #EAEAEA",
"R&	c #E8C5BD",
"S&	c #E25838",
"T&	c #0D0301",
"U&	c #FF6442",
"V&	c #953A26",
"W&	c #E1E1E1",
"X&	c #D5D5D5",
"Y&	c #ED6B4D",
"Z&	c #EB4621",
"`&	c #D5492A",
" *	c #D0745F",
".*	c #DC7861",
"+*	c #F0451F",
"@*	c #F24924",
"#*	c #E9431E",
"$*	c #EB441F",
"%*	c #EE4620",
"&*	c #ED4620",
"**	c #EC4520",
"=*	c #CA3D1D",
"-*	c #DC4D2C",
";*	c #EB5E41",
">*	c #EA5D3D",
",*	c #E85736",
"'*	c #D94929",
")*	c #8B2913",
"!*	c #EEEEEE",
"~*	c #DDDDDD",
"{*	c #F4F4F4",
"]*	c #E4684C",
"^*	c #FE6341",
"/*	c #A4412B",
"(*	c #FBD7CE",
"_*	c #B3B3B3",
":*	c #EAC8C1",
"<*	c #F8846A",
"[*	c #F0451E",
"}*	c #E6421D",
"|*	c #DE401C",
"1*	c #E0411D",
"2*	c #EA441F",
"3*	c #A22E14",
"4*	c #7B2C1B",
"5*	c #7A220F",
"6*	c #993A25",
"7*	c #77220F",
"8*	c #983823",
"9*	c #79220F",
"0*	c #EC4D29",
"a*	c #EB451F",
"b*	c #EA4925",
"c*	c #EA5331",
"d*	c #E95938",
"e*	c #E85634",
"f*	c #E64F2C",
"g*	c #DB421F",
"h*	c #A02C12",
"i*	c #F3D0C8",
"j*	c #C2C2C2",
"k*	c #EECCC4",
"l*	c #E46A4E",
"m*	c #FD6441",
"n*	c #F16040",
"o*	c #EC7054",
"p*	c #ECC6BE",
"q*	c #E0E0E0",
"r*	c #E7C3BB",
"s*	c #E98E79",
"t*	c #F76C4D",
"u*	c #F3461F",
"v*	c #ED451F",
"w*	c #E8441E",
"x*	c #C73A1A",
"y*	c #7C2917",
"z*	c #80240F",
"A*	c #F1603E",
"B*	c #B53317",
"C*	c #F05E3E",
"D*	c #ED694B",
"E*	c #932A13",
"F*	c #C45036",
"G*	c #D13E1B",
"H*	c #E94A26",
"I*	c #E95332",
"J*	c #E95A39",
"K*	c #E75433",
"L*	c #E54926",
"M*	c #CC3B1B",
"N*	c #C8583E",
"O*	c #ECC8C1",
"P*	c #E48974",
"Q*	c #E15839",
"R*	c #FD6240",
"S*	c #FC6442",
"T*	c #F3694B",
"U*	c #F78B74",
"V*	c #EE9A88",
"W*	c #F17152",
"X*	c #F64821",
"Y*	c #F44720",
"Z*	c #EF451F",
"`*	c #972B13",
" =	c #A8422B",
".=	c #C03A1B",
"+=	c #F15F3E",
"@=	c #B23316",
"#=	c #EF5E3E",
"$=	c #B03316",
"%=	c #932912",
"&=	c #EC6343",
"*=	c #B43417",
"==	c #E84925",
"-=	c #E8512F",
";=	c #E85735",
">=	c #E6502E",
",=	c #E44824",
"'=	c #E4431E",
")=	c #E44D2A",
"!=	c #E34C2A",
"~=	c #DF654A",
"{=	c #E07760",
"]=	c #E46C51",
"^=	c #DF4421",
"/=	c #FC5C39",
"(=	c #FB603E",
"_=	c #F16749",
":=	c #F56444",
"<=	c #F86443",
"[=	c #F54821",
"}=	c #F44821",
"|=	c #F34721",
"1=	c #F24620",
"2=	c #AF3317",
"3=	c #D24E2F",
"4=	c #BF4024",
"5=	c #B63317",
"6=	c #E46346",
"7=	c #902911",
"8=	c #EC6546",
"9=	c #B13417",
"0=	c #E74824",
"a=	c #E74E2B",
"b=	c #E7512F",
"c=	c #E64C29",
"d=	c #E44622",
"e=	c #E34A27",
"f=	c #E45D3F",
"g=	c #DE6143",
"h=	c #E0694E",
"i=	c #E05536",
"j=	c #B03317",
"k=	c #ED5432",
"l=	c #FA5A37",
"m=	c #F95733",
"n=	c #F85935",
"o=	c #AA371E",
"p=	c #290C05",
"q=	c #9D2E15",
"r=	c #F44721",
"s=	c #F24721",
"t=	c #C9553A",
"u=	c #F47D63",
"v=	c #D7684F",
"w=	c #F27C62",
"x=	c #D36147",
"y=	c #EB755C",
"z=	c #E0694D",
"A=	c #EF7B5F",
"B=	c #C65D45",
"C=	c #ED785E",
"D=	c #DA6D55",
"E=	c #E74520",
"F=	c #E64925",
"G=	c #E54925",
"H=	c #E44723",
"I=	c #932C14",
"J=	c #2E0F08",
"K=	c #8E3622",
"L=	c #E04C2A",
"M=	c #8C2912",
"N=	c #080100",
"O=	c #862B17",
"P=	c #F74D26",
"Q=	c #240A04",
"R=	c #F14720",
"S=	c #EF502C",
"T=	c #EE4D29",
"U=	c #EC4F2C",
"V=	c #EA451F",
"W=	c #EA4722",
"X=	c #E9441F",
"Y=	c #E8441F",
"Z=	c #E7441F",
"`=	c #E6441F",
" -	c #E54420",
".-	c #E44520",
"+-	c #FDF4F2",
"@-	c #A43016",
"#-	c #150602",
"$-	c #A8A8A8",
"%-	c #AAAAAA",
"&-	c #555555",
"*-	c #848484",
"=-	c #B6B6B6",
"--	c #E4E4E4",
";-	c #6D6D6D",
">-	c #BFBFBF",
",-	c #787878",
"'-	c #6B6B6B",
"                                                                                                ",
"                                                                                                ",
"                                                                                                ",
"                          . . . . . . . . . . . . . .                                           ",
"                        + @ # $ % & * % = - ; > , ' ) !               . .                       ",
"                      ~ { ] ^ / ( _ : < / [ } | 1 2 3 4 5 6       . 7 8 9 .                     ",
"                    0 a b c d e f g h i j k l m n o p q r s t   . u v w .                       ",
"                    x y z A B C D E F G H I J K L M N O P Q R S . T U .                         ",
"                    x V W X Y Z `  ...+.@.#.$.%.&.*.=.-.;.>.,.'.. ).!.~.    . .                 ",
"                    {.].^./.(._.C :.<.[.}.|.1.2.3.4.5.6.7.8.9.0.a.b.c.d.. .   e..               ",
"                    {.f.g.h.i.j.k.l.m.n.o.p.q.r.s.t.u.v.w.x.y.z.A.9 9 B.C.v v D..               ",
"                    {.E.: F.G.H.I.J.K.n.L.M.N.O.P.Q.R.S.T.U.V.W.9 X.Y.Z.`. +.+.                 ",
"                    {.++@+#+$+%+&+*+&+Y =+-+;+>+,+'+)+!+~+{+]+^+/+(+_+. . .                     ",
"                    {.:+<+[+}+|+1+2+3+4+5+^ 6+7+8+9+0+a+{+]+b+c+d+. e+f+                        ",
"                    x * g+h+i+j+k+l+m+n+o+p+q+r+s+t+u+v+w+w x+y+. z+A+B+C+                      ",
"                    x D+E+F+G+H+I+J+K+L+o+M+N+O+P+Q+v+]+R+S+T+. U+V+W+X+Y+Z+                    ",
"                    x `+ @.@+@@@#@1+$@%@&@*@. . . =@-@;@>@,@. '@)@!@~@{@]@^@                    ",
"                    x /@(@_@:@<@[@}@|@1@2@3@4@5@8 6@9 7@8@. 9@0@a@b@c@d@e@f@g@                  ",
"                    . h@i@j@k@$@l@m@n@o@p@q@9 9 9 9 r@s@. t@u@v@w@x@y@z@A@B@C@                  ",
"                    . D@E@F@G@H@I@J@2+. K@L@. . M@9 N@O@P@Q@R@S@T@U@V@W@X@Y@Z@`@                ",
"                    0  #.#+#@###$#%#&#2+. *#=#-#. 9 ;#. >#,#'#)#!#~#{#]#^#/#(#_#                ",
"                    . :#<#[#}#|#1#2#3#4#5#6#7#8#. 9 9#. 0#a#b#R@c#c#d#e#f#g#h#i#j#              ",
"                    k#l#m#n#o#p#q#r#s#t#u#v#w#. `.x#y#. z#A#B#C#D#E#F#G#H#I#J#K#L#              ",
"                  M#N#O#P#Q#R#S#T#U#V#T#W#X#. Y#Z#`#.  $ $.$+$@$#$$$%$&$*$=$-$;$>$              ",
"                ,$'$)$!$~${$]$^$/$($_$]$:$v+<$. . [$}$|$1$2$3$4$5$6$7$8$9$0$a$b$c$              ",
"              ,$d$e$f$g$h$i$j$k$h$l$l$m$n$o$p$q$r$o$s$t$u$v$w$x$y$z$A$B$C$D$E$F$G$              ",
"            ,$H$I$J$K$L$M$N$<$O$l$v$P$O$Q$R$S$T$U$V$W$X$Y$Z$T$`$ %.%+%@%#%$%%%&%*%              ",
"          ,$=%-%;%>%,%'%)%t$!%~%W$P$P${%]%^%/%(%V$_%:%<%[%}%|%1%2%3%4%5%6%7%8%9%0%              ",
"        ,$a%b%c%d%e%f%g%h%i%5$j%k%k%l%Z$m%n%o%Z$_%P$p%q%|$r%s%t%u%v%w%x%y%z%A%9%0%              ",
"      B%C%D%E%F%G%H%I%J%K%L%M%p%N%v$v$v$v$v$v$O%:%P%Q%3$R%S%T%U%V%W%X%Y%;+A%9%0%Z%              ",
"    . `% &.&+&@&#&$&%&&&*&=&-&]%-&-&-&-&-&-&-&;&>&P$/%,&'&)&!&~&{&]&^&/&A%9%0%(&_&              ",
"    :&<&[&}&|&1&2&3&4&5&6&7&8&9&0&0&3$3$3$3$0&a&4$b&1$c&d&e&f&g&h&i&j&k&M.0%(&(&l&              ",
"  . m&n&o&i&p&q&r&s&t&u&v&w&x&y&z&A&B&C&D&E&F&G&H&I&J&K&L&M&N&O&i&P&Q&R&S&(&(&(&T&              ",
"  . U&V&i&W&X&S$p&Y&Z&%&`& *.*+*@*#*#&$*%*&*****=*-*;*>*,*'*)*i&!*~*W&{*]*(&(&(&                ",
"  . ^*/*(*V$_*Z$:*<*[*}*|*1*2*3*4*5*6*7*8*9*0*a*b*c*d*e*f*g*h*i*p&j*P&k*l*(&(&(&                ",
"  x m*n*o*p*q*r*s*t*u*v*w*x*y*z*A*B*C*m@D*E*F*G*H*I*J*K*L*Y%M*N*r*Y$O*P*Q*(&(&(&                ",
"  x R*S*q T*U*V*W*X*Y*H%Z*`* =.=+=@=#=$=D*%=&=*===-=;=>=,='=)=!=~=~={=]=^=(&(&(&.               ",
"  . /=(=_=:=<='+X*[=}=|=1=2=3=4=A+5=6=<.D*7=8=9=0=a=b=c=d=;+e=f=g=h=i=(&(&(&(&j=.               ",
"  . k=l=m=n=o=p=p=q=r=|=s=t=u=v=w=x=y=z=A=B=C=D=E=F=G=H=I=_&J=K=L=(&(&(&(&M=. N=                ",
"  . . O=S.P=. i&i&Q=|=s=R=#&S=T=&***U=V=W=X=Y=Z=`= -.-y%_&+-+-p=(&(&(&@-. . i&.                 ",
"  . i&. . . . i&x$. . . . . . . . . . . . . . . . . . . #-i&x$. . . . . i$$-%-.                 ",
"  . i&i&i&i&. i&<%. i&i&i&i&i&i&i&i&i&i&i&i&i&i&i&i&i&i&. i&<%. i&i&i&i&W$%-&-.                 ",
"  . i&%-%-%-. q&*-. %-%-%-%-%-%-%-%-%-%-%-%-%-%-%-%-%-%-. q&*-. %-%-=---_*&-.                   ",
"  . . &-&-&-. Y$,@. &-&-&-&-&-&-&-&-&-&-&-&-&-&-&-&-&-&-. Y$,@. &-&-;-j%N$.                     ",
"    . . . . . >-6$. . . . . . . . . . . . . . . . . . . . >-6$. . . . .                         ",
"            . ,-'-.                                     . ,-'-.                                 ",
"              . .                                         . .                                   ",
"                                                                                                "};
