/* XPM */
static char * dia_xpm[] = {
"48 48 683 2",
"  	c None",
". 	c #4F9B08",
"+ 	c #579F11",
"@ 	c #579E11",
"# 	c #559C11",
"$ 	c #549A11",
"% 	c #539910",
"& 	c #529610",
"* 	c #509410",
"= 	c #4E910E",
"- 	c #478A06",
"; 	c #5DA21B",
"> 	c #B9E48F",
", 	c #BAE88C",
"' 	c #B7E789",
") 	c #B5E684",
"! 	c #B2E480",
"~ 	c #AFE37B",
"{ 	c #ABE277",
"] 	c #A5DB71",
"^ 	c #519015",
"/ 	c #5D9E1E",
"( 	c #C8EDA3",
"_ 	c #A1EA59",
": 	c #A1E95A",
"< 	c #9FE857",
"[ 	c #9DE754",
"} 	c #9BE651",
"| 	c #97E44A",
"1 	c #B1E47F",
"2 	c #508D17",
"3 	c #59981E",
"4 	c #C5EB9F",
"5 	c #97E64A",
"6 	c #98E54C",
"7 	c #97E449",
"8 	c #94E447",
"9 	c #92E243",
"0 	c #8EE03C",
"a 	c #AEE27A",
"b 	c #4D8716",
"c 	c #3F4648",
"d 	c #4D5456",
"e 	c #4D5355",
"f 	c #4B574D",
"g 	c #568D22",
"h 	c #C3EA9C",
"i 	c #92E342",
"j 	c #93E244",
"k 	c #91E141",
"l 	c #8FE13F",
"m 	c #8DDF3C",
"n 	c #89DD34",
"o 	c #AAE176",
"p 	c #4A7C1B",
"q 	c #475249",
"r 	c #495051",
"s 	c #484F50",
"t 	c #474E50",
"u 	c #484E4F",
"v 	c #474E4F",
"w 	c #474D4E",
"x 	c #464D4E",
"y 	c #454B4D",
"z 	c #42494B",
"A 	c #3D4446",
"B 	c #30383B",
"C 	c #293033",
"D 	c #5D6364",
"E 	c #B9BAB7",
"F 	c #B4B5B3",
"G 	c #AAB1A4",
"H 	c #60942E",
"I 	c #C0E898",
"J 	c #8CE03A",
"K 	c #8CDE39",
"L 	c #89DD37",
"M 	c #88DD34",
"N 	c #83DB2D",
"O 	c #A7DE71",
"P 	c #548327",
"Q 	c #A3A99E",
"R 	c #ACADAB",
"S 	c #ABADAA",
"T 	c #ABACAA",
"U 	c #AAABA9",
"V 	c #AAABA8",
"W 	c #A9ABA7",
"X 	c #A8AAA7",
"Y 	c #A8A9A7",
"Z 	c #A7A8A6",
"` 	c #A5A7A4",
" .	c #A3A5A3",
"..	c #A0A39F",
"+.	c #939593",
"@.	c #767A79",
"#.	c #535959",
"$.	c #303739",
"%.	c #2D3436",
"&.	c #636868",
"*.	c #B4B5B1",
"=.	c #989A95",
"-.	c #909789",
";.	c #5A8C2A",
">.	c #BEE794",
",.	c #87DD32",
"'.	c #88DD35",
").	c #87DC32",
"!.	c #84DB2F",
"~.	c #82DA2C",
"{.	c #7ED825",
"].	c #A4DD6C",
"^.	c #4E7B22",
"/.	c #8B9185",
"(.	c #939590",
"_.	c #92948F",
":.	c #92938F",
"<.	c #91938F",
"[.	c #91938E",
"}.	c #90928D",
"|.	c #90918C",
"1.	c #90928C",
"2.	c #8F908C",
"3.	c #90918D",
"4.	c #979894",
"5.	c #9FA19C",
"6.	c #AAACA8",
"7.	c #A7A9A6",
"8.	c #7B7F7E",
"9.	c #484E4E",
"0.	c #383E3F",
"a.	c #5E6464",
"b.	c #AFB1AD",
"c.	c #9DA498",
"d.	c #59892B",
"e.	c #BBE591",
"f.	c #81DA2A",
"g.	c #81D92A",
"h.	c #7FD827",
"i.	c #7DD824",
"j.	c #79D51D",
"k.	c #A1DA68",
"l.	c #4D7924",
"m.	c #979D93",
"n.	c #A0A19F",
"o.	c #9FA19E",
"p.	c #9FA09E",
"q.	c #9EA09D",
"r.	c #9DA09D",
"s.	c #9D9F9C",
"t.	c #9C9E9C",
"u.	c #9B9D9A",
"v.	c #9B9E9A",
"w.	c #9E9F9B",
"x.	c #A1A3A0",
"y.	c #A7A9A5",
"z.	c #A2A4A0",
"A.	c #999B97",
"B.	c #8F918D",
"C.	c #8D8F8A",
"D.	c #989995",
"E.	c #8A8D8C",
"F.	c #5E6263",
"G.	c #32383A",
"H.	c #3B4345",
"I.	c #424A4B",
"J.	c #42484A",
"K.	c #404B44",
"L.	c #4A791F",
"M.	c #B9E48E",
"N.	c #78D61B",
"O.	c #7AD61F",
"P.	c #76D41A",
"Q.	c #74D317",
"R.	c #70D20F",
"S.	c #9ED964",
"T.	c #406A18",
"U.	c #3D4642",
"V.	c #3F4547",
"W.	c #3E4546",
"X.	c #3E4446",
"Y.	c #3D4345",
"Z.	c #3C4344",
"`.	c #3D4445",
" +	c #414849",
".+	c #595E5E",
"++	c #797D7C",
"@+	c #A1A2A0",
"#+	c #A9AAA6",
"$+	c #979994",
"%+	c #888A85",
"&+	c #8B8D89",
"*+	c #9C9D9A",
"=+	c #949794",
"-+	c #494E4E",
";+	c #283032",
">+	c #477A16",
",+	c #A8D679",
"'+	c #B3E085",
")+	c #AEDE7F",
"!+	c #AADC78",
"~+	c #A6DB72",
"{+	c #A3DA6D",
"]+	c #A0DA69",
"^+	c #92CD57",
"/+	c #3E6E10",
"(+	c #2C3336",
"_+	c #2A3133",
":+	c #4E5354",
"<+	c #858786",
"[+	c #949692",
"}+	c #858782",
"|+	c #90938E",
"1+	c #A2A3A0",
"2+	c #626665",
"3+	c #346506",
"4+	c #437315",
"5+	c #436D1E",
"6+	c #517A2A",
"7+	c #537C2C",
"8+	c #527B2A",
"9+	c #4F7928",
"0+	c #406B1A",
"a+	c #3E6E0F",
"b+	c #305E05",
"c+	c #282F31",
"d+	c #454A4C",
"e+	c #707373",
"f+	c #9A9B98",
"g+	c #858783",
"h+	c #9C9D99",
"i+	c #757977",
"j+	c #414B46",
"k+	c #A2A79E",
"l+	c #B1B6AC",
"m+	c #A1A79E",
"n+	c #EC6900",
"o+	c #303638",
"p+	c #414648",
"q+	c #8E918F",
"r+	c #81837F",
"s+	c #979995",
"t+	c #848685",
"u+	c #2F3537",
"v+	c #434A4C",
"w+	c #A6A9A6",
"x+	c #999B96",
"y+	c #EB6901",
"z+	c #EB6A02",
"A+	c #293031",
"B+	c #797C7A",
"C+	c #989A96",
"D+	c #7F817D",
"E+	c #959794",
"F+	c #6D706F",
"G+	c #2D3335",
"H+	c #9B9D98",
"I+	c #A6A8A5",
"J+	c #EB7210",
"K+	c #F09348",
"L+	c #2B3234",
"M+	c #6B6E6D",
"N+	c #969894",
"O+	c #4D5152",
"P+	c #282E30",
"Q+	c #9A9C97",
"R+	c #A4A7A4",
"S+	c #E76300",
"T+	c #F2A464",
"U+	c #FBD5B3",
"V+	c #E86E0B",
"W+	c #2B3133",
"X+	c #7D7F7D",
"Y+	c #949592",
"Z+	c #848681",
"`+	c #949693",
" @	c #2B3132",
".@	c #A5A6A4",
"+@	c #A3A5A2",
"@@	c #404849",
"#@	c #E66600",
"$@	c #FDE9D7",
"%@	c #FFF2E5",
"&@	c #EB8633",
"*@	c #848682",
"=@	c #656968",
"-@	c #22282B",
";@	c #41484A",
">@	c #A1A3A1",
",@	c #404648",
"'@	c #F1A668",
")@	c #FFEFDE",
"!@	c #F9D1AD",
"~@	c #E15E00",
"{@	c #282D30",
"]@	c #4D5252",
"^@	c #939591",
"/@	c #8F918E",
"(@	c #303537",
"_@	c #404749",
":@	c #A1A4A0",
"<@	c #959792",
"[@	c #949691",
"}@	c #A0A29E",
"|@	c #3E4647",
"1@	c #E46C0A",
"2@	c #FBDDC3",
"3@	c #FEE9D5",
"4@	c #FAD6B4",
"5@	c #FFECD9",
"6@	c #EA8A3D",
"7@	c #323739",
"8@	c #878885",
"9@	c #797B77",
"0@	c #494C4D",
"a@	c #3F4748",
"b@	c #A0A29F",
"c@	c #EC954D",
"d@	c #FEEEDE",
"e@	c #F1AC71",
"f@	c #ED9C5A",
"g@	c #FEE7D0",
"h@	c #F9CDA6",
"i@	c #DE5F00",
"j@	c #2C3133",
"k@	c #6C6F6E",
"l@	c #80827E",
"m@	c #888A86",
"n@	c #5C5F5F",
"o@	c #3E4547",
"p@	c #9C9E9B",
"q@	c #E26908",
"r@	c #F5C59C",
"s@	c #FEEDDB",
"t@	c #E16807",
"u@	c #E27116",
"v@	c #FCDCBE",
"w@	c #FDDFC2",
"x@	c #E58536",
"y@	c #5A5D5D",
"z@	c #868884",
"A@	c #696C6B",
"B@	c #2A2F31",
"C@	c #8F918C",
"D@	c #8E908B",
"E@	c #9A9D9A",
"F@	c #3B4243",
"G@	c #E47821",
"H@	c #FFF6EB",
"I@	c #F0AD74",
"J@	c #DD5E00",
"K@	c #DB5900",
"L@	c #F0AB72",
"M@	c #FEE5CC",
"N@	c #F0B079",
"O@	c #DB6505",
"P@	c #505455",
"Q@	c #888986",
"R@	c #787A76",
"S@	c #707371",
"T@	c #2B3032",
"U@	c #9A9C9A",
"V@	c #8D8F8B",
"W@	c #999B98",
"X@	c #3B4143",
"Y@	c #DC5D00",
"Z@	c #F3BE91",
"`@	c #FFEFDF",
" #	c #E07015",
".#	c #DC6606",
"+#	c #FEE1C5",
"@#	c #FCDAB9",
"##	c #DD6F16",
"$#	c #4F5353",
"%#	c #878986",
"&#	c #777874",
"*#	c #717372",
"=#	c #3C4244",
"-#	c #989B98",
";#	c #8B8D88",
">#	c #979996",
",#	c #394042",
"'#	c #E0731C",
")#	c #FFF5EB",
"!#	c #F2BB8D",
"~#	c #DC6505",
"{#	c #D85B00",
"]#	c #EB9F5E",
"^#	c #FFE7CD",
"/#	c #EDA669",
"(#	c #D45900",
"_#	c #565959",
":#	c #777975",
"<#	c #3A4142",
"[#	c #979A96",
"}#	c #898B87",
"|#	c #959894",
"1#	c #393F40",
"2#	c #D85300",
"3#	c #F2C198",
"4#	c #FEEDDD",
"5#	c #E58B41",
"6#	c #DB6C12",
"7#	c #FAD2AB",
"8#	c #FDDBB8",
"9#	c #D9690D",
"0#	c #686B6A",
"a#	c #7D7F7A",
"b#	c #7D7F7B",
"c#	c #5D6060",
"d#	c #393F41",
"e#	c #878985",
"f#	c #878984",
"g#	c #939693",
"h#	c #383D3F",
"i#	c #DF7723",
"j#	c #FCE9D6",
"k#	c #F9DBC0",
"l#	c #D96100",
"m#	c #D66102",
"n#	c #ECA465",
"o#	c #FDD9B5",
"p#	c #EDA769",
"q#	c #D05600",
"r#	c #2E3234",
"s#	c #818381",
"t#	c #72746F",
"u#	c #494D4D",
"v#	c #383E40",
"w#	c #919491",
"x#	c #363D3F",
"y#	c #E9A46B",
"z#	c #FFF7ED",
"A#	c #E89957",
"B#	c #D35500",
"C#	c #DD7723",
"D#	c #FACFA7",
"E#	c #FACB9E",
"F#	c #D76D15",
"G#	c #222729",
"H#	c #4A4F4F",
"I#	c #71736F",
"J#	c #888A88",
"K#	c #303436",
"L#	c #373E3F",
"M#	c #929491",
"N#	c #838581",
"O#	c #838580",
"P#	c #90928F",
"Q#	c #363C3D",
"R#	c #D9690E",
"S#	c #F7DAC1",
"T#	c #FBE4CD",
"U#	c #D35400",
"V#	c #D25700",
"W#	c #D25600",
"X#	c #D15600",
"Y#	c #CF5600",
"Z#	c #CE5500",
"`#	c #F1AF75",
" $	c #FCD2A9",
".$	c #E4924C",
"+$	c #CE5B00",
"@$	c #272C2E",
"#$	c #8C8E8B",
"$$	c #757773",
"%$	c #636665",
"&$	c #1D2224",
"*$	c #373C3E",
"=$	c #90918F",
"-$	c #82847F",
";$	c #8E908D",
">$	c #353A3C",
",$	c #E08841",
"'$	c #FFFCF6",
")$	c #FEEFE0",
"!$	c #FEECDB",
"~$	c #FEEAD7",
"{$	c #FEE8D2",
"]$	c #FEE6CE",
"^$	c #FEE3C9",
"/$	c #FDDCBC",
"($	c #FCD4AE",
"_$	c #FBD1A6",
":$	c #F5BB86",
"<$	c #D1640B",
"[$	c #24292B",
"}$	c #747775",
"|$	c #848683",
"1$	c #747672",
"2$	c #8B8C89",
"3$	c #262C2D",
"4$	c #353B3C",
"5$	c #80827D",
"6$	c #8C8E8C",
"7$	c #34393A",
"8$	c #D25900",
"9$	c #F3CCAD",
"0$	c #FAE5D2",
"a$	c #F9E0C8",
"b$	c #F9DCC3",
"c$	c #F8D9BC",
"d$	c #F8D5B5",
"e$	c #F8D1AF",
"f$	c #F7CEA8",
"g$	c #F6CAA1",
"h$	c #F6C69B",
"i$	c #F6C394",
"j$	c #F6C08E",
"k$	c #F5BD88",
"l$	c #F7BF8A",
"m$	c #DA7725",
"n$	c #CD5A00",
"o$	c #23272A",
"p$	c #5E6161",
"q$	c #888A87",
"r$	c #6E706C",
"s$	c #8A8B87",
"t$	c #444848",
"u$	c #202426",
"v$	c #35393B",
"w$	c #8D8E8B",
"x$	c #7E7F7B",
"y$	c #8A8D8A",
"z$	c #33383A",
"A$	c #D35D00",
"B$	c #D66A14",
"C$	c #D56A12",
"D$	c #D56911",
"E$	c #D46811",
"F$	c #D46810",
"G$	c #D4670F",
"H$	c #D4670E",
"I$	c #D3660D",
"J$	c #D3660C",
"K$	c #D4650C",
"L$	c #D3650B",
"M$	c #D3640A",
"N$	c #D16005",
"O$	c #CE5C00",
"P$	c #1E2326",
"Q$	c #666867",
"R$	c #8C8D8A",
"S$	c #5F6261",
"T$	c #33393B",
"U$	c #8B8C8A",
"V$	c #7C7E79",
"W$	c #7B7D79",
"X$	c #898B88",
"Y$	c #313739",
"Z$	c #252A2C",
"`$	c #7C7E7C",
" %	c #70726E",
".%	c #727574",
"+%	c #24282A",
"@%	c #323839",
"#%	c #7A7C77",
"$%	c #797B76",
"%%	c #313637",
"&%	c #1E2325",
"*%	c #3B3F40",
"=%	c #646666",
"-%	c #23282A",
";%	c #313638",
">%	c #787975",
",%	c #858784",
"'%	c #2F3436",
")%	c #1F2426",
"!%	c #202527",
"~%	c #45494A",
"{%	c #777978",
"]%	c #8A8C88",
"^%	c #6B6D68",
"/%	c #7A7C79",
"(%	c #8F908D",
"_%	c #505353",
":%	c #2E3335",
"<%	c #34393B",
"[%	c #33393A",
"}%	c #303536",
"|%	c #767874",
"1%	c #838583",
"2%	c #2E3435",
"3%	c #303637",
"4%	c #2F3435",
"5%	c #383B3D",
"6%	c #4F5253",
"7%	c #90928E",
"8%	c #7A7C78",
"9%	c #6A6C68",
"0%	c #868784",
"a%	c #80827F",
"b%	c #373B3C",
"c%	c #1C2023",
"d%	c #535858",
"e%	c #9A9C99",
"f%	c #919391",
"g%	c #919390",
"h%	c #909290",
"i%	c #737571",
"j%	c #282D2F",
"k%	c #8C8D8B",
"l%	c #8A8C8A",
"m%	c #8A8C89",
"n%	c #898B89",
"o%	c #898A88",
"p%	c #878A86",
"q%	c #878886",
"r%	c #868885",
"s%	c #8C8E8A",
"t%	c #70716D",
"u%	c #7C7E7A",
"v%	c #8A8B88",
"w%	c #767876",
"x%	c #4C4F4F",
"y%	c #222629",
"z%	c #242A2C",
"A%	c #595D5E",
"B%	c #7B7D78",
"C%	c #727470",
"D%	c #7F827E",
"E%	c #767773",
"F%	c #71736E",
"G%	c #70726D",
"H%	c #6F716D",
"I%	c #6F716C",
"J%	c #686969",
"K%	c #363B3B",
"L%	c #272B2D",
"M%	c #242A2B",
"N%	c #555958",
"O%	c #9D9E9C",
"P%	c #989A97",
"Q%	c #555959",
"R%	c #393D3F",
"S%	c #313537",
"T%	c #7E807D",
"U%	c #2F3335",
"V%	c #393D3E",
"W%	c #545757",
"X%	c #929492",
"Y%	c #959694",
"Z%	c #949593",
"`%	c #939592",
" &	c #939492",
".&	c #919291",
"+&	c #91928F",
"@&	c #8F918F",
"#&	c #8F908E",
"$&	c #8D8F8D",
"%&	c #888B88",
"&&	c #7B7E7C",
"*&	c #606463",
"=&	c #414545",
"-&	c #1F2325",
";&	c #3B4041",
">&	c #3A3F40",
",&	c #212527",
"'&	c #585B5B",
")&	c #6D6F6B",
"!&	c #878A87",
"~&	c #595C5B",
"{&	c #1E2225",
"]&	c #2C3132",
"^&	c #343839",
"/&	c #333839",
"(&	c #333738",
"_&	c #323738",
":&	c #333638",
"<&	c #323637",
"[&	c #303435",
"}&	c #2E3233",
"|&	c #292D2E",
"1&	c #161A1D",
"2&	c #16191C",
"3&	c #303335",
"4&	c #1D2123",
"5&	c #474A4A",
"6&	c #838481",
"7&	c #4C4E4E",
"8&	c #5F6360",
"9&	c #6B6D6B",
"0&	c #232729",
"                                                                                                ",
"                                                                                                ",
"                                                                                                ",
"              . + @ # $ % & * = -                                                               ",
"              ; > , ' ) ! ~ { ] ^                                                               ",
"              / ( _ : < [ } | 1 2                                                               ",
"              3 4 5 6 7 8 9 0 a b                                                               ",
"      c d e f g h i j k l m n o p q r s s t u v w x y z A B C                                   ",
"      D E F G H I J 0 K L M N O P Q R S T U V W X Y Z `  ...+.@.#.$.%.                          ",
"      &.*.=.-.;.>.,.'.).!.~.{.].^./.(._._.:.<.[.}.|.1.2.3.<.4.5.6.7.8.9.0.                      ",
"      a.b.7.c.d.e.f.N g.h.i.j.k.l.m.n.o.p.q.r.s.t.u.v.w.x.y.z.A.B.C.D.z.E.F.G.                  ",
"      H.I.J.K.L.M.N.O.j.P.Q.R.S.T.U.V.W.X.X.X.Y.Y.Y.Y.Z.`. +.+++@+#+$+%+&+*+=+-+;+              ",
"              >+,+'+)+!+~+{+]+^+/+                            (+_+:+<+s.[+}+|+1+2+G.            ",
"              3+4+5+6+7+8+9+0+a+b+                                  c+d+e+f+3.g+h+i+$.          ",
"                  j+k+l+l+m+j+                    n+                    o+p+q+f+r+s+t+u+        ",
"                  v+w+x+x+w+v+                  y+z+                        A+B+C+D+E+F+G+      ",
"                  v+w+H+H+I+v+                  J+K+                          L+M+N+D+s+O+P+    ",
"                  v+w+Q+Q+R+z                 S+T+U+V+                          W+X+Y+Z+`+ @    ",
"                  I..@x+=.+@@@                #@$@%@&@                            W+`+*@[+=@-@  ",
"                  ;@+@$+$+>@,@                '@%@)@!@~@                          {@]@^@D+/@(@  ",
"                  _@:@<@[@}@|@              1@2@3@4@5@6@                            7@8@9@B.0@  ",
"                  a@b@(.(.q.W.              c@d@e@f@g@h@i@                          j@k@l@m@n@  ",
"                  o@q.[.[.p@Y.            q@r@s@t@u@v@w@x@                            y@z@D+A@B@",
"                  A p@C@D@E@F@            G@H@I@J@K@L@M@N@O@                          P@Q@R@S@T@",
"                  Z.U@V@C.W@X@          Y@Z@`@ #    .#+#@###                          $#%#&#*#j@",
"                  =#-#&+;#>#,#          '#)#!#~#    {#]#^#/#(#                        _#z@:#M+B@",
"                  <#[#}#m@|#1#        2#3#4#5#        6#7#8#9#                      P+0#a#b#c#  ",
"                  d#|#e#f#g#h#        i#j#k#l#        m#n#o#p#q#                    r#s#t#*@u#  ",
"                  v#+.g+*@w#x#        y#z#A#B#          C#D#E#F#                  G#H#}#I#J#K#  ",
"                  L#M#N#O#P#Q#      R#S#T#U#V#W#q#X#q#Y#Z#`# $.$+$                @$#$$$8@%$&$  ",
"                  *$=$-$r+;$>$      ,$'$)$d@!$~${$]$^$w@/$($_$:$<$              [$}$|$1$2$3$    ",
"                  4$;$5$D+6$7$    8$9$0$a$b$c$d$e$f$g$h$i$j$k$l$m$n$          o$p$q$r$s$t$u$    ",
"                  v$w$x$a#y$z$    A$B$C$D$E$F$G$G$H$I$J$K$L$M$M$N$O$        P$Q$R$r$e#S$[$      ",
"                  T$U$V$W$X$Y$                                          Z$7$`$#$ %e#.%+%        ",
"                  @%X$#%$%%#%%                                      &%*%2+%#W$I#q$=%-%          ",
"                  ;%%#>%:#,%'%                                )%!%~%{%]%W$^%/%(%_%+%            ",
"    T@:%<%T$z$z$[%}%,%|%$$1%2%7@;%%%%%%%3%}%}%}%K#4%4%'%K#5%6%F+/@7%8%9% %0%a%b%c%              ",
"    @$d%e%f%g%h%E+B@1%1$i%s#j%M#k%k%l%m%n%o%q$p%q%q%r%Q@m%s%*@8%t%r$u%v%w%x%y%                  ",
"    z%A%s+:#:#B%5$B@s#C%I#D%j%V$E%C%F% % %G%H%H%I%r$r$r$H%C%R@N#}./@J%K%L%                      ",
"    M%N%1+O%P%Q%R%S%a% %G%T%U%V%W%X%Y%Z%`% &M#.&+&@&#&$&R$%&&&*&=&-&c%                          ",
"      '%;&>&*%S%,&'&]%)&)&!&~&{&]&v$^&/&(&_&:&<&%%S%[&}&|&&$1&2&                                ",
"                  4%s# %)&N#3&                                                                  ",
"                  4&5&|$6&7&4&                                                                  ",
"                    c%8&9&-&                                                                    ",
"                      0&Z$                                                                      ",
"                        4&                                                                      ",
"                                                                                                ",
"                                                                                                "};
