/* XPM */
static char * dictionary_xpm[] = {
"48 48 526 2",
"  	c None",
". 	c #CFCFCF",
"+ 	c #D0D0D0",
"@ 	c #CECECE",
"# 	c #CDCDCD",
"$ 	c #CCCCCC",
"% 	c #C8C8C8",
"& 	c #D6D6D6",
"* 	c #E4E4E4",
"= 	c #F1F1F1",
"- 	c #F8F8F8",
"; 	c #FBFBFB",
"> 	c #FAFAF9",
", 	c #F7F8F7",
"' 	c #F5F5F4",
") 	c #F0F1EF",
"! 	c #E5E6E4",
"~ 	c #D6D6D5",
"{ 	c #CECCCC",
"] 	c #9B5151",
"^ 	c #CDCBCA",
"/ 	c #E4E5E3",
"( 	c #F4F4F4",
"_ 	c #F7F7F7",
": 	c #F6F6F6",
"< 	c #F3F3F3",
"[ 	c #EBEBEB",
"} 	c #DFDFDF",
"| 	c #D1D1D1",
"1 	c #C4C4C4",
"2 	c #C2C2C2",
"3 	c #E3E3E3",
"4 	c #F5F5F5",
"5 	c #FDFDFD",
"6 	c #FFFFFF",
"7 	c #F6F7F5",
"8 	c #EEEFED",
"9 	c #E6E8E4",
"0 	c #E1E4DF",
"a 	c #E3E5E2",
"b 	c #EAEBE9",
"c 	c #E7E8E5",
"d 	c #7D0909",
"e 	c #D4C4C3",
"f 	c #E7E8E6",
"g 	c #EDEDED",
"h 	c #F0F0F0",
"i 	c #EEEEEE",
"j 	c #EFEFEF",
"k 	c #DADADA",
"l 	c #BEBEBE",
"m 	c #BABABA",
"n 	c #E2E2E2",
"o 	c #FEFEFE",
"p 	c #F6F6F5",
"q 	c #DDDFDB",
"r 	c #D4D6D1",
"s 	c #CBCEC8",
"t 	c #C9CCC7",
"u 	c #831B1A",
"v 	c #AC8B89",
"w 	c #D9DBD8",
"x 	c #EBEBEA",
"y 	c #ECECEC",
"z 	c #E9E9E9",
"A 	c #E8E8E8",
"B 	c #E7E7E7",
"C 	c #E5E5E5",
"D 	c #B3B3B3",
"E 	c #533E50",
"F 	c #D1D0D1",
"G 	c #E5E7E4",
"H 	c #CACDC7",
"I 	c #C0C3BD",
"J 	c #882A2A",
"K 	c #A3716F",
"L 	c #DADBD8",
"M 	c #EAEAEA",
"N 	c #B7B6B7",
"O 	c #4E3A4C",
"P 	c #6A5969",
"Q 	c #D9D9DA",
"R 	c #EDEEEC",
"S 	c #E5E7E3",
"T 	c #DDDFDA",
"U 	c #8E3E3D",
"V 	c #933534",
"W 	c #DADBD9",
"X 	c #E6E6E6",
"Y 	c #C1C0C1",
"Z 	c #60505E",
"` 	c #817381",
" .	c #E4E3E4",
"..	c #FDFDFC",
"+.	c #D3D5D1",
"@.	c #CACCC7",
"#.	c #C0C3BC",
"$.	c #936C69",
"%.	c #830A0A",
"&.	c #CAB4B2",
"*.	c #EAEBEA",
"=.	c #CDCCCD",
"-.	c #716270",
";.	c #948A94",
">.	c #DCDEDA",
",.	c #9A9A94",
"'.	c #8A1716",
").	c #A55251",
"!.	c #D9D9D9",
"~.	c #7D727D",
"{.	c #3F273D",
"].	c #ACA5AC",
"^.	c #FCFCFB",
"/.	c #E4E6E3",
"(.	c #D3D5D0",
"_.	c #CACCC6",
":.	c #9C9E99",
"<.	c #A15554",
"[.	c #890F0F",
"}.	c #C29090",
"|.	c #8C858C",
"1.	c #3F283D",
"2.	c #BDB9BD",
"3.	c #F9F9F9",
"4.	c #FBFCFB",
"5.	c #F4F5F4",
"6.	c #ECEDEB",
"7.	c #9D9E9A",
"8.	c #BBB1AE",
"9.	c #932121",
"0.	c #8E1515",
"a.	c #D4B4B4",
"b.	c #969296",
"c.	c #40273E",
"d.	c #3F263C",
"e.	c #C3C2C4",
"f.	c #FCFCFC",
"g.	c #E4E6E2",
"h.	c #C1C2BE",
"i.	c #C4A09F",
"j.	c #952121",
"k.	c #DFCCCC",
"l.	c #F2F2F2",
"m.	c #9B999B",
"n.	c #453043",
"o.	c #C8C7C8",
"p.	c #F4F4F3",
"q.	c #DBDDD9",
"r.	c #C9CCC6",
"s.	c #C0C2BC",
"t.	c #9D9F9A",
"u.	c #C1C3BE",
"v.	c #DBDCD9",
"w.	c #B8706F",
"x.	c #921919",
"y.	c #A03434",
"z.	c #E5DCDC",
"A.	c #A1A1A1",
"B.	c #442F42",
"C.	c #5C485A",
"D.	c #CAC9CA",
"E.	c #FAFAFA",
"F.	c #F3F4F3",
"G.	c #E4E5E2",
"H.	c #9DA09B",
"I.	c #C1C3BF",
"J.	c #E8E5E4",
"K.	c #A53E3E",
"L.	c #9E2828",
"M.	c #AB4A4A",
"N.	c #E7E4E4",
"O.	c #ADACAD",
"P.	c #564254",
"Q.	c #6F5E6E",
"R.	c #D2D1D2",
"S.	c #EBEDEA",
"T.	c #9EA09B",
"U.	c #DFCBCB",
"V.	c #9F2C2C",
"W.	c #AD3C3C",
"X.	c #B35A5A",
"Y.	c #E7E6E6",
"Z.	c #BBBABB",
"`.	c #665565",
" +	c #7F7180",
".+	c #DDDDDD",
"++	c #D2D4CF",
"@+	c #C9CBC6",
"#+	c #BFC2BC",
"$+	c #9EA09C",
"%+	c #CC9C9C",
"&+	c #AB3A3A",
"*+	c #B44646",
"=+	c #BC7070",
"-+	c #CACACB",
";+	c #726573",
">+	c #40273D",
",+	c #8F8590",
"'+	c #F2F3F2",
")+	c #EBECEA",
"!+	c #BEC2BB",
"~+	c #9FA19C",
"{+	c #C2C3BF",
"]+	c #DBDCDA",
"^+	c #EAEAE9",
"/+	c #B96666",
"(+	c #C05252",
"_+	c #AA3939",
":+	c #CFA8A8",
"<+	c #807681",
"[+	c #A099A0",
"}+	c #E3E4E1",
"|+	c #DBDCD8",
"1+	c #BEC1BB",
"2+	c #9FA19D",
"3+	c #C2C4C0",
"4+	c #E6E0E0",
"5+	c #AB3F3F",
"6+	c #C65454",
"7+	c #A83636",
"8+	c #DED2D2",
"9+	c #8F888F",
"0+	c #A9A6AA",
"a+	c #C9CBC5",
"b+	c #BEC1BA",
"c+	c #9FA29D",
"d+	c #DBC2C2",
"e+	c #AB3737",
"f+	c #C35050",
"g+	c #BF7171",
"h+	c #989498",
"i+	c #432C3F",
"j+	c #ACABAC",
"k+	c #F2F3F1",
"l+	c #C8CBC4",
"m+	c #A0A29D",
"n+	c #B34C4C",
"o+	c #CB5454",
"p+	c #AB3636",
"q+	c #E0DBDB",
"r+	c #9C9B9C",
"s+	c #4E384D",
"t+	c #AFAEAF",
"u+	c #F1F2F1",
"v+	c #DADCD8",
"w+	c #D1D3CF",
"x+	c #A1A29E",
"y+	c #C2C4C1",
"z+	c #E9EAE9",
"A+	c #CC9494",
"B+	c #BC4545",
"C+	c #B84343",
"D+	c #CE9F9F",
"E+	c #A4A3A4",
"F+	c #4D384C",
"G+	c #604D60",
"H+	c #B7B6B8",
"I+	c #F1F2F0",
"J+	c #C3C5C1",
"K+	c #DABFBF",
"L+	c #B44141",
"M+	c #C14242",
"N+	c #BD6363",
"O+	c #B0AEB0",
"P+	c #5E4C5E",
"Q+	c #3F273B",
"R+	c #6E5E6E",
"S+	c #C5C4C5",
"T+	c #E2E3E0",
"U+	c #DADBD7",
"V+	c #C7CBC4",
"W+	c #A1A49E",
"X+	c #C3C5C0",
"Y+	c #DECDCD",
"Z+	c #B33E3E",
"`+	c #BF3939",
" @	c #BA5252",
".@	c #BEBDBE",
"+@	c #6C5C6C",
"@@	c #40283D",
"#@	c #796C7A",
"$@	c #D6D5D6",
"%@	c #F4F5F3",
"&@	c #EEF0ED",
"*@	c #E8E9E7",
"=@	c #DDDEDB",
"-@	c #D0D3CD",
";@	c #C7CAC4",
">@	c #BEC0BA",
",@	c #A1A49F",
"'@	c #DCDDDA",
")@	c #ECECEB",
"!@	c #E8E0E0",
"~@	c #B23B3B",
"{@	c #BA2C2C",
"]@	c #B54444",
"^@	c #CECDCE",
"/@	c #786B79",
"(@	c #40273C",
"_@	c #867C87",
":@	c #EFEFEE",
"<@	c #D9DBD7",
"[@	c #A4A6A1",
"}@	c #D6D8D6",
"|@	c #F0F0EF",
"1@	c #E1E1E1",
"2@	c #E0E0E0",
"3@	c #DBD5D5",
"4@	c #B13838",
"5@	c #B41D1D",
"6@	c #B23A3A",
"7@	c #DCDCDC",
"8@	c #857C86",
"9@	c #3F283C",
"0@	c #938E94",
"a@	c #D7D7D7",
"b@	c #BDBDBD",
"c@	c #A5A5A5",
"d@	c #9F9F9F",
"e@	c #A4A4A3",
"f@	c #A6A8A5",
"g@	c #A6A7A6",
"h@	c #A6A7A5",
"i@	c #A5A5A4",
"j@	c #AAAAA9",
"k@	c #D9DAD8",
"l@	c #D8D9D7",
"m@	c #D4D4D3",
"n@	c #A9A9A9",
"o@	c #9E9F9E",
"p@	c #A3A4A2",
"q@	c #A4A5A2",
"r@	c #A78584",
"s@	c #AF3636",
"t@	c #AB0F0F",
"u@	c #AF3838",
"v@	c #A4A4A4",
"w@	c #B8B8B8",
"x@	c #928C93",
"y@	c #442E41",
"z@	c #9A979A",
"A@	c #B7B7B7",
"B@	c #A0A0A0",
"C@	c #A2A2A1",
"D@	c #A8AAA7",
"E@	c #B8B9B5",
"F@	c #C7C9C6",
"G@	c #CACBC6",
"H@	c #C7C9C4",
"I@	c #C5C8C3",
"J@	c #C7C9C3",
"K@	c #CBCDC7",
"L@	c #CED1CB",
"M@	c #C5C9C3",
"N@	c #A0A09F",
"O@	c #B1B2B1",
"P@	c #ACACAB",
"Q@	c #A0A09E",
"R@	c #C3C7C1",
"S@	c #C6C9C3",
"T@	c #C5C8C1",
"U@	c #C4C7C0",
"V@	c #B87674",
"W@	c #AB2020",
"X@	c #A60A0A",
"Y@	c #B14443",
"Z@	c #BABCB7",
"`@	c #ADAFAA",
" #	c #A1A39F",
".#	c #9D9E9C",
"+#	c #9F9F9E",
"@#	c #B4B4B4",
"##	c #989599",
"$#	c #4B3449",
"%#	c #9C9C9C",
"&#	c #ADADAD",
"*#	c #9E9E9E",
"=#	c #A2A3A1",
"-#	c #B6B8B4",
";#	c #CBCCC9",
">#	c #C7C8C3",
",#	c #C3C6C0",
"'#	c #C1C4BD",
")#	c #C2C5BE",
"!#	c #C7CAC3",
"~#	c #C8CCC5",
"{#	c #CACDC6",
"]#	c #CCCFC8",
"^#	c #CED2CA",
"/#	c #D4D7D0",
"(#	c #D7DAD4",
"_#	c #BABBB7",
":#	c #D6D9D2",
"<#	c #D2D6CE",
"[#	c #CED1CA",
"}#	c #B34B4A",
"|#	c #AA1D1D",
"1#	c #B35554",
"2#	c #BDC0B9",
"3#	c #BBBEB8",
"4#	c #BABCB6",
"5#	c #B8BAB5",
"6#	c #A9ABA6",
"7#	c #9D9E9B",
"8#	c #9D9D9D",
"9#	c #ACACAC",
"0#	c #9B9B9B",
"a#	c #5A4858",
"b#	c #939492",
"c#	c #B5B6B3",
"d#	c #C8CAC6",
"e#	c #C8C9C6",
"f#	c #C1C3BD",
"g#	c #C5C7C2",
"h#	c #C6C9C4",
"i#	c #C8CBC5",
"j#	c #CCCFC9",
"k#	c #CDD0CB",
"l#	c #B6B8B3",
"m#	c #A2A3A0",
"n#	c #91928E",
"o#	c #B3B6B0",
"p#	c #C4C1BB",
"q#	c #B13B3B",
"r#	c #B45856",
"s#	c #B03838",
"t#	c #B66D6A",
"u#	c #BDC0BA",
"v#	c #BCBEB8",
"w#	c #B9BCB6",
"x#	c #B8BAB4",
"y#	c #B6B9B3",
"z#	c #B5B7B1",
"A#	c #B3B5B0",
"B#	c #B1B4AE",
"C#	c #A5A7A3",
"D#	c #929391",
"E#	c #3E273B",
"F#	c #685967",
"G#	c #949492",
"H#	c #C1C2BF",
"I#	c #BEBFBC",
"J#	c #BABBB8",
"K#	c #B7B9B5",
"L#	c #B4B6B2",
"M#	c #B1B2AE",
"N#	c #A9ABA5",
"O#	c #A4A5A1",
"P#	c #A2A39F",
"Q#	c #A0A19E",
"R#	c #9FA09C",
"S#	c #9E9F9C",
"T#	c #AAACA7",
"U#	c #B7B9B4",
"V#	c #C2C5C0",
"W#	c #B2B4AF",
"X#	c #8B8C88",
"Y#	c #7A7479",
"Z#	c #695B6A",
"`#	c #5F4C61",
" $	c #8A8B87",
".$	c #AEB0AB",
"+$	c #BCBFB9",
"@$	c #B1B3AD",
"#$	c #A4A29D",
"$$	c #999591",
"%$	c #999A96",
"&$	c #9F8380",
"*$	c #A27371",
"=$	c #9A9C97",
"-$	c #9FA29C",
";$	c #A2A49F",
">$	c #A3A5A0",
",$	c #A5A7A1",
"'$	c #A6A8A3",
")$	c #A8AAA5",
"!$	c #ABADA8",
"~$	c #8E8E8B",
"{$	c #746A74",
"]$	c #888985",
"^$	c #878784",
"/$	c #858483",
"($	c #828081",
"_$	c #7F7C7E",
":$	c #7C767B",
"<$	c #777077",
"[$	c #726972",
"}$	c #6D616D",
"|$	c #6A5C6B",
"1$	c #685969",
"2$	c #675869",
"3$	c #675768",
"4$	c #6E636F",
"5$	c #7E797D",
"6$	c #838182",
"7$	c #6B596D",
"8$	c #5A425E",
"9$	c #523856",
"0$	c #878884",
"a$	c #7F7A7D",
"b$	c #6F6470",
"c$	c #675868",
"d$	c #695A6A",
"e$	c #6A5C6A",
"f$	c #6C606D",
"g$	c #716771",
"h$	c #766E76",
"i$	c #7B757A",
"j$	c #7F7B7D",
"k$	c #828080",
"l$	c #858482",
"m$	c #624B65",
"n$	c #67506B",
"o$	c #68516B",
"p$	c #513A50",
"q$	c #4A3348",
"r$	c #5D465E",
"s$	c #67506A",
"t$	c #654E69",
"u$	c #3E273C",
"v$	c #3F273C",
"w$	c #40293D",
"x$	c #412D3F",
"y$	c #483D46",
"z$	c #412B3F",
"A$	c #432B40",
"                                                                                                ",
"                                                                                                ",
"                                                                                                ",
"                                                                                                ",
"                                                                                                ",
"                                                                                                ",
"                                                                                                ",
"                            . . . . . . . .         + @ . @ # $ $ %                             ",
"                    . + & * = - ; > , ' ) ! ~ { ] ^ / ( _ : : ( < [ } | 1 2                     ",
"              | . 3 4 5 6 6 6 6 5 7 8 9 0 a b c d e f g = h i g g j h < 4 g k l m               ",
"          @ n 4 o 6 6 6 6 6 6 6 5 p 8 9 q r s t u v w x h j g y [ z A B C A i ( z | D           ",
"        E F 6 6 6 6 6 6 6 6 6 6 5 p 8 G q r H I J K L x h i g y M z A B C * 3 * z < N O         ",
"        P Q 6 6 6 6 6 6 6 6 6 6 5 p R S T r H I U V W x j i g [ M z A X C * 3 3 3 h Y Z         ",
"        `  .6 6 6 6 6 6 6 6 6 6 ..' R S T +.@.#.$.%.&.*.j i g [ M z B X C 3 3 3 3 g =.-.        ",
"        ;.j 6 6 6 6 6 6 6 6 6 6 ..' R S >.+.@.#.,.'.).*.j i y [ M A B X * 3 3 3 3 [ !.~.        ",
"      {.].4 6 6 6 6 6 6 6 6 6 6 ^.' R /.>.(._.#.:.<.[.}.j g y [ z A B X * 3 3 3 3 z n |.{.      ",
"      1.2.3.6 6 6 6 6 6 6 6 6 6 4.5.6./.>.(._.#.7.8.9.0.a.g y M z A B C * 3 3 3 3 X M b.c.      ",
"      d.e.f.6 6 6 6 6 6 6 6 6 6 4.5.6.g.>.(._.#.7.h.i.0.j.k.y M z A X C * 3 3 3 3 * l.m.d.      ",
"      n.o.6 6 6 6 6 6 6 6 6 6 6 4.p.6.g.q.(.r.s.t.u.v.w.x.y.z.M z B X C 3 3 3 3 3 3 < A.B.      ",
"      C.D.6 6 6 6 6 6 6 6 6 6 6 E.F.6.G.q.(.r.s.H.I.v.J.K.L.M.N.A B X C 3 3 3 3 3 3 = O.P.      ",
"      Q.R.6 6 6 6 6 6 6 6 6 6 o E.F.S.a q.(.r.s.T.I.v.*.U.V.W.X.Y.B X * 3 3 3 3 3 3 j Z.`.      ",
"       +.+6 6 6 6 6 6 6 6 6 6 o E.F.S.a q.++@+#+$+I.v.x g %+&+*+=+B C * 3 3 3 3 3 3 g -+;+      ",
"    >+,+z 6 6 6 6 6 6 6 6 6 6 o E.'+)+a v.++@+!+~+{+]+^+g y /+(+_+:+C * 3 3 3 3 3 3 M !.<+>+    ",
"    >+[+= 6 6 6 6 6 6 6 6 6 6 o 3.'+)+}+|+++@+1+2+3+v.^+g [ 4+5+6+7+8+* 3 3 3 3 3 3 A * 9+>+    ",
"    {.0+_ 6 6 6 6 6 6 6 6 6 6 5 3.'+)+}+|+++a+b+c+3+v.^+y [ M d+e+f+g+3 3 3 3 3 3 3 X y h+{.    ",
"    i+j+f.6 6 6 6 6 6 6 6 6 o 5 3.k+b }+|+++l+b+m+3+]+M y [ M A n+o+p+q+3 3 3 3 3 3 * < r+i+    ",
"    s+t+6 6 6 6 6 6 6 6 6 6 o 5 3.u+b }+v+w+l+b+x+y+]+z+y [ z A A+B+C+D+3 3 3 3 3 3 3 < E+F+    ",
"    G+H+6 6 6 6 6 6 6 6 6 6 o 5 - I+b }+v+w+l+b+x+J+]+z+y M z A K+L+M+N+3 3 3 3 3 3 3 = O+P+    ",
"  Q+R+S+6 6 6 6 6 6 6 6 6 6 o f.- I+b T+U+w+V+b+W+X+]+z+y M z A Y+Z+`+ @3 3 3 3 3 3 3 j .@+@Q+  ",
"  @@#@$@6 6 6 6 6 6 6 6 6 6 o 5 E.%@&@*@=@-@;@>@,@J+'@)@j j i g !@~@{@]@3 3 3 3 3 3 3 y ^@/@@@  ",
"  (@_@C 6 6 6 6 6 6 6 6 E.i C C C C X X :@6.<@s.[@}@|@j 3 1@2@} 3@4@5@6@( h g z * 3 3 M 7@8@(@  ",
"  9@0@j 6 6 6 E.[ a@b@c@d@e@f@g@h@h@h@i@d@j@k@G.l@m@n@o@p@q@p@p@r@s@t@u@v@w@. 1@h h [ M X x@9@  ",
"  y@z@_ - 2@A@B@C@D@E@F@G@H@I@J@;@l+r.K@L@M@N@O@P@Q@R@K@l+S@T@U@V@W@X@Y@Z@`@ #.#+#@#a@i g ##y@  ",
"  $#%#&#*#=#-#;#>#,#'##+I )#,#T@!#~#{#]#^#/#(#Z@_#:#<#[#]#{#~#!#}#W@|#1#1+2#3#4#5#6#7#8#9#0#$#  ",
"  a#b#c#d#e#X+#+f#X+g#h#i#@+H K@t ~#l+j#k#l#m#n#n#x+o#H {#!#S@p#q#r#s#t#u#v#w#x#y#z#A#B#C#D#a#  ",
"E#F#G#H#I#J#K#L#M#`@N#O#P#Q#R#S#T#U#V#W#X#Y#Z#`#`#Z#Y# $.$+$@$#$$$%$&$*$=$T.-$;$>$,$'$)$!$~$F#E#",
"1.{$]$^$/$($_$:$<$[$}$|$Z#1$2$3$4$5$^$6$7$8$9$9$9$9$8$7$6$0$a$b$c$c$1$d$e$f$g$h$i$j$k$l$^$]${$1.",
"9@m$n$n$n$n$n$n$n$n$n$n$n$n$n$n$n$n$o$p$q$r$s$t$t$s$r$q$p$o$n$n$n$n$n$n$n$n$n$n$n$n$n$n$n$n$m$9@",
"u$v$w$w$w$w$w$w$w$w$w$w$w$w$w$w$w$w$@@x$y$z$1.A$A$1.z$y$x$@@w$w$w$w$w$w$w$w$w$w$w$w$w$w$w$w$v$u$",
"                                                                                                ",
"                                                                                                ",
"                                                                                                ",
"                                                                                                ",
"                                                                                                ",
"                                                                                                ",
"                                                                                                ",
"                                                                                                ",
"                                                                                                "};
