/* XPM */
static char * diff_xpm[] = {
"48 48 886 2",
"  	c None",
". 	c #C7C7C7",
"+ 	c #DADADA",
"@ 	c #D9D9D9",
"# 	c #D8D8D8",
"$ 	c #DBDBDB",
"% 	c #DCDCDC",
"& 	c #DDDDDD",
"* 	c #DEDEDE",
"= 	c #E7E7E7",
"- 	c #9D9D9D",
"; 	c #E2E2E2",
"> 	c #E0E0E0",
", 	c #E1E1E1",
"' 	c #E4E4E4",
") 	c #E5E5E5",
"! 	c #E8E8E8",
"~ 	c #E9E9E9",
"{ 	c #EAEAEA",
"] 	c #EBEBEB",
"^ 	c #ECECEC",
"/ 	c #EDEDED",
"( 	c #EEEEEE",
"_ 	c #EFEFEF",
": 	c #FCFCFC",
"< 	c #ACACAC",
"[ 	c #D6D6D6",
"} 	c #DFDFDF",
"| 	c #DDDCDC",
"1 	c #DEDDDD",
"2 	c #E2E1E0",
"3 	c #E3E3E2",
"4 	c #E6E6E6",
"5 	c #EAEBEB",
"6 	c #F0EEED",
"7 	c #EDECEC",
"8 	c #EDEDEC",
"9 	c #FBFBFB",
"0 	c #AAAAAA",
"a 	c #DDECEC",
"b 	c #DEE4E4",
"c 	c #DFE2E2",
"d 	c #E0ECEC",
"e 	c #E1DFDF",
"f 	c #E3E4E4",
"g 	c #E3F5F5",
"h 	c #E6F8F9",
"i 	c #E6ECEC",
"j 	c #F1F1F1",
"k 	c #EBEBEC",
"l 	c #FAF6F2",
"m 	c #EBECED",
"n 	c #E8E9EB",
"o 	c #F8F8F8",
"p 	c #F2F2F2",
"q 	c #F7F7F7",
"r 	c #ABABAB",
"s 	c #DDE0E1",
"t 	c #DF8E8B",
"u 	c #DFBFBE",
"v 	c #E1D0D0",
"w 	c #E2A2A0",
"x 	c #E3E6E7",
"y 	c #E4DADA",
"z 	c #E38885",
"A 	c #E6E1E1",
"B 	c #E5807D",
"C 	c #E7C9C8",
"D 	c #ECEEEF",
"E 	c #D5D5D5",
"F 	c #C0C1C0",
"G 	c #EDECED",
"H 	c #E5E6E5",
"I 	c #D4D3D2",
"J 	c #F7F6F2",
"K 	c #BFCEDE",
"L 	c #3473AE",
"M 	c #E9ECEE",
"N 	c #F2F2F1",
"O 	c #F2F3F3",
"P 	c #C0C1BF",
"Q 	c #E6E5E6",
"R 	c #E2E3E2",
"S 	c #C4C5C3",
"T 	c #F3F3F3",
"U 	c #FDFDFD",
"V 	c #DFDEDE",
"W 	c #DFE0E0",
"X 	c #E17E7B",
"Y 	c #E17F7B",
"Z 	c #E2F5F5",
"` 	c #E39B98",
" .	c #E5D9D8",
"..	c #E4ACAA",
"+.	c #E47E7A",
"@.	c #E7B9B8",
"#.	c #E67E7A",
"$.	c #E6928F",
"%.	c #F5F9F9",
"&.	c #AEAFAD",
"*.	c #B0B0AE",
"=.	c #C8C8C7",
"-.	c #B9BAB8",
";.	c #B5B6B5",
">.	c #C2C1BD",
",.	c #C2BFBA",
"'.	c #7599BA",
").	c #3079BD",
"!.	c #1C5F9F",
"~.	c #A4A5A3",
"{.	c #E4E3E3",
"].	c #F6F6F6",
"^.	c #A5A7A4",
"/.	c #BABBB9",
"(.	c #BFC0BE",
"_.	c #F4F4F5",
":.	c #FEFEFE",
"<.	c #E1E0E0",
"[.	c #E0E4E3",
"}.	c #E1726E",
"|.	c #E3A5A3",
"1.	c #E4716F",
"2.	c #E6C7C5",
"3.	c #E7C8C6",
"4.	c #E46A66",
"5.	c #E9DCDC",
"6.	c #E77D7B",
"7.	c #ECBBB8",
"8.	c #EAEDEC",
"9.	c #979896",
"0.	c #A7A8A6",
"a.	c #BEBEBD",
"b.	c #A5A6A4",
"c.	c #DBD8D3",
"d.	c #B8B7B4",
"e.	c #346EA3",
"f.	c #468ACC",
"g.	c #86C3FC",
"h.	c #20629F",
"i.	c #B7B9B8",
"j.	c #E0E0DF",
"k.	c #9FA09E",
"l.	c #A0A19F",
"m.	c #E4E6E4",
"n.	c #A2A3A1",
"o.	c #F4F4F4",
"p.	c #FFFFFF",
"q.	c #AAAAAB",
"r.	c #D7D7D7",
"s.	c #E2E3E3",
"t.	c #E3E5E5",
"u.	c #E4EBEB",
"v.	c #E5E1E1",
"w.	c #E7E3E2",
"x.	c #E8E0E0",
"y.	c #E8ECEB",
"z.	c #EAEDED",
"A.	c #EBEDED",
"B.	c #ECDEDE",
"C.	c #EEF4F4",
"D.	c #F8F7F8",
"E.	c #FAFAFA",
"F.	c #F2F0EC",
"G.	c #CED9E4",
"H.	c #1C60A1",
"I.	c #599CDB",
"J.	c #8FC9FF",
"K.	c #72B6F4",
"L.	c #3173B1",
"M.	c #F7F6F6",
"N.	c #FEFCFA",
"O.	c #FAF9F7",
"P.	c #F7F6F4",
"Q.	c #F7F5F4",
"R.	c #FCFAF9",
"S.	c #AEACAA",
"T.	c #E5E6E6",
"U.	c #E7E8E8",
"V.	c #E8EBEB",
"W.	c #E9EBEB",
"X.	c #ECEDEE",
"Y.	c #EEF2F2",
"Z.	c #EFEEEE",
"`.	c #F0F1F1",
" +	c #F6F5F3",
".+	c #FFFEF9",
"++	c #94B3CF",
"@+	c #3175B6",
"#+	c #77B4EC",
"$+	c #8AC5FB",
"%+	c #75B6F4",
"&+	c #6AB2F5",
"*+	c #1F65A8",
"=+	c #94B2CE",
"-+	c #9AB6D1",
";+	c #9BB7D2",
">+	c #9CB7D2",
",+	c #9DB9D3",
"'+	c #9BB6D1",
")+	c #9AB7D1",
"!+	c #A2BED8",
"~+	c #6583A1",
"{+	c #002F5E",
"]+	c #E5E4E4",
"^+	c #E6EBEC",
"/+	c #EAEFEF",
"(+	c #ECEAEA",
"_+	c #EDF4F4",
":+	c #F0F7F7",
"<+	c #F1F2F3",
"[+	c #F0F0F0",
"}+	c #F7F5F5",
"|+	c #F6F7F6",
"1+	c #487DB1",
"2+	c #3B80C1",
"3+	c #8DC4F8",
"4+	c #81BDF6",
"5+	c #74B6F4",
"6+	c #69B1F3",
"7+	c #5FACF3",
"8+	c #4191DC",
"9+	c #3186D6",
"0+	c #2A83D7",
"a+	c #227FD7",
"b+	c #1B7BD5",
"c+	c #1277D5",
"d+	c #1076D5",
"e+	c #1076D4",
"f+	c #137AD8",
"g+	c #187EDF",
"h+	c #187FE1",
"i+	c #1982E5",
"j+	c #0C589F",
"k+	c #E6E7E7",
"l+	c #E6CBC9",
"m+	c #E9E2E2",
"n+	c #E9DFDF",
"o+	c #EAD2D3",
"p+	c #EDEFEF",
"q+	c #EDCBCA",
"r+	c #F1F4F4",
"s+	c #EEC7C6",
"t+	c #F1E7E8",
"u+	c #E0E8EE",
"v+	c #3875AF",
"w+	c #5898D5",
"x+	c #9DD1FF",
"y+	c #7EBBF4",
"z+	c #5FABF2",
"A+	c #54A6F1",
"B+	c #4EA4F5",
"C+	c #449FF4",
"D+	c #3999F3",
"E+	c #2D93F2",
"F+	c #228DF2",
"G+	c #1E8BF2",
"H+	c #1D8AF1",
"I+	c #1D8BF2",
"J+	c #1E8DF5",
"K+	c #0C59A0",
"L+	c #D9DADA",
"M+	c #E8E7E7",
"N+	c #E7E9E9",
"O+	c #E57D7A",
"P+	c #E79491",
"Q+	c #E99C99",
"R+	c #EDD9D8",
"S+	c #ECBCBA",
"T+	c #EA7D79",
"U+	c #EEC0BF",
"V+	c #EA6963",
"W+	c #F8AFAB",
"X+	c #B0CDE4",
"Y+	c #236CB1",
"Z+	c #77B1E7",
"`+	c #94C9FB",
" @	c #7DBBF4",
".@	c #4AA0F1",
"+@	c #3F9BEF",
"@@	c #3595EF",
"#@	c #2A90ED",
"$@	c #1F8AED",
"%@	c #1C88ED",
"&@	c #1C88EE",
"*@	c #1D8AF2",
"=@	c #0C59A1",
"-@	c #DADBDB",
";@	c #EAE8E8",
">@	c #E67571",
",@	c #E88F8B",
"'@	c #EDEEEE",
")@	c #E98683",
"!@	c #F0ECEB",
"~@	c #EEBFBC",
"{@	c #E96E69",
"]@	c #F2D7D5",
"^@	c #EFA2A0",
"/@	c #EE9C97",
"(@	c #77868F",
"_@	c #0A4B8A",
":@	c #61A5E5",
"<@	c #89C4FB",
"[@	c #73B5F2",
"}@	c #55A6F1",
"|@	c #409BEF",
"1@	c #1C89EE",
"2@	c #EBEBEA",
"3@	c #E9BAB8",
"4@	c #EDE3E2",
"5@	c #EEDDDD",
"6@	c #ECACAB",
"7@	c #EECAC9",
"8@	c #F2EAEA",
"9@	c #EFBBB9",
"0@	c #F4F1F1",
"a@	c #EF9C9B",
"b@	c #F7F3F3",
"c@	c #BFBDB9",
"d@	c #686664",
"e@	c #1F5488",
"f@	c #428CD0",
"g@	c #6FB7F9",
"h@	c #60ACF3",
"i@	c #55A5F1",
"j@	c #4AA1F1",
"k@	c #2B91F0",
"l@	c #208BEF",
"m@	c #1C89EF",
"n@	c #1C89F0",
"o@	c #1C8AF1",
"p@	c #1D8CF5",
"q@	c #EEF8F8",
"r@	c #F0F2F2",
"s@	c #F2FDFD",
"t@	c #F3F9F9",
"u@	c #F4F6F6",
"v@	c #F6FFFF",
"w@	c #F6F7F7",
"x@	c #F8FFFF",
"y@	c #FAFCFC",
"z@	c #E4E2E1",
"A@	c #908C89",
"B@	c #335676",
"C@	c #226EB7",
"D@	c #4CA0EE",
"E@	c #4EA4F4",
"F@	c #3F9AEF",
"G@	c #2B91EF",
"H@	c #1674CA",
"I@	c #106EC6",
"J@	c #106EC7",
"K@	c #106FC7",
"L@	c #1270C9",
"M@	c #1572CA",
"N@	c #1472CA",
"O@	c #1473CD",
"P@	c #0C58A0",
"Q@	c #F0EFEF",
"R@	c #F5F5F5",
"S@	c #F9F8F8",
"T@	c #F5F5F4",
"U@	c #A8A4A0",
"V@	c #54606B",
"W@	c #165C9F",
"X@	c #328EE4",
"Y@	c #3A9BF7",
"Z@	c #2B8FED",
"`@	c #1E8BF0",
" #	c #165C9E",
".#	c #586572",
"+#	c #596774",
"@#	c #586674",
"##	c #586774",
"$#	c #586675",
"%#	c #5E6D7A",
"&#	c #364654",
"*#	c #001223",
"=#	c #04182D",
"-#	c #03172A",
";#	c #F4F4F3",
">#	c #F5F6F6",
",#	c #F6F8F8",
"'#	c #F8F5F4",
")#	c #F9FBFB",
"!#	c #FBF4F3",
"~#	c #C4C1BE",
"{#	c #707274",
"]#	c #1C568F",
"^#	c #1A7AD3",
"/#	c #218EF3",
"(#	c #1888EF",
"_#	c #296DAD",
":#	c #E1DEDB",
"<#	c #E3E0DD",
"[#	c #E1DFDC",
"}#	c #E3E0DE",
"|#	c #E3DFDD",
"1#	c #E2E0DD",
"2#	c #E2DEDC",
"3#	c #EBE9E7",
"4#	c #95928F",
"5#	c #EFF2F2",
"6#	c #EA8885",
"7#	c #EEB5B2",
"8#	c #F3E4E4",
"9#	c #EEA3A1",
"0#	c #F5E4E3",
"a#	c #F5D5D4",
"b#	c #EE8682",
"c#	c #F7D4D3",
"d#	c #ED716D",
"e#	c #F6C5C3",
"f#	c #D9DAD9",
"g#	c #C1C2C1",
"h#	c #D7D8D7",
"i#	c #BAB8B4",
"j#	c #676461",
"k#	c #315578",
"l#	c #106AC0",
"m#	c #1686EF",
"n#	c #2A6EB0",
"o#	c #DDDEDE",
"p#	c #C0C2C0",
"q#	c #EBECEC",
"r#	c #E0E1E0",
"s#	c #BDBEBC",
"t#	c #FDFDFE",
"u#	c #ADADAE",
"v#	c #F1F0F0",
"w#	c #F1EFEF",
"x#	c #EB8D89",
"y#	c #EB8885",
"z#	c #F0A9A6",
"A#	c #F8F4F3",
"B#	c #F3B7B5",
"C#	c #F08B87",
"D#	c #F7CDCB",
"E#	c #F3A6A2",
"F#	c #F19390",
"G#	c #ACADAB",
"H#	c #B7B8B6",
"I#	c #D2D3D1",
"J#	c #CBCCCB",
"K#	c #D1D2D0",
"L#	c #74726E",
"M#	c #394B5B",
"N#	c #0E60AE",
"O#	c #125A9E",
"P#	c #A7A8A4",
"Q#	c #E3E3E1",
"R#	c #A8A9A7",
"S#	c #B4B5B3",
"T#	c #F9F9F9",
"U#	c #A9A9A9",
"V#	c #F3F1F1",
"W#	c #F2F5F5",
"X#	c #EB8B87",
"Y#	c #F1C5C3",
"Z#	c #F5E1E1",
"`#	c #ED8280",
" $	c #F6CDCB",
".$	c #F7DEDD",
"+$	c #EF8480",
"@$	c #FAEEED",
"#$	c #F08A88",
"$$	c #FAD5D4",
"%$	c #ACADAA",
"&$	c #B9B9B8",
"*$	c #D5D4D4",
"=$	c #ADAEAD",
"-$	c #DBDCDB",
";$	c #BCBDBB",
">$	c #CBCCCA",
",$	c #9E9892",
"'$	c #495056",
")$	c #326A9D",
"!$	c #C8CBCD",
"~$	c #E9E8E8",
"{$	c #E9EAE8",
"]$	c #B0B1AE",
"^$	c #B5B5B4",
"/$	c #BBBCBA",
"($	c #F3F2F2",
"_$	c #F4FAFA",
":$	c #F6FBFC",
"<$	c #F9FAFA",
"[$	c #FAF6F7",
"}$	c #FBFDFD",
"|$	c #FCFFFF",
"1$	c #FCFDFD",
"2$	c #FCF5F5",
"3$	c #FDFFFF",
"4$	c #F9FAF9",
"5$	c #C9C6C2",
"6$	c #C3C2C1",
"7$	c #FAF9FA",
"8$	c #FAFBFB",
"9$	c #FBFCFC",
"0$	c #FDFEFE",
"a$	c #F8F8F7",
"b$	c #F4F5F5",
"c$	c #F7FAFA",
"d$	c #F8FAFB",
"e$	c #FBF7F7",
"f$	c #FBF4F4",
"g$	c #F6F5F5",
"h$	c #F5F7F7",
"i$	c #F0ACAB",
"j$	c #F6DAD9",
"k$	c #F9E6E6",
"l$	c #F5BDBC",
"m$	c #FBF6F6",
"n$	c #FBECEB",
"o$	c #F7B0AC",
"p$	c #DCB5B7",
"q$	c #B23F40",
"r$	c #F2D7D7",
"s$	c #D2D3D2",
"t$	c #E0E1E1",
"u$	c #F6F6F5",
"v$	c #F5F4F5",
"w$	c #F1F0F1",
"x$	c #C6C7C5",
"y$	c #E3E3E3",
"z$	c #F7F1F1",
"A$	c #EF928F",
"B$	c #F08E8B",
"C$	c #FDF5F4",
"D$	c #F4AEAA",
"E$	c #F9DAD9",
"F$	c #F6B4B1",
"G$	c #F59D99",
"H$	c #A96162",
"I$	c #AE1B21",
"J$	c #B22D33",
"K$	c #F0D4D5",
"L$	c #C8D7D5",
"M$	c #C6C5C4",
"N$	c #D9D8D8",
"O$	c #B1B1B0",
"P$	c #B4B4B3",
"Q$	c #B3B4B3",
"R$	c #C1C2C0",
"S$	c #C5C6C4",
"T$	c #AFB1AF",
"U$	c #D4D5D4",
"V$	c #9A9A99",
"W$	c #E1E2E1",
"X$	c #C6C6C6",
"Y$	c #DDDEDD",
"Z$	c #A1A1A0",
"`$	c #F0EFF0",
" %	c #F7F4F4",
".%	c #ED7F7B",
"+%	c #F2A5A3",
"@%	c #FBEBEB",
"#%	c #F08784",
"$%	c #F8CECD",
"%%	c #F2827D",
"&%	c #A66F70",
"*%	c #BF2F35",
"=%	c #F37A7E",
"-%	c #B01B21",
";%	c #955F60",
">%	c #A6AEAC",
",%	c #B5B7B6",
"'%	c #CACBC9",
")%	c #B1B2B0",
"!%	c #AAACAA",
"~%	c #D5D6D5",
"{%	c #DEDFDF",
"]%	c #929390",
"^%	c #858784",
"/%	c #DFE0DF",
"(%	c #DFE7E7",
"_%	c #FDE7E6",
":%	c #FFFAFA",
"<%	c #FDDBDB",
"[%	c #FFECEC",
"}%	c #FFEEEC",
"|%	c #AB9697",
"1%	c #BA1F26",
"2%	c #FE8387",
"3%	c #F58286",
"4%	c #C63B41",
"5%	c #B85C5F",
"6%	c #DADCDB",
"7%	c #DBDBDA",
"8%	c #661417",
"9%	c #BB7F81",
"0%	c #CA9093",
"a%	c #CA8F91",
"b%	c #CB9193",
"c%	c #CB9194",
"d%	c #CC9194",
"e%	c #CC9093",
"f%	c #CC8F92",
"g%	c #CF9598",
"h%	c #9A4B4E",
"i%	c #B71F26",
"j%	c #FA7177",
"k%	c #F4767B",
"l%	c #F9868A",
"m%	c #DA5E62",
"n%	c #A82529",
"o%	c #E8D5D6",
"p%	c #F9FFFF",
"q%	c #BA1017",
"r%	c #DE1820",
"s%	c #DA161E",
"t%	c #DB151D",
"u%	c #CC030C",
"v%	c #C90008",
"w%	c #C90009",
"x%	c #C9030A",
"y%	c #C90911",
"z%	c #C91017",
"A%	c #C9161D",
"B%	c #CF252C",
"C%	c #E0474C",
"D%	c #F56368",
"E%	c #F36B71",
"F%	c #F3757A",
"G%	c #FC8C91",
"H%	c #EA757A",
"I%	c #A7161C",
"J%	c #D5AAAC",
"K%	c #F1F7F7",
"L%	c #D4D4D4",
"M%	c #D1D1D1",
"N%	c #D0D0D0",
"O%	c #CFCFCF",
"P%	c #BC1118",
"Q%	c #F91E26",
"R%	c #F21D25",
"S%	c #F31E26",
"T%	c #F3242C",
"U%	c #F43137",
"V%	c #F53B42",
"W%	c #F6474D",
"X%	c #F44E54",
"Y%	c #F1565B",
"Z%	c #F26166",
"`%	c #F36B70",
" &	c #F37479",
".&	c #F9888D",
"+&	c #F4878B",
"@&	c #BD373C",
"#&	c #BF6D70",
"$&	c #DDE1E0",
"%&	c #EAF0F0",
"&&	c #BFBFBF",
"*&	c #B6B7B6",
"=&	c #B0B0B0",
"-&	c #C1C1C1",
";&	c #D2D2D2",
">&	c #A8A8A8",
",&	c #BA1118",
"'&	c #F41D25",
")&	c #ED1C24",
"!&	c #ED2128",
"~&	c #EE2C33",
"{&	c #EF363D",
"]&	c #EF4148",
"^&	c #F04B52",
"/&	c #F1565C",
"(&	c #F26167",
"_&	c #F4757B",
":&	c #F58186",
"<&	c #FA9397",
"[&	c #DA6368",
"}&	c #A42126",
"|&	c #C6B4B4",
"1&	c #BBBDBC",
"2&	c #D3D3D3",
"3&	c #C5C5C5",
"4&	c #8F908E",
"5&	c #ACABAB",
"6&	c #848683",
"7&	c #9E9E9E",
"8&	c #C2C2C2",
"9&	c #A6A6A6",
"0&	c #ED2129",
"a&	c #F36A70",
"b&	c #F5777C",
"c&	c #F88388",
"d&	c #CF4A50",
"e&	c #8E2024",
"f&	c #A79F9E",
"g&	c #9B9E9C",
"h&	c #8E8F8D",
"i&	c #ADAEAC",
"j&	c #B3B3B3",
"k&	c #868685",
"l&	c #858584",
"m&	c #979797",
"n&	c #7E7F7D",
"o&	c #9C9C9C",
"p&	c #FA1F27",
"q&	c #F31D25",
"r&	c #F31D26",
"s&	c #F4232A",
"t&	c #F12D34",
"u&	c #EE373D",
"v&	c #F04B51",
"w&	c #F8686C",
"x&	c #F06067",
"y&	c #AE2228",
"z&	c #7E4143",
"A&	c #A4AEAD",
"B&	c #C9CDCC",
"C&	c #B2B2B1",
"D&	c #BDBEBD",
"E&	c #A8A9A8",
"F&	c #9C9D9C",
"G&	c #878787",
"H&	c #7D7E7D",
"I&	c #7A7B7A",
"J&	c #767776",
"K&	c #8C8D8C",
"L&	c #9B9B9B",
"M&	c #BCBCBC",
"N&	c #666666",
"O&	c #B91016",
"P&	c #D2151D",
"Q&	c #CE141C",
"R&	c #D0131C",
"S&	c #C90C14",
"T&	c #C80B12",
"U&	c #C80A12",
"V&	c #C40B13",
"W&	c #D41B22",
"X&	c #F02D34",
"Y&	c #EF4147",
"Z&	c #F85259",
"`&	c #E23D44",
" *	c #950C12",
".*	c #8A7475",
"+*	c #D4D9D9",
"@*	c #C8C8C8",
"#*	c #BBBBBB",
"$*	c #AEAEAE",
"%*	c #A0A0A0",
"&*	c #949494",
"**	c #929292",
"=*	c #B2B2B2",
"-*	c #CCCCCC",
";*	c #707070",
">*	c #3B0405",
",*	c #330204",
"'*	c #330405",
")*	c #30090B",
"!*	c #6C4C4E",
"~*	c #765859",
"{*	c #755758",
"]*	c #765758",
"^*	c #775859",
"/*	c #745B5C",
"(*	c #764648",
"_*	c #BD0A12",
":*	c #F3222A",
"<*	c #EF2D34",
"[*	c #F2373E",
"}*	c #CF2329",
"|*	c #861A1D",
"1*	c #979898",
"2*	c #E1E9E9",
"3*	c #E2E1E1",
"4*	c #CBCBCB",
"5*	c #BEBEBE",
"6*	c #AFAFAF",
"7*	c #989898",
"8*	c #808080",
"9*	c #171E1E",
"0*	c #BDC6C6",
"a*	c #D9E2E1",
"b*	c #D8E1E0",
"c*	c #D9E6E6",
"d*	c #D9E3E3",
"e*	c #D9E6E5",
"f*	c #D9E1E1",
"g*	c #DCEFEF",
"h*	c #9A8889",
"i*	c #BB040B",
"j*	c #F81E26",
"k*	c #ED1D26",
"l*	c #B81218",
"m*	c #8B484B",
"n*	c #B8BFBF",
"o*	c #E9EEED",
"p*	c #C4C4C4",
"q*	c #B5B5B5",
"r*	c #8C8C8C",
"s*	c #797979",
"t*	c #FEFDFD",
"u*	c #F7B8B5",
"v*	c #FDEBEA",
"w*	c #F9C4C3",
"x*	c #FFF9F9",
"y*	c #FAB6B3",
"z*	c #A99192",
"A*	c #BD030A",
"B*	c #EA151D",
"C*	c #9B080E",
"D*	c #7D6162",
"E*	c #B9C1C0",
"F*	c #F0F0F1",
"G*	c #BCBDBD",
"H*	c #858585",
"I*	c #828282",
"J*	c #FCF2F1",
"K*	c #EE807C",
"L*	c #F1918E",
"M*	c #FEF1F1",
"N*	c #F49F9C",
"O*	c #FAD3D3",
"P*	c #F6B7B5",
"Q*	c #F28581",
"R*	c #A86A6A",
"S*	c #AA0108",
"T*	c #93181D",
"U*	c #A19E9F",
"V*	c #B9C3C0",
"W*	c #B4B4B2",
"X*	c #DADBDA",
"Y*	c #A3A4A3",
"Z*	c #A6A7A5",
"`*	c #9C9D9B",
" =	c #ABABA9",
".=	c #A6A6A5",
"+=	c #8D8D8B",
"@=	c #919191",
"#=	c #6D6E6D",
"$=	c #9A9A9A",
"%=	c #F3A29F",
"&=	c #FCEBEB",
"*=	c #F18B89",
"==	c #FCE2E2",
"-=	c #F7C8C6",
";=	c #F38682",
">=	c #A96E6F",
",=	c #820609",
"'=	c #B69392",
")=	c #F6FCFC",
"!=	c #9C9B99",
"~=	c #A8A8A7",
"{=	c #989A97",
"]=	c #969795",
"^=	c #80817F",
"/=	c #848483",
"(=	c #7F7F7E",
"_=	c #939393",
":=	c #FAE5E4",
"<=	c #FDF6F6",
"[=	c #FCF4F4",
"}=	c #FADBDB",
"|=	c #FCE8E8",
"1=	c #FCF8F8",
"2=	c #FCE4E4",
"3=	c #B5B4B4",
"4=	c #D1BCBB",
"5=	c #FAF8F8",
"6=	c #CFCFCE",
"7=	c #D8D9D9",
"8=	c #C0C0C0",
"9=	c #B1B1B1",
"0=	c #CECECE",
"a=	c #FEFFFF",
"b=	c #FBFEFE",
"c=	c #E6E6E7",
"d=	c #B4B4B4",
"e=	c #A4A4A4",
"f=	c #A5A5A5",
"g=	c #8D8D8D",
"h=	c #171717",
"i=	c #A3A3A3",
"j=	c #212121",
"k=	c #CDCDCD",
"l=	c #1B1B1B",
"m=	c #1F1F1F",
"n=	c #191919",
"o=	c #1C1C1C",
"p=	c #1E1E1E",
"q=	c #202020",
"r=	c #222222",
"s=	c #252525",
"                                                                                                ",
"                                                                                                ",
"              . + @ @ @ @ @ # @ + + + + $ $ % % % & % % & & & & & & * * * * * * = -             ",
"              @ ; > > > > > > , ; ' ) ) = = ! ~ { { ] ^ / / / ( ( ( _ _ _ _ _ _ : <             ",
"              [ } & | | & 1 > > 2 ; 3 ' ) 4 4 = ! ~ ~ { ] 5 6 7 ^ 8 ^ / / / / / 9 0             ",
"              [ } | a b c d e f g ) h i 4 ^ j ! ~ ^ ] j k l m n _ ( o j p q _ ( 9 r             ",
"              [ } s t u v w x y z A B C D E F _ G H G I J K L M N O P Q R S T j U r             ",
"              [ V W X Y Z `  ...+.@.#.$.%.&.*.=.-.;.>.,.'.).!.~.{.].^./.o (._.T :.0             ",
"              [ <.[.}.|.y 1.2.3.4.5.6.7.8.9.0.a.b.c.d.e.f.g.h.i.j.) k.l.m.n.q o.p.q.            ",
"              r.s.; t.u.v.w.x.y.z.A.B.C.8 D.E.].F.G.H.I.J.K.L.M.N.O.p.p.P.Q.R.R.p.S.            ",
"              # ' {.T.4 U.V.W.] X./ Y.Z.j `. +.+++@+#+$+%+&+*+=+-+-+-+;+>+,+'+)+!+~+{+          ",
"              # 4 ]+^+! W./+(+^ _+Z.:+<+[+}+|+1+2+3+4+5+6+7+8+9+0+a+b+c+d+d+d+d+e+f+g+h+i+j+    ",
"              @ = k+l+m+n+o+p+( q+r+s+t+O.u+v+w+x+y+5+6+z+A+B+C+D+E+F+G+G+G+G+G+G+H+H+I+J+K+    ",
"              L+M+N+O+P+(+Q+R+S+T+U+V+W+X+Y+Z+`+ @5+6+z+A+.@+@@@#@$@%@%@%@%@%@%@%@%@%@&@*@=@    ",
"              -@;@W.>@,@'@)@!@~@{@]@^@/@(@_@:@<@[@6+z+}@.@|@@@#@$@%@%@%@%@%@%@%@%@%@%@1@*@=@    ",
"              $ 2@z.3@4@5@6@7@8@9@0@a@b@c@d@e@f@g@h@i@j@|@@@k@l@m@m@m@m@m@m@m@m@m@m@n@o@p@K+    ",
"              % / ] q@Y.r@s@t@u@v@w@x@y@p.z@A@B@C@D@E@F@@@G@H@I@J@K@J@J@J@J@K@J@J@L@M@N@O@P@    ",
"              & ( / ( Q@j p o.R@].o S@E.E.: T@U@V@W@X@Y@Z@`@ #.#+#@###@#$###@#$#%#&#*#=#-#      ",
"              & _ ( `.r+p ;#>#,#'#)#!#E.9 9 E.p.~#{#]#^#/#(#_#:#<#[#}#|#[#1#2#[#3#4#            ",
"              & [+5#6#7#8#9#0#a#b#c#d#e#p.f#g#U h#i#j#k#l#m#n#o#p.p.p#q#r#s#t#p.p.u#            ",
"              & v#w#x#y#|+z#A#B#C#D#E#F#p.G#H#/.I#J#K#L#M#N#O#P#Q#q R#S#|+&.T#E.p.U#            ",
"              & V#W#X#Y#Z#`# $.$+$@$#$$$w@%$&$*$=$-$;$>$,$'$)$!$~${$]$^$I#/$T#o p.0             ",
"              & T ($_$:$M.<$[$}$|$1$2$3$: p.p.p.4$:.4$p.p.5$6$p.E.o p.U ].7$q ].p.0             ",
"              & o.o.R@q o 8$9 9 9$U 0$U :.:.:.U U : : E.E.: a$q ].o.o.T o.o.T T :.0             ",
"              & R@b$c$d$<$y@9$9$0$e$f$p.:.p.:.: : 9 9 E.o ].].R@T p o.p j T [+j U r             ",
"              & g$h$i$j$k$l$m$n$o$p$q$r$p.M+s$p.p ^ / t$u$v$R@w$j j x$y$T g#_ / : r             ",
"              & M.z$A$B$C$D$E$F$G$H$I$J$K$L$M$N$O$P$Q$R$S$T$U$V$W$p Q$X$Y$Z$`$! T#r             ",
"              & M. %.%+%@%#%n$$%%%&%*%=%-%;%>%,%'%h#I#)%/$!%S$S#~%{%]%k.&.^%/%4 R@0             ",
"              (%p.p._%p.:%<%[%p.}%|%1%2%3%4%5%0@6%8 7%~ ! /%{ , ) r#j.@ {.$ , , j 0             ",
"            8%9%0%a%b%b%c%d%e%f%g%h%i%j%k%l%m%n%o%p%[+( ^ ~ = ) y$, } * % % $ $ ^ 0             ",
"      q%r%s%t%u%v%w%w%v%v%x%y%z%A%B%C%D%E%F%G%H%I%J%K%^ = ) ; > * $ # L%M%N%O%N%, U#            ",
"      P%Q%R%R%S%S%S%S%S%S%S%T%U%V%W%X%Y%Z%`% &.&+&@&#&$&%&! , ; r.N%&&X$*&=&-&-&;&>&            ",
"      ,&'&)&)&)&)&)&)&)&)&)&)&!&~&{&]&^&/&(&E%_&:&<&[&}&|&1&2&0.. 3&4&5&6&7&=&=&8&9&            ",
"      ,&'&)&)&)&)&)&)&)&)&)&)&)&0&~&{&]&^&Y%Z%a&b&c&d&e&f&g&&.h&i&j&k&l&m&n&7&o&=&9&            ",
"      P%p&q&q&r&S%S%S%S%S%S%S%S%q&s&t&u&]&v&Y%w&x&y&z&A&B&C&D&r E&F&G&H&I&J&K&L&M&N&            ",
"      O&P&Q&R&S&T&T&T&T&T&T&T&T&U&V&W&X&{&Y&Z&`& *.*+*t$2&@*#*$*%*&***7&=*-*. 2&;*              ",
"      >*,*'*)*!*~*{*]*]*]*^*^*]*/*(*_*:*<*[*}*|*1*2*3*r.4*5*6*7*5*p.p.p.9 # ;&8*                ",
"            9*0*a*b*c*d*d*e*f*a*g*h*i*j*k*l*m*n*o*]+$ L%p*q*9&r*3&p.T#( N%-*s*                  ",
"              & t*:.u*v*_%w*p.x*y*z*A*B*C*D*E*`.F*' y$G*-&j&7&H*E :.( -*N%I*                    ",
"              % 9$J*K*L*M*N*O*P*Q*R*S*T*U*V*W*X*Y*Z*`* =.=+=@=#=H j N%M%$=                      ",
"              % 9$f$+$%=&=*===-=;=>=,='=)=!=~==$O$8&C&{=]=^=/=(=^ M%O%_=                        ",
"              % 9 9$:=<=[=}=|=1=2=3=4=5=_ ! { ' 6=7=p*8=9=o&r*o&M%0=7*                          ",
"              % 9 9 3$U a=p.3$: b=9 3$o.j ( ] c=4 * E 3&d=e=r*>&;&>&                            ",
"              % 9 9 : U :.:.U : E.E.].T j ( ] = ; * L%3&q*f=g=. L&h=                            ",
"              } p.p.p.p.p.p.p.p.p.p.p.: E.q o._ { ) % -*#*i=q*o&j=                              ",
"              #*r.[ [ [ [ [ [ [ [ E L%2&;&M%M%O%0=k=4*. p*8&9&l=                                ",
"              m=n=n=n=n=n=n=n=n=n=n=n=n=l=l=l=l=o=o=p=q=r=s=                                    ",
"                                                                                                "};
