/* XPM */
static char * diskanalizer_xpm[] = {
"48 48 533 2",
"  	c None",
". 	c #7F807C",
"+ 	c #A0A29E",
"@ 	c #A0A19D",
"# 	c #9EA09D",
"$ 	c #9EA09C",
"% 	c #9D9F9C",
"& 	c #9D9F9A",
"* 	c #9A9A97",
"= 	c #6E706B",
"- 	c #6E6F6B",
"; 	c #D2D2D0",
"> 	c #F9F9F8",
", 	c #F9F9F7",
"' 	c #F9F9F9",
") 	c #F8F8F7",
"! 	c #F7F7F6",
"~ 	c #F6F6F5",
"{ 	c #F5F5F4",
"] 	c #F4F4F3",
"^ 	c #F3F3F2",
"/ 	c #F3F3F1",
"( 	c #F1F1F0",
"_ 	c #F1F1EF",
": 	c #F1F2F1",
"< 	c #7C7E7A",
"[ 	c #71726D",
"} 	c #FFFFFF",
"| 	c #FDFDFC",
"1 	c #EFEFED",
"2 	c #EEEEEC",
"3 	c #B1B2AF",
"4 	c #90918D",
"5 	c #FAFAFA",
"6 	c #FBFBFA",
"7 	c #D7D8D6",
"8 	c #70726D",
"9 	c #6C6E6A",
"0 	c #C5C6C4",
"a 	c #FEFEFD",
"b 	c #FDFDFD",
"c 	c #F0F0EE",
"d 	c #EFEFEE",
"e 	c #71736D",
"f 	c #70726C",
"g 	c #FCFCFB",
"h 	c #F2F2F1",
"i 	c #EFF0EE",
"j 	c #9E9F9C",
"k 	c #7E817D",
"l 	c #FEFEFE",
"m 	c #FAFAF9",
"n 	c #F0F0EF",
"o 	c #CACCC8",
"p 	c #6F716C",
"q 	c #BBBCB9",
"r 	c #FCFCFC",
"s 	c #EEEEED",
"t 	c #EBECEA",
"u 	c #6B6D68",
"v 	c #72736D",
"w 	c #ECEDEB",
"x 	c #8D8E8A",
"y 	c #72746F",
"z 	c #E8D9D9",
"A 	c #C9A5A5",
"B 	c #AD7676",
"C 	c #A16161",
"D 	c #975151",
"E 	c #AD7575",
"F 	c #E8D8D8",
"G 	c #BFC0BD",
"H 	c #6C716A",
"I 	c #8C5858",
"J 	c #812828",
"K 	c #8E1D1D",
"L 	c #AE3535",
"M 	c #C94949",
"N 	c #D65252",
"O 	c #DD5656",
"P 	c #DB5252",
"Q 	c #CF4848",
"R 	c #C03D3D",
"S 	c #A32727",
"T 	c #821212",
"U 	c #7D2525",
"V 	c #B37F7F",
"W 	c #EFE4E4",
"X 	c #FBFBFB",
"Y 	c #E5E6E4",
"Z 	c #6C6E68",
"` 	c #670000",
" .	c #7C1313",
"..	c #C04242",
"+.	c #F46969",
"@.	c #FF7171",
"#.	c #FE6E6E",
"$.	c #FC6B6B",
"%.	c #FB6767",
"&.	c #F96464",
"*.	c #F86161",
"=.	c #F65D5D",
"-.	c #F45A5A",
";.	c #F35656",
">.	c #DD4747",
",.	c #A92626",
"'.	c #730D0D",
").	c #AF7979",
"!.	c #F2EEEE",
"~.	c #F3F4F2",
"{.	c #7C7E79",
"].	c #6F0505",
"^.	c #BB4242",
"/.	c #FB7171",
"(.	c #FF7272",
"_.	c #FE6F6F",
":.	c #FD6C6C",
"<.	c #FB6969",
"[.	c #FA6565",
"}.	c #F86262",
"|.	c #F75E5E",
"1.	c #F55B5B",
"2.	c #F35757",
"3.	c #F25454",
"4.	c #F05151",
"5.	c #EF4D4D",
"6.	c #ED4A4A",
"7.	c #E14040",
"8.	c #981919",
"9.	c #812D2D",
"0.	c #E1D4D2",
"a.	c #B6B7B4",
"b.	c #6A6C68",
"c.	c #760C0C",
"d.	c #E06161",
"e.	c #FF7575",
"f.	c #FF7070",
"g.	c #FD6D6D",
"h.	c #FC6A6A",
"i.	c #FA6666",
"j.	c #F96363",
"k.	c #F75F5F",
"l.	c #F55C5C",
"m.	c #F45858",
"n.	c #F25555",
"o.	c #F15252",
"p.	c #EF4E4E",
"q.	c #EE4B4B",
"r.	c #EC4747",
"s.	c #EB4444",
"t.	c #E94141",
"u.	c #E83D3D",
"v.	c #B12222",
"w.	c #741616",
"x.	c #DBD0CE",
"y.	c #E9E9E6",
"z.	c #E8E9E5",
"A.	c #E7E8E4",
"B.	c #E7E7E4",
"C.	c #E6E6E3",
"D.	c #E5E5E2",
"E.	c #E6E7E3",
"F.	c #E4E5E1",
"G.	c #E4E4E0",
"H.	c #E3E4E0",
"I.	c #E2E3DF",
"J.	c #E8E8E6",
"K.	c #D8D9D6",
"L.	c #6E6F6C",
"M.	c #6C0404",
"N.	c #DC6262",
"O.	c #FF7676",
"P.	c #FC6C6C",
"Q.	c #F86060",
"R.	c #F15353",
"S.	c #F04F4F",
"T.	c #EE4C4C",
"U.	c #ED4848",
"V.	c #EB4545",
"W.	c #EA4242",
"X.	c #E83E3E",
"Y.	c #E73B3B",
"Z.	c #E53737",
"`.	c #E33636",
" +	c #A61B1B",
".+	c #802F2F",
"++	c #DBDAD6",
"@+	c #D9DBD7",
"#+	c #D7D8D4",
"$+	c #D4D6D1",
"%+	c #D2D3CF",
"&+	c #CFD1CC",
"*+	c #CDCFCA",
"=+	c #CACCC7",
"-+	c #C8CAC4",
";+	c #C5C8C2",
">+	c #C3C5BF",
",+	c #C0C3BD",
"'+	c #BEC1BA",
")+	c #CED0CC",
"!+	c #6F716A",
"~+	c #AE3D3D",
"{+	c #FF7E7E",
"]+	c #FE7272",
"^+	c #FD6E6E",
"/+	c #FB6868",
"(+	c #F65E5E",
"_+	c #F05050",
":+	c #EC4646",
"<+	c #EA4343",
"[+	c #E93F3F",
"}+	c #E73C3C",
"|+	c #E53838",
"1+	c #E43535",
"2+	c #E23232",
"3+	c #E12E2E",
"4+	c #DF3333",
"5+	c #7D0A0A",
"6+	c #B2908D",
"7+	c #D4D5D1",
"8+	c #D7D8D5",
"9+	c #D0D2CD",
"0+	c #D3D4D0",
"a+	c #CBCDC8",
"b+	c #CED0CA",
"c+	c #C7C8C4",
"d+	c #C9CBC6",
"e+	c #C2C5BF",
"f+	c #C6C8C2",
"g+	c #BCBFB8",
"h+	c #C5C7C1",
"i+	c #EE7878",
"j+	c #FD7575",
"k+	c #F86363",
"l+	c #F15151",
"m+	c #E94040",
"n+	c #E63A3A",
"o+	c #E43636",
"p+	c #E33333",
"q+	c #E12F2F",
"r+	c #E02C2C",
"s+	c #DE2929",
"t+	c #DE2D2D",
"u+	c #B01F1F",
"v+	c #843937",
"w+	c #CACBC7",
"x+	c #DBDCD9",
"y+	c #C5C7C2",
"z+	c #C1C2BF",
"A+	c #D5D6D2",
"B+	c #BDBFBA",
"C+	c #B9BBB5",
"D+	c #BABDB6",
"E+	c #CFD0CC",
"F+	c #6D716B",
"G+	c #720909",
"H+	c #FD8989",
"I+	c #FB6C6C",
"J+	c #F76060",
"K+	c #F45959",
"L+	c #EA4141",
"M+	c #E63B3B",
"N+	c #E33434",
"O+	c #E23030",
"P+	c #E02D2D",
"Q+	c #DF2929",
"R+	c #DD2626",
"S+	c #DC2323",
"T+	c #DC2626",
"U+	c #C92B2B",
"V+	c #711413",
"W+	c #C8C9C5",
"X+	c #DADBD8",
"Y+	c #C3C5C1",
"Z+	c #D6D8D4",
"`+	c #C0C1BC",
" @	c #D3D5D1",
".@	c #BBBDB8",
"+@	c #CFD2CD",
"@@	c #B7BAB4",
"#@	c #D1D3CE",
"$@	c #CFD0CD",
"%@	c #6C7069",
"&@	c #810D0D",
"*@	c #FA8C8C",
"=@	c #F55A5A",
"-@	c #ED4949",
";@	c #E06757",
">@	c #8486A6",
",@	c #6E80B7",
"'@	c #6A7EB4",
")@	c #677AB1",
"!@	c #6275AC",
"~@	c #5F71A8",
"{@	c #5C6DA4",
"]@	c #56699F",
"^@	c #53649B",
"/@	c #4E6096",
"(@	c #526297",
"_@	c #73648B",
":@	c #C5C4C0",
"<@	c #D8DAD6",
"[@	c #C2C3BF",
"}@	c #D5D6D3",
"|@	c #BEC0BB",
"1@	c #D2D4CF",
"2@	c #BABBB6",
"3@	c #CED0CB",
"4@	c #B5B8B3",
"5@	c #6C6F68",
"6@	c #720101",
"7@	c #F68888",
"8@	c #F56262",
"9@	c #EE4A4A",
"0@	c #E73D3D",
"a@	c #CFA16A",
"b@	c #B4B27C",
"c@	c #5A8BCA",
"d@	c #5687C6",
"e@	c #5182C1",
"f@	c #4D7EBD",
"g@	c #497AB9",
"h@	c #4475B4",
"i@	c #4071B0",
"j@	c #3B6CAB",
"k@	c #3768A7",
"l@	c #4270AB",
"m@	c #69678F",
"n@	c #C1C1BD",
"o@	c #C0C2BD",
"p@	c #BBBEB9",
"q@	c #B4B5B1",
"r@	c #6C6D68",
"s@	c #6E0101",
"t@	c #DB5F5F",
"u@	c #F57272",
"v@	c #B6D570",
"w@	c #ABE56E",
"x@	c #798BA0",
"y@	c #5384C3",
"z@	c #4F80BF",
"A@	c #4A7BBA",
"B@	c #4677B6",
"C@	c #4273B2",
"D@	c #3D6EAD",
"E@	c #396AA9",
"F@	c #3566A4",
"G@	c #5780B4",
"H@	c #4F5887",
"I@	c #690404",
"J@	c #BFBFBD",
"K@	c #D6D7D3",
"L@	c #BEC1BB",
"M@	c #BABCB7",
"N@	c #CBCDC9",
"O@	c #B4B5B0",
"P@	c #6B6D67",
"Q@	c #660000",
"R@	c #B22424",
"S@	c #EE7A7A",
"T@	c #F15E5E",
"U@	c #EB4646",
"V@	c #E83F3F",
"W@	c #D55A3F",
"X@	c #A3E463",
"Y@	c #9CE258",
"Z@	c #9FB150",
"`@	c #4C7DBC",
" #	c #4879B8",
".#	c #3F70AF",
"+#	c #3667A6",
"@#	c #4F7AB0",
"##	c #68729D",
"$#	c #4C3D65",
"%#	c #731C1B",
"&#	c #C0C2BE",
"*#	c #B9BCB7",
"=#	c #B6B8B2",
"-#	c #C7C9C3",
";#	c #B5B7B1",
">#	c #CBCDC7",
",#	c #6A6C66",
"'#	c #610000",
")#	c #921010",
"!#	c #BC2D2D",
"~#	c #ED7777",
"{#	c #ED5B5B",
"]#	c #E63939",
"^#	c #E33232",
"/#	c #BB8F44",
"(#	c #96DF4E",
"_#	c #8FDD43",
":#	c #88DA38",
"<#	c #74847C",
"[#	c #4576B5",
"}#	c #4172B1",
"|#	c #3A6AA9",
"1#	c #557EB3",
"2#	c #7077A1",
"3#	c #345A91",
"4#	c #601E32",
"5#	c #884B48",
"6#	c #BBBEB8",
"7#	c #CCCECB",
"8#	c #6A6B66",
"9#	c #6F0202",
"0#	c #AA1E1E",
"a#	c #B41E1E",
"b#	c #E46565",
"c#	c #EC6767",
"d#	c #E74444",
"e#	c #99C43F",
"f#	c #81D72D",
"g#	c #7BD522",
"h#	c #82B01F",
"i#	c #4879B5",
"j#	c #4374B3",
"k#	c #4071AF",
"l#	c #4D7AB2",
"m#	c #6B8EBC",
"n#	c #726E94",
"o#	c #32578E",
"p#	c #494772",
"q#	c #660203",
"r#	c #B3A4A1",
"s#	c #C9CBC5",
"t#	c #C7CAC4",
"u#	c #C6C9C3",
"v#	c #D7D9D5",
"w#	c #B8BAB6",
"x#	c #636660",
"y#	c #5B0000",
"z#	c #790606",
"A#	c #AC1F1F",
"B#	c #AA0F0F",
"C#	c #C43131",
"D#	c #E36464",
"E#	c #E96262",
"F#	c #E44949",
"G#	c #E03737",
"H#	c #CD492A",
"I#	c #82D82E",
"J#	c #7BD523",
"K#	c #74D218",
"L#	c #73D216",
"M#	c #77D31C",
"N#	c #81896A",
"O#	c #5F88BD",
"P#	c #7295C3",
"Q#	c #7B7FA6",
"R#	c #525380",
"S#	c #30578F",
"T#	c #445180",
"U#	c #650A10",
"V#	c #905F5E",
"W#	c #C7C8C5",
"X#	c #D1D2CF",
"Y#	c #D0D1CE",
"Z#	c #CECFCC",
"`#	c #CDCFCB",
" $	c #C9CBC7",
".$	c #B3B4B1",
"+$	c #6F706C",
"@$	c #5E0000",
"#$	c #750505",
"$$	c #A61C1C",
"%$	c #AD1919",
"&$	c #A60808",
"*$	c #B61B1B",
"=$	c #CC3C3C",
"-$	c #D84F4F",
";$	c #C19E61",
">$	c #9EDF5C",
",$	c #99DE56",
"'$	c #9ADF57",
")$	c #9DE05C",
"!$	c #A1D459",
"~$	c #9FA64C",
"{$	c #71648B",
"]$	c #3F5084",
"^$	c #2A528C",
"/$	c #385E94",
"($	c #51466E",
"_$	c #65080D",
":$	c #621E1C",
"<$	c #5D5F5A",
"[$	c #656963",
"}$	c #676965",
"|$	c #676A65",
"1$	c #676964",
"2$	c #5F615C",
"3$	c #550000",
"4$	c #6A0101",
"5$	c #890E0E",
"6$	c #A91E1E",
"7$	c #AE1B1B",
"8$	c #AA1010",
"9$	c #A70808",
"0$	c #6E6406",
"a$	c #519C0A",
"b$	c #5B9E10",
"c$	c #5E930F",
"d$	c #57970A",
"e$	c #509B09",
"f$	c #5A9610",
"g$	c #3A5F95",
"h$	c #4E4F7A",
"i$	c #632032",
"j$	c #660001",
"k$	c #4C0000",
"l$	c #5C0000",
"m$	c #7D0909",
"n$	c #941313",
"o$	c #A21A1A",
"p$	c #7F7724",
"q$	c #64A725",
"r$	c #63A623",
"s$	c #64A624",
"t$	c #65A726",
"u$	c #66A325",
"v$	c #6F821E",
"w$	c #60334F",
"x$	c #6B1019",
"y$	c #5A0000",
"z$	c #510000",
"A$	c #5F0000",
"B$	c #670200",
"C$	c #691303",
"D$	c #6B2005",
"E$	c #6A2004",
"F$	c #681102",
"G$	c #670400",
"H$	c #4F0000",
"                                                                                                ",
"                                                                                                ",
"                                                                                                ",
"                                                                                                ",
"                                                                                                ",
"                                                                                                ",
"                                                                                                ",
"                                                                                                ",
"                                                                                                ",
"                                                                                                ",
"                                                                                                ",
"                                                                                                ",
"                    . + + + + + + + + + + + + + + + + + + + + @ # $ % & * =                     ",
"                  - ; > , , , , , , , , , , ' ' ' ' ' ) ! ~ { ] ^ / ( _ : <                     ",
"                  [ : } } } } } } } } } } } } } } } | ) ^ 1 2 2 2 2 2 2 1 3                     ",
"                  4 5 } } } } } } } } } } } } } } } 6 ~ ( 2 2 2 2 2 2 2 1 7 8                   ",
"                9 0 a } } } } } } } } } } } } } } b > ] c 2 2 2 2 2 2 2 2 d e                   ",
"                f d } } } } } } } } } } } } } } } g ! h 2 2 2 2 2 2 2 2 2 i j                   ",
"                k g } } } } } } } } } } } } } } l m { n 2 2 2 2 2 2 2 2 2 _ o p                 ",
"                q l } } } } } } } } } } } } } } r ) ^ s 2 2 2 2 2 2 2 2 2 1 t u                 ",
"              v w } } } } } } } } } } } } } } } 5 ~ ( 2 2 2 2 2 2 2 2 2 2 2 ( x                 ",
"              y r z A B C D D C E A F } } } } b > ] 1 2 2 2 2 2 2 2 2 2 2 2 ^ G H               ",
"              I J K L M N O P Q R S T U V W } X ! h 2 2 2 2 2 2 2 2 2 2 2 2 n Y Z               ",
"          `  ...+.@.@.#.$.%.&.*.=.-.;.>.,.'.).!.{ c 2 2 2 2 2 2 2 2 2 2 2 2 2 ~.{.              ",
"        ].^./.(.@._.:.<.[.}.|.1.2.3.4.5.6.7.8.9.0.2 2 2 2 2 2 2 2 2 2 2 2 2 2 { a.b.            ",
"      c.d.e.@.f.g.h.i.j.k.l.m.n.o.p.q.r.s.t.u.v.w.x.y.z.A.B.C.D.E.C.D.F.G.H.I.J.K.L.            ",
"    M.N.O.(._.P.%.&.Q.=.-.;.R.S.T.U.V.W.X.Y.Z.`. +.+++@+#+$+%+&+*+=+-+;+>+,+'+;+)+!+            ",
"    ~+{+]+^+/+[.*.(+1.2.3._+5.6.:+<+[+}+|+1+2+3+4+5+6+7+8+9+0+a+b+c+d+e+f+'+g+h+)+p             ",
"  ` i+j+$.i.k+k.l.m.n.l+p.q.r.s.m+u.n+o+p+q+r+s+t+u+v+w+x+y+K.z+A+B+%+C+0+g+D+h+E+F+            ",
"  G+H+I+&.J+=.K+;.R.S.T.U.V.L+X.M+Z.N+O+P+Q+R+S+T+U+V+W+X+Y+Z+`+ @.@+@@@#@D+D+h+$@%@            ",
"  &@*@k+(+=@2.3._+5.-@:+<+;@>@,@'@)@!@~@{@]@^@/@(@_@` :@<@[@}@|@1@2@3@4@9+D+D+h+$@5@            ",
"  6@7@8@m.n.l+p.9@r.s.m+0@a@b@c@d@e@f@g@h@i@j@k@l@m@` n@8+o@7+p@9+@@*+q@9+D+D+h+)+r@            ",
"  s@t@u@o.S.T.U.V.t.X.n+|+v@w@x@y@z@A@B@C@D@E@F@G@H@I@J@K@L@1@M@E+4@N@O@9+D+D+;+)+P@            ",
"  Q@R@S@T@-@U@W.V@}+|+1+W@X@Y@Z@e@`@ #h@.#j@+#@###$#%#&##@|@*+*#w+=#-#;#>#D+D+;+)+,#            ",
"  '#)#!#~#{#m+0@]#o+^#q+/#(#_#:#<#A@[#}#D@|#1#2#3#4#5#f+;+>+,+'+6#D+D+D+D+D+D+f+7#8#            ",
"    9#0#a#b#c#d#p+O+P+Q+e#:#f#g#h#i#j#k#l#m#n#o#p#q#r#3@*+a+s#t#;+;+;+;+;+;+u#v#w#x#            ",
"    y#z#A#B#C#D#E#F#G#H#I#J#K#L#M#N#O#P#Q#R#S#T#U#V#W#X#Y#$@Z#`#`#`#`#`#`#`# $.$+$              ",
"      @$#$$$%$&$*$=$-$;$>$,$'$)$!$~${$]$^$/$($_$:$<$[$}$}$}$}$}$}$}$}$}$}$|$1$2$                ",
"        3$4$5$6$7$8$9$0$a$b$c$d$e$f$S#g$h$i$j$k$                                                ",
"            l$` m$n$o$p$q$r$s$t$u$v$w$x$Q@y$                                                    ",
"                z$A$Q@B$C$D$E$F$G$Q@A$H$                                                        ",
"                                                                                                ",
"                                                                                                ",
"                                                                                                ",
"                                                                                                ",
"                                                                                                ",
"                                                                                                ",
"                                                                                                "};
