/* XPM */
static char * dvdstyler_xpm[] = {
"48 48 820 2",
"  	c None",
". 	c #B5A895",
"+ 	c #C5B8A3",
"@ 	c #A48759",
"# 	c #745D38",
"$ 	c #BEB19D",
"% 	c #A28556",
"& 	c #89662F",
"* 	c #39280E",
"= 	c #B2A490",
"- 	c #AD936A",
"; 	c #8E6A31",
"> 	c #5A411A",
", 	c #A39580",
"' 	c #B7A07D",
") 	c #8B6831",
"! 	c #755625",
"~ 	c #A99DD2",
"{ 	c #B7A5E5",
"] 	c #C8AAF2",
"^ 	c #D5B1FB",
"/ 	c #DAB6FE",
"( 	c #DDBBFF",
"_ 	c #DFBFFF",
": 	c #E1C3FE",
"< 	c #E1C5FC",
"[ 	c #DDC4F5",
"} 	c #D7C0ED",
"| 	c #CDB9E2",
"1 	c #92836D",
"2 	c #BCA889",
"3 	c #8A6834",
"4 	c #83602B",
"5 	c #39270E",
"6 	c #B8A7CD",
"7 	c #BCB3DC",
"8 	c #BBB7E7",
"9 	c #BFB5F1",
"0 	c #CCB5F9",
"a 	c #D8B7FE",
"b 	c #E2C4FF",
"c 	c #E4C8FF",
"d 	c #E6CCFF",
"e 	c #E8D0FF",
"f 	c #EAD5FF",
"g 	c #EDDAFF",
"h 	c #EADBFA",
"i 	c #DCCEEB",
"j 	c #81725B",
"k 	c #BBA88B",
"l 	c #8D6D3D",
"m 	c #82602B",
"n 	c #573E18",
"o 	c #BFA4CA",
"p 	c #CCB6D2",
"q 	c #CABCD5",
"r 	c #C4BCDB",
"s 	c #BEBBE3",
"t 	c #BFBAEC",
"u 	c #C9BAF6",
"v 	c #D6BBFC",
"w 	c #DEBFFF",
"x 	c #ECD9FF",
"y 	c #EFDFFF",
"z 	c #F1E5FF",
"A 	c #F3E9FF",
"B 	c #F1E8FB",
"C 	c #DED3E8",
"D 	c #B4A286",
"E 	c #917449",
"F 	c #7E5C28",
"G 	c #6E5022",
"H 	c #CBACD2",
"I 	c #D6BCD3",
"J 	c #D4BFD0",
"K 	c #D0C0D2",
"L 	c #CAC0D7",
"M 	c #C3BFDE",
"N 	c #C0BEE8",
"O 	c #C6BEF2",
"P 	c #D4C0FA",
"Q 	c #DFC3FE",
"R 	c #EEDEFF",
"S 	c #F1E4FF",
"T 	c #F5EDFF",
"U 	c #F7F0FF",
"V 	c #FAF4FF",
"W 	c #EDE7F3",
"X 	c #AA987C",
"Y 	c #957A53",
"Z 	c #7A5826",
"` 	c #7B5927",
" .	c #37260D",
"..	c #D3B1D7",
"+.	c #DCBFD4",
"@.	c #DBC2D0",
"#.	c #D9C4CF",
"$.	c #D5C4D0",
"%.	c #D0C4D3",
"&.	c #C9C3DA",
"*.	c #C3C2E3",
"=.	c #C5C2ED",
"-.	c #D0C4F7",
";.	c #DEC8FD",
">.	c #E5CCFF",
",.	c #EEDDFF",
"'.	c #F1E3FF",
").	c #F3E8FF",
"!.	c #F5ECFF",
"~.	c #FCF8FF",
"{.	c #FDFCFF",
"].	c #F6F3F8",
"^.	c #9D8B70",
"/.	c #977E5A",
"(.	c #765525",
"_.	c #543C17",
":.	c #D7B0DA",
"<.	c #E1BFD7",
"[.	c #E1C4D2",
"}.	c #DFC7D0",
"|.	c #DDC8CF",
"1.	c #DAC8CF",
"2.	c #D5C8D1",
"3.	c #CFC8D6",
"4.	c #C8C7DE",
"5.	c #C6C6E8",
"6.	c #CDC7F3",
"7.	c #DCCBFB",
"8.	c #E6D0FF",
"9.	c #F0E2FF",
"0.	c #FEFDFF",
"a.	c #FCF9FF",
"b.	c #F4EEFA",
"c.	c #8F7D63",
"d.	c #967E5C",
"e.	c #755527",
"f.	c #765524",
"g.	c #6B4D20",
"h.	c #D3A9DA",
"i.	c #E2BADA",
"j.	c #E4C2D5",
"k.	c #E4C7D2",
"l.	c #E4CAD1",
"m.	c #E1CBD0",
"n.	c #DFCCCF",
"o.	c #DBCCD0",
"p.	c #D5CCD3",
"q.	c #CECBD9",
"r.	c #C8CAE3",
"s.	c #CCCBEE",
"t.	c #D9CEF8",
"u.	c #E6D4FE",
"v.	c #F3E6FF",
"w.	c #FDF9FF",
"x.	c #FBF5FF",
"y.	c #F9F1FF",
"z.	c #EEE2F7",
"A.	c #806E53",
"B.	c #947C5B",
"C.	c #74562A",
"D.	c #725222",
"E.	c #775624",
"F.	c #38260D",
"G.	c #CA9ED6",
"H.	c #E1B2DE",
"I.	c #E4BAD9",
"J.	c #E6C1D6",
"K.	c #E7C7D4",
"L.	c #E7CCD3",
"M.	c #E5CED1",
"N.	c #E3CFD0",
"O.	c #E0D0CF",
"P.	c #DBD0D1",
"Q.	c #D5D0D5",
"R.	c #CDCEDD",
"S.	c #CCCEE8",
"T.	c #D5D1F4",
"U.	c #E4D7FC",
"V.	c #EDDDFF",
"W.	c #F2E6FF",
"X.	c #F5EBFF",
"Y.	c #F8EDFF",
"Z.	c #F0E4F8",
"`.	c #8E7D70",
" +	c #907958",
".+	c #72542A",
"++	c #6F4E20",
"@+	c #543B16",
"#+	c #BA90CA",
"$+	c #DDA8E1",
"%+	c #E2B0DE",
"&+	c #E4B7DB",
"*+	c #E6BED9",
"=+	c #E8C5D7",
"-+	c #E9CBD5",
";+	c #E9D0D3",
">+	c #E7D3D1",
",+	c #E5D4D0",
"'+	c #E1D4D0",
")+	c #DBD4D2",
"!+	c #D4D2D8",
"~+	c #CED2E3",
"{+	c #D3D4EF",
"]+	c #E1DAF9",
"^+	c #EDE1FE",
"/+	c #F4EAFF",
"(+	c #F7EDFF",
"_+	c #F5E9FE",
":+	c #998881",
"<+	c #897252",
"[+	c #6E5129",
"}+	c #6C4C1E",
"|+	c #755423",
"1+	c #6B4D1F",
"2+	c #D29EDA",
"3+	c #E0A9E1",
"4+	c #E3AEDF",
"5+	c #E5B4DE",
"6+	c #E7BBDC",
"7+	c #E9C2DA",
"8+	c #EAC9D7",
"9+	c #EBCFD5",
"0+	c #EBD4D3",
"a+	c #E9D7D1",
"b+	c #E6D8D0",
"c+	c #E1D8D0",
"d+	c #DAD7D4",
"e+	c #D3D6DD",
"f+	c #D3D7EA",
"g+	c #DDDCF5",
"h+	c #EBE4FC",
"i+	c #F3EAFF",
"j+	c #F7EFFF",
"k+	c #FBF8FF",
"l+	c #F6EAFF",
"m+	c #AA999B",
"n+	c #6E542F",
"o+	c #64461C",
"p+	c #694A1C",
"q+	c #735222",
"r+	c #785625",
"s+	c #BC90C7",
"t+	c #DFA6E1",
"u+	c #E2AAE1",
"v+	c #E4ADE1",
"w+	c #E5B2E0",
"x+	c #E7B7DE",
"y+	c #E9BEDC",
"z+	c #EAC5DA",
"A+	c #ECCDD8",
"B+	c #EDD4D5",
"C+	c #EDD9D3",
"D+	c #EBDBD1",
"E+	c #E7DCD0",
"F+	c #E1DCD2",
"G+	c #D7D8D5",
"H+	c #CED3DC",
"I+	c #D1D5E5",
"J+	c #DEDCEE",
"K+	c #EBE5F5",
"L+	c #F6F0FC",
"M+	c #F6E9FF",
"N+	c #C6B7C2",
"O+	c #5F431C",
"P+	c #5F4017",
"Q+	c #67481B",
"R+	c #715021",
"S+	c #7A5926",
"T+	c #543C18",
"U+	c #CE9CD6",
"V+	c #E1A9E2",
"W+	c #E3ABE1",
"X+	c #E4AEE1",
"Y+	c #E5B1E1",
"Z+	c #E7B5E0",
"`+	c #E9BBDF",
" @	c #EBC1DD",
".@	c #EDC9DB",
"+@	c #EED1D8",
"@@	c #EFD8D5",
"#@	c #EFDDD3",
"$@	c #EBDED0",
"%@	c #DCD5C7",
"&@	c #CFCEC4",
"*@	c #C2C6C6",
"=@	c #BEC2C9",
"-@	c #C5C5CF",
";@	c #D4D1DB",
">@	c #E5E3E9",
",@	c #EFEEF1",
"'@	c #FBFAFC",
")@	c #DDCEE1",
"!@	c #674D2C",
"~@	c #624319",
"{@	c #705020",
"]@	c #795826",
"^@	c #705329",
"/@	c #DAA6E5",
"(@	c #E1ABE6",
"_@	c #E3AEE3",
":@	c #E5B0E2",
"<@	c #E6B2E2",
"[@	c #E8B5E1",
"}@	c #E9B9E0",
"|@	c #EBBEDF",
"1@	c #EDC5DE",
"2@	c #EFCCDB",
"3@	c #F0D4D8",
"4@	c #EFDAD4",
"5@	c #E0D2C5",
"6@	c #D2CBBD",
"7@	c #BDBCB8",
"8@	c #C4C4C4",
"9@	c #CFCFCF",
"0@	c #CACACA",
"a@	c #CDCDCD",
"b@	c #DFDFE0",
"c@	c #EAE7ED",
"d@	c #F7F1FB",
"e@	c #F0E1FA",
"f@	c #755E47",
"g@	c #69491C",
"h@	c #80602F",
"i@	c #715864",
"j@	c #DCADF4",
"k@	c #DFB0EF",
"l@	c #E2B2EB",
"m@	c #E4B4E7",
"n@	c #E6B6E4",
"o@	c #E8B7E3",
"p@	c #EABAE2",
"q@	c #EBBDE1",
"r@	c #EDC1E0",
"s@	c #EFC7DE",
"t@	c #F0CEDC",
"u@	c #E3CACC",
"v@	c #D4C6C1",
"w@	c #C6C6C5",
"x@	c #E5E5E5",
"y@	c #F4F4F4",
"z@	c #F5F5F5",
"A@	c #F8F8F8",
"B@	c #F3F3F3",
"C@	c #E7E7E7",
"D@	c #DBD8DF",
"E@	c #E7E0ED",
"F@	c #F6EBFE",
"G@	c #F4E5FF",
"H@	c #97847F",
"I@	c #6D4D1F",
"J@	c #725121",
"K@	c #876634",
"L@	c #6C5346",
"M@	c #AA87C3",
"N@	c #B993D6",
"O@	c #C09DE0",
"P@	c #DAB2FC",
"Q@	c #DDB5F9",
"R@	c #E0B8F5",
"S@	c #E3BAF1",
"T@	c #E6BCEC",
"U@	c #E8BDE8",
"V@	c #EABEE5",
"W@	c #ECBFE3",
"X@	c #EDC2E2",
"Y@	c #EFC5E0",
"Z@	c #E9C4D8",
"`@	c #DCC1CA",
" #	c #C9C8C8",
".#	c #EEEEEE",
"+#	c #F2F2F2",
"@#	c #F7F7F7",
"##	c #F9F9F9",
"$#	c #DADADB",
"%#	c #DAD1E2",
"&#	c #EBDEF4",
"*#	c #F3E2FF",
"=#	c #C5B1C4",
"-#	c #6C4E23",
";#	c #715121",
">#	c #745322",
",#	c #896836",
"'#	c #775D3D",
")#	c #9273A2",
"!#	c #D1A2F2",
"~#	c #C699E7",
"{#	c #C6A4E8",
"]#	c #DBB7FF",
"^#	c #DEBBFE",
"/#	c #E0BEFC",
"(#	c #E3C1FA",
"_#	c #E6C4F6",
":#	c #E8C5F2",
"<#	c #EAC5EE",
"[#	c #ECC6EA",
"}#	c #EEC6E6",
"|#	c #EFC8E4",
"1#	c #E2BED4",
"2#	c #D2BFC9",
"3#	c #D9D9D9",
"4#	c #D7D7D7",
"5#	c #FAFAFA",
"6#	c #CDC6D2",
"7#	c #E0CEED",
"8#	c #E9D3F8",
"9#	c #755A41",
"0#	c #7D5B28",
"a#	c #8A6937",
"b#	c #886B41",
"c#	c #7D627F",
"d#	c #C498E3",
"e#	c #D9A5FF",
"f#	c #CA98EE",
"g#	c #CBAAEC",
"h#	c #E4C8FE",
"i#	c #E6CBFD",
"j#	c #E8CEFB",
"k#	c #EBD0F8",
"l#	c #EDD1F4",
"m#	c #EFD1F0",
"n#	c #EFCFEA",
"o#	c #DFC1D6",
"p#	c #D3CBD0",
"q#	c #F6F6F6",
"r#	c #E8E8E8",
"s#	c #D2CFD3",
"t#	c #DBC3E6",
"u#	c #A08891",
"v#	c #7C5A27",
"w#	c #7F5D29",
"x#	c #8C6B38",
"y#	c #947749",
"z#	c #745A66",
"A#	c #B58CD3",
"B#	c #D8A3FD",
"C#	c #D79FFF",
"D#	c #CB95F2",
"E#	c #CEAEED",
"F#	c #EAD4FF",
"G#	c #ECD8FE",
"H#	c #EEDBFC",
"I#	c #F0DCF9",
"J#	c #F0DBF3",
"K#	c #E0CBDE",
"L#	c #D9D6D8",
"M#	c #FBFBFB",
"N#	c #FCFCFC",
"O#	c #DBDBDC",
"P#	c #CCAECD",
"Q#	c #70532C",
"R#	c #815F2A",
"S#	c #8E6C38",
"T#	c #9A7C4D",
"U#	c #735A57",
"V#	c #A983C4",
"W#	c #D5A1FA",
"X#	c #D59AFF",
"Y#	c #CA91F3",
"Z#	c #CEB1EC",
"`#	c #E2C3FF",
" $	c #F0E1FF",
".$	c #F2E5FE",
"+$	c #F3E6FB",
"@$	c #E3D7E7",
"#$	c #DDDADD",
"$$	c #FDFDFD",
"%$	c #DEDBDE",
"&$	c #8C6F6B",
"*$	c #86632D",
"=$	c #87642D",
"-$	c #8F6D38",
";$	c #9C7E4F",
">$	c #765D54",
",$	c #9F7BB5",
"'$	c #D29FF5",
")$	c #D394FF",
"!$	c #C78CF2",
"~$	c #CDB1E7",
"{$	c #F6EEFF",
"]$	c #E8E2EE",
"^$	c #E1DEE3",
"/$	c #CDC5CA",
"($	c #856944",
"_$	c #8E6B35",
":$	c #916F39",
"<$	c #9D7F4F",
"[$	c #785F52",
"}$	c #9F78AB",
"|$	c #D29DEB",
"1$	c #D9A0FA",
"2$	c #D69AFD",
"3$	c #D394FE",
"4$	c #D08FFF",
"5$	c #C285EE",
"6$	c #C5ADDE",
"7$	c #F9F3FF",
"8$	c #F1EEF5",
"9$	c #E7E5E9",
"0$	c #FEFEFE",
"a$	c #BBBBBB",
"b$	c #C9C5BF",
"c$	c #A18860",
"d$	c #9E8052",
"e$	c #795F52",
"f$	c #A177A0",
"g$	c #D59DDD",
"h$	c #DEA1ED",
"i$	c #DB9CF2",
"j$	c #D797F6",
"k$	c #D391FA",
"l$	c #D08BFC",
"m$	c #BB7EE5",
"n$	c #B7A1CD",
"o$	c #FAF5FF",
"p$	c #FCFBFE",
"q$	c #ECEBED",
"r$	c #EAE8EC",
"s$	c #FFFFFF",
"t$	c #C3C3C3",
"u$	c #C5C5C4",
"v$	c #C8C8C6",
"w$	c #897471",
"x$	c #A57BA1",
"y$	c #D99ED7",
"z$	c #E2A2E3",
"A$	c #E09FE5",
"B$	c #DD9BE8",
"C$	c #DA96EC",
"D$	c #D690F1",
"E$	c #D289F5",
"F$	c #B178D4",
"G$	c #E7D1FB",
"H$	c #FBF6FF",
"I$	c #F8F5FB",
"J$	c #E7E2EC",
"K$	c #E9E2ED",
"L$	c #F5F3F6",
"M$	c #F1F0F0",
"N$	c #CDC8C8",
"O$	c #BDBDBD",
"P$	c #D2D2D2",
"Q$	c #CAC9C9",
"R$	c #A0979D",
"S$	c #AA83A3",
"T$	c #DBA3D6",
"U$	c #E3A5E1",
"V$	c #E2A0E1",
"W$	c #E09DE2",
"X$	c #DE99E3",
"Y$	c #DC95E4",
"Z$	c #D990E7",
"`$	c #D58BEA",
" %	c #D9C6EC",
".%	c #F6ECFF",
"+%	c #F8F1FF",
"@%	c #F9F4FF",
"#%	c #FBF4FF",
"$%	c #F5ECFB",
"%%	c #E7DBEF",
"&%	c #E0D2EB",
"*%	c #DED2EA",
"=%	c #DBD3E8",
"-%	c #D5D1E2",
";%	c #CECAD5",
">%	c #C8C0C3",
",%	c #B8B7B7",
"'%	c #D8D8D8",
")%	c #C6C5C6",
"!%	c #A29EA0",
"~%	c #A4889A",
"{%	c #DBABD0",
"]%	c #E5ADDD",
"^%	c #E3A5DF",
"/%	c #E1A0E0",
"(%	c #DF9BE1",
"_%	c #DE97E1",
":%	c #DC93E2",
"<%	c #DA90E2",
"[%	c #CE89DB",
"}%	c #BFB1CD",
"|%	c #F9F2FF",
"1%	c #FBF7FF",
"2%	c #FEFCFF",
"3%	c #FDFAFF",
"4%	c #F8F0FF",
"5%	c #F3E4FF",
"6%	c #ECDAF9",
"7%	c #E1CDF3",
"8%	c #D5C5EC",
"9%	c #C9C0E3",
"0%	c #C6C0D9",
"a%	c #B9B4BA",
"b%	c #C5C5C5",
"c%	c #A19FA0",
"d%	c #9C8990",
"e%	c #D5B0C4",
"f%	c #E6B8D8",
"g%	c #E4B0DA",
"h%	c #E2A8DD",
"i%	c #E1A1DF",
"j%	c #DF9BE0",
"k%	c #DD96E1",
"l%	c #DC91E1",
"m%	c #DA8DE2",
"n%	c #B87CC5",
"o%	c #EBE3F3",
"p%	c #FCFAFF",
"q%	c #F9F0FF",
"r%	c #F7EBFF",
"s%	c #F4E6FF",
"t%	c #F2DFFF",
"u%	c #EFD9FF",
"v%	c #EBD2FF",
"w%	c #E4CBFC",
"x%	c #D7C6F5",
"y%	c #C3B8CA",
"z%	c #988D75",
"A%	c #847F70",
"B%	c #9C9B9B",
"C%	c #908489",
"D%	c #C7ABB7",
"E%	c #E4C0D2",
"F%	c #E5BAD5",
"G%	c #E4B3D7",
"H%	c #E2ABDA",
"I%	c #E0A3DC",
"J%	c #DE9CDE",
"K%	c #DC95DF",
"L%	c #DA8FE1",
"M%	c #D389DF",
"N%	c #C1B8CB",
"O%	c #F9F5FE",
"P%	c #F7ECFF",
"Q%	c #F5E6FF",
"R%	c #F2E1FF",
"S%	c #F0DBFF",
"T%	c #EDD3FF",
"U%	c #E9CCFF",
"V%	c #E4C6FD",
"W%	c #C5AEB8",
"X%	c #C6B68E",
"Y%	c #C5B68B",
"Z%	c #766A48",
"`%	c #877B83",
" &	c #B8A2AF",
".&	c #DDBECE",
"+&	c #E2BED1",
"@&	c #E3BAD3",
"#&	c #E3B5D5",
"$&	c #E2AED7",
"%&	c #E0A6D9",
"&&	c #DE9EDB",
"*&	c #DB96DE",
"=&	c #D88EE1",
"-&	c #B47AC5",
";&	c #E3DDE9",
">&	c #F5E7FF",
",&	c #F2E2FF",
"'&	c #F0DCFF",
")&	c #EED6FF",
"!&	c #EACDFF",
"~&	c #E7C6FE",
"{&	c #C6ABAD",
"]&	c #CCBC92",
"^&	c #D1BF8B",
"/&	c #CAB676",
"(&	c #7B6C48",
"_&	c #AC9CB1",
":&	c #D4BBD0",
"<&	c #DABBCF",
"[&	c #DDBAD0",
"}&	c #E0B8D1",
"|&	c #E1B5D3",
"1&	c #E1AFD5",
"2&	c #E0A8D7",
"3&	c #DDA0D9",
"4&	c #DA97DD",
"5&	c #CB88D9",
"6&	c #F3F1F6",
"7&	c #F5E8FF",
"8&	c #F3E3FF",
"9&	c #F1DDFF",
"0&	c #EED7FF",
"a&	c #EBD0FF",
"b&	c #E7C7FE",
"c&	c #C5A9A9",
"d&	c #C9B88B",
"e&	c #CFBD86",
"f&	c #C7B06A",
"g&	c #B59D52",
"h&	c #716459",
"i&	c #B7A7C6",
"j&	c #CFB7D3",
"k&	c #D5B7D0",
"l&	c #D8B6CF",
"m&	c #DBB4D0",
"n&	c #DDB2D1",
"o&	c #DEAED3",
"p&	c #DEA9D5",
"q&	c #DBA0D9",
"r&	c #D393DC",
"s&	c #A9A3B0",
"t&	c #F6F2F9",
"u&	c #FAF2FF",
"v&	c #F8EEFF",
"w&	c #F1DEFF",
"x&	c #EDD2FF",
"y&	c #E8CAFD",
"z&	c #C5A9A6",
"A&	c #C4B385",
"B&	c #D0BE87",
"C&	c #C6AF66",
"D&	c #BDA24A",
"E&	c #7F6A2F",
"F&	c #847895",
"G&	c #BEADD8",
"H&	c #C9B2D6",
"I&	c #CFB2D1",
"J&	c #D4B1CF",
"K&	c #D7B0CF",
"L&	c #D9AED0",
"M&	c #DBACD2",
"N&	c #DAA5D5",
"O&	c #D69ADB",
"P&	c #A174B1",
"Q&	c #ACA3B5",
"R&	c #F2E9F9",
"S&	c #F2E0FF",
"T&	c #F0DAFF",
"U&	c #EDD4FF",
"V&	c #E1C6E6",
"W&	c #C2A994",
"X&	c #C8B990",
"Y&	c #D2C290",
"Z&	c #C8B26D",
"`&	c #BA9F4A",
" *	c #856E2B",
".*	c #756176",
"+*	c #A693CF",
"@*	c #BDABE2",
"#*	c #C3ADDA",
"$*	c #CAADD3",
"%*	c #CFADD0",
"&*	c #D2ACCF",
"**	c #D5A9D0",
"=*	c #D6A5D3",
"-*	c #D29BD9",
";*	c #A478B3",
">*	c #998EA3",
",*	c #E6D7F2",
"'*	c #F4E4FF",
")*	c #EDD5FF",
"!*	c #CFB6BA",
"~*	c #B49E70",
"{*	c #C4B590",
"]*	c #C0B084",
"^*	c #AD9A63",
"/*	c #917B49",
"(*	c #775F55",
"_*	c #8B699B",
":*	c #AF88D7",
"<*	c #BDA0F0",
"[*	c #B9A5E8",
"}*	c #BDA8DF",
"|*	c #C3A8D7",
"1*	c #C9A8D2",
"2*	c #CDA6D0",
"3*	c #CFA2D2",
"4*	c #CA97D3",
"5*	c #966FA5",
"6*	c #CDBADC",
"7*	c #EDD8FD",
"8*	c #ECD1FF",
"9*	c #E1C4F7",
"0*	c #BFA1CF",
"a*	c #A688AB",
"b*	c #9B7C9D",
"c*	c #9978A5",
"d*	c #A37CBE",
"e*	c #B686D7",
"f*	c #CA92F2",
"g*	c #CC97FC",
"h*	c #C199F6",
"i*	c #B89EED",
"j*	c #B8A2E3",
"k*	c #BDA3DB",
"l*	c #C4A2D5",
"m*	c #C89FD3",
"n*	c #B88DC5",
"o*	c #9684A5",
"p*	c #D2B9E6",
"q*	c #E7C6FF",
"r*	c #E3BCFE",
"s*	c #DBAEFB",
"t*	c #D7A6F9",
"u*	c #D5A2FA",
"v*	c #D59EFD",
"w*	c #CE91FE",
"x*	c #C391F9",
"y*	c #B897F1",
"z*	c #B49CE7",
"A*	c #B79EDF",
"B*	c #B293CD",
"C*	c #8D709F",
"D*	c #B99CCF",
"E*	c #D1AAED",
"F*	c #D8A8FA",
"G*	c #D9A5FE",
"H*	c #D599FF",
"I*	c #CC8AFE",
"J*	c #C389F8",
"K*	c #B189E7",
"L*	c #9A81C8",
"M*	c #786594",
"N*	c #85689D",
"O*	c #9974B6",
"P*	c #9C73BB",
"Q*	c #9B70BB",
"R*	c #966BB7",
"S*	c #845EA1",
"                                                                                                ",
"                                                                                                ",
"                                                                                                ",
"                                                                                          .     ",
"                                                                                        + @ #   ",
"                                                                                      $ % & *   ",
"                                                                                    = - ; >     ",
"                                                                                  , ' ) !       ",
"                            ~ { ] ^ / ( _ : < [ } |                             1 2 3 4 5       ",
"                        6 7 8 9 0 a ( _ b c d e f g h i                       j k l m n         ",
"                    o p q r s t u v w b c d e f x y z A B C                   D E F G           ",
"                  H I J K L M N O P Q c d e f x R S A T U V W               X Y Z `  .          ",
"                ..+.@.#.$.%.&.*.=.-.;.>.e f x ,.'.).!.U V ~.{.].          ^./.(.Z _.            ",
"              :.<.[.}.|.1.2.3.4.5.6.7.8.f x ,.9.).!.U V ~.{.0.a.b.      c.d.e.f.g.              ",
"            h.i.j.k.l.m.n.o.p.q.r.s.t.u.x ,.9.v.!.U V ~.{.0.w.x.y.z.  A.B.C.D.E.F.              ",
"          G.H.I.J.K.L.M.N.O.P.Q.R.S.T.U.V.9.W.X.U V ~.{.0.a.x.y.Y.Z.`. +.+++E.@+                ",
"        #+$+%+&+*+=+-+;+>+,+'+)+!+~+{+]+^+W./+U V ~.{.0.a.x.y.(+_+:+<+[+}+|+1+                  ",
"        2+3+4+5+6+7+8+9+0+a+b+c+d+e+f+g+h+i+j+V k+{.0.w.x.y.(+l+m+n+o+p+q+r+ .                  ",
"      s+t+u+v+w+x+y+z+A+B+C+D+E+F+G+H+I+J+K+L+k+{.0.a.x.y.(+M+N+O+P+Q+R+S+T+                    ",
"      U+V+W+X+Y+Z+`+ @.@+@@@#@$@%@&@*@=@-@;@>@,@'@a.x.y.(+M+)@!@~@Q+{@]@^@                      ",
"      /@(@_@:@<@[@}@|@1@2@3@4@5@6@7@8@9@9@0@a@b@c@d@y.(+M+e@f@g@g@{@]@h@i@                      ",
"      j@k@l@m@n@o@p@q@r@s@t@u@v@w@x@y@z@z@A@B@C@D@E@F@M+G@H@I@}+J@Z K@L@M@N@                    ",
"    O@P@Q@R@S@T@U@V@W@X@Y@Z@`@ #.#z@+#@#A@y@A@##$#%#&#*#=#-#;#>#` ,#'#)#!#~#                    ",
"    {#]#^#/#(#_#:#<#[#}#|#1#2#C@A@z@3#    4#5#A@.#6#7#8#9#r+E.0#a#b#c#d#e#f#                    ",
"    g#( _ b h#i#j#k#l#m#n#o#p#q#+#+#        r#B@##s#t#u#Z v#w#x#y#z#A#B#C#D#                    ",
"    E#_ b c d e F#G#H#I#J#K#L#M#B@            B@N#O#P#Q#R#4 S#T#U#V#W#C#X#Y#                    ",
"    Z#`#c d e f x ,. $.$+$@$#$N#B@y@          B@$$%$&$*$=$-$;$>$,$'$C#X#)$!$                    ",
"    ~$c d e f x ,.9.W./+{$]$^$######z@      ##z@5#/$($_$:$<$[$}$|$1$2$3$4$5$                    ",
"    6$d e f x ,.9.W./+j+7$8$9$+#0$A@z@$$$$z@B@0$.#a$b$c$d$e$f$g$h$i$j$k$l$m$                    ",
"    n$e f x ,.9.W.X.U o$~.p$q$r$M#s$$$y@B@N#s$A@t$u$9@v$w$x$y$z$A$B$C$D$E$F$                    ",
"      G$x ,.9.).{$7$H$a.{.0.I$J$K$L$N#0$0$N#M$N$O$P$Q$R$S$T$U$V$W$X$Y$Z$`$                      ",
"       %y W..%+%@%H$a.{.0.a.#%$%%%&%*%=%-%;%>%,%'%)%!%~%{%]%^%/%(%_%:%<%[%                      ",
"      }%!.U |%V 1%a.2%0.3%x.4%l+5%6%7%8%9%0%a%'%b%c%d%e%f%g%h%i%j%k%l%m%n%                      ",
"        o%7$o$1%p%2%0.3%x.q%r%s%t%u%v%w%x%y%z%A%B%C%D%E%F%G%H%I%J%K%L%M%                        ",
"        N%O%1%p%2%0.3%H$y.P%Q%R%S%T%U%V%W%X%Y%Z%`% &.&+&@&#&$&%&&&*&=&-&                        ",
"          ;&p%2%0.3%H$y.(+>&,&'&)&!&~&{&]&^&/&(&_&:&<&[&}&|&1&2&3&4&5&                          ",
"            6&0.3%H$|%(+7&8&9&0&a&b&c&d&e&f&g&h&i&j&k&l&m&n&o&p&q&r&                            ",
"            s&t&1%u&v&M+5%w&u%x&y&z&A&B&C&D&E&F&G&H&I&J&K&L&M&N&O&P&                            ",
"              Q&R&v&l+G@S&T&U&V&W&X&Y&Z&`& *.*+*@*#*$*%*&***=*-*;*                              ",
"                >*,*'*R%S%)*!*~*{*]*^*/*(*_*:*<*[*}*|*1*2*3*4*5*                                ",
"                    6*7*0&8*9*0*a*b*c*d*e*f*g*h*i*j*k*l*m*n*                                    ",
"                      o*p*y&q*r*s*t*u*v*X#)$w*x*y*z*A*B*C*                                      ",
"                            D*E*F*G*C#H*)$4$I*J*K*L*M*                                          ",
"                                  N*O*P*Q*R*S*                                                  ",
"                                                                                                ",
"                                                                                                ",
"                                                                                                ",
"                                                                                                "};
