/* XPM */
static char * eog_xpm[] = {
"48 48 911 2",
"  	c None",
". 	c #84857F",
"+ 	c #898A85",
"@ 	c #8B8C86",
"# 	c #83847E",
"$ 	c #767771",
"% 	c #81827C",
"& 	c #9A9B96",
"* 	c #B0B0AC",
"= 	c #C9CAC7",
"- 	c #E2E2E1",
"; 	c #EBEBEA",
"> 	c #BEBEBB",
", 	c #7C7D77",
"' 	c #7E7F79",
") 	c #7B7C76",
"! 	c #A8A8A3",
"~ 	c #D0D0CE",
"{ 	c #EEEEEE",
"] 	c #F5F5F4",
"^ 	c #F7F7F5",
"/ 	c #F4F4F2",
"( 	c #EFEFED",
"_ 	c #FEFEFD",
": 	c #979893",
"< 	c #858680",
"[ 	c #8A8B85",
"} 	c #91928C",
"| 	c #B4B4B0",
"1 	c #DEDEDC",
"2 	c #FFFFFF",
"3 	c #F9F9F8",
"4 	c #F1F1EF",
"5 	c #ECECEA",
"6 	c #ECECE9",
"7 	c #EAEAE8",
"8 	c #FAFAF9",
"9 	c #C0C0BD",
"0 	c #858681",
"a 	c #9E9F9B",
"b 	c #B5B6B3",
"c 	c #CFCFCD",
"d 	c #E8E9E7",
"e 	c #FDFDFD",
"f 	c #FCFCFB",
"g 	c #F0F0EE",
"h 	c #EBEBE9",
"i 	c #F3F3F1",
"j 	c #E5E5E3",
"k 	c #7D7E78",
"l 	c #868781",
"m 	c #D9D9D7",
"n 	c #F2F2F2",
"o 	c #F7F7F6",
"p 	c #F8F8F6",
"q 	c #F4F4F3",
"r 	c #F0F0ED",
"s 	c #EEEEEC",
"t 	c #EDEDEB",
"u 	c #ECECEB",
"v 	c #EDEDEA",
"w 	c #F1F1F1",
"x 	c #91928D",
"y 	c #959590",
"z 	c #BCBDBA",
"A 	c #E7E7E6",
"B 	c #F8F8F7",
"C 	c #E7E7E4",
"D 	c #E9E9E7",
"E 	c #A6A7A2",
"F 	c #A1A19D",
"G 	c #BABBB8",
"H 	c #D5D5D3",
"I 	c #EEEEED",
"J 	c #E0E0DD",
"K 	c #CACCC7",
"L 	c #B5B7B2",
"M 	c #9DA199",
"N 	c #DBDCD9",
"O 	c #F3F3F2",
"P 	c #BEBFBB",
"Q 	c #C6C7C4",
"R 	c #F8F8F8",
"S 	c #EEEEEB",
"T 	c #EDECEB",
"U 	c #EFEEED",
"V 	c #F0EFEE",
"W 	c #DADCD8",
"X 	c #B7BAB4",
"Y 	c #969B93",
"Z 	c #8C9288",
"` 	c #99A088",
" .	c #ABB58A",
"..	c #9CA581",
"+.	c #BBBEB7",
"@.	c #F1F1EE",
"#.	c #D7D8D5",
"$.	c #878882",
"%.	c #8C8D88",
"&.	c #F0F1EF",
"*.	c #E6E7E4",
"=.	c #E1E2DF",
"-.	c #CFD0CC",
";.	c #AEB2A9",
">.	c #919789",
",.	c #8B9180",
"'.	c #9EA789",
").	c #B7C193",
"!.	c #CAD796",
"~.	c #C9D791",
"{.	c #C1D082",
"].	c #AEBA85",
"^.	c #9A9F94",
"/.	c #EFEFEE",
"(.	c #8B8C87",
"_.	c #8A8B86",
":.	c #E6E7E6",
"<.	c #EDEDEC",
"[.	c #EFEEEC",
"}.	c #DCDDD9",
"|.	c #C5C8C3",
"1.	c #AFB2AD",
"2.	c #A0A69A",
"3.	c #9BA28F",
"4.	c #A0A58E",
"5.	c #B6BF99",
"6.	c #C7D19E",
"7.	c #CFDA9A",
"8.	c #CCDA90",
"9.	c #C2D281",
"0.	c #B8CA73",
"a.	c #B0C365",
"b.	c #ACC062",
"c.	c #B4C47D",
"d.	c #838979",
"e.	c #E6E6E4",
"f.	c #9B9C98",
"g.	c #CDCECB",
"h.	c #D4D6D1",
"i.	c #B0B4AC",
"j.	c #949A8F",
"k.	c #8E9488",
"l.	c #A7AD94",
"m.	c #C3CCA5",
"n.	c #C6C6AF",
"o.	c #AEA3A8",
"p.	c #A3969A",
"q.	c #9B8C90",
"r.	c #B1B584",
"s.	c #C0D178",
"t.	c #BACC70",
"u.	c #B5CA68",
"v.	c #B1C663",
"w.	c #ABC060",
"x.	c #A7BD5C",
"y.	c #B3C76F",
"z.	c #878F77",
"A.	c #C3C4C0",
"B.	c #C2C2BF",
"C.	c #797A74",
"D.	c #B3B4B0",
"E.	c #E1E1DE",
"F.	c #C8CAC5",
"G.	c #A8ADA3",
"H.	c #8F9587",
"I.	c #909686",
"J.	c #A7AA98",
"K.	c #ABA4A5",
"L.	c #BCB1B8",
"M.	c #B9AFB1",
"N.	c #C0BDA2",
"O.	c #988890",
"P.	c #D2CACF",
"Q.	c #F2F0F2",
"R.	c #CFC8CC",
"S.	c #8E7D84",
"T.	c #ABB177",
"U.	c #9A9181",
"V.	c #948191",
"W.	c #938683",
"X.	c #9DAA60",
"Y.	c #9BB052",
"Z.	c #A2B65E",
"`.	c #8F9B6F",
" +	c #9A9D97",
".+	c #EAEAE9",
"++	c #767772",
"@+	c #9D9E99",
"#+	c #F6F6F6",
"$+	c #E9EAE8",
"%+	c #ABAFA8",
"&+	c #9EA297",
"*+	c #9FA592",
"=+	c #AFB59D",
"-+	c #C6CBAE",
";+	c #DDE2BD",
">+	c #F0F7C3",
",+	c #B5AAA8",
"'+	c #CEC6CC",
")+	c #F3F1F2",
"!+	c #D0C8CD",
"~+	c #8B7884",
"{+	c #ADA0A8",
"]+	c #A0909A",
"^+	c #94828E",
"/+	c #A79EA5",
"(+	c #928F90",
"_+	c #5F5A5E",
":+	c #595755",
"<+	c #646A56",
"[+	c #676C5C",
"}+	c #65685B",
"|+	c #585B57",
"1+	c #7B7D7A",
"2+	c #ABACAA",
"3+	c #767773",
"4+	c #82847E",
"5+	c #A1A59E",
"6+	c #C3C8AA",
"7+	c #E6EAC6",
"8+	c #E9EDC6",
"9+	c #ECF2BF",
"0+	c #EDF5B6",
"a+	c #E9F1AC",
"b+	c #E7F2A6",
"c+	c #98898C",
"d+	c #DAD5D9",
"e+	c #FEFEFF",
"f+	c #BEB5BD",
"g+	c #AAA0AC",
"h+	c #8B7A85",
"i+	c #5A5557",
"j+	c #50524F",
"k+	c #898A87",
"l+	c #DBDAD6",
"m+	c #E0DEDC",
"n+	c #E1DFDE",
"o+	c #DFDEDC",
"p+	c #C3C3BF",
"q+	c #888986",
"r+	c #484A47",
"s+	c #3F413D",
"t+	c #D4D5D2",
"u+	c #B4B8B1",
"v+	c #C0C5A9",
"w+	c #EFF4C3",
"x+	c #E6EEA8",
"y+	c #CCCC9F",
"z+	c #95848B",
"A+	c #907D8C",
"B+	c #9A8C8D",
"C+	c #958587",
"D+	c #AEA0A9",
"E+	c #FAFAFB",
"F+	c #FBF5EB",
"G+	c #ECCEA3",
"H+	c #DA9E49",
"I+	c #DB9124",
"J+	c #D78814",
"K+	c #A8762D",
"L+	c #4B4D4B",
"M+	c #898B88",
"N+	c #E0DFDC",
"O+	c #DCDEE0",
"P+	c #A9B0BF",
"Q+	c #7D879F",
"R+	c #6A8775",
"S+	c #587966",
"T+	c #658375",
"U+	c #758A8F",
"V+	c #A5AFBD",
"W+	c #DCDFE0",
"X+	c #E0E1E0",
"Y+	c #4B4D4A",
"Z+	c #ABACA7",
"`+	c #CACCC8",
" @	c #9FA593",
".@	c #F4F8CC",
"+@	c #E3E9AA",
"@@	c #928186",
"#@	c #CEC6CB",
"$@	c #E9E6E8",
"%@	c #DAD4D9",
"&@	c #C0B6BD",
"*@	c #A0929D",
"=@	c #DFBF94",
"-@	c #DC9835",
";@	c #E29518",
">@	c #ECA627",
",@	c #F2AD2B",
"'@	c #8A682D",
")@	c #686A68",
"!@	c #C7C7C5",
"~@	c #CDC6BD",
"{@	c #938474",
"]@	c #9CA2AE",
"^@	c #A9B0C6",
"/@	c #C2C7CE",
"(@	c #C1C8CB",
"_@	c #697386",
":@	c #61717B",
"<@	c #5C786E",
"[@	c #5E738F",
"}@	c #8398B5",
"|@	c #A0AFC4",
"1@	c #BEC4CB",
"2@	c #BDBDB9",
"3@	c #666865",
"4@	c #363835",
"5@	c #82837D",
"6@	c #E4E4E1",
"7@	c #8B9187",
"8@	c #ECF1C7",
"9@	c #E2E9AC",
"0@	c #918185",
"a@	c #D1CACE",
"b@	c #EACEA7",
"c@	c #D78D21",
"d@	c #F2AF2C",
"e@	c #FAC43C",
"f@	c #FFD644",
"g@	c #968240",
"h@	c #727473",
"i@	c #E0E1DF",
"j@	c #ACA491",
"k@	c #9D876A",
"l@	c #DFD8D0",
"m@	c #E4DED9",
"n@	c #C6C3C2",
"o@	c #BBC7DB",
"p@	c #BAC6D9",
"q@	c #B1BED2",
"r@	c #80859F",
"s@	c #6F7B83",
"t@	c #60747F",
"u@	c #92A2BA",
"v@	c #92A4C0",
"w@	c #5D728D",
"x@	c #8796AB",
"y@	c #CCCBC6",
"z@	c #6D6E6B",
"A@	c #3F403D",
"B@	c #F9F8F7",
"C@	c #969C92",
"D@	c #C9CFAD",
"E@	c #E7F0B0",
"F@	c #BEBE94",
"G@	c #907F86",
"H@	c #B8ADB4",
"I@	c #E9E5E8",
"J@	c #F4EFEB",
"K@	c #DEA456",
"L@	c #EEA324",
"M@	c #FCC038",
"N@	c #FFD445",
"O@	c #B8A549",
"P@	c #51555A",
"Q@	c #DDDDDA",
"R@	c #A4A089",
"S@	c #A89B7C",
"T@	c #F0EAE2",
"U@	c #D0B18F",
"V@	c #A36428",
"W@	c #9E7B5B",
"X@	c #C0C7D5",
"Y@	c #C2CCDB",
"Z@	c #BBC3D2",
"`@	c #807F96",
" #	c #79857A",
".#	c #5E726A",
"+#	c #9CAABB",
"@#	c #A3B3C8",
"##	c #73849C",
"$#	c #2F4D77",
"%#	c #6F84A3",
"&#	c #BEBFBC",
"*#	c #545653",
"=#	c #B6B7B3",
"-#	c #FDFDFC",
";#	c #B9BCB5",
">#	c #A3AA92",
",#	c #E6EEB4",
"'#	c #DAE896",
")#	c #B0AD8B",
"!#	c #85727D",
"~#	c #877480",
"{#	c #A28E8F",
"]#	c #D08A30",
"^#	c #F6A725",
"/#	c #FBBA32",
"(#	c #E0B43E",
"_#	c #4F4D42",
":#	c #CDCDCA",
"<#	c #B4B29D",
"[#	c #B2AB90",
"}#	c #EFE8DE",
"|#	c #C19C69",
"1#	c #B5752D",
"2#	c #BF6E22",
"3#	c #9E6736",
"4#	c #918793",
"5#	c #877F91",
"6#	c #7B7284",
"7#	c #778161",
"8#	c #7A984A",
"9#	c #697C62",
"0#	c #909BA7",
"a#	c #B1BECE",
"b#	c #8D9DB0",
"c#	c #485D77",
"d#	c #8796AA",
"e#	c #A8A9A7",
"f#	c #434441",
"g#	c #92938E",
"h#	c #FCFDFC",
"i#	c #8C9383",
"j#	c #E0E9B1",
"k#	c #B0AB8E",
"l#	c #918088",
"m#	c #CCC5C9",
"n#	c #F1EFF0",
"o#	c #F3EEEB",
"p#	c #D99D53",
"q#	c #EA9119",
"r#	c #F9A926",
"s#	c #8A6B2E",
"t#	c #A2A3A1",
"u#	c #D5D4CC",
"v#	c #9F9477",
"w#	c #E8E3D9",
"x#	c #B9925B",
"y#	c #B97B30",
"z#	c #C87522",
"A#	c #C16A17",
"B#	c #B88354",
"C#	c #CDC9CE",
"D#	c #B7B1BA",
"E#	c #928692",
"F#	c #84787D",
"G#	c #81944F",
"H#	c #7A905A",
"I#	c #7A8286",
"J#	c #C1CAD5",
"K#	c #ACB8C8",
"L#	c #546374",
"M#	c #A5AAAD",
"N#	c #838481",
"O#	c #F3F2F0",
"P#	c #92998A",
"Q#	c #C8CEA7",
"R#	c #918087",
"S#	c #E1DDE0",
"T#	c #E6C8A7",
"U#	c #CA7819",
"V#	c #DC8417",
"W#	c #675F4F",
"X#	c #D9DAD8",
"Y#	c #9B8B74",
"Z#	c #C8B8A4",
"`#	c #C4A276",
" $	c #B6762E",
".$	c #C67422",
"+$	c #C76B15",
"@$	c #AF631C",
"#$	c #D7BCA6",
"$$	c #F7F9FD",
"%$	c #FAFCFE",
"&$	c #FDFFFF",
"*$	c #BFB8C0",
"=$	c #887C80",
"-$	c #89A054",
";$	c #646B65",
">$	c #CBD1D8",
",$	c #C7D0DD",
"'$	c #606E7C",
")$	c #365176",
"!$	c #506A90",
"~$	c #A4A4A0",
"{$	c #4E504D",
"]$	c #CFD0CD",
"^$	c #AFB3AB",
"/$	c #B5BD9A",
"($	c #9C8D92",
"_$	c #CBC2C8",
":$	c #DBD5D8",
"<$	c #C0B5BC",
"[$	c #A0939E",
"}$	c #DEBD9A",
"|$	c #A37037",
"1$	c #7B8081",
"2$	c #C1BCB7",
"3$	c #8A6C52",
"4$	c #CFB9A5",
"5$	c #A76C35",
"6$	c #AF6522",
"7$	c #AD5A0F",
"8$	c #B87438",
"9$	c #CBAB94",
"0$	c #988C9A",
"a$	c #BEB6BD",
"b$	c #DAD6DC",
"c$	c #E4E2E6",
"d$	c #C1B9C2",
"e$	c #877D7A",
"f$	c #8FAA4A",
"g$	c #6A7261",
"h$	c #B3B7BA",
"i$	c #D2D9E1",
"j$	c #86929E",
"k$	c #44556B",
"l$	c #8F9498",
"m$	c #676865",
"n$	c #B6B6B2",
"o$	c #CFD1CC",
"p$	c #A1A98B",
"q$	c #C1C59A",
"r$	c #938486",
"s$	c #93808F",
"t$	c #91808A",
"u$	c #917F8A",
"v$	c #E0DBDE",
"w$	c #898782",
"x$	c #9C9D9A",
"y$	c #969191",
"z$	c #9C8A80",
"A$	c #B0947D",
"B$	c #986943",
"C$	c #956647",
"D$	c #CEBAAB",
"E$	c #EFEBE9",
"F$	c #F6F7FB",
"G$	c #C2BAC1",
"H$	c #8D7C88",
"I$	c #918385",
"J$	c #998898",
"K$	c #999089",
"L$	c #96AA5A",
"M$	c #95B04E",
"N$	c #747F5E",
"O$	c #8F9293",
"P$	c #DADFE4",
"Q$	c #B3BCC6",
"R$	c #5C6673",
"S$	c #AAB9CE",
"T$	c #61758D",
"U$	c #787874",
"V$	c #434542",
"W$	c #9FA09B",
"X$	c #F2F2F1",
"Y$	c #9AA08C",
"Z$	c #CDD89F",
"`$	c #BACD6E",
" %	c #B4C56C",
".%	c #8D7E7F",
"+%	c #DFDADD",
"@%	c #636562",
"#%	c #ACACA7",
"$%	c #899CB9",
"%%	c #C5D2E4",
"&%	c #C2D0E3",
"*%	c #C6D4E7",
"=%	c #767086",
"-%	c #BBB8C3",
";%	c #F4F6F8",
">%	c #FAFCFC",
",%	c #EEEDEF",
"'%	c #A192A0",
")%	c #94AA55",
"!%	c #91A94F",
"~%	c #849656",
"{%	c #7A8265",
"]%	c #737572",
"^%	c #797C7B",
"/%	c #A1A4A2",
"(%	c #DBDFE1",
"_%	c #CFD7E0",
":%	c #A6ABB0",
"<%	c #B4BFCC",
"[%	c #385A88",
"}%	c #7F7F7A",
"|%	c #454744",
"1%	c #888982",
"2%	c #9FA39A",
"3%	c #C4D099",
"4%	c #B9CA75",
"5%	c #ACBE65",
"6%	c #8F8180",
"7%	c #C3B9C1",
"8%	c #E4E0E3",
"9%	c #D2C9D1",
"0%	c #4B4C4A",
"a%	c #A9AAA9",
"b%	c #8DA0BD",
"c%	c #C8D3E2",
"d%	c #BECBDD",
"e%	c #BCC4D4",
"f%	c #817988",
"g%	c #938C89",
"h%	c #BEB8BF",
"i%	c #CDCDCE",
"j%	c #AFAFAE",
"k%	c #7D7A7B",
"l%	c #797F6C",
"m%	c #898B87",
"n%	c #A1A1A1",
"o%	c #BABAB9",
"p%	c #D2D3D0",
"q%	c #E4E5E5",
"r%	c #D9DCDD",
"s%	c #DCE0E4",
"t%	c #CACDCF",
"u%	c #ADB6C1",
"v%	c #315486",
"w%	c #797B7A",
"x%	c #464845",
"y%	c #787972",
"z%	c #D7D7D5",
"A%	c #F2F2F0",
"B%	c #B0B3AE",
"C%	c #AEB88C",
"D%	c #BDCD7E",
"E%	c #A9BF5C",
"F%	c #A2B35F",
"G%	c #928A7B",
"H%	c #93818E",
"I%	c #948C7A",
"J%	c #474947",
"K%	c #A5A7A8",
"L%	c #6D7B9B",
"M%	c #BEC8D9",
"N%	c #B2BDD1",
"O%	c #9092A6",
"P%	c #808284",
"Q%	c #778169",
"R%	c #6F726F",
"S%	c #7A7C79",
"T%	c #999B97",
"U%	c #C5C5C3",
"V%	c #DBDBD8",
"W%	c #E6E6E3",
"X%	c #E3E4E2",
"Y%	c #E3E4E3",
"Z%	c #E4E6E5",
"`%	c #E2E5E6",
" &	c #CDD2D5",
".&	c #9EA7B2",
"+&	c #2F5285",
"@&	c #727675",
"#&	c #B0B0AD",
"$&	c #C5C7C2",
"%&	c #99A286",
"&&	c #C1D185",
"*&	c #A5BB56",
"=&	c #A1B853",
"-&	c #9FB84E",
";&	c #9DB74A",
">&	c #A4BE52",
",&	c #4A4C4A",
"'&	c #9FA29F",
")&	c #63748D",
"!&	c #8B95A8",
"~&	c #697686",
"{&	c #67757C",
"]&	c #7B8387",
"^&	c #A8ABAB",
"/&	c #D5D6D5",
"(&	c #E5E6E5",
"_&	c #DEE1E2",
":&	c #D3D7DC",
"<&	c #8D98A4",
"[&	c #2E5184",
"}&	c #6B6E6C",
"|&	c #454643",
"1&	c #898984",
"2&	c #8E9387",
"3&	c #BCCD82",
"4&	c #AFC369",
"5&	c #AEC468",
"6&	c #AABD6C",
"7&	c #A1B272",
"8&	c #98A672",
"9&	c #4E514B",
"0&	c #959490",
"a&	c #637890",
"b&	c #8A9BAD",
"c&	c #94A2B3",
"d&	c #ACB7C4",
"e&	c #E2E4E7",
"f&	c #EEEFED",
"g&	c #EBECEA",
"h&	c #EBECE9",
"i&	c #EAEBE8",
"j&	c #E7E8E6",
"k&	c #E2E3E4",
"l&	c #D9DCE0",
"m&	c #CFD4DB",
"n&	c #7A8695",
"o&	c #325380",
"p&	c #646560",
"q&	c #E3E3E1",
"r&	c #F2F1F0",
"s&	c #949990",
"t&	c #A5B37D",
"u&	c #A2B07B",
"v&	c #8F997B",
"w&	c #868C7B",
"x&	c #919689",
"y&	c #B4B7B0",
"z&	c #797A77",
"A&	c #7C7B77",
"B&	c #8997A8",
"C&	c #94A6BF",
"D&	c #A4B3C6",
"E&	c #D1D6DC",
"F&	c #E5E7E7",
"G&	c #E7E8E8",
"H&	c #EAEBE9",
"I&	c #EAE9E7",
"J&	c #E8E8E6",
"K&	c #E6E7E7",
"L&	c #E2E5E7",
"M&	c #DBE0E6",
"N&	c #A9B1BA",
"O&	c #5B6D84",
"P&	c #455973",
"Q&	c #595A55",
"R&	c #424441",
"S&	c #BBBCB8",
"T&	c #F8F7F5",
"U&	c #B4B7AF",
"V&	c #8D9289",
"W&	c #BDBFB9",
"X&	c #DDDDD9",
"Y&	c #ECEBE9",
"Z&	c #EBEBE8",
"`&	c #B4B4B1",
" *	c #5E605D",
".*	c #8F9599",
"+*	c #859BB7",
"@*	c #A5B3C6",
"#*	c #DADEE2",
"$*	c #E0E3E4",
"%*	c #E3E5E6",
"&*	c #E6E8E7",
"**	c #EAEBEA",
"=*	c #E8E9E8",
"-*	c #E3E4E4",
";*	c #D6D8D9",
">*	c #B1B6BA",
",*	c #899199",
"'*	c #707B89",
")*	c #555C61",
"!*	c #4D4E4A",
"~*	c #969792",
"{*	c #F8F7F6",
"]*	c #E0E1DE",
"^*	c #DFDFDC",
"/*	c #E8E7E5",
"(*	c #DADAD7",
"_*	c #5A5C59",
":*	c #8A8A85",
"<*	c #8192A9",
"[*	c #8DA0BB",
"}*	c #C0C9D3",
"|*	c #DBDEE2",
"1*	c #DCDFE2",
"2*	c #DFE1E3",
"3*	c #EBECEB",
"4*	c #EEEFEE",
"5*	c #D3D5D4",
"6*	c #BEC0BF",
"7*	c #A9ABAA",
"8*	c #969A9B",
"9*	c #82898E",
"0*	c #7F8994",
"a*	c #7E8DA0",
"b*	c #334F75",
"c*	c #565753",
"d*	c #434643",
"e*	c #E7E7E5",
"f*	c #878885",
"g*	c #676966",
"h*	c #84898C",
"i*	c #8499B6",
"j*	c #94A5BD",
"k*	c #C5CDD6",
"l*	c #D6DBE0",
"m*	c #DBDFE4",
"n*	c #E1E4E7",
"o*	c #DDDFE1",
"p*	c #C7C9CA",
"q*	c #ACAEAD",
"r*	c #999C9B",
"s*	c #989A9A",
"t*	c #9A9FA1",
"u*	c #A6AEB5",
"v*	c #4B5254",
"w*	c #494B48",
"x*	c #40423F",
"y*	c #777875",
"z*	c #7E8A98",
"A*	c #8A9FBB",
"B*	c #98A9C0",
"C*	c #B7C0CA",
"D*	c #B4BBC2",
"E*	c #A2A9AE",
"F*	c #949A9E",
"G*	c #969CA1",
"H*	c #A0A7AC",
"I*	c #3C4C60",
"J*	c #4A4C49",
"K*	c #B7B8B4",
"L*	c #E8E8E5",
"M*	c #F0F0EF",
"N*	c #FBFBF9",
"O*	c #9D9E9B",
"P*	c #707270",
"Q*	c #667486",
"R*	c #4B6383",
"S*	c #485D7A",
"T*	c #94A2B4",
"U*	c #A3B2C5",
"V*	c #374C66",
"W*	c #4A4D4B",
"X*	c #41423F",
"Y*	c #A0A19C",
"Z*	c #E0E0DF",
"`*	c #B9BAB6",
" =	c #94958F",
".=	c #848580",
"+=	c #595C57",
"@=	c #656664",
"#=	c #4F5D6C",
"$=	c #3E4C5C",
"%=	c #414340",
"&=	c #586264",
"*=	c #7F807A",
"==	c #CCCCC9",
"-=	c #D4D4D2",
";=	c #AFB0AB",
">=	c #898A84",
",=	c #3F413E",
"'=	c #474946",
")=	c #5B5C58",
"!=	c #50585E",
"~=	c #2D4D78",
"{=	c #234A82",
"]=	c #2B4B76",
"^=	c #454D53",
"/=	c #4B4D49",
"(=	c #555954",
"_=	c #8A5D14",
":=	c #9B6510",
"<=	c #96610B",
"[=	c #7B7C77",
"}=	c #888983",
"|=	c #787A73",
"1=	c #4B4C48",
"2=	c #4E504C",
"3=	c #454E56",
"4=	c #3C4C61",
"5=	c #354B6A",
"6=	c #2F4B72",
"7=	c #2D4A73",
"8=	c #454D55",
"9=	c #464844",
"0=	c #9E6205",
"a=	c #CA8D2D",
"b=	c #C69547",
"c=	c #A26E1B",
"d=	c #8A5400",
"e=	c #444643",
"f=	c #4B4E4D",
"g=	c #4A4E4D",
"h=	c #925B03",
"i=	c #C07C10",
"j=	c #C48520",
"k=	c #CC9B4D",
"l=	c #B17F2F",
"m=	c #8C5600",
"n=	c #8D5801",
"o=	c #9C6306",
"p=	c #C17D10",
"q=	c #C27E14",
"r=	c #CD9A49",
"s=	c #B48232",
"t=	c #915B05",
"u=	c #8F5902",
"v=	c #A96C09",
"w=	c #C17C10",
"x=	c #C17E13",
"y=	c #CC9640",
"z=	c #BA8838",
"A=	c #925C05",
"B=	c #B5740D",
"C=	c #C17D11",
"D=	c #CA943D",
"E=	c #C29143",
"F=	c #8E5801",
"G=	c #B7760E",
"H=	c #C07B0D",
"I=	c #CA943C",
"J=	c #BB8837",
"K=	c #915B04",
"L=	c #915B03",
"M=	c #B4740D",
"N=	c #BE8222",
"O=	c #935C04",
"P=	c #A36707",
"Q=	c #8B5601",
"R=	c #8C5701",
"                                                    . + @ #                                     ",
"                                            $ % & * = - ; > ,                                   ",
"                                    ' ) % ! ~ { ] ^ / ( ( _ :                                   ",
"                              < [ } | 1 2 2 3 4 5 5 6 6 7 8 9                                   ",
"                      $ 0 a b c d e f ] g 5 5 5 5 6 6 h h i j )                                 ",
"              k ) l * m n o p q r s t 5 5 u v 5 6 ; h 5 h 5 w x                                 ",
"        l @ y z A 2 2 B 4 t t v 5 t u v v 6 6 ; 5 5 5 6 C D q E                                 ",
"  # F G H I 2 f ] g t t t t v u t u v 5 6 ; t ( g J K L M N O P %                               ",
"< Q R B O g s s t t S t v 5 5 u v v 5 T U V W X Y Z `  ...+.@.#.$.                              ",
"%.&.( t t t s s t t 5 u 5 t t v 6 *.=.-.;.>.,.'.).!.~.{.].^./.s (.                              ",
"_.:.g t S <.t t t 5 t U 4 [.}.|.1.2.3.4.5.6.7.8.9.0.a.b.c.d.e.8 f.                              ",
"< g.q t s S t t s g ( h.i.j.k.l.m.n.o.p.q.r.s.t.u.v.w.x.y.z.A.o B.C.                            ",
"  D.B t S h *.E.F.G.H.I.J.K.L.M.N.O.P.Q.R.S.T.U.V.W.X.Y.Z.`. +4 .+++                            ",
"  @+#+$+K %+&+*+=+-+;+>+,+'+)+!+~+{+2 2 2 ]+^+/+(+_+:+<+[+}+|+1+2+3+                            ",
"  4+n t 5+6+7+8+9+0+a+b+c+d+2 e+f+g+2 2 2 h+i+j+k+A.l+m+n+o+l+p+q+r+s+                          ",
"  $ t+B u+v+w+x+y+z+A+B+C+D+E+F+G+H+I+J+K+L+M+N+O+P+Q+R+S+T+U+V+W+X+k+Y+                        ",
"    Z+2 `+ @.@+@@@#@$@%@&@*@=@-@;@>@,@'@)@!@~@{@]@^@/@(@_@:@<@[@}@|@1@2@3@4@                    ",
"    5@2 6@7@8@9@0@a@2 2 2 b@c@d@e@f@g@h@i@j@k@l@m@n@o@p@q@r@s@t@u@v@w@x@y@z@A@                  ",
"    ) i@B@C@D@E@F@G@H@I@J@K@L@M@N@O@P@Q@R@S@T@U@V@W@X@Y@Z@`@ #.#+#@###$#%#&#*#                  ",
"    k =#-#;#>#,#'#)#!#~#{#]#^#/#(#_#:#<#[#}#|#1#2#3#4#5#6#7#8#9#0#a#b#c#  d#e#f#                ",
"      g#h#Q@i#j#k#l#m#n#o#p#q#r#s#t#u#v#w#x#y#z#A#B#C#D#E#F#G#H#I#J#K#L#    M#N#4@              ",
"      [ A O#P#Q#R#S#2 2 2 T#U#V#W#X#Y#Z#`# $.$+$@$#$$$%$&$*$=$-$;$>$,$'$)$  !$~${$              ",
"      < ]$i ^$/$($_$$@:$<$[$}$|$1$2$3$4$5$6$7$8$9$0$a$b$c$d$e$f$g$h$i$j$k$    l$m$              ",
"        n$q o$p$q$r$s$t$u$v$2 w$x$y$z$A$B$C$D$E$F$G$H$I$J$K$L$M$N$O$P$Q$R$S$  T$U$V$            ",
"        W$X$J Y$Z$`$ %.%+%2 2 @%#%$%%%&%*%=%-%;%>%,%'%)%!%~%{%]%^%/%(%_%:%<%  [%}%|%            ",
"        1%/.C 2%3%4%5%6%7%8%9%0%a%b%c%d%e%f%g%h%i%j%k%l%m%n%o%p%:.q%r%s%t%u%  v%w%x%            ",
"        y%z%A%B%C%D%E%F%G%H%I%J%K%L%M%N%O%P%Q%R%S%T%U%V%J W%C j X%Y%Z%`% &.&  +&@&|%            ",
"          #&8 $&%&&&*&=&-&;&>&,&'&)&!&~&{&]&^&/&4 ( t 5 5 5 h h .+D (&_&:&<&  [&}&|&            ",
"          1&-#}.2&3&4&5&6&7&8&9&0&a&b&c&d&e&f&u g&g&5 h&h h i&7 d j&k&l&m&n&  o&p&V$            ",
"          , q&r&s&t&u&v&w&x&y&z&A&B&C&D&E&F&G&.+H&h h h .+7 I&J&j&K&L&M&N&O&  P&Q&R&            ",
"          k S&T&U&V&M W&X&Y&Z&`& *.*+*@*#*$*%*&*d D D d $+$+**=*-*;*>*,*'*    )*!*              ",
"            ~*{*]*^*h I&/*W%W%(*_*:*<*[*}*|*1*2*q%=*3*4*:.5*6*7*8*9*0*a*    b*c*d*              ",
"            _.e*J&C C W%C C W%W%f*g*h*i*j*k*l*m*n*o*p*q*r*s*t*u*            v*w*x*              ",
"            l ~ Z&W%C C W%W%W%C g.{$y*z*A*B*C*D*E*F*G*H*                  I*J*x*                ",
"              K*s W%W%W%W%L*5 M*N*O*x%P*Q*R*S*##T*U*                    V*W*X*                  ",
"              Y*g W%L*s q p Z*`* =.=+=J*@=#=                          $=L+%=&=                  ",
"              *===u 7 -=;=>=, ,       ,='=)=!=~={=              {=]=^=/=V$(=_=:=<=              ",
"                [=g#}=|=                  R&1=2=3=4=5=6=7=6=5=4=8=J*9=%=    0=a=b=c=d=          ",
"                                            %=%=e=r+W*f=g=f=W*r+e=%=%=      h=i=j=k=l=m=        ",
"                                                  x*x*x*%=x*x*x*            n=o=p=q=r=s=t=      ",
"                                                                              u=v=w=x=y=z=A=    ",
"                                                                                u=B=C=C=D=E=A=  ",
"                                                                                  F=G=C=H=I=J=K=",
"                                                                                    L=M=C=C=N=O=",
"                                                                                      L=G=C=P=u=",
"                                                                                        Q=Q=R=  ",
"                                                                                                ",
"                                                                                                "};
