/* XPM */
static char * evince_xpm[] = {
"48 48 585 2",
"  	c None",
". 	c #3868A6",
"+ 	c #3E6DA9",
"@ 	c #3565A4",
"# 	c #3566A4",
"$ 	c #3667A5",
"% 	c #3F6DA9",
"& 	c #ADC1DB",
"* 	c #E7EEF6",
"= 	c #FDFEFE",
"- 	c #FEFFFF",
"; 	c #FFFFFF",
"> 	c #B5C8DF",
", 	c #3968A6",
"' 	c #3A6AA7",
") 	c #DAE4F0",
"! 	c #F6F9FC",
"~ 	c #D5E3F1",
"{ 	c #C7D9ED",
"] 	c #C8D9EC",
"^ 	c #C9DAED",
"/ 	c #CBDBEE",
"( 	c #CDDCEE",
"_ 	c #CEDDEF",
": 	c #D0DEEF",
"< 	c #D1E0F0",
"[ 	c #D3E0F0",
"} 	c #D4E1F1",
"| 	c #D5E2F1",
"1 	c #D6E3F1",
"2 	c #D7E4F2",
"3 	c #DBE6F3",
"4 	c #E0EAF5",
"5 	c #E2EBF5",
"6 	c #E3ECF6",
"7 	c #E4ECF6",
"8 	c #E4EDF6",
"9 	c #DDE8F3",
"0 	c #D2E0F0",
"a 	c #F7F9FC",
"b 	c #DDE6F1",
"c 	c #3969A6",
"d 	c #A0B8D6",
"e 	c #F3F7FB",
"f 	c #C3D7EB",
"g 	c #C4D7EC",
"h 	c #C6D8EC",
"i 	c #C8D9ED",
"j 	c #C9DBED",
"k 	c #CBDCEE",
"l 	c #CDDDEE",
"m 	c #CEDEEF",
"n 	c #D0DFF0",
"o 	c #D3E1F1",
"p 	c #D6E3F2",
"q 	c #DEE9F4",
"r 	c #E8F0F7",
"s 	c #F2F6FB",
"t 	c #F6EEF0",
"u 	c #E89D9E",
"v 	c #E69192",
"w 	c #E5898A",
"x 	c #E48384",
"y 	c #E47E7F",
"z 	c #EEBCBE",
"A 	c #F4F4F8",
"B 	c #DDE7F4",
"C 	c #C5D8EC",
"D 	c #F4F7FB",
"E 	c #E9EFF6",
"F 	c #D1E0EF",
"G 	c #C3D6EB",
"H 	c #C5D7EC",
"I 	c #C6D9EC",
"J 	c #C8DAED",
"K 	c #CADBEE",
"L 	c #CCDCEE",
"M 	c #CFDFEF",
"N 	c #F4F8FC",
"O 	c #EDBABC",
"P 	c #E06E6F",
"Q 	c #D32627",
"R 	c #CC0000",
"S 	c #CD0202",
"T 	c #CF0707",
"U 	c #D00D0D",
"V 	c #D21212",
"W 	c #D41818",
"X 	c #E47576",
"Y 	c #F7FAFC",
"Z 	c #D3E1F0",
"` 	c #3768A5",
" .	c #C3D7EC",
"..	c #CCDDEE",
"+.	c #E1EBF5",
"@.	c #F4F6FA",
"#.	c #EAA8A9",
"$.	c #D42A2B",
"%.	c #DC4545",
"&.	c #F9FBFD",
"*.	c #E2ECF5",
"=.	c #D4E2F1",
"-.	c #C5D9EC",
";.	c #3666A5",
">.	c #3666A4",
",.	c #C2D6EB",
"'.	c #C4D7EB",
").	c #CDDDEF",
"!.	c #CFDEEF",
"~.	c #EBB1B3",
"{.	c #D32727",
"].	c #D01515",
"^.	c #E37272",
"/.	c #F1B8B8",
"(.	c #F6D3D4",
"_.	c #FBF0F1",
":.	c #E26C6C",
"<.	c #E57576",
"[.	c #E2EBF6",
"}.	c #CADBED",
"|.	c #F4EFF1",
"1.	c #DD5E5E",
"2.	c #D42727",
"3.	c #EFB0B0",
"4.	c #FCFDFE",
"5.	c #FBFDFE",
"6.	c #E16A6A",
"7.	c #D51C1C",
"8.	c #F8E0E1",
"9.	c #FAFCFD",
"0.	c #DBE7F3",
"a.	c #E8EFF7",
"b.	c #F1D1D3",
"c.	c #D42A2A",
"d.	c #CF0D0D",
"e.	c #EA9494",
"f.	c #FCFBFC",
"g.	c #FBFCFE",
"h.	c #F5F8FC",
"i.	c #EDF2F9",
"j.	c #F7E2E3",
"k.	c #D00E0E",
"l.	c #EC9A9A",
"m.	c #EFF4FA",
"n.	c #D3E2F1",
"o.	c #D0DFEF",
"p.	c #EBF1F8",
"q.	c #EBB3B5",
"r.	c #CD0404",
"s.	c #D63030",
"t.	c #FCF1F2",
"u.	c #EBF2F9",
"v.	c #E6EEF7",
"w.	c #FAFCFE",
"x.	c #DC4F4F",
"y.	c #E36D6D",
"z.	c #E7EFF7",
"A.	c #EDC0C2",
"B.	c #CE090A",
"C.	c #FAEBEC",
"D.	c #DDE8F4",
"E.	c #DFE9F5",
"F.	c #E99494",
"G.	c #DB4545",
"H.	c #FCF8F8",
"I.	c #D9E5F3",
"J.	c #E2ECF6",
"K.	c #F0CFD0",
"L.	c #CF1111",
"M.	c #CE0808",
"N.	c #F5D5D5",
"O.	c #EEF3F9",
"P.	c #DFE9F4",
"Q.	c #F0F5FA",
"R.	c #F2C6C6",
"S.	c #CD0606",
"T.	c #D52424",
"U.	c #FAE8E9",
"V.	c #FDFDFE",
"W.	c #ECF2F9",
"X.	c #F6F2F5",
"Y.	c #D11C1C",
"Z.	c #E68283",
"`.	c #D8E5F2",
" +	c #DAE6F3",
".+	c #DCE7F4",
"++	c #FAEEEE",
"@+	c #D11B1B",
"#+	c #D21B1B",
"$+	c #F7D9D9",
"%+	c #C2D5EB",
"&+	c #EDF3F9",
"*+	c #E48687",
"=+	c #CD0505",
"-+	c #F8E9EA",
";+	c #F8FAFD",
">+	c #D8E4F2",
",+	c #E6EFF7",
"'+	c #FAECEC",
")+	c #D52B2B",
"!+	c #D32121",
"~+	c #F7DDDD",
"{+	c #D2E1F0",
"]+	c #C1D5EB",
"^+	c #F3E8EB",
"/+	c #DB4F4F",
"(+	c #FAF3F4",
"_+	c #D73A3A",
":+	c #F9E3E3",
"<+	c #FEFEFF",
"[+	c #C7D9EC",
"}+	c #C1D5EA",
"|+	c #E69698",
"1+	c #EDAAAB",
"2+	c #FAF8FA",
"3+	c #DA4B4B",
"4+	c #D52E2E",
"5+	c #FAE8E8",
"6+	c #DCE8F3",
"7+	c #C0D4EA",
"8+	c #E37B7C",
"9+	c #F1C5C7",
"0+	c #F1F6FB",
"a+	c #F9F9FA",
"b+	c #DB4E4E",
"c+	c #D63434",
"d+	c #FDF3F3",
"e+	c #DAE5F3",
"f+	c #D9E5F2",
"g+	c #EEF4F9",
"h+	c #F5EEF0",
"i+	c #DE6263",
"j+	c #EFBBBC",
"k+	c #EEF4FA",
"l+	c #F9F7F8",
"m+	c #DC5555",
"n+	c #DE5B5B",
"o+	c #FCF6F7",
"p+	c #ECF3F9",
"q+	c #F7F3F6",
"r+	c #F2ABAB",
"s+	c #EA6363",
"t+	c #E58283",
"u+	c #E89798",
"v+	c #D8E5F3",
"w+	c #F8F6F8",
"x+	c #DC5252",
"y+	c #CC0202",
"z+	c #E78888",
"A+	c #FDFEFF",
"B+	c #E9F0F8",
"C+	c #E8F0F8",
"D+	c #F6DFE1",
"E+	c #EE9293",
"F+	c #E75858",
"G+	c #E85858",
"H+	c #EA5E5E",
"I+	c #BFD4E9",
"J+	c #F1F6FA",
"K+	c #F5E4E6",
"L+	c #CF1010",
"M+	c #D11A1A",
"N+	c #F8F0F1",
"O+	c #F8F5F7",
"P+	c #CF0E0E",
"Q+	c #EFB4B4",
"R+	c #E0EAF4",
"S+	c #D1DFF0",
"T+	c #FAFAFB",
"U+	c #F2C3C4",
"V+	c #EB8989",
"W+	c #E34848",
"X+	c #E54D4D",
"Y+	c #E65353",
"Z+	c #BDD2E9",
"`+	c #F2C5C6",
" @	c #D84041",
".@	c #DA4C4D",
"+@	c #D32424",
"@@	c #F6D4D5",
"#@	c #F6D9DB",
"$@	c #EA8E8F",
"%@	c #E14B4B",
"&@	c #E03D3D",
"*@	c #E14343",
"=@	c #EA5F5F",
"-@	c #BCD2E9",
";@	c #F6DEDF",
">@	c #EBA5A5",
",@	c #FBFBFD",
"'@	c #F9FAFC",
")@	c #F5D4D5",
"!@	c #EB9A9A",
"~@	c #E05454",
"{@	c #DB2D2D",
"]@	c #DC3333",
"^@	c #DE3838",
"/@	c #EA6161",
"(@	c #BBD1E8",
"_@	c #C3D6EC",
":@	c #EBF2F8",
"<@	c #FBFAFC",
"[@	c #ECA2A2",
"}@	c #E47F80",
"|@	c #EDB2B3",
"1@	c #F6E2E3",
"2@	c #F5F8FB",
"3@	c #F4F5F9",
"4@	c #F4CFD0",
"5@	c #E99595",
"6@	c #DF5C5D",
"7@	c #D72929",
"8@	c #D51D1D",
"9@	c #D72222",
"0@	c #D92828",
"a@	c #E55656",
"b@	c #ED8282",
"c@	c #F3ACAC",
"d@	c #F9D4D4",
"e@	c #F6F3F4",
"f@	c #BAD0E8",
"g@	c #BBD1E9",
"h@	c #BFD4EA",
"i@	c #F4EFF2",
"j@	c #D63939",
"k@	c #EB9E9F",
"l@	c #D52C2C",
"m@	c #CD0707",
"n@	c #CE0909",
"o@	c #DB2F2F",
"p@	c #E25858",
"q@	c #EB8888",
"r@	c #F3B7B7",
"s@	c #FBE3E3",
"t@	c #FFFEFE",
"u@	c #B9CFE8",
"v@	c #BAD1E8",
"w@	c #F1E7EA",
"x@	c #DA4F4F",
"y@	c #F0C0C1",
"z@	c #F6F8FB",
"A@	c #F8F9FB",
"B@	c #FCFCFD",
"C@	c #FCEFEF",
"D@	c #EC9E9E",
"E@	c #E06464",
"F@	c #D94141",
"G@	c #D32323",
"H@	c #CD0303",
"I@	c #D42020",
"J@	c #DA3E3E",
"K@	c #E15C5C",
"L@	c #E67878",
"M@	c #EC9595",
"N@	c #F5C6C6",
"O@	c #FEFAFA",
"P@	c #FEFEFE",
"Q@	c #F4F8FB",
"R@	c #E0EBF5",
"S@	c #B8CFE7",
"T@	c #B9D0E8",
"U@	c #D8E4F1",
"V@	c #EFDCE0",
"W@	c #DB5859",
"X@	c #F4DEE0",
"Y@	c #F4F6F9",
"Z@	c #E6ECF2",
"`@	c #EAEFF3",
" #	c #F4F6F8",
".#	c #F7F8FA",
"+#	c #FAFBFB",
"@#	c #FCF0F0",
"##	c #FDF5F5",
"$#	c #FEF8F8",
"%#	c #FEFCFC",
"&#	c #FBFBFC",
"*#	c #F9FAFB",
"=#	c #F5F7F9",
"-#	c #F0F4F8",
";#	c #E2E9F2",
">#	c #D2DFEC",
",#	c #C5D6E9",
"'#	c #BAD1E7",
")#	c #B7CFE7",
"!#	c #DBE7F2",
"~#	c #ECD1D5",
"{#	c #E48B8D",
"]#	c #F4F1F4",
"^#	c #F2F5F8",
"/#	c #D0DBE6",
"(#	c #ACBDD0",
"_#	c #A7B8CA",
":#	c #B3C1D0",
"<#	c #CBD4DE",
"[#	c #E4E9ED",
"}#	c #F3F4F7",
"|#	c #F3F4F6",
"1#	c #F3F5F6",
"2#	c #F4F5F6",
"3#	c #F4F5F7",
"4#	c #F2F4F6",
"5#	c #EEF0F4",
"6#	c #DEE4EA",
"7#	c #D1D9E3",
"8#	c #C5D0DC",
"9#	c #B9C8D9",
"0#	c #ACBFD4",
"a#	c #AEC2D7",
"b#	c #B1C6DB",
"c#	c #B3C9DF",
"d#	c #B5CCE3",
"e#	c #B8CEE6",
"f#	c #EBD2D6",
"g#	c #EBC0C3",
"h#	c #F1F5F9",
"i#	c #EDF2F7",
"j#	c #C6D3E2",
"k#	c #AABDD2",
"l#	c #A7BACD",
"m#	c #A5B7CA",
"n#	c #A2B3C5",
"o#	c #9FB0C1",
"p#	c #9DACBE",
"q#	c #9BAABB",
"r#	c #A6B3C1",
"s#	c #B3BDC8",
"t#	c #C0C8D1",
"u#	c #C2CAD2",
"v#	c #C3CAD1",
"w#	c #C5CBD2",
"x#	c #C7CDD4",
"y#	c #C7CDD5",
"z#	c #BEC6CF",
"A#	c #B8C1CB",
"B#	c #B2BCC7",
"C#	c #ABB7C4",
"D#	c #A7B5C3",
"E#	c #9DADBF",
"F#	c #A0B1C2",
"G#	c #A3B4C6",
"H#	c #A5B8CB",
"I#	c #A8BBCE",
"J#	c #ABBED3",
"K#	c #ADC1D7",
"L#	c #AFC4DA",
"M#	c #B1C7DE",
"N#	c #B4CAE2",
"O#	c #B5CDE6",
"P#	c #EDE4E9",
"Q#	c #EFEBF0",
"R#	c #E6EDF5",
"S#	c #BACDE1",
"T#	c #AEC2D9",
"U#	c #ABC0D6",
"V#	c #A9BDD2",
"W#	c #A7BACE",
"X#	c #A5B7CB",
"Y#	c #A2B4C7",
"Z#	c #A0B1C3",
"`#	c #9EAFC0",
" $	c #9BABBD",
".$	c #9AA9BA",
"+$	c #98A7B8",
"@$	c #96A5B6",
"#$	c #95A4B4",
"$$	c #95A3B3",
"%$	c #96A4B4",
"&$	c #96A6B6",
"*$	c #98A8B8",
"=$	c #9AAABB",
"-$	c #9CACBE",
";$	c #9FAFC0",
">$	c #A1B2C4",
",$	c #A3B5C8",
"'$	c #A5B8CC",
")$	c #A7BBCE",
"!$	c #AABED2",
"~$	c #ACC0D6",
"{$	c #AEC3DA",
"]$	c #B1C7DD",
"^$	c #B3CAE1",
"/$	c #B5CDE7",
"($	c #B5CCE4",
"_$	c #B3C8E0",
":$	c #B1C5DC",
"<$	c #AFC3D9",
"[$	c #ADC0D6",
"}$	c #A9BCD0",
"|$	c #A6B8CB",
"1$	c #A4B6C9",
"2$	c #A3B4C7",
"3$	c #A1B1C3",
"4$	c #A6B9CC",
"5$	c #A8BACF",
"6$	c #A9BDD0",
"7$	c #B2C7DF",
"8$	c #B6CBE4",
"9$	c #B6CEE6",
"0$	c #B6CEE7",
"a$	c #B4CCE6",
"b$	c #B2CBE6",
"c$	c #B7CEE7",
"d$	c #B8CFE8",
"e$	c #B7CDE5",
"f$	c #B6CCE2",
"g$	c #B4C8DF",
"h$	c #B2C6DC",
"i$	c #B0C4D9",
"j$	c #AFC2D6",
"k$	c #ADC0D5",
"l$	c #ACBED3",
"m$	c #ACBFD2",
"n$	c #ABBED2",
"o$	c #ACBFD3",
"p$	c #AEC1D6",
"q$	c #B0C4D8",
"r$	c #B2C5DB",
"s$	c #B4C9DF",
"t$	c #B6CBE2",
"u$	c #B8CEE4",
"v$	c #B9CFE6",
"w$	c #B0C9E5",
"x$	c #B1CAE5",
"y$	c #B3CCE6",
"z$	c #B4CDE6",
"A$	c #BCD1E9",
"B$	c #BCD1E8",
"C$	c #BCD0E7",
"D$	c #AEC8E4",
"E$	c #AFC9E5",
"F$	c #B2CBE5",
"G$	c #78899B",
"H$	c #79899B",
"I$	c #7A8A9B",
"J$	c #7B8A9B",
"K$	c #7B8B9B",
"L$	c #7C8B9C",
"M$	c #7C8C9C",
"N$	c #7D8C9C",
"O$	c #7E8C9C",
"P$	c #7E8C9D",
"Q$	c #ADC7E4",
"R$	c #AFC9E4",
"S$	c #B0CAE5",
"T$	c #B6CDE7",
"U$	c #ABC6E3",
"V$	c #ACC7E4",
"W$	c #76879A",
"X$	c #77889A",
"Y$	c #78889B",
"Z$	c #78889A",
"`$	c #AAC5E3",
" %	c #ACC7E3",
".%	c #ADC8E4",
"+%	c #B1CBE5",
"@%	c #B3CBE6",
"#%	c #3767A5",
"$%	c #A9C5E3",
"%%	c #AAC6E3",
"&%	c #748699",
"*%	c #758699",
"=%	c #768799",
"-%	c #76889A",
";%	c #3C6BA8",
">%	c #E5EDF5",
",%	c #A8C4E2",
"'%	c #A9C5E2",
")%	c #BED3E9",
"!%	c #E5ECF5",
"~%	c #3B6AA6",
"{%	c #9DB7D5",
"]%	c #A7C4E1",
"^%	c #A7C4E2",
"/%	c #ABC7E3",
"(%	c #AEC9E4",
"_%	c #A8C5E2",
":%	c #9DB6D4",
"<%	c #3766A3",
"[%	c #3A69A6",
"}%	c #DAE5F1",
"|%	c #3868A5",
"1%	c #B1C6DE",
"2%	c #B1C5DD",
"3%	c #3768A6",
"4%	c #3C6BA7",
"                                                                                                ",
"                                                                                                ",
"                                                                                                ",
"              . + . @ @ @ @ @ @ @ @ @ @ @ @ # # # # # # @ @ @ @ @ @ @ @ @ @ @ $ % .             ",
"            . & * = - - - - - - - - - - - - ; ; ; ; ; ; - - - - - - - - - - - = * > ,           ",
"          ' ) ! ~ { ] ^ / ( _ : < [ } | 1 2 2 3 4 5 6 7 8 9 | } [ 0 : _ ( / ^ ^ 2 a b '         ",
"        c d e f g h i j k l m n 0 o | p q r s t u v w x y z A B o 0 n m l k j i h C D d c       ",
"        + E F G H I J K L m M < o | 6 N O P Q R R S T U V W X Y 2 o < M m L K J I H Z E +       ",
"        ` =  .f C { ^ k ..m n 0 +.@.#.$.R R R R R S T U V W %.&.*.=.0 n m ..k ^ { C -.= ;.      ",
"        >.- ,.'.C { j k ).!.p s ~.{.R R R ].^./.(._.:.U V W <.&.[.=.Z < !.).k j { C '.; ;.      ",
"        >.- ,.'.h J }.L ).q |.1.R R R 2.3.= 4.5.5.5.6.U V 7.8.9.0.~ o < M ).L }.J h '.; ;.      ",
"        >.- ,.g h J K _ a.b.c.R R d.e.f.g.g.h.i.s j.k.U V l.g.m.2 ~ n.0 o.m L K J h g ; ;.      ",
"        >.- ,.g h J k p.q.r.R R s.t.5.g.u.4 +.v.w.x.T U y.4.9.q 2 1 =.0 n m L K J h g ; ;.      ",
"        >.- ,.g h J z.A.B.R R 2.C.g.h.+.D.E.+.a F.S T G.H.4.8 I.2 1 =.0 o.m L K J h g ; ;.      ",
"        >.- ,.g h J.K.L.R R M.N.g.O.I.0.D.P.Q.R.S.S T.U.V.W.0.I.2 ~ o < o.m L }.J h g ; ;.      ",
"        >.- ,.'.} X.Y.R R R Z.g.Q.2 `. +.+p.++@+R #+$+= s .+ +`.2 | o < M ).k }.J h '.; ;.      ",
"        >.- %+f &+*+R R R =+-+;+2 p >+I.,+'+)+R !+~+= ! .+0.I.>+p =.{+< !.).k j { C f ; ;.      ",
"        >.- ]+~ ^+L.R R R /+9.z.o ~ 2 5 (+_+R 2.:+<+h.D.0. +`.2 ~ o 0 n m ..K ^ [+C G ; ;.      ",
"        >.- }+u.|+R R R R 1+9.2 {+=.0.2+3+R 4+5+<+e 6+ +I.`.2 ~ =.{+< M ).L }.J I >+D.; ;.      ",
"        >.- 7+e 8+R R R R 9+0+o.< .+a+b+R c+d+- s e+I.f+>+2 1 =.o < o.m ..k ^ | g+! h+; ;.      ",
"        >.- ,.h.i+R R R R j+k+!. +l+m+R n+o+<+Q.2 2 2 2 p ~ =.o 0 n !.).k | p+;+q+r+s+; ;.      ",
"        >.<+h h.t+R R R R u+e v+w+x+y+z+A+= B+~ 1 1 ~ | =.n.{+< n !.).>+C+&.D+E+F+G+H+; ;.      ",
"        >.<+I+J+K+L+R R R M+N+O+/+P+Q+V.9.R+o =.=.=.=.o Z 0 < n S+E.s T+U+V+W+X+Y+G+H+; ;.      ",
"        >.<+Z+B ! `+d.R R R  @.@+@@@4.! 2 < < 0 0 0 0 < < n `.8 &.#@$@%@&@*@W+X+Y+G+=@; ;.      ",
"        >.<+-@7+p+! ;@c+R R R R >@,@&.I.m !.M n n n p +.&+'@)@!@~@{@]@^@&@*@W+X+Y+G+/@; ;.      ",
"        >.<+(@Z+_@:@! <@[@R R R R L.}@|@1@2@2@D D 3@4@5@6@7@8@9@0@{@]@^@&@*@a@b@c@d@e@; ;.      ",
"        >.<+f@g@Z+h@W.i@j@k@^.l@R R R R R y+=+m@n@n@T U V W 8@9@0@o@p@q@r@s@t@- 4.&.N ; ;.      ",
"        >.<+u@v@-@1 w@x@y@z@A@B@C@D@E@F@G@H@R R R S T I@J@K@L@M@N@O@; P@4.&.a 2@Q@e R@; ;.      ",
"        >.<+S@T@U@V@W@X@Y@Z@`@Y@ #.#+#B@V.; @#d+##$#%#; P@V.B@&#*#.#=#Y@Y@-#;#>#,#'#T@; ;.      ",
"        >.<+)#!#~#{#]#^#/#(#_#:#<#[#}#|#|#|#|#1#1#2#3#4#|#|#1#}#5#6#7#8#9#0#a#b#c#d#e#; ;.      ",
"        >.<+q f#g#h#i#j#k#l#m#n#o#p#q#r#s#t#u#v#w#x#y#z#A#B#C#D#E#F#G#H#I#J#K#L#M#N#O#; ;.      ",
"        >.<+P#Q#Q.R#S#T#U#V#W#X#Y#Z#`# $.$+$@$#$$$$$%$&$*$=$-$;$>$,$'$)$!$~${$]$^$O#/$; ;.      ",
"        >.<+v.g+3 )#($_$:$<$[$J#}$W#|$1$2$n#>$3$F#F#3$>$n#2$1$4$5$6$0#K#L#7$8$9$0$O#a$; ;.      ",
"        >.<+O#b$a$O#0$c$d$S@e$f$g$h$i$j$k$0#l$m$n$n$o$l$0#p$q$r$s$t$u$v$T@d$c$0$O#a$b$; ;.      ",
"        >.<+w$x$b$y$z$/$0$)#d$T@f@(@g@A$-@Z+B$B$C$B$B$Z+Z+-@A$g@(@f@T@d$)#0$/$z$y$b$x$; ;.      ",
"        >.<+D$E$x$F$G$H$I$I$J$K$L$M$M$N$N$O$O$P$P$P$P$O$O$N$N$M$M$L$K$J$I$I$a$y$F$x$E$; ;.      ",
"        >.<+Q$D$R$S$x$b$y$a$O#T$0$c$S@d$d$T@T@T@T@T@T@T@T@d$d$S@c$0$T$O#a$y$b$x$S$R$D$; ;.      ",
"        >.<+U$V$D$R$W$X$X$Y$G$H$I$I$I$I$J$J$J$K$K$K$K$J$J$J$I$I$I$I$H$G$Y$Z$x$w$R$D$V$; ;.      ",
"        >.<+`$U$ %.%D$R$w$x$+%b$@%y$a$z$O#/$/$/$T$T$/$/$/$O#z$a$y$@%b$+%x$w$R$D$.% %U$; ;.      ",
"        #%V.U$$%%%U$&%&%*%=%W$-%X$Z$Y$Y$G$G$G$H$H$H$H$G$y$y$@%b$F$x$S$w$R$D$.%V$U$%%V$V.;.      ",
"        ;%>%Z+,%'%`$U$ %V$.%D$R$E$w$S$x$x$x$F$F$F$F$F$F$x$x$x$S$w$E$R$D$.%V$ %U$`$'%)%!%~%      ",
"        c {%&+]%^%,%'%`$U$/%V$Q$.%D$(%R$E$E$w$w$w$w$w$w$E$E$R$(%D$.%Q$V$/%U$`$'%,%_%&+:%<%      ",
"          [%) J+7+^%^%,%'%`$%%U$ % %Q$.%.%D$D$D$D$D$D$D$D$.%.%Q$ % %U$%%`$'%,%_%7+J+}%c         ",
"            |%1%!%<+- - - - - - - - - - - - - - - - - - - - - - - - - - - - - <+!%2%3%          ",
"              . ;%>.# # # # # # # # # # # # # # # # # # # # # # # # # # # # # >.4%.             ",
"                                                                                                ",
"                                                                                                ",
"                                                                                                "};
