/* XPM */
static char * extcalc_xpm[] = {
"48 48 336 2",
"  	c None",
". 	c #ABACA9",
"+ 	c #AAABA8",
"@ 	c #FFFFFF",
"# 	c #A9AAA7",
"$ 	c #FEFEFE",
"% 	c #A8A9A6",
"& 	c #D0D0D0",
"* 	c #E6E6E6",
"= 	c #DDE1D9",
"- 	c #82B057",
"; 	c #A7A8A5",
"> 	c #BCD8A1",
", 	c #4E9A06",
"' 	c #A6A8A4",
") 	c #77B33D",
"! 	c #A6A7A3",
"~ 	c #EEF5E8",
"{ 	c #559F0E",
"] 	c #A5A6A3",
"^ 	c #A4C586",
"/ 	c #60AF14",
"( 	c #A4A5A2",
"_ 	c #6DAD30",
": 	c #69C212",
"< 	c #A3A4A1",
"[ 	c #E7F1DE",
"} 	c #5DA419",
"| 	c #B7E787",
"1 	c #549D0E",
"2 	c #A2A4A0",
"3 	c #A7CD84",
"4 	c #84C448",
"5 	c #B9E98B",
"6 	c #519C0B",
"7 	c #A1A39F",
"8 	c #62A521",
"9 	c #A3DB6D",
"0 	c #B4E782",
"a 	c #4F9A07",
"b 	c #A1A29E",
"c 	c #CBD9BE",
"d 	c #65AA24",
"e 	c #ADE577",
"f 	c #ADE576",
"g 	c #A0A19D",
"h 	c #94BD6C",
"i 	c #86C649",
"j 	c #96DD50",
"k 	c #A5E269",
"l 	c #9FA09D",
"m 	c #FDFDFD",
"n 	c #E5E5E5",
"o 	c #FCFDFC",
"p 	c #D0DBC7",
"q 	c #5BA218",
"r 	c #A0DB66",
"s 	c #81D72E",
"t 	c #9FE05F",
"u 	c #9E9F9C",
"v 	c #FCFCFC",
"w 	c #CFCFCF",
"x 	c #E4E4E4",
"y 	c #C6D5B7",
"z 	c #5BA01A",
"A 	c #D3DCCB",
"B 	c #C1D3B0",
"C 	c #6AAD2A",
"D 	c #9CDF5A",
"E 	c #7AD422",
"F 	c #98DE54",
"G 	c #9D9F9B",
"H 	c #FBFBFB",
"I 	c #E3E3E3",
"J 	c #A0C97A",
"K 	c #63AB1F",
"L 	c #64A824",
"M 	c #EEF3E8",
"N 	c #91C065",
"O 	c #84C745",
"P 	c #86D836",
"Q 	c #7BD423",
"R 	c #92DC4A",
"S 	c #9C9E9A",
"T 	c #65A925",
"U 	c #97D759",
"V 	c #82C440",
"W 	c #6DAC30",
"X 	c #5BA217",
"Y 	c #99DA59",
"Z 	c #76D31B",
"` 	c #7BD524",
" .	c #8CDA40",
"..	c #9C9D99",
"+.	c #FAFAFA",
"@.	c #E2E2E2",
"#.	c #E4EEDB",
"$.	c #59A315",
"%.	c #73BC2C",
"&.	c #6EB22D",
"*.	c #8EDB43",
"=.	c #73D216",
"-.	c #87D938",
";.	c #4E9B06",
">.	c #9B9C98",
",.	c #F9F9F9",
"'.	c #CDCDCD",
").	c #E1E2E1",
"!.	c #8FBA65",
"~.	c #A1C382",
"{.	c #75BC31",
"].	c #94DD4D",
"^.	c #7DD526",
"/.	c #8CD446",
"(.	c #7ED628",
"_.	c #82D730",
":.	c #4F9C06",
"<.	c #9A9B97",
"[.	c #F8F8F8",
"}.	c #E1E1E1",
"|.	c #BDD8A4",
"1.	c #4F9D06",
"2.	c #A9C78E",
"3.	c #73B338",
"4.	c #89CF45",
"5.	c #81D62D",
"6.	c #90DB46",
"7.	c #74D217",
"8.	c #7AD421",
"9.	c #7DD527",
"0.	c #999B97",
"a.	c #F2F5EF",
"b.	c #F5F6F4",
"c.	c #62A91F",
"d.	c #8BCD4D",
"e.	c #59A413",
"f.	c #ECF2E6",
"g.	c #ECF2E7",
"h.	c #57A310",
"i.	c #98DD54",
"j.	c #79D420",
"k.	c #78D41F",
"l.	c #4F9E06",
"m.	c #989A96",
"n.	c #F7F7F7",
"o.	c #E0E0E0",
"p.	c #BCD8A2",
"q.	c #5FA61B",
"r.	c #CED8C5",
"s.	c #B6D598",
"t.	c #73B731",
"u.	c #B4E783",
"v.	c #7FC33E",
"w.	c #8ABE58",
"x.	c #BBD7A0",
"y.	c #70B72B",
"z.	c #8DDA41",
"A.	c #77D31C",
"B.	c #509E06",
"C.	c #979995",
"D.	c #F6F6F6",
"E.	c #CACACA",
"F.	c #9EC27B",
"G.	c #5EA918",
"H.	c #90CC55",
"I.	c #61A620",
"J.	c #D8DCD4",
"K.	c #DFDFDF",
"L.	c #C6C8C4",
"M.	c #5DA617",
"N.	c #9EDA64",
"O.	c #91DC47",
"P.	c #A5E16A",
"Q.	c #60AA1B",
"R.	c #BCCFA9",
"S.	c #7BB445",
"T.	c #7CC834",
"U.	c #80D62C",
"V.	c #75D319",
"W.	c #509F06",
"X.	c #979894",
"Y.	c #8EBC62",
"Z.	c #6DB22A",
"`.	c #C7EBA4",
" +	c #D0F0B1",
".+	c #91CB5A",
"++	c #7DB844",
"@+	c #F5F5F4",
"#+	c #9FC37E",
"$+	c #72BA2E",
"%+	c #A4E267",
"&+	c #8AD93C",
"*+	c #8DD14A",
"=+	c #65AC22",
"-+	c #F2F4F0",
";+	c #DCDEDA",
">+	c #58A40F",
",+	c #8AD640",
"'+	c #51A006",
")+	c #969793",
"!+	c #F5F5F5",
"~+	c #51A106",
"{+	c #CAEDA7",
"]+	c #9FE060",
"^+	c #7FD629",
"/+	c #C3EC9C",
"(+	c #81C045",
"_+	c #97C66C",
":+	c #DEDEDE",
"<+	c #EDF1EA",
"[+	c #5BA713",
"}+	c #9ADA5B",
"|+	c #86D835",
"1+	c #94DD4E",
"2+	c #72BB2D",
"3+	c #A2CB7B",
"4+	c #B6CCA1",
"5+	c #67B221",
"6+	c #85D834",
"7+	c #959792",
"8+	c #F4F4F4",
"9+	c #CBEEA8",
"0+	c #83D730",
"a+	c #BDE992",
"b+	c #72B733",
"c+	c #B2D294",
"d+	c #DDDDDD",
"e+	c #A1CA79",
"f+	c #70BA2A",
"g+	c #9EE05D",
"h+	c #8ED846",
"i+	c #5DA815",
"j+	c #75B13D",
"k+	c #72C226",
"l+	c #949692",
"m+	c #F3F3F3",
"n+	c #52A206",
"o+	c #C6EDA1",
"p+	c #B2E383",
"q+	c #67AD23",
"r+	c #AABE97",
"s+	c #DCDCDC",
"t+	c #AFC996",
"u+	c #5FAB17",
"v+	c #9BDC5A",
"w+	c #82D72F",
"x+	c #77C52C",
"y+	c #7CCF2B",
"z+	c #75D31A",
"A+	c #939591",
"B+	c #52A306",
"C+	c #C2EB9A",
"D+	c #8BDA3D",
"E+	c #A5DC70",
"F+	c #63AC1D",
"G+	c #5FAB18",
"H+	c #96D956",
"I+	c #88D93A",
"J+	c #66B719",
"K+	c #7CD525",
"L+	c #939490",
"M+	c #F2F2F2",
"N+	c #52A406",
"O+	c #BEEA92",
"P+	c #78D41E",
"Q+	c #97D35D",
"R+	c #5DAA15",
"S+	c #93D652",
"T+	c #89D93B",
"U+	c #7BD425",
"V+	c #92938F",
"W+	c #F1F1F1",
"X+	c #53A506",
"Y+	c #BDEA91",
"Z+	c #7AD521",
"`+	c #9FDC63",
" @	c #8FDC44",
".@	c #7BD523",
"+@	c #91938E",
"@@	c #F0F0F0",
"#@	c #BCE990",
"$@	c #84D733",
"%@	c #81D62E",
"&@	c #80D52D",
"*@	c #80D52E",
"=@	c #8EDA43",
"-@	c #90928D",
";@	c #53A606",
">@	c #BDEB92",
",@	c #8DDC42",
"'@	c #8BDB3E",
")@	c #89D93C",
"!@	c #8F918C",
"~@	c #EFEFEF",
"{@	c #54A706",
"]@	c #BEEB92",
"^@	c #94DE4C",
"/@	c #93DE4A",
"(@	c #90DB47",
"_@	c #8E908C",
":@	c #EEEEEE",
"<@	c #54A806",
"[@	c #C0ED94",
"}@	c #9DE258",
"|@	c #9CE257",
"1@	c #97DD52",
"2@	c #8E8F8B",
"3@	c #EDEDED",
"4@	c #55A806",
"5@	c #BDEA93",
"6@	c #9EDF5F",
"7@	c #9DDF5E",
"8@	c #98DA59",
"9@	c #8D8F8A",
"0@	c #55A906",
"a@	c #C3EE99",
"b@	c #AAE770",
"c@	c #AAE76F",
"d@	c #A4E169",
"e@	c #8C8E89",
"f@	c #ECECEC",
"g@	c #55AA06",
"h@	c #C5EF9C",
"i@	c #B1E97A",
"j@	c #AAE273",
"k@	c #8B8D88",
"l@	c #EBEBEB",
"m@	c #56AB06",
"n@	c #C3EE98",
"o@	c #B8EB85",
"p@	c #B0E37D",
"q@	c #8A8C87",
"r@	c #EAEAEA",
"s@	c #56AC06",
"t@	c #898B86",
"u@	c #888A85",
"                                                                                                ",
"                                                                                                ",
"          . . . . . . . . . . . . . . . . . . . . . . . . . . . . . . . . . . . . . . .         ",
"          + @ @ @ @ @ @ @ @ @ @ @ @ @ @ @ @ @ @ @ @ @ @ @ @ @ @ @ @ @ @ @ @ @ @ @ @ @ +         ",
"          # @ $ $ $ $ $ $ $ $ $ $ $ $ $ $ $ $ $ $ $ $ $ $ $ $ $ $ $ $ $ $ $ $ $ $ $ @ #         ",
"          % @ $ & * * * & * * * & * * * & * * * & * * * & * * * & * * * & * * = - $ @ %         ",
"          ; @ $ * $ $ $ * $ $ $ * $ $ $ * $ $ $ * $ $ $ * $ $ $ * $ $ $ * $ $ > , $ @ ;         ",
"          ' @ $ * $ $ $ * $ $ $ * $ $ $ * $ $ $ * $ $ $ * $ $ $ * $ $ $ * $ $ ) , $ @ '         ",
"          ! @ $ * $ $ $ * $ $ $ * $ $ $ * $ $ $ * $ $ $ * $ $ $ * $ $ $ * $ ~ { , $ @ !         ",
"          ] @ $ & * * * & * * * & * * * & * * * & * * * & * * * & * * * & * ^ / , $ @ ]         ",
"          ( @ $ * $ $ $ * $ $ $ * $ $ $ * $ $ $ * $ $ $ * $ $ $ * $ $ $ * $ _ : , $ @ (         ",
"          < @ $ * $ $ $ * $ $ $ * $ $ $ * $ $ $ * $ $ $ * $ $ $ * $ $ $ * [ } | 1 $ @ <         ",
"          2 @ $ * $ $ $ * $ $ $ * $ $ $ * $ $ $ * $ $ $ * $ $ $ * $ $ $ * 3 4 5 6 $ @ 2         ",
"          7 @ $ & * * * & * * * & * * * & * * * & * * * & * * * & * * * & 8 9 0 a $ @ 7         ",
"          b @ $ * $ $ $ * $ $ $ * $ $ $ * $ $ $ * $ $ $ * $ $ $ * $ $ $ c d e f , $ @ b         ",
"          g @ $ * $ $ $ * $ $ $ * $ $ $ * $ $ $ * $ $ $ * $ $ $ * $ $ $ h i j k , $ @ g         ",
"          l @ m n m m m n m m m n m m m n m m m n m m m n m m o p m m o q r s t , m @ l         ",
"          u @ v w x x x w x x x w x x x w x x x w x x x w x x y z A x B C D E F , v @ u         ",
"          G @ H I H H H I H H H I H H H I H H H I H H H I H H J K L M N O P Q R , H @ G         ",
"          S @ H I H H H I H H H I H H H I H H H I H H H I H H T U V W X Y Z `  ., H @ S         ",
"          ..@ +.@.+.+.+.@.+.+.+.@.+.+.+.@.+.+.+.@.+.+.+.@.+.#.$.k t %.&.*.=.Q -.;.+.@ ..        ",
"          >.@ ,.'.@.@.@.'.@.@.@.'.@.@.@.'.@.).!.'.@.@.@.'.@.~.{.].^.F /.(.=.Q _.:.,.@ >.        ",
"          <.@ [.}.[.[.[.}.[.[.[.}.[.[.[.}.[.|.1.2.[.[.[.}.[.3.4._.=.5.6.7.=.8.9.1.[.@ <.        ",
"          0.@ [.}.[.[.a.}.[.[.[.}.[.[.[.}.b.c.d.e.f.[.[.}.g.h.i.Z =.=.j.=.=.k.E l.[.@ 0.        ",
"          m.@ n.o.n.p.q.r.n.n.n.o.n.n.n.o.s.t.u.v.w.n.n.o.x.y.z.=.=.=.=.=.=.A.Z B.n.@ m.        ",
"          C.@ D.E.F.G.H.I.J.K.K.E.K.K.K.L.M.N.O.P.Q.R.K.E.S.T.U.=.=.=.=.=.=.V.=.W.D.@ C.        ",
"          X.@ D.Y.Z.`. +.+++@+D.K.D.D.D.#+$+%+7.&+*+=+-+;+>+,+Z =.=.=.=.=.=.=.=.'+D.@ X.        ",
"          )+@ !+~+{+]+^+/+(+_+!+:+!+!+<+[+}+|+=.7.1+2+3+4+5+6+=.=.=.=.=.=.=.=.=.~+!+@ )+        ",
"          7+@ 8+~+9+Q =.0+a+b+c+d+8+8+e+f+g+7.=.=.8.h+i+j+k+` =.=.=.=.=.=.=.=.=.~+8+@ 7+        ",
"          l+@ m+n+o+8.=.=.-.p+q+r+s+t+u+v+w+=.=.=.=.s x+n+y+z+=.=.=.=.=.=.=.=.=.n+m+@ l+        ",
"          A+@ m+B+C+k.=.=.=.D+E+F+s.G+H+I+=.=.=.=.=.7.w+J+K+=.=.=.=.=.=.=.=.=.=.B+m+@ A+        ",
"          L+@ M+N+O+P+=.=.=.=.*.Q+R+S+T+=.=.=.=.=.=.=.Z U+Z =.=.=.=.=.=.=.=.=.=.N+M+@ L+        ",
"          V+@ W+X+Y+(.Z+j.Z+Z+Z+].`+ @Z+j.Z+Z+Z+j.Z+Z+Z+.@Z+Z+Z+j.Z+Z+Z+j.Z+Z+Z+X+W+@ V+        ",
"          +@@ @@X+#@$@%@&@%@%@%@*@=@%@%@&@%@%@%@&@%@%@%@&@%@%@%@&@%@%@%@&@%@%@%@X+@@@ +@        ",
"          -@@ @@;@>@,@'@)@'@'@'@)@'@'@'@)@'@'@'@)@'@'@'@)@'@'@'@)@'@'@'@)@'@'@'@;@@@@ -@        ",
"          !@@ ~@{@]@^@/@(@/@/@/@(@/@/@/@(@/@/@/@(@/@/@/@(@/@/@/@(@/@/@/@(@/@/@/@{@~@@ !@        ",
"          _@@ :@<@[@}@|@1@|@|@|@1@|@|@|@1@|@|@|@1@|@|@|@1@|@|@|@1@|@|@|@1@|@|@|@<@:@@ _@        ",
"          2@@ 3@4@5@6@7@8@7@7@7@8@7@7@7@8@7@7@7@8@7@7@7@8@7@7@7@8@7@7@7@8@7@7@7@4@3@@ 2@        ",
"          9@@ 3@0@a@b@c@d@c@c@c@d@c@c@c@d@c@c@c@d@c@c@c@d@c@c@c@d@c@c@c@d@c@c@c@0@3@@ 9@        ",
"          e@@ f@g@h@i@i@j@i@i@i@j@i@i@i@j@i@i@i@j@i@i@i@j@i@i@i@j@i@i@i@j@i@i@i@g@f@@ e@        ",
"          k@@ l@m@n@o@o@p@o@o@o@p@o@o@o@p@o@o@o@p@o@o@o@p@o@o@o@p@o@o@o@p@o@o@o@m@l@@ k@        ",
"          q@@ r@s@s@s@s@s@s@s@s@s@s@s@s@s@s@s@s@s@s@s@s@s@s@s@s@s@s@s@s@s@s@s@s@s@r@@ q@        ",
"          t@@ r@r@r@r@r@r@r@r@r@r@r@r@r@r@r@r@r@r@r@r@r@r@r@r@r@r@r@r@r@r@r@r@r@r@r@@ t@        ",
"          t@@ @ @ @ @ @ @ @ @ @ @ @ @ @ @ @ @ @ @ @ @ @ @ @ @ @ @ @ @ @ @ @ @ @ @ @ @ t@        ",
"          u@u@u@u@u@u@u@u@u@u@u@u@u@u@u@u@u@u@u@u@u@u@u@u@u@u@u@u@u@u@u@u@u@u@u@u@u@u@u@        ",
"                                                                                                ",
"                                                                                                ",
"                                                                                                "};
