/* XPM */
static char * fax_xpm[] = {
"48 48 358 2",
"  	c None",
". 	c #BFBFBF",
"+ 	c #D0D0D0",
"@ 	c #CECECE",
"# 	c #CDCDCD",
"$ 	c #CCCCCC",
"% 	c #CBCBCB",
"& 	c #C9C9C9",
"* 	c #C8C8C8",
"= 	c #C7C7C7",
"- 	c #C6C6C6",
"; 	c #C5C5C5",
"> 	c #C3C3C3",
", 	c #C2C2C2",
"' 	c #CACACA",
") 	c #FFFFFF",
"! 	c #FEFEFE",
"~ 	c #FBFBFB",
"{ 	c #ACACAC",
"] 	c #FCFCFC",
"^ 	c #F8F8F8",
"/ 	c #F9F9F9",
"( 	c #FAFAFA",
"_ 	c #FDFDFD",
": 	c #A5A5A5",
"< 	c #F5F5F5",
"[ 	c #A3A3A3",
"} 	c #F3F3F3",
"| 	c #F4F4F4",
"1 	c #F6F6F6",
"2 	c #F7F7F7",
"3 	c #A0A0A0",
"4 	c #878787",
"5 	c #A7A7A7",
"6 	c #EFEFEF",
"7 	c #F2F2F2",
"8 	c #B4B4B4",
"9 	c #959595",
"0 	c #8C8C8C",
"a 	c #B2B2B2",
"b 	c #EBEBEB",
"c 	c #EEEEEE",
"d 	c #F0F0F0",
"e 	c #F1F1F1",
"f 	c #B7B7B7",
"g 	c #939393",
"h 	c #BABABA",
"i 	c #E8E8E8",
"j 	c #E9E9E9",
"k 	c #EAEAEA",
"l 	c #ECECEC",
"m 	c #EDEDED",
"n 	c #B9B9B9",
"o 	c #989898",
"p 	c #E2E2E2",
"q 	c #E4E4E4",
"r 	c #E5E5E5",
"s 	c #E6E6E6",
"t 	c #E7E7E7",
"u 	c #BCBCBC",
"v 	c #C0C0C0",
"w 	c #D2D2D2",
"x 	c #C4C4C4",
"y 	c #DFDFDF",
"z 	c #E1E1E1",
"A 	c #E3E3E3",
"B 	c #C1C1C1",
"C 	c #A2A2A2",
"D 	c #A1A1A1",
"E 	c #8B8B8B",
"F 	c #6C6C6C",
"G 	c #DBDBDB",
"H 	c #D3D3D3",
"I 	c #B8B8B8",
"J 	c #BDBDBD",
"K 	c #9F9F9F",
"L 	c #7F7F7F",
"M 	c #7B7B7B",
"N 	c #787878",
"O 	c #AFAFAF",
"P 	c #979797",
"Q 	c #888888",
"R 	c #999999",
"S 	c #929292",
"T 	c #949494",
"U 	c #9A9A9A",
"V 	c #8D8D8D",
"W 	c #909090",
"X 	c #B3B3B3",
"Y 	c #DEDEDE",
"Z 	c #ABABAB",
"` 	c #FBFCFC",
" .	c #FAFBFC",
"..	c #DFDFE0",
"+.	c #D0D1D1",
"@.	c #D3D3D4",
"#.	c #D2D3D3",
"$.	c #D4D4D4",
"%.	c #D4D4D5",
"&.	c #D5D5D5",
"*.	c #D4D5D5",
"=.	c #D6D6D6",
"-.	c #D5D6D6",
";.	c #D8D8D8",
">.	c #D9D9D9",
",.	c #EFF0EF",
"'.	c #B1B1B1",
").	c #E0E0E0",
"!.	c #D7DEEB",
"~.	c #CFD8E7",
"{.	c #D1DBEA",
"].	c #D6DEED",
"^.	c #D8E0EF",
"/.	c #D9E1F0",
"(.	c #DAE2F1",
"_.	c #DCE3F1",
":.	c #DDE4F1",
"<.	c #DFE5F2",
"[.	c #E0E6F2",
"}.	c #E0E7F3",
"|.	c #E1E8F3",
"1.	c #E2E9F3",
"2.	c #E4E9F4",
"3.	c #E5EAF4",
"4.	c #E5EAF5",
"5.	c #E6EBF6",
"6.	c #E7ECF5",
"7.	c #E7EDF6",
"8.	c #E8EDF5",
"9.	c #EAEDF4",
"0.	c #F5F4F4",
"a.	c #F0F1F0",
"b.	c #DCE9DC",
"c.	c #E1EBE1",
"d.	c #E5EAE5",
"e.	c #DCDCDC",
"f.	c #A4A4A4",
"g.	c #848484",
"h.	c #DDDDDD",
"i.	c #B6C5DF",
"j.	c #99B0DB",
"k.	c #9DB4DE",
"l.	c #9FB6DE",
"m.	c #A1B8DF",
"n.	c #A4B9E0",
"o.	c #A6BBE1",
"p.	c #A8BDE2",
"q.	c #AABFE2",
"r.	c #ACC0E4",
"s.	c #AFC1E4",
"t.	c #B1C4E5",
"u.	c #B3C6E5",
"v.	c #B6C7E6",
"w.	c #B8C8E7",
"x.	c #BACAE7",
"y.	c #BCCDE8",
"z.	c #BECDE9",
"A.	c #C0D0EA",
"B.	c #C2D1EB",
"C.	c #C6D3EC",
"D.	c #C3D2EB",
"E.	c #D7DFEE",
"F.	c #EFEFEE",
"G.	c #D0E1D0",
"H.	c #CDF0CD",
"I.	c #D3F5D3",
"J.	c #C2E5C2",
"K.	c #EAEDEA",
"L.	c #6A6A6A",
"M.	c #868686",
"N.	c #DADADA",
"O.	c #8EABD6",
"P.	c #3871C4",
"Q.	c #3D74C7",
"R.	c #4278C9",
"S.	c #467CCA",
"T.	c #4A7FCB",
"U.	c #4F81CC",
"V.	c #5384CD",
"W.	c #5887CF",
"X.	c #5C8AD0",
"Y.	c #608DD1",
"Z.	c #6490D2",
"`.	c #6893D3",
" +	c #6C96D4",
".+	c #7099D6",
"++	c #759DD7",
"@+	c #799FD8",
"#+	c #7EA2DA",
"$+	c #81A5DB",
"%+	c #85A8DC",
"&+	c #8AABDD",
"*+	c #88ABDD",
"=+	c #CAD9EE",
"-+	c #F7F5F5",
";+	c #C1E2C1",
">+	c #91E591",
",+	c #92E692",
"'+	c #92DB92",
")+	c #EBF0EB",
"!+	c #6D6D6D",
"~+	c #858585",
"{+	c #D7D7D7",
"]+	c #96B6DE",
"^+	c #4182D1",
"/+	c #4685D4",
"(+	c #4A88D5",
"_+	c #4D8BD6",
":+	c #538FD7",
"<+	c #5790D8",
"[+	c #5B93D9",
"}+	c #5F96DA",
"|+	c #6399DC",
"1+	c #689BDC",
"2+	c #6C9EDD",
"3+	c #70A1DE",
"4+	c #74A4E0",
"5+	c #78A6E0",
"6+	c #7CA9E2",
"7+	c #7FACE2",
"8+	c #83AEE4",
"9+	c #88B1E4",
"0+	c #8BB4E5",
"a+	c #8FB6E6",
"b+	c #8FB6E7",
"c+	c #D0DFF0",
"d+	c #EEEDED",
"e+	c #DCE3DC",
"f+	c #A0DBA0",
"g+	c #9ADE9A",
"h+	c #B9DDB9",
"i+	c #EBECEB",
"j+	c #707070",
"k+	c #EEF3F8",
"l+	c #DEEAF5",
"m+	c #DFE9F5",
"n+	c #DFE9F4",
"o+	c #DEE8F2",
"p+	c #DFE7F3",
"q+	c #DEE7F2",
"r+	c #DEE7F0",
"s+	c #DFE7F0",
"t+	c #DEE6F0",
"u+	c #DDE6EF",
"v+	c #DEE6EE",
"w+	c #DEE5EE",
"x+	c #DFE5EE",
"y+	c #DFE6EE",
"z+	c #E0E5ED",
"A+	c #DFE5ED",
"B+	c #E9EBED",
"C+	c #ECEBEC",
"D+	c #E7E9E7",
"E+	c #E4E7E4",
"F+	c #747474",
"G+	c #FDFCFC",
"H+	c #F5F5F4",
"I+	c #EDEDEC",
"J+	c #767676",
"K+	c #7D7D7D",
"L+	c #CFCFCF",
"M+	c #838383",
"N+	c #D1D1D1",
"O+	c #B0B0B0",
"P+	c #B6B6B6",
"Q+	c #8E8E8E",
"R+	c #BEBEBE",
"S+	c #A8A8A8",
"T+	c #8F8F8F",
"U+	c #898989",
"V+	c #9E9E9E",
"W+	c #E9EEEE",
"X+	c #E8EAEA",
"Y+	c #E6E5E5",
"Z+	c #E5E9E9",
"`+	c #E3E6E6",
" @	c #E1E0E0",
".@	c #E0DFE0",
"+@	c #E0DEE0",
"@@	c #9D9D9D",
"#@	c #8A8A8A",
"$@	c #E7E9E9",
"%@	c #CE8C8C",
"&@	c #D4AAAA",
"*@	c #E4EDED",
"=@	c #CE9090",
"-@	c #D1A5A5",
";@	c #E0E5E5",
">@	c #ACBEAC",
",@	c #9BB79B",
"'@	c #D8D9D8",
")@	c #BBBBBB",
"!@	c #E9EAEA",
"~@	c #D8B3B3",
"{@	c #F27474",
"]@	c #D59C9C",
"^@	c #D7C1C1",
"/@	c #F07070",
"(@	c #D49494",
"_@	c #DFE5E5",
":@	c #DED8DE",
"<@	c #5BA75B",
"[@	c #A8D1A8",
"}@	c #D5D6D5",
"|@	c #E5E4E4",
"1@	c #DD5F5F",
"2@	c #D12020",
"3@	c #E3E9E9",
"4@	c #DB6868",
"5@	c #D51818",
"6@	c #DDDEDE",
"7@	c #E4E1E5",
"8@	c #8BAF8B",
"9@	c #15BB15",
"0@	c #B3C7B3",
"a@	c #D8D7D8",
"b@	c #828282",
"c@	c #E2DCDC",
"d@	c #D64040",
"e@	c #DBA4A4",
"f@	c #DFDEDE",
"g@	c #D74848",
"h@	c #D59494",
"i@	c #DEE2E2",
"j@	c #E9E0E9",
"k@	c #52AA52",
"l@	c #4EB44E",
"m@	c #E2DCE2",
"n@	c #808080",
"o@	c #DFD6D6",
"p@	c #E2E3E3",
"q@	c #DBD2D2",
"r@	c #DEDFDF",
"s@	c #DAD9D9",
"t@	c #D0D4D0",
"u@	c #D5D4D5",
"v@	c #AAAAAA",
"w@	c #5B5B5B",
"x@	c #D7D6D7",
"y@	c #4A4A4A",
"z@	c #B5B5B5",
"A@	c #AEAEAE",
"B@	c #7E7E7E",
"C@	c #333333",
"D@	c #676767",
"E@	c #464646",
"F@	c #ADADAD",
"G@	c #A9A9A9",
"H@	c #A6A6A6",
"I@	c #919191",
"J@	c #9B9B9B",
"K@	c #404040",
"L@	c #424242",
"M@	c #414141",
"N@	c #434343",
"O@	c #535353",
"P@	c #777777",
"Q@	c #5F5F5F",
"                                    . + @ # # $ $ % & * = = - ; > , , , .                       ",
"                                    ' ) ! ) ) ) ) ) ) ) ) ) ) ) ) ) ) ) ~ {                     ",
"                                    = ] ^ / ( ~ ] _ _ _ ! ! ! ! ! ! ! ! ^ :                     ",
"                                    ; ( < ^ ^ / ( ~ _ _ _ _ _ ! ! ! ! ! ^ [                     ",
"                                    ; ^ } | 1 2 / / ( ~ ] _ _ _ ! ! ! ! 2 3                     ",
"                                4 5 * 1 6 7 } | 1 ^ ^ ( ~ _ _ _ ] ~ ^ ^ < 8 9                   ",
"                                0 a = 7 b c d e d d 6 e e 7 e e 7 } | | 7 f [                   ",
"                                g h = d i j j i i j k b l m c c 6 d d e 6 n {                   ",
"                                o ; ; m p q q r s s t i j j k b b m m c m u f                   ",
"                        v @ # % , w x b y z z p A A r r s t t i i k k k j B , 3 C D E           ",
"                      F ) ) ) ! G q ' 6 A r r r s t i j k b b l l m m c c $ H I J I [           ",
"    K e } 7 b o L L M N ) ! ! ( O P Q R S g T T 9 9 9 P P o o o U U U U U V W B & ; X           ",
"    7 ! ! ! ! H Y c + Z ) _ `  ...+.@.#.$.H @.$.$.%.&.&.$.*.*.=.=.-.=.;.;.>.;.,.| l y '.        ",
"  4 | ! ! ] ( ).@ z 8 ^ _ !.~.{.].^./.(._.:.<.[.}.|.1.2.3.4.5.6.7.8.8.9.0.a.b.c.d.} b e.f.      ",
"  g.| ! ] ( 2 h.% @ $ _ ( i.j.k.l.m.n.o.p.q.r.s.t.u.v.w.x.y.z.A.B.C.D.E.F.G.H.I.J.K.6 G ' L.    ",
"  M.| ~ / < } N.% & # 1 | O.P.Q.R.S.T.U.V.W.X.Y.Z.`. +.+++@+#+$+%+&+*+=+-+;+>+,+'+)+1 m t !+    ",
"  ~+e ^ < 7 d ;.% % {+) ! ]+^+/+(+_+:+<+[+}+|+1+2+3+4+5+6+7+8+9+0+a+b+c+d+e+f+g+h+i+m e.# j+    ",
"  g.6 < 7 d c &.$ & e.) ! k+l+m+n+o+p+q+r+s+t+t+u+v+w+v+v+x+y+z+z+z+A+B+b C+D+E+k b b G ' F+    ",
"  M.l 7 6 l k H $ - >.) ! _ G+/ ^ 2 1 H+} } e d 6 6 c I+l l b b k k k k k j k j j k k ;.- J+    ",
"  M.j 6 l j t + # - e.! _ ] / ^ 2 < } } e d 6 c c l l c m k j j j k i t i i i j i i A # v K+    ",
"  M.t l i s q # # = q ! ~ / ^ 2 < } 7 d 6 6 m l b k j = + A t i h.L+Y r r s h.G G r L+$ u M+    ",
"  4 A i s A z % % - z ] / ^ 1 | } e d 6 m l b k k j N.N+2 N.q N.=.^ A r A y 7 2 h.+ % ' I M+    ",
"  4 z s A ).Y * ' - z / ^ 2 < } 7 d c m b k j i t t r N+;.@ e.N.;.Y {+r z e.e.p # % & * X M.    ",
"  M.Y p y h.N.- % = r / 2 < } e d c l b j i t s r q q p z t p z y s A ).y A r + $ & * * O+0     ",
"  Q G y h.N.;.> ' . s 2 | } 7 d c l b j i t r q p p N.I =.$.y e.& N+&.h.G $.& + P+= = = { Q+    ",
"  Q >.e.N.{+$.B ' R+r | 7 e d c l b j i s q A p ).).;.& s &.$.@ N.l &.h.+ - G z ; - ; x S+V     ",
"  Q =.>.=.$.N+R+' > j } e d c l b j t s q A p ).y Y h.;.{+H ).;.+ ;.=.w # H H + = x > ; : W     ",
"  Q H =.$.N+@ u * R+k e d c l b j t s q A p ).y h.G >.= # ;.=.$.$ @ # # % & $ B v > , x C T+    ",
"  U+N+H + # ' n & u i d c l b j t s q A p ).Y h.G G L+R+s L+L+- & Y % + * * =.i . v v , V+Q+    ",
"  U+@ L+# ' * f ' v k c l b W+X+Y+Z+`+ @y .@+@G N.>.{+- {+' @ = ; N.' $.* * + $.v v R+v @@E     ",
"  #@% # ' * ; 8 & v k l b $@%@&@*@=@-@;@z >@,@'@;.=.&.N+N+=.;.@ $ @ H * = N+$.> v R+u R+@@U+    ",
"  U+* ' = x B '.* )@j k !@~@{@]@^@/@(@_@:@<@[@}@=.=.# J >.@ L+& B $.# ' x > N+$.)@u )@J U 4     ",
"  U+; = > , R+O = u i i |@1@2@3@4@5@6@7@8@9@0@a@$.$.L+v e.$ x J $.Y x L+v ; @ e.B h n u S b@    ",
"  #@x > B R+h { & B y t c@d@e@f@g@h@i@j@k@l@m@$.$.w + # &.# =.= R+;.+ % , % ;.' R+n I { n@4     ",
"  g.R+B R+)@P+: >.+ > r q o@p@y q@r@s@N.t@}@u@H N++ @ @ @ L+% = * - - B . , , R+n h v@~+M.w@    ",
"    C { Z S+[ S+j r ' n e.p@).h.e.N.>.;.x@$.H N+L+@ # $ & * = ; > , , . J )@h u P+T K+M.y@      ",
"    v f X a 8 N.m k r w z@x $.;.>.>.;.=.$.H N+L+@ # % & * = ; > , B . J )@I A@R n@B@L C@        ",
"    z ! 2 } 7 } c k t r e.& u )@J x ' % @ L+L+# @ % ' & = - > B )@8 v@3 9 0 E N D@E@            ",
"    V+< 2 < e c b t q z Y N.{++ P+F@v@f '.A@Z Z F@v@G@H@C 3 o T T+I@J@H@. > T                   ",
"      K@L@L@L@M@L@L@L@N@N@N@N@L@O@> R+! ^ 6 q >.w % & & * & @ >.q c } ^ 1 &.J@                  ",
"                                  ' B ] ) ) ) ) ) ) ) ) _ ] ( 2 | 7 d c m ;.D                   ",
"                                  H > ] ! ! ! _ ~ / ^ 1 < } 7 d 6 m l b b N.H@                  ",
"                                  G - ] _ ] ~ / 2 2 < } e e c c l j i t t h.Z                   ",
"                                  A = 1 2 1 1 < | } 7 e d 6 c m l b k i i G '.                  ",
"                                  t {+# L+L+L+L+L+L+L+L+L+L+L+L+L+L+L+H e.q n                   ",
"                                  A ] ] ] ] ] ] ] ] ] ] ] ] ] ] ] ] ] ] ~ ! )@                  ",
"                                  P@4 ~+~+~+~+~+~+~+~+~+~+~+~+~+~+~+~+~+~+4 Q@                  ",
"                                                                                                "};
