/* XPM */
static char * filezilla_xpm[] = {
"48 48 199 2",
"  	c None",
". 	c #BF0000",
"+ 	c #BE0000",
"@ 	c #C92A2A",
"# 	c #CA3131",
"$ 	c #C20F0F",
"% 	c #BD0000",
"& 	c #BE0505",
"* 	c #FDF6F6",
"= 	c #FFFFFF",
"- 	c #C82B2B",
"; 	c #BC0000",
"> 	c #C93333",
", 	c #FBF2F2",
"' 	c #BD0202",
") 	c #BA0000",
"! 	c #D66969",
"~ 	c #EDBEBE",
"{ 	c #B80000",
"] 	c #B90000",
"^ 	c #E59F9F",
"/ 	c #DE8787",
"( 	c #F3D5D5",
"_ 	c #CF5151",
": 	c #B60000",
"< 	c #BA0E0E",
"[ 	c #FEFDFD",
"} 	c #F3D6D6",
"| 	c #BD1A1A",
"1 	c #B50000",
"2 	c #C84343",
"3 	c #F5DDDD",
"4 	c #B40000",
"5 	c #D87979",
"6 	c #E5A6A6",
"7 	c #B10000",
"8 	c #B20000",
"9 	c #E7AFAF",
"0 	c #D47070",
"a 	c #F7E5E5",
"b 	c #C23939",
"c 	c #B00000",
"d 	c #B91C1C",
"e 	c #FDF9F9",
"f 	c #B20808",
"g 	c #AE0000",
"h 	c #C85353",
"i 	c #FAEFEF",
"j 	c #DB8E8E",
"k 	c #D06A6A",
"l 	c #AD0000",
"m 	c #D98989",
"n 	c #AB0000",
"o 	c #AC0000",
"p 	c #EABFBF",
"q 	c #C64F4F",
"r 	c #AA0000",
"s 	c #AB0303",
"t 	c #FBF3F3",
"u 	c #B01313",
"v 	c #A90000",
"w 	c #B82D2D",
"x 	c #E6B4B4",
"y 	c #A70000",
"z 	c #C96363",
"A 	c #F3DDDD",
"B 	c #DD9E9E",
"C 	c #FEFBFB",
"D 	c #E7B9B9",
"E 	c #AA0909",
"F 	c #A60000",
"G 	c #DB9999",
"H 	c #D38080",
"I 	c #A60101",
"J 	c #DA9696",
"K 	c #E4B3B3",
"L 	c #A90707",
"M 	c #A40000",
"N 	c #A50000",
"O 	c #EECFCF",
"P 	c #BF4A4A",
"Q 	c #A60202",
"R 	c #E2ADAD",
"S 	c #A70606",
"T 	c #A30000",
"U 	c #A70A0A",
"V 	c #FFFEFE",
"W 	c #AA1414",
"X 	c #A40202",
"Y 	c #DB9C9C",
"Z 	c #DFA6A6",
"` 	c #A40404",
" .	c #A20000",
"..	c #B83D3D",
"+.	c #F2DCDC",
"@.	c #A30202",
"#.	c #DC9F9F",
"$.	c #DCA0A0",
"%.	c #A30303",
"&.	c #A10000",
"*.	c #CB7373",
"=.	c #DEA5A5",
"-.	c #A20303",
";.	c #DDA2A2",
">.	c #D99999",
",.	c #A20202",
"'.	c #9F0000",
").	c #DFA9A9",
"!.	c #C96F6F",
"~.	c #A00303",
"{.	c #DDA5A5",
"].	c #D69292",
"^.	c #9F0101",
"/.	c #9D0000",
"(.	c #9E0000",
"_.	c #F3DFDF",
":.	c #B33838",
"<.	c #A00404",
"[.	c #DEA7A7",
"}.	c #D38A8A",
"|.	c #A61717",
"1.	c #A00808",
"2.	c #9F0505",
"3.	c #DEAAAA",
"4.	c #CF8383",
"5.	c #9B0000",
"6.	c #B94D4D",
"7.	c #EACACA",
"8.	c #9D0505",
"9.	c #DFACAC",
"0.	c #CB7B7B",
"a.	c #9A0000",
"b.	c #CE8383",
"c.	c #D59494",
"d.	c #9C0606",
"e.	c #DFAFAF",
"f.	c #C87474",
"g.	c #A51C1C",
"h.	c #C56D6D",
"i.	c #E3B8B8",
"j.	c #990000",
"k.	c #E3B9B9",
"l.	c #BE5D5D",
"m.	c #9C0707",
"n.	c #E0B2B2",
"o.	c #F3E2E2",
"p.	c #CA7A7A",
"q.	c #BD5959",
"r.	c #AD3232",
"s.	c #B34141",
"t.	c #BF6060",
"u.	c #CC8080",
"v.	c #D99F9F",
"w.	c #E5BDBD",
"x.	c #EBCDCD",
"y.	c #970000",
"z.	c #970101",
"A.	c #F8EEEE",
"B.	c #A72727",
"C.	c #9A0707",
"D.	c #E0B4B4",
"E.	c #D49797",
"F.	c #960000",
"G.	c #9E1414",
"H.	c #DCA9A9",
"I.	c #DAA6A6",
"J.	c #960101",
"K.	c #A72A2A",
"L.	c #FEFEFE",
"M.	c #BE6060",
"N.	c #950000",
"O.	c #D8A1A1",
"P.	c #A62A2A",
"Q.	c #930000",
"R.	c #9E1B1B",
"S.	c #FAF4F4",
"T.	c #F4E5E5",
"U.	c #C37272",
"V.	c #930101",
"W.	c #920000",
"X.	c #C87F7F",
"Y.	c #F6EBEB",
"Z.	c #C87E7E",
"`.	c #BD6464",
" +	c #B55252",
".+	c #BE6767",
"++	c #CA8484",
"@+	c #D6A0A0",
"#+	c #E2BCBC",
"$+	c #EED8D8",
"%+	c #FCF8F8",
"&+	c #F9F2F2",
"*+	c #F0DCDC",
"=+	c #E4C0C0",
"-+	c #CE8C8C",
";+	c #A83333",
">+	c #900000",
",+	c #920404",
"'+	c #8F0000",
"    . . .           . . .           . . .             . . .           . . .           . . .     ",
"  . . . . .       . . . . .       . . . . .         . . . . .       . . . . .       . . . . .   ",
". . . . . . . . . . . . . . . . . . . . . . . . . . . . . . . . . . . . . . . . . . . . . . . . ",
". . . . . . . . . . . . . . . . . . . . . . . . . . . . . . . . . . . . . . . . . . . . . . . . ",
". . . . . . . . . . . . . . . . . . . . . . . . . . . . . . . . . . . . . . . . . . . . . . . . ",
"  . . . . . . . . . . . . . . . . . . . . . . . . . . . . . . . . . . . . . . . . . . . . . .   ",
"    . . . . . . . . . . . . . . . . . . . . . . . . . . . . . . . . . . . . . . . . . . . .     ",
"    + + + + + + + + + + + @ # # # # # # # # # # # # # # # # # # # $ + + + + + + + + + + + +     ",
"    % % % % % % % % % % & * = = = = = = = = = = = = = = = = = = = - % % % % % % % % % % % %     ",
"  ; ; ; ; ; ; ; ; ; ; ; > = = = = = = = = = = = = = = = = = = = , ' ; ; ; ; ; ; ; ; ; ; ; ; ;   ",
") ) ) ) ) ) ) ) ) ) ) ) ! = = = = = = = = = = = = = = = = = = = ~ ) ) ) ) ) ) ) ) ) ) ) ) ) ) ) ",
"{ { { ] ] ] ] ] ] ] ] ] ^ = = = = = = = = = = = = = = = = = = = / ] ] ] ] ] ] ] ] ] ] ] ] ] ] ] ",
"{ { { { { { { { { { { { ( = = = = = = = = = = = = = = = = = = = _ { { { { { { { { { { { { { { { ",
"  : : : : : : : : : : < [ = = = = = } } } } } } } } } } } } } } | : : : : : : : : : : : : : :   ",
"    1 1 1 1 1 1 1 1 1 2 = = = = = 3 1 1 1 1 1 1 1 1 1 1 1 1 1 1 1 1 1 1 1 1 1 1 1 1 1 1 1 1     ",
"    4 4 4 4 4 4 4 4 4 5 = = = = = 6 4 4 4 4 4 4 4 4 4 4 4 4 4 4 4 4 4 4 4 4 4 4 4 4 4 4 4 4     ",
"    7 8 8 8 8 8 8 8 8 9 = = = = = 0 8 8 8 8 8 8 8 8 8 8 8 8 8 8 8 8 8 8 8 8 8 8 8 8 8 8 8 8     ",
"  7 7 7 7 7 7 7 7 7 7 a = = = = = b 7 7 7 7 7 7 7 7 7 7 7 7 7 7 7 7 7 7 7 7 7 7 7 7 7 7 7 7 7   ",
"c c c c c c c c c c d = = = = = e f c c c c c c c c c c c c c c c c c c c c c c c c c c c c c c ",
"g g g g g g g g g g h = = = = = i j j j j j j j j j j j j j j j j j j j j j j k g g g g g g g g ",
"l l l l l l l l l l m = = = = = = = = = = = = = = = = = = = = = = = = = = = = j l l l l l l l l ",
"  n n o o o o o o o p = = = = = = = = = = = = = = = = = = = = = = = = = = = = q o o o o o o o   ",
"    r r r r r r r s t = = = = = = = = = = = = = = = = = = = = = = = = = = = [ u r r r r r r     ",
"    v v v v v v v w = = = = = = = = = = = = = = = = = = = = = = = = = = = = x v v v v v v v     ",
"    y y y y y y y z = = = = = A B B B B B B B B B B B B B B C = = = = = = D E y y y y y y y     ",
"  F F F F F F F F G = = = = = H F F F F F F F F F F F F I J = = = = = = K L F F F F F F F F F   ",
"M M M N N N N N N O = = = = = P N N N N N N N N N N N Q G = = = = = = R S N N N N N N N N N N N ",
"T T T T T T T T U C = = = = V W T T T T T T T T T T X Y = = = = = = Z ` T T T T T T T T T T T T ",
" . . . . . . . ...= = = = = +. . . . . . . . . . .@.#.= = = = = = $.%. . . . . . . . . . . . . .",
"  &.&.&.&.&.&.&.*.= = = = = =.&.&.&.&.&.&.&.&.&.-.;.= = = = = = >.,.&.&.&.&.&.&.&.&.&.&.&.&.&.  ",
"    '.'.'.'.'.'.).= = = = = !.'.'.'.'.'.'.'.'.~.{.= = = = = = ].^.'.'.'.'.'.'.'.'.'.'.'.'.'.    ",
"    /.(.(.(.(.(._.= = = = = :.(.(.(.(.(.(.(.<.[.= = = = = = }.(.(.(.(.(.(.(.(.(.(.(.(.(.(.(.    ",
"    /././././.|.= = = = = e 1././././././.2.3.= = = = = = 4././././././././././././././././.    ",
"  5.5.5.5.5.5.6.= = = = = 7.5.5.5.5.5.5.8.9.= = = = = = 0.5.5.5.5.5.5.5.5.5.5.5.5.5.5.5.5.5.5.  ",
"a.a.a.a.a.a.a.b.= = = = = c.a.a.a.a.a.d.e.= = = = = V f.a.a.a.a.a.a.a.g.h.i.d.a.a.a.a.a.a.a.a.a.",
"j.j.j.j.j.j.j.k.= = = = = l.j.j.j.j.m.n.= = = = = = o.p.q.r.s.t.u.v.w.= = x.j.j.j.j.j.j.j.j.j.j.",
"y.y.y.y.y.y.z.A.= = = = = B.y.y.y.C.D.= = = = = = = = = = = = = = = = = = E.y.y.y.y.y.y.y.y.y.y.",
"  F.F.F.F.F.G.H.H.H.H.H.I.J.F.F.F.K.L.= = = = = = = = = = = = = = = = = = M.F.F.F.F.F.F.F.F.F.  ",
"    N.N.N.N.N.N.N.N.N.N.N.N.N.N.N.N.O.= = = = = = = = = = = = = = = = = = P.N.N.N.N.N.N.N.N.    ",
"    Q.Q.Q.Q.Q.Q.Q.Q.Q.Q.Q.Q.Q.Q.Q.Q.R.S.= = = = = = = = = = = = = = = T.U.V.Q.Q.Q.Q.Q.Q.Q.Q.    ",
"    W.W.W.W.W.W.W.W.W.W.W.W.W.W.W.W.W.X.Y.Z.`. +.+++@+#+$+%+&+*+=+-+;+W.W.W.W.W.W.W.W.W.W.W.    ",
"  >+>+>+>+>+>+>+>+>+>+>+>+>+>+>+>+>+>+,+>+>+>+>+>+>+>+>+>+>+>+>+>+>+>+>+>+>+>+>+>+>+>+>+>+>+>+  ",
"'+'+'+'+'+'+'+'+'+'+'+'+'+'+'+'+'+'+'+'+'+'+'+'+'+'+'+'+'+'+'+'+'+'+'+'+'+'+'+'+'+'+'+'+'+'+'+'+",
"'+'+'+'+'+'+'+'+'+'+'+'+'+'+'+'+'+'+'+'+'+'+'+'+'+'+'+'+'+'+'+'+'+'+'+'+'+'+'+'+'+'+'+'+'+'+'+'+",
"'+'+'+'+'+'+'+'+'+'+'+'+'+'+'+'+'+'+'+'+'+'+'+'+'+'+'+'+'+'+'+'+'+'+'+'+'+'+'+'+'+'+'+'+'+'+'+'+",
"'+'+'+'+'+'+'+'+'+'+'+'+'+'+'+'+'+'+'+'+'+'+'+'+'+'+'+'+'+'+'+'+'+'+'+'+'+'+'+'+'+'+'+'+'+'+'+'+",
"  '+'+'+'+'+      '+'+'+'+'+      '+'+'+'+'+        '+'+'+'+'+      '+'+'+'+'+      '+'+'+'+'+  ",
"    '+'+'+          '+'+'+          '+'+'+            '+'+'+          '+'+'+          '+'+'+    "};
