/* XPM */
static char * fileroller_xpm[] = {
"48 48 632 2",
"  	c None",
". 	c #282E30",
"+ 	c #424748",
"@ 	c #414748",
"# 	c #3A3F41",
"$ 	c #3A3F40",
"% 	c #393F40",
"& 	c #434849",
"* 	c #3D4344",
"= 	c #292F31",
"- 	c #525450",
"; 	c #4E504C",
"> 	c #323738",
", 	c #909392",
"' 	c #B7B8B6",
") 	c #8D8F8B",
"! 	c #7A7D78",
"~ 	c #979A96",
"{ 	c #B8B9B7",
"] 	c #BABBB9",
"^ 	c #D2D3D2",
"/ 	c #727677",
"( 	c #2A2E30",
"_ 	c #4F524D",
": 	c #4F514D",
"< 	c #51534F",
"[ 	c #767974",
"} 	c #AAADA8",
"| 	c #4B5050",
"1 	c #A7A9A7",
"2 	c #ABACAA",
"3 	c #6F726D",
"4 	c #6A6D67",
"5 	c #6C6F69",
"6 	c #939591",
"7 	c #A8A9A6",
"8 	c #ACADAB",
"9 	c #D0D1CF",
"0 	c #C1C3BD",
"a 	c #C0C2BC",
"b 	c #C0C3BD",
"c 	c #B0B3AC",
"d 	c #979895",
"e 	c #626460",
"f 	c #B6B9B3",
"g 	c #757773",
"h 	c #383E3E",
"i 	c #5C5F5E",
"j 	c #6E716E",
"k 	c #585A57",
"l 	c #515450",
"m 	c #515451",
"n 	c #626562",
"o 	c #767977",
"p 	c #777A77",
"q 	c #888A89",
"r 	c #5B5F5E",
"s 	c #474C4B",
"t 	c #61635F",
"u 	c #959791",
"v 	c #A9ABA6",
"w 	c #4B4D49",
"x 	c #555753",
"y 	c #8F928C",
"z 	c #898B86",
"A 	c #2F3436",
"B 	c #313739",
"C 	c #313738",
"D 	c #303638",
"E 	c #313638",
"F 	c #32383A",
"G 	c #323839",
"H 	c #2E3335",
"I 	c #AAADA7",
"J 	c #7E807B",
"K 	c #5F615D",
"L 	c #ADB0A9",
"M 	c #5C5F5A",
"N 	c #777974",
"O 	c #ACAEA8",
"P 	c #8F918B",
"Q 	c #90938E",
"R 	c #585A56",
"S 	c #A5A8A2",
"T 	c #6D706B",
"U 	c #C2C4BE",
"V 	c #60625E",
"W 	c #767873",
"X 	c #A1A39E",
"Y 	c #50524E",
"Z 	c #A6A9A3",
"` 	c #969793",
" .	c #545652",
"..	c #B3B6AF",
"+.	c #747672",
"@.	c #70726E",
"#.	c #C3C5C0",
"$.	c #525550",
"%.	c #4D4F4B",
"&.	c #8E908B",
"*.	c #ADAFAB",
"=.	c #797B77",
"-.	c #636561",
";.	c #C4C6C1",
">.	c #5D5F5A",
",.	c #6B6D69",
"'.	c #BBBDB8",
").	c #5B5D59",
"!.	c #979994",
"~.	c #A2A4A0",
"{.	c #878986",
"].	c #B9BBB6",
"^.	c #5D5F5B",
"/.	c #51544F",
"(.	c #4E514D",
"_.	c #4E514C",
":.	c #535551",
"<.	c #4E504D",
"[.	c #949692",
"}.	c #898A87",
"|.	c #B4B6B2",
"1.	c #BFC0BD",
"2.	c #BEBFBC",
"3.	c #BDBEBB",
"4.	c #BCBDBA",
"5.	c #BABCB8",
"6.	c #B9BAB7",
"7.	c #B8B9B6",
"8.	c #B9BAB6",
"9.	c #BABBB8",
"0.	c #B5B6B3",
"a.	c #A4A5A3",
"b.	c #A4A6A3",
"c.	c #9C9D9A",
"d.	c #787A76",
"e.	c #6D6F6B",
"f.	c #D3D5D1",
"g.	c #5C5E5A",
"h.	c #B4B4B2",
"i.	c #C2C3C1",
"j.	c #B1B3B0",
"k.	c #AAACA9",
"l.	c #ABACA9",
"m.	c #ABADA9",
"n.	c #ABADAA",
"o.	c #ACADAA",
"p.	c #ACAEAB",
"q.	c #ADAEAB",
"r.	c #AFB1AD",
"s.	c #AEB0AC",
"t.	c #9C9E9A",
"u.	c #7D7F7C",
"v.	c #737571",
"w.	c #737570",
"x.	c #747671",
"y.	c #7E7F7B",
"z.	c #9A9C98",
"A.	c #92938F",
"B.	c #C7C9C5",
"C.	c #898B87",
"D.	c #BEBFBD",
"E.	c #B9B9B9",
"F.	c #9B9B9B",
"G.	c #9A9A9A",
"H.	c #9D9D9D",
"I.	c #AEAEAC",
"J.	c #C3C5C1",
"K.	c #C2C3C0",
"L.	c #BDBFBC",
"M.	c #8B8C89",
"N.	c #6E706B",
"O.	c #6A6C67",
"P.	c #6B6D68",
"Q.	c #979894",
"R.	c #7C7E7A",
"S.	c #838681",
"T.	c #C3C5C2",
"U.	c #959794",
"V.	c #D9D9D9",
"W.	c #B0B0B0",
"X.	c #FEFEFE",
"Y.	c #FFFFFF",
"Z.	c #D5D5D5",
"`.	c #B1B2B1",
" +	c #DFE0DE",
".+	c #DEDFDD",
"++	c #B9BAB8",
"@+	c #7E807C",
"#+	c #6C6E69",
"$+	c #60615E",
"%+	c #C6C7C4",
"&+	c #6E6F6C",
"*+	c #E7E7E7",
"=+	c #AAAAAA",
"-+	c #E4E4E4",
";+	c #F9F9F8",
">+	c #F6F6F6",
",+	c #F7F7F6",
"'+	c #F7F7F7",
")+	c #F8F8F7",
"!+	c #F8F8F8",
"~+	c #F9F9F9",
"{+	c #FAFAFA",
"]+	c #ABABAB",
"^+	c #EDEEED",
"/+	c #F5F6F5",
"(+	c #A2A3A1",
"_+	c #757672",
":+	c #5A5C58",
"<+	c #868884",
"[+	c #575955",
"}+	c #848582",
"|+	c #D6D6D5",
"1+	c #ADADAD",
"2+	c #FDFDFC",
"3+	c #EDEDEC",
"4+	c #EEEEEC",
"5+	c #EEEEED",
"6+	c #F0F0EE",
"7+	c #F0F0EF",
"8+	c #F0F0F0",
"9+	c #F2F2F0",
"0+	c #F2F2F1",
"a+	c #F2F2F2",
"b+	c #F3F3F3",
"c+	c #F4F4F3",
"d+	c #F5F5F4",
"e+	c #DCDCDC",
"f+	c #C1C1C1",
"g+	c #F1F1F0",
"h+	c #DCDCDB",
"i+	c #696B66",
"j+	c #6D6F6A",
"k+	c #686A65",
"l+	c #565854",
"m+	c #7A7C78",
"n+	c #9E9F9C",
"o+	c #BEBDBD",
"p+	c #CCCCCC",
"q+	c #F5F5F3",
"r+	c #E5E5E1",
"s+	c #E5E5E3",
"t+	c #E6E6E3",
"u+	c #E7E7E4",
"v+	c #E7E7E5",
"w+	c #E8E8E6",
"x+	c #E9E9E6",
"y+	c #EAEAE8",
"z+	c #EBEBEA",
"A+	c #ECECEA",
"B+	c #ECECEB",
"C+	c #C9C9C9",
"D+	c #C9CAC8",
"E+	c #D7D8D6",
"F+	c #D8D9D7",
"G+	c #C8C9C7",
"H+	c #6F716C",
"I+	c #5A5C57",
"J+	c #A9AAA7",
"K+	c #C4C5C3",
"L+	c #686A66",
"M+	c #6E706C",
"N+	c #495562",
"O+	c #8F98A1",
"P+	c #969EA9",
"Q+	c #B8BFCA",
"R+	c #C5CCD5",
"S+	c #B9C0C8",
"T+	c #BCC3CA",
"U+	c #DBDAD6",
"V+	c #DBDBD8",
"W+	c #DDDDDA",
"X+	c #E0E0DC",
"Y+	c #E1E1DD",
"Z+	c #E1E1DF",
"`+	c #E3E3DF",
" @	c #E3E3E0",
".@	c #E4E4E1",
"+@	c #EFEFED",
"@@	c #BFBFBF",
"#@	c #BDBDBB",
"$@	c #BFBFBD",
"%@	c #CCCCCB",
"&@	c #878884",
"*@	c #70726D",
"=@	c #767773",
"-@	c #80807F",
";@	c #7B7C7A",
">@	c #E5E6E5",
",@	c #80817E",
"'@	c #868783",
")@	c #1F4986",
"!@	c #264E88",
"~@	c #2B538C",
"{@	c #2A528B",
"]@	c #2C548E",
"^@	c #2A528C",
"/@	c #29528C",
"(@	c #264F89",
"_@	c #456695",
":@	c #CFCDC6",
"<@	c #CFCFCB",
"[@	c #D4D4D1",
"}@	c #D6D6D3",
"|@	c #D8D8D4",
"1@	c #D8D8D5",
"2@	c #DADAD6",
"3@	c #DADAD7",
"4@	c #DBDBD7",
"5@	c #E9E9E7",
"6@	c #D7D7D6",
"7@	c #797B76",
"8@	c #71736E",
"9@	c #727470",
"0@	c #8C8C8B",
"a@	c #929391",
"b@	c #969695",
"c@	c #858684",
"d@	c #5B5D58",
"e@	c #848681",
"f@	c #91938F",
"g@	c #184382",
"h@	c #B4CFE9",
"i@	c #A9C6E3",
"j@	c #A8C6E3",
"k@	c #9EBDDC",
"l@	c #224E8C",
"m@	c #A6ABAC",
"n@	c #BEBDB7",
"o@	c #C4C4BE",
"p@	c #C7C7C3",
"q@	c #CAC9C4",
"r@	c #CBCBC6",
"s@	c #CCCCC8",
"t@	c #CECEC9",
"u@	c #DEDDDB",
"v@	c #B4B4B3",
"w@	c #A4A5A2",
"x@	c #A5A6A3",
"y@	c #E2E3E1",
"z@	c #72746F",
"A@	c #71736F",
"B@	c #777876",
"C@	c #8A8A89",
"D@	c #A3A5A0",
"E@	c #A6A7A5",
"F@	c #818181",
"G@	c #6F716D",
"H@	c #81837E",
"I@	c #989A96",
"J@	c #174281",
"K@	c #A3C0DF",
"L@	c #7AA3D0",
"M@	c #729ECC",
"N@	c #729DCC",
"O@	c #759FCD",
"P@	c #9BBCDD",
"Q@	c #2F5994",
"R@	c #617793",
"S@	c #949CA2",
"T@	c #959DA6",
"U@	c #98A0A8",
"V@	c #99A2A9",
"W@	c #9BA3AB",
"X@	c #9CA4AC",
"Y@	c #9DA5AE",
"Z@	c #9EA7AE",
"`@	c #AAB2BC",
" #	c #999FA7",
".#	c #9F9F9A",
"+#	c #9F9F9C",
"@#	c #EAE9E9",
"##	c #757772",
"$#	c #747674",
"%#	c #B2B4B1",
"&#	c #BEC0BD",
"*#	c #868686",
"=#	c #767874",
"-#	c #80827D",
";#	c #96B5D5",
">#	c #749ECC",
",#	c #6795C7",
"'#	c #6895C7",
")#	c #6895C6",
"!#	c #8BAED4",
"~#	c #80A1C8",
"{#	c #325A93",
"]#	c #2B528B",
"^#	c #2C538C",
"/#	c #2C548C",
"(#	c #2C548D",
"_#	c #2D548D",
":#	c #2D548E",
"<#	c #254D88",
"[#	c #395A89",
"}#	c #969995",
"|#	c #A3A4A0",
"1#	c #E3E3E1",
"2#	c #6E706F",
"3#	c #868885",
"4#	c #B3B4B1",
"5#	c #7D7C7D",
"6#	c #777A74",
"7#	c #82847F",
"8#	c #979995",
"9#	c #194483",
"0#	c #83A2C9",
"a#	c #769ECB",
"b#	c #6491C3",
"c#	c #6391C3",
"d#	c #6693C3",
"e#	c #8DAED3",
"f#	c #9EBCDB",
"g#	c #9FBCDC",
"h#	c #9EBCDC",
"i#	c #9EBCDA",
"j#	c #9EBBDB",
"k#	c #99B7D8",
"l#	c #3F679E",
"m#	c #415F89",
"n#	c #9F9E97",
"o#	c #D6D7D5",
"p#	c #80817D",
"q#	c #727571",
"r#	c #6B6C6A",
"s#	c #757675",
"t#	c #A3A5A1",
"u#	c #9C9E9B",
"v#	c #717271",
"w#	c #797C76",
"x#	c #90928E",
"y#	c #1B4583",
"z#	c #6689B6",
"A#	c #79A0CB",
"B#	c #5F8DBF",
"C#	c #5F8CBF",
"D#	c #5C8ABE",
"E#	c #638FC0",
"F#	c #6490C1",
"G#	c #6490C0",
"H#	c #638FC1",
"I#	c #769DC8",
"J#	c #7EA0C7",
"K#	c #244B83",
"L#	c #8B8E8C",
"M#	c #C6C7C5",
"N#	c #8E908C",
"O#	c #787A75",
"P#	c #7A7C77",
"Q#	c #6D706C",
"R#	c #666766",
"S#	c #767675",
"T#	c #6F706F",
"U#	c #71726F",
"V#	c #7B7E79",
"W#	c #8C8E89",
"X#	c #848682",
"Y#	c #1D4785",
"Z#	c #446B9F",
"`#	c #7DA2CB",
" $	c #5B89BC",
".$	c #5B88BC",
"+$	c #5B88BB",
"@$	c #5A88BB",
"#$	c #5A87BB",
"$$	c #5A87BA",
"%$	c #5987BA",
"&$	c #5F8BBC",
"*$	c #88AACE",
"=$	c #6F7B86",
"-$	c #AFB0AC",
";$	c #7C7E79",
">$	c #7B7D78",
",$	c #70736F",
"'$	c #6B6D6A",
")$	c #70726F",
"!$	c #797C77",
"~$	c #7F817C",
"{$	c #939490",
"]$	c #525451",
"^$	c #2A538E",
"/$	c #799DC6",
"($	c #5987B9",
"_$	c #5784B8",
":$	c #5684B8",
"<$	c #5684B7",
"[$	c #5683B7",
"}$	c #5583B7",
"|$	c #5583B6",
"1$	c #5380B5",
"2$	c #476EA3",
"3$	c #516682",
"4$	c #959793",
"5$	c #A9AAA8",
"6$	c #7E7F7A",
"7$	c #5E605C",
"8$	c #244D8A",
"9$	c #6186B5",
"0$	c #5A85B7",
"a$	c #5280B4",
"b$	c #527FB4",
"c$	c #517FB4",
"d$	c #527FB3",
"e$	c #517FB3",
"f$	c #517EB3",
"g$	c #4F7DB2",
"h$	c #5E88B8",
"i$	c #658BB9",
"j$	c #325585",
"k$	c #808583",
"l$	c #A1A2A0",
"m$	c #858783",
"n$	c #8B8C88",
"o$	c #565957",
"p$	c #41699E",
"q$	c #638BBA",
"r$	c #4D7BB0",
"s$	c #4E7CB1",
"t$	c #4E7CB0",
"u$	c #4E7BB0",
"v$	c #4D7AB0",
"w$	c #4D7AAF",
"x$	c #4C7AAF",
"y$	c #4B79AF",
"z$	c #658CB9",
"A$	c #335D97",
"B$	c #617184",
"C$	c #93938E",
"D$	c #8C8E8A",
"E$	c #838580",
"F$	c #74746D",
"G$	c #3B516D",
"H$	c #1E4A89",
"I$	c #244E8A",
"J$	c #5C84B2",
"K$	c #507CB0",
"L$	c #4978AD",
"M$	c #4A78AD",
"N$	c #4977AD",
"O$	c #4977AC",
"P$	c #4976AC",
"Q$	c #4876AC",
"R$	c #4876AB",
"S$	c #4F7BAF",
"T$	c #4F78AB",
"U$	c #224D89",
"V$	c #7D8588",
"W$	c #8A8B87",
"X$	c #858782",
"Y$	c #858781",
"Z$	c #52595B",
"`$	c #456FA5",
" %	c #244D89",
".%	c #2F5993",
"+%	c #5781B2",
"@%	c #4A77AC",
"#%	c #4573AA",
"$%	c #4674AA",
"%%	c #4674AB",
"&%	c #4673AA",
"*%	c #4675AC",
"=%	c #4675AD",
"-%	c #527FB2",
";%	c #3E69A2",
">%	c #2B5186",
",%	c #757E85",
"'%	c #80807B",
")%	c #888A85",
"!%	c #8B8D89",
"~%	c #969893",
"{%	c #496589",
"]%	c #3A629A",
"^%	c #1D4784",
"/%	c #1E4783",
"(%	c #2D5892",
"_%	c #517DB4",
":%	c #4D7CB3",
"<%	c #4878B2",
"[%	c #4878B1",
"}%	c #4879B2",
"|%	c #4979B2",
"1%	c #4979B3",
"2%	c #4979B4",
"3%	c #497AB4",
"4%	c #497AB5",
"5%	c #4A7BB6",
"6%	c #507FB9",
"7%	c #406DA9",
"8%	c #274F88",
"9%	c #617287",
"0%	c #83827B",
"a%	c #8B8B87",
"b%	c #989994",
"c%	c #5B5A53",
"d%	c #4F6886",
"e%	c #3A639C",
"f%	c #204984",
"g%	c #1C447D",
"h%	c #26508D",
"i%	c #3F6DA9",
"j%	c #4979B6",
"k%	c #497AB6",
"l%	c #4979B7",
"m%	c #497AB7",
"n%	c #487AB8",
"o%	c #497AB8",
"p%	c #487AB9",
"q%	c #497AB9",
"r%	c #497ABA",
"s%	c #3F6FAE",
"t%	c #1F4B8B",
"u%	c #254B81",
"v%	c #3F5269",
"w%	c #4A5157",
"x%	c #4C5254",
"y%	c #505960",
"z%	c #496892",
"A%	c #2C5591",
"B%	c #1A427C",
"C%	c #183D72",
"D%	c #1D457F",
"E%	c #214A86",
"F%	c #224A86",
"G%	c #224B86",
"H%	c #224B87",
"I%	c #244D88",
"J%	c #234C87",
"K%	c #1D4682",
"L%	c #1C4684",
"M%	c #214780",
"N%	c #1F4883",
"O%	c #183E76",
"                                                                                                ",
"                                                                                                ",
"                                                                                                ",
"                                                                                                ",
"                                                                                                ",
"                                                                                                ",
"                                                                                                ",
"                                              . + @ # $ $ $ $ $ $ $ $ $ $ % + & * =             ",
"                                        - ; > , ' ) ! ! ! ! ! ! ! ! ! ! ! ~ { ] ^ / ( _ : :     ",
"                                      < [ } | 1 2 3 4 4 4 4 4 4 4 4 4 4 5 6 7 8 9 0 a b c d     ",
"                                      e f g h i j k l m m m m m m m m m m n o p q r s t u v w   ",
"                                    x y z <   A B C D D D D D D D D D D D E F F G H   - I J     ",
"                                    K L M                                             N O :     ",
"                                  : P Q x                                           R S T       ",
"                                  e U V                                           - W X R       ",
"                                Y Z ` w                                            ...+.        ",
"                                @.#.$.                                          %.&.} :         ",
"                              R *.=.-                                           -.;.>.          ",
"                              ,.'.).                                          x !.Q Y           ",
"                            Y ~.{.                                            -.].^.            ",
"                /.: ; ; ; ; ; R - : (._._.; ; ; ; ; ; ; ; ; :.:._ Y :.      <.X [.:.            ",
"              ).}.|.1.2.3.4.5.6.7.7.8.6.6.9.9.6.] 4.3.3.2.0.a.b.7 c.d.R     e.f.g.              ",
"            K h.i.j.k.l.m.n.o.8 p.p.p.p.p.p.p.q.r.s.*.*.t.u.v.w.x.y.z.A.). .B.C.                ",
"          %.D.E.F.G.G.G.G.G.G.G.G.G.G.G.G.G.F.H.I.J.K.L.M.N.O.O.O.O.P.Q.R.S.T.Y                 ",
"        w U.V.W.X.Y.Y.Y.Y.Y.Y.Y.Y.Y.Y.Y.Y.Y.Y.Z.`. +.+++@+P.O.O.P.P.P.#+$+%+&+                  ",
"        g.*+=+-+;+>+,+'+)+!+!+~+~+~+~+~+~+{+'+]+^+'+/+(+_+P.P.P.#+#+N.:+<+4.[+                  ",
"        }+|+1+2+3+3+4+5+6+7+8+9+0+a+b+c+d+!+e+f+g+7+h+(+i+#+#+j+j+N.k+l+.+m+x                   ",
"        n+o+p+q+r+s+t+t+u+v+w+x+y+y+z+A+B+c+C+D+E+F+G+` P.N.H+H+H+H+I+J+K+L+M+:.                ",
"      N+O+P+Q+R+S+S+T+U+V+W+X+Y+Z+`+ @.@.@+@@@#@1.$@%@&@j+*@*@*@=@-@;@>@K ,@'@-                 ",
"    )@!@~@{@]@]@^@/@(@_@:@<@[@}@|@1@2@3@4@5@E.l.l.q.6@7@*@8@8@9@0@a@b@c@d@e@f@<                 ",
"    g@h@i@j@j@j@j@i@k@l@m@n@o@p@q@r@s@t@t@u@v@w@x@l.y@*@z@x.A@B@C@D@E@F@G@H@I@Y                 ",
"    J@K@L@M@N@N@N@O@P@Q@R@S@T@U@V@W@X@Y@Z@`@ #.#+#J+@#N.####@.$#M.%#&#*#=#-#z.Y                 ",
"    g@;#>#,#'#)#)#)#!#~#{#]#^#^#/#/#(#(#_#:#<#[#}#|#1#x.W N 8@2#3#4#3.5#6#7#8#Y                 ",
"    9#0#a#b#b#b#c#c#d#e#f#g#g#h#h#h#f#i#j#j#k#l#m#n#o#p#N 7@q#r#s#t#u#v#w#&@x#<                 ",
"    y#z#A#B#B#B#B#C#C#D#E#F#F#G#G#H#E#E#E#E#I#J#K#L#M#N#O#P#=#Q#R#S#T#U#V#W#X#-                 ",
"    Y#Z#`# $ $.$+$+$+$@$@$@$@$#$#$$$%$%$%$%$&$*${@=$-$n+7@;$>$=#,$'$)$!$~${$z@]$                ",
"      ^$/$($_$_$_$:$:$<$<$[$[$[$}$}$}$}$|$|$1$/$2$3$4$5$>$J J J 6$J J -#7#Q.7$                  ",
"      8$9$0$a$a$a$a$a$a$b$c$d$e$e$e$e$e$f$f$g$h$i$j$k$l$m$~$-#-#H@H@H@7#z n$o$                  ",
"        p$q$r$s$s$t$u$r$r$r$r$r$r$v$w$x$x$x$x$y$z$A$B$C$D$H@H@7#7#7#E$E$Q.F$G$H$                ",
"        I$J$K$L$M$N$N$O$O$O$O$O$P$Q$Q$Q$R$R$R$R$S$T$U$V$W$E$e@e@e@X$Y$6 D$Z$`$ %                ",
"          .%+%@%#%$%$%$%%%%%$%&%%%%%%%%%%%%%%%*%=%-%;%>%,%'%X#z )%!%~%D$>.{%]%^%                ",
"          /%(%_%:%<%[%[%}%}%|%1%1%1%1%2%3%3%3%4%4%5%6%7%8%9%0%a%b%[.7@c%d%e%f%                  ",
"            g%h%i%j%k%k%k%l%m%m%m%m%n%o%o%n%p%q%q%q%p%r%s%t%u%v%w%x%y%z%A%B%                    ",
"                C%D%E%F%F%F%G%G%G%G%G%G%G%G%H%H%H%H%H%G%I%J%K%L%L%M%N%O%                        ",
"                                                                                                ",
"                                                                                                ",
"                                                                                                ",
"                                                                                                "};
