/* XPM */
static char * find_xpm[] = {
"48 48 674 2",
"  	c None",
". 	c #2E64AE",
"+ 	c #2B60A9",
"@ 	c #285CA4",
"# 	c #275BA3",
"$ 	c #2B5EA8",
"% 	c #275CA5",
"& 	c #2B5FA8",
"* 	c #2E62AC",
"= 	c #2F66B1",
"- 	c #2F65AE",
"; 	c #285BA4",
"> 	c #3264AE",
", 	c #5377C1",
"' 	c #7A8CD5",
") 	c #8F98E0",
"! 	c #9EA0E5",
"~ 	c #A3A3E6",
"{ 	c #A4A5E8",
"] 	c #9FA5E6",
"^ 	c #909BDD",
"/ 	c #6C88CB",
"( 	c #3E6DB6",
"_ 	c #285CA5",
": 	c #2C62AB",
"< 	c #3065AF",
"[ 	c #4570BA",
"} 	c #858ED9",
"| 	c #9898DF",
"1 	c #9D9DDE",
"2 	c #9E9FDD",
"3 	c #8B8CC3",
"4 	c #7B7CAF",
"5 	c #7C7CAF",
"6 	c #7D7DB1",
"7 	c #8E8FC7",
"8 	c #A0A1DD",
"9 	c #A5A6E2",
"0 	c #AEAEE7",
"a 	c #B1B3EA",
"b 	c #6E8ACC",
"c 	c #2D62AC",
"d 	c #2B60A8",
"e 	c #3968B3",
"f 	c #7986D3",
"g 	c #9394DA",
"h 	c #9595D1",
"i 	c #6B6B9C",
"j 	c #3B3D63",
"k 	c #1B1D3D",
"l 	c #101230",
"m 	c #0C0E2B",
"n 	c #0F112D",
"o 	c #141533",
"p 	c #191B3A",
"q 	c #222445",
"r 	c #3F4168",
"s 	c #6D6EA0",
"t 	c #9697D1",
"u 	c #ADADE4",
"v 	c #B8BAEC",
"w 	c #5F81C4",
"x 	c #295DA5",
"y 	c #295EA6",
"z 	c #4E73BE",
"A 	c #8C8ED6",
"B 	c #9091D1",
"C 	c #5C5D8C",
"D 	c #2A2C4F",
"E 	c #222342",
"F 	c #212440",
"G 	c #272C44",
"H 	c #293048",
"I 	c #2C354C",
"J 	c #303B55",
"K 	c #323F59",
"L 	c #292F47",
"M 	c #22273C",
"N 	c #252843",
"O 	c #2A2B4B",
"P 	c #323358",
"Q 	c #626495",
"R 	c #9798D4",
"S 	c #B8B9E9",
"T 	c #92A2DA",
"U 	c #2A5FA8",
"V 	c #2F65AF",
"W 	c #295CA5",
"X 	c #5F7AC6",
"Y 	c #8A8CD3",
"Z 	c #7C7EB5",
"` 	c #3E3F68",
" .	c #2B2C4F",
"..	c #383D5B",
"+.	c #3A4C6D",
"@.	c #425E85",
"#.	c #405777",
"$.	c #3C4C61",
"%.	c #3B4657",
"&.	c #38404D",
"*.	c #394553",
"=.	c #3C4A5F",
"-.	c #394B65",
";.	c #364764",
">.	c #2E3A54",
",.	c #2D3249",
"'.	c #323455",
").	c #454671",
"!.	c #7F80B9",
"~.	c #ADAEE2",
"{.	c #A7AEE4",
"].	c #3064AC",
"^.	c #3065B0",
"/.	c #2A5DA5",
"(.	c #5A76C3",
"_.	c #8889CF",
":.	c #7375AC",
"<.	c #36385F",
"[.	c #373959",
"}.	c #465373",
"|.	c #425F87",
"1.	c #3B4B5F",
"2.	c #39424E",
"3.	c #3D5477",
"4.	c #323C55",
"5.	c #343752",
"6.	c #3E4069",
"7.	c #797BB4",
"8.	c #A0A1DB",
"9.	c #A1A8E1",
"0.	c #2A5EA7",
"a.	c #2C60A7",
"b.	c #466EBA",
"c.	c #8485CD",
"d.	c #7173AB",
"e.	c #3B3C65",
"f.	c #404668",
"g.	c #435C83",
"h.	c #415A7D",
"i.	c #383C42",
"j.	c #999797",
"k.	c #969696",
"l.	c #3F526E",
"m.	c #354766",
"n.	c #333954",
"o.	c #41436C",
"p.	c #7879B4",
"q.	c #A1A2DC",
"r.	c #8594D4",
"s.	c #275AA1",
"t.	c #3164AC",
"u.	c #3060A7",
"v.	c #7E81CA",
"w.	c #7B7DB9",
"x.	c #41426E",
"y.	c #43476B",
"z.	c #3F5B84",
"A.	c #3C4B62",
"B.	c #D0D0CE",
"C.	c #E2E2E1",
"D.	c #E7E7E6",
"E.	c #DCDCDC",
"F.	c #C6C6C4",
"G.	c #A2A0A0",
"H.	c #3A4351",
"I.	c #354765",
"J.	c #353C57",
"K.	c #4A4C79",
"L.	c #8283C2",
"M.	c #A2A3DF",
"N.	c #5578BC",
"O.	c #2B5EA5",
"P.	c #27599E",
"Q.	c #5F74BF",
"R.	c #8082C4",
"S.	c #4F5181",
"T.	c #44466C",
"U.	c #43597F",
"V.	c #3B4D64",
"W.	c #D9D7D7",
"X.	c #F1F1F1",
"Y.	c #FCFCFC",
"Z.	c #FEFEFE",
"`.	c #FFFFFF",
" +	c #FBFBFA",
".+	c #E5E5E5",
"++	c #BCBCBC",
"@+	c #3D4752",
"#+	c #344664",
"$+	c #3D415E",
"%+	c #5F6094",
"&+	c #8789C9",
"*+	c #9EA0DF",
"=+	c #295AA0",
"-+	c #2D5FA6",
";+	c #3160A6",
">+	c #7C7DC5",
",+	c #696BA4",
"'+	c #434571",
")+	c #485578",
"!+	c #3D5578",
"~+	c #F6F6F5",
"{+	c #FBFBFB",
"]+	c #E0E0E0",
"^+	c #3E506A",
"/+	c #333F5A",
"(+	c #45466B",
"_+	c #7678B7",
":+	c #9394D4",
"<+	c #5F79BF",
"[+	c #295A9E",
"}+	c #28589B",
"|+	c #586DB6",
"1+	c #7C7EC1",
"2+	c #515385",
"3+	c #494E74",
"4+	c #3D577D",
"5+	c #E9E9E9",
"6+	c #384D6D",
"7+	c #38415C",
"8+	c #606298",
"9+	c #7F81C2",
"0+	c #9496DB",
"a+	c #255598",
"b+	c #235294",
"c+	c #7478C0",
"d+	c #7173B2",
"e+	c #484A79",
"f+	c #3B4D6F",
"g+	c #3F4F66",
"h+	c #F9F9F9",
"i+	c #F6F5F5",
"j+	c #465058",
"k+	c #2F3F5D",
"l+	c #494C73",
"m+	c #797BBC",
"n+	c #9091D6",
"o+	c #3660A3",
"p+	c #2A5B9F",
"q+	c #2A5B9D",
"r+	c #315B9D",
"s+	c #7677BD",
"t+	c #6668A3",
"u+	c #454971",
"v+	c #395377",
"w+	c #384A69",
"x+	c #3D4565",
"y+	c #8385CA",
"z+	c #5872B6",
"A+	c #275597",
"B+	c #275697",
"C+	c #4161A6",
"D+	c #7477BB",
"E+	c #5D5F99",
"F+	c #424B71",
"G+	c #41567A",
"H+	c #3E4C65",
"I+	c #35415C",
"J+	c #7A7CC0",
"K+	c #7780C7",
"L+	c #22508F",
"M+	c #265293",
"N+	c #4A63A9",
"O+	c #7375B9",
"P+	c #595B96",
"Q+	c #424E75",
"R+	c #455777",
"S+	c #475161",
"T+	c #334361",
"U+	c #5E6094",
"V+	c #7577BB",
"W+	c #8083CF",
"X+	c #204D8B",
"Y+	c #244F8D",
"Z+	c #5466AC",
"`+	c #7174B6",
" @	c #595B9B",
".@	c #414F75",
"+@	c #4B5A76",
"@@	c #5D5F91",
"#@	c #7173B6",
"$@	c #8183CF",
"%@	c #214E8C",
"&@	c #224C89",
"*@	c #5967AF",
"=@	c #6F72B5",
"-@	c #585A9D",
";@	c #414E77",
">@	c #4E5C75",
",@	c #344868",
"'@	c #5B5C8C",
")@	c #6E71B4",
"!@	c #7D7FCC",
"~@	c #234E8B",
"{@	c #224C88",
"]@	c #4F61A7",
"^@	c #6D70B4",
"/@	c #5F60AE",
"(@	c #454F7B",
"_@	c #4E5D7E",
":@	c #37496A",
"<@	c #6D6FB3",
"[@	c #797BC8",
"}@	c #204B86",
"|@	c #224C87",
"1@	c #425B9E",
"2@	c #6B6EB2",
"3@	c #6567BC",
"4@	c #495082",
"5@	c #4D5E86",
"6@	c #525D6F",
"7@	c #3A4B6B",
"8@	c #63669E",
"9@	c #6D6EB4",
"0@	c #7175C2",
"a@	c #1E4881",
"b@	c #204B85",
"c@	c #375495",
"d@	c #696BB1",
"e@	c #696BC6",
"f@	c #4D528B",
"g@	c #4F5E91",
"h@	c #46566E",
"i@	c #405171",
"j@	c #6567A3",
"k@	c #6B6EB5",
"l@	c #5F6AB4",
"m@	c #1E4780",
"n@	c #1F4A83",
"o@	c #244984",
"p@	c #6668B1",
"q@	c #686AC3",
"r@	c #5859A1",
"s@	c #505C97",
"t@	c #3E5173",
"u@	c #4F5880",
"v@	c #676AAD",
"w@	c #6C6EB9",
"x@	c #405899",
"y@	c #204881",
"z@	c #1C447A",
"A@	c #5F65AE",
"B@	c #6769B9",
"C@	c #6364C3",
"D@	c #525996",
"E@	c #596591",
"F@	c #394F73",
"G@	c #5D6091",
"H@	c #6568AC",
"I@	c #6B6EBD",
"J@	c #244882",
"K@	c #1D477F",
"L@	c #1D447A",
"M@	c #3F5496",
"N@	c #6366AF",
"O@	c #6869D6",
"P@	c #5C5DA5",
"Q@	c #5A62A9",
"R@	c #3E567A",
"S@	c #4E5B82",
"T@	c #6163A1",
"U@	c #6467AF",
"V@	c #6368B6",
"W@	c #1C4378",
"X@	c #1D447D",
"Y@	c #20437B",
"Z@	c #6064AE",
"`@	c #6567C4",
" #	c #6465CD",
".#	c #6062AC",
"+#	c #5D66AC",
"@#	c #4C607E",
"##	c #43577E",
"$#	c #5F6192",
"%#	c #6165AA",
"&#	c #6568B6",
"*#	c #334F8D",
"=#	c #1D4479",
"-#	c #1C4176",
";#	c #3E5395",
">#	c #5F63AD",
",#	c #6768DD",
"'#	c #6364BE",
")#	c #6567BA",
"!#	c #5E69A3",
"~#	c #3C577E",
"{#	c #5C618C",
"]#	c #5F62A3",
"^#	c #6164AC",
"/#	c #5B62AE",
"(#	c #1B4074",
"_#	c #1C4074",
":#	c #5B5FA9",
"<#	c #6164BB",
"[#	c #6768E5",
"}#	c #6566BE",
"|#	c #6569BC",
"1#	c #626DA9",
"2#	c #3F5A82",
"3#	c #525E8A",
"4#	c #5E609D",
"5#	c #5D61A7",
"6#	c #6163B2",
"7#	c #233D69",
"8#	c #1F3C63",
"9#	c #1C4075",
"0#	c #24437C",
"a#	c #5C5FAB",
"b#	c #6364C7",
"c#	c #6868E3",
"d#	c #6667BD",
"e#	c #666ABD",
"f#	c #606BB3",
"g#	c #4D668A",
"h#	c #3F5A85",
"i#	c #55608D",
"j#	c #5D6099",
"k#	c #5C60A5",
"l#	c #5E61AE",
"m#	c #3A4F91",
"n#	c #1B3F6F",
"o#	c #282928",
"p#	c #3D352E",
"q#	c #1B3E6F",
"r#	c #304984",
"s#	c #5B5DA9",
"t#	c #6163C5",
"u#	c #6667DE",
"v#	c #6767BE",
"w#	c #6569B8",
"x#	c #5E6AB5",
"y#	c #6370A6",
"z#	c #425F89",
"A#	c #485E89",
"B#	c #5E6391",
"C#	c #5C5E9C",
"D#	c #5B5EA4",
"E#	c #5B5FAB",
"F#	c #47559A",
"G#	c #1A3C6D",
"H#	c #6F737D",
"I#	c #958979",
"J#	c #2A2520",
"K#	c #3A352D",
"L#	c #193B6B",
"M#	c #2F4884",
"N#	c #595DA8",
"O#	c #5D60B6",
"P#	c #6466D6",
"Q#	c #6566C4",
"R#	c #6668B4",
"S#	c #5D68AF",
"T#	c #5867AC",
"U#	c #5869A5",
"V#	c #5F6EA0",
"W#	c #5B6F94",
"X#	c #4D668B",
"Y#	c #415E88",
"Z#	c #405C87",
"`#	c #55618F",
" $	c #5F6196",
".$	c #5A5D9F",
"+$	c #595CA4",
"@$	c #595CAA",
"#$	c #435397",
"$$	c #193C6C",
"%$	c #3C4D65",
"&$	c #766A5C",
"*$	c #908475",
"=$	c #27221E",
"-$	c #1A3B6C",
";$	c #234177",
">$	c #555BA6",
",$	c #585CA7",
"'$	c #5E60BB",
")$	c #6264CA",
"!$	c #6364BA",
"~$	c #5E66A6",
"{$	c #5764A2",
"]$	c #53659E",
"^$	c #4C6197",
"/$	c #4B6193",
"($	c #4C608E",
"_$	c #50608D",
":$	c #5A6292",
"<$	c #5D6097",
"[$	c #5A5C9D",
"}$	c #585BA2",
"|$	c #575AA4",
"1$	c #575AA7",
"2$	c #344B88",
"3$	c #193B68",
"4$	c #38506E",
"5$	c #575148",
"6$	c #655B4E",
"7$	c #746859",
"8$	c #918475",
"9$	c #8C8071",
"0$	c #25211C",
"a$	c #1A3D6D",
"b$	c #1A3B6A",
"c$	c #3C4D8D",
"d$	c #565AA7",
"e$	c #5759A5",
"f$	c #595CAD",
"g$	c #5C5FB5",
"h$	c #5C5FB4",
"i$	c #5E60AF",
"j$	c #5E60A9",
"k$	c #5E60A3",
"l$	c #5D5EA0",
"m$	c #5A5D9D",
"n$	c #585C9C",
"o$	c #575AA1",
"p$	c #565AA1",
"q$	c #5659A2",
"r$	c #5559A5",
"s$	c #454E90",
"t$	c #203F72",
"u$	c #193A69",
"v$	c #3E5572",
"w$	c #4F5F6F",
"x$	c #535C65",
"y$	c #554D43",
"z$	c #63594C",
"A$	c #726657",
"B$	c #8D8172",
"C$	c #877C6D",
"D$	c #24201B",
"E$	c #1B4072",
"F$	c #193A67",
"G$	c #1D3C6D",
"H$	c #3B4C8E",
"I$	c #5357A5",
"J$	c #5558A5",
"K$	c #5559A2",
"L$	c #5558A1",
"M$	c #5458A1",
"N$	c #5458A0",
"O$	c #5458A3",
"P$	c #5558A6",
"Q$	c #455095",
"R$	c #254177",
"S$	c #17355E",
"T$	c #1A2B43",
"U$	c #435566",
"V$	c #4E6073",
"W$	c #4C5D6E",
"X$	c #4C5C6A",
"Y$	c #4E5559",
"Z$	c #524A40",
"`$	c #61574B",
" %	c #706556",
".%	c #897D6D",
"+%	c #827668",
"@%	c #231F1A",
"#%	c #193E70",
"$%	c #183967",
"%%	c #173662",
"&%	c #203E71",
"*%	c #324783",
"=%	c #3A4C8B",
"-%	c #444F96",
";%	c #4D549E",
">%	c #475098",
",%	c #3D4D8F",
"'%	c #344786",
")%	c #264177",
"!%	c #193865",
"~%	c #173863",
"{%	c #191513",
"]%	c #1A1714",
"^%	c #394149",
"/%	c #4C5C6D",
"(%	c #495968",
"_%	c #495664",
":%	c #4A4C4E",
"<%	c #50483E",
"[%	c #5F5649",
"}%	c #6E6354",
"|%	c #85796A",
"1%	c #7C7163",
"2%	c #221E19",
"3%	c #193E6D",
"4%	c #183763",
"5%	c #173560",
"6%	c #173661",
"7%	c #1B3C6C",
"8%	c #191613",
"9%	c #2A2B2B",
"0%	c #485664",
"a%	c #475461",
"b%	c #45515C",
"c%	c #454443",
"d%	c #4E473D",
"e%	c #5D5448",
"f%	c #6C6153",
"g%	c #827566",
"h%	c #776B5F",
"i%	c #211D19",
"j%	c #1E1C1A",
"k%	c #3F4850",
"l%	c #444F5A",
"m%	c #424C54",
"n%	c #413F3A",
"o%	c #4C453B",
"p%	c #5B5246",
"q%	c #6A5F51",
"r%	c #7E7262",
"s%	c #71665A",
"t%	c #211D18",
"u%	c #191512",
"v%	c #1A1614",
"w%	c #343739",
"x%	c #414A52",
"y%	c #3E454B",
"z%	c #3D3933",
"A%	c #4A4339",
"B%	c #595045",
"C%	c #685D50",
"D%	c #7B6E60",
"E%	c #6B6255",
"F%	c #201C18",
"G%	c #282725",
"H%	c #3D4348",
"I%	c #3B3F41",
"J%	c #3A352F",
"K%	c #484138",
"L%	c #574E43",
"M%	c #665C4E",
"N%	c #786C5D",
"O%	c #665D50",
"P%	c #1E1C17",
"Q%	c #181412",
"R%	c #1E1C19",
"S%	c #37393A",
"T%	c #373939",
"U%	c #37322B",
"V%	c #463F36",
"W%	c #554C42",
"X%	c #645A4D",
"Y%	c #75695B",
"Z%	c #5A5147",
"`%	c #1F1B17",
" &	c #13120F",
".&	c #191713",
"+&	c #2E2D2C",
"@&	c #343330",
"#&	c #35302A",
"$&	c #443E35",
"%&	c #534B40",
"&&	c #62584B",
"*&	c #1C1916",
"=&	c #0C0A09",
"-&	c #191612",
";&	c #26231F",
">&	c #312E29",
",&	c #332E28",
"'&	c #423C33",
")&	c #51493E",
"!&	c #534A40",
"~&	c #191714",
"{&	c #000000",
"]&	c #060505",
"^&	c #161411",
"/&	c #1E1B17",
"(&	c #2E2B24",
"_&	c #312D27",
":&	c #3A342D",
"<&	c #100E0D",
"[&	c #020202",
"}&	c #12100E",
"|&	c #181513",
"1&	c #13100E",
"                                                                                                ",
"                                                                                                ",
"                            . + @ # $ % # & * =                                                 ",
"                      - ; > , ' ) ! ~ { ] ^ / ( _ :                                             ",
"                  < _ [ } | 1 2 3 4 5 6 7 8 9 0 a b & c                                         ",
"                d e f g h i j k l m n o p q r s t u v w x                                       ",
"              y z A B C D E F G H I J K L M N O P Q R S T U V                                   ",
"            W X Y Z `  ...+.@.#.$.%.&.*.=.-.;.>.,.'.).!.~.{.].^.                                ",
"          /.(._.:.<.[.}.|.1.                  2.3.4.5.6.7.8.9.0.                                ",
"        a.b.c.d.e.f.g.h.i.            j.k.        l.m.n.o.p.q.r.s.                              ",
"      t.u.v.w.x.y.z.A.              B.C.D.E.F.G.    H.I.J.K.L.M.N.O.                            ",
"      P.Q.R.S.T.U.V.              W.X.Y.Z.`. +.+++    @+#+$+%+&+*+=+                            ",
"    -+;+>+,+'+)+!+                  ~+Z.`.`.`.{+]+      ^+/+(+_+:+<+[+                          ",
"    }+|+1+2+3+4+                      Y.Z.`.`.Y.5+        6+7+8+9+0+a+                          ",
"    b+c+d+e+f+g+                          Y.h+i+          j+k+l+m+n+o+p+                        ",
"  q+r+s+t+u+v+                                              w+x+d+y+z+A+                        ",
"  B+C+D+E+F+G+                                              H+I+t+J+K+L+                        ",
"  M+N+O+P+Q+R+                                              S+T+U+V+W+X+                        ",
"  Y+Z+`+ @.@+@                                                I.@@#@$@%@                        ",
"  &@*@=@-@;@>@                                                ,@'@)@!@~@                        ",
"  {@]@^@/@(@_@                                                :@U+<@[@}@                        ",
"  |@1@2@3@4@5@                                              6@7@8@9@0@a@                        ",
"  b@c@d@e@f@g@                                              h@i@j@k@l@m@                        ",
"  n@o@p@q@r@s@                                              t@u@v@w@x@y@                        ",
"    z@A@B@C@D@E@                                            F@G@H@I@J@K@                        ",
"    L@M@N@O@P@Q@                                          R@S@T@U@V@W@                          ",
"    X@Y@Z@`@ #.#+#                                      @###$#%#&#*#=#                          ",
"      -#;#>#,#'#)#!#                                    ~#{#]#^#/#(#                            ",
"        _#:#<#[#}#|#1#                                2#3#4#5#6#7#8#                            ",
"        9#0#a#b#c#d#e#f#                          g#h#i#j#k#l#m#n#o#p#                          ",
"          q#r#s#t#u#v#w#x#y#                    z#A#B#C#D#E#F#G#H#I#J#K#                        ",
"            L#M#N#O#P#Q#R#S#T#U#V#      W#X#Y#Z#`# $.$+$@$#$$$%$&$I#*$=$                        ",
"              -$;$>$,$'$)$!$N@~${$]$^$/$($_$:$<$[$}$|$1$2$3$4$5$6$7$8$9$0$                      ",
"                a$b$c$d$e$f$g$h$i$j$k$l$m$n$o$p$q$r$s$t$u$v$w$x$y$z$A$B$C$D$                    ",
"                  E$F$G$H$I$J$K$L$M$N$M$L$K$O$P$Q$R$S$T$U$V$W$X$Y$Z$`$ %.%+%@%                  ",
"                      #%$%%%&%*%=%-%;%>%,%'%)%!%~%G#  {%]%^%/%(%_%:%<%[%}%|%1%2%                ",
"                            3%u$$%4%5%6%!%u$7%            8%9%0%a%b%c%d%e%f%g%h%i%              ",
"                                                            8%j%k%l%m%n%o%p%q%r%s%t%            ",
"                                                              u%v%w%x%y%z%A%B%C%D%E%F%          ",
"                                                                  8%G%H%I%J%K%L%M%N%O%P%        ",
"                                                                    Q%R%S%T%U%V%W%X%Y%Z%`%      ",
"                                                                       &.&+&@&#&$&%&&&A$*&      ",
"                                                                        =&-&;&>&,&'&)&!&~&      ",
"                                                                        {&]&^&/&(&_&:&/&<&      ",
"                                                                            [&}&|&v%u%1&        ",
"                                                                                                ",
"                                                                                                ",
"                                                                                                "};
