/* XPM */
static char * fontforge_xpm[] = {
"48 48 138 2",
"  	c None",
". 	c #0033CC",
"+ 	c #0034CB",
"@ 	c #340099",
"# 	c #330098",
"$ 	c #320099",
"% 	c #454545",
"& 	c #2F3F71",
"* 	c #1539A4",
"= 	c #1639A2",
"- 	c #42444B",
"; 	c #433D4F",
"> 	c #391580",
", 	c #413658",
"' 	c #494949",
") 	c #2B4080",
"! 	c #163AA5",
"~ 	c #3E465D",
"{ 	c #453A5A",
"] 	c #3A1681",
"^ 	c #423065",
"/ 	c #4E4E4E",
"( 	c #485454",
"_ 	c #415959",
": 	c #4B5151",
"< 	c #0234C8",
"[ 	c #173BA6",
"} 	c #484C58",
"| 	c #4A425A",
"1 	c #340296",
"2 	c #350594",
"3 	c #4F4A52",
"4 	c #4D4D4D",
"5 	c #515151",
"6 	c #4C5858",
"7 	c #287676",
"8 	c #188383",
"9 	c #118A8A",
"0 	c #029898",
"a 	c #29428F",
"b 	c #525252",
"c 	c #33009A",
"d 	c #62138A",
"e 	c #601883",
"f 	c #5F1C80",
"g 	c #59366B",
"h 	c #535155",
"i 	c #555959",
"j 	c #257B7B",
"k 	c #1A8585",
"l 	c #188686",
"m 	c #029797",
"n 	c #009898",
"o 	c #0032CD",
"p 	c #0034CD",
"q 	c #50535D",
"r 	c #565656",
"s 	c #670098",
"t 	c #660197",
"u 	c #621886",
"v 	c #621A85",
"w 	c #5E277B",
"x 	c #3A7070",
"y 	c #1B8686",
"z 	c #0D9090",
"A 	c #009999",
"B 	c #5B5B5B",
"C 	c #650D90",
"D 	c #631B86",
"E 	c #63138C",
"F 	c #2F7D7D",
"G 	c #1C8787",
"H 	c #1A8989",
"I 	c #5F5F5F",
"J 	c #660098",
"K 	c #641B88",
"L 	c #641C87",
"M 	c #65158C",
"N 	c #3A7A7A",
"O 	c #1E8989",
"P 	c #168D8D",
"Q 	c #646464",
"R 	c #66168D",
"S 	c #661E89",
"T 	c #5B6E6E",
"U 	c #228989",
"V 	c #0F9292",
"W 	c #009A9A",
"X 	c #686868",
"Y 	c #67009A",
"Z 	c #670F92",
"` 	c #671F8A",
" .	c #671D8C",
"..	c #6D6D6D",
"+.	c #527777",
"@.	c #079696",
"#.	c #65009A",
"$.	c #670696",
"%.	c #68228B",
"&.	c #6B4D7A",
"*.	c #727272",
"=.	c #717171",
"-.	c #706178",
";.	c #707070",
">.	c #767676",
",.	c #00CC00",
"'.	c #7A7A7A",
").	c #CC0099",
"!.	c #7E7E7E",
"~.	c #838383",
"{.	c #878787",
"].	c #00CD00",
"^.	c #828282",
"/.	c #7D7D7D",
"(.	c #777777",
"_.	c #6C6C6C",
":.	c #676767",
"<.	c #99FF00",
"[.	c #98FF00",
"}.	c #616161",
"|.	c #FF0000",
"1.	c #5C5C5C",
"2.	c #9AFF00",
"3.	c #4B4B4B",
"4.	c #3F3F3F",
"5.	c #404040",
"6.	c #3A3A3A",
"7.	c #353535",
"8.	c #2F2F2F",
"9.	c #2A2A2A",
"0.	c #242424",
"a.	c #1F1F1F",
"b.	c #1A1A1A",
"c.	c #191919",
"d.	c #141414",
"e.	c #0E0E0E",
"f.	c #090909",
"g.	c #030303",
"                                                                                                ",
"                                                                                                ",
"                                  . . . +               @ # # @                                 ",
"                                . . . . . .           # # # # # $                               ",
"              % % % % % % % % & * * * * * * = - % ; > > > > > > > , % % % % % % % %             ",
"              ' ' ' ' ' ' ' ' ) ! ! ! ! ! ! ! ~ ' { ] ] ] ] ] ] ] ^ ' ' ' ' ' ' ' '             ",
"              / / ( _ : /       < + . . . . [ } / | # # # # # 1 2     / / / 3 / / 4             ",
"            5 6 7 8 9 0         + . . . . . a b b b $ # # # # # c         d e f g h             ",
"            i j k l m n n         o . . . p q r r r   c # # # c         s t u v v w             ",
"            x y y z n n n A                 B B B B                   s s s C D D E             ",
"            F G H n n n n n                 I I I I                   s s s J K L M             ",
"            N O P n n n n n                 Q Q Q Q                   s s s s R S R             ",
"            T U V n n n n W                 X X X X                   Y s s s Z `  .            ",
"            ..+.@.n n n A                   ........                    #.s s $.%.&.            ",
"            *.=.                            =.=.=.=.                        Y   -.;.            ",
"                                            >.>.>.>.                                            ",
"      ,.,.,.,.                              '.'.'.'.                                ).).).      ",
"    ,.,.,.,.,.,.                            !.!.!.!.                              ).).).).).).  ",
"    ,.,.,.,.,.,.,.                          ~.~.~.~.                            ).).).).).).).  ",
"    ,.,.,.,.,.,.,.                          {.{.{.{.                            ).).).).).).).  ",
"    ,.,.,.,.,.,.].                          ^.^.^.^.                            ).).).).).).).  ",
"    ].,.,.,.,.,.                            /./././.                            ).).).).).).).  ",
"      ].,.,.,.].                            (.(.(.(.                              ).).).).).    ",
"                                            *.*.*.*.                                            ",
"                                            _._._._.                                            ",
"                                            :.:.:.:.                                            ",
"        <.[.[.                              }.}.}.}.                                |.|.|.      ",
"    <.[.[.[.[.<.                            1.1.1.1.                              |.|.|.|.|.    ",
"    [.[.[.[.[.[.<.                          r r r r                             |.|.|.|.|.|.|.  ",
"  <.[.[.[.[.[.[.<.                          5 5 5 5                             |.|.|.|.|.|.|.  ",
"  2.[.[.[.[.[.[.<.                          3.3.3.3.                            |.|.|.|.|.|.|.  ",
"    [.[.[.[.[.[.                            % % % %                             |.|.|.|.|.|.|.  ",
"      [.[.[.[.2.                            4.5.5.5.                              |.|.|.|.|.    ",
"        <.<.                                6.6.6.6.                                |.|.|.      ",
"                                            7.7.7.7.                                            ",
"                                            8.8.8.8.                                            ",
"                                            9.9.9.9.                                            ",
"                                            0.0.0.0.                                            ",
"                                            a.a.a.a.                                            ",
"                                          b.c.c.c.c.c.                                          ",
"                                          d.d.d.d.d.d.                                          ",
"                                        e.e.e.e.e.e.e.e.                                        ",
"                                  f.f.f.f.f.f.f.f.f.f.f.f.f.f.                                  ",
"                              g.g.g.g.g.g.g.g.g.g.g.g.g.g.g.g.g.g.                              ",
"                                                                                                ",
"                                                                                                ",
"                                                                                                ",
"                                                                                                "};
