/* XPM */
static char * game_mahjongg_xpm[] = {
"48 48 430 2",
"  	c None",
". 	c #C6A203",
"+ 	c #C7A404",
"@ 	c #C6A303",
"# 	c #C7A305",
"$ 	c #E0CC68",
"% 	c #EFEBD2",
"& 	c #EFEDDC",
"* 	c #EFECDA",
"= 	c #EFECD8",
"- 	c #EFECD6",
"; 	c #EFECD3",
"> 	c #EFECD1",
", 	c #EFECCF",
"' 	c #EFEBCD",
") 	c #EFEBCB",
"! 	c #EFEABF",
"~ 	c #E0CC5D",
"{ 	c #C6A404",
"] 	c #C7A406",
"^ 	c #C5A101",
"/ 	c #F9EA6D",
"( 	c #FCE953",
"_ 	c #FAEA6B",
": 	c #F1EBBC",
"< 	c #C4A000",
"[ 	c #EFEDDB",
"} 	c #FCE94F",
"| 	c #FBE84E",
"1 	c #FBE84C",
"2 	c #FBE84F",
"3 	c #F2ECC0",
"4 	c #F0EDD8",
"5 	c #FBE84B",
"6 	c #FBE74A",
"7 	c #FAE749",
"8 	c #FAE74B",
"9 	c #F2ECBB",
"0 	c #F0EDD3",
"a 	c #FBE84D",
"b 	c #FAE747",
"c 	c #FAE646",
"d 	c #FAE645",
"e 	c #F9E648",
"f 	c #F2EBB5",
"g 	c #F0EDCF",
"h 	c #FAE748",
"i 	c #F9E644",
"j 	c #F9E542",
"k 	c #F9E541",
"l 	c #F9E543",
"m 	c #F1EBB0",
"n 	c #F1EDCA",
"o 	c #F9E540",
"p 	c #F8E43F",
"q 	c #F8E43D",
"r 	c #F2EAA9",
"s 	c #F1ECC4",
"t 	c #F7DD3F",
"u 	c #EDAC30",
"v 	c #E78A26",
"w 	c #EFB02F",
"x 	c #F7DF3B",
"y 	c #F8E33B",
"z 	c #F8E339",
"A 	c #F7E33C",
"B 	c #F2E9A4",
"C 	c #F8E43C",
"D 	c #F1ECC0",
"E 	c #F9E43F",
"F 	c #ECA52C",
"G 	c #E99527",
"H 	c #F2C232",
"I 	c #E89025",
"J 	c #EDAC2A",
"K 	c #F7E237",
"L 	c #F7E236",
"M 	c #F7E238",
"N 	c #F1E89E",
"O 	c #F8E33A",
"P 	c #F7E338",
"Q 	c #F1EBBA",
"R 	c #F8E43E",
"S 	c #E57F21",
"T 	c #F4D033",
"U 	c #F3C830",
"V 	c #E6861F",
"W 	c #F6E133",
"X 	c #F6E132",
"Y 	c #F6E135",
"Z 	c #F2E897",
"` 	c #F7E234",
" .	c #F1EBB4",
"..	c #EAA026",
"+.	c #EA9C25",
"@.	c #F2CB2E",
"#.	c #E89621",
"$.	c #EBA624",
"%.	c #F6E02F",
"&.	c #F5E02E",
"*.	c #F5E030",
"=.	c #F1E790",
"-.	c #F5D934",
";.	c #EA9E25",
">.	c #E2771B",
",.	c #F4D12E",
"'.	c #F1EAAE",
").	c #F7E235",
"!.	c #F3D52F",
"~.	c #E99B22",
"{.	c #E37A1A",
"].	c #EA9F21",
"^.	c #F3D72B",
"/.	c #F5DF2C",
"(.	c #F5DF2A",
"_.	c #F4DF2C",
":.	c #F1E689",
"<.	c #EBA825",
"[.	c #E89420",
"}.	c #F3CE2C",
"|.	c #EAA121",
"1.	c #E7951E",
"2.	c #C7A203",
"3.	c #F1E9A8",
"4.	c #F6E131",
"5.	c #F6E030",
"6.	c #F5E02D",
"7.	c #F4DF29",
"8.	c #F4DE28",
"9.	c #F4DE27",
"0.	c #F1E583",
"a.	c #E5881C",
"b.	c #EFBD26",
"c.	c #F2CE27",
"d.	c #E17616",
"e.	c #C8A504",
"f.	c #E0CE6B",
"g.	c #EFEBD3",
"h.	c #EFECD5",
"i.	c #F1E8A2",
"j.	c #F3D629",
"k.	c #EAA61F",
"l.	c #E48718",
"m.	c #EBAC1E",
"n.	c #F4DB24",
"o.	c #F3DD24",
"p.	c #F3DD23",
"q.	c #F1E47B",
"r.	c #ECAD21",
"s.	c #E58919",
"t.	c #EEBB22",
"u.	c #E7921A",
"v.	c #E89B1A",
"w.	c #EEEACA",
"x.	c #EFEDD5",
"y.	c #F1E89B",
"z.	c #F5DF2B",
"A.	c #E89B1B",
"B.	c #E79218",
"C.	c #EDBA1E",
"D.	c #E58816",
"E.	c #EBAC1A",
"F.	c #F3DC20",
"G.	c #F2DC1F",
"H.	c #F2DC21",
"I.	c #F0E373",
"J.	c #F4DB26",
"K.	c #EBAC1D",
"L.	c #E48616",
"M.	c #E9A51A",
"N.	c #F1D421",
"O.	c #C6A201",
"P.	c #FAE750",
"Q.	c #F1E794",
"R.	c #F4DE26",
"S.	c #E17513",
"T.	c #F0CC1F",
"U.	c #ECB91A",
"V.	c #E38612",
"W.	c #F2DB1C",
"X.	c #F2DB1B",
"Y.	c #F0E26C",
"Z.	c #F3DD22",
"`.	c #F2DC1E",
" +	c #FAE74D",
".+	c #F0E68D",
"++	c #E69315",
"@+	c #E89E16",
"#+	c #EFCA1B",
"$+	c #E59012",
"%+	c #E8A313",
"&+	c #F1DA19",
"*+	c #F1DA17",
"=+	c #F0E164",
"-+	c #F3DC1F",
";+	c #F2DB1D",
">+	c #F2DB1A",
",+	c #F9E64A",
"'+	c #F1E586",
")+	c #F0CC19",
"!+	c #E59211",
"~+	c #E0730D",
"{+	c #E69810",
"]+	c #F0D115",
"^+	c #F1D915",
"/+	c #F0D914",
"(+	c #F0D915",
"_+	c #EFE05D",
":+	c #F1DA16",
"<+	c #F8E547",
"[+	c #F0E47E",
"}+	c #F1DA18",
"|+	c #F0D912",
"1+	c #F0D811",
"2+	c #F0D810",
"3+	c #EFD711",
"4+	c #EFDE54",
"5+	c #F8E443",
"6+	c #F0E377",
"7+	c #F0D913",
"8+	c #EFD80F",
"9+	c #EFD70D",
"0+	c #EFD70C",
"a+	c #EFD60D",
"b+	c #EEDD4B",
"c+	c #F7E33F",
"d+	c #F0E26F",
"e+	c #EFD70B",
"f+	c #EED60A",
"g+	c #EED608",
"h+	c #EED509",
"i+	c #EEDC43",
"j+	c #F6E23B",
"k+	c #F9E140",
"l+	c #EFB232",
"m+	c #E78B26",
"n+	c #EDAA2D",
"o+	c #F6DB3A",
"p+	c #EFE167",
"q+	c #EED507",
"r+	c #EED506",
"s+	c #EDD504",
"t+	c #EDD405",
"u+	c #EDDA3A",
"v+	c #F6E138",
"w+	c #EFB130",
"x+	c #E88C25",
"y+	c #F1BF32",
"z+	c #E99626",
"A+	c #EA9E27",
"B+	c #EFDF5F",
"C+	c #EED607",
"D+	c #EDD505",
"E+	c #EDD403",
"F+	c #EDD402",
"G+	c #EDD401",
"H+	c #EDDA32",
"I+	c #F5E034",
"J+	c #E78A23",
"K+	c #F0BF2F",
"L+	c #F4D032",
"M+	c #E3781C",
"N+	c #EEDE56",
"O+	c #EDD503",
"P+	c #EDD400",
"Q+	c #EDD92C",
"R+	c #C5A100",
"S+	c #E79620",
"T+	c #ECA828",
"U+	c #E99523",
"V+	c #F3CF2F",
"W+	c #EBA124",
"X+	c #EDDA49",
"Y+	c #EDD612",
"Z+	c #EDD508",
"`+	c #ECD723",
" @	c #C5A000",
".@	c #E9A120",
"+@	c #F4D830",
"@@	c #EA9D22",
"#@	c #E27719",
"$@	c #E7951F",
"%@	c #F3D02A",
"&@	c #D4B40C",
"*@	c #D9BD1D",
"=@	c #ECD83D",
"-@	c #EDDB3E",
";@	c #EDDB3B",
">@	c #EDDA38",
",@	c #EDDA35",
"'@	c #EDD92F",
")@	c #EDD92A",
"!@	c #EDD827",
"~@	c #ECD721",
"{@	c #DABD0D",
"]@	c #C4A202",
"^@	c #CFAF09",
"/@	c #EDD422",
"(@	c #CEAE0A",
"_@	c #C29104",
":@	c #B28810",
"<@	c #C19105",
"[@	c #C99706",
"}@	c #DDAE1A",
"|@	c #E89C1D",
"1@	c #E17615",
"2@	c #E7941A",
"3@	c #F2CE22",
"4@	c #E8CC21",
"5@	c #D38714",
"6@	c #C85F0E",
"7@	c #C07110",
"8@	c #C4A519",
"9@	c #C2B75D",
"0@	c #9E8100",
"a@	c #C3BB7D",
"b@	c #C6AD22",
"c@	c #C87E17",
"d@	c #C85F11",
"e@	c #C87515",
"f@	c #C88115",
"g@	c #C76D12",
"h@	c #C68014",
"i@	c #C68013",
"j@	c #C76C10",
"k@	c #C58A13",
"l@	c #C4AF1B",
"m@	c #BD7D17",
"n@	c #C26713",
"o@	c #CA8B18",
"p@	c #DA991A",
"q@	c #E28516",
"r@	c #E89F19",
"s@	c #E89E19",
"t@	c #E48613",
"u@	c #EAAB18",
"v@	c #F2D920",
"w@	c #EAA51D",
"x@	c #F0CC21",
"y@	c #E69317",
"z@	c #E8A417",
"A@	c #E49014",
"B@	c #E6C219",
"C@	c #DA9112",
"D@	c #DD8A11",
"E@	c #E3D666",
"F@	c #B99700",
"G@	c #E4DA8C",
"H@	c #E09C1C",
"I@	c #DE8A18",
"J@	c #E4C11F",
"K@	c #DF9618",
"L@	c #DD8B15",
"M@	c #E6D01E",
"N@	c #DE9114",
"O@	c #DD8912",
"P@	c #E1AF16",
"Q@	c #DC7F10",
"R@	c #E0A114",
"S@	c #DF931A",
"T@	c #D98617",
"U@	c #E2B01D",
"V@	c #E28615",
"W@	c #E79A16",
"X@	c #E59114",
"Y@	c #ECB918",
"Z@	c #E48711",
"`@	c #EAAA16",
" #	c #E48615",
".#	c #EDBA1D",
"+#	c #F0CB1D",
"@#	c #E07410",
"##	c #E38510",
"$#	c #ECB916",
"%#	c #EEC915",
"&#	c #F0E163",
"*#	c #E0740E",
"=#	c #EFCA18",
"-#	c #EBB813",
";#	c #E2850F",
">#	c #EDB91A",
",#	c #EBAB18",
"'#	c #E48712",
")#	c #E79912",
"!#	c #E9A912",
"~#	c #E3860E",
"{#	c #EBB712",
"]#	c #E48F0D",
"^#	c #E6970F",
"/#	c #E5910F",
"(#	c #E79C10",
"_#	c #EEC813",
":#	c #E7A210",
"<#	c #F2D81B",
"[#	c #EAAA14",
"}#	c #E8A212",
"|#	c #F0D614",
"1#	c #E8A80E",
"2#	c #E2830A",
"3#	c #E7A10C",
"4#	c #EECF10",
"5#	c #EECA13",
"6#	c #E4910C",
"7#	c #DF7209",
"8#	c #E6970B",
"9#	c #E69811",
"0#	c #C4A100",
"a#	c #F0E26E",
"b#	c #EED609",
"c#	c #EFDF5E",
"d#	c #EDDB4A",
"e#	c #EDD509",
"f#	c #ECD623",
"g#	c #C6A300",
"h#	c #DABE1C",
"i#	c #ECD93D",
"j#	c #EBD621",
"k#	c #D8BB0D",
"l#	c #C19F00",
"m#	c #D9BE1D",
"n#	c #DABE0D",
"o#	c #C29F00",
"p#	c #C5A300",
"q#	c #C3A000",
"r#	c #B19200",
"s#	c #6E5900",
"t#	c #B19100",
"u#	c #B39300",
"v#	c #725B00",
"w#	c #C09E00",
"                                                                                                ",
"                                                                                                ",
"                                                                                                ",
"                    . + + + + + + + + + + + @   . + + + + + + + + + + + @                       ",
"                  # $ % & * = - ; > , ' ) ! ~ { $ % & * = - ; > , ' ) ! ~ ]                     ",
"                  ^ ; / ( ( ( ( ( ( ( ( ( _ : ^ ; / ( ( ( ( ( ( ( ( ( _ : ^                     ",
"                  < [ } } } } } } } } | 1 2 3 < [ } } } } } } } } | 1 2 3 ^                     ",
"                  < 4 } } } } } | 1 5 6 7 8 9 < 4 } } } } } | 1 5 6 7 8 9 ^                     ",
"                  < 0 } } | a 5 6 7 b c d e f < 0 } } | a 5 6 7 b c d e f ^                     ",
"                  < g a 5 6 7 h c d i j k l m < g a 5 6 7 h c d i j k l m ^                     ",
"                  < n 7 h c d i j k o p q p r < n 7 h c d i j k o p q p r ^                     ",
"                  < s d i l t u v w x y z A B < s d i l k o p q C y z A B ^                     ",
"                  < D k o E F G H I J K L M N < D k o E q C y O P K L M N ^                     ",
"                  < Q R C y S T K U V W X Y Z < Q R C y O P K L ` W X Y Z ^                     ",
"                  <  .O P K ..+.@.#.$.%.&.*.=.<  .O P K -.;.>.#.,.%.&.*.=.^                     ",
"                  < '.L ).W !.~.{.].^./.(._.:.< '.L ).W <.[.}.|.1./.(._.:.^                     ",
"      2.+ + + + + < 3.X 4.5.&.6./.(.7.8.9.8.0.< 3.X 4.5.a.b./.c.d.8.9.8.0.^ { + + + + @         ",
"    e.f.g.& * = h.< i.&.6./.j.k.l.m.n.o.p.o.q.< i.&.6./.r.s.t.u.v.o.p.o.q.. w., ' ) ! ~ ]       ",
"    ^ x./ ( ( ( ( < y.z.7.8.A.B.C.D.E.F.G.H.I.< y.z.7.8.J.K.L.M.N.F.G.H.I.O.P.( ( ( _ : ^       ",
"    ^ [ } } } } } < Q.9.R.o.S.T.F.U.V.W.X.W.Y.< Q.9.R.o.p.Z.F.G.`.W.X.W.Y.O. +} | 1 2 3 ^       ",
"    ^ 4 } } } } } < .+p.Z.F.++@+#+$+%+&+*+&+=+< .+p.Z.F.-+`.;+X.>+&+*+&+=+O.,+5 6 7 8 9 ^       ",
"    ^ 0 } } | a 5 < '+-+`.;+)+!+~+{+]+^+/+(+_+< '+-+`.;+X.>+&+*+:+^+/+(+_+O.<+b c d e f ^       ",
"    ^ g a 5 6 7 b < [+X.>+&+}+:+^+/+|+1+2+3+4+< [+X.>+&+}+:+^+/+|+1+2+3+4+O.5+i j k l m ^       ",
"    ^ n 7 h c d i < 6+}+:+^+/+7+1+2+8+9+0+a+b+< 6+}+:+^+/+7+1+2+8+9+0+a+b+O.c+o p q p r ^       ",
"    ^ s d i j k o < d+/+7+1+2+8+9+0+e+f+g+h+i+< d+/+7+1+2+8+9+0+e+f+g+h+i+O.j+C y z A B ^       ",
"    ^ D k+l+m+n+o+< p+2+8+9+0+e+f+g+q+r+s+t+u+< p+2+8+9+0+e+f+g+q+r+s+t+u+O.v+P K L M N ^       ",
"    ^ Q w+x+y+z+A+< B+0+e+f+g+C+r+D+E+F+G+F+H+< B+0+e+f+g+C+r+D+E+F+G+F+H+O.I+` W X Y Z ^       ",
"    ^  .J+K+K L+M+< N+g+C+r+D+O+F+G+P+P+P+F+Q+< N+g+C+r+D+O+F+G+P+P+P+F+Q+R+S+,.%.&.*.=.^       ",
"    ^ '.T+U+V+W+#.R+X+Y+O+F+G+P+P+P+P+P+P+Z+`+ @X+Y+O+F+G+P+P+P+P+P+P+Z+`+O..@1./.(._.:.^       ",
"    ^ 3.+@@@#@$@%@&@*@=@-@;@>@,@H+'@Q+)@!@~@{@]@*@=@-@;@>@,@H+'@Q+)@!@~@{@^@c.d.8.9.8.0.^       ",
"    ^ i.&.6./.(.7./@(@ @< < < < < < < < < < _@:@<@< < < < < < < < < < < [@}@u.v.o.p.o.q.R+      ",
"    ^ y.j.|@1@2@3@o.4@5@6@7@8@9@0@a@b@c@d@e@f@g@h@i@j@k@l@9@0@a@b@m@n@o@p@q@r@s@t@u@v@I.R+      ",
"    ^ Q.w@B.x@r@y@F.z@A@B@C@D@E@F@G@H@I@J@K@L@M@N@O@P@Q@R@E@F@G@S@T@U@V@E.F.W@X@Y@Z@`@Y.R+      ",
"    ^ .+ #.#F.+#@#;+##$#&+%#~+&#< .+ #.#F.+#@#;+*#=#&+-#;#=+< .+S.T.F.>#V.;+*#=#&+-#;#=+R+      ",
"    R+'+,#'#Y@$+)#&+!#~#{#]#^#_+< '+,#'#Y@$+)#&+/#(#_#]#:#_+< '+++@+#+$+%+&+/#(#_#]#:#_+R+      ",
"    R+[+<#[#;#}#]+^+|#1#2#3#4#4+< [+<#[#;#}#]+^+5#6#7#8#4#4+< [+)+!+~+9#]+^+5#6#7#8#4#4+0#      ",
"    R+6+}+:+^+/+|+1+2+8+9+0+a+b+< 6+}+:+^+/+7+1+2+8+9+0+a+b+< 6+}+:+^+/+7+1+2+8+9+0+a+b+0#      ",
"    R+a#/+7+1+2+8+9+0+e+b#g+h+i+< d+/+7+1+2+8+9+0+e+f+g+h+i+< d+/+7+1+2+8+9+0+e+f+g+h+i+0#      ",
"    R+p+2+8+9+0+e+f+g+q+r+s+t+u+< p+2+8+9+0+e+f+g+q+r+s+t+u+< p+2+8+9+0+e+f+g+q+r+s+t+u+0#      ",
"    0#c#0+e+f+g+C+r+s+E+F+G+F+H+< B+0+e+f+g+C+r+D+E+F+G+F+H+< B+0+e+f+g+C+r+D+E+F+G+F+H+0#      ",
"    0#N+g+C+r+D+O+F+G+P+P+P+F+Q+< N+g+C+r+D+O+F+G+P+P+P+F+Q+< N+g+C+r+D+O+F+G+P+P+P+F+Q+0#      ",
"    0#d#Y+O+F+G+P+P+P+P+P+P+e#f# @X+Y+O+F+G+P+P+P+P+P+P+Z+`+ @X+Y+O+F+G+P+P+P+P+P+P+Z+`+0#      ",
"    g#h#i#-@u+>@,@H+'@Q+)@!@j#k#l#m#=@-@;@>@,@H+'@Q+)@!@~@n#o#m#=@-@;@>@,@H+'@Q+)@!@~@n#p#      ",
"      q#0#< < < < < < < < < 0#r#s#t#< < < < < < < < < < 0#u#v#t#< < < < < < < < < < 0#w#        ",
"                                                                                                ",
"                                                                                                ",
"                                                                                                ",
"                                                                                                "};
