/* XPM */
static char * game_mines_xpm[] = {
"48 48 553 2",
"  	c None",
". 	c #303638",
"+ 	c #2E3436",
"@ 	c #2F3537",
"# 	c #313739",
"$ 	c #ACAFAA",
"% 	c #C8CAC6",
"& 	c #C7C8C4",
"* 	c #C5C7C3",
"= 	c #ABAEAA",
"- 	c #CCCEC9",
"; 	c #A9ADA6",
"> 	c #A5A8A2",
", 	c #A3A7A0",
"' 	c #C6C7C3",
") 	c #33393B",
"! 	c #CFD0CC",
"~ 	c #AAADA7",
"{ 	c #A7AAA3",
"] 	c #A4A7A1",
"^ 	c #C8C9C5",
"/ 	c #D2D4D0",
"( 	c #ADB0A9",
"_ 	c #A9ACA6",
": 	c #A6A9A3",
"< 	c #CBCCC8",
"[ 	c #343A3C",
"} 	c #363C3D",
"| 	c #323839",
"1 	c #AFB2AC",
"2 	c #ABAEA8",
"3 	c #A8ABA5",
"4 	c #303637",
"5 	c #353B3C",
"6 	c #8B8F8C",
"7 	c #BEC0BD",
"8 	c #575C5C",
"9 	c #32383A",
"0 	c #363C3E",
"a 	c #3A4042",
"b 	c #7C807E",
"c 	c #B1B3B0",
"d 	c #D9DAD6",
"e 	c #B6B9B4",
"f 	c #ADB0AA",
"g 	c #D2D4CF",
"h 	c #BBBDB9",
"i 	c #959995",
"j 	c #656A69",
"k 	c #363B3C",
"l 	c #494E4E",
"m 	c #8F928D",
"n 	c #656969",
"o 	c #323739",
"p 	c #909391",
"q 	c #D8D9D5",
"r 	c #CDCFC9",
"s 	c #D5D6D3",
"t 	c #575C5D",
"u 	c #838786",
"v 	c #C9CBC7",
"w 	c #DDDEDB",
"x 	c #D5D6D2",
"y 	c #C9CBC6",
"z 	c #BCBEB8",
"A 	c #B2B5AE",
"B 	c #AFB2AB",
"C 	c #ABAFA8",
"D 	c #B3B5AF",
"E 	c #BABCB7",
"F 	c #C2C3BF",
"G 	c #ACAFAB",
"H 	c #606464",
"I 	c #4A4F4F",
"J 	c #A2A49F",
"K 	c #8C8E89",
"L 	c #989A97",
"M 	c #676A69",
"N 	c #363B3D",
"O 	c #888C8A",
"P 	c #D7D8D4",
"Q 	c #C4C6C0",
"R 	c #C2C5BE",
"S 	c #CBCFC8",
"T 	c #D8D9D6",
"U 	c #343A3B",
"V 	c #5F6565",
"W 	c #CED0CD",
"X 	c #DEE0DB",
"Y 	c #CCCFC9",
"Z 	c #C1C4BC",
"` 	c #BDC0B9",
" .	c #B9BDB6",
"..	c #B6BAB3",
"+.	c #B3B7B0",
"@.	c #B0B3AC",
"#.	c #ACB0A9",
"$.	c #A2A69F",
"%.	c #9FA29C",
"&.	c #9DA09B",
"*.	c #A7AAA4",
"=.	c #BEC0BC",
"-.	c #A0A3A0",
";.	c #474D4E",
">.	c #313738",
",.	c #484D4E",
"'.	c #A8AAA6",
").	c #8D8F8A",
"!.	c #7D807B",
"~.	c #7D7F79",
"{.	c #959794",
"].	c #616463",
"^.	c #B8BBB7",
"/.	c #CFD1CC",
"(.	c #C0C4BC",
"_.	c #C3C7C0",
":.	c #C7CAC3",
"<.	c #D1D3CC",
"[.	c #BDC0BC",
"}.	c #E3E5E1",
"|.	c #D5D8D3",
"1.	c #C8CBC4",
"2.	c #C4C8C1",
"3.	c #C1C5BE",
"4.	c #BEC2BA",
"5.	c #BBBEB7",
"6.	c #B7BBB4",
"7.	c #B4B7B0",
"8.	c #B1B4AD",
"9.	c #ADB1AA",
"0.	c #AAADA6",
"a.	c #A6AAA3",
"b.	c #A3A6A0",
"c.	c #A0A39C",
"d.	c #9C9F99",
"e.	c #999C96",
"f.	c #969993",
"g.	c #AAACA7",
"h.	c #BBBCB8",
"i.	c #8C8E8C",
"j.	c #A5A7A4",
"k.	c #92958F",
"l.	c #81847E",
"m.	c #7E807B",
"n.	c #7A7D77",
"o.	c #8B8D88",
"p.	c #818480",
"q.	c #4C5152",
"r.	c #CED0CA",
"s.	c #C4C8C0",
"t.	c #CBCFC7",
"u.	c #D4D7D0",
"v.	c #D1D4CD",
"w.	c #CCD0C8",
"x.	c #C9CDC5",
"y.	c #C5C9C2",
"z.	c #C2C6BE",
"A.	c #BFC2BB",
"B.	c #BBBFB8",
"C.	c #B8BBB4",
"D.	c #B4B8B1",
"E.	c #AEB1AA",
"F.	c #A0A39D",
"G.	c #9CA099",
"H.	c #949791",
"I.	c #ABADA9",
"J.	c #979994",
"K.	c #848782",
"L.	c #959793",
"M.	c #3E4445",
"N.	c #4B5152",
"O.	c #D5D7D3",
"P.	c #D0D3CD",
"Q.	c #C7CBC4",
"R.	c #CBCEC7",
"S.	c #CED2CA",
"T.	c #D0D4CC",
"U.	c #CFD3CB",
"V.	c #C9CCC5",
"W.	c #C5C9C1",
"X.	c #BEC2BB",
"Y.	c #BBBFB7",
"Z.	c #8F928C",
"`.	c #8B8E88",
" +	c #888B85",
".+	c #8E8F8B",
"++	c #9B9D9B",
"@+	c #404546",
"#+	c #4B5051",
"$+	c #D0D2CF",
"%+	c #D2D5CF",
"&+	c #CACDC6",
"*+	c #C7CBC3",
"=+	c #C1C4BD",
"-+	c #BEC1BA",
";+	c #BABEB7",
">+	c #B7BBB3",
",+	c #B0B4AD",
"'+	c #9FA39C",
")+	c #959892",
"!+	c #8E918B",
"~+	c #888A85",
"{+	c #848781",
"]+	c #91928D",
"^+	c #9A9C99",
"/+	c #424748",
"(+	c #B2B5B2",
"_+	c #D8DAD5",
":+	c #C6CAC2",
"<+	c #C8CCC4",
"[+	c #C6CAC3",
"}+	c #BFC3BB",
"|+	c #BCC0B8",
"1+	c #B9BDB5",
"2+	c #B6B9B2",
"3+	c #B3B6AF",
"4+	c #AFB3AC",
"5+	c #ACAFA9",
"6+	c #A9ACA5",
"7+	c #A5A9A2",
"8+	c #A2A59F",
"9+	c #9B9F98",
"0+	c #989B95",
"a+	c #91948E",
"b+	c #878A84",
"c+	c #9FA19D",
"d+	c #808380",
"e+	c #545959",
"f+	c #DFE0DD",
"g+	c #C5C8C0",
"h+	c #C2C6BF",
"i+	c #C4C7C0",
"j+	c #C3C7BF",
"k+	c #BABEB6",
"l+	c #B1B5AE",
"m+	c #AEB1AB",
"n+	c #ABAEA7",
"o+	c #A8ABA4",
"p+	c #A4A8A1",
"q+	c #A1A49E",
"r+	c #9EA19B",
"s+	c #9B9E97",
"t+	c #979A94",
"u+	c #8D908A",
"v+	c #8A8D87",
"w+	c #878984",
"x+	c #838680",
"y+	c #858782",
"z+	c #A7A9A6",
"A+	c #424848",
"B+	c #C3C5C1",
"C+	c #CDD0CA",
"D+	c #BDC1BA",
"E+	c #C0C4BD",
"F+	c #BFC3BC",
"G+	c #BCC0B9",
"H+	c #B5B8B1",
"I+	c #B2B6AF",
"J+	c #9DA09A",
"K+	c #999D96",
"L+	c #939690",
"M+	c #90938D",
"N+	c #8C8F89",
"O+	c #898C86",
"P+	c #868883",
"Q+	c #828580",
"R+	c #7F827C",
"S+	c #939591",
"T+	c #888B89",
"U+	c #717675",
"V+	c #D9DAD7",
"W+	c #BCBFB8",
"X+	c #B9BCB5",
"Y+	c #AAAEA7",
"Z+	c #A7ABA4",
"`+	c #A1A59E",
" @	c #9B9E98",
".@	c #81847F",
"+@	c #7E817B",
"@@	c #7D7F7A",
"#@	c #A0A29E",
"$@	c #505455",
"%@	c #C6C8C4",
"&@	c #C0C3BE",
"*@	c #B8BCB5",
"=@	c #B7BAB3",
"-@	c #B5B9B2",
";@	c #9DA099",
">@	c #979A93",
",@	c #838681",
"'@	c #80837E",
")@	c #7D807A",
"!@	c #7A7C77",
"~@	c #868984",
"{@	c #383E3F",
"]@	c #B2B5AF",
"^@	c #A6A9A2",
"/@	c #9DA19A",
"(@	c #888B86",
"_@	c #858883",
":@	c #82857F",
"<@	c #7C7E79",
"[@	c #787B76",
"}@	c #777A75",
"|@	c #9C9D9A",
"1@	c #6E7271",
"2@	c #B0B3AD",
"3@	c #AEB2AB",
"4@	c #A0A49D",
"5@	c #848681",
"6@	c #81837E",
"7@	c #7A7D78",
"8@	c #747671",
"9@	c #949692",
"0@	c #4D5251",
"a@	c #9C9F9D",
"b@	c #C2C4BF",
"c@	c #ACAFA8",
"d@	c #858882",
"e@	c #797B76",
"f@	c #767873",
"g@	c #727570",
"h@	c #6A6D6B",
"i@	c #313638",
"j@	c #33393A",
"k@	c #B3B5B0",
"l@	c #A8ACA5",
"m@	c #989C95",
"n@	c #868983",
"o@	c #80837D",
"p@	c #777A74",
"q@	c #71736E",
"r@	c #828480",
"s@	c #A5A8A4",
"t@	c #C4C5C2",
"u@	c #C7C8C3",
"v@	c #D2D3D0",
"w@	c #A5A8A1",
"x@	c #9A9D97",
"y@	c #7B7E78",
"z@	c #757873",
"A@	c #6F726D",
"B@	c #6F716D",
"C@	c #939491",
"D@	c #8C8E8A",
"E@	c #888986",
"F@	c #82847F",
"G@	c #7B7D79",
"H@	c #656764",
"I@	c #C0C2BE",
"J@	c #9FA29B",
"K@	c #90938E",
"L@	c #7F817C",
"M@	c #797C76",
"N@	c #767974",
"O@	c #737671",
"P@	c #70736E",
"Q@	c #6D706B",
"R@	c #6A6D68",
"S@	c #6B6E69",
"T@	c #646662",
"U@	c #61635F",
"V@	c #5E605C",
"W@	c #5C5E5A",
"X@	c #737471",
"Y@	c #9A9E97",
"Z@	c #8E908B",
"`@	c #7C7F7A",
" #	c #777974",
".#	c #71746F",
"+#	c #6E716C",
"@#	c #686B66",
"##	c #656863",
"$#	c #626560",
"%#	c #5F625D",
"&#	c #595B57",
"*#	c #70716E",
"=#	c #91948F",
"-#	c #9FA19C",
";#	c #8A8D88",
">#	c #747772",
",#	c #72746F",
"'#	c #6C6F6A",
")#	c #696C67",
"!#	c #666964",
"~#	c #696C68",
"{#	c #60635E",
"]#	c #5E605B",
"^#	c #5B5D58",
"/#	c #575A55",
"(#	c #6E6F6C",
"_#	c #9C9E9A",
":#	c #BCBDB9",
"<#	c #BEBFBC",
"[#	c #C1C3BF",
"}#	c #C2C3C0",
"|#	c #898C87",
"1#	c #878A85",
"2#	c #757772",
"3#	c #6D6F6A",
"4#	c #6A6C68",
"5#	c #676965",
"6#	c #878986",
"7#	c #7F827D",
"8#	c #767773",
"9#	c #6F706E",
"0#	c #5E605E",
"a#	c #939693",
"b#	c #A7A9A5",
"c#	c #797C77",
"d#	c #6D6F6B",
"e#	c #686A65",
"f#	c #656763",
"g#	c #767874",
"h#	c #646764",
"i#	c #2F3536",
"j#	c #616564",
"k#	c #B4B5B1",
"l#	c #8D908B",
"m#	c #838580",
"n#	c #686A66",
"o#	c #7E7F7C",
"p#	c #474C4C",
"q#	c #B8B9B6",
"r#	c #8B8E87",
"s#	c #8A8C87",
"t#	c #787A75",
"u#	c #636560",
"v#	c #626460",
"w#	c #999B98",
"x#	c #959792",
"y#	c #7C7F79",
"z#	c #737570",
"A#	c #6A6C67",
"B#	c #676A65",
"C#	c #60625E",
"D#	c #6B6C68",
"E#	c #6A6D6A",
"F#	c #606565",
"G#	c #ACAEAA",
"H#	c #80827D",
"I#	c #7B7E79",
"J#	c #6E706B",
"K#	c #656762",
"L#	c #5D605B",
"M#	c #797B78",
"N#	c #464B4B",
"O#	c #969895",
"P#	c #7E817C",
"Q#	c #70726E",
"R#	c #5D5F5B",
"S#	c #6B6D69",
"T#	c #676A68",
"U#	c #303537",
"V#	c #434748",
"W#	c #A9ABA7",
"X#	c #696B67",
"Y#	c #636561",
"Z#	c #5F615D",
"`#	c #797A77",
" $	c #757876",
".$	c #999B96",
"+$	c #666863",
"@$	c #5A5C58",
"#$	c #6D6E6B",
"$$	c #5A5E5C",
"%$	c #696C6B",
"&$	c #70726D",
"*$	c #6F716C",
"=$	c #6C6E69",
"-$	c #666864",
";$	c #5B5D59",
">$	c #575955",
",$	c #5E5F5C",
"'$	c #696B68",
")$	c #3A3F40",
"!$	c #787B78",
"~$	c #91938F",
"{$	c #6C6E6A",
"]$	c #676964",
"^$	c #5C5E59",
"/$	c #585A56",
"($	c #565854",
"_$	c #555753",
":$	c #686A67",
"<$	c #393E3F",
"[$	c #737572",
"}$	c #8A8C88",
"|$	c #6F716B",
"1$	c #6B6D68",
"2$	c #646762",
"3$	c #595B58",
"4$	c #393D3E",
"5$	c #626664",
"6$	c #848683",
"7$	c #808280",
"8$	c #7A7D7A",
"9$	c #919390",
"0$	c #7A7C78",
"a$	c #646661",
"b$	c #62645F",
"c$	c #61635E",
"d$	c #5B5E59",
"e$	c #737571",
"f$	c #565A58",
"g$	c #626564",
"h$	c #5A5C59",
"i$	c #616562",
"j$	c #7F817E",
"k$	c #5B5F5F",
"l$	c #7B7D7A",
"m$	c #888A86",
"n$	c #737470",
"o$	c #606361",
"p$	c #363C3C",
"q$	c #636662",
"r$	c #494C4B",
"s$	c #676966",
"t$	c #7B7C78",
"u$	c #7E807C",
"v$	c #5E6260",
"w$	c #4C5050",
"x$	c #737573",
"y$	c #858784",
"z$	c #7D7E7B",
"A$	c #71726E",
"B$	c #636562",
"C$	c #727470",
"D$	c #747673",
"E$	c #646765",
"F$	c #3F4445",
"G$	c #34393B",
"H$	c #5E605D",
"I$	c #494D4B",
"J$	c #7A7C79",
"K$	c #595D5C",
"L$	c #494D4D",
"M$	c #7E807D",
"N$	c #565954",
"O$	c #797B77",
"P$	c #686A68",
"Q$	c #545857",
"R$	c #33383A",
"S$	c #535653",
"T$	c #484B4A",
"U$	c #787A76",
"V$	c #727471",
"W$	c #747572",
"X$	c #70726F",
"Y$	c #6C6D6A",
"Z$	c #5C5D5B",
"`$	c #585A58",
" %	c #2F3436",
"                                          . + + + @                                             ",
"                                        # $ % & * = @                                           ",
"                                        @ - ; > , ' )                                           ",
"                                        @ ! ~ { ] ^ )                                           ",
"                                        @ / ( _ : < [                                           ",
"                } |                     + / 1 2 3 < [ [                     4 |                 ",
"              5 6 7 8           9 0 a b c d e f f g h i j k [             l m n o               ",
"            5 p q r s t       ) u v w x y z A B C 2 D E F & G H |       I J K L M o             ",
"          N O P Q R S T t U V W X Y Z `  ...+.@.#._ : $.%.&.*.=.-.;.>.,.'.).!.~.{.].#           ",
"          | ^./.(._.:.<.x [.}.|.1.2.3.4.5.6.7.8.9.0.a.b.c.d.e.f.g.h.i.j.k.l.m.n.o.p.@           ",
"            q./ r.s.1.t.u.X v.w.x.y.z.A.B.C.D.8.E.~ { b.F.G.e.f.k.H.I.J.K.l.m.o.L.M.            ",
"              N.O.P.Q.R.S.T.U.w.V.W.z.X.Y.C.D.8.9.~ { b.F.d.e.f.k.Z.`. +K.l..+++@+              ",
"                #+$+%+V.t.w.S &+*+s.=+-+;+>+7.,+f 0.: b.'+d.e.)+k.!+`.~+{+]+^+/+                ",
"                ) (+_+:+Q.<+<+[+2.z.}+|+1+2+3+4+5+6+7+8+%.9+0+)+a+!+o.b+{+c+d+.                 ",
"                e+f+g+h+i+2.s.j+3.}+` k+6.D.l+m+n+o+p+q+r+s+t+H.a+u+v+w+x+y+z+A+                ",
"              U B+C+D+}+(.E+(.F+4.G+k+C.H+I+4+#.; : b.F.J+K+f.L+M+N+O+P+Q+R+S+T+>.              ",
"              U+V+ .k+B.|+G+G+W+;+X+>+H+I+@.9.Y+Z+p+`+r+ @0+)+k.!+`. +y+.@+@@@#@$@              ",
"            [ %@&@H+..C.*@X+*@C.=@-@7.A @.9.n+3 7+$.c.;@K+>@L+M+u+v+w+,@'@)@!@~@T+o             ",
"            {@T 8.l+3+7.D.H+H+D.+.]@,+B ( Y+3 ^@b.F./@s+0+)+k.Z.K (@_@:@R+<@[@}@|@|             ",
"            1@/.#.m+4+2@8.8.8.,+4+3@f C ; Z+> b.4@r+ @0+f.L+M+u+v+b+5@6@!.7@}@8@9@0@            ",
"          U a@b@_ Y+C #.( f ( #.c@n+; 3 a.p+8+F.r+ @e.f.L+a+!+`. +d@:@R+<@e@f@g@(@h@i@          ",
"  # 9 j@j@o 7 k@7+{ o+l@_ _ _ 6+3 *.: p+b.q+%.J+ @m@f.H.a+!+K O+n@x+o@)@n.p@8@q@<@r@+ + + + +   ",
". s@t@u@v < v@] 8+b.] w@> > > w@] b.8+q+'+r+d.x@0+f.L+a+!+N+O+~@5@l.+@y@[@z@g@A@B@C@D@E@F@G@H@+ ",
"+ I@)+f.0+x@F.J+r+%.F.q+q+q+q+q+F.c.J@J+d.x@e.t+)+L+K@!+N+O+w+{+.@L@<@M@N@O@P@Q@R@S@T@U@V@W@X@+ ",
"+ =.a+L+)+>@0+e.Y@9+d.J+J+J+J+J+G.d. @x@0+t+)+H.k.M+Z@`.O+w+{+F@R+`@!@ #8@.#+#S@@###$#%#W@&#*#+ ",
"+ h Z.M+=#L+-#f.t+0+m@e.e.K+e.e.e.0+t+f.)+L+k.M+!+).;#(@n@{+.@R+`@!@}@>#,#B@'#)#!#~#{#]#^#/#(#+ ",
"@ _#:#<#[#}#' d.L+H.)+)+)+f.f.)+)+H.L+k.a+M+!+u+`.|#1#_@x+l.L@`@!@}@2#g@A@3#4#5#Q@6#7#G@8#9#0#+ ",
"  @ + + + + a#b#Z.M+a+a+k.k.k.a+a+M+M+Z.Z@N+`.|# +n@{+:@o@+@<@c#p@2#g@A@d#R@e#f#g#h#@ @ @ + i#  ",
"            j#k#K N+u+l#!+!+!+Z@u+).N+`.v+O+1#n@K.m#l.R+)@y@e@ #>#,#A@d#R@n#f#$#o#p#            ",
"            ) q#r#(@O+|#v+v+v+s#O+O+ +b+n@d@{+Q+l.7#m.<@!@t#f@8@.#B@3#R@e###u#v#'@@             ",
"            j@w#x#y+_@P+n@n@n@n@_@d@{+,@Q+.@'@R+!.y#7@[@ #2#z#q@+#'#A#B#f#u#C#D#E#.             ",
"              F#G#.@.@:@:@:@:@:@.@l.'@H#L@m.@@I#n.[@ #z@O@.#A@J#S@)#5#K#$#C#L#M#N#              ",
"              # O#x#m.+@+@P#+@+@m.!.@@<@y@n.e@t#N@2#O@,#Q#+#'#R@@#!#T@v#%#R#S#T#U#              ",
"                V#W#L@n.7@7@7@n.!@c#e@[@}@N@z@>#z#.#Q#+#3#S#X#B#f#Y#U@Z#R#R#`#{@                ",
"                #  $.$N@N@N@N@N@f@f@2#>#O@z#,#P@A@J#'#S#)#e#+$T@v#C#V@W@@$#$$$@                 ",
"                . %$J.g@g@z#g@g@g@,#.#P@&$*$J#3#=$R@X#B#-$T@$#U@Z#R#;$&#>$,$'$)$                ",
"              . !$~$P@+#*$*$*$+#+#J#Q@3#{$S#4#X#n#]$##T@$#U@Z#L#^$@$/$($_$_$W@:$<$@             ",
"            . [$}$=$R@R@|$m#|$1$R@4#)#X#n#B#!###2$Y#v#{#Z#L#W@@$/$3$S#Y#_$_$_$@$Y#4$@           ",
"          . 5$6$!#-$!#A#7$8$9$0$!#-$+$f#2$a$u#b$c$%#V@R#d$@$/$>$f#e$f$g$U@_$_$_$@$h$+           ",
"          4 i$j$a$v###P+k$i#@+l$m$Q#a$U@{#C#Z#V@R#W@^#&#/$>$C#n$o$p$@ ) q$,$_$($Z#r$@           ",
"            4 s$t$Y#u$v$.     4 w$x$y$z$A$B$;$@$&#;$Y#S#C$D$E$F$U#      G$H$W@V@I$@             ",
"              4 h#J$K$4           . # L$o$M$V@N$&#O$P$Q$@+U#4             R$S$T$@               ",
"                @ k U#                  + U$_$_$_$V$@ @                     @ U#                ",
"                                        i#W$_$_$_$X$+                                           ",
"                                        i#X$_$_$_$Y$+                                           ",
"                            + + + + + + i#S#_$_$_$n#+ + + + + + + + +                           ",
"                          + + + + + + + + Z$H@B$B$`$+ + + + + + + + + +                         ",
"                                        @  %+ + + i# %                                          "};
