/* XPM */
static char * game_tali_xpm[] = {
"48 48 561 2",
"  	c None",
". 	c #B5B7B0",
"+ 	c #B7BAB2",
"@ 	c #B8BBB2",
"# 	c #B8BBB3",
"$ 	c #BDBFB8",
"% 	c #AFB2AB",
"& 	c #B3B5AE",
"* 	c #CACDC8",
"= 	c #E5E5E3",
"- 	c #F4F4F3",
"; 	c #EDEDEB",
"> 	c #B9BBB4",
", 	c #C0C2BB",
"' 	c #BCBEB5",
") 	c #ACAEAA",
"! 	c #E4E5E2",
"~ 	c #F7F7F6",
"{ 	c #F6F6F5",
"] 	c #F2F2F1",
"^ 	c #F1F1F0",
"/ 	c #F3F3F2",
"( 	c #B4B6AF",
"_ 	c #DDDEDA",
": 	c #F6F6F6",
"< 	c #F0F0EE",
"[ 	c #C7C8C2",
"} 	c #BABCB5",
"| 	c #A5A9A4",
"1 	c #DADBD9",
"2 	c #B5B7B7",
"3 	c #5A5F61",
"4 	c #E6E6E4",
"5 	c #DBDDDA",
"6 	c #C4C5C1",
"7 	c #F5F5F4",
"8 	c #E8E8E5",
"9 	c #EBEBE9",
"0 	c #F5F5F3",
"a 	c #D6D7D2",
"b 	c #B3B7B2",
"c 	c #E9EAE9",
"d 	c #404648",
"e 	c #3C4244",
"f 	c #D8DAD7",
"g 	c #EAEAE7",
"h 	c #F2F3F1",
"i 	c #B0B3AC",
"j 	c #E9EAE7",
"k 	c #ECECE9",
"l 	c #E6E6E3",
"m 	c #BABDB5",
"n 	c #9EA29D",
"o 	c #E4E5E3",
"p 	c #B7B9B9",
"q 	c #3B4142",
"r 	c #787D7D",
"s 	c #E6E7E3",
"t 	c #ECEDEA",
"u 	c #D9DAD7",
"v 	c #B9BCB7",
"w 	c #F4F4F2",
"x 	c #EFEFED",
"y 	c #EEEEEC",
"z 	c #C0C2BC",
"A 	c #B7B9B2",
"B 	c #AEB0AD",
"C 	c #D1D2CF",
"D 	c #727575",
"E 	c #D4D6D2",
"F 	c #E3E4E0",
"G 	c #EDEEEB",
"H 	c #ABADA9",
"I 	c #E3E3E1",
"J 	c #E0E0DD",
"K 	c #686C6C",
"L 	c #44494A",
"M 	c #B6B8B6",
"N 	c #E5E5E2",
"O 	c #EBEBE8",
"P 	c #CDCEC9",
"Q 	c #B7B8B2",
"R 	c #969B95",
"S 	c #DEE0DD",
"T 	c #E9E9E6",
"U 	c #E1E3DE",
"V 	c #E0E2DD",
"W 	c #DFE1DC",
"X 	c #E4E7E2",
"Y 	c #D4D6D3",
"Z 	c #B0B3AF",
"` 	c #E3E3E0",
" .	c #949795",
"..	c #373D3D",
"+.	c #6D7171",
"@.	c #E2E3DF",
"#.	c #E2E2DF",
"$.	c #DBDCD9",
"%.	c #BCBEB7",
"&.	c #BEC0B8",
"*.	c #B9BCB5",
"=.	c #A1A5A0",
"-.	c #A7ABA8",
";.	c #DEE1DB",
">.	c #DDDFDA",
",.	c #DCDED8",
"'.	c #DBDED8",
").	c #E6E8E4",
"!.	c #E7E8E5",
"~.	c #E0E1DC",
"{.	c #7F8381",
"].	c #363D3D",
"^.	c #474E4E",
"/.	c #898C8B",
"(.	c #DFE0DC",
"_.	c #DFE0DB",
":.	c #EAEBE8",
"<.	c #E5E6E4",
"[.	c #B5B8B2",
"}.	c #BFC1B9",
"|.	c #D5D6D1",
"1.	c #F6F7F6",
"2.	c #FAFAFA",
"3.	c #C5C7C2",
"4.	c #B9BBB6",
"5.	c #D8DAD5",
"6.	c #DADDD7",
"7.	c #D9DCD5",
"8.	c #D7DBD4",
"9.	c #DCDFD9",
"0.	c #CED0CB",
"a.	c #A5A8A4",
"b.	c #DDDED9",
"c.	c #C6C8C4",
"d.	c #5C6161",
"e.	c #7A7E7D",
"f.	c #D4D7D2",
"g.	c #DCDDD8",
"h.	c #B6B8B5",
"i.	c #969997",
"j.	c #D4D5D1",
"k.	c #E5E6E3",
"l.	c #DCDEDA",
"m.	c #B2B3AC",
"n.	c #BFC0B8",
"o.	c #BFC0B9",
"p.	c #D7D8D4",
"q.	c #FAFAF9",
"r.	c #F9F9F8",
"s.	c #EAEAE8",
"t.	c #B7B9B4",
"u.	c #BABDB7",
"v.	c #D1D5CE",
"w.	c #D3D7CF",
"x.	c #DFE2DC",
"y.	c #A0A49F",
"z.	c #CFD0CD",
"A.	c #E3E4DF",
"B.	c #DADCD6",
"C.	c #D9DBD6",
"D.	c #D9DBD5",
"E.	c #B4B7B3",
"F.	c #363C3D",
"G.	c #767978",
"H.	c #DBDDD7",
"I.	c #E4E6E2",
"J.	c #AFB1AB",
"K.	c #BDC0B8",
"L.	c #DADAD7",
"M.	c #F0F1EF",
"N.	c #FBFBFB",
"O.	c #D1D2D1",
"P.	c #ADB0AF",
"Q.	c #9EA1A1",
"R.	c #D9D9D9",
"S.	c #F0F0EF",
"T.	c #EFEFEE",
"U.	c #F2F2F0",
"V.	c #D4D5D2",
"W.	c #A0A39E",
"X.	c #C5C8C2",
"Y.	c #CBCEC9",
"Z.	c #9C9E9B",
"`.	c #E8E9E6",
" +	c #D8DAD4",
".+	c #D7D9D3",
"++	c #D6D9D3",
"@+	c #D6D9D2",
"#+	c #D1D4CD",
"$+	c #BFC2BC",
"%+	c #D4D6D1",
"&+	c #D6D8D2",
"*+	c #848885",
"=+	c #6E7372",
"-+	c #DDE0DA",
";+	c #ABAEA9",
">+	c #BDC0B7",
",+	c #DCDCD9",
"'+	c #FBFBFA",
")+	c #E8E8E8",
"!+	c #797D7E",
"~+	c #414749",
"{+	c #4E5455",
"]+	c #737778",
"^+	c #EEEEEB",
"/+	c #EDEDEA",
"(+	c #C1C2BF",
"_+	c #999D98",
":+	c #9CA09C",
"<+	c #C2C4C2",
"[+	c #DEE0DB",
"}+	c #D4D7D0",
"|+	c #D3D6CF",
"1+	c #CFD2CB",
"2+	c #565C5B",
"3+	c #32383A",
"4+	c #777B79",
"5+	c #949994",
"6+	c #474C4C",
"7+	c #A6AAA5",
"8+	c #E1E3DF",
"9+	c #C0C2BA",
"0+	c #FCFCFB",
"a+	c #F5F5F5",
"b+	c #B4B7B6",
"c+	c #414748",
"d+	c #5B6061",
"e+	c #838787",
"f+	c #CACBCA",
"g+	c #EFEFEC",
"h+	c #F3F3F1",
"i+	c #F8F8F7",
"j+	c #DCDCDA",
"k+	c #ACAFAB",
"l+	c #999D99",
"m+	c #9EA29E",
"n+	c #909491",
"o+	c #E2E4E0",
"p+	c #D2D5CE",
"q+	c #D1D4CC",
"r+	c #D0D4CC",
"s+	c #9EA39F",
"t+	c #4C5152",
"u+	c #D0D3CB",
"v+	c #CFD3CB",
"w+	c #9DA29D",
"x+	c #B0B3AE",
"y+	c #D2D6CE",
"z+	c #DDE0DB",
"A+	c #A2A5A0",
"B+	c #D0D1CC",
"C+	c #BFC0BF",
"D+	c #B2B5B4",
"E+	c #C9CBC9",
"F+	c #ECEDEB",
"G+	c #DFE0DE",
"H+	c #B5B7B5",
"I+	c #BABCB9",
"J+	c #D6D8D5",
"K+	c #DEDEDC",
"L+	c #AEB1AE",
"M+	c #8D928E",
"N+	c #D8DCD4",
"O+	c #CCD0C7",
"P+	c #6C716F",
"Q+	c #474D4E",
"R+	c #ACB1AA",
"S+	c #CDD1C9",
"T+	c #9FA39F",
"U+	c #3A4042",
"V+	c #6B716F",
"W+	c #CCD1C8",
"X+	c #CCD0C8",
"Y+	c #C4C7C1",
"Z+	c #A0A39D",
"`+	c #B8BAB2",
" @	c #DFE1DD",
".@	c #E2E3E1",
"+@	c #A2A6A2",
"@@	c #B9BBB8",
"#@	c #D9D9D8",
"$@	c #E7E7E3",
"%@	c #898E8B",
"&@	c #C9CDC4",
"*@	c #8C918D",
"=@	c #313739",
"-@	c #626765",
";@	c #CACFC5",
">@	c #CACEC5",
",@	c #797F7C",
"'@	c #767B79",
")@	c #BEC3BB",
"!@	c #C9CEC5",
"~@	c #C9CEC4",
"{@	c #A3A7A1",
"]@	c #ECECEB",
"^@	c #F1F1EF",
"/@	c #E5E5E4",
"(@	c #C1C2BD",
"_@	c #D8D9D7",
":@	c #E8E8E4",
"<@	c #E4E4E0",
"[@	c #E3E3DF",
"}@	c #E2E2DE",
"|@	c #E1E1DC",
"1@	c #9A9E9C",
"2@	c #B9BEB5",
"3@	c #777D79",
"4@	c #373D3F",
"5@	c #737875",
"6@	c #C7CCC2",
"7@	c #C6CCC2",
"8@	c #C6CBC2",
"9@	c #C6CBC1",
"0@	c #CBCFC6",
"a@	c #CDD0CA",
"b@	c #989C97",
"c@	c #B4B7B1",
"d@	c #EEEFED",
"e@	c #F7F7F7",
"f@	c #E7E8E6",
"g@	c #C6C7C3",
"h@	c #A7ABA6",
"i@	c #D8D9D6",
"j@	c #E5E5E1",
"k@	c #DEDFDB",
"l@	c #818584",
"m@	c #505557",
"n@	c #555A5A",
"o@	c #BBBCB8",
"p@	c #DFDFDA",
"q@	c #E9E9E5",
"r@	c #ABAFAB",
"s@	c #ABB1A9",
"t@	c #ACB2A9",
"u@	c #3F4546",
"v@	c #595E5D",
"w@	c #B9BFB6",
"x@	c #C4C9BF",
"y@	c #C2C8BE",
"z@	c #696F6C",
"A@	c #484E4E",
"B@	c #A2A8A0",
"C@	c #C3C9BE",
"D@	c #CFD3CA",
"E@	c #ACAFA8",
"F@	c #C1C2BE",
"G@	c #DDDEDC",
"H@	c #CACBC8",
"I@	c #AAADA8",
"J@	c #D7D8D5",
"K@	c #E4E4E1",
"L@	c #707373",
"M@	c #4E5354",
"N@	c #DDDDD8",
"O@	c #E4E4DF",
"P@	c #BDBFBC",
"Q@	c #A0A59F",
"R@	c #C2C8BD",
"S@	c #8B908B",
"T@	c #5B625F",
"U@	c #D0D5CD",
"V@	c #939793",
"W@	c #A8ABA5",
"X@	c #B8BAB5",
"Y@	c #A9ACA7",
"Z@	c #ECECEA",
"`@	c #E6E6E2",
" #	c #E2E2DD",
".#	c #4E5355",
"+#	c #42484A",
"@#	c #757978",
"##	c #D9DAD3",
"$#	c #DDDED8",
"%#	c #CBCDC9",
"&#	c #9A9F9A",
"*#	c #C7CDC3",
"=#	c #7A807B",
"-#	c #6B726E",
";#	c #C8CDC3",
">#	c #BCC1B9",
",#	c #8E928E",
"'#	c #A5A8A2",
")#	c #F0F1EE",
"!#	c #E0E0DB",
"~#	c #BABBB7",
"{#	c #545959",
"]#	c #5F6465",
"^#	c #8A8D8B",
"/#	c #D2D4CD",
"(#	c #D4D6CE",
"_#	c #D6D8D0",
":#	c #D6D8D3",
"<#	c #868A88",
"[#	c #BABEB8",
"}#	c #CED2CA",
"|#	c #CBD0C6",
"1#	c #C5CBC0",
"2#	c #AAB0A8",
"3#	c #3E4446",
"4#	c #525859",
"5#	c #B5BAB0",
"6#	c #9CA19C",
"7#	c #E7E7E4",
"8#	c #E1E1DD",
"9#	c #E0E0DC",
"0#	c #DEDED9",
"a#	c #DADBD5",
"b#	c #D8D9D1",
"c#	c #D5D6CE",
"d#	c #D2D4CB",
"e#	c #D0D2C8",
"f#	c #CED1C6",
"g#	c #E0E1DB",
"h#	c #7F8482",
"i#	c #838784",
"j#	c #848986",
"k#	c #A2A7A2",
"l#	c #C0C5BE",
"m#	c #CDD2C9",
"n#	c #C1C7BC",
"o#	c #C8CDC5",
"p#	c #858986",
"q#	c #9A9D99",
"r#	c #E7E7E5",
"s#	c #DFDFDB",
"t#	c #D8D9D5",
"u#	c #7B7F7E",
"v#	c #4B5051",
"w#	c #4F5453",
"x#	c #B1B4AE",
"y#	c #D3D5CC",
"z#	c #D0D3C9",
"A#	c #CBCFC3",
"B#	c #C9CCC0",
"C#	c #DFE1DA",
"D#	c #858988",
"E#	c #818684",
"F#	c #8A8F8C",
"G#	c #ACB0AB",
"H#	c #C6CAC3",
"I#	c #CACFC6",
"J#	c #ABAFAA",
"K#	c #828683",
"L#	c #6A6E6D",
"M#	c #484D4D",
"N#	c #CFD1C7",
"O#	c #CCCFC4",
"P#	c #C9CDC1",
"Q#	c #C7CBBE",
"R#	c #C4C9BB",
"S#	c #D8DCD2",
"T#	c #979C98",
"U#	c #818683",
"V#	c #929794",
"W#	c #B2B6B0",
"X#	c #BFC4BC",
"Y#	c #B2B7B0",
"Z#	c #8F938F",
"`#	c #E8E8E6",
" $	c #DCDCD7",
".$	c #DADAD4",
"+$	c #494E4F",
"@$	c #33393B",
"#$	c #686C69",
"$$	c #CACDC2",
"%$	c #C5C9BB",
"&$	c #C2C7B8",
"*$	c #D4D7CD",
"=$	c #AAAEA9",
"-$	c #818784",
";$	c #828785",
">$	c #808582",
",$	c #8B8F8B",
"'$	c #BBBDBA",
")$	c #D8D9D2",
"!$	c #D5D7CF",
"~$	c #AEB1AB",
"{$	c #4D5251",
"]$	c #525758",
"^$	c #7C817D",
"/$	c #C3C8BB",
"($	c #C6CABC",
"_$	c #C3C8B9",
":$	c #CFD3C7",
"<$	c #BABEB7",
"[$	c #808381",
"}$	c #878B89",
"|$	c #DBDBD5",
"1$	c #D6D7CF",
"2$	c #D1D3C9",
"3$	c #C6CABD",
"4$	c #C4C8BA",
"5$	c #808784",
"6$	c #BEC0BD",
"7$	c #E4E5E0",
"8$	c #D4D6CD",
"9$	c #CBCEC6",
"0$	c #464C4C",
"a$	c #494F4E",
"b$	c #A5AAA0",
"c$	c #C5CABB",
"d$	c #DADDD4",
"e$	c #AFB3AD",
"f$	c #868B89",
"g$	c #CFD2C8",
"h$	c #636866",
"i$	c #2E3436",
"j$	c #434949",
"k$	c #D1D5CA",
"l$	c #DCDFD7",
"m$	c #B5B9B3",
"n$	c #808583",
"o$	c #828685",
"p$	c #C3C5C1",
"q$	c #D9DBD3",
"r$	c #CBCEC3",
"s$	c #444A4A",
"t$	c #626763",
"u$	c #C8CCBF",
"v$	c #D5D9CE",
"w$	c #DADDD6",
"x$	c #BABDB8",
"y$	c #898E8C",
"z$	c #7D8380",
"A$	c #8A8F8D",
"B$	c #DFE2DB",
"C$	c #A2A79C",
"D$	c #484E4C",
"E$	c #4D5252",
"F$	c #767B77",
"G$	c #BDC3B4",
"H$	c #CCD0C3",
"I$	c #D9DCD3",
"J$	c #D6D8D1",
"K$	c #ABB0AB",
"L$	c #848987",
"M$	c #7B807E",
"N$	c #C4C7C2",
"O$	c #C4C9BA",
"P$	c #CFD3C8",
"Q$	c #DCDFD6",
"R$	c #CDD0C9",
"S$	c #9FA3A0",
"T$	c #808684",
"U$	c #8B908C",
"V$	c #DCDED7",
"W$	c #CBCFC2",
"X$	c #C8CCBE",
"Y$	c #D3D7CC",
"Z$	c #DCDFD8",
"`$	c #C2C5BF",
" %	c #919693",
".%	c #7E8380",
"+%	c #777A79",
"@%	c #A3A6A2",
"#%	c #B6B9B4",
"$%	c #797D7A",
"%%	c #757976",
"&%	c #7D827F",
"*%	c #6C6F6E",
"                                                                                                ",
"                                                                                                ",
"                                                                                                ",
"                                                                                                ",
"                                                                                                ",
"                                                                                                ",
"                                                                                                ",
"                                                      . + @ # $                                 ",
"                                                % & * = - ; > , > '                             ",
"                                              ) ! ~ { ] ^ / ( _ : < [ }                         ",
"                                            | 1 2 3 4 ; / 5 6 7 8 9 0 a >                       ",
"                                            b c d e f g h i j k l l 8 / ! m                     ",
"                                          n o p q r s t u v w l l l l l x y z A                 ",
"                                          B h C D E F G H I k J K L M N N O ^ P Q               ",
"                                        R S T U V W X Y Z ^ `  .....+.@.@.#.N < $..             ",
"                              %.&.> *.=.-.t ;.>.,.'.).| u !.~.{.].^./.(.(._._.~.:.<.[.          ",
"                        $ }.|.; 1.2.h 3.4.5.6.7.8.9.0.a.G b.b.c.d.e.f.,.g.g.h.i.j.k.l.m.        ",
"                  n.o.p.x 2.q.: / ] / r.s.t.u.v.w.x.y.z.A.B.B.C.C.D.D.D.D.E.q F.G.H.I.J.        ",
"            K.$ L.M.N.q.O.P.Q.R.S.T.y ; U.~ V.W.X.Y.Z.`. +.+++@+@+#+$+%+&+*+F.F.=+-+f.;+        ",
"          >+,+'+q.~ )+!+~+~+{+]+x ^+/+k y - r.(+_+:+<+[+}+|+|+|+1+2+3+4+|+5+F.6+7+8+4.          ",
"          9+0+a+- - b+~+c+d+e+f+; g+h+i+- j+k+l+m+n+o+p+q+r+r+r+s+3+3+t+u+v+w+x+y+z+A+          ",
"          B+2.- / ] S.C+D+E+F+/ i+{ G+H+=.I+J+K+L+M+N+O+P+Q+R+S+T+3+U+V+W+W+X+X+@+Y+Z+          ",
"        `+ @i+] ^ S.T.x / ~ ~ .@I++@@@#@y k $@$@O %@&@*@=@=@-@;@>@,@'@)@!@!@!@~@6.{@            ",
"        A ]@0 ^@^@w i+i+/@(@a.@@_@x /+:@<@[@}@|@k 1@2@3@=@4@5@6@6@6@6@7@8@9@9@0@a@b@            ",
"        c@d@~ e@r.f@g@h@@@i@< y T j@k@l@m@n@o@p@q@r@s@t@u@v@w@x@x@x@y@z@A@B@C@D@x+              ",
"        E@F@G@H@I@I+J@S.x s.l N K@[@L@....F.M@N@O@P@Q@R@R@R@R@R@R@R@S@=@=@T@C@U@V@              ",
"        W@X@Y@V.^ S.Z@:@$@`@j@<@[@ #.#..F.+#@###$#%#&#*#y@R@R@R@R@R@=#=@4@-#;#>#,#              ",
"        '#W.)#x T 8 $@`@j@<@[@}@|@!#~#{#]#^#/#(#_#:#<#[#}#|#1#R@R@R@2#3#4#5#W+6#                ",
"          A+w 8 7#l j@<@[@}@8#9#p@0#N@a#b#c#d#e#f#g#h#i#j#k#l#m#;#C@R@n#R@C@o#p#                ",
"          q#r#g N K@[@}@8#9#s#t#u#v#w#x#y#z#f#A#B#C#D#      E#F#G#H#I#9@C@~@J#K#                ",
"            I+g+<@[@ #|@!#p@0#L#=@=@=@M#N#O#P#Q#R#S#T#          U#E#V#W#X#Y#E#                  ",
"            Z#`#j@8#!#p@0# $.$+$=@=@@$#$$$Q#%$&$&$*$=$                -$;$>$                    ",
"            ,$'$s.s#0#N@a#)$!$~${$]$^$/$($_$&$&$&$:$<$[$                                        ",
"              }$`.9#|$)$1$y#2$f#A#B#3$4$&$&$&$&$&$:$$+5$                                        ",
"              ;$6$7$_#8$9$5@0$a$b$R#&$&$&$&$&$&$c$d$e$                                          ",
"                f$`@8$g$h$i$i$i$j$&$&$&$&$&$%$k$l$m$n$                                          ",
"                o$p$q$r$s$i$i$=@t$&$&$&$u$v$w$x$y$z$                                            ",
"                  A$B$Q#C$D$E$F$G$&$H$I$J$K$L$M$                                                ",
"                  K#N$:$&$&$&$O$P$Q$R$S$T$                                                      ",
"                    U$V$W$X$Y$Z$`$ %.%                                                          ",
"                    +%@%#+.+#%}$$%                                                              ",
"                      %%&%.%*%                                                                  ",
"                                                                                                ",
"                                                                                                ",
"                                                                                                ",
"                                                                                                ",
"                                                                                                ",
"                                                                                                "};
