/* XPM */
static char * game_gnibbles_xpm[] = {
"48 48 571 2",
"  	c None",
". 	c #D05F02",
"+ 	c #D26003",
"@ 	c #D06002",
"# 	c #A54B02",
"$ 	c #D16002",
"% 	c #D67524",
"& 	c #E8AE72",
"* 	c #E7BB8C",
"= 	c #614F3C",
"- 	c #000000",
"; 	c #51402E",
"> 	c #D1843D",
", 	c #D06004",
"' 	c #D25F01",
") 	c #DD8D46",
"! 	c #EDC89F",
"~ 	c #F1D7B4",
"{ 	c #F5BD78",
"] 	c #4B3418",
"^ 	c #1D1308",
"/ 	c #1A140E",
"( 	c #CFAB83",
"_ 	c #E59549",
": 	c #D05E01",
"< 	c #EAB379",
"[ 	c #F1D8B5",
"} 	c #F7B35B",
"| 	c #FAA12E",
"1 	c #B6731F",
"2 	c #1A1104",
"3 	c #A76719",
"4 	c #F99824",
"5 	c #C0741A",
"6 	c #4F2F0A",
"7 	c #37230D",
"8 	c #EEC28E",
"9 	c #E68E38",
"0 	c #CF5E01",
"a 	c #673206",
"b 	c #635341",
"c 	c #685A47",
"d 	c #7F561F",
"e 	c #D58B29",
"f 	c #FAA12F",
"g 	c #A0661D",
"h 	c #EC9628",
"i 	c #F99C28",
"j 	c #F99A26",
"k 	c #F89723",
"l 	c #F89520",
"m 	c #D57E1A",
"n 	c #D1842E",
"o 	c #F2C48F",
"p 	c #DB7419",
"q 	c #BD5602",
"r 	c #020201",
"s 	c #090602",
"t 	c #32210A",
"u 	c #5E3E13",
"v 	c #BF7D25",
"w 	c #FA9F2C",
"x 	c #F99D29",
"y 	c #F99B27",
"z 	c #F89621",
"A 	c #F8941F",
"B 	c #F8911C",
"C 	c #F5A64C",
"D 	c #F0B77A",
"E 	c #CF5E02",
"F 	c #8C5A2B",
"G 	c #A67126",
"H 	c #F9A838",
"I 	c #FBA836",
"J 	c #FAA735",
"K 	c #FAA532",
"L 	c #FAA230",
"M 	c #F1992B",
"N 	c #D99749",
"O 	c #EBCDAD",
"P 	c #ECC496",
"Q 	c #F69A2C",
"R 	c #F8921C",
"S 	c #F78F1A",
"T 	c #F3BD81",
"U 	c #D87218",
"V 	c #D06106",
"W 	c #7D7160",
"X 	c #291F10",
"Y 	c #FAAA3A",
"Z 	c #FBAC3A",
"` 	c #FBAA38",
" .	c #FAA633",
"..	c #F7A130",
"+.	c #D18E3F",
"@.	c #FBF6F0",
"#.	c #FFFFFF",
"$.	c #F4DEC6",
"%.	c #F89522",
"&.	c #F8921D",
"*.	c #F4B065",
"=.	c #E8903A",
"-.	c #D15F01",
";.	c #D06102",
">.	c #E7A25B",
",.	c #998568",
"'.	c #996723",
").	c #FBAD3C",
"!.	c #F8AC3B",
"~.	c #E69A34",
"{.	c #E89E3B",
"].	c #F9A534",
"^.	c #E3912A",
"/.	c #E4BF96",
"(.	c #F3B165",
"_.	c #F7901A",
":.	c #F5A449",
"<.	c #EFA558",
"[.	c #D15E01",
"}.	c #D06104",
"|.	c #EDBA7F",
"1.	c #CAA169",
"2.	c #F3A536",
"3.	c #F9AA3A",
"4.	c #D4903C",
"5.	c #F5E8D9",
"6.	c #FDFAF7",
"7.	c #ECCA9F",
"8.	c #D78726",
"9.	c #F5E6D7",
"0.	c #F7DABA",
"a.	c #F6972E",
"b.	c #F2B572",
"c.	c #CE5C00",
"d.	c #D06003",
"e.	c #EFC99B",
"f.	c #F7BA65",
"g.	c #FBA837",
"h.	c #EB9C33",
"i.	c #E7C8A3",
"j.	c #E6BE90",
"k.	c #7F7F7F",
"l.	c #EEEEEE",
"m.	c #FBEFE2",
"n.	c #F78E19",
"o.	c #F2BD81",
"p.	c #F0D6B3",
"q.	c #F8AE4A",
"r.	c #FAA734",
"s.	c #DD8E2B",
"t.	c #F2E1CD",
"u.	c #C3C3C3",
"v.	c #F3F3F3",
"w.	c #EAEAEA",
"x.	c #B0B0B0",
"y.	c #FFFDFB",
"z.	c #F8911D",
"A.	c #F78F19",
"B.	c #F78C16",
"C.	c #F3BA7C",
"D.	c #D36408",
"E.	c #CF5C01",
"F.	c #F0DBBD",
"G.	c #F9A93F",
"H.	c #FAA432",
"I.	c #CE8125",
"J.	c #F9F1E8",
"K.	c #191919",
"L.	c #959595",
"M.	c #FBFBFB",
"N.	c #131313",
"O.	c #CECECE",
"P.	c #FEF0DF",
"Q.	c #F8911B",
"R.	c #F78E18",
"S.	c #F3B776",
"T.	c #D5690D",
"U.	c #EFC899",
"V.	c #FAA22F",
"W.	c #CE8227",
"X.	c #FFFEFD",
"Y.	c #1B1B1B",
"Z.	c #989898",
"`.	c #F4F4F4",
" +	c #FDDDB8",
".+	c #F8901A",
"++	c #F78D18",
"@+	c #F48915",
"#+	c #F3B673",
"$+	c #D66B0F",
"%+	c #EAAE70",
"&+	c #F5BF79",
"*+	c #FAA02D",
"=+	c #DC8B2B",
"-+	c #FEFCFA",
";+	c #CACACA",
">+	c #F5F5F5",
",+	c #FCCA91",
"'+	c #F68E19",
")+	c #E07D13",
"!+	c #D57818",
"~+	c #F2B574",
"{+	c #CF5D00",
"]+	c #E29145",
"^+	c #F3CA96",
"/+	c #F99E2A",
"(+	c #E89026",
"_+	c #F1DDC8",
":+	c #FEE7CC",
"<+	c #FDD5A6",
"[+	c #FABA6E",
"}+	c #F9A644",
"|+	c #F8982B",
"1+	c #E38117",
"2+	c #CD8842",
"3+	c #CCAE91",
"4+	c #DD872F",
"5+	c #EEA256",
"6+	c #D76F16",
"7+	c #F1D6B4",
"8+	c #F69A27",
"9+	c #E4B580",
"0+	c #FEF4E6",
"a+	c #FBBF76",
"b+	c #F89825",
"c+	c #F7931F",
"d+	c #E5851A",
"e+	c #D28739",
"f+	c #DDC2A7",
"g+	c #DBDBDB",
"h+	c #CEB193",
"i+	c #E5994A",
"j+	c #E68C35",
"k+	c #D25E00",
"l+	c #F1D3AF",
"m+	c #F8A137",
"n+	c #F99925",
"o+	c #F69929",
"p+	c #F9E5CE",
"q+	c #FCC788",
"r+	c #F99B2A",
"s+	c #F89722",
"t+	c #F79421",
"u+	c #E7871C",
"v+	c #D2822F",
"w+	c #E9C8A5",
"x+	c #F3F2F1",
"y+	c #E8E8E8",
"z+	c #DDDDDD",
"A+	c #CB9F75",
"B+	c #EDB06D",
"C+	c #D4660D",
"D+	c #EEBE89",
"E+	c #F6AC54",
"F+	c #EF8F1F",
"G+	c #DB7F1A",
"H+	c #D59047",
"I+	c #E7C49F",
"J+	c #FEFAF7",
"K+	c #F6F6F6",
"L+	c #EBEBEB",
"M+	c #D7D7D7",
"N+	c #CA9867",
"O+	c #ED9E4D",
"P+	c #E9A662",
"Q+	c #F4B871",
"R+	c #F89420",
"S+	c #F69220",
"T+	c #E5871B",
"U+	c #D4842D",
"V+	c #DBAD7D",
"W+	c #F5E7D9",
"X+	c #F0F0F0",
"Y+	c #D9D9D9",
"Z+	c #D5C8BD",
"`+	c #D9995A",
" @	c #DC7218",
".@	c #E18A3A",
"+@	c #F3C48D",
"@@	c #EC891B",
"#@	c #CD9357",
"$@	c #DAC2A8",
"%@	c #EBEAE9",
"&@	c #FCFCFC",
"*@	c #ECECEC",
"=@	c #E7E7E7",
"-@	c #E6E6E6",
";@	c #CF955E",
">@	c #EEA458",
",@	c #D3660B",
"'@	c #F1D0A9",
")@	c #E78820",
"!@	c #D1AF8D",
"~@	c #E0E0E0",
"{@	c #E9E9E9",
"]@	c #F1F1F1",
"^@	c #FDFDFD",
"/@	c #E9D4BF",
"(@	c #DD9752",
"_@	c #E48226",
":@	c #D15E00",
"<@	c #EEB67B",
"[@	c #F5A751",
"}@	c #D28435",
"|@	c #D4D3D1",
"1@	c #D5D5D5",
"2@	c #E4E4E4",
"3@	c #FEFEFE",
"4@	c #FCF6F0",
"5@	c #D38841",
"6@	c #F1AD65",
"7@	c #D06206",
"8@	c #E98C34",
"9@	c #F3953A",
"0@	c #E88428",
"a@	c #D16106",
"b@	c #E28C3C",
"c@	c #F2BE83",
"d@	c #EF8513",
"e@	c #CDB091",
"f@	c #D1D1D1",
"g@	c #E5E5E5",
"h@	c #FDF9F5",
"i@	c #D58B42",
"j@	c #EF9E4C",
"k@	c #EB8F36",
"l@	c #D15F00",
"m@	c #D26409",
"n@	c #ED923B",
"o@	c #F48A23",
"p@	c #F57C06",
"q@	c #F4881E",
"r@	c #EC892C",
"s@	c #D16005",
"t@	c #F1C89C",
"u@	c #F68F21",
"v@	c #E37B11",
"w@	c #D2A271",
"x@	c #ECEAE8",
"y@	c #FBF3EB",
"z@	c #D8914F",
"A@	c #EE7F0D",
"B@	c #F2B06D",
"C@	c #D76B0D",
"D@	c #D16206",
"E@	c #EC9440",
"F@	c #F4871D",
"G@	c #F57900",
"H@	c #F48518",
"I@	c #E68123",
"J@	c #ECAA67",
"K@	c #F4A550",
"L@	c #F6860F",
"M@	c #ED800D",
"N@	c #D47D28",
"O@	c #D6995F",
"P@	c #E3BA93",
"Q@	c #DA9F67",
"R@	c #D16E0F",
"S@	c #EE7C09",
"T@	c #F4922D",
"U@	c #F0A152",
"V@	c #CE5D00",
"W@	c #E28531",
"X@	c #F48C26",
"Y@	c #F57901",
"Z@	c #F48B24",
"`@	c #D5670C",
" #	c #DF802B",
".#	c #F2BB80",
"+#	c #F6830C",
"@#	c #F6830B",
"##	c #F5810B",
"$#	c #ED7D09",
"%#	c #F17E09",
"&#	c #F58008",
"*#	c #F57F07",
"=#	c #F39E46",
"-#	c #E88830",
";#	c #D25F00",
">#	c #D56D16",
",#	c #F2973E",
"'#	c #F57A03",
")#	c #F57F0C",
"!#	c #ED831F",
"~#	c #D05E00",
"{#	c #D05F01",
"]#	c #F1BE89",
"^#	c #F58C1F",
"/#	c #F68109",
"(#	c #F68009",
"_#	c #F57E06",
":#	c #F57E05",
"<#	c #F57D04",
"[#	c #F3A252",
"}#	c #E0791F",
"|#	c #D15F04",
"1#	c #EF9642",
"2#	c #F48212",
"3#	c #F4871C",
"4#	c #D86908",
"5#	c #EB9E54",
"6#	c #F3A14E",
"7#	c #F57D05",
"8#	c #F57C04",
"9#	c #F57B03",
"0#	c #F57A02",
"a#	c #F2A75D",
"b#	c #D56A10",
"c#	c #E3812C",
"d#	c #F4902E",
"e#	c #F57F0D",
"f#	c #E87913",
"g#	c #DE771E",
"h#	c #F1B77B",
"i#	c #F57C03",
"j#	c #F57B02",
"k#	c #F57A01",
"l#	c #F2A65B",
"m#	c #D86D12",
"n#	c #D3680F",
"o#	c #F29B45",
"p#	c #F28419",
"q#	c #D05E02",
"r#	c #F1B274",
"s#	c #F39940",
"t#	c #E0802D",
"u#	c #D15D00",
"v#	c #EC903A",
"w#	c #F4891F",
"x#	c #F58111",
"y#	c #F57D07",
"z#	c #F58110",
"A#	c #DC6B08",
"B#	c #D05D00",
"C#	c #E9903E",
"D#	c #F3A253",
"E#	c #E99545",
"F#	c #DE781E",
"G#	c #F3983E",
"H#	c #F48D29",
"I#	c #EE8826",
"J#	c #F57E09",
"K#	c #EB7A10",
"L#	c #D05F00",
"M#	c #D56406",
"N#	c #F1B476",
"O#	c #F48213",
"P#	c #F3A151",
"Q#	c #DD7620",
"R#	c #D56A12",
"S#	c #F19C47",
"T#	c #F5800F",
"U#	c #E87C1A",
"V#	c #CE5B00",
"W#	c #E1710C",
"X#	c #F48920",
"Y#	c #D26004",
"Z#	c #EB903B",
"`#	c #F3A050",
" $	c #F19F51",
".$	c #D9731E",
"+$	c #EF9A49",
"@$	c #F48B25",
"#$	c #F08620",
"$$	c #CF5E00",
"%$	c #EE8119",
"&$	c #E26E07",
"*$	c #CE5E00",
"=$	c #D76606",
"-$	c #F2B06F",
";$	c #F48519",
">$	c #F2A151",
",$	c #F39130",
"'$	c #D66302",
")$	c #D86806",
"!$	c #F4861B",
"~$	c #F27906",
"{$	c #ED8F37",
"]$	c #F39E4B",
"^$	c #F49131",
"/$	c #E27410",
"($	c #EA7B13",
"_$	c #F57F0B",
":$	c #E77002",
"<$	c #DB6805",
"[$	c #F2AC67",
"}$	c #EF8928",
"|$	c #D56204",
"1$	c #F48313",
"2$	c #E16A00",
"3$	c #EC8C32",
"4$	c #F39C47",
"5$	c #F39436",
"6$	c #D86808",
"7$	c #E47208",
"8$	c #EA7000",
"9$	c #F48E2B",
"0$	c #E9801E",
"a$	c #EB7709",
"b$	c #F57B04",
"c$	c #F07600",
"d$	c #D76400",
"e$	c #E7862D",
"f$	c #F39B44",
"g$	c #F2902F",
"h$	c #F07806",
"i$	c #ED7300",
"j$	c #D76300",
"k$	c #CE5F03",
"l$	c #F09D4C",
"m$	c #F48E2A",
"n$	c #F39538",
"o$	c #B85708",
"p$	c #B45508",
"q$	c #D26101",
"r$	c #F37800",
"s$	c #F47900",
"t$	c #A2520F",
"u$	c #D2660B",
"v$	c #F1A051",
"w$	c #F48314",
"x$	c #F57B05",
"y$	c #F39335",
"z$	c #DD7416",
"A$	c #B95707",
"B$	c #313434",
"C$	c #2E3436",
"D$	c #B45708",
"E$	c #D46200",
"F$	c #F37700",
"G$	c #A8520C",
"H$	c #D76F17",
"I$	c #F39F4D",
"J$	c #F48F2C",
"K$	c #F48416",
"L$	c #F4881F",
"M$	c #F3963B",
"N$	c #E57E20",
"O$	c #C05805",
"P$	c #383632",
"Q$	c #323434",
"R$	c #974F12",
"S$	c #CB5C01",
"T$	c #DF6900",
"U$	c #EB7100",
"V$	c #F37600",
"W$	c #EE7300",
"X$	c #E76F00",
"Y$	c #D36000",
"Z$	c #C25A04",
"`$	c #B65608",
" %	c #D16408",
".%	c #E9882C",
"+%	c #F09236",
"@%	c #ED8A2B",
"#%	c #D96D10",
"$%	c #C75A02",
"%%	c #463A2D",
"&%	c #543D28",
"*%	c #AB540B",
"=%	c #C55A03",
"-%	c #CD5C00",
";%	c #CA5C01",
">%	c #C45B03",
",%	c #80481A",
"'%	c #C25904",
")%	c #CA5B01",
"!%	c #C75A03",
"~%	c #9E5010",
"{%	c #3E3730",
"                                                                                                ",
"                                                                                                ",
"                        . + @ # .                                                               ",
"                    $ % & * = - ; > , '                                                         ",
"                @ ) ! ~ { ] - ^ - / ( _ :                                                       ",
"              , < [ } | 1 2 3 4 5 6 7 8 9 0                                                     ",
"            a b c d e f g h i j k l m n o p                                                     ",
"          q r - s t u v | w x y 4 z A B C D :                                                   ",
"        E F - G H I J K L M N O P Q A R S T U                                                   ",
"        V W X Y Z ` I  ...+.@.#.#.$.%.&.S *.=.-.                                                ",
"      ;.>.,.'.).!.~.{.].^./.#.#.#.#.(.&._.:.<.[.                                                ",
"      }.|.1.2.3.4.5.6.7.8.9.#.#.#.#.0.&._.a.b.c.                                                ",
"      d.e.f.g.h.i.#.#.#.j.#.#.k.l.#.m.R S n.o.,                                                 ",
"      . p.q.r.s.t.#.u.v.#.#.w.- x.#.y.z.A.B.C.D.                                                ",
"      E.F.G.H.I.J.#.K.L.#.#.M.N.O.#.P.Q.R.B.S.T.                                                ",
"      @ U.} V.W.X.#.Y.Z.#.#.#.`.#.#. +.+++@+#+$+                                                ",
"      . %+&+*+=+-+#.;+>+#.#.#.#.#.#.,+'+)+!+~+{+                                                ",
"        ]+^+/+(+_+#.#.#.#.:+<+[+}+|+1+2+3+4+5+-.                                                ",
"        6+7+y 8+9+#.#.0+a+b+z c+d+e+f+g+h+i+j+k+                                                ",
"        0 l+m+n+o+p+q+r+s+t+u+v+w+x+y+z+A+B+C+                                                  ",
"        @ D+E+s+s+s+z F+G+H+I+J+#.K+L+M+N+O+0                                                   ",
"        . P+Q+R+S+T+U+V+W+#.#.#.#.X+Y+Z+`+ @                                                    ",
"          .@+@@@#@$@%@v.M.#.#.&@*@=@-@;@>@{+                                                    ",
"          ,@'@)@!@~@{@]@`.K+#.#.#.^@/@(@_@:@              : : :@                                ",
"          : <@[@}@|@M+1@2@3@#.#.#.4@5@6@:               7@8@9@0@a@                              ",
"          E b@c@d@e@f@g@K+3@#.#.h@i@j@k@l@            m@n@o@p@q@r@s@                            ",
"            a@t@u@v@w@x@`.&@#.y@z@A@B@C@            D@E@F@G@G@G@H@I@{+                          ",
"            ' J@K@L@M@N@O@P@Q@R@S@T@U@V@          :@W@X@G@G@G@G@Y@Z@`@                          ",
"               #.#+#+#@###$#%#&#*#=#-#;#          >#,#'#G@G@G@G@G@)#!#~#                        ",
"              {#]#^#/#(#&#*#_#:#<#[#}#          |#1#2#G@G@G@G@G@G@G@3#4#                        ",
"              :@5#6#_#_#:#7#8#9#0#a#b#        :@c#d#G@G@G@G@G@G@G@G@e#f#:@                      ",
"                g#h#8#i#9#j#k#G@G@l#m#        n#o#p@G@G@G@G@G@G@G@G@0#p#q#                      ",
"                V@r#q@G@G@G@G@G@G@s#t#      u#v#w#G@G@G@Y@x#y#G@G@G@G@z#A#                      ",
"                B#C#D#G@G@G@G@G@G@X@E#~#  u#F#G#Y@G@G@p@H#I#H#J#G@G@G@p@K#L#                    ",
"                  M#N#O#G@G@G@G@G@p@P#Q#{+R#S#T#G@G@'#d#U#V#W#X#Y@G@G@G@e#Y#                    ",
"                  u#Z#`#G@G@G@G@G@G@T# $.$+$H@G@G@G@@$#$$$  $$%$e#G@G@G@p@&$*$                  ",
"                    =$-$2#G@G@G@G@G@G@;$>$w#G@G@G@z#,$'$      )$!$Y@G@G@Y@~$:                   ",
"                    $${$]$G@G@G@G@G@G@G@x#G@G@G@Y@^$/$B#      :@($_$G@G@G@0#:$B#                ",
"                      <$[$2#G@G@G@G@G@G@G@G@G@G@!$}$B#          |$1$0#G@G@G@G@2$B#              ",
"                      :@3$4$G@G@G@G@G@G@G@G@G@p@5$6$            ~#7$_$G@G@G@G@G@8$$$            ",
"                        |$a#2#G@G@G@G@G@G@G@G@9$0$~#              B#a$b$G@G@G@G@G@c$d$:@        ",
"                        u#e$f$G@G@G@G@G@G@G@!$g$-.                  -.h$G@G@G@G@G@G@G@i$j$:@    ",
"                          k$l$m$G@G@G@G@G@_$n$4#o$                  p$q$r$G@G@G@G@G@G@G@s$B#    ",
"                          t$u$v$w$G@G@G@x$y$z$A$B$C$C$C$C$C$C$        D$E$c$G@G@G@G@G@G@F$c.    ",
"                          C$G$H$I$J$K$L$M$N$O$P$C$C$C$C$C$C$C$C$C$C$C$Q$R$S$T$U$V$r$W$X$Y$Z$    ",
"                          C$Q$`$ %.%+%@%#%$%%%C$C$C$C$C$C$C$C$C$C$C$C$C$  &%*%=%-%-%;%>%        ",
"                                ,%'%)%!%~%{%C$C$C$C$C$C$C$C$                                    ",
"                                                                                                "};
