/* XPM */
static char * game_gnect_xpm[] = {
"48 48 378 2",
"  	c None",
". 	c #A50202",
"+ 	c #A90202",
"@ 	c #A70202",
"# 	c #AA0404",
"$ 	c #A70404",
"% 	c #CD4847",
"& 	c #E47776",
"* 	c #E88281",
"= 	c #E27171",
"- 	c #C63B3A",
"; 	c #A90404",
"> 	c #E16E6D",
", 	c #EE6B6A",
"' 	c #EF3938",
") 	c #EF2E2E",
"! 	c #EF3E3E",
"~ 	c #EE7675",
"{ 	c #DC5959",
"] 	c #A80202",
"^ 	c #D04342",
"/ 	c #ED5B5B",
"( 	c #EE2828",
"_ 	c #EE2A2A",
": 	c #EE6A69",
"< 	c #C62E2D",
"[ 	c #E3605F",
"} 	c #E92727",
"| 	c #E82121",
"1 	c #E83434",
"2 	c #DD5150",
"3 	c #A50404",
"4 	c #A40303",
"5 	c #E2504F",
"6 	c #E21A1A",
"7 	c #E22222",
"8 	c #DE4847",
"9 	c #A70101",
"0 	c #D73535",
"a 	c #DD1717",
"b 	c #DC1313",
"c 	c #DD1E1E",
"d 	c #D22C2C",
"e 	c #A10404",
"f 	c #A70000",
"g 	c #C11313",
"h 	c #D81A19",
"i 	c #D60C0C",
"j 	c #D71E1D",
"k 	c #B70D0D",
"l 	c #840D0E",
"m 	c #C70808",
"n 	c #D10808",
"o 	c #D10606",
"p 	c #D10505",
"q 	c #D10909",
"r 	c #C50707",
"s 	c #A20202",
"t 	c #A50000",
"u 	c #B80000",
"v 	c #C60000",
"w 	c #CA0000",
"x 	c #C50000",
"y 	c #B30101",
"z 	c #A20102",
"A 	c #5A1E20",
"B 	c #A40101",
"C 	c #A30000",
"D 	c #A10202",
"E 	c #8B0C0C",
"F 	c #519E0A",
"G 	c #509C09",
"H 	c #509B0B",
"I 	c #498A0F",
"J 	c #529D09",
"K 	c #82BF46",
"L 	c #A9DA78",
"M 	c #B4E287",
"N 	c #AADC78",
"O 	c #83C348",
"P 	c #519D08",
"Q 	c #519E08",
"R 	c #9AD460",
"S 	c #A9E56E",
"T 	c #92E242",
"U 	c #8CE238",
"V 	c #9CD762",
"W 	c #509E08",
"X 	c #78BE37",
"Y 	c #A2E361",
"Z 	c #88E032",
"` 	c #7DC339",
" .	c #52A009",
"..	c #539F0A",
"+.	c #96D558",
"@.	c #8ADF38",
"#.	c #84DE2D",
"$.	c #99DA5A",
"%.	c #519C09",
"&.	c #519C08",
"*.	c #96D954",
"=.	c #82DB2A",
"-.	c #81DB28",
";.	c #99DD57",
">.	c #4F9A07",
",.	c #86CF3D",
"'.	c #81D82A",
").	c #7DD823",
"!.	c #89D540",
"~.	c #509A08",
"{.	c #4A8C0F",
"].	c #68B71C",
"^.	c #84D831",
"/.	c #79D61E",
"(.	c #6CBA1E",
"_.	c #4A8710",
":.	c #509D06",
"<.	c #72C520",
"[.	c #7CD425",
"}.	c #77D31C",
"|.	c #77D31A",
"1.	c #75C921",
"2.	c #4F9A08",
"3.	c #4F9C06",
"4.	c #5DB10D",
"5.	c #6EC815",
"6.	c #72CE17",
"7.	c #6FC915",
"8.	c #60B40F",
"9.	c #4E9908",
"0.	c #3B631F",
"a.	c #4E9A08",
"b.	c #4F9B08",
"c.	c #4E9A06",
"d.	c #4E9907",
"e.	c #498810",
"f.	c #529F0A",
"g.	c #509D08",
"h.	c #529F09",
"i.	c #4F9C08",
"j.	c #529E09",
"k.	c #509A0B",
"l.	c #488510",
"m.	c #519E09",
"n.	c #539D0D",
"o.	c #4B8F0E",
"p.	c #A70303",
"q.	c #C74140",
"r.	c #E27473",
"s.	c #E98382",
"t.	c #E37473",
"u.	c #CB4342",
"v.	c #A60202",
"w.	c #539E0B",
"x.	c #87C54D",
"y.	c #ABDC7B",
"z.	c #B4E187",
"A.	c #A7DA77",
"B.	c #7DBD3F",
"C.	c #559F10",
"D.	c #91CB5A",
"E.	c #B2E184",
"F.	c #B5E487",
"G.	c #B0E081",
"H.	c #88C54C",
"I.	c #DD6363",
"J.	c #EE7171",
"K.	c #EF3B3B",
"L.	c #EE2E2E",
"M.	c #E06565",
"N.	c #519F0A",
"O.	c #A0D869",
"P.	c #A7E56A",
"Q.	c #8FE13F",
"R.	c #8BE137",
"S.	c #93E245",
"T.	c #ACE572",
"U.	c #94D258",
"V.	c #54A00D",
"W.	c #A6DC70",
"X.	c #A3E561",
"Y.	c #8CE239",
"Z.	c #89E133",
"`.	c #8EE23D",
" +	c #A7E46A",
".+	c #9BD761",
"++	c #C83636",
"@+	c #ED6262",
"#+	c #CD3939",
"$+	c #82C641",
"%+	c #9FE35B",
"&+	c #88DF33",
"*+	c #A5E367",
"=+	c #73BB2F",
"-+	c #529F08",
";+	c #87C747",
">+	c #9BE255",
",+	c #A3E363",
"'+	c #79C034",
")+	c #DE5756",
"!+	c #E82E2E",
"~+	c #E35958",
"{+	c #9CDB60",
"]+	c #86DE32",
"^+	c #8DDF3D",
"/+	c #92D552",
"(+	c #519D0B",
"_+	c #9DDB61",
":+	c #85DD30",
"<+	c #84DD2D",
"[+	c #8CDE3B",
"}+	c #519C0A",
"|+	c #A60101",
"1+	c #DE4C4C",
"2+	c #E21E1D",
"3+	c #E14F4F",
"4+	c #A40000",
"5+	c #509B09",
"6+	c #85DC30",
"7+	c #93D74F",
"8+	c #519B09",
"9+	c #97DC54",
"0+	c #80DB27",
"a+	c #84DC2F",
"b+	c #91D74D",
"c+	c #D23030",
"d+	c #DD1A1A",
"e+	c #D73131",
"f+	c #A30202",
"g+	c #509B08",
"h+	c #8BD443",
"i+	c #7FD926",
"j+	c #83D92D",
"k+	c #83CE3A",
"l+	c #4F990B",
"m+	c #89D241",
"n+	c #80D926",
"o+	c #7DD822",
"p+	c #83D82D",
"q+	c #82CD37",
"r+	c #4F970B",
"s+	c #930909",
"t+	c #BD0F0E",
"u+	c #D81C1B",
"v+	c #C11110",
"w+	c #8F0B0B",
"x+	c #4E930C",
"y+	c #6DBD22",
"z+	c #82D72F",
"A+	c #7AD61F",
"B+	c #85D834",
"C+	c #66B41A",
"D+	c #467E14",
"E+	c #4C910C",
"F+	c #6BB91D",
"G+	c #83D72E",
"H+	c #79D51D",
"I+	c #7AD51E",
"J+	c #84D632",
"K+	c #61AF16",
"L+	c #447A17",
"M+	c #A60000",
"N+	c #D20909",
"O+	c #C70707",
"P+	c #75C922",
"Q+	c #7CD324",
"R+	c #78D41C",
"S+	c #78D41D",
"T+	c #7DD425",
"U+	c #71C51E",
"V+	c #4F9808",
"W+	c #70C41D",
"X+	c #7BD323",
"Y+	c #76D31A",
"Z+	c #7CD424",
"`+	c #6BBF18",
" @	c #4E9609",
".@	c #B50000",
"+@	c #B60101",
"@@	c #A30101",
"#@	c #641A1C",
"$@	c #4F9C07",
"%@	c #61B50E",
"&@	c #70CA16",
"*@	c #5EB00E",
"=@	c #4E9A07",
"-@	c #3A5922",
";@	c #5CAE0D",
">@	c #6BC413",
",@	c #69C112",
"'@	c #5AA90D",
")@	c #4E9608",
"!@	c #385025",
"~@	c #A20101",
"{@	c #8E0A0A",
"]@	c #4F9B09",
"^@	c #4F9908",
"/@	c #478411",
"(@	c #4D9709",
"_@	c #4F9A09",
":@	c #4E960B",
"<@	c #457A15",
"[@	c #A90303",
"}@	c #A70707",
"|@	c #960909",
"1@	c #AA0909",
"2@	c #D45555",
"3@	c #EB8483",
"4@	c #E77D7D",
"5@	c #CE4747",
"6@	c #A80303",
"7@	c #AB0606",
"8@	c #E47675",
"9@	c #EF6261",
"0@	c #F03030",
"a@	c #EF2929",
"b@	c #EF3535",
"c@	c #EE6E6E",
"d@	c #E16564",
"e@	c #D34847",
"f@	c #ED5352",
"g@	c #ED2727",
"h@	c #ED6362",
"i@	c #C93232",
"j@	c #E35F5E",
"k@	c #E82424",
"l@	c #E82020",
"m@	c #E83131",
"n@	c #DE504F",
"o@	c #A50303",
"p@	c #A60303",
"q@	c #E14D4D",
"r@	c #E21919",
"s@	c #E22121",
"t@	c #DD4545",
"u@	c #A40202",
"v@	c #D73333",
"w@	c #DC1717",
"x@	c #DD1F1F",
"y@	c #D22A2A",
"z@	c #9E0406",
"A@	c #9F0505",
"B@	c #9E0404",
"C@	c #A80000",
"D@	c #BE0F0F",
"E@	c #D71A1A",
"F@	c #D60D0D",
"G@	c #D81E1E",
"H@	c #B60C0C",
"I@	c #7D1212",
"J@	c #940809",
"K@	c #7D1111",
"L@	c #970608",
"M@	c #C30606",
"N@	c #D00707",
"O@	c #D00606",
"P@	c #CF0505",
"Q@	c #C00505",
"R@	c #9F0304",
"S@	c #9E0303",
"T@	c #9F0303",
"U@	c #B30000",
"V@	c #C20000",
"W@	c #C70000",
"X@	c #C10000",
"Y@	c #AE0101",
"Z@	c #A00303",
"`@	c #4F2424",
" #	c #A00203",
".#	c #502223",
"+#	c #B20000",
"@#	c #A00202",
"##	c #502323",
"$#	c #7F0F11",
"%#	c #9D0303",
"&#	c #801011",
"*#	c #A10000",
"=#	c #811010",
"                                                                                                ",
"                                                                                                ",
"                                                                            . + @ #             ",
"                                                                          $ % & * = - @         ",
"                                                                        ; > , ' ) ! ~ { ]       ",
"                                                                      + ^ / ( ( ( ( _ : <       ",
"                                                                      @ [ } | | | | | 1 2 3     ",
"                                                                      4 5 6 6 6 6 6 6 7 8 .     ",
"                                                                      9 0 a b b b b b c d e     ",
"                                                                      f g h i i i i i j k l     ",
"                                                                        f m n o p o q r s       ",
"                                                                          t u v w x y z A       ",
"                                                                            s B C D E           ",
"                                                      . + @ #                 F G H I           ",
"                                                    $ % & * = - @         J K L M N O P         ",
"                                                  ; > , ' ) ! ~ { ]     Q R S T U T S V W       ",
"                                                + ^ / ( ( ( ( _ : <     X Y Z Z Z Z Z Y `  .    ",
"                                                @ [ } | | | | | 1 2 3 ..+.@.#.#.#.#.#.@.$.%.    ",
"                                                4 5 6 6 6 6 6 6 7 8 . &.*.=.-.-.-.-.-.=.;.>.    ",
"                                                9 0 a b b b b b c d e %.,.'.).).).).).'.!.~.    ",
"                                                f g h i i i i i j k l {.].^./././././.^.(._.    ",
"                                                  f m n o p o q r s     :.<.[.}.|.}.[.1.2.      ",
"                                                    t u v w x y z A       3.4.5.6.7.8.9.0.      ",
"                                                      s B C D E             a.b.c.d.e.          ",
"            f.g.h.i.              # @ + .             i.j.G k.l.            m.P n.G o.          ",
"        J K L M N O P         p.q.r.s.t.u.v.        w.x.y.z.A.B.P         C.D.E.F.G.H.m.        ",
"      Q R S T U T S V W     ] I.J.K.L.K.J.M.]     N.O.P.Q.R.S.T.U.Q     V.W.X.Y.Z.`. +.+P       ",
"      X Y Z Z Z Z Z Y `  .  ++@+( ( ( ( ( @+#++  .$+%+Z Z Z Z &+*+=+  -+;+>+Z Z Z Z Z ,+'+      ",
"    ..+.@.#.#.#.#.#.@.$.%.+ )+!+| | | | | !+~+. P {+]+#.#.#.#.#.^+/+(+P _+:+<+<+<+<+<+[+/+}+    ",
"    P *.=.-.-.-.-.-.=.;.>.|+1+2+6 6 6 6 6 2+3+4+5+;.-.-.-.-.-.-.6+7+8+5+9+0+0+0+0+0+0+a+b+8+    ",
"    -+,.'.).).).).).'.!.~.. c+d+b b b b b d+e+f+g+h+i+).).).).).j+k+l+&.m+n+o+o+o+o+o+p+q+r+    ",
"      ].^./././././.^.(._.s+t+u+i i i i i u+v+w+x+y+z+/./././.A+B+C+D+E+F+G+H+H+H+H+I+J+K+L+    ",
"      :.<.[.}.|.}.[.1.2.    M+r N+o p o N+O+s     :.P+Q+R+|.S+T+U+V+    3.W+X+}.Y+}.Z+`+ @      ",
"        3.4.5.6.7.8.9.0.      t .@x w v +@@@#@      $@%@&@6.5.*@=@-@      3.;@>@7.,@'@)@!@      ",
"          a.b.c.d.e.            s B C ~@{@            ]@>.c.^@/@            (@_@=@:@<@          ",
"          [@@ }@4 |@            [@@ }@4 |@            [@@ }@4 |@            [@@ }@4 |@          ",
"        1@2@* 3@4@5@6@        1@2@* 3@4@5@6@        1@2@* 3@4@5@6@        1@2@* 3@4@5@6@        ",
"      7@8@9@0@a@b@c@d@@     7@8@9@0@a@b@c@d@@     7@8@9@0@a@b@c@d@@     7@8@9@0@a@b@c@d@@       ",
"    6@e@f@g@g@g@g@g@h@i@  6@e@f@g@g@g@g@g@h@i@  6@e@f@g@g@g@g@g@h@i@  6@e@f@g@g@g@g@g@h@i@.     ",
"    9 j@k@l@l@l@l@l@m@n@o@9 j@k@l@l@l@l@l@m@n@p@9 j@k@l@l@l@l@l@m@n@p@9 j@k@l@l@l@l@l@m@n@o@    ",
"    o@q@r@r@r@r@r@r@s@t@u@p@q@r@r@r@r@r@r@s@t@. p@q@r@r@r@r@r@r@s@t@. p@q@r@r@r@r@r@r@s@t@u@    ",
"    |+v@w@b b b b b x@y@z@. v@w@b b b b b x@y@A@. v@w@b b b b b x@y@A@. v@w@b b b b b x@y@B@    ",
"    C@D@E@i i i i F@G@H@I@J@D@E@i i i i F@G@H@K@L@D@E@i i i i F@G@H@K@L@D@E@i i i i F@G@H@K@    ",
"      M+M@N@O@P@O@n Q@R@    M+M@N@O@P@O@n Q@S@    M+M@N@O@P@O@n Q@S@    M+M@N@O@P@O@n Q@T@      ",
"        t U@V@W@X@Y@Z@`@      t U@V@W@X@Y@ #.#      t U@V@W@X@Y@ #.#      t +#V@W@X@Y@@###      ",
"          C @@~@S@$#            @#~@@@%#&#            @#~@@@%#&#            *#@@~@S@=#          ",
"                                                                                                ",
"                                                                                                "};
