/* XPM */
static char * game_glines_xpm[] = {
"48 48 451 2",
"  	c None",
". 	c #539F09",
"+ 	c #52A109",
"@ 	c #519F07",
"# 	c #54A109",
"$ 	c #58AA0A",
"% 	c #A70000",
"& 	c #A60000",
"* 	c #A40000",
"= 	c #204C88",
"- 	c #234E8B",
"; 	c #224D8A",
"> 	c #234E8A",
", 	c #509C07",
"' 	c #5FAF10",
") 	c #77CC25",
"! 	c #80D72C",
"~ 	c #7ACF26",
"{ 	c #62B515",
"] 	c #519E07",
"^ 	c #A50000",
"/ 	c #B80707",
"( 	c #D81A1A",
"_ 	c #E32222",
": 	c #DB1D1D",
"< 	c #BD0C0C",
"[ 	c #A70101",
"} 	c #224C89",
"| 	c #39659D",
"1 	c #5986BA",
"2 	c #6591C4",
"3 	c #5985B9",
"4 	c #37639C",
"5 	c #4F9C07",
"6 	c #70C51E",
"7 	c #87E030",
"8 	c #82DC2A",
"9 	c #80DB28",
"0 	c #81DB29",
"a 	c #84DE2C",
"b 	c #77CD25",
"c 	c #52A008",
"d 	c #D01515",
"e 	c #EC2626",
"f 	c #E61E1E",
"g 	c #E51C1C",
"h 	c #EA2323",
"i 	c #D81C1C",
"j 	c #224D89",
"k 	c #5581B6",
"l 	c #6C9ACB",
"m 	c #6492C6",
"n 	c #6391C5",
"o 	c #6493C6",
"p 	c #6B99CA",
"q 	c #527EB3",
"r 	c #244E8A",
"s 	c #5EB211",
"t 	c #86DF2F",
"u 	c #80DA27",
"v 	c #84DD2D",
"w 	c #88E032",
"x 	c #7FDA26",
"y 	c #69BC19",
"z 	c #58A80C",
"A 	c #BC0909",
"B 	c #EC2525",
"C 	c #E61D1D",
"D 	c #E82020",
"E 	c #EB2323",
"F 	c #EA2424",
"G 	c #E82121",
"H 	c #C71111",
"I 	c #A20303",
"J 	c #244E8B",
"K 	c #3F6CA5",
"L 	c #6B98CA",
"M 	c #6290C4",
"N 	c #6996C8",
"O 	c #6D9BCC",
"P 	c #6D9ACC",
"Q 	c #6795C7",
"R 	c #6998C9",
"S 	c #3D69A0",
"T 	c #4E9A07",
"U 	c #77CE24",
"V 	c #7DD923",
"W 	c #80DA26",
"X 	c #7CD822",
"Y 	c #78D51E",
"Z 	c #7ED529",
"` 	c #529F08",
" .	c #A60101",
"..	c #D91B1B",
"+.	c #E51D1D",
"@.	c #EB2424",
"#.	c #E92222",
"$.	c #E22121",
"%.	c #A70202",
"&.	c #234D8A",
"*.	c #628FC1",
"=.	c #5E8DC1",
"-.	c #5F8DC2",
";.	c #6492C5",
">.	c #6795C8",
",.	c #608EC2",
"'.	c #5C89BC",
").	c #254F89",
"!.	c #4F9A06",
"~.	c #81D72C",
"{.	c #75D419",
"].	c #76D41B",
"^.	c #78D51C",
"/.	c #76D31A",
"(.	c #73D216",
"_.	c #80DB29",
":.	c #4F9B07",
"<.	c #E32121",
"[.	c #E01717",
"}.	c #E11818",
"|.	c #E31B1B",
"1.	c #E31C1C",
"2.	c #E41C1C",
"3.	c #E21919",
"4.	c #E72121",
"5.	c #A50101",
"6.	c #204B88",
"7.	c #6E9ACB",
"8.	c #5381B9",
"9.	c #5785BB",
"0.	c #5988BD",
"a.	c #5B8ABF",
"b.	c #5A89BE",
"c.	c #5685BC",
"d.	c #628EC1",
"e.	c #4E9A06",
"f.	c #79CF26",
"g.	c #77D41B",
"h.	c #7DD529",
"i.	c #529D09",
"j.	c #A40202",
"k.	c #DB1C1C",
"l.	c #DC1414",
"m.	c #DB1111",
"n.	c #DC1313",
"o.	c #DD1414",
"p.	c #DD1313",
"q.	c #DB1212",
"r.	c #E11F1F",
"s.	c #A60303",
"t.	c #214C8A",
"u.	c #6491C3",
"v.	c #4A7BB4",
"w.	c #4B7BB4",
"x.	c #4D7DB6",
"y.	c #4F7DB6",
"z.	c #5B87BA",
"A.	c #254E88",
"B.	c #62B314",
"C.	c #76D51B",
"D.	c #6DC01D",
"E.	c #4E9010",
"F.	c #910909",
"G.	c #BF0B0B",
"H.	c #D40A0A",
"I.	c #D50B0B",
"J.	c #D60C0C",
"K.	c #D90E0E",
"L.	c #CB1414",
"M.	c #970A0B",
"N.	c #224B89",
"O.	c #426DA6",
"P.	c #5482BB",
"Q.	c #4070AC",
"R.	c #4271AD",
"S.	c #4272AD",
"T.	c #4171AD",
"U.	c #406BA4",
"V.	c #234470",
"W.	c #4F9B06",
"X.	c #77D51C",
"Y.	c #7BD127",
"Z.	c #509C09",
"`.	c #D61919",
" +	c #CE0303",
".+	c #CF0303",
"++	c #D50A0A",
"@+	c #5C89BD",
"#+	c #3567A5",
"$+	c #3666A4",
"%+	c #4373AE",
"&+	c #5683B8",
"*+	c #234C88",
"=+	c #65B517",
"-+	c #7ED32A",
";+	c #80DA29",
">+	c #6BBE1C",
",+	c #509B09",
"'+	c #3D631F",
")+	c #C20E0E",
"!+	c #DF1E1E",
"~+	c #E11C1C",
"{+	c #DD1B1B",
"]+	c #C81313",
"^+	c #A60202",
"/+	c #6A191B",
"(+	c #214B88",
"_+	c #436FA7",
":+	c #5F8CC0",
"<+	c #5C8BBF",
"[+	c #5A87BC",
"}+	c #416DA5",
"|+	c #234D88",
"1+	c #263D56",
"2+	c #4C9507",
"3+	c #4E9A08",
"4+	c #4E9907",
"5+	c #4F9808",
"6+	c #478511",
"7+	c #A10202",
"8+	c #A50202",
"9+	c #930A0A",
"0+	c #224B85",
"a+	c #224C88",
"b+	c #204A88",
"c+	c #234D87",
"d+	c #254778",
"e+	c #53A108",
"f+	c #4E9B06",
"g+	c #56A40C",
"h+	c #509C06",
"i+	c #63B614",
"j+	c #7FD42A",
"k+	c #87DE31",
"l+	c #69BC18",
"m+	c #519F08",
"n+	c #224C8A",
"o+	c #35609B",
"p+	c #5784B8",
"q+	c #6591C5",
"r+	c #5C88BB",
"s+	c #3B679F",
"t+	c #509B07",
"u+	c #75CB22",
"v+	c #87DF30",
"w+	c #81DC29",
"x+	c #80DB27",
"y+	c #82DD2B",
"z+	c #7CD229",
"A+	c #51A008",
"B+	c #234E89",
"C+	c #4E7AB1",
"D+	c #6E9BCC",
"E+	c #6291C5",
"F+	c #6A98C9",
"G+	c #5984B9",
"H+	c #224E8A",
"I+	c #63B613",
"J+	c #83DD2C",
"K+	c #7FDB27",
"L+	c #6CBF1C",
"M+	c #57A70B",
"N+	c #38659D",
"O+	c #6190C5",
"P+	c #6896C9",
"Q+	c #4571A8",
"R+	c #4D9B06",
"S+	c #78CE24",
"T+	c #7EDA26",
"U+	c #7FD925",
"V+	c #7BD822",
"W+	c #78D51D",
"X+	c #7ED62A",
"Y+	c #539F08",
"Z+	c #234F8A",
"`+	c #5785B9",
" @	c #608EC3",
".@	c #6390C2",
"+@	c #254E89",
"@@	c #75D418",
"#@	c #75D319",
"$@	c #77D51B",
"%@	c #4E9B07",
"&@	c #6590C4",
"*@	c #5484BB",
"=@	c #6592C5",
"-@	c #214A88",
";@	c #78CE25",
">@	c #7CD428",
",@	c #234C87",
"'@	c #4F7EB7",
")@	c #244D89",
"!@	c #5EB012",
"~@	c #81DB27",
"{@	c #6ABC1A",
"]@	c #4C8D11",
"^@	c #22487C",
"/@	c #3866A0",
"(@	c #5987BD",
"_@	c #3F70AB",
":@	c #4777B2",
"<@	c #4874AC",
"[@	c #244878",
"}@	c #4E9906",
"|@	c #72C521",
"1@	c #80DB26",
"2@	c #74D317",
"3@	c #7AD71F",
"4@	c #509B08",
"5@	c #3565A5",
"6@	c #4171AE",
"7@	c #5B87BC",
"8@	c #244E89",
"9@	c #5EAD13",
"0@	c #78CD27",
"a@	c #7FD529",
"b@	c #64B517",
"c@	c #4F9B08",
"d@	c #395A21",
"e@	c #214C88",
"f@	c #3E69A3",
"g@	c #5E8BBF",
"h@	c #5D8ABF",
"i@	c #5C87BD",
"j@	c #4772A8",
"k@	c #224D88",
"l@	c #263E5C",
"m@	c #4C930A",
"n@	c #4D960A",
"o@	c #4E9909",
"p@	c #4D950B",
"q@	c #457D12",
"r@	c #234A83",
"s@	c #244879",
"t@	c #204B87",
"u@	c #234B84",
"v@	c #214D89",
"w@	c #3D68A2",
"x@	c #618EC0",
"y@	c #6E9BCA",
"z@	c #6592C4",
"A@	c #446FA7",
"B@	c #C30E0E",
"C@	c #EB2727",
"D@	c #C10D0D",
"E@	c #5583B7",
"F@	c #6C9ACA",
"G@	c #6392C6",
"H@	c #608CC0",
"I@	c #244F8B",
"J@	c #DC1D1D",
"K@	c #D91C1C",
"L@	c #A80101",
"M@	c #224E89",
"N@	c #3C68A2",
"O@	c #6896C8",
"P@	c #6F9BCC",
"Q@	c #6895C8",
"R@	c #4975AD",
"S@	c #244D87",
"T@	c #C71010",
"U@	c #E51E1E",
"V@	c #C31010",
"W@	c #A60404",
"X@	c #5E8EC1",
"Y@	c #5E8CC1",
"Z@	c #6694C7",
"`@	c #6694C6",
" #	c #5F8CC2",
".#	c #638FC2",
"+#	c #DC1E1E",
"@#	c #A90303",
"##	c #5482BA",
"$#	c #5584BB",
"%#	c #5887BD",
"&#	c #5988BE",
"*#	c #5A88BE",
"=#	c #5585BB",
"-#	c #DE1515",
";#	c #E01818",
">#	c #E21A1A",
",#	c #E41B1B",
"'#	c #E12020",
")#	c #A70203",
"!#	c #5784B9",
"~#	c #4F7FB6",
"{#	c #4A79B3",
"]#	c #4C7BB4",
"^#	c #4D7CB5",
"/#	c #4B7AB4",
"(#	c #DA1212",
"_#	c #A50404",
":#	c #35619A",
"<#	c #5C8ABF",
"[#	c #3E6FAB",
"}#	c #4171AC",
"|#	c #4978B2",
"1#	c #4470A7",
"2#	c #254774",
"3#	c #C20D0D",
"4#	c #D40909",
"5#	c #BF0D0D",
"6#	c #851010",
"7#	c #4D7AB0",
"8#	c #3667A5",
"9#	c #3465A4",
"0#	c #4676B0",
"a#	c #5582B8",
"b#	c #D61A1A",
"c#	c #D90F0F",
"d#	c #D31818",
"e#	c #A40303",
"f#	c #214C89",
"g#	c #35609A",
"h#	c #5C8ABE",
"i#	c #3D68A0",
"j#	c #234B88",
"k#	c #283B53",
"l#	c #BE0C0C",
"m#	c #DF1C1C",
"n#	c #BB0C0C",
"o#	c #A50303",
"p#	c #214A84",
"q#	c #234C86",
"r#	c #244D88",
"s#	c #224571",
"t#	c #9A0303",
"u#	c #A30202",
"v#	c #A20404",
"w#	c #830E10",
"x#	c #234E8C",
"y#	c #244D8B",
"z#	c #58A80A",
"A#	c #53A008",
"B#	c #4F9906",
"C#	c #4E9808",
"D#	c #254777",
"E#	c #4C8F10",
"F#	c #509C08",
"G#	c #214B89",
"H#	c #4F9907",
"I#	c #5EAC13",
"J#	c #22477D",
"K#	c #244B86",
"L#	c #244C85",
"M#	c #234370",
"N#	c #48890D",
"O#	c #4C930B",
"P#	c #4F9909",
"Q#	c #4E930C",
"R#	c #457B13",
"                                                                                                ",
"                                                                                                ",
"          . + @ # $               % & & *                                   = - ; >             ",
"        , ' ) ! ~ { ]         ^ / ( _ : < [                               } | 1 2 3 4 ;         ",
"      5 6 7 8 9 0 a b c     % d e f g f h i [                           j k l m n o p q r       ",
"      s t u v w v x 0 y z   A B C D E F G h H I                       J K L M N O P Q R S       ",
"    T U V V W 9 x X Y Z `  ...+.+.G F @.#.f $.%.                      &.*.=.-.;.>.>.;.,.'.).    ",
"    !.~.{.].^.^.^./.(._.:. .<.[.}.|.1.2.|.3.4.5.                      6.7.8.9.0.a.b.0.c.d.r     ",
"    e.f.g.(.(.(.(.(.(.h.i.j.k.l.m.n.o.o.p.q.r.s.                      t.u.v.w.x.y.y.x.w.z.A.    ",
"      B.x (.(.(.(.(.C.D.E.F.G.3.H.I.J.J.I.K.L.M.                      N.O.P.Q.R.S.S.T.w.U.V.    ",
"      W.) V (.(.(.X.Y.Z.    & `.n. +.+.+++: %.                          j @+w.#+$+$+%+&+*+      ",
"        W.=+-+;+h.>+,+'+       .)+!+~+{+]+^+/+                            (+_+:+<+[+}+|+1+      ",
"          2+3+4+5+6+            7+j.^ 8+9+                                  0+a+b+c+d+          ",
"                                e+@ f+] g+              > ; - =                                 ",
"                              h+i+j+k+~.l+m+        n+o+p+q+r+s+}                               ",
"                            t+u+v+w+9 x+y+z+A+    B+C+D+m E+o F+G+H+                            ",
"                            I+t u v w J+x K+L+M+  N+l O+Q P O N P+Q+B+                          ",
"                          R+S+V X T+K+U+V+W+X+Y+Z+`+ @-.;.>.>.;.-..@+@                          ",
"                          e.! @@#@$@X.g.#@(._.%@j &@*@c.0.b.a.0.9.=@-@                          ",
"                          T ;@$@(.(.(.(.(.(.>@i.,@1 '@w.x.y.y.x.w.:+)@                          ",
"                            !@~@(.(.(.(.(.X.{@]@^@/@(@_@T.S.S.R.:@<@[@                          ",
"                            }@|@1@2@(.(.3@) 4@    t.k '@5@$+$+6@7@8@                            ",
"                              t+9@0@a@~ b@c@d@      e@f@g@h@i@j@k@l@                            ",
"                                m@n@o@p@q@            r@|+b+|+s@                                ",
"                                B+n+t@} u@                                  ^ ^ * & %           ",
"                              v@w@x@y@z@A@;                               ^ B@<.C@$.D@[         ",
"                            > E@F@G@n m N H@I@                           .J@@.+.2.+.h K@L@      ",
"                          M@N@p M O@D+P@N Q@R@S@                      ^ T@h U@G @.@.G h V@W@    ",
"                          - 1 X@Y@n Z@`@n  #.#>                       & <.1.+.G E E G +.+#@#    ",
"                          } u.##$#%#&#*#%#=#=@-@                      * C@-#;#>#,#,#>#}.'#)#    ",
"                          H+!#~#{#]#^#^#]#/#g@8@                      & $.(#m.q.n.n.q.m.: _#    ",
"                            :#<#[#Q.}#}#Q.|#1#2#                      & 3#;#4#H.I.I.H.q.5#6#    ",
"                            e@7#$#8#9#9#0#a#c+                          & b#o. + + +c#d#e#      ",
"                              f#g#3 h#1 i#j#k#                             .l#: m#..n#o#        ",
"                                p#q#r#S@s#                                  t#u#j.v#w#          ",
"          B+} 6.; x#                                  B+} 6.; x#            e+] f+] g+          ",
"        v@w@x@y@z@A@;                               v@w@x@y@z@A@;         h+i+j+k+~.l+m+        ",
"      > E@F@G@n m N H@I@                          > E@F@G@n m N H@I@    t+u+v+w+9 x+y+z+c       ",
"    M@N@p M O@D+P@N Q@R@y#                      M@N@p M O@D+P@N Q@R@y#  I+t u v w J+x K+L+z#    ",
"    - 1 X@Y@n Z@`@n  #.#r                       - 1 X@Y@n Z@`@n  #.#r R+S+V X T+K+U+V+W+X+A#    ",
"    } u.##$#%#&#*#%#=#=@-@                      } u.##$#%#&#*#%#=#=@-@B#! @@#@$@X.g.#@(._.%@    ",
"    H+!#~#{#]#^#^#]#/#g@8@                      H+!#~#{#]#^#^#]#/#g@8@C#;@$@(.(.(.(.(.(.>@i.    ",
"      :#<#[#Q.}#}#Q.|#1#D#                        :#<#[#Q.}#}#Q.|#1#D#  !@~@(.(.(.(.(.X.{@E#    ",
"      e@7#$#8#9#9#0#a#c+                          e@7#$#8#9#9#0#a#c+    }@|@1@2@(.(.3@) F#      ",
"        G#g#3 h#1 i#j#k#                            G#g#3 h#1 i#j#k#      H#I#0@a@~ b@c@d@      ",
"          J#K#|+L#M#                                  J#K#|+L#M#            N#O#P#Q#R#          ",
"                                                                                                ",
"                                                                                                "};
