/* XPM */
static char * game_freecell_xpm[] = {
"48 48 598 2",
"  	c None",
". 	c #8E918C",
"+ 	c #8B8D88",
"@ 	c #8C8E89",
"# 	c #8D8F8A",
"$ 	c #8A8C87",
"% 	c #898B86",
"& 	c #8F908C",
"* 	c #A8A9A6",
"= 	c #EDEEED",
"- 	c #FDFDFD",
"; 	c #FCFCFC",
"> 	c #FDFDFC",
", 	c #FBFBFB",
"' 	c #FBFBFA",
") 	c #FAFAFA",
"! 	c #F9F9F9",
"~ 	c #F8F8F8",
"{ 	c #DEDFDD",
"] 	c #979995",
"^ 	c #8D908B",
"/ 	c #F4F4F3",
"( 	c #F5F5F5",
"_ 	c #F3F3F3",
": 	c #F2F2F2",
"< 	c #F1F1F1",
"[ 	c #F0F0F0",
"} 	c #EFEFEF",
"| 	c #EEEEEE",
"1 	c #EDEDED",
"2 	c #ECECEC",
"3 	c #EBEBEB",
"4 	c #DDDEDC",
"5 	c #8D8F8B",
"6 	c #989A96",
"7 	c #EFD8D8",
"8 	c #EECCCC",
"9 	c #EED1D1",
"0 	c #EDCACA",
"a 	c #F1EEEE",
"b 	c #8B8D87",
"c 	c #9D9E9A",
"d 	c #EAA9A9",
"e 	c #E68383",
"f 	c #EAB5B5",
"g 	c #E47D7D",
"h 	c #ECC2C2",
"i 	c #F5F5F4",
"j 	c #8F938E",
"k 	c #8E908B",
"l 	c #90918D",
"m 	c #8F918C",
"n 	c #8F908B",
"o 	c #8E8F8A",
"p 	c #8E8E89",
"q 	c #A4A5A2",
"r 	c #BFC0BE",
"s 	c #C9CAC8",
"t 	c #C6C7C5",
"u 	c #C3C3C1",
"v 	c #E0E0DF",
"w 	c #959793",
"x 	c #E7E7E6",
"y 	c #F9FAF9",
"z 	c #F9F9F8",
"A 	c #F8F8F7",
"B 	c #F7F7F7",
"C 	c #DADAD8",
"D 	c #989893",
"E 	c #A86360",
"F 	c #AD524F",
"G 	c #A84F4C",
"H 	c #A35F5B",
"I 	c #8D8682",
"J 	c #9F9794",
"K 	c #E2E2E2",
"L 	c #F2F3F2",
"M 	c #979A95",
"N 	c #F6F6F5",
"O 	c #F4F5F3",
"P 	c #F3F3F2",
"Q 	c #F3F3F1",
"R 	c #F2F2F1",
"S 	c #F1F2F0",
"T 	c #F1F1EF",
"U 	c #F0F0EF",
"V 	c #EFF0EE",
"W 	c #EFEFEE",
"X 	c #EEEFED",
"Y 	c #EEEEED",
"Z 	c #EDEDEC",
"` 	c #EDEDEB",
" .	c #ECECEA",
"..	c #EBEBEA",
"+.	c #EBEBE9",
"@.	c #EAEBE9",
"#.	c #EDEEEC",
"$.	c #DBDBD9",
"%.	c #9F726D",
"&.	c #CE1212",
"*.	c #CC0000",
"=.	c #CA0404",
"-.	c #A05D5A",
";.	c #B5B2AF",
">.	c #F1F2F1",
",.	c #8C8E8A",
"'.	c #F2E1E0",
").	c #EDBABA",
"!.	c #E9A09F",
"~.	c #EDBDBC",
"{.	c #F1E9E8",
"].	c #EAEAE8",
"^.	c #E9E9E7",
"/.	c #E3E3E2",
"(.	c #8B8C87",
"_.	c #C21514",
":.	c #8E8A85",
"<.	c #E6E6E6",
"[.	c #E9A6A6",
"}.	c #E78E8D",
"|.	c #E9A0A0",
"1.	c #E47C7C",
"2.	c #E9A9A9",
"3.	c #D3D3D1",
"4.	c #ABACA9",
"5.	c #8E8F8B",
"6.	c #8A8984",
"7.	c #8A8C88",
"8.	c #F0DEDE",
"9.	c #F2F1F0",
"0.	c #F2F2F0",
"a.	c #E68F8F",
"b.	c #E48282",
"c.	c #F0F0EE",
"d.	c #EFEFED",
"e.	c #D0D0CD",
"f.	c #9A9B98",
"g.	c #E4E4E2",
"h.	c #FAFBFA",
"i.	c #F7F7F6",
"j.	c #F6F7F6",
"k.	c #F3F4F2",
"l.	c #ECEDEC",
"m.	c #CDCECB",
"n.	c #91938F",
"o.	c #8E908A",
"p.	c #F1F1F0",
"q.	c #F0EAE9",
"r.	c #E37B7B",
"s.	c #E79A9A",
"t.	c #EEEEEC",
"u.	c #E49A99",
"v.	c #EAE1DF",
"w.	c #A3A4A1",
"x.	c #EBECEA",
"y.	c #F6F6F4",
"z.	c #F5F5F3",
"A.	c #F2F3F1",
"B.	c #F0F1EF",
"C.	c #ECEDEB",
"D.	c #E9EAE7",
"E.	c #E8E9E6",
"F.	c #E7E8E5",
"G.	c #E8E9E7",
"H.	c #D4D4D3",
"I.	c #8B8E8A",
"J.	c #FAFAF9",
"K.	c #EFEEED",
"L.	c #E69695",
"M.	c #E27878",
"N.	c #ECDEDC",
"O.	c #E7BFBE",
"P.	c #DF6161",
"Q.	c #DD8E8E",
"R.	c #E79494",
"S.	c #E68989",
"T.	c #F2EEED",
"U.	c #E8E8E6",
"V.	c #E7E7E5",
"W.	c #E6E7E4",
"X.	c #E5E6E3",
"Y.	c #F0F1F0",
"Z.	c #EFEDEC",
"`.	c #E69A9A",
" +	c #E27474",
".+	c #EACFCE",
"++	c #EBECE9",
"@+	c #E9E2E0",
"#+	c #DF6B6B",
"$+	c #DE5D5D",
"%+	c #D95E5D",
"&+	c #8D8E8A",
"*+	c #F2DDDC",
"=+	c #E58282",
"-+	c #E58383",
";+	c #EECCCB",
">+	c #ECECEB",
",+	c #E9EAE8",
"'+	c #E7E8E6",
")+	c #E6E6E4",
"!+	c #E5E5E3",
"~+	c #E3E3E1",
"{+	c #E69999",
"]+	c #E16E6E",
"^+	c #E8B8B7",
"/+	c #E9D3D2",
"(+	c #EAD6D4",
"_+	c #E29493",
":+	c #DE5C5C",
"<+	c #DD5959",
"[+	c #D85A59",
"}+	c #8D8D89",
"|+	c #EBB5B4",
"1+	c #E89998",
"2+	c #E89E9E",
"3+	c #E9A4A3",
"4+	c #EAEAE9",
"5+	c #E4E5E2",
"6+	c #E3E4E1",
"7+	c #E2E4E0",
"8+	c #E1E3DF",
"9+	c #EDE8E6",
"0+	c #E16B6B",
"a+	c #E16969",
"b+	c #E06666",
"c+	c #E06464",
"d+	c #E07171",
"e+	c #E5C4C2",
"f+	c #DE5A5A",
"g+	c #DD5757",
"h+	c #DD5555",
"i+	c #D75655",
"j+	c #8D8C88",
"k+	c #E68C8C",
"l+	c #EBB8B8",
"m+	c #EBBEBD",
"n+	c #E8E8E7",
"o+	c #E6E7E5",
"p+	c #E2E3E0",
"q+	c #E1E2DF",
"r+	c #E0E1DE",
"s+	c #E8CAC9",
"t+	c #E8C9C7",
"u+	c #E7C8C6",
"v+	c #E6C7C6",
"w+	c #E7CBC9",
"x+	c #E0807F",
"y+	c #DD5656",
"z+	c #DC5353",
"A+	c #DC5151",
"B+	c #D55252",
"C+	c #8E8D88",
"D+	c #FCFCFB",
"E+	c #F0DFDE",
"F+	c #E37474",
"G+	c #E58B8A",
"H+	c #E26E6E",
"I+	c #EBCFCE",
"J+	c #DFE0DC",
"K+	c #8D908A",
"L+	c #F5F6F5",
"M+	c #EAEBE8",
"N+	c #E3C6C3",
"O+	c #DB5252",
"P+	c #DC5050",
"Q+	c #DB4E4E",
"R+	c #D54F4F",
"S+	c #EAB4B4",
"T+	c #E27777",
"U+	c #E8AEAE",
"V+	c #E8ADAD",
"W+	c #E27676",
"X+	c #E6A4A3",
"Y+	c #E5E7E4",
"Z+	c #E4E6E3",
"`+	c #E3E5E2",
" @	c #E2E4E1",
".@	c #E0E2DE",
"+@	c #DFE1DD",
"@@	c #DEE0DC",
"#@	c #DDDFDB",
"$@	c #8E9089",
"%@	c #F4F5F4",
"&@	c #E6E8E5",
"*@	c #E4E5E3",
"=@	c #DE8D8C",
"-@	c #DB4C4C",
";@	c #DA4A4A",
">@	c #D44B4B",
",@	c #E58988",
"'@	c #E59696",
")@	c #E59A99",
"!@	c #E17776",
"~@	c #ECEDEA",
"{@	c #E2E3E1",
"]@	c #E1E2E0",
"^@	c #DFE0DD",
"/@	c #DEDFDC",
"(@	c #DDDEDB",
"_@	c #DCDDD9",
":@	c #F3F4F3",
"<@	c #E1DAD8",
"[@	c #DA5958",
"}@	c #D94545",
"|@	c #D34847",
"1@	c #EFE8E7",
"2@	c #EEEBE9",
"3@	c #ECE9E7",
"4@	c #EBE3E1",
"5@	c #DEDFDB",
"6@	c #DCDEDA",
"7@	c #DBDDD9",
"8@	c #DADCD8",
"9@	c #DDB3B1",
"0@	c #D94141",
"a@	c #D47E7B",
"b@	c #8E908C",
"c@	c #DDDEDA",
"d@	c #DBDCD9",
"e@	c #DADBD8",
"f@	c #D8DAD6",
"g@	c #D98584",
"h@	c #D5CDC9",
"i@	c #E8D8D6",
"j@	c #E18585",
"k@	c #DE6E6E",
"l@	c #DD6767",
"m@	c #E2A7A5",
"n@	c #E4E1DE",
"o@	c #E3DAD7",
"p@	c #DE9391",
"q@	c #DB5A59",
"r@	c #DB6B6A",
"s@	c #DB8886",
"t@	c #DFD7D5",
"u@	c #DEDEDB",
"v@	c #DCDDDA",
"w@	c #DBDCD8",
"x@	c #DADBD7",
"y@	c #D7D9D5",
"z@	c #D3D4D0",
"A@	c #F8F9F8",
"B@	c #E7D1CF",
"C@	c #DD6262",
"D@	c #DC5252",
"E@	c #DB5858",
"F@	c #DA5050",
"G@	c #DA4646",
"H@	c #D94444",
"I@	c #D94242",
"J@	c #D84040",
"K@	c #D85B5A",
"L@	c #DBCBC9",
"M@	c #D9D9D6",
"N@	c #D7D8D4",
"O@	c #D6D7D3",
"P@	c #E1E1DF",
"Q@	c #CF6E6C",
"R@	c #CAC3C0",
"S@	c #F7F8F7",
"T@	c #E18F8D",
"U@	c #DA4848",
"V@	c #D83E3E",
"W@	c #D83C3C",
"X@	c #D73A3A",
"Y@	c #D87D7C",
"Z@	c #D9DAD7",
"`@	c #D8D9D6",
" #	c #D7D9D4",
".#	c #D6D8D3",
"+#	c #D5D6D1",
"@#	c #D3D5D0",
"##	c #CFD1CC",
"$#	c #CD9B98",
"%#	c #CB0000",
"&#	c #C65C5A",
"*#	c #DC5F5E",
"=#	c #D73838",
"-#	c #D63636",
";#	c #D64242",
">#	c #D6D7D2",
",#	c #D4D6D1",
"'#	c #D4D6D2",
")#	c #D2D4CF",
"!#	c #D2D3CF",
"~#	c #D1D3CE",
"{#	c #D0D2CD",
"]#	c #D0D1CD",
"^#	c #CED0CB",
"/#	c #CED0CA",
"(#	c #CCC8C3",
"_#	c #CB1D1D",
":#	c #C50A0A",
"<#	c #DC5B5B",
"[#	c #D63434",
"}#	c #D63232",
"|#	c #D54545",
"1#	c #D6D8D4",
"2#	c #D5D7D3",
"3#	c #D3D4CF",
"4#	c #898B87",
"5#	c #D0D1CC",
"6#	c #CECFCA",
"7#	c #CDCFCA",
"8#	c #CCCEC9",
"9#	c #CC605E",
"0#	c #C60A0A",
"a#	c #8E8B86",
"b#	c #E5E6E4",
"c#	c #DC7574",
"d#	c #D52E2E",
"e#	c #D22020",
"f#	c #D01414",
"g#	c #CD0808",
"h#	c #CD5B58",
"i#	c #D9DAD6",
"j#	c #CBCDC8",
"k#	c #CAA6A1",
"l#	c #CC0303",
"m#	c #C70B0A",
"n#	c #8D8985",
"o#	c #E1C4C2",
"p#	c #D84242",
"q#	c #D53131",
"r#	c #D22121",
"s#	c #CF1212",
"t#	c #CD0606",
"u#	c #CC1F1F",
"v#	c #CDC5C0",
"w#	c #CACCC7",
"x#	c #C9CBC5",
"y#	c #C8CAC4",
"z#	c #D5D7D2",
"A#	c #898B85",
"B#	c #CDCFC9",
"C#	c #CBCDC7",
"D#	c #CB3A39",
"E#	c #E3E4E0",
"F#	c #E4E4E1",
"G#	c #E3E3E0",
"H#	c #DB9997",
"I#	c #D22626",
"J#	c #D01616",
"K#	c #CD0707",
"L#	c #CC1918",
"M#	c #CDB0AC",
"N#	c #C9CBC6",
"O#	c #C7C9C3",
"P#	c #E0E2DF",
"Q#	c #C98E8A",
"R#	c #D8D9D5",
"S#	c #D29592",
"T#	c #CC0A09",
"U#	c #CC2524",
"V#	c #CCBAB6",
"W#	c #C8CAC5",
"X#	c #C7C9C4",
"Y#	c #C6C8C2",
"Z#	c #8A8D87",
"`#	c #DFDFDD",
" $	c #CACCC6",
".$	c #C8CBC5",
"+$	c #C6C9C3",
"@$	c #C94442",
"#$	c #C60B0B",
"$$	c #908B86",
"%$	c #D2B0AC",
"&$	c #CC1919",
"*$	c #CC3432",
"=$	c #CCC2BE",
"-$	c #C6C8C3",
";$	c #C5C7C1",
">$	c #C4B5AF",
",$	c #CB0D0C",
"'$	c #8F8F8A",
")$	c #EDEEEB",
"!$	c #D5D6D2",
"~$	c #D4D5D1",
"{$	c #D2C2BE",
"]$	c #CD3130",
"^$	c #CC4442",
"/$	c #CDC9C4",
"($	c #C5C7C2",
"_$	c #C4C6C0",
":$	c #CCCFC9",
"<$	c #888B85",
"[$	c #C4C7C1",
"}$	c #C3C5BF",
"|$	c #C67A76",
"1$	c #C2403E",
"2$	c #D1CDC8",
"3$	c #CD504E",
"4$	c #CC5755",
"5$	c #CDCDC8",
"6$	c #C5C8C2",
"7$	c #C3C6C0",
"8$	c #898C87",
"9$	c #C2C5BE",
"0$	c #C1C4BE",
"a$	c #C1C3BD",
"b$	c #C83D3A",
"c$	c #BBA8A4",
"d$	c #D1D2CE",
"e$	c #CFD0CB",
"f$	c #CDCEC9",
"g$	c #C9CCC6",
"h$	c #C7CAC4",
"i$	c #C2C5BF",
"j$	c #C0C3BC",
"k$	c #BFC2BC",
"l$	c #BFBFB9",
"m$	c #B9BCB4",
"n$	c #CFD0CC",
"o$	c #CCCEC8",
"p$	c #C8C6C0",
"q$	c #CB1010",
"r$	c #C96562",
"s$	c #C93A38",
"t$	c #C83A38",
"u$	c #888A85",
"v$	c #C2C4BE",
"w$	c #BFC2BB",
"x$	c #BFC1BB",
"y$	c #BEC1BA",
"z$	c #BDC0B9",
"A$	c #B8BAB4",
"B$	c #CA201F",
"C$	c #C77572",
"D$	c #C67571",
"E$	c #CC0605",
"F$	c #C5706D",
"G$	c #C0C3BD",
"H$	c #C3C6C1",
"I$	c #D0D1CE",
"J$	c #C1C4BD",
"K$	c #C0C2BC",
"L$	c #BEC1BB",
"M$	c #BCBFB9",
"N$	c #BCBFB8",
"O$	c #B6B9B2",
"P$	c #C8837F",
"Q$	c #CA1716",
"R$	c #C1ACA7",
"S$	c #8C8E88",
"T$	c #B4B7B3",
"U$	c #BEC0BA",
"V$	c #BBBEB7",
"W$	c #BABDB6",
"X$	c #B5B7B1",
"Y$	c #8F918B",
"Z$	c #C4BCB7",
"`$	c #CB0505",
" %	c #C58D89",
".%	c #C75A57",
"+%	c #CA2524",
"@%	c #B4B6B1",
"#%	c #CCCDC8",
"$%	c #CACDC7",
"%%	c #BDC0BA",
"&%	c #E3E5E1",
"*%	c #C93937",
"=%	c #C75653",
"-%	c #C92322",
";%	c #C6615E",
">%	c #BDBFBA",
",%	c #858882",
"'%	c #888A84",
")%	c #878984",
"!%	c #8B8E88",
"~%	c #C57773",
"{%	c #CA1B1A",
"]%	c #C19C97",
"^%	c #BDBFB9",
"/%	c #BBBDB7",
"(%	c #C2B2AD",
"_%	c #CB0101",
":%	c #CA1616",
"<%	c #B8BBB4",
"[%	c #8B8C88",
"}%	c #C7CAC5",
"|%	c #BFBCB5",
"1%	c #BEBDB6",
"2%	c #A5A8A1",
"3%	c #92948F",
"4%	c #C2C3BF",
"5%	c #D3D5D1",
"6%	c #D0D2CE",
"7%	c #CDCFCB",
"8%	c #C9CAC5",
"9%	c #C7CAC3",
"0%	c #C5C8C1",
"a%	c #B9BCB6",
"b%	c #A7AAA4",
"c%	c #868883",
"d%	c #888A86",
"e%	c #8A8C86",
"f%	c #898C86",
"g%	c #81837F",
"                                                                                                ",
"                                                                                                ",
"                            . + @ @ # # # + + @ @ @ + + + @ @ $ $ $ + + % &                     ",
"                          * = - - - - - ; > ; , , , , , , , , ' ) ! ! ! ~ { ]                   ",
"                        ^ / ( _ : : < < < < [ [ } } } | | | 1 1 1 2 2 3 2 : 4 5                 ",
"                        6 , : 7 8 : : 9 0 a < < < [ [ [ [ } } } } } | | 1 1 / b                 ",
"                        c ) : d e : f g h < < [ [ [ [ [ } } } } | | 1 1 1 2 i #                 ",
"          j k l l m m m k m m n n o p k k k # # # # # # q r s t u u v 1 1 2 _ #                 ",
"        w x ; - > ; ; ; ; , , , ) ) ) y ! z z ~ A A B i C D E F G H I J K 2 L #                 ",
"      M x , N i i O / / P Q R S T U V W X Y Z `  ...+.@.#.$.%.&.*.*.=.-.;.3 >.,.                ",
"      # ; N '.).!.~.{.Q R S T U V W Y Y Z `  ...+.].^.^./.P (.&.*.*.*._.:.<.U ,.                ",
"      k ; i [.}.|.1.2.S T U V W Y Y Z 3.4.5.$ $ $ $ $ $ $ $ % 6.6.6.6.6.% $ $ % % % 7.@         ",
"      k , / 8.9.0.a.b.U c.W d.Y Z ` e.f.g.' ; ; ; , , , h.) y z ~ A i.j.N i / k.P R l.m.n.      ",
"      o.) P R p.q.r.s.W d.t.#.` u.v.w.x., i.y.i z./ k.A.R p.B.V W Y #.C.x.+.].D.E.F.G.U H.I.    ",
"      5 J.R p.K.L.M.N.t.#.C. .O.P.Q.b - i.N i R.S.T.A.S p.B.V X Y Z C.x.@.].^.U.V.W.X.X.X %     ",
"      5 ! Y.Z.`. +.+#.C. .++@+#+$+%+&+- N i *+=+-+;+0.T U V X #.` >+x.@.,+E.'+V.)+!+g.~+Y %     ",
"      5 z W {+]+^+/+(+++@.]._+:+<+[+}+- i / |+1+2+3+T c.W d.#.C. ...4+,+G.F.W.X.5+6+7+8+Z %     ",
"      # A 9+0+a+b+c+d+,+D.e+f+g+h+i+j+; / / k+l+m+r.K.d.Y t.`  .@.].^.n+x o+X.5+6+p+q+r+x.%     ",
"      # i.>+s+t+u+v+w+E.'+x+y+z+A+B+C+D+P E+F+G+G+H+I+t.Z `  .+.].G.'+F.W.X.5+6+p+q+r+J+@.%     ",
"      K+L+>+M+,+D.E.'+F.W.N+O+P+Q+R+C+, Q S+T+U+V+W+X+`  ...+.].^.E.F.Y+Z+`+ @8+.@+@@@#@G.%     ",
"      $@%@+.^.E.F.&@W.X.*@g.=@-@;@>@p , 0.,@'@W d.)@!@~@++M+D.^.U.V.)+!+g.{@]@r+^@/@(@_@'+%     ",
"      5 :@,+F.o+W.X.*@g.~+p+<@[@}@|@o ' p.1@2@X #.3@4@++M+D.E.F.W.X.5+6+p+q+r+J+5@6@7@8@)+%     ",
"      5 R '+W.X.5+g.~+p+q+r++@9@0@a@b@J.U V X #.C. .+.].D.E.F.W.X.5+6+p+q+r+^@/@c@d@e@f@5+%     ",
"      5 p.o+5+`+6+p+q+r++@@@/@(@g@h@b@z d.Y #.C.x.@.i@j@k@l@m@n@o@p@q@r@s@t@u@v@w@x@f@y@p+%     ",
"      5 U !+6+p+q+r++@@@/@(@_@d@8@z@b@A@t.Z C.x.@.B@C@D@P+Q+-@E@F@G@H@I@J@K@L@d@x@M@N@O@P@%     ",
"      # Y ~+q+r+^@@@/@(@_@w@8@y@Q@R@m S@` >+x.@.,+T@P+Q+-@;@U@G@H@I@J@V@W@X@Y@Z@`@ #.#+#^@%     ",
"      + @.7@v@5@#@(@_@x@ #@###$#%#&#m j. .+.].^.E.*#-@;@U@G@H@I@J@V@W@X@=#-#;#f@N@>#,#@#c@%     ",
"      + '+'#)#!#~#{#]###^#/#(#_#*.:#o N @.,+^.U.V.<#U@G@H@I@J@V@W@X@=#-#[#}#|#1#2#,#3#~#w@%     ",
"      4#W.z@~#{#5###^#6#7#8#9#*.*.0#a#i ].G.'+V.b#c#H@I@J@V@W@X@=#-#d#e#f#g#h#^#^#^###5#i#%     ",
"      4#5+~#5###^#7#7#8#j#k#l#*.*.m#n#/ ^.U.V.b#*@o#p#V@W@X@q#r#s#t#*.*.*.u#v#8#j#w#x#y#z#A#    ",
"      4#p+]#^#7#B#8#j#C#w#D#*.*.*.m#n#T p+E#F#5+G#q+H#I#J#K#*.*.*.*.*.*.L#M#8#j#w#N#y#O#)#A#    ",
"      4#P#^#B#8#j#C#w#N#x#Q#*.*.*.m#n#V 5@c@_@w@x@i#R#S#T#*.*.*.*.*.*.U#V#8#j#w#N#W#X#Y#{#A#    ",
"      Z#`#7#j#w# $N#.$y#X#+$@$*.*.#$$$X c@_@w@x@i#R#N@O@%$&$*.*.*.*.*$=$8#j#w#N#W#X#-$;$^#A#    ",
"      Z#(@j# $N#.$y#X#+$Y#;$>$,$*.#$'$)$_@w@x@i#R#N@O@!$~${$]$*.*.^$/$8#j#w#N#W#X#-$($_$:$<$    ",
"      Z#d@w#W#y#O#+$Y#;$[$_$}$|$*.1$o. .w@x@i#R#N@O@!$~$z@!#2$3$4$5$8#j#w#N#W#X#+$6$[$7$w#<$    ",
"      8$Z@.$O#-$6$;$[$7$}$9$0$a$b$c$o.@.x@i#R#N@O@!$~$z@!#d$5#e$6#f$j#w#g$.$h$+$6$[$7$i$y#<$    ",
"      8$N@X#6$;$_$7$}$9$0$a$j$k$l$m$b@^.i#R#N@O@!$~$z@!#d$]#n$/#B#o$C# $p$q$r$6$[$s$t$0$-$u$    ",
"      4#!$Y#_$7$}$v$0$a$j$w$x$y$z$A$b@U.R#N@O@!$~$z@!#d${###^#B#o$C# $x#y#@$B$C$D$E$F$G$H$u$    ",
"      7.I$6$}$v$J$G$K$w$L$y$z$M$N$O$5 W.N@O@!$,#@#)#~#{###^#7#8#C# $x#y#O#P$*.B$Q$*.R$k$0$u$    ",
"      S$T$f$i$G$K$w$L$U$z$N$N$V$W$X$Y$X..#z#,#@#)#~#{###^#7#8#j# $x#y#O#Y#Z$`$ %.%+%K$L$k$u$    ",
"        @ @%w#^#8##%$%x#W#O#6$;$_$%%K+&%z#,#@#)#~#{###^#7#8#j#w#x#y#O#Y#;$_$*%=%-%;%x$U$>%u$    ",
"          ,%'%u$u$)%)%)%u$u$)%)%)%)%!%p+,#@#)#~#{###^#7#8#j#w#N#y#O#Y#;$_$}$~%{%*.]%U$^%/%u$    ",
"                                    7.+@@#)#~#{###^#7#8#j#w#N#W#X#Y#;$_$}$v$(%_%:%U$z$N$<%%     ",
"                                    [%}%i#)#{###^#7#8#j#w#N#W#X#-$;$_$}$v$a$K$|%1%z$N$V$2%$     ",
"                                      3%4%f@i#y@.#!$5%!#6%n$7%8#w#8%9%0%7$9$j$x$z$N$a%b%b       ",
"                                        c%A#d%d%% % % 4#4#e%f%f%4#4#4#% % % % % % % u$g%        ",
"                                                                                                ",
"                                                                                                "};
