/* XPM */
static char * game_robots_xpm[] = {
"48 48 614 2",
"  	c None",
". 	c #383D3F",
"+ 	c #383E3E",
"@ 	c #363C3D",
"# 	c #323739",
"$ 	c #353B3D",
"% 	c #373C3F",
"& 	c #363A3D",
"* 	c #363A3C",
"= 	c #353A3B",
"- 	c #4E5455",
"; 	c #8F9391",
"> 	c #BBBDBA",
", 	c #C8C9C6",
"' 	c #D1D3CF",
") 	c #D8D9D6",
"! 	c #D6D7D4",
"~ 	c #CBCCC9",
"{ 	c #BEC0BD",
"] 	c #ACAFAB",
"^ 	c #7F8383",
"/ 	c #454A4C",
"( 	c #33383B",
"_ 	c #32383A",
": 	c #3F4445",
"< 	c #A4A7A5",
"[ 	c #DADBD8",
"} 	c #E0E0DD",
"| 	c #D2D4D0",
"1 	c #C6C9C4",
"2 	c #BEC1BB",
"3 	c #B8BBB6",
"4 	c #B2B5AF",
"5 	c #B1B3AD",
"6 	c #B2B4AF",
"7 	c #B4B6B1",
"8 	c #B8BAB6",
"9 	c #C3C5C0",
"0 	c #CECFCC",
"a 	c #C1C2BF",
"b 	c #878989",
"c 	c #393E40",
"d 	c #353A3D",
"e 	c #343A3B",
"f 	c #B1B3B1",
"g 	c #E2E3E0",
"h 	c #D8DAD5",
"i 	c #C5C7C0",
"j 	c #BBBFB8",
"k 	c #BABDB6",
"l 	c #B8BBB4",
"m 	c #B5B9B2",
"n 	c #B3B6B0",
"o 	c #B1B4AD",
"p 	c #AEB1AB",
"q 	c #ACAFA8",
"r 	c #A9ACA6",
"s 	c #A7A9A3",
"t 	c #A4A7A1",
"u 	c #A1A49E",
"v 	c #A9ABA6",
"w 	c #BDBEBB",
"x 	c #C4C6C2",
"y 	c #8B8E8C",
"z 	c #373C3E",
"A 	c #787D7C",
"B 	c #E0E1DE",
"C 	c #D9DAD6",
"D 	c #C5C9C2",
"E 	c #C1C4BD",
"F 	c #BFC3BC",
"G 	c #BEC1BA",
"H 	c #BCBFB8",
"I 	c #B7BAB4",
"J 	c #B5B8B1",
"K 	c #B0B3AC",
"L 	c #ADB0AA",
"M 	c #AAADA7",
"N 	c #A8ABA4",
"O 	c #A5A8A2",
"P 	c #A2A59F",
"Q 	c #A0A29C",
"R 	c #9D9F9A",
"S 	c #A0A29D",
"T 	c #B6B8B3",
"U 	c #B7B9B5",
"V 	c #595C5C",
"W 	c #34393B",
"X 	c #B6B9B6",
"Y 	c #E3E4E0",
"Z 	c #CFD1CB",
"` 	c #C6C9C2",
" .	c #C5C8C1",
"..	c #C3C7C0",
"+.	c #C2C5BE",
"@.	c #C0C3BC",
"#.	c #BBBEB7",
"$.	c #B9BCB5",
"%.	c #B6B9B3",
"&.	c #B3B7B0",
"*.	c #ABAEA8",
"=.	c #A9ACA5",
"-.	c #A6A9A3",
";.	c #A3A6A0",
">.	c #A0A39D",
",.	c #9EA09A",
"'.	c #9B9D97",
").	c #989A95",
"!.	c #A3A5A1",
"~.	c #BDBEBA",
"{.	c #848685",
"].	c #32373A",
"^.	c #353C3D",
"/.	c #C6C9C6",
"(.	c #CACDC6",
"_.	c #C9CCC5",
":.	c #C8CCC4",
"<.	c #C7CBC4",
"[.	c #C4C7C0",
"}.	c #C1C5BE",
"|.	c #BFC3BB",
"1.	c #BDC0B9",
"2.	c #B7BBB4",
"3.	c #B2B5AE",
"4.	c #AFB2AB",
"5.	c #ACAFA9",
"6.	c #A4A7A0",
"7.	c #9EA19B",
"8.	c #9B9E98",
"9.	c #989B95",
"0.	c #969892",
"a.	c #979993",
"b.	c #B5B6B2",
"c.	c #8E908D",
"d.	c #353B3E",
"e.	c #C8CAC6",
"f.	c #DFE1DD",
"g.	c #CACEC6",
"h.	c #CBCEC7",
"i.	c #CBCFC7",
"j.	c #C3C7BF",
"k.	c #C0C4BD",
"l.	c #B8BBB5",
"m.	c #B3B6AF",
"n.	c #ADB0A9",
"o.	c #A7AAA4",
"p.	c #9FA19B",
"q.	c #9C9E98",
"r.	c #999B96",
"s.	c #969893",
"t.	c #939590",
"u.	c #92948F",
"v.	c #B0B1AD",
"w.	c #8A8E8B",
"x.	c #353B3C",
"y.	c #B4B7B4",
"z.	c #DFE0DD",
"A.	c #C9CDC5",
"B.	c #CDD1C9",
"C.	c #CED2CA",
"D.	c #CCD0C8",
"E.	c #C9CDC6",
"F.	c #C7CAC3",
"G.	c #C4C8C0",
"H.	c #BEC2BB",
"I.	c #B6B9B2",
"J.	c #B0B3AD",
"K.	c #A8AAA4",
"L.	c #A5A7A1",
"M.	c #A2A49E",
"N.	c #9FA29C",
"O.	c #9C9F99",
"P.	c #999C96",
"Q.	c #969993",
"R.	c #939690",
"S.	c #90938D",
"T.	c #8F918B",
"U.	c #ADAEAB",
"V.	c #777B79",
"W.	c #323A3A",
"X.	c #33393B",
"Y.	c #7C7F7F",
"Z.	c #E4E5E2",
"`.	c #C8CCC5",
" +	c #CFD3CB",
".+	c #D1D5CD",
"++	c #D0D4CC",
"@+	c #BFC2BB",
"#+	c #ABADA7",
"$+	c #A5A8A1",
"%+	c #91938D",
"&+	c #8E908B",
"*+	c #90928D",
"=+	c #4E5354",
"-+	c #424749",
";+	c #E1E2E0",
">+	c #CCCFC9",
",+	c #C6CAC2",
"'+	c #C4C8C1",
")+	c #A2A59E",
"!+	c #8B8D88",
"~+	c #949591",
"{+	c #A2A4A0",
"]+	c #363C3E",
"^+	c #B2B5B3",
"/+	c #C3C6BF",
"(+	c #CED1CA",
"_+	c #C1C5BD",
":+	c #9C9E99",
"<+	c #8D908A",
"[+	c #8B8D87",
"}+	c #888A85",
"|+	c #A2A39F",
"1+	c #717574",
"2+	c #34383A",
"3+	c #444A4C",
"4+	c #C7CBC3",
"5+	c #C8CBC4",
"6+	c #C5C9C1",
"7+	c #C0C4BC",
"8+	c #BDC1BA",
"9+	c #B5B8B2",
"0+	c #AAADA6",
"a+	c #999B95",
"b+	c #8D8F8A",
"c+	c #8A8C87",
"d+	c #353A3C",
"e+	c #373B3C",
"f+	c #ADAFAC",
"g+	c #D4D6D1",
"h+	c #BCC0B9",
"i+	c #B7BAB3",
"j+	c #B4B7B1",
"k+	c #A4A6A0",
"l+	c #A1A39D",
"m+	c #9EA09B",
"n+	c #959892",
"o+	c #93958F",
"p+	c #90928C",
"q+	c #9D9E9A",
"r+	c #6B6F6D",
"s+	c #31383A",
"t+	c #DBDCD9",
"u+	c #BDC1B9",
"v+	c #B8BCB5",
"w+	c #B0B4AD",
"x+	c #AEB1AA",
"y+	c #A8ABA5",
"z+	c #A6A8A2",
"A+	c #A3A69F",
"B+	c #9DA09A",
"C+	c #9A9D97",
"D+	c #989A94",
"E+	c #959792",
"F+	c #8F918C",
"G+	c #8C8E89",
"H+	c #898B86",
"I+	c #90928E",
"J+	c #969895",
"K+	c #33383A",
"L+	c #5D6363",
"M+	c #DEDFDC",
"N+	c #C2C6BF",
"O+	c #AFB2AC",
"P+	c #9A9C96",
"Q+	c #979994",
"R+	c #949691",
"S+	c #91948E",
"T+	c #8E918B",
"U+	c #A2A3A0",
"V+	c #3C4142",
"W+	c #313739",
"X+	c #A0A4A2",
"Y+	c #DEDFDB",
"Z+	c #DDDEDB",
"`+	c #DEDFDA",
" @	c #DCDDD9",
".@	c #DADBD7",
"+@	c #D7D8D4",
"@@	c #D6D8D4",
"#@	c #D2D4CF",
"$@	c #D1D3CE",
"%@	c #CED0CC",
"&@	c #CDCECA",
"*@	c #CACBC7",
"=@	c #C8C9C5",
"-@	c #C5C7C3",
";@	c #C4C5C0",
">@	c #C1C2BE",
",@	c #BEC0BB",
"'@	c #BBBDB9",
")@	c #B8B9B6",
"!@	c #B6B7B3",
"~@	c #B2B4B0",
"{@	c #AFB1AC",
"]@	c #ADAEAA",
"^@	c #A6A7A3",
"/@	c #A5A6A2",
"(@	c #A4A5A1",
"_@	c #A1A39F",
":@	c #616665",
"<@	c #323839",
"[@	c #3D4243",
"}@	c #3C4143",
"|@	c #3B4142",
"1@	c #3A4042",
"2@	c #393F41",
"3@	c #383E40",
"4@	c #373D3E",
"5@	c #343A3C",
"6@	c #303638",
"7@	c #343233",
"8@	c #412C2D",
"9@	c #4E2627",
"0@	c #671D1E",
"a@	c #7E1516",
"b@	c #900F0F",
"c@	c #A00E0E",
"d@	c #A70E0E",
"e@	c #9F0D0D",
"f@	c #801415",
"g@	c #6E1A1A",
"h@	c #5F1E1F",
"i@	c #641D1E",
"j@	c #6B1C1D",
"k@	c #781819",
"l@	c #821718",
"m@	c #881718",
"n@	c #5E2021",
"o@	c #522325",
"p@	c #552425",
"q@	c #572425",
"r@	c #5F2223",
"s@	c #662122",
"t@	c #6A2122",
"u@	c #562426",
"v@	c #4A292A",
"w@	c #3E2D2F",
"x@	c #373032",
"y@	c #383031",
"z@	c #47292B",
"A@	c #5A2122",
"B@	c #781718",
"C@	c #910F0F",
"D@	c #AF0F0F",
"E@	c #C41212",
"F@	c #CA1313",
"G@	c #AE0F0F",
"H@	c #920E0F",
"I@	c #801414",
"J@	c #6D1919",
"K@	c #731819",
"L@	c #7B1717",
"M@	c #8F1819",
"N@	c #9E1A1B",
"O@	c #A31B1C",
"P@	c #8E1818",
"Q@	c #7A1718",
"R@	c #6C1B1C",
"S@	c #5D2021",
"T@	c #602021",
"U@	c #622022",
"V@	c #6E2223",
"W@	c #782324",
"X@	c #7C2325",
"Y@	c #6E2122",
"Z@	c #532627",
"`@	c #422B2D",
" #	c #3A2F30",
".#	c #3B2E30",
"+#	c #4A2829",
"@#	c #651E1F",
"##	c #831414",
"$#	c #A10E0E",
"%#	c #C51212",
"&#	c #D91819",
"*#	c #E11C1C",
"=#	c #9F0C0C",
"-#	c #8B1011",
";#	c #781517",
">#	c #7A1516",
",#	c #881516",
"'#	c #9F1A1B",
")#	c #AE1F20",
"!#	c #B42223",
"~#	c #831516",
"{#	c #73191A",
"]#	c #661C1E",
"^#	c #661E1E",
"/#	c #6D1F20",
"(#	c #792324",
"_#	c #832627",
":#	c #872829",
"<#	c #652022",
"[#	c #582425",
"}#	c #472A2B",
"|#	c #3C2E30",
"1#	c #3C2E2F",
"2#	c #4B2729",
"3#	c #681D1E",
"4#	c #871213",
"5#	c #AA0F0F",
"6#	c #CC1414",
"7#	c #E21D1D",
"8#	c #EE2828",
"9#	c #A50A0A",
"0#	c #8E0F0F",
"a#	c #7C1415",
"b#	c #7D1415",
"c#	c #8D1515",
"d#	c #A51C1C",
"e#	c #B42324",
"f#	c #BE2B2C",
"g#	c #871516",
"h#	c #771819",
"i#	c #691C1D",
"j#	c #691C1E",
"k#	c #711F20",
"l#	c #7D2425",
"m#	c #87292A",
"n#	c #8E2E2F",
"o#	c #682021",
"p#	c #5A2325",
"q#	c #48292B",
"r#	c #3D2E2F",
"s#	c #831314",
"t#	c #A30E0E",
"u#	c #C61212",
"v#	c #DB1919",
"w#	c #E31E1E",
"x#	c #9F0B0B",
"y#	c #771517",
"z#	c #7B1516",
"A#	c #A01A1B",
"B#	c #AF2021",
"C#	c #B62424",
"D#	c #831515",
"E#	c #74191A",
"F#	c #651D1E",
"G#	c #671E1E",
"H#	c #6C1F20",
"I#	c #7A2324",
"J#	c #842728",
"K#	c #88292A",
"L#	c #652021",
"M#	c #452A2C",
"N#	c #5B2122",
"O#	c #791717",
"P#	c #B20F0F",
"Q#	c #C71313",
"R#	c #CE1415",
"S#	c #A90B0B",
"T#	c #940E0E",
"U#	c #6C1A1A",
"V#	c #901819",
"W#	c #A11B1C",
"X#	c #A51C1D",
"Y#	c #8A1616",
"Z#	c #5C2022",
"`#	c #622021",
" $	c #6F2122",
".$	c #6B2021",
"+$	c #5F2123",
"@$	c #412B2D",
"#$	c #323838",
"$$	c #343739",
"%$	c #363739",
"&$	c #373638",
"*$	c #383638",
"=$	c #393638",
"-$	c #363638",
";$	c #353739",
">$	c #363639",
",$	c #353738",
"'$	c #343738",
")$	c #343638",
"!$	c #353638",
"~$	c #333638",
"{$	c #323639",
"]$	c #303637",
"^$	c #919592",
"/$	c #D1D2CE",
"($	c #D0D1CE",
"_$	c #CFD0CD",
":$	c #CDCFCB",
"<$	c #CCCECB",
"[$	c #C9CBC8",
"}$	c #C9CBC6",
"|$	c #C6C7C4",
"1$	c #C4C6C3",
"2$	c #C4C5C2",
"3$	c #C2C3C0",
"4$	c #C0C1BD",
"5$	c #BEC0BC",
"6$	c #BDBFBA",
"7$	c #BABCB8",
"8$	c #B7BAB6",
"9$	c #B4B5B2",
"0$	c #B1B3AF",
"a$	c #ABAEAA",
"b$	c #A9ABA8",
"c$	c #A6A9A5",
"d$	c #9D9F9B",
"e$	c #9B9D99",
"f$	c #999B98",
"g$	c #989A96",
"h$	c #969894",
"i$	c #939691",
"j$	c #91948F",
"k$	c #8F928D",
"l$	c #565B5B",
"m$	c #585C5D",
"n$	c #CACBC8",
"o$	c #9FA19C",
"p$	c #A3A59F",
"q$	c #9B9D98",
"r$	c #C6C8C4",
"s$	c #A5A8A3",
"t$	c #9A9C97",
"u$	c #949690",
"v$	c #878985",
"w$	c #35393C",
"x$	c #969896",
"y$	c #B5B7B3",
"z$	c #9D9F99",
"A$	c #979A94",
"B$	c #949791",
"C$	c #8E908C",
"D$	c #5E625F",
"E$	c #333839",
"F$	c #44484A",
"G$	c #9D9F98",
"H$	c #959791",
"I$	c #8B8E88",
"J$	c #969996",
"K$	c #B2B3AF",
"L$	c #91938E",
"M$	c #8F928C",
"N$	c #8C8F89",
"O$	c #636764",
"P$	c #32393B",
"Q$	c #3F4345",
"R$	c #BEBFBC",
"S$	c #696E6E",
"T$	c #BABBB8",
"U$	c #92948E",
"V$	c #474C4C",
"W$	c #919491",
"X$	c #AEAFAB",
"Y$	c #666A68",
"Z$	c #32383B",
"`$	c #9E9F9D",
" %	c #A8AAA6",
".%	c #8A8D87",
"+%	c #8E8F8B",
"@%	c #707370",
"#%	c #A7A9A4",
"$%	c #8E908A",
"%%	c #717571",
"&%	c #8C8E8C",
"*%	c #ABACA9",
"=%	c #696C6A",
"-%	c #33393A",
";%	c #636666",
">%	c #A8A9A6",
",%	c #9C9D99",
"'%	c #898B87",
")%	c #4B4F4F",
"!%	c #2E3434",
"~%	c #3A4141",
"{%	c #838683",
"]%	c #A6A7A4",
"^%	c #8F918D",
"/%	c #686C6A",
"(%	c #2C3133",
"_%	c #16181A",
":%	c #2F3334",
"<%	c #3B3F42",
"[%	c #787B79",
"}%	c #9FA09D",
"|%	c #979995",
"1%	c #8C8F8A",
"2%	c #656867",
"3%	c #2D3233",
"4%	c #121616",
"5%	c #000000",
"6%	c #101111",
"7%	c #2A2E30",
"8%	c #444849",
"9%	c #6B6E6B",
"0%	c #858885",
"a%	c #8F918E",
"b%	c #9C9D98",
"c%	c #999B97",
"d%	c #92938F",
"e%	c #878986",
"f%	c #7B7E7A",
"g%	c #5F6361",
"h%	c #3E4243",
"i%	c #2F3637",
"j%	c #282C2D",
"k%	c #0C0E0F",
"l%	c #020202",
"m%	c #101212",
"n%	c #1F2223",
"o%	c #2C3132",
"p%	c #2F3435",
"q%	c #2F3436",
"r%	c #2F3537",
"s%	c #2E3435",
"t%	c #2C3032",
"u%	c #1D2021",
"v%	c #0E1010",
"w%	c #010101",
"                                                                                                ",
"                                                                                                ",
"                                                                                                ",
"                                        . + @ # # $ % &                                         ",
"                                * = - ; > , ' ) ! ~ { ] ^ / ( _                                 ",
"                            % : < [ } | 1 2 3 4 5 6 7 8 9 0 a b c d                             ",
"                        e : f g h i j k l m n o p q r s t u v w x y z                           ",
"                      z A B C D E F G H k I J 4 K L M N O P Q R S T U V W                       ",
"                    $ X Y Z `  ...+.@.G #.$.%.&.o p *.=.-.;.>.,.'.).!.~.{.].                    ",
"                  ^./.B (._.:.<.` [.}.|.1.k 2.J 3.4.5.r s 6.u 7.8.9.0.a.b.c.].                  ",
"                d.e.f.g.h.i.i.g.:.` j.k.G #.l.m m.K n.M o.t u p.q.r.s.t.u.v.w.].                ",
"              x.y.z.A.i.B.C.C.D.E.F.G.}.H.H $.I.m.J.L M K.L.M.N.O.P.Q.R.S.T.U.V.W.              ",
"            X.Y.Z.`.A.D. +.+++B.g.<. .+.@+H $.%.n J.L #+N $+P N.O.P.Q.R.%+&+*+U.=+              ",
"            -+;+>+,+A.D. +.+++B.g.<.'++.@+H $.I.n J.L #+K.$+)+N.O.P.Q.R.S.&+!+~+{+e             ",
"          ]+^+h /+` :.i.B.C.(+D.A.F.G._+H.j $.I.m.J.L M o.L.M.p.:+r.s.t.S.<+[+}+|+1+2+          ",
"          3+Y [.+.'+4+A.h.i.i.E.5+6+/+7+8+#.l 9+4 K n.0+o.t u 7.q.a+s.t.*+b+c+}+&+!.d+          ",
"        e+f+g+G k./+6+F.:.`.:.4+D .._+@+h+k i+j+3.4.5.r -.k+l+m+8.9.n+o+p+b+c+}+}+q+r+s+        ",
"        _ t+9 h+@+E /+G.6+D 6+'+j.}.F u+#.v+I.n w+x+*.y+z+A+>.B+C+D+E+u.F+G+H+}+}+I+J+K+        ",
"        L+M+v+#.1.@+7+}.N+/+N++.E |.8+j $.i+j+3.O+n.M o.L.P N.O.P+Q+R+S+T+G+H+}+}+}+U+V+        ",
"      W+X+;+Y+M+M+Z+Y+`+Z+Z+ @t+.@C +@@@g+#@$@%@&@*@=@-@;@>@,@'@)@!@~@{@]@v ^@/@(@_@{+:@        ",
"      <@. [@}@}@V+|@|@|@1@1@1@2@2@2@3@3@3@. . . 4@4@4@]+]+]+$ $ $ x.5@d+= W 5@5@X.X.X.6@6@      ",
"              7@8@9@0@a@b@c@d@e@b@f@g@h@i@j@k@l@m@l@k@j@n@o@p@q@r@s@t@s@r@u@v@w@x@              ",
"              y@z@A@B@C@D@E@F@E@G@H@I@J@K@L@M@N@O@N@P@Q@R@S@T@U@V@W@X@W@Y@r@Z@`@ #              ",
"              .#+#@###$#%#&#*#&#%#=#-#;#>#,#'#)#!#)#'#~#{#]#^#/#(#_#:#_#(#<#[#}#|#              ",
"              1#2#3#4#5#6#7#8#7#6#9#0#a#b#c#d#e#f#e#d#g#h#i#j#k#l#m#n#m#l#o#p#q#r#              ",
"              .#+#@#s#t#u#v#w#v#%#x#-#y#z#g#A#B#C#B#'#D#E#F#G#H#I#J#K#J#(#L#[#M#|#              ",
"              y@z@N#O#H@P#Q#R#u#S#T#f@U#K@Q@V#W#X#A#Y#Q@R@Z#T@`# $I#l#I#.$+$Z@@$ #              ",
"      #$K+K+K+K+$$$$%$&$*$=$=$=$*$&$-$;$%$%$&$&$&$&$&$>$,$'$)$)$)$!$!$!$)$)$~${$# # # # ]$      ",
"        ^$/$($_$0 :$<$~ [$}$, |$1$2$3$4$5$6$7$8$!@9$0${@a$b$c$(@_@d$e$f$g$h$E+i$j$k$T+l$        ",
"        m$n$o$S l+M.P p$A+;.A+p$P M.l+>.o$,.O.q$P.D+s.R+u.*+&+G+c+}+}+}+}+}+}+}+}+}+t.c         ",
"        W+r$s$B+7.p.N.Q >.>.>.Q N.p.7.B+O.8.t$9.Q+n+u$u.*+&+G+c+}+}+}+}+}+}+}+}+}+!+v$K+        ",
"        w$x$y$C+8.O.z$R B+B+B+R O.O.8.C+P.9.A$s.B$t.S+p+&+G+c+}+}+}+}+}+}+}+}+}+}+C$D$E$        ",
"          F$|$G$a+P.P+C+C+C+C+C+P+P.a+D+Q+s.H$R.u.S.F+b+I$c+}+}+}+}+}+}+}+}+}+}+H+G+e           ",
"          5@J$K$s.Q.Q+A$A$A$A$A$Q+Q.0.E+R+t.u.L$M$&+N$!+H+}+}+}+}+}+}+}+}+}+}+}+&+O$P$          ",
"            Q$R$:+u$R+B$B$H$B$B$R+R.t.u.S+S.F+&+b+I$c+}+}+}+}+}+}+}+}+}+}+}+}+c+v$e             ",
"            P$S$T$R+L$S+U$u.U$S+L$L$*+M$T.&+b+I$c+H+}+}+}+}+}+}+}+}+}+}+}+}+H+F+V$W+            ",
"              K+W$X$T+F+F+F+F+T.&+&+b+b+G+!+c+H+}+}+}+}+}+}+}+}+}+}+}+}+}+}+&+Y$Z$              ",
"                d+`$ %b+G+G+G+G+I$!+.%c+H+}+}+}+}+}+}+}+}+}+}+}+}+}+}+}+}++%@%_                 ",
"                  d+f$#%c+H+H+H+H+}+}+}+}+}+}+}+}+}+}+}+}+}+}+}+}+}+}+}+$%%%_                   ",
"                    5@&%*%%+}+}+}+}+}+}+}+}+}+}+}+}+}+}+}+}+}+}+}+}+c+F+=%].                    ",
"                      -%;%>%,%!+}+}+}+}+}+}+}+}+}+}+}+}+}+}+}+}+H++%'%)%X.                      ",
"                        !%~%{%]%'.G+}+}+}+}+}+}+}+}+}+}+}+}+c+C$^%/%e (%                        ",
"                          _%:%<%[%}%S |%I+G+c+}+}+H+!+$%I+u.1%2%X.3%4%                          ",
"                            5%6%7%6@8%9%0%a%J+b%c%d%e%f%g%h%i%j%k%5%5%                          ",
"                            5%5%5%l%m%n%o%p%q%r%r%q%s%t%u%v%w%5%5%5%5%                          ",
"                                  5%5%5%5%5%5%l%l%5%5%5%5%5%5%5%                                ",
"                                                                                                ",
"                                                                                                "};
