/* XPM */
static char * game_cards_xpm[] = {
"48 48 667 2",
"  	c None",
". 	c #8F908C",
"+ 	c #8C8E89",
"@ 	c #8F918C",
"# 	c #8E8F8B",
"$ 	c #8D8E8A",
"% 	c #8D8F8A",
"& 	c #8B8D88",
"* 	c #898B86",
"= 	c #8A8C87",
"- 	c #9A9D98",
"; 	c #E9E9E8",
"> 	c #FDFDFD",
", 	c #FDFDFC",
"' 	c #FCFCFC",
") 	c #FCFCFB",
"! 	c #FBFCFB",
"~ 	c #FBFBFB",
"{ 	c #FBFBFA",
"] 	c #FAFAF9",
"^ 	c #F9F9F9",
"/ 	c #F8F9F8",
"( 	c #F8F8F7",
"_ 	c #F7F7F7",
": 	c #F7F7F6",
"< 	c #F6F6F5",
"[ 	c #F2F2F1",
"} 	c #D6D7D5",
"| 	c #969794",
"1 	c #8E908B",
"2 	c #F6F1F0",
"3 	c #F5F0EF",
"4 	c #F5F5F4",
"5 	c #F4F4F3",
"6 	c #F3F4F2",
"7 	c #F3F3F1",
"8 	c #F1F2F0",
"9 	c #F1F1F0",
"0 	c #F0F0EF",
"a 	c #EFEFEE",
"b 	c #EFEFED",
"c 	c #EEEEEC",
"d 	c #EDEDEC",
"e 	c #ECEDEB",
"f 	c #ECECEA",
"g 	c #D6D6D4",
"h 	c #8E8F8A",
"i 	c #878C89",
"j 	c #878B89",
"k 	c #878A86",
"l 	c #888A85",
"m 	c #F5F3F2",
"n 	c #E78A8A",
"o 	c #E68484",
"p 	c #F4EFEE",
"q 	c #EBECE9",
"r 	c #EAEBE9",
"s 	c #E9EAE8",
"t 	c #E9EAE7",
"u 	c #EFF0EE",
"v 	c #9AA7AE",
"w 	c #D6E0EA",
"x 	c #E8EFF6",
"y 	c #ECF1F8",
"z 	c #E7EEF6",
"A 	c #E3ECF5",
"B 	c #DFE9F3",
"C 	c #DBE6F2",
"D 	c #D8E4F1",
"E 	c #D4E1EF",
"F 	c #CCDBEA",
"G 	c #F1D5D4",
"H 	c #E68888",
"I 	c #E68383",
"J 	c #EECCCB",
"K 	c #EEEFED",
"L 	c #EDEEEC",
"M 	c #E8E9E6",
"N 	c #E7E7E5",
"O 	c #888A86",
"P 	c #E8EEF6",
"Q 	c #C3D6EA",
"R 	c #B7CDE6",
"S 	c #B4CBE5",
"T 	c #B3CAE4",
"U 	c #B1C9E3",
"V 	c #B0C8E3",
"W 	c #AEC8E2",
"X 	c #ADC7E2",
"Y 	c #ACC6E1",
"Z 	c #A8C1DD",
"` 	c #898C87",
" .	c #F5F6F4",
"..	c #F5F5F3",
"+.	c #EBAEAE",
"@.	c #E9A3A2",
"#.	c #E89C9C",
"$.	c #E9A4A3",
"%.	c #F1F1EF",
"&.	c #F0F0EE",
"*.	c #E7E8E5",
"=.	c #E6E7E5",
"-.	c #E5E6E3",
";.	c #929A9C",
">.	c #B0C8E2",
",.	c #AFC7E2",
"'.	c #AEC6E1",
").	c #ADC5E1",
"!.	c #ACC5E0",
"~.	c #AAC4E0",
"{.	c #A9C3E0",
"].	c #A8C2DF",
"^.	c #A4BEDC",
"/.	c #F3F3F2",
"(.	c #E68585",
"_.	c #EDC2C1",
":.	c #ECBCBB",
"<.	c #E47C7C",
"[.	c #F0EFED",
"}.	c #EDEEEB",
"|.	c #EBECEA",
"1.	c #EAEBE8",
"2.	c #E6E6E4",
"3.	c #E5E5E3",
"4.	c #E3E4E1",
"5.	c #A8B4BF",
"6.	c #D5E1EF",
"7.	c #A9C3DF",
"8.	c #A7C1DE",
"9.	c #A6C0DE",
"0.	c #A5BFDD",
"a.	c #A3BFDD",
"b.	c #A2BEDC",
"c.	c #A1BDDC",
"d.	c #A0BCDB",
"e.	c #9DB9D8",
"f.	c #8A8C88",
"g.	c #EFD6D5",
"h.	c #E47676",
"i.	c #E58282",
"j.	c #E47F7F",
"k.	c #E26F6F",
"l.	c #ECCFCE",
"m.	c #E6E7E4",
"n.	c #E4E4E2",
"o.	c #E2E3E0",
"p.	c #868A89",
"q.	c #C0CDDB",
"r.	c #C2D4E8",
"s.	c #A2BCDB",
"t.	c #9EBADA",
"u.	c #9DB9D9",
"v.	c #9CB8D9",
"w.	c #9BB8D8",
"x.	c #99B7D8",
"y.	c #98B6D7",
"z.	c #97B5D7",
"A.	c #95B2D3",
"B.	c #E9ADAC",
"C.	c #E48080",
"D.	c #EBC0BF",
"E.	c #EBBFBE",
"F.	c #E37777",
"G.	c #E7A4A3",
"H.	c #EBEBE9",
"I.	c #E8E9E7",
"J.	c #E4E5E2",
"K.	c #E3E4E2",
"L.	c #E3E3E0",
"M.	c #E1E2DF",
"N.	c #E0E2DE",
"O.	c #858987",
"P.	c #DEE6EF",
"Q.	c #A9C1DD",
"R.	c #9AB6D7",
"S.	c #98B5D6",
"T.	c #96B4D6",
"U.	c #95B3D5",
"V.	c #94B2D5",
"W.	c #92B1D4",
"X.	c #91B0D4",
"Y.	c #8FAFD3",
"Z.	c #8EAED3",
"`.	c #8DABCF",
" +	c #FAFAFA",
".+	c #E58A89",
"++	c #E8A6A6",
"@+	c #E69E9E",
"#+	c #E3807F",
"$+	c #E5E7E4",
"%+	c #DFE1DD",
"&+	c #DFE0DD",
"*+	c #919591",
"=+	c #E3EAF4",
"-+	c #92B0D3",
";+	c #90AFD3",
">+	c #8FAED2",
",+	c #8EADD2",
"'+	c #8DACD1",
")+	c #8BABD1",
"!+	c #89AAD0",
"~+	c #88A9CF",
"{+	c #87A8CF",
"]+	c #85A6CE",
"^+	c #82A4CA",
"/+	c #8B8D89",
"(+	c #EDEDEB",
"_+	c #ECEDEA",
":+	c #E2E2DF",
"<+	c #E1E2DE",
"[+	c #DEDFDC",
"}+	c #DDDEDA",
"|+	c #A4ABB0",
"1+	c #C7D6E7",
"2+	c #87A8CE",
"3+	c #86A7CE",
"4+	c #84A6CD",
"5+	c #83A5CC",
"6+	c #82A4CB",
"7+	c #80A3CB",
"8+	c #7FA2CA",
"9+	c #7DA1CA",
"0+	c #7BA0C9",
"a+	c #7A9CC5",
"b+	c #8A8D89",
"c+	c #F9F9F8",
"d+	c #E2E3E1",
"e+	c #E1E1DE",
"f+	c #DDDEDB",
"g+	c #DCDDDA",
"h+	c #DBDCD9",
"i+	c #888986",
"j+	c #B7C2CD",
"k+	c #9BB6D5",
"l+	c #668FBF",
"m+	c #6890C0",
"n+	c #6991C0",
"o+	c #6B92C1",
"p+	c #6D93C2",
"q+	c #6D94C2",
"r+	c #6A91C1",
"s+	c #648DBE",
"t+	c #5D88BB",
"u+	c #5884B9",
"v+	c #547FB4",
"w+	c #898C88",
"x+	c #EAEAE8",
"y+	c #E9E9E7",
"z+	c #E8E8E6",
"A+	c #E5C7C5",
"B+	c #DF7474",
"C+	c #DD5C5C",
"D+	c #DE6B6A",
"E+	c #E1B7B5",
"F+	c #E3E2DF",
"G+	c #DFA6A4",
"H+	c #DB5656",
"I+	c #DB5858",
"J+	c #DC7474",
"K+	c #DECECB",
"L+	c #DADCD8",
"M+	c #D9DBD7",
"N+	c #848987",
"O+	c #CED8E3",
"P+	c #658DBE",
"Q+	c #4878B2",
"R+	c #4877B2",
"S+	c #4A77B0",
"T+	c #EAEAE9",
"U+	c #E4C7C5",
"V+	c #DD5959",
"W+	c #DC5151",
"X+	c #DC4F4F",
"Y+	c #DB4D4D",
"Z+	c #DB4B4B",
"`+	c #DB5252",
" @	c #DA4646",
".@	c #DA4444",
"+@	c #D94242",
"@@	c #D94040",
"#@	c #D84F4F",
"$@	c #DBC5C1",
"%@	c #DBDCD8",
"&@	c #D8D9D5",
"*@	c #D7D9D4",
"=@	c #8D908D",
"-@	c #D7E1EC",
";@	c #4575AF",
">@	c #4373AF",
",@	c #4373AE",
"'@	c #4674AC",
")@	c #E08887",
"!@	c #DB4949",
"~@	c #DA4747",
"{@	c #DA4545",
"]@	c #D94343",
"^@	c #D94141",
"/@	c #D93F3F",
"(@	c #D83C3C",
"_@	c #D83A3A",
":@	c #D87977",
"<@	c #D8DAD6",
"[@	c #D8D8D4",
"}@	c #D6D8D4",
"|@	c #D5D7D3",
"1@	c #E0E1DE",
"2@	c #A3A6A5",
"3@	c #ADC2DB",
"4@	c #3F6FAB",
"5@	c #3E6FAB",
"6@	c #3E6EAB",
"7@	c #416FA9",
"8@	c #DC5B5B",
"9@	c #DB4C4C",
"0@	c #DB4A4A",
"a@	c #D83D3D",
"b@	c #D73838",
"c@	c #D73636",
"d@	c #D64443",
"e@	c #D4D5D1",
"f@	c #D3D5D0",
"g@	c #B3BAC1",
"h@	c #82A1C8",
"i@	c #3A6BA8",
"j@	c #3A6AA8",
"k@	c #396AA8",
"l@	c #3C6BA5",
"m@	c #E2E4E0",
"n@	c #D63434",
"o@	c #D63232",
"p@	c #D64B4A",
"q@	c #D4D6D1",
"r@	c #D4D5D0",
"s@	c #D2D4D0",
"t@	c #D1D3CE",
"u@	c #DCDEDA",
"v@	c #848A87",
"w@	c #C3CDD8",
"x@	c #5780B4",
"y@	c #3566A5",
"z@	c #3566A4",
"A@	c #3565A4",
"B@	c #3465A4",
"C@	c #3766A2",
"D@	c #E1E3DF",
"E@	c #DB7473",
"F@	c #D83B3B",
"G@	c #D73939",
"H@	c #D73737",
"I@	c #D32525",
"J@	c #D11A1A",
"K@	c #D01212",
"L@	c #D06866",
"M@	c #CFD1CC",
"N@	c #CFD1CB",
"O@	c #D0D2CE",
"P@	c #D0D1CD",
"Q@	c #DADBD7",
"R@	c #898B85",
"S@	c #878D8B",
"T@	c #D3DCE7",
"U@	c #4B76AE",
"V@	c #8A8D87",
"W@	c #DCC1BF",
"X@	c #D83E3E",
"Y@	c #D63030",
"Z@	c #D21F1F",
"`@	c #CF0E0E",
" #	c #CC0101",
".#	c #CC0000",
"+#	c #CC1E1E",
"@#	c #CAC4BE",
"##	c #C9CBC6",
"$#	c #C8CAC5",
"%#	c #C8CAC4",
"&#	c #C9CBC5",
"*#	c #CACCC7",
"=#	c #D7D9D5",
"-#	c #888B85",
";#	c #838885",
">#	c #9FABB9",
",#	c #BDCBDD",
"'#	c #B9C9DF",
")#	c #AFC2DB",
"!#	c #A9BED8",
"~#	c #A5BAD6",
"{#	c #A0B7D4",
"]#	c #99B2D1",
"^#	c #95AECF",
"/#	c #90ABCD",
"(#	c #89A6CA",
"_#	c #85A2C8",
":#	c #809EC6",
"<#	c #7A98BF",
"[#	c #F0F1EF",
"}#	c #DEDFDB",
"|#	c #DEE0DD",
"1#	c #D99795",
"2#	c #D42A2A",
"3#	c #D11818",
"4#	c #CE0808",
"5#	c #CC1514",
"6#	c #C9ACA8",
"7#	c #C7C9C3",
"8#	c #C6C8C3",
"9#	c #C5C8C2",
"0#	c #C5C7C1",
"a#	c #D6D7D3",
"b#	c #8D908E",
"c#	c #9BA1A3",
"d#	c #7E8689",
"e#	c #8B8E8D",
"f#	c #888D8D",
"g#	c #878D8E",
"h#	c #878D8D",
"i#	c #858C8D",
"j#	c #868C8C",
"k#	c #858C8C",
"l#	c #848A8A",
"m#	c #84898C",
"n#	c #82888A",
"o#	c #8A8C86",
"p#	c #D5D6D2",
"q#	c #D4D4D1",
"r#	c #D2D4CF",
"s#	c #CFD0CB",
"t#	c #CE8582",
"u#	c #CC0404",
"v#	c #CC1716",
"w#	c #C9ADA9",
"x#	c #C7CAC4",
"y#	c #C6C8C2",
"z#	c #C4C6C0",
"A#	c #C3C6BF",
"B#	c #D3D5D1",
"C#	c #858A88",
"D#	c #A2AFBD",
"E#	c #C2CFE0",
"F#	c #B6C7DB",
"G#	c #ACBED5",
"H#	c #A7B9D1",
"I#	c #A1B6CE",
"J#	c #9DB2CD",
"K#	c #98AEC9",
"L#	c #94AAC7",
"M#	c #8FA7C4",
"N#	c #8BA3C1",
"O#	c #869FBF",
"P#	c #809BBD",
"Q#	c #7D97B7",
"R#	c #D1D2CE",
"S#	c #D0D2CD",
"T#	c #CED0CB",
"U#	c #CDCFCA",
"V#	c #CCCEC9",
"W#	c #CC9591",
"X#	c #CC0A09",
"Y#	c #CB1919",
"Z#	c #C8B1AB",
"`#	c #C4C7C1",
" $	c #C2C5BF",
".$	c #C2C4BE",
"+$	c #D2D3CF",
"@$	c #8C908E",
"#$	c #989D9F",
"$$	c #828789",
"%$	c #8B8E89",
"&$	c #898E8E",
"*$	c #888D8E",
"=$	c #868C8E",
"-$	c #858A8C",
";$	c #848A8D",
">$	c #848A8C",
",$	c #83898B",
"'$	c #CCCEC8",
")$	c #CBCDC8",
"!$	c #CAA49F",
"~$	c #CC1212",
"{$	c #CB1D1C",
"]$	c #C7B2AD",
"^$	c #C5C7C2",
"/$	c #C3C5BF",
"($	c #C1C3BD",
"_$	c #C0C3BC",
":$	c #CFD1CD",
"<$	c #838886",
"[$	c #9DAAB5",
"}$	c #B8C7D9",
"|$	c #BDCADB",
"1$	c #B7C5D7",
"2$	c #B2C2D6",
"3$	c #ABBDD2",
"4$	c #A7B9D0",
"5$	c #A1B5CD",
"6$	c #9BB0CA",
"7$	c #96ACC7",
"8$	c #91A8C4",
"9$	c #8CA4C2",
"0$	c #879FBF",
"a$	c #819BBA",
"b$	c #C7AEAA",
"c$	c #CB3B39",
"d$	c #C7B4AE",
"e$	c #C1C4BE",
"f$	c #BFC2BC",
"g$	c #BFC1BB",
"h$	c #8D8F8D",
"i$	c #9EA4A7",
"j$	c #7A848B",
"k$	c #878986",
"l$	c #8A8B87",
"m$	c #CBCDC7",
"n$	c #C7C9C4",
"o$	c #C6C9C3",
"p$	c #C2C5BE",
"q$	c #C2B8B3",
"r$	c #C2BEB8",
"s$	c #BFC2BB",
"t$	c #BFBBB5",
"u$	c #BFB6AF",
"v$	c #BDC0B9",
"w$	c #CACDC7",
"x$	c #A2B0BE",
"y$	c #C2D0E1",
"z$	c #B8C9DF",
"A$	c #ADC0D8",
"B$	c #A9BDD6",
"C$	c #A3B8D3",
"D$	c #9DB3D0",
"E$	c #98AFCE",
"F$	c #92ACCA",
"G$	c #8FA8C8",
"H$	c #8AA4C6",
"I$	c #849FC3",
"J$	c #809CC0",
"K$	c #7B97B9",
"L$	c #898B88",
"M$	c #E7E8E6",
"N$	c #CA2221",
"O$	c #C74846",
"P$	c #BEC1BB",
"Q$	c #BEC0BA",
"R$	c #C6423F",
"S$	c #C92120",
"T$	c #BCBEB8",
"U$	c #888E8C",
"V$	c #979C9F",
"W$	c #818688",
"X$	c #8D9290",
"Y$	c #8C9190",
"Z$	c #8B908F",
"`$	c #8A8F90",
" %	c #898E8F",
".%	c #888D8F",
"+%	c #888E8E",
"@%	c #858D8E",
"#%	c #858B8D",
"$%	c #838B8D",
"%%	c #E5E6E4",
"&%	c #C8CBC5",
"*%	c #C3C6C0",
"=%	c #C0C2BC",
"-%	c #C55F5C",
";%	c #CB0F0F",
">%	c #C4605C",
",%	c #C45F5C",
"'%	c #CB0C0C",
")%	c #C45C58",
"!%	c #BABDB6",
"~%	c #868887",
"{%	c #A5B2C0",
"]%	c #C5D2E3",
"^%	c #AEBFD4",
"/%	c #A3B6CD",
"(%	c #9FB2CC",
"_%	c #9BAFC8",
":%	c #92A8C4",
"<%	c #8EA5C2",
"[%	c #89A1BF",
"}%	c #859EBC",
"|%	c #829CBB",
"1%	c #7D99B9",
"2%	c #7B94B3",
"3%	c #BF9C96",
"4%	c #C82C2B",
"5%	c #C82A28",
"6%	c #BD9690",
"7%	c #898E8B",
"8%	c #929999",
"9%	c #868A87",
"0%	c #8C9292",
"a%	c #8A9195",
"b%	c #8A9093",
"c%	c #899094",
"d%	c #898F93",
"e%	c #879094",
"f%	c #868E93",
"g%	c #848D92",
"h%	c #848C92",
"i%	c #828B91",
"j%	c #818990",
"k%	c #C1C4BD",
"l%	c #C0C3BD",
"m%	c #BEC1BA",
"n%	c #BCBFB8",
"o%	c #BBBEB7",
"p%	c #CA1918",
"q%	c #C26965",
"r%	c #C36360",
"s%	c #CA1313",
"t%	c #BABCB5",
"u%	c #848886",
"v%	c #9FABB6",
"w%	c #B7C4D5",
"x%	c #ACBBCD",
"y%	c #A8B8CB",
"z%	c #A2B4C8",
"A%	c #9EB0C6",
"B%	c #9AACC3",
"C%	c #95A9C0",
"D%	c #91A5BF",
"E%	c #8DA3BD",
"F%	c #889FBA",
"G%	c #849BB7",
"H%	c #8097B2",
"I%	c #BDC0BA",
"J%	c #C45451",
"K%	c #C73533",
"L%	c #C82F2D",
"M%	c #C54C4A",
"N%	c #808281",
"O%	c #818683",
"P%	c #8C8E8A",
"Q%	c #898C89",
"R%	c #888C88",
"S%	c #898B89",
"T%	c #888B89",
"U%	c #858988",
"V%	c #848988",
"W%	c #858888",
"X%	c #BBBDB7",
"Y%	c #BE918B",
"Z%	c #CB0A0A",
"`%	c #CC0706",
" &	c #BF8782",
".&	c #BDBFB9",
"+&	c #BABDB7",
"@&	c #BBBCB5",
"#&	c #CA1A19",
"$&	c #BBB8B1",
"%&	c #8A8B86",
"&&	c #BDC0BC",
"*&	c #BCBFB9",
"=&	c #A8AAA5",
"-&	c #8B8C88",
";&	c #B5B8B2",
">&	c #CED0CC",
",&	c #D3D4D0",
"'&	c #CFD0CC",
")&	c #CDD0CA",
"!&	c #C9CCC6",
"~&	c #BBBEB8",
"{&	c #A6A9A3",
"]&	c #898B87",
"^&	c #7F827E",
"/&	c #878984",
"(&	c #7B7D78",
"                                                                                                ",
"                                                                                                ",
"                                                                                                ",
"                                                                                                ",
"                                                                                                ",
"                                                                                                ",
"                                                                                                ",
"                                                                                                ",
"                                                                                                ",
"                                                                                                ",
"                                        . + @ @ # $ $ % % + + + & & & + + * * * = = = %         ",
"                                      - ; > > > > > > > , ' ) ! ~ { ] ] ^ / ( _ : < [ } |       ",
"                                    1 ; ~ ( < 2 3 4 4 5 5 6 7 [ 8 9 0 0 a b c d e f e 0 g h     ",
"              i j k l l l l l l l l * > : < m n o p 5 6 7 [ 8 9 0 0 a b c d e f q r s t u l     ",
"            j v w x y z A B C D E F = > < 4 G H I J 7 [ 8 9 0 0 a K c L e f q r s t M N 0 l     ",
"            O P Q R S T U V W X Y Z ` >  ...+.@.#.$.9 9 %.&.u K c L e f q r s t M *.=.-.K l     ",
"            ;.y U >.,.'.).!.~.{.].^.` ' 5 /.(._.:.<.[.&.u K c }.e |.q 1.s t M *.=.2.3.4.L l     ",
"            5.6.7.].8.9.0.a.b.c.d.e.f.) 6 g.h.i.j.k.l.K c }.e |.q 1.s t M *.=.m.-.n.4.o.|.l     ",
"          p.q.r.s.d.t.u.v.w.x.y.z.A.f.{ [ B.C.D.E.F.G.}.e |.H.1.s I.M *.=.m.-.J.K.L.M.N.r l     ",
"          O.P.Q.R.S.T.U.V.W.X.Y.Z.`.`  +9 .+++K L @+#+|.H.1.t I.M *.m.$+-.J.4.L.M.N.%+&+t l     ",
"          *+=+-+;+>+,+'+)+!+~+{+]+^+/+] &.K L (+_+|.H.1.t I.M *.m.$+-.J.4.L.:+<+%+&+[+}+=.*     ",
"          |+1+~+2+3+4+5+6+7+8+9+0+a+b+c+K (+e f H.1.t I.M *.m.$+-.J.4.d+:+e+%+&+[+f+g+h+-.*     ",
"        i+j+k+l+m+n+o+p+q+r+s+t+u+v+w+( }.f H.r x+y+z+A+B+C+D+E+F+G+H+I+J+K+[+f+g+h+L+M+4.*     ",
"        N+O+P+Q+Q+Q+Q+Q+Q+Q+Q+R+R+S+w+: |.T+x+y+z+*.U+V+W+X+Y+Z+`+ @.@+@@@#@$@%@L+M+&@*@M.*     ",
"        =@-@;@>@>@>@,@,@,@,@,@,@,@'@f.< 1.y+z+*.m.2.)@X+Y+Z+!@~@{@]@^@/@(@_@:@M+<@[@}@|@1@l     ",
"        2@3@4@4@4@4@5@5@5@5@5@6@6@7@w+4 I.z+m.2.-.J.8@9@0@~@{@]@^@/@a@_@b@c@d@[@}@|@e@f@[+l     ",
"        g@h@i@j@j@j@j@j@j@k@k@k@k@l@` 5 *.2.-.J.4.m@8@~@{@]@^@/@a@_@b@c@n@o@p@|@q@r@s@t@u@l     ",
"      v@w@x@y@y@y@z@z@z@z@z@z@A@B@C@w+/.-.J.4.o.D@M.E@.@^@/@a@F@G@H@o@I@J@K@L@M@N@O@P@M@Q@R@    ",
"      S@T@U@B@B@B@B@B@B@B@B@B@B@B@C@V@[ J.o.D@M.1@&+W@]@X@(@G@Y@Z@`@ #.#.#+#@###$#%#&#*#=#-#    ",
"      ;#>#,#'#)#!#~#{#]#^#/#(#_#:#<#f.[#}#|#1@&+}#f+u@1#2#3#4#.#.#.#.#.#5#6#$#%#7#8#9#0#a#-#    ",
"      b#c#d#b+e#e#f#g#h#i#j#k#l#m#n#o#K p#f@f@r@q#r#t@s#t#u#.#.#.#.#.#v#w#x#7#y#9#0#z#A#B#l     ",
"      C#D#E#F#G#H#I#J#K#L#M#N#O#P#Q#w+d f@t@R#S#M@s#T#U#V#W#X#.#.#.#Y#Z#7#y#9#`#z#A# $.$+$*     ",
"      @$#$$$%$@$e#&$*$g#=$j#-$;$>$,$= |.+$S#M@s#T#U#V#'$)$*#!$~$.#{$]$y#^$`#z#/$ $.$($_$:$*     ",
"      <$[$}$|$1$2$3$4$5$6$7$8$9$0$a$w+r S#T#T#U#V#'$)$*###&#$#b$c$d$^$`#z#/$ $e$($_$f$g$U#*     ",
"      h$i$j$k = = = = = = = * O k k$l$y+N@U#V#)$m$*###&#%#n$o$y#0#`#z#/$p$q$r$_$s$t$u$v$w$*     ",
"      O.x$y$z$A$B$C$D$E$F$G$H$I$J$K$L$M$U#)$m$*###&#%#n$o$y#0#`#z#/$p$e$($N$O$P$Q$R$S$T$$#*     ",
"      U$V$W$b#X$Y$Z$`$ %.%+%=$@%#%$%l$%%'$*###&%%#n$o$y#0#`#*%/$.$e$($=%s$-%;%>%,%'%)%!%o$*     ",
"      ~%{%]%^%/%(%_%7$:%<%[%}%|%1%2%L$J.*#&%%#7#o$y#0#`#*%/$.$e$($=%s$P$Q$3%.#4%5%.#6%!%0#*     ",
"      7%8%9%0%a%b%c%d%e%f%f%g%h%i%j%= d+&#7#8#9#0#z#*%/$.$k%l%=%s$m%Q$v$n%o%p%q%r%s%t%!%z#l     ",
"      u%v%,#w%x%y%z%A%B%C%D%E%F%G%H%V@N.n$9#0#z#*%/$.$k%l%=%s$m%I%v$n%o%o%!%J%K%L%M%!%!% $l     ",
"        N%O%= %$P%w+Q%R%S%T%9%U%V%W%o#|#y#z#*% $.$k%l%=%s$m%I%v$n%o%X%!%!%!%Y%Z%`% &!%!%e$l     ",
"                                    l h+7# $.$k%_$=%g$m%I%.&n%o%+&!%!%!%!%!%@&#&s%$&!%o%Q$*     ",
"                                    %&&&p#%#A# $.$k%=%=%s$I%*&n%n%n%n%n%n%n%o%o%o%o%n%s$=&-&    ",
"                                      $ ;&>&,&t@P@'&)&V#w$!&##$#$#n$o$9#0#z#A# $e$($~&{&]&      ",
"                                        ^&l /&/&l l l l l /&/&/&/&/&/&l l /&/&/&l l l (&        ",
"                                                                                                ",
"                                                                                                ",
"                                                                                                "};
