/* XPM */
static char * geany_xpm[] = {
"48 48 876 2",
"  	c None",
". 	c #BABDB6",
"+ 	c #BBBEB7",
"@ 	c #E6E7E5",
"# 	c #FBFBFA",
"$ 	c #FDFDFD",
"% 	c #F9F9F9",
"& 	c #FDFDFC",
"* 	c #FAFAFA",
"= 	c #FAFAF9",
"- 	c #F8F8F8",
"; 	c #FBFBFB",
"> 	c #F8F9F8",
", 	c #FCFCFC",
"' 	c #F7F7F6",
") 	c #E6E6E4",
"! 	c #F6F6F5",
"~ 	c #FEFEFD",
"{ 	c #F8F8F7",
"] 	c #F4F4F3",
"^ 	c #F8F9F7",
"/ 	c #F9F9F8",
"( 	c #F5F5F5",
"_ 	c #EDEEEC",
": 	c #F8F8F6",
"< 	c #F5F5F4",
"[ 	c #F2F2F1",
"} 	c #D8DAD6",
"| 	c #D5D7D2",
"1 	c #FEFEFE",
"2 	c #F5F5F2",
"3 	c #F1F2F0",
"4 	c #D6D7D3",
"5 	c #FCFCFB",
"6 	c #C7A400",
"7 	c #C5A200",
"8 	c #F6F7F5",
"9 	c #F7F7F7",
"0 	c #C7A305",
"a 	c #C6A204",
"b 	c #C6A203",
"c 	c #C7A302",
"d 	c #C6A300",
"e 	c #D9BD2B",
"f 	c #EFE17E",
"g 	c #F8F1B6",
"h 	c #F8F0B2",
"i 	c #F1E58F",
"j 	c #D9BD22",
"k 	c #C6A200",
"l 	c #D3D5D0",
"m 	c #DDDEDB",
"n 	c #CEAE1A",
"o 	c #F2E7AF",
"p 	c #FCF8D5",
"q 	c #FCF4BE",
"r 	c #F0E178",
"s 	c #CDAB0E",
"t 	c #E6CF40",
"u 	c #FAF3BA",
"v 	c #F3E359",
"w 	c #EFD81A",
"x 	c #EFD91B",
"y 	c #F3E45A",
"z 	c #F9F3B9",
"A 	c #EDDE6A",
"B 	c #C9A708",
"C 	c #CBCEC8",
"D 	c #C7A202",
"E 	c #C6A402",
"F 	c #F7EFAB",
"G 	c #FDF8CC",
"H 	c #FDF3A8",
"I 	c #F9EB7F",
"J 	c #FAEE8E",
"K 	c #F5E56A",
"L 	c #C5A100",
"M 	c #DDC230",
"N 	c #F7EDAF",
"O 	c #D8BC28",
"P 	c #CEAC00",
"Q 	c #DCBE00",
"R 	c #EFD814",
"S 	c #F7E97F",
"T 	c #F3E78E",
"U 	c #C6A302",
"V 	c #C6A507",
"W 	c #D6BC40",
"X 	c #E8D785",
"Y 	c #ECDE97",
"Z 	c #CAAA15",
"` 	c #FCF7CC",
" .	c #FAED89",
"..	c #FAEC7E",
"+.	c #F7E763",
"@.	c #F5E351",
"#.	c #FBEF93",
"$.	c #CAA90E",
"%.	c #E8D672",
"&.	c #DDC54D",
"*.	c #CDAE22",
"=.	c #C7A606",
"-.	c #F2E58E",
";.	c #D7BD47",
">.	c #CCAA00",
",.	c #E8CE02",
"'.	c #F7EA82",
").	c #E2CB4B",
"!.	c #F3F3F2",
"~.	c #C7A301",
"{.	c #D1B734",
"].	c #E3D17B",
"^.	c #F1E9B8",
"/.	c #FAF6D9",
"(.	c #F2E9B3",
"_.	c #F4E9A8",
":.	c #DEC652",
"<.	c #EEDF83",
"[.	c #FAED8E",
"}.	c #F5E454",
"|.	c #F4E143",
"1.	c #F6E766",
"2.	c #ECD95C",
"3.	c #DCC238",
"4.	c #F3E37C",
"5.	c #F7EC9C",
"6.	c #F8ED9F",
"7.	c #E4CF60",
"8.	c #D5BA32",
"9.	c #CBAA15",
"0.	c #D4B82B",
"a.	c #ECDE90",
"b.	c #CBA900",
"c.	c #EFDB2F",
"d.	c #F1E27D",
"e.	c #D2D4CF",
"f.	c #FFFFFF",
"g.	c #F4F4F2",
"h.	c #C4C7C0",
"i.	c #C6A306",
"j.	c #DFCA6D",
"k.	c #FBF8E5",
"l.	c #F7F1C5",
"m.	c #FAF1A9",
"n.	c #FAF09D",
"o.	c #FAF1A0",
"p.	c #FBF19C",
"q.	c #F6E984",
"r.	c #D1B326",
"s.	c #FBF4B4",
"t.	c #F4E352",
"u.	c #F3E046",
"v.	c #FBF097",
"w.	c #D1B11C",
"x.	c #EED61D",
"y.	c #F1DA18",
"z.	c #EFD80F",
"A.	c #F1DA20",
"B.	c #F4E45A",
"C.	c #FAEE97",
"D.	c #EFDE79",
"E.	c #CBAB16",
"F.	c #C9A90C",
"G.	c #DCC00A",
"H.	c #F5EB8E",
"I.	c #C9A70D",
"J.	c #ECE0A3",
"K.	c #F9EF91",
"L.	c #F9ED88",
"M.	c #F9EF97",
"N.	c #FAF1A5",
"O.	c #FAF2A3",
"P.	c #FBF19B",
"Q.	c #FBEF89",
"R.	c #DABD13",
"S.	c #D9BF35",
"T.	c #F9EF96",
"U.	c #F9EE8F",
"V.	c #D9BE2E",
"W.	c #D5B704",
"X.	c #EDD720",
"Y.	c #F0D918",
"Z.	c #EED506",
"`.	c #EBD200",
" +	c #E8CD05",
".+	c #F3E262",
"++	c #F9ED92",
"@+	c #CDAD18",
"#+	c #C4A000",
"$+	c #D0B00B",
"%+	c #F5E983",
"&+	c #F0E7B0",
"*+	c #F6F1D2",
"=+	c #FAEE90",
"-+	c #F8EB7C",
";+	c #F9ED8B",
">+	c #F9EF9A",
",+	c #FAF1A4",
"'+	c #FAF19F",
")+	c #FBF096",
"!+	c #FAE853",
"~+	c #E8D10F",
"{+	c #CCAD01",
"]+	c #C6A900",
"^+	c #DCC607",
"/+	c #E9D31F",
"(+	c #EDD718",
"_+	c #E7CC00",
":+	c #E2C700",
"<+	c #EEDB54",
"[+	c #FBF095",
"}+	c #C8A70A",
"|+	c #F5E877",
"1+	c #D0D1C6",
"2+	c #F8F7F3",
"3+	c #F8F7F2",
"4+	c #CFCDBB",
"5+	c #BCB47E",
"6+	c #DEC544",
"7+	c #F6EFCA",
"8+	c #E8D671",
"9+	c #FCF6C4",
"0+	c #F8EC81",
"a+	c #FAF09B",
"b+	c #FAF097",
"c+	c #FBF090",
"d+	c #FAE852",
"e+	c #F8E440",
"f+	c #ECD518",
"g+	c #E6CB04",
"h+	c #E2C804",
"i+	c #E5CD0F",
"j+	c #EDD823",
"k+	c #F0D920",
"l+	c #F1DA17",
"m+	c #E3C805",
"n+	c #F4E477",
"o+	c #F4E47B",
"p+	c #DABF35",
"q+	c #C4A100",
"r+	c #C7A50A",
"s+	c #F5E76C",
"t+	c #BDAB4F",
"u+	c #B1B09C",
"v+	c #A7A9A0",
"w+	c #99905A",
"x+	c #BF9E07",
"y+	c #EADA77",
"z+	c #F2E792",
"A+	c #C9A80E",
"B+	c #EEE096",
"C+	c #FDF9DA",
"D+	c #FCF3AE",
"E+	c #F9EF93",
"F+	c #FAEE92",
"G+	c #FAEF8E",
"H+	c #FBED7B",
"I+	c #FCE855",
"J+	c #FBE84C",
"K+	c #F9E543",
"L+	c #F8E33A",
"M+	c #F6E131",
"N+	c #F4DE29",
"O+	c #F3DC20",
"P+	c #EFD70E",
"Q+	c #EED505",
"R+	c #ECD408",
"S+	c #F0DE4B",
"T+	c #FAEF9B",
"U+	c #E6D153",
"V+	c #D6BA2D",
"W+	c #F3E374",
"X+	c #C7A60A",
"Y+	c #F3E461",
"Z+	c #BC9A03",
"`+	c #C39F04",
" @	c #C3A51E",
".@	c #D1B533",
"+@	c #ECDD80",
"@@	c #F8ED95",
"#@	c #E7D45A",
"$@	c #CCAC16",
"%@	c #D3B630",
"&@	c #EEE199",
"*@	c #FCF7D3",
"=@	c #FDF8C8",
"-@	c #FCF5B2",
";@	c #FCF19D",
">@	c #FDF08E",
",@	c #FDEE81",
"'@	c #FBEB68",
")@	c #FAE64B",
"!@	c #F8E43E",
"~@	c #F7E341",
"{@	c #F6E343",
"]@	c #F6E346",
"^@	c #F5E44F",
"/@	c #F7E76C",
"(@	c #FAEE8F",
"_@	c #FAF0A3",
":@	c #E8D458",
"<@	c #CEAC09",
"[@	c #C8A500",
"}@	c #D6B70A",
"|@	c #FAED8A",
"1@	c #C8A60A",
"2@	c #F3E256",
"3@	c #F8F0B8",
"4@	c #F5ECB0",
"5@	c #E2CE6D",
"6@	c #EBDC79",
"7@	c #F9EFA0",
"8@	c #F7EB8A",
"9@	c #F6EA82",
"0@	c #E3CD4E",
"a@	c #D0B221",
"b@	c #C7A308",
"c@	c #D1B42A",
"d@	c #E0C95B",
"e@	c #EBDB83",
"f@	c #EFE18F",
"g@	c #F2E79C",
"h@	c #F8EEAC",
"i@	c #FCF3BC",
"j@	c #FBF3B8",
"k@	c #F6EC9E",
"l@	c #F1E386",
"m@	c #ECDB6F",
"n@	c #E8D358",
"o@	c #DDC12C",
"p@	c #CFAE0B",
"q@	c #CBAA00",
"r@	c #D6B700",
"s@	c #DCC000",
"t@	c #DCBE0B",
"u@	c #C9A60A",
"v@	c #F2E04B",
"w@	c #C6A000",
"x@	c #EADA84",
"y@	c #F7EFB8",
"z@	c #EEE29D",
"A@	c #EAD974",
"B@	c #F9F1A9",
"C@	c #F8ED92",
"D@	c #F7EC8C",
"E@	c #EECE75",
"F@	c #EECE6F",
"G@	c #F6E876",
"H@	c #EBD859",
"I@	c #DFC640",
"J@	c #D6B82A",
"K@	c #D1B31F",
"L@	c #CEAD15",
"M@	c #CAA80B",
"N@	c #C6A202",
"O@	c #C9A706",
"P@	c #CCAB08",
"Q@	c #CFAE08",
"R@	c #D3B207",
"S@	c #DABC07",
"T@	c #E3C804",
"U@	c #EAD000",
"V@	c #DFB800",
"W@	c #DCB300",
"X@	c #DDC000",
"Y@	c #DBBE0C",
"Z@	c #F9EC87",
"`@	c #C5A000",
" #	c #C9A709",
".#	c #F1DE41",
"+#	c #DDC451",
"@#	c #F5ECAE",
"##	c #FCF6CE",
"$#	c #D2B531",
"%#	c #C3A000",
"&#	c #EAD86D",
"*#	c #F9F2B0",
"=#	c #F8EE98",
"-#	c #C45733",
";#	c #C45731",
">#	c #F9EB80",
",#	c #F9EB7B",
"'#	c #F9EB76",
")#	c #FAEB73",
"!#	c #FAEB70",
"~#	c #FCEC6D",
"{#	c #FCEC67",
"]#	c #FAE857",
"^#	c #F7E441",
"/#	c #F6E030",
"(#	c #F4DE28",
"_#	c #F2DC1F",
":#	c #F1D916",
"<#	c #EFD70D",
"[#	c #EDD504",
"}#	c #EBD100",
"|#	c #C15600",
"1#	c #BF5300",
"2#	c #DBBF0C",
"3#	c #F9EC86",
"4#	c #C8A608",
"5#	c #F2DE36",
"6#	c #CDAB1B",
"7#	c #FAF4C1",
"8#	c #F3E89F",
"9#	c #F5ECB7",
"0#	c #CAA915",
"a#	c #E8D567",
"b#	c #FAF3B4",
"c#	c #F8ED94",
"d#	c #EED283",
"e#	c #BC4240",
"f#	c #A90906",
"g#	c #EFD074",
"h#	c #F9EC7F",
"i#	c #FAEB77",
"j#	c #FBEC74",
"k#	c #FCEC73",
"l#	c #FCEB69",
"m#	c #F5DA56",
"n#	c #F2D73A",
"o#	c #F4DE27",
"p#	c #E4BF00",
"q#	c #B93933",
"r#	c #A90901",
"s#	c #D8AF00",
"t#	c #DCBF0E",
"u#	c #F9EB84",
"v#	c #C9A707",
"w#	c #F0DA2D",
"x#	c #F2E79F",
"y#	c #EEE084",
"z#	c #F5ECA7",
"A#	c #FAF3C4",
"B#	c #F4E9A7",
"C#	c #FAF3B5",
"D#	c #F7EC8D",
"E#	c #C45736",
"F#	c #E29392",
"G#	c #C72321",
"H#	c #C65832",
"I#	c #F9ED83",
"J#	c #FAED7E",
"K#	c #FAED7B",
"L#	c #FBEC77",
"M#	c #FCED76",
"N#	c #C65823",
"O#	c #C55516",
"P#	c #F2DC1E",
"Q#	c #C35900",
"R#	c #DF8B88",
"S#	c #C31E19",
"T#	c #BE5201",
"U#	c #E0C51E",
"V#	c #F4E576",
"W#	c #EFDA22",
"X#	c #D9BE40",
"Y#	c #F8EFB2",
"Z#	c #E8D65B",
"`#	c #F2E481",
" $	c #F8F0AC",
".$	c #FAF1AA",
"+$	c #F7EA83",
"@$	c #A90C07",
"#$	c #EFACAC",
"$$	c #E94D4D",
"%$	c #AA0D08",
"&$	c #F9EC84",
"*$	c #FAED82",
"=$	c #FCEE79",
"-$	c #E9B757",
";$	c #B93430",
">$	c #AB0B04",
",$	c #E4AE25",
"'$	c #F1D915",
")$	c #EFD70C",
"!$	c #EDD404",
"~$	c #A80A00",
"{$	c #F0B0B0",
"]$	c #E74B4B",
"^$	c #A80A01",
"/$	c #E6CE37",
"($	c #EBD75A",
"_$	c #CAA705",
":$	c #EED819",
"<$	c #C4A001",
"[$	c #F9F0B3",
"}$	c #EEDD72",
"|$	c #EDDB5E",
"1$	c #F1E168",
"2$	c #F5E772",
"3$	c #F6E97C",
"4$	c #CC7040",
"5$	c #D15F5D",
"6$	c #C52825",
"7$	c #CD7243",
"8$	c #F9ED86",
"9$	c #FAED83",
"0$	c #FAED80",
"a$	c #FBEE7E",
"b$	c #FAE979",
"c$	c #B22010",
"d$	c #E99E9E",
"e$	c #CD2121",
"f$	c #B21F08",
"g$	c #F3DB26",
"h$	c #C35800",
"i$	c #D56763",
"j$	c #C92C27",
"k$	c #BD5201",
"l$	c #ECD750",
"m$	c #E1C940",
"n$	c #CEAE04",
"o$	c #ECD40E",
"p$	c #DCC344",
"q$	c #FAF1B5",
"r$	c #EDDB59",
"s$	c #F1E05F",
"t$	c #F4E669",
"u$	c #F5E874",
"v$	c #F2DB77",
"w$	c #B11C18",
"x$	c #AB0D08",
"y$	c #F3DE7F",
"z$	c #F9ED87",
"A$	c #FAED84",
"B$	c #FAEE82",
"C$	c #FBEE80",
"D$	c #D17A40",
"E$	c #C13632",
"F$	c #F9CECE",
"G$	c #EE4949",
"H$	c #B81810",
"I$	c #CD7315",
"J$	c #EDD403",
"K$	c #E4BE00",
"L$	c #B01D16",
"M$	c #A90A02",
"N$	c #D7AF00",
"O$	c #F5E674",
"P$	c #D4B623",
"Q$	c #E0C404",
"R$	c #E2C703",
"S$	c #C7A300",
"T$	c #F0E184",
"U$	c #F5E88B",
"V$	c #F0DF58",
"W$	c #F4E461",
"X$	c #F6E976",
"Y$	c #CC703C",
"Z$	c #CD713F",
"`$	c #F9EC85",
" %	c #FBEE83",
".%	c #FBEB7F",
"+%	c #A90B06",
"@%	c #E47F7F",
"#%	c #F9BEBE",
"$%	c #F96060",
"%%	c #DB3535",
"&%	c #A90B03",
"*%	c #F1D81D",
"=%	c #F0D914",
"-%	c #BF5401",
";%	c #E3C91E",
">%	c #F6E87A",
",%	c #CEAE02",
"'%	c #ECD30D",
")%	c #CBAA02",
"!%	c #CBA910",
"~%	c #FBF3B3",
"{%	c #F3E571",
"]%	c #F4E565",
"^%	c #F6E76F",
"/%	c #F2D96F",
"(%	c #F2DB76",
"_%	c #F9EC81",
":%	c #FCEE82",
"<%	c #D17B42",
"[%	c #BF2F2A",
"}%	c #F7A9A9",
"|%	c #BA1B13",
"1%	c #F2DB1D",
"2%	c #DEB700",
"3%	c #DAB200",
"4%	c #F0DD5A",
"5%	c #C7A401",
"6%	c #DCC01B",
"7%	c #EDD82E",
"8%	c #D8BB0F",
"9%	c #D4B625",
"0%	c #FCF4B4",
"a%	c #F6E86F",
"b%	c #F4E45D",
"c%	c #F5E667",
"d%	c #F6E871",
"e%	c #F8EA78",
"f%	c #F8EB7D",
"g%	c #F9EC80",
"h%	c #FAEA7E",
"i%	c #B11F0D",
"j%	c #DD6464",
"k%	c #D53030",
"l%	c #F3DB25",
"m%	c #EFD70B",
"n%	c #E5CA00",
"o%	c #E3C90F",
"p%	c #FAED86",
"q%	c #C9A609",
"r%	c #CDAA0C",
"s%	c #D8BD29",
"t%	c #EDDB4A",
"u%	c #ECD93F",
"v%	c #CCAA08",
"w%	c #D8BA2A",
"x%	c #FBF4B3",
"y%	c #F6E76D",
"z%	c #F5E560",
"A%	c #F6E76A",
"B%	c #F7E972",
"C%	c #F8EA77",
"D%	c #F9EC7C",
"E%	c #FAEC7F",
"F%	c #FCEE81",
"G%	c #FCEF81",
"H%	c #E7B440",
"I%	c #B11914",
"J%	c #AC0C05",
"K%	c #E3AE24",
"L%	c #F4DE25",
"M%	c #EDD402",
"N%	c #E9D000",
"O%	c #F6E773",
"P%	c #E5CE46",
"Q%	c #C9A605",
"R%	c #CFB11C",
"S%	c #D9BE33",
"T%	c #E9D55B",
"U%	c #EFE070",
"V%	c #E7D248",
"W%	c #D2B41B",
"X%	c #D6B928",
"Y%	c #FAF2A8",
"Z%	c #F9ED8A",
"`%	c #F6E765",
" &	c #F7E86B",
".&	c #F8EA72",
"+&	c #F8EB77",
"@&	c #FAEC7B",
"#&	c #FCEE7F",
"$&	c #FCEE7C",
"%&	c #FAE749",
"&&	c #C65618",
"*&	c #C55616",
"=&	c #F5E02E",
"-&	c #E9CF00",
";&	c #F4E25D",
">&	c #F0DE62",
",&	c #C7A304",
"'&	c #E1CD5C",
")&	c #EDDD7C",
"!&	c #F1E492",
"~&	c #EBDC7E",
"{&	c #E2CF61",
"]&	c #D3B632",
"^&	c #C8A503",
"/&	c #C9A70A",
"(&	c #F4E57E",
"_&	c #FBF2A7",
":&	c #F8E96D",
"<&	c #F8EA73",
"[&	c #FCEE7D",
"}&	c #FCEC6F",
"|&	c #FAE748",
"1&	c #F4D73B",
"2&	c #F2D533",
"3&	c #F4DD25",
"4&	c #F2DB1C",
"5&	c #F0D913",
"6&	c #EFD60B",
"7&	c #EDD506",
"8&	c #F4E353",
"9&	c #F7E978",
"0&	c #C6A305",
"a&	c #D7BE4B",
"b&	c #CFB029",
"c&	c #C7A405",
"d&	c #DDC540",
"e&	c #FBF3A7",
"f&	c #FAEE88",
"g&	c #F9EC77",
"h&	c #FAEC78",
"i&	c #FBED7A",
"j&	c #FBEB61",
"k&	c #F9E43F",
"l&	c #F7E236",
"m&	c #F5E02D",
"n&	c #F3DD2D",
"o&	c #F2E061",
"p&	c #CCAB12",
"q&	c #DEC449",
"r&	c #CDAD19",
"s&	c #D9C146",
"t&	c #EEDF8C",
"u&	c #F9F0AE",
"v&	c #E0C947",
"w&	c #CAA708",
"x&	c #DFC63D",
"y&	c #F8EB8F",
"z&	c #FDF5AE",
"A&	c #FDF29E",
"B&	c #FCF08F",
"C&	c #FBEC6D",
"D&	c #FBE956",
"E&	c #F9E542",
"F&	c #F7E33D",
"G&	c #F6E23E",
"H&	c #F6E345",
"I&	c #F8E863",
"J&	c #FBEE87",
"K&	c #FAEE85",
"L&	c #DDC32C",
"M&	c #E1C715",
"N&	c #E8D347",
"O&	c #F6E98D",
"P&	c #EBD96D",
"Q&	c #D3B933",
"R&	c #D1B225",
"S&	c #F8E878",
"T&	c #FCEA52",
"U&	c #FCE94F",
"V&	c #FBE84D",
"W&	c #E5CC2E",
"X&	c #DFC843",
"Y&	c #F2E376",
"Z&	c #F9EB8C",
"`&	c #FBF199",
" *	c #FDF3A4",
".*	c #FCF29E",
"+*	c #FBF091",
"@*	c #F7EA7F",
"#*	c #EBD753",
"$*	c #D4B71F",
"%*	c #CAA701",
"&*	c #ECD400",
"**	c #E1C500",
"=*	c #DDC104",
"-*	c #E4CC3E",
";*	c #F5EA8A",
">*	c #CDAE1A",
",*	c #C5A306",
"'*	c #F7EDA0",
")*	c #FDF082",
"!*	c #D1B213",
"~*	c #C8A505",
"{*	c #C7A404",
"]*	c #C5A201",
"^*	c #C6A201",
"/*	c #CBAB02",
"(*	c #E6CE00",
"_*	c #E6CB00",
":*	c #DCBF00",
"<*	c #D7B800",
"[*	c #E2CC40",
"}*	c #EDDD6C",
"|*	c #BF9C01",
"1*	c #FDF4AC",
"2*	c #FDEE7A",
"3*	c #F4DF44",
"4*	c #D0B013",
"5*	c #C9A904",
"6*	c #DAC108",
"7*	c #E2CA00",
"8*	c #E2C800",
"9*	c #E0C834",
"0*	c #F0DF6F",
"a*	c #C3A001",
"b*	c #C2A005",
"c*	c #E8D34C",
"d*	c #FEF7BA",
"e*	c #FDEE74",
"f*	c #FCE950",
"g*	c #F6E44D",
"h*	c #E5CF38",
"i*	c #D6BB22",
"j*	c #CCAC11",
"k*	c #C5A203",
"l*	c #C5A103",
"m*	c #C5A407",
"n*	c #C6A60A",
"o*	c #CBAF10",
"p*	c #D1BA14",
"q*	c #D9C512",
"r*	c #DDC709",
"s*	c #E4CA00",
"t*	c #DCBF01",
"u*	c #E2C92C",
"v*	c #F5E87D",
"w*	c #D3B41D",
"x*	c #BC9900",
"y*	c #E0C848",
"z*	c #FCF2A9",
"A*	c #FCF4AE",
"B*	c #FCEE76",
"C*	c #FCEA56",
"D*	c #FBE84F",
"E*	c #EBD94A",
"F*	c #E6D548",
"G*	c #E2D147",
"H*	c #DFCE41",
"I*	c #DCCA37",
"J*	c #DBC82E",
"K*	c #DBC825",
"L*	c #DDC91C",
"M*	c #E0CB13",
"N*	c #E3CC0A",
"O*	c #EAD200",
"P*	c #E9CF0A",
"Q*	c #EAD332",
"R*	c #F4E573",
"S*	c #F0E16C",
"T*	c #D4B927",
"U*	c #C19E00",
"V*	c #AE8F02",
"W*	c #E0C84A",
"X*	c #FDF4B1",
"Y*	c #FCF3A7",
"Z*	c #FCF18D",
"`*	c #FCED77",
" =	c #FCED6B",
".=	c #FBEA65",
"+=	c #F8E75D",
"@=	c #F5E455",
"#=	c #F1E04F",
"$=	c #EEDC48",
"%=	c #ECDA45",
"&=	c #ECDB44",
"*=	c #EEDC42",
"==	c #F1DE42",
"-=	c #F3E049",
";=	c #F7EB7A",
">=	c #F7EA84",
",=	c #D7BD28",
"'=	c #C29E00",
")=	c #A38600",
"!=	c #A88902",
"~=	c #C09E05",
"{=	c #C4A103",
"]=	c #D2B325",
"^=	c #E5CF55",
"/=	c #F2E37A",
"(=	c #F6E988",
"_=	c #F8EC8F",
":=	c #FAEE94",
"<=	c #FAF09E",
"[=	c #FAF09C",
"}=	c #F9EE91",
"|=	c #F8EB87",
"1=	c #F6E87B",
"2=	c #F3E46E",
"3=	c #EEDC5B",
"4=	c #E1C938",
"5=	c #CEAF17",
"6=	c #BB9900",
"7=	c #9E8100",
"8=	c #9C7F00",
"9=	c #B29404",
"0=	c #B99A06",
"a=	c #BE9C06",
"b=	c #C09F04",
"c=	c #C2A003",
"d=	c #C29F03",
"e=	c #C09F03",
"f=	c #BD9B02",
"g=	c #B79802",
"h=	c #AE9001",
"i=	c #957A00",
"        . . . . .                                                                               ",
"      + @ # $ # @ +                                                                             ",
"    + % & * = - ; > +                                                                           ",
"  . @ $ , $ ; % ' * ) .                                                                         ",
"  . # # $ $ ; % ' ! * .                                                                         ",
"  . ~ = ; ; = { ! ] $ .                                                                         ",
"  . ^ % / / { ! ] ( ] .                                                                         ",
"  . _ ; : ' < ] [ = }                                                                           ",
"  | 1 ; * / ! 2 ; 3 +                                                                           ",
". % , 1 , / ! 1 4 .                                                                             ",
". $ # 5 * { < & .                                                             6 7 7 6           ",
". 8 = - 9 ! < { .                         0 a b c                         d e f g h i j k       ",
"  l $ ' ! { , m                         n o p q r s                     7 t u v w x y z A B     ",
"  . C 1 ; 5 * ' .                   D E F G H I J K d L               k M N O d d P Q R S T U   ",
"    . 1 5 ; { $ .           7 V W X Y Z `  ...+.@.#.$.%.&.*.=.        L -.;.        d >.,.'.).  ",
"    . ! # ' / !..       ~.{.].^./.(._.:.<.[.}.|.1.2.3.4.5.6.7.8.9.    0.a.              b.c.d.6 ",
"  . e.$ f.1 g.h.      i.j.k.l.m.n.o.p.q.r.s.t.u.v.w.x.y.z.A.B.C.D.E.b b.F.              d G.H.7 ",
"  . , $ ; & .       I.J.k.K.L.M.N.O.P.Q.R.S.T.U.V.W.X.Y.z.Z.`. +.+++@+#+6                 $+%+#+",
"  . * # / = .     k &+*+=+-+;+>+,+'+)+!+~+{+7 7 ]+^+/+(+z.Z.`._+:+<+[+~.k                 }+|+#+",
"    1+2+3+4+5+    6+7+8+9+0+;+M.a+b+c+d+e+f+g+h+i+j+k+l+z.Z.`._+m+n+o+p+q+                r+s+#+",
"    t+u+v+w+x+  L y+z+A+B+C+D+E+F+G+Q.H+I+J+K+L+M+N+O+l+P+Q+R+S+T+U+V+W+L                 X+Y+#+",
"      Z+`+ @.@  7 +@@@#@$@%@&@*@=@-@;@>@,@'@)@!@~@{@]@^@/@(@_@:@<@[@}@|@q+                1@2@#+",
"      q+3@4@5@  L 6@7@8@9@0@a@b@c@d@e@f@g@h@i@j@k@l@m@n@o@p@k q@r@s@t@ .#+                u@v@#+",
"      w@x@y@z@  w@A@B@C@D@E@F@G@H@I@J@K@L@M@b N@O@P@Q@R@S@T@U@V@W@X@Y@Z@`@                 #.##+",
"        +#@###$#%#&#*#=#C@-#;#>#,#'#)#!#~#{#]#^#/#(#_#:#<#[#}#|#1#X@2#3##+                4#5##+",
"        6#7#8#9#0#a#b#c#d#e#f#g#h#,#i#j#k#l#m#n#/#o#_#:#<#[#p#q#r#s#t#u#q+                v#w##+",
"        q+x#y#z#A#B#C#D#E#F#G#H#I#J#K#L#M#~#N#O#/#o#P#:#<#[#Q#R#S#T#U#V#q+                O@W##+",
"          X#Y#Z#`# $.$+$@$#$$$%$&$*$J#H+=$-$;$>$,$o#P#'$)$!$~${$]$^$/$($q+                _$:$#+",
"          <$[$}$|$1$2$3$4$5$6$7$8$9$0$a$b$c$d$e$f$g$P#'$)$[#h$i$j$k$l$m$                  n$o$d ",
"          L p$q$r$s$t$u$v$w$x$y$z$A$B$C$D$E$F$G$H$I$P#'$)$J$K$L$M$N$O$P$                k Q$R$S$",
"            L T$U$V$W$s+X$Y$Z$`$8$A$ %.%+%@%#%$%%%&%*%=%)$J$U@|#-%;%>%L                 ,%'%)%  ",
"              !%~%{%v ]%^%/%(%_%I#9$ %:%<%[%}%$%|%I$1%=%)$J$U@2%3%4%m$              5%6%7%8%k   ",
"                9%0%a%b%c%d%e%f%g%*$B$:%h%i%j%k%f$l%1%=%m%J$U@n%o%p%q%          r%s%t%u%v%d     ",
"                7 w%x%y%z%A%B%C%D%E%0$F%G%H%I%J%K%L%1%=%m%M%N%g+O%P%L   Q%R%S%T%U%V%W%d         ",
"                  7 X%Y%Z%`% &.&+&@&J##&$&%&&&*&=&L%1%=%m%M%-&;&>&,&'&)&!&~&{&]&^&d             ",
"                      /&(&_&I :&<&i#@&[&}&|&1&2&=&3&4&5&6&7&8&9&0&#+a&b&B L                     ",
"                        c&d&>+e&f&g&h&i&j&|&k&l&m&3&4&5&n&0$o&p&q&r&                            ",
"                    s&t&u&v&w&x&y&z&A&B&C&D&E&F&G&H&I&J&K&L&q@M&N&O&P&Q&                        ",
"                  R&j@S&T&U&V&W&v#1@X&Y&Z&`& *.*+*@*#*$*L %*&*_+**=*-*;*>*                      ",
"                ,*'*)*U&U&U&U&U&!*#+#+N@~*{*]*^*c c L #+#+/*(*_***:*<*[*}*|*                    ",
"                a 1*2*U&U&U&U&U&3*4*#+#+#+#+#+#+#+#+#+#+5*6*7*8***:*<*9*0*a*                    ",
"                b*c*d*e*f*U&U&U&U&g*h*i*j*X+k*l*m*n*o*p*q*r*7*s***t*u*v*w*x*                    ",
"                  k*y*z*A*B*C*U&U&D*g*S+E*F*G*H*I*J*K*L*M*N*O*P*Q*R*S*T*U*                      ",
"                    V*l*W*@@X*Y*Z*`* =.=+=@=#=$=%=&=*===-=z%;=>=>&,='=)=                        ",
"                        !=~={=]=^=/=(=_=:=T+<=[=}=|=1=2=3=4=5=<$6=7=                            ",
"                                8=9=0=a=b=c=<$<$d=e=f=g=h=i=                                    ",
"                                                                                                ",
"                                                                                                "};
