/* XPM */
static char * giggle_xpm[] = {
"48 48 536 2",
"  	c None",
". 	c #4F9B07",
"+ 	c #4F9B08",
"@ 	c #4F9D07",
"# 	c #5BA415",
"$ 	c #6BAC2D",
"% 	c #519E08",
"& 	c #62BA0E",
"* 	c #56A70A",
"= 	c #4E9A05",
"- 	c #5AA513",
"; 	c #81C63D",
"> 	c #84BE4D",
", 	c #8EC953",
"' 	c #5BA911",
") 	c #5CB00C",
"! 	c #6DCA14",
"~ 	c #6AC312",
"{ 	c #54A409",
"] 	c #4F9A06",
"^ 	c #4F9C07",
"/ 	c #58A30F",
"( 	c #7FC53A",
"_ 	c #96D855",
": 	c #79C132",
"< 	c #57A40D",
"[ 	c #88D041",
"} 	c #74BD2C",
"| 	c #53A008",
"1 	c #4E9A06",
"2 	c #5EB10D",
"3 	c #70CD15",
"4 	c #62B70F",
"5 	c #4E9B06",
"6 	c #509D09",
"7 	c #77BF33",
"8 	c #96D755",
"9 	c #85D13A",
"0 	c #6FC819",
"a 	c #519F07",
"b 	c #67BF11",
"c 	c #7ACB2A",
"d 	c #8BCF47",
"e 	c #4D9B06",
"f 	c #519F08",
"g 	c #69C312",
"h 	c #68C211",
"i 	c #509C07",
"j 	c #5AA514",
"k 	c #8CCD4B",
"l 	c #8BD344",
"m 	c #71CA1B",
"n 	c #6FCB15",
"o 	c #5CAE0C",
"p 	c #5BAE0C",
"q 	c #6EC915",
"r 	c #6EC817",
"s 	c #95D556",
"t 	c #58A60E",
"u 	c #4E9A07",
"v 	c #4F9B06",
"w 	c #65BD10",
"x 	c #6CC613",
"y 	c #6FB52B",
"z 	c #93D354",
"A 	c #7DCC2F",
"B 	c #68C212",
"C 	c #6DC814",
"D 	c #6DC714",
"E 	c #8BD147",
"F 	c #68B123",
"G 	c #63B910",
"H 	c #6AC412",
"I 	c #509C08",
"J 	c #83C544",
"K 	c #8CD04A",
"L 	c #71C71D",
"M 	c #6ECA15",
"N 	c #6FCC15",
"O 	c #55A409",
"P 	c #63BA0F",
"Q 	c #86CF3F",
"R 	c #70B62A",
"S 	c #68C111",
"T 	c #64BC0F",
"U 	c #509D07",
"V 	c #83C642",
"W 	c #87CD43",
"X 	c #6BC315",
"Y 	c #6CC614",
"Z 	c #63B90F",
"` 	c #70CE15",
" .	c #6CC714",
"..	c #82CD39",
"+.	c #76BC31",
"@.	c #509B07",
"#.	c #509D06",
"$.	c #6CC813",
"%.	c #5CAF0C",
"&.	c #4F9B05",
"*.	c #4E9C06",
"=.	c #7FC53B",
"-.	c #8BCE49",
";.	c #6AC116",
">.	c #6BC414",
",.	c #6ECB14",
"'.	c #52A007",
").	c #6CC612",
"!.	c #71CE15",
"~.	c #7FCC33",
"{.	c #7CC138",
"].	c #8ED04E",
"^.	c #6CC119",
"/.	c #6AC214",
"(.	c #59AB0B",
"_.	c #72D115",
":.	c #7BCA2E",
"<.	c #7FC23D",
"[.	c #4E9905",
"}.	c #62B80F",
"|.	c #4E9906",
"1.	c #64AB20",
"2.	c #91D153",
"3.	c #6EC21B",
"4.	c #69C014",
"5.	c #6CC514",
"6.	c #6EC814",
"7.	c #6CC713",
"8.	c #72D015",
"9.	c #80CC37",
"0.	c #75BB33",
"a.	c #6FCC14",
"b.	c #57A70A",
"c.	c #87C947",
"d.	c #79C72D",
"e.	c #6AC314",
"f.	c #65BC11",
"g.	c #60B50E",
"h.	c #71CF15",
"i.	c #6BC514",
"j.	c #88CE43",
"k.	c #68AF25",
"l.	c #4F9A05",
"m.	c #5CA614",
"n.	c #92D154",
"o.	c #6AC016",
"p.	c #6CC814",
"q.	c #5FB30E",
"r.	c #6DC518",
"s.	c #93D156",
"t.	c #549E0E",
"u.	c #70CE14",
"v.	c #53A208",
"w.	c #71BA2C",
"x.	c #85CC3F",
"y.	c #69C114",
"z.	c #6BC314",
"A.	c #69C212",
"B.	c #65BD11",
"C.	c #70CC15",
"D.	c #6FCA15",
"E.	c #7DCB32",
"F.	c #7EC13D",
"G.	c #52A008",
"H.	c #4D9906",
"I.	c #62B70E",
"J.	c #64BB0F",
"K.	c #4D9A07",
"L.	c #7DC339",
"M.	c #7CC832",
"N.	c #67C011",
"O.	c #6BC613",
"P.	c #73C821",
"Q.	c #91D155",
"R.	c #5AA314",
"S.	c #54A209",
"T.	c #70CD14",
"U.	c #4F9C06",
"V.	c #88CB48",
"W.	c #75C526",
"X.	c #6AC413",
"Y.	c #6FC719",
"Z.	c #92D352",
"`.	c #66AC23",
" +	c #5DB10C",
".+	c #53A108",
"++	c #6BC612",
"@+	c #57A80A",
"#+	c #74C526",
"$+	c #6EC815",
"%+	c #6EC715",
"&+	c #8CD248",
"*+	c #78BD36",
"=+	c #89CC46",
"-+	c #76C528",
";+	c #84CF3A",
">+	c #87CA46",
",+	c #73D216",
"'+	c #6ECA14",
")+	c #4E9B05",
"!+	c #86C943",
"~+	c #77C62A",
"{+	c #81CE35",
"]+	c #90D151",
"^+	c #55A00D",
"/+	c #509D08",
"(+	c #71CD14",
"_+	c #71CE14",
":+	c #529F09",
"<+	c #82C640",
"[+	c #83CF39",
"}+	c #8FD24E",
"|+	c #599D10",
"1+	c #665603",
"2+	c #8A0700",
"3+	c #607906",
"4+	c #7E740C",
"5+	c #8D1201",
"6+	c #940000",
"7+	c #960000",
"8+	c #6AC512",
"9+	c #58A90B",
"0+	c #7EC33C",
"a+	c #7BC730",
"b+	c #86CF3D",
"c+	c #8DCF4C",
"d+	c #599C0F",
"e+	c #806B18",
"f+	c #C62A2A",
"g+	c #C01E1E",
"h+	c #950A04",
"i+	c #A1130C",
"j+	c #CB2525",
"k+	c #D33131",
"l+	c #BF2525",
"m+	c #A10E0E",
"n+	c #930000",
"o+	c #8F0F01",
"p+	c #853E05",
"q+	c #64990A",
"r+	c #76BD32",
"s+	c #81CA3A",
"t+	c #6CC315",
"u+	c #87CF41",
"v+	c #8ACD49",
"w+	c #579A0C",
"x+	c #85510A",
"y+	c #C30101",
"z+	c #D20B0B",
"A+	c #DF2020",
"B+	c #E03434",
"C+	c #E13333",
"D+	c #DA1616",
"E+	c #D30B0B",
"F+	c #D11919",
"G+	c #D23131",
"H+	c #C32C2C",
"I+	c #950303",
"J+	c #A91111",
"K+	c #CA2727",
"L+	c #DE3434",
"M+	c #D62828",
"N+	c #BC1B18",
"O+	c #930701",
"P+	c #9A0907",
"Q+	c #C31E1E",
"R+	c #CA2A2A",
"S+	c #B61F1F",
"T+	c #990606",
"U+	c #950000",
"V+	c #69B321",
"W+	c #6CC318",
"X+	c #8ACF46",
"Y+	c #86CA45",
"Z+	c #56990A",
"`+	c #8C3F02",
" @	c #C20000",
".@	c #D10000",
"+@	c #DE0000",
"@@	c #E30000",
"#@	c #E20A0A",
"$@	c #DF0606",
"%@	c #D90000",
"&@	c #D40000",
"*@	c #CF0000",
"=@	c #C90000",
"-@	c #CB2020",
";@	c #C22A2A",
">@	c #940101",
",@	c #980505",
"'@	c #D53030",
")@	c #E22C2C",
"!@	c #E21616",
"~@	c #E20808",
"{@	c #E31313",
"]@	c #E52828",
"^@	c #DD3131",
"/@	c #DB1E1E",
"(@	c #D41212",
"_@	c #D22020",
":@	c #D33535",
"<@	c #BC2424",
"[@	c #950202",
"}@	c #57A20F",
"|@	c #94D257",
"1@	c #6AC015",
"2@	c #6FC31E",
"3@	c #8FD150",
"4@	c #549708",
"5@	c #913502",
"6@	c #C00000",
"7@	c #DF0000",
"8@	c #E80000",
"9@	c #EA0000",
"0@	c #E60000",
"a@	c #E10000",
"b@	c #DC0000",
"c@	c #D60000",
"d@	c #CB0000",
"e@	c #C50000",
"f@	c #BB1D1D",
"g@	c #990303",
"h@	c #D52D2D",
"i@	c #E01D1D",
"j@	c #E40000",
"k@	c #E70000",
"l@	c #E50000",
"m@	c #E41111",
"n@	c #DF0B0B",
"o@	c #C90202",
"p@	c #CD2626",
"q@	c #BE2525",
"r@	c #4F9A07",
"s@	c #8ECE4F",
"t@	c #71C321",
"u@	c #92D155",
"v@	c #71B72A",
"w@	c #559508",
"x@	c #972C04",
"y@	c #BC0000",
"z@	c #CC0000",
"A@	c #F00000",
"B@	c #EE0000",
"C@	c #E90000",
"D@	c #D80000",
"E@	c #D20000",
"F@	c #C60000",
"G@	c #A10101",
"H@	c #C42121",
"I@	c #DF2525",
"J@	c #EC0000",
"K@	c #C50202",
"L@	c #CA2C2C",
"M@	c #B51C1C",
"N@	c #7EC23E",
"O@	c #7FC936",
"P@	c #90CF53",
"Q@	c #62A71B",
"R@	c #5A8409",
"S@	c #A72F1D",
"T@	c #BA0000",
"U@	c #C80000",
"V@	c #F20000",
"W@	c #F40000",
"X@	c #BF0000",
"Y@	c #980202",
"Z@	c #DD3535",
"`@	c #DC0505",
" #	c #F10000",
".#	c #DD0000",
"+#	c #C20707",
"@#	c #CB3535",
"##	c #960202",
"$#	c #6DB32C",
"%#	c #88C949",
"&#	c #56A00F",
"*#	c #5E6903",
"=#	c #A6231F",
"-#	c #BE1212",
";#	c #C70000",
">#	c #D50000",
",#	c #EF0000",
"'#	c #D70000",
")#	c #AC0000",
"!#	c #B41313",
"~#	c #DD2929",
"{#	c #E20000",
"]#	c #F60000",
"^#	c #C10000",
"/#	c #C82929",
"(#	c #B01313",
"_#	c #5CA319",
":#	c #7DBF3C",
"<#	c #870000",
"[#	c #BA2727",
"}#	c #C90D0D",
"|#	c #DB0000",
"1#	c #EB0000",
"2#	c #D00000",
"3#	c #A50000",
"4#	c #C42424",
"5#	c #DA1717",
"6#	c #C31515",
"7#	c #C02626",
"8#	c #8F0000",
"9#	c #C92F2F",
"0#	c #CF0808",
"a#	c #E00000",
"b#	c #CE0000",
"c#	c #9F0000",
"d#	c #D70F0F",
"e#	c #DA0000",
"f#	c #C10C0C",
"g#	c #C62E2E",
"h#	c #C73232",
"i#	c #CF0707",
"j#	c #9A0000",
"k#	c #D03030",
"l#	c #D40909",
"m#	c #C40000",
"n#	c #BE0000",
"o#	c #C00606",
"p#	c #CB3434",
"q#	c #BB2626",
"r#	c #D01313",
"s#	c #CD0000",
"t#	c #9B0000",
"u#	c #CB3333",
"v#	c #D00606",
"w#	c #BF0303",
"x#	c #CA3737",
"y#	c #AC1B1B",
"z#	c #CF2020",
"A#	c #D30000",
"B#	c #BC2828",
"C#	c #D01212",
"D#	c #C20E0E",
"E#	c #BE2C2C",
"F#	c #990C0C",
"G#	c #CD3333",
"H#	c #C80404",
"I#	c #AD0000",
"J#	c #AE1B1B",
"K#	c #CF1F1F",
"L#	c #CA0000",
"M#	c #C51B1B",
"N#	c #B32020",
"O#	c #8C0000",
"P#	c #AB2222",
"Q#	c #CC2727",
"R#	c #B60000",
"S#	c #9E0F0F",
"T#	c #CD3030",
"U#	c #C80202",
"V#	c #C92C2C",
"W#	c #A11313",
"X#	c #8F0202",
"Y#	c #BB2E2E",
"Z#	c #C81B1B",
"`#	c #C30000",
" $	c #C41717",
".$	c #A41111",
"+$	c #B22626",
"@$	c #CB2222",
"#$	c #C51D1D",
"$$	c #B72929",
"%$	c #960808",
"&$	c #BA2E2E",
"*$	c #C92A2A",
"=$	c #C10808",
"-$	c #C00707",
";$	c #C82828",
">$	c #BF2F2F",
",$	c #950909",
"'$	c #900303",
")$	c #C13232",
"!$	c #C61414",
"~$	c #C21010",
"{$	c #C43333",
"]$	c #930404",
"^$	c #8E0101",
"/$	c #A41A1A",
"($	c #C73535",
"_$	c #C72424",
":$	c #C51A1A",
"<$	c #C20F0F",
"[$	c #C00808",
"}$	c #C41919",
"|$	c #C83434",
"1$	c #A71B1B",
"2$	c #3B0000",
"3$	c #390000",
"4$	c #970C0C",
"5$	c #C13333",
"6$	c #C72323",
"7$	c #C00404",
"8$	c #C62121",
"9$	c #C33333",
"0$	c #9B0D0D",
"a$	c #610000",
"b$	c #6F0000",
"c$	c #950606",
"d$	c #A21717",
"e$	c #B12121",
"f$	c #BD2C2C",
"g$	c #C43434",
"h$	c #B22121",
"i$	c #A31717",
"j$	c #960606",
"k$	c #780000",
"l$	c #450000",
"m$	c #AC2121",
"n$	c #C93434",
"o$	c #C31313",
"p$	c #BE0101",
"q$	c #C31212",
"r$	c #CA3333",
"s$	c #B02121",
"t$	c #600000",
"u$	c #730000",
"v$	c #900000",
"w$	c #890000",
"x$	c #590000",
"y$	c #7D0000",
"z$	c #980B0B",
"A$	c #AD1E1E",
"B$	c #B92828",
"C$	c #C93939",
"D$	c #BA2828",
"E$	c #AD1F1F",
"F$	c #990B0B",
"G$	c #830000",
"H$	c #680000",
"I$	c #810000",
"J$	c #930202",
"K$	c #690000",
"                                                                                                ",
"                                                                                                ",
"                                                                                                ",
"                                    . +                                                         ",
"                                @ # $ % & * =                                                   ",
"                            @ - ; > , ' ) ! ~ { ]                                               ",
"                        ^ / ( _ : < [ } | 1 2 3 4 5                                             ",
"                      6 7 8 9 0 a b c d ^ e ] f g h i                                           ",
"                  i j k l m n o p q r s t u     v w x f                                         ",
"                i y z A q n B a C q D E F 1       1 G H 5                                       ",
"              I J K L D M N O P n q D Q R ]         5 S T =                                     ",
"            U V W X Y C n Z * ` N q  ...+.@.          #.$.%.&.                                  ",
"          *.=.-.;.>.Y q ,.'.).!.N q Y ~.{.#.            O 3 %                                   ",
"        ^ +.].^./.>.D M 4 (._.!.n q Y :.<.i             [.}.w |.                                ",
"        1.2.3.4./.5.C 6.* 7.8.3 n C 5.9.0.v               @ a.b.                                ",
"      v c.d.4.4.e.5.C f.g.h.h.3 M D i.j.k.l.                2 h 1                               ",
"      m.n.o.4.4.e.Y p.q.C !.` N q Y r.s.t.                  i u.v.                              ",
"    I w.x.4.4.y.z.Y A.B.3 3 C.D.C Y E.F.G.                  H.I.J.K.                            ",
"    U L.M.4.4.y.z.Y N.O.N N n q D P.Q.R.S.                    '.T.v                             ",
"    U.V.W.4.4.y.z.Y X.M n n M C Y.Z.`. +.+                    1 ++@+                            ",
"    v -.#+4.4.y.z.5.D q M M $+%+&+*+. ` U                     1 g.Z                             ",
"    ] =+-+4.4.y.e.5.D C q C D ;+>+@.|.,+1                     |.{ '+)+                          ",
"    ^ !+~+4.4.y.e.i.Y D D D {+]+^+  /+(+1                       1 _+:+                          ",
"    ^ <+d.4.4.4./.>.5.Y Y [+}+|+1+2+3+4+5+6+7+                  1 8+9+                          ",
"    i 0+a+4.4.4./.z.>.5.b+c+d+e+f+g+h+i+j+k+l+m+6+          7+n+o+p+q+  7+7+n+                  ",
"    I r+s+4.4.4.y./.t+u+v+w+x+y+z+A+B+C+D+E+F+G+H+I+    6+J+K+L+M+N+O+P+Q+R+S+T+U+              ",
"    1 V+-.4.4.4.4.W+X+Y+Z+`+ @.@+@@@#@$@%@&@*@=@-@;@>@,@'@)@!@~@{@]@^@L+/@(@_@:@<@[@            ",
"      }@|@1@4.4.2@3@( 4@5@6@*@7@8@9@0@a@b@c@.@d@e@f@g@h@i@a@j@0@k@l@m@n@%@&@*@o@p@q@6+          ",
"      r@s@t@4.-+u@v@w@x@y@z@+@9@A@B@C@@@+@D@E@z@F@G@H@I@7@j@C@J@J@9@0@a@b@c@.@d@K@L@M@U+        ",
"      @.N@a+O@P@Q@R@S@T@U@%@k@V@W@A@9@j@+@D@E@z@X@Y@Z@`@a@k@J@ #V@B@C@@@.#D@E@z@F@+#@###        ",
"        $#|@%#&#*#=#-#;#>#a@9@,# #B@8@@@.#'#E@z@)#!#~#b@{#8@B@W@]#A@9@j@+@D@E@z@F@^#/#(#7+      ",
"        _#:#/+  <#[#}#E@|#{#8@1#J@C@l@a@|#c@2#d@3#4#5#|#a@k@J@ #V@B@C@@@.#D@E@z@F@6@6#7#U+      ",
"        i i     8#9#0#>#|#a#j@0@0@l@a@.#%@&@b#=@c#R+d#e#7@j@C@J@J@9@0@a@b@c@.@d@e@X@f#g#6+      ",
"                6+h#i#&@D@b@7@a#a@7@.#%@>#.@z@;#j#k#l#'#b@a@j@0@k@l@{#+@%@&@*@=@m#n#o#p#n+      ",
"                n+q#r#2#&@'#e#|#|#e#D@>#.@s#=@m#t#u#v#&@%@b@7@a@a@a#.#e#c@.@z@;# @n#w#x#n+      ",
"                  y#z#z@*@E@&@>#c@>#A#2#s#=@e@^#3#B#C#2#&@D@e#b@b@|#%@c@E@b#=@m#X@n#D#E#U+      ",
"                  F#G#H#d@s#*@2#2#*@b#d@=@e@^#n#I#J#K#z@2#A#>#c@c@>#&@.@b#L#F@^#n#n#M#N#n+      ",
"                  O#P#Q#F@U@=@L#L#L#=@F@m#^#n#n#R#S#T#U#d@b#2#.@.@2#b#z@=@F@ @n#n#n#V#W#        ",
"                    X#Y#Z#`#m#e@e@m#`#^#X@n#n#n# $.$+$@$F@=@L#d@d@d@=@;#m#^#n#n#n##$$$8#        ",
"                      %$&$*$=$X@X@X@n#n#n#n#-$;$>$,$'$)$!$`#e@F@F@e@m# @6@n#n#n#~${$]$          ",
"                        ^$/$($_$:$<$[$<$}$_$|$1$^$2$3$4$5$6$7$6@6@6@X@n#n#n#w#8$9$0$a$          ",
"                          b$c$d$e$f$g$f$h$i$j$k$      l$'$m$n$#$o$[$p$[$q$#$r$s$]$t$            ",
"                                u$<#v$w$u$x$              y$z$A$B${$C${$D$E$F$G$                ",
"                                                              H$I$v$J$8#G$K$                    ",
"                                                                                                ",
"                                                                                                ",
"                                                                                                ",
"                                                                                                "};
