/* XPM */
static char * gimp_xpm[] = {
"48 48 535 2",
"  	c None",
". 	c #2E3434",
"+ 	c #2E3435",
"@ 	c #2E3335",
"# 	c #2F3436",
"$ 	c #383A36",
"% 	c #2E3436",
"& 	c #2F3535",
"* 	c #444440",
"= 	c #42423C",
"- 	c #2E3535",
"; 	c #313335",
"> 	c #383B3B",
", 	c #59554B",
"' 	c #494842",
") 	c #303638",
"! 	c #343939",
"~ 	c #59544A",
"{ 	c #565147",
"] 	c #48463F",
"^ 	c #2F3636",
"/ 	c #373B3B",
"( 	c #3D4140",
"_ 	c #303536",
": 	c #383D3C",
"< 	c #5C584D",
"[ 	c #504B3F",
"} 	c #4D483C",
"| 	c #4B4941",
"1 	c #303436",
"2 	c #3B3F3E",
"3 	c #7F796B",
"4 	c #3C403F",
"5 	c #313737",
"6 	c #2F3536",
"7 	c #4C4C45",
"8 	c #625D52",
"9 	c #534E41",
"0 	c #474235",
"a 	c #4C4A42",
"b 	c #3E4241",
"c 	c #857F6F",
"d 	c #817B6D",
"e 	c #515450",
"f 	c #383C3F",
"g 	c #323636",
"h 	c #313537",
"i 	c #464943",
"j 	c #635F53",
"k 	c #625D4F",
"l 	c #514C3D",
"m 	c #4C4638",
"n 	c #494436",
"o 	c #4E493D",
"p 	c #4E4B42",
"q 	c #444845",
"r 	c #89887F",
"s 	c #8A8C87",
"t 	c #92948E",
"u 	c #8B8D88",
"v 	c #7E817D",
"w 	c #444847",
"x 	c #303537",
"y 	c #858984",
"z 	c #91938D",
"A 	c #ACADA9",
"B 	c #ACADAA",
"C 	c #91928E",
"D 	c #828480",
"E 	c #414646",
"F 	c #323738",
"G 	c #464843",
"H 	c #5A574F",
"I 	c #6E685B",
"J 	c #696454",
"K 	c #5C5647",
"L 	c #534D3D",
"M 	c #504A3B",
"N 	c #4D4839",
"O 	c #4A4537",
"P 	c #504A3E",
"Q 	c #82847E",
"R 	c #ADAEA9",
"S 	c #EAEAE8",
"T 	c #FDFDFD",
"U 	c #F4F4F2",
"V 	c #C3C4C0",
"W 	c #8C8C87",
"X 	c #696961",
"Y 	c #888A84",
"Z 	c #BCBDB8",
"` 	c #EEEEEC",
" .	c #F9F9F9",
"..	c #FAFAFA",
"+.	c #F0F0EE",
"@.	c #C2C2BF",
"#.	c #8A8C86",
"$.	c #7C7768",
"%.	c #736D5C",
"&.	c #6A6352",
"*.	c #5F5948",
"=.	c #5A5342",
"-.	c #575140",
";.	c #544E3E",
">.	c #514B3C",
",.	c #4E493A",
"'.	c #524D3F",
").	c #4B4A41",
"!.	c #020202",
"~.	c #747672",
"{.	c #A2A39E",
"].	c #E3E3DF",
"^.	c #EDEDEB",
"/.	c #D4D4D3",
"(.	c #989897",
"_.	c #B0B0AE",
":.	c #C1C1BC",
"<.	c #8D8E88",
"[.	c #B4B5AF",
"}.	c #E3E3E0",
"|.	c #ECECEA",
"1.	c #F3F3F2",
"2.	c #D8D8D8",
"3.	c #C2C2C0",
"4.	c #E1E1DD",
"5.	c #BBBCB8",
"6.	c #84837A",
"7.	c #635C49",
"8.	c #605947",
"9.	c #5D5745",
"0.	c #5B5443",
"a.	c #585241",
"b.	c #554F3F",
"c.	c #524C3D",
"d.	c #4C4739",
"e.	c #544E42",
"f.	c #4A4941",
"g.	c #303535",
"h.	c #030303",
"i.	c #2B2D2E",
"j.	c #393D3E",
"k.	c #292C2D",
"l.	c #050606",
"m.	c #010101",
"n.	c #898C86",
"o.	c #C4C4BE",
"p.	c #DCDCD8",
"q.	c #C4C4C2",
"r.	c #FEFEFE",
"s.	c #EFEFEF",
"t.	c #1F1F1F",
"u.	c #767673",
"v.	c #8A8C88",
"w.	c #D3D3CE",
"x.	c #DEDEDA",
"y.	c #E5E5E3",
"z.	c #E2E2E2",
"A.	c #7B7C7C",
"B.	c #1B1C1B",
"C.	c #BFBFBB",
"D.	c #8B8C87",
"E.	c #686250",
"F.	c #615A48",
"G.	c #5F5846",
"H.	c #5C5544",
"I.	c #595242",
"J.	c #565040",
"K.	c #534D3E",
"L.	c #555043",
"M.	c #46453F",
"N.	c #050505",
"O.	c #64696A",
"P.	c #CFD1D1",
"Q.	c #D7D9D9",
"R.	c #787E7F",
"S.	c #595F61",
"T.	c #212324",
"U.	c #767873",
"V.	c #C5C5BE",
"W.	c #80807F",
"X.	c #FFFFFF",
"Y.	c #FBFBFB",
"Z.	c #3F4446",
"`.	c #232423",
" +	c #D0D0CA",
".+	c #D7D7D2",
"++	c #AEAEAB",
"@+	c #D8DADA",
"#+	c #1C1F20",
"$+	c #3D3E3C",
"%+	c #94958E",
"&+	c #6E6A5B",
"*+	c #625B48",
"=+	c #595342",
"-+	c #4E4839",
";+	c #575144",
">+	c #41423D",
",+	c #212222",
"'+	c #B7BABB",
")+	c #C2C5C6",
"!+	c #434A4C",
"~+	c #4F5455",
"{+	c #1F2222",
"]+	c #0E0F0E",
"^+	c #ACACA5",
"/+	c #C9C9C3",
"(+	c #2D2D2C",
"_+	c #707374",
":+	c #5D6163",
"<+	c #2A3032",
"[+	c #1D1E1D",
"}+	c #8E908A",
"|+	c #C9C9C2",
"1+	c #CFCFC8",
"2+	c #595957",
"3+	c #D2D3D3",
"4+	c #FCFCFC",
"5+	c #86898A",
"6+	c #292F31",
"7+	c #0E0E0E",
"8+	c #90928B",
"9+	c #6E6959",
"0+	c #625B49",
"a+	c #5C5644",
"b+	c #595447",
"c+	c #3B3D3A",
"d+	c #343636",
"e+	c #C4C6C8",
"f+	c #D8DADB",
"g+	c #3C4447",
"h+	c #313739",
"i+	c #3C3F41",
"j+	c #101212",
"k+	c #40403E",
"l+	c #BEBEB6",
"m+	c #91918B",
"n+	c #0A0A0A",
"o+	c #181A1B",
"p+	c #0D0E0E",
"q+	c #5A5A56",
"r+	c #8B8B86",
"s+	c #BBBCB4",
"t+	c #C6C6BF",
"u+	c #7B7B77",
"v+	c #161718",
"w+	c #343A3C",
"x+	c #1E2223",
"y+	c #30302E",
"z+	c #888A85",
"A+	c #655F4D",
"B+	c #4F493A",
"C+	c #5A5649",
"D+	c #323737",
"E+	c #2B2B2C",
"F+	c #888C8E",
"G+	c #979C9E",
"H+	c #394144",
"I+	c #2B3133",
"J+	c #282B2C",
"K+	c #252728",
"L+	c #070706",
"M+	c #888883",
"N+	c #ADADA6",
"O+	c #999991",
"P+	c #6A6A65",
"Q+	c #777872",
"R+	c #898982",
"S+	c #837F71",
"T+	c #95958E",
"U+	c #BDBDB4",
"V+	c #313230",
"W+	c #0F1010",
"X+	c #151616",
"Y+	c #101010",
"Z+	c #83837D",
"`+	c #7A776C",
" @	c #645D4A",
".@	c #5E5846",
"+@	c #5B5544",
"@@	c #585242",
"#@	c #504B3D",
"$@	c #575246",
"%@	c #2F3537",
"&@	c #515759",
"*@	c #5E6566",
"=@	c #6C7274",
"-@	c #3A4244",
";@	c #32393B",
">@	c #262B2D",
",@	c #191D1E",
"'@	c #0D0D0D",
")@	c #535147",
"!@	c #888980",
"~@	c #898983",
"{@	c #828072",
"]@	c #79725C",
"^@	c #79715A",
"/@	c #86847A",
"(@	c #91928C",
"_@	c #B0B0A7",
":@	c #B8B8AF",
"<@	c #93938B",
"[@	c #81817B",
"}@	c #8C8D87",
"|@	c #84837B",
"1@	c #665F4C",
"2@	c #625C49",
"3@	c #5D5645",
"4@	c #5A5443",
"5@	c #585141",
"6@	c #554E3F",
"7@	c #4F493B",
"8@	c #544E41",
"9@	c #49483F",
"0@	c #010102",
"a@	c #3B3E3F",
"b@	c #2D3335",
"c@	c #272D2F",
"d@	c #1E2224",
"e@	c #141718",
"f@	c #0E1010",
"g@	c #38342A",
"h@	c #706953",
"i@	c #726A55",
"j@	c #736B55",
"k@	c #746C56",
"l@	c #7C796A",
"m@	c #888982",
"n@	c #898B85",
"o@	c #878983",
"p@	c #79766A",
"q@	c #67604D",
"r@	c #635C4A",
"s@	c #4E483A",
"t@	c #575245",
"u@	c #3C3D3A",
"v@	c #36393B",
"w@	c #222728",
"x@	c #1F2425",
"y@	c #1B1F21",
"z@	c #171A1B",
"A@	c #0C0E0E",
"B@	c #2F2C23",
"C@	c #6D6551",
"D@	c #6E6652",
"E@	c #6F6853",
"F@	c #706853",
"G@	c #6E6752",
"H@	c #6D6653",
"I@	c #6C6453",
"J@	c #68614D",
"K@	c #665E4B",
"L@	c #3C382C",
"M@	c #575141",
"N@	c #504A3C",
"O@	c #121313",
"P@	c #26292A",
"Q@	c #191C1D",
"R@	c #0A0C0B",
"S@	c #3D392D",
"T@	c #69624E",
"U@	c #6B634F",
"V@	c #6B6450",
"W@	c #6C6450",
"X@	c #6C6550",
"Y@	c #67604C",
"Z@	c #655E4B",
"`@	c #343127",
" #	c #413C30",
".#	c #554F42",
"+#	c #45453D",
"@#	c #2C3131",
"##	c #09090A",
"$#	c #1A1D1E",
"%#	c #151819",
"&#	c #101313",
"*#	c #050504",
"=#	c #5A5444",
"-#	c #4E493B",
";#	c #21170C",
">#	c #0F0801",
",#	c #201203",
"'#	c #0D0905",
")#	c #514B3D",
"!#	c #555044",
"~#	c #303637",
"{#	c #010202",
"]#	c #060707",
"^#	c #0A0B0C",
"/#	c #080A0A",
"(#	c #000000",
"_#	c #504C41",
":#	c #655E4C",
"<#	c #605A47",
"[#	c #5B5543",
"}#	c #4D4739",
"|#	c #413D31",
"1#	c #2A271F",
"2#	c #090907",
"3#	c #170D02",
"4#	c #864B0A",
"5#	c #83490C",
"6#	c #663907",
"7#	c #613E15",
"8#	c #564429",
"9#	c #575145",
"0#	c #3D3E3A",
"a#	c #252B2C",
"b#	c #111213",
"c#	c #2B2F31",
"d#	c #51514A",
"e#	c #736E5F",
"f#	c #6B6655",
"g#	c #5D5644",
"h#	c #564F3F",
"i#	c #4B4738",
"j#	c #423E31",
"k#	c #3A362B",
"l#	c #363127",
"m#	c #29261E",
"n#	c #443826",
"o#	c #673C0C",
"p#	c #80480B",
"q#	c #C56C10",
"r#	c #B2620E",
"s#	c #75420B",
"t#	c #673B0B",
"u#	c #563F22",
"v#	c #323230",
"w#	c #2D3133",
"x#	c #353939",
"y#	c #59574D",
"z#	c #6F695B",
"A#	c #686252",
"B#	c #5F5848",
"C#	c #524A39",
"D#	c #5E401D",
"E#	c #683A09",
"F#	c #95530B",
"G#	c #CC7110",
"H#	c #D07310",
"I#	c #84490C",
"J#	c #673907",
"K#	c #542F06",
"L#	c #191B1D",
"M#	c #2D3132",
"N#	c #54524A",
"O#	c #696457",
"P#	c #686355",
"Q#	c #615B4B",
"R#	c #5B5545",
"S#	c #584A35",
"T#	c #643D11",
"U#	c #6A3C0A",
"V#	c #98530C",
"W#	c #C76E10",
"X#	c #DA7811",
"Y#	c #8A4D0A",
"Z#	c #714F2A",
"`#	c #818077",
" $	c #18191B",
".$	c #292E2F",
"+$	c #2F3435",
"@$	c #40413E",
"#$	c #565449",
"$$	c #625E50",
"%$	c #655F52",
"&$	c #605A4C",
"*$	c #5C5748",
"=$	c #5A5546",
"-$	c #575143",
";$	c #565142",
">$	c #585245",
",$	c #565145",
"'$	c #45443E",
")$	c #40311E",
"!$	c #643807",
"~$	c #6C3D08",
"{$	c #94520B",
"]$	c #BE6D18",
"^$	c #898A83",
"/$	c #9C9C99",
"($	c #2A3030",
"_$	c #2F3335",
":$	c #343838",
"<$	c #40413D",
"[$	c #474841",
"}$	c #4C4B42",
"|$	c #4E4C43",
"1$	c #4D4B41",
"2$	c #484740",
"3$	c #42413B",
"4$	c #363938",
"5$	c #292D2D",
"6$	c #131517",
"7$	c #4C2A05",
"8$	c #633607",
"9$	c #765C3C",
"0$	c #ECECEC",
"a$	c #E1E1E1",
"b$	c #BCBDBA",
"c$	c #535353",
"d$	c #121416",
"e$	c #1B1E20",
"f$	c #202425",
"g$	c #25292B",
"h$	c #2A2D2D",
"i$	c #2A2C2D",
"j$	c #272B2C",
"k$	c #202526",
"l$	c #161A1C",
"m$	c #6E614B",
"n$	c #878881",
"o$	c #898B87",
"p$	c #B4B5B3",
"q$	c #EAEAEA",
"r$	c #6A6A6A",
"s$	c #848484",
"t$	c #A3A3A3",
"u$	c #494949",
"v$	c #838480",
"w$	c #575757",
"x$	c #797979",
"y$	c #909090",
"z$	c #474747",
"A$	c #2A2A2A",
"B$	c #595959",
"C$	c #5B5B5B",
"D$	c #484848",
"E$	c #323232",
"F$	c #292929",
"G$	c #3D3D3D",
"H$	c #2B2B2B",
"I$	c #171717",
"J$	c #1E1E1E",
"                                                                                                ",
"                                                                                                ",
"                                                                                                ",
"                                                                                                ",
"                                                                                                ",
"                                                                                                ",
"                                                                                                ",
"                                                                                                ",
"                                                                          .                     ",
"                                                                        + @                     ",
"                                                                        # $ %                   ",
"                                                                      & * = -                   ",
"                    %                                               ; > , ' +                   ",
"                    % )                                           @ ! ~ { ] ^                   ",
"                    / (                                         _ : < [ } | 1                   ",
"                    2 3 4 5                                 1 6 7 8 9 0 } a &                   ",
"                    b c d e f                           g h i j k l m n o p 6                   ",
"                    q r s t u v w x   y z A B C D E F G H I J K L M N O P p 6                   ",
"                    Q R S T U V W X Y Z `  ...+.@.#.$.%.&.*.=.-.;.>.,.m '.)._                   ",
"        !.        ~.{.].^./.(._.:.<.[.}.|.1.2.3.4.5.6.7.8.9.0.a.b.c.M d.e.f.g.                  ",
"    h.i.j.k.l.m.  n.o.p.q.r.s.t.u.v.w.x.y.z.r.A.B.C.D.E.F.G.H.I.J.K.M N L.M.%                   ",
"  N.O.P.Q.R.S.T.m.U.V.w.W.X.Y.Z.`.z  +.+++X.X.@+#+$+%+&+*+G.H.=+J.K.>.-+;+>+                    ",
"  ,+'+X.X.)+!+~+{+]+^+/+(+_+:+<+[+}+|+1+2+3+4+5+6+7+8+9+0+G.a+=+J.K.>.-+b+c+                    ",
"  d+e+X.X.f+g+h+i+j+k+l+m+n+o+p+q+r+s+t+u+v+w+% x+y+z+A+*+G.H.=+J.K.M B+C+D+                    ",
"  E+F+r.X.G+H+I+J+K+L+M+N+O+P+Q+R+S+T+U+l+V+W+X+Y+Z+`+ @F..@+@@@J.L M #@$@%@                    ",
"  Y+&@*@=@-@;@>@,@K+'@)@!@z+~@{@]@^@/@(@_@:@<@[@}@|@1@2@8.3@4@5@6@c.7@8@9@g.                    ",
"  0@a@w+% b@c@d@e@#+f@g@h@i@j@k@k@k@k@l@m@n@n@o@p@q@r@F..@H.I.J.K.>.s@t@u@                      ",
"    p+v@w@x@y@e@e@z@A@B@C@D@E@F@F@F@E@G@C@H@I@J@K@ @+@L@-.4@M@6@c.M N@$@6                       ",
"    m.O@P@Q@e@e@e@e@R@S@T@U@V@W@X@W@V@U@T@J@Y@Z@7.F.G.`@L+ #b.L M -+.#+#@#                      ",
"      m.##$#Q@%#e@&#*#=#1@Y@q@J@J@J@q@Y@1@Z@r@*+8.-#;#>#,#'#)#>.,.N@!#~#                        ",
"          {#]#^#/#(#_#:#0+7. @ @ @ @<#[#M@K.}#|#1#2#3#4#5#6#7#8#}#9#0#a#                        ",
"              (#b#c#d#e#f#F.8.8.8.8.8.g#h#i#j#k#l#m#n#o#p#q#r#s#t#u#v#                          ",
"                    w#x#y#z#A#B#a+a+H.+@0.=.I.5@J.6@K.C#D#E#F#G#H#I#J#K#                        ",
"                      L#M#! N#O#P#Q#R#M@-.J.b.;.L >.M s@-#S#T#U#V#W#X#Y#Z#`#                    ",
"                           $.$+$@$#$$$%$&$*$=$-$-$;$L.>$,$'$_ )$!$~${$]$^$/./$                  ",
"                                d@($_$:$<$[$}$|$1$2$3$4$% 5$6$    7$8$9$z+0$a$b$z+  c$          ",
"                                      d$e$f$g$h$i$j$k$l$              m$n$o$p$q$r$s$t$u$        ",
"                                                                              v$w$x$y$z$A$      ",
"                                                                                B$C$D$E$F$      ",
"                                                                                  D$G$H$I$m.    ",
"                                                                                    H$J$'@(#    ",
"                                                                                          (#    ",
"                                                                                                ",
"                                                                                                ",
"                                                                                                ",
"                                                                                                ",
"                                                                                                ",
"                                                                                                "};
