/* XPM */
static char * glade_3_xpm[] = {
"48 48 468 2",
"  	c None",
". 	c #8C8D88",
"+ 	c #888A85",
"@ 	c #8A8C87",
"# 	c #8B8E88",
"$ 	c #92948E",
"% 	c #A8A9A5",
"& 	c #ABACA9",
"* 	c #F9F9F8",
"= 	c #8A8D87",
"- 	c #A7ABA4",
"; 	c #D5D8D2",
"> 	c #B9BCB7",
", 	c #C3C3BF",
"' 	c #EDEDEB",
") 	c #8B8D88",
"! 	c #B0B4AC",
"~ 	c #D2D6CE",
"{ 	c #E8E9E5",
"] 	c #ADAFAB",
"^ 	c #D4D4D1",
"/ 	c #8A8C88",
"( 	c #B0B5AC",
"_ 	c #CFD3CB",
": 	c #DDE0DB",
"< 	c #F1F2F0",
"[ 	c #A5A6A3",
"} 	c #DBDBD9",
"| 	c #E8E8E7",
"1 	c #ADB1A8",
"2 	c #CBD0C7",
"3 	c #DADED7",
"4 	c #E7E9E5",
"5 	c #F6F7F5",
"6 	c #A5A7A3",
"7 	c #A3A4A1",
"8 	c #8C8D89",
"9 	c #A3A69E",
"0 	c #C8CDC4",
"a 	c #D7DBD4",
"b 	c #E6E8E4",
"c 	c #FAFBFA",
"d 	c #A8AAA6",
"e 	c #D1D1CF",
"f 	c #E8E8E6",
"g 	c #5D5F5B",
"h 	c #959892",
"i 	c #C4C9BF",
"j 	c #D4D8D0",
"k 	c #E2E5E0",
"l 	c #E8EAE6",
"m 	c #FAFAF9",
"n 	c #BABBB7",
"o 	c #5F615E",
"p 	c #51534F",
"q 	c #555753",
"r 	c #8D8F89",
"s 	c #BBC2B7",
"t 	c #CBD0C8",
"u 	c #D5D8D4",
"v 	c #E7E8E6",
"w 	c #F3F4F2",
"x 	c #FDFDFD",
"y 	c #FFFFFF",
"z 	c #D5D6D4",
"A 	c #9B9C99",
"B 	c #B6B7B4",
"C 	c #BFC0BD",
"D 	c #5C5F5B",
"E 	c #D1D2CF",
"F 	c #D8D9D7",
"G 	c #A38503",
"H 	c #898D87",
"I 	c #8C8E89",
"J 	c #868883",
"K 	c #8E908B",
"L 	c #8F918C",
"M 	c #C3C3C0",
"N 	c #CFCFCD",
"O 	c #5E605C",
"P 	c #E4E4E2",
"Q 	c #F6F6F1",
"R 	c #9B8936",
"S 	c #B1961D",
"T 	c #B8B9B7",
"U 	c #D9D9D7",
"V 	c #D9D9D8",
"W 	c #4B4D4A",
"X 	c #C2C2C0",
"Y 	c #BEBEBB",
"Z 	c #BABAB8",
"` 	c #B9B9B7",
" .	c #BFBFBC",
"..	c #C7C7C4",
"+.	c #DFDFDC",
"@.	c #E3E0CE",
"#.	c #B49B2D",
"$.	c #C0A93C",
"%.	c #EEDF8E",
"&.	c #686966",
"*.	c #5F615D",
"=.	c #5B5D59",
"-.	c #5B5C59",
";.	c #D7CEA7",
">.	c #AB8E16",
",.	c #D6C15D",
"'.	c #EFDF85",
").	c #F0E290",
"!.	c #E3E3E1",
"~.	c #ECECE8",
"{.	c #C7B871",
"].	c #AF931C",
"^.	c #E4D277",
"/.	c #EDDB77",
"(.	c #E7CF4A",
"_.	c #CECECB",
":.	c #838582",
"<.	c #E6E4D8",
"[.	c #B69F39",
"}.	c #BDA535",
"|.	c #EBDC85",
"1.	c #EAD767",
"2.	c #E6CE46",
"3.	c #848583",
"4.	c #D2D2D1",
"5.	c #9FA19C",
"6.	c #B3B4B1",
"7.	c #C9C9C6",
"8.	c #DDDDDA",
"9.	c #D4CEAF",
"0.	c #AB8F17",
"a.	c #D0BB54",
"b.	c #EEDF87",
"c.	c #E8D357",
"d.	c #ECEDEA",
"e.	c #ECECEA",
"f.	c #ECECE9",
"g.	c #EBECE9",
"h.	c #7E7234",
"i.	c #AD9017",
"j.	c #DFCD6D",
"k.	c #EDDD7D",
"l.	c #E7D04D",
"m.	c #EBEBE9",
"n.	c #EBEBE8",
"o.	c #E6E5DB",
"p.	c #BBA649",
"q.	c #B29926",
"r.	c #E9D981",
"s.	c #EBD86D",
"t.	c #E6CE47",
"u.	c #EAEBE8",
"v.	c #EAEAE7",
"w.	c #DDD9C0",
"x.	c #AD941F",
"y.	c #CAB348",
"z.	c #EEDF88",
"A.	c #E9D45D",
"B.	c #E9EAE7",
"C.	c #CFC594",
"D.	c #AA8E14",
"E.	c #DBC765",
"F.	c #EEDE82",
"G.	c #E7D150",
"H.	c #E7D04F",
"I.	c #E6CF48",
"J.	c #90928D",
"K.	c #A5A6A1",
"L.	c #B9BAB6",
"M.	c #CECFCB",
"N.	c #E2E3E0",
"O.	c #EDEDEA",
"P.	c #EAEAE8",
"Q.	c #E6E7E0",
"R.	c #C0AD5B",
"S.	c #B29923",
"T.	c #E6D57C",
"U.	c #ECDA74",
"V.	c #E9D45E",
"W.	c #E9E9E6",
"X.	c #DFDDC8",
"Y.	c #B19829",
"Z.	c #C2AB3C",
"`.	c #ECDC86",
" +	c #E9D562",
".+	c #ECDA72",
"++	c #E7D77F",
"@+	c #D4CBA3",
"#+	c #AB8E14",
"$+	c #D3BE57",
"%+	c #EDDD83",
"&+	c #E6CF4F",
"*+	c #E5CC43",
"=+	c #E5CD45",
"-+	c #E8D152",
";+	c #EEDE83",
">+	c #D9C764",
",+	c #A58809",
"'+	c #EFE08C",
")+	c #E8E8E3",
"!+	c #C4B56E",
"~+	c #AE921A",
"{+	c #E0CE6E",
"]+	c #EAD873",
"^+	c #E4CB43",
"/+	c #E3CB3F",
"(+	c #E4CB41",
"_+	c #E4CC43",
":+	c #E5CD44",
"<+	c #EAD562",
"[+	c #EDDE88",
"}+	c #C5AE43",
"|+	c #AE9522",
"1+	c #E3E1D3",
"2+	c #B59E37",
"3+	c #BBA22F",
"4+	c #E8D87C",
"5+	c #E7D25E",
"6+	c #E1C83A",
"7+	c #E2C93C",
"8+	c #E3CA3E",
"9+	c #E5CC45",
"0+	c #EBD974",
"a+	c #E4D379",
"b+	c #B19622",
"c+	c #BCAA58",
"d+	c #DDDED5",
"e+	c #F0E18D",
"f+	c #E6CF49",
"g+	c #5F615C",
"h+	c #7B7555",
"i+	c #AA8E15",
"j+	c #CCB649",
"k+	c #EADA7C",
"l+	c #E2CC4A",
"m+	c #E0C637",
"n+	c #E1C738",
"o+	c #E4CE4D",
"p+	c #EDDC81",
"q+	c #D4C05B",
"r+	c #A4880E",
"s+	c #C5BE8F",
"t+	c #DDE0DA",
"u+	c #E2E2E0",
"v+	c #E1E1DF",
"w+	c #C5B77A",
"x+	c #DAC660",
"y+	c #E7D56F",
"z+	c #DFC73B",
"A+	c #DFC533",
"B+	c #DFC635",
"C+	c #E0C738",
"D+	c #E6D25D",
"E+	c #E9D980",
"F+	c #BFA739",
"G+	c #B1992D",
"H+	c #656450",
"I+	c #D4D7D1",
"J+	c #DCDED8",
"K+	c #E7E6DC",
"L+	c #BAA548",
"M+	c #B59B25",
"N+	c #E3D272",
"O+	c #E4D05C",
"P+	c #DDC230",
"Q+	c #DDC330",
"R+	c #DEC431",
"S+	c #E0C83B",
"T+	c #E9D66F",
"U+	c #AD921B",
"V+	c #BFAF66",
"W+	c #DCDDD6",
"X+	c #D3D6CF",
"Y+	c #DADDD7",
"Z+	c #625F46",
"`+	c #9D830E",
" @	c #C1A938",
".@	c #E6D676",
"+@	c #E0C846",
"@@	c #DBC12B",
"#@	c #DCC22C",
"$@	c #DDC22E",
"%@	c #E1CA45",
"&@	c #EAD97B",
"*@	c #CEB84F",
"=@	c #CEC7A1",
"-@	c #DBDED7",
";@	c #D1D4CE",
">@	c #D9DCD5",
",@	c #EFE18F",
"'@	c #D2C797",
")@	c #A98D10",
"!@	c #D3BE51",
"~@	c #E6D36C",
"{@	c #DBC234",
"]@	c #DABF27",
"^@	c #DBC029",
"/@	c #DCC12D",
"(@	c #E4CE58",
"_@	c #E5D477",
":@	c #B9A12F",
"<@	c #B49D39",
"[@	c #D8D8C8",
"}@	c #DBDDD7",
"|@	c #DADDD6",
"1@	c #D0D3CD",
"2@	c #EFE08E",
"3@	c #60625A",
"4@	c #8B7926",
"5@	c #AB9017",
"6@	c #DECB65",
"7@	c #E1CD5A",
"8@	c #D9BE26",
"9@	c #D9BD24",
"0@	c #DDC332",
"a@	c #E6D46A",
"b@	c #D9C662",
"c@	c #AB9016",
"d@	c #C4B776",
"e@	c #DEE0D9",
"f@	c #DCDFD9",
"g@	c #DBDED8",
"h@	c #5D5F5A",
"i@	c #CFD2CC",
"j@	c #D6D9D2",
"k@	c #E5E5E3",
"l@	c #DCD9C7",
"m@	c #B09727",
"n@	c #BEA631",
"o@	c #E3D16E",
"p@	c #DDC643",
"q@	c #D7BB1F",
"r@	c #D7BC20",
"s@	c #D8BD22",
"t@	c #DDC63F",
"u@	c #E6D574",
"v@	c #C8B145",
"w@	c #AB901A",
"x@	c #D3CFB0",
"y@	c #DFE1DB",
"z@	c #DCDED9",
"A@	c #D9DCD6",
"B@	c #D8DBD5",
"C@	c #7A7D77",
"D@	c #D1D4CD",
"E@	c #D5D8D1",
"F@	c #EEE08C",
"G@	c #E4CC41",
"H@	c #A98C12",
"I@	c #CDB745",
"J@	c #E4D26C",
"K@	c #DAC030",
"L@	c #D6BA1C",
"M@	c #D6BA1D",
"N@	c #D7BD23",
"O@	c #E1CC53",
"P@	c #E1CE6D",
"Q@	c #B49B26",
"R@	c #B9A448",
"S@	c #DEDED2",
"T@	c #E0E2DD",
"U@	c #DEE1DB",
"V@	c #DDDFDA",
"W@	c #D8DBD4",
"X@	c #ACAFA9",
"Y@	c #D3D7CF",
"Z@	c #EEDF8B",
"`@	c #E3CB40",
" #	c #C7B770",
".#	c #AC9117",
"+#	c #DAC65C",
"@#	c #E2CE5E",
"##	c #D7BC23",
"$#	c #D8BE2A",
"%#	c #E4D165",
"&#	c #D3BF55",
"*#	c #A6880A",
"=#	c #EEDF8A",
"-#	c #B89F28",
";#	c #E1D06B",
">#	c #DEC84A",
",#	c #DCC43C",
"'#	c #E6D677",
")#	c #E6D472",
"!#	c #E6D573",
"~#	c #E7D574",
"{#	c #E7D675",
"]#	c #E7D676",
"^#	c #E8D777",
"/#	c #E8D778",
"(#	c #E8D779",
"_#	c #E9D87A",
":#	c #E9D97B",
"<#	c #EAD97C",
"[#	c #EADA7E",
"}#	c #EBDB80",
"|#	c #ECDC82",
"1#	c #ECDC83",
"2#	c #EDDE89",
"3#	c #EFE08D",
"4#	c #E5DEC1",
"5#	c #AB8F16",
"6#	c #C9B23E",
"7#	c #E4D36E",
"8#	c #DBC236",
"9#	c #D7BC22",
"0#	c #D8BD24",
"a#	c #D8BE26",
"b#	c #D9BE27",
"c#	c #D9BF29",
"d#	c #DAC02B",
"e#	c #DBC12C",
"f#	c #DBC12E",
"g#	c #DCC230",
"h#	c #DDC331",
"i#	c #DDC433",
"j#	c #DEC535",
"k#	c #DEC536",
"l#	c #DFC638",
"m#	c #E0C73A",
"n#	c #E1C93C",
"o#	c #E2C93E",
"p#	c #E2CA3D",
"q#	c #EEDF8C",
"r#	c #888A84",
"s#	c #958849",
"t#	c #A78B10",
"u#	c #D6C153",
"v#	c #E3D064",
"w#	c #D8BD27",
"x#	c #AC8F07",
"y#	c #D6BB1E",
"z#	c #D7BB20",
"A#	c #D8BC21",
"B#	c #D8BD23",
"C#	c #AF920A",
"D#	c #DABF26",
"E#	c #DABF28",
"F#	c #DBC02A",
"G#	c #DCC12B",
"H#	c #DCC22D",
"I#	c #AD900A",
"J#	c #DEC432",
"K#	c #AE910C",
"L#	c #977C04",
"M#	c #B09519",
"N#	c #DFCE67",
"O#	c #E0CA51",
"P#	c #D6BB1F",
"Q#	c #D9BE24",
"R#	c #EEDF89",
"S#	c #A18404",
"T#	c #C1A730",
"U#	c #E5D576",
"V#	c #C8B668",
"W#	c #E6D678",
"X#	c #E7D679",
"Y#	c #E8D77B",
"Z#	c #E9D97D",
"`#	c #E9D97E",
" $	c #E9D97F",
".$	c #EADA81",
"+$	c #EBDA82",
"@$	c #EBDB83",
"#$	c #EBDC83",
"$$	c #ECDC85",
"%$	c #ECDD86",
"&$	c #ECDD88",
"                                                                                                ",
"                                                                                                ",
"                                                                                                ",
"                                                                                                ",
"                                                                                                ",
"                                                                                                ",
"                                                                                                ",
"                        . + + + + + + + + + + + + + + + + + + + + + + + + + + + + + + @         ",
"                    # $ % & * * * * * * * * * * * * * * * * * * * * * * * * * * * * * +         ",
"                  = - ; > , ' ' ' ' ' ' ' ' ' ' ' ' ' ' ' ' ' ' ' ' ' ' ' ' ' ' ' ' * +         ",
"                ) ! ~ { ] ^ ' ' ' ' ' ' ' ' ' ' ' ' ' ' ' ' ' ' ' ' ' ' ' ' ' ' ' ' * +         ",
"              / ( _ : < [ } ' ' ' ' ' ' ' ' ' ' ' ' ' ' ' ' ' ' ' ' ' | ' ' ' ' ' ' * +         ",
"            ) 1 2 3 4 5 6 } ' ' ' ' ' ' ' ' ' ' ' ' ' ' ' ' ' ' ' ' ' 7 ' ' ' ' ' ' * +         ",
"          8 9 0 a b 4 c d e f ' ' ' ' ' ' ' ' ' ' ' ' ' ' ' ' ' ' ' ' g ' ' ' ' ' ' * +         ",
"          h i j k l l m n o p q q q q q q q q q q q q q q q q q q q q q q q q ' ' ' * +         ",
"        r s t u v w x y z A B C C C C C C C C C C C C C C C C C C C C D E F F ' ' ' * +   G     ",
"      H + I # J K L I I + @ M N N N N N N N N N N N N N N N N N N N N O P ' ' ' ' ' Q R S G     ",
"      + T U V W X Y Z `  ...N +.+.+.+.+.+.+.+.+.+.+.+.+.+.+.+.+.+.+.+.O P ' ' ' ' @.#.$.%.G     ",
"      + * ' &.q *.*.*.*.g =.-.*.*.*.*.*.*.*.*.*.*.*.*.*.*.*.*.*.*.*.*.-.P ' ' ' ;.>.,.'.).G     ",
"      + * ' !.q !.!.!.!.!.!.!.!.!.!.!.!.!.!.!.!.!.!.!.!.!.!.!.!.!.!.!.g P ' ~.{.].^./.(.).G     ",
"      + * ' ' q ' _.:.:._.' ' ' ' ' ' ' ' ' ' ' ' ' ' ' ' ' ' ' ' ' ' O P <.[.}.|.1.2.2.).G     ",
"      + * ' ' q ' 3.4.4.3.' + + + + ) 5.6.7.8.' ' ' ' ' ' ' ' ' ' ' ' O 9.0.a.b.c.2.2.2.).G     ",
"      + * ' ' q ' 3.4.4.3.' + + + + ) 5.6.7.8.' ' ' ' ' ' ' ' d.e.f.g.h.i.j.k.l.2.2.2.2.).G     ",
"      + * ' ' q ' _.:.:._.' ' ' ' ' ' ' ' ' ' ' ' ' ' ' ' e.f.m.n.o.p.q.r.s.t.2.2.2.2.2.).G     ",
"      + * ' ' q ' ' ' ' ' ' ' ' ' ' ' ' ' ' ' ' ' ' ' e.g.m.u.v.w.x.y.z.A.2.2.2.2.2.2.2.).G     ",
"      + * ' ' q ' _.:.:._.' ' ' ' ' ' ' ' ' ' ' ' ' e.m.u.v.B.C.D.E.F.G.2.2.2.2.H.I.2.2.).G     ",
"      + * ' ' q ' 3.4.4.3.' + J.K.L.M.N.' ' ' ' O.f.n.P.B.Q.R.S.T.U.I.2.2.2.2.V.).(.2.2.).G     ",
"      + * ' ' q ' 3.4.4.3.' + J.K.L.M.N.' ' ' d.g.n.v.W.X.Y.Z.`. +2.2.2.2.I..+++).(.2.2.).G     ",
"      + * ' ' q ' _.:.:._.' ' ' ' ' ' ' ' ' O.g.u.B.W.@+#+$+%+&+*+=+2.2.-+;+>+,+'+(.2.2.).G     ",
"      + * ' ' q ' ' ' ' ' ' ' ' ' ' ' ' ' ' e.n.v.)+!+~+{+]+^+/+(+_+:+<+[+}+|+G '+(.2.2.).G     ",
"      + * ' ' q ' ' ' ' ' ' ' ' ' ' ' ' ' e.m.P.1+2+3+4+5+6+7+8+/+9+0+a+b+c+d+G e+f+2.2.).G     ",
"      + * ' ' q ' ' ' ' ' ' ' q *.*.*.*.*.*.g+h+i+j+k+l+m+n+6+7+o+p+q+r+s+t+t+G ).2.2.2.).G     ",
"      + * ' ' q ' ' ' ' ' ' ' q !.!.!.!.u+v+w+#+x+y+z+A+B+m+C+D+E+F+G+H+I+J+J+G ).2.2.2.).G     ",
"      + * ' ' q ' ' ' ' ' ' ' q ' ' ' ' K+L+M+N+O+P+Q+R+A+S+T+j.U+V+W+g X+Y+Y+G ).2.2.2.).G     ",
"      + * ' ' q ' ' ' ' ' ' ' q q q q Z+`+ @.@+@@@#@$@Q+%@&@*@i+=@J+-@g ;@>@>@G ,@2.2.2.).G     ",
"      + * ' ' q ' ' ' ' ' ' ' ' ' ' '@)@!@~@{@]@^@@@/@(@_@:@<@[@J+}@|@g 1@a a G 2@=+2.2.).G     ",
"      + * ' ' q *.*.*.*.*.*.*.*.3@4@5@6@7@8@9@8@]@0@a@b@c@d@e@f@g@|@>@h@i@j@j@G 2@*+=+2.).G     ",
"      + * ' ' k@k@k@k@k@k@k@k@l@m@n@o@p@q@r@s@9@t@u@v@w@x@y@t+z@}@A@B@C@D@E@j G F@G@*+=+).G     ",
"      + * ' ' ' ' ' ' ' ' ' ;.H@I@J@K@L@M@q@N@O@P@Q@R@S@T@U@V@J+Y+A@W@X@Y@j Y@G Z@`@(+*+,@G     ",
"      + * ' ' ' ' ' ' ' ~. #.#+#@###L@L@L@$#%#&#*#G G G G G G G G G G G G G G G =#8+/+(+2@G     ",
"      + * ' ' ' ' ' ' <.2+-#;#>#M@L@L@L@,#'#'#)#!#~#{#]#^#/#(#_#:#<#[#[#}#}#|#1#2#7+8+/+3#G     ",
"      + * * * * * * 4#5#6#7#8#L@L@L@L@L@9#9#9#9#0#a#b#c#d#e#f#g#h#i#j#k#l#m#S+n#o#6+7+p#q#G     ",
"      r#+ + + + + s#t#u#v#w#L@L@L@x#L@L@L@L@L@x#L@y#z#A#B#C#D#E#F#G#H#I#Q+J#A+B+m+K#6+7+Z@G     ",
"                L#M#N#O#P#L@L@L@L@G L@L@L@L@L@G L@L@y#q@A#G Q#D#E#^@@@G $@Q+J#A+B+G C+6+R#G     ",
"              S#T#U#'#'#'#'#'#'#'#V#'#'#'#'#'#V#'#'#'#W#X#V#Y#4+Z#`# $V#.$+$@$#$$$V#%$&$2#G     ",
"            G G G G G G G G G G G G G G G G G G G G G G G G G G G G G G G G G G G G G G G G     ",
"                                                                                                ",
"                                                                                                "};
