/* XPM */
static char * glade_2_xpm[] = {
"48 48 663 2",
"  	c None",
". 	c #D26104",
"+ 	c #CF5F02",
"@ 	c #CE5C00",
"# 	c #EC9228",
"$ 	c #D76B0C",
"% 	c #DC7512",
"& 	c #FAA634",
"* 	c #DD7714",
"= 	c #D26205",
"- 	c #F8A435",
"; 	c #F67F07",
"> 	c #ED9329",
", 	c #CE5B00",
"' 	c #F88F19",
") 	c #F57900",
"! 	c #F9A22F",
"~ 	c #D36306",
"{ 	c #DC7513",
"] 	c #FAA02D",
"^ 	c #F57A00",
"/ 	c #F88D18",
"( 	c #EA8F26",
"_ 	c #CF5E01",
": 	c #F5A234",
"< 	c #F7810A",
"[ 	c #F57C02",
"} 	c #FBA835",
"| 	c #DA7211",
"1 	c #CD5D00",
"2 	c #E17E1A",
"3 	c #F89621",
"4 	c #F57B00",
"5 	c #F47D00",
"6 	c #F47C00",
"7 	c #F57C00",
"8 	c #F78911",
"9 	c #F8A939",
"0 	c #D46607",
"a 	c #D26103",
"b 	c #F7A535",
"c 	c #F67E04",
"d 	c #F58100",
"e 	c #F58400",
"f 	c #F48500",
"g 	c #F58300",
"h 	c #F57E00",
"i 	c #F8921A",
"j 	c #F4A235",
"k 	c #D36506",
"l 	c #E5841E",
"m 	c #F8961F",
"n 	c #F58000",
"o 	c #F68900",
"p 	c #F69100",
"q 	c #F49400",
"r 	c #F58700",
"s 	c #F57F00",
"t 	c #F89922",
"u 	c #F4A033",
"v 	c #D26305",
"w 	c #D16204",
"x 	c #F8A737",
"y 	c #F68004",
"z 	c #F48600",
"A 	c #F59400",
"B 	c #F5A200",
"C 	c #F4A700",
"D 	c #F5A100",
"E 	c #F89923",
"F 	c #F5A235",
"G 	c #D46608",
"H 	c #CE5D00",
"I 	c #E3821C",
"J 	c #F8951F",
"K 	c #F48D00",
"L 	c #F5A000",
"M 	c #F5B200",
"N 	c #F5B800",
"O 	c #F5B400",
"P 	c #F5A400",
"Q 	c #F59500",
"R 	c #F7921B",
"S 	c #F8A838",
"T 	c #D9710F",
"U 	c #CE5D01",
"V 	c #F6A335",
"W 	c #F58106",
"X 	c #F58500",
"Y 	c #F59600",
"Z 	c #F5AB00",
"` 	c #F5BD00",
" .	c #F5C600",
"..	c #F6C300",
"+.	c #F5B600",
"@.	c #F5A500",
"#.	c #F49500",
"$.	c #F58800",
"%.	c #F6880F",
"&.	c #FAA836",
"*.	c #DF7A16",
"=.	c #CD5C00",
"-.	c #DB7312",
";.	c #FA9E2A",
">.	c #F58C00",
",.	c #F5B500",
"'.	c #F5CE00",
").	c #F5CC00",
"!.	c #F5C400",
"~.	c #F6B700",
"{.	c #F5A800",
"].	c #F49700",
"^.	c #F48A00",
"/.	c #F58200",
"(.	c #F68307",
"_.	c #FBA530",
":.	c #E4821D",
"<.	c #EE962B",
"[.	c #F78A12",
"}.	c #F59300",
"|.	c #F4A800",
"1.	c #F4BE00",
"2.	c #F5D200",
"3.	c #F5CD00",
"4.	c #F5C500",
"5.	c #F4B900",
"6.	c #F5AA00",
"7.	c #F59A00",
"8.	c #F47F02",
"9.	c #FA9E29",
"0.	c #E98D25",
"a.	c #FAA837",
"b.	c #F57E01",
"c.	c #F58900",
"d.	c #F59B00",
"e.	c #F4B200",
"f.	c #F5D000",
"g.	c #F5D300",
"h.	c #F5D400",
"i.	c #F5CF00",
"j.	c #F5C700",
"k.	c #F5BC00",
"l.	c #F4AD00",
"m.	c #F59E00",
"n.	c #F69000",
"o.	c #F0992E",
"p.	c #D06104",
"q.	c #DF7B17",
"r.	c #F99A24",
"s.	c #F58F00",
"t.	c #F6A300",
"u.	c #F5BA00",
"v.	c #F6CA00",
"w.	c #F6D200",
"x.	c #C9BA2B",
"y.	c #8A9059",
"z.	c #747F61",
"A.	c #657063",
"B.	c #69705B",
"C.	c #7E7A53",
"D.	c #B69039",
"E.	c #F59200",
"F.	c #F78D14",
"G.	c #F59F31",
"H.	c #CF5C00",
"I.	c #ED9429",
"J.	c #F78C12",
"K.	c #F4AB00",
"L.	c #F6C000",
"M.	c #E8CC0C",
"N.	c #788261",
"O.	c #404D52",
"P.	c #2E3436",
"Q.	c #323A3D",
"R.	c #3B4852",
"S.	c #435361",
"T.	c #343C36",
"U.	c #2F3833",
"V.	c #343C3C",
"W.	c #61655E",
"X.	c #DB861A",
"Y.	c #F78A11",
"Z.	c #F4A032",
"`.	c #F9AA3A",
" +	c #F68003",
".+	c #F69B00",
"++	c #F4B100",
"@+	c #8F9357",
"#+	c #384248",
"$+	c #30393A",
"%+	c #566B7E",
"&+	c #859DB4",
"*+	c #B2C8DB",
"=+	c #BACEDE",
"-+	c #9AA8A3",
";+	c #608633",
">+	c #6BA238",
",+	c #5D9031",
"'+	c #486B2A",
")+	c #323D31",
"!+	c #303839",
"~+	c #716C5F",
"{+	c #F38001",
"]+	c #F6870E",
"^+	c #F49E30",
"/+	c #D86E0D",
"(+	c #FBA32F",
"_+	c #F4A100",
":+	c #F1B606",
"<+	c #63726C",
"[+	c #2F3537",
"}+	c #42602D",
"|+	c #6C7C61",
"1+	c #C4D4E1",
"2+	c #C7D8E4",
"3+	c #C6D7E5",
"4+	c #B2C1C7",
"5+	c #3F570F",
"6+	c #488E05",
"7+	c #499007",
"8+	c #529515",
"9+	c #5E9A25",
"0+	c #689E37",
"a+	c #47692B",
"b+	c #2F3635",
"c+	c #495358",
"d+	c #E28016",
"e+	c #F68912",
"f+	c #F0982C",
"g+	c #E27F1A",
"h+	c #F99922",
"i+	c #F59000",
"j+	c #F5A600",
"k+	c #606B64",
"l+	c #303739",
"m+	c #517D2D",
"n+	c #69A232",
"o+	c #7C8779",
"p+	c #BCD0E4",
"q+	c #778374",
"r+	c #458204",
"s+	c #488F05",
"t+	c #478B05",
"u+	c #468905",
"v+	c #4E900E",
"w+	c #60992B",
"x+	c #578330",
"y+	c #303932",
"z+	c #424C51",
"A+	c #ED7E0A",
"B+	c #F9941D",
"C+	c #F88F16",
"D+	c #817F5D",
"E+	c #2E3537",
"F+	c #537E2E",
"G+	c #68A62E",
"H+	c #519A0B",
"I+	c #66745D",
"J+	c #B3CBE3",
"K+	c #9DB2BE",
"L+	c #455B20",
"M+	c #3D6704",
"N+	c #3C6104",
"O+	c #3E6A04",
"P+	c #478D05",
"Q+	c #478E05",
"R+	c #468B05",
"S+	c #5A9325",
"T+	c #5A8731",
"U+	c #2F3834",
"V+	c #585F61",
"W+	c #F67E00",
"X+	c #FAA32F",
"Y+	c #D76909",
"Z+	c #F49F32",
"`+	c #F6860C",
" @	c #D09128",
".@	c #313A3C",
"+@	c #46672E",
"@@	c #68A431",
"#@	c #4C8C08",
"$@	c #57723F",
"%@	c #9AB2C3",
"&@	c #AAC6E2",
"*@	c #51613D",
"=@	c #468705",
"-@	c #458B04",
";@	c #448505",
">@	c #5A9027",
",@	c #52782E",
"'@	c #987954",
")@	c #F6860D",
"!@	c #ED932A",
"~@	c #F67F04",
"{@	c #F68600",
"]@	c #5A6262",
"^@	c #344435",
"/@	c #699D38",
"(@	c #51980F",
"_@	c #457905",
":@	c #839BA8",
"<@	c #A0BFE0",
"[@	c #3B550B",
"}@	c #468A04",
"|@	c #438605",
"1@	c #428106",
"2@	c #5F9131",
"3@	c #3A502A",
"4@	c #394347",
"5@	c #EF7E07",
"6@	c #FAA22D",
"7@	c #D46708",
"8@	c #D16103",
"9@	c #FCAD3C",
"0@	c #E08717",
"a@	c #4C742D",
"b@	c #5C9824",
"c@	c #4B9506",
"d@	c #467E05",
"e@	c #77929C",
"f@	c #96BADE",
"g@	c #4F6143",
"h@	c #437D05",
"i@	c #468B04",
"j@	c #448705",
"k@	c #418104",
"l@	c #4C8418",
"m@	c #578131",
"n@	c #2E3435",
"o@	c #9C784D",
"p@	c #F78C15",
"q@	c #E5861F",
"r@	c #FBA938",
"s@	c #87775A",
"t@	c #303A37",
"u@	c #659736",
"v@	c #4D8F0F",
"w@	c #3E5C10",
"x@	c #8BB2DA",
"y@	c #8CB4DD",
"z@	c #89B0D5",
"A@	c #5C716B",
"B@	c #3A570A",
"C@	c #3F6D04",
"D@	c #458104",
"E@	c #478B04",
"F@	c #418204",
"G@	c #407E05",
"H@	c #5E8D33",
"I@	c #34442D",
"J@	c #595F5F",
"K@	c #F58005",
"L@	c #F29D30",
"M@	c #D56A0A",
"N@	c #FBA837",
"O@	c #565D61",
"P@	c #384E2E",
"Q@	c #61972F",
"R@	c #478C06",
"S@	c #475F34",
"T@	c #82AEDB",
"U@	c #80ABD6",
"V@	c #7296B1",
"W@	c #607D84",
"X@	c #4C6445",
"Y@	c #3F591A",
"Z@	c #407D04",
"`@	c #3E7D04",
" #	c #538523",
".#	c #405D2A",
"+#	c #374043",
"@#	c #F9A432",
"##	c #D76E0D",
"$#	c #F67F00",
"%#	c #445056",
"&#	c #3E5C2A",
"*#	c #5A9225",
"=#	c #478606",
"-#	c #5A787E",
";#	c #79A9DA",
">#	c #567273",
",#	c #4C664E",
"'#	c #688DA6",
")#	c #6B93B1",
"!#	c #3B6604",
"~#	c #4C821A",
"{#	c #496C2D",
"]#	c #2F3638",
"^#	c #F37E01",
"/#	c #F9A02B",
"(#	c #D56809",
"_#	c #D97110",
":#	c #FBA735",
"<#	c #3A4549",
"[#	c #44642A",
"}#	c #569021",
"|#	c #458505",
"1#	c #476235",
"2#	c #77A6D6",
"3#	c #78A8DA",
"4#	c #64889D",
"5#	c #3E6804",
"6#	c #417304",
"7#	c #445D2F",
"8#	c #4D6556",
"9#	c #546E6E",
"0#	c #5F7F8F",
"a#	c #395D03",
"b#	c #3F7D04",
"c#	c #477F15",
"d#	c #50752F",
"e#	c #D6801F",
"f#	c #F99B27",
"g#	c #D76D0C",
"h#	c #F57D00",
"i#	c #394547",
"j#	c #42632A",
"k#	c #578E21",
"l#	c #4F6A57",
"m#	c #78A7D9",
"n#	c #435635",
"o#	c #468804",
"p#	c #427D04",
"q#	c #417F04",
"r#	c #498016",
"s#	c #4F752F",
"t#	c #DC801A",
"u#	c #F99C29",
"v#	c #D9700F",
"w#	c #D76D0D",
"x#	c #FCAE3D",
"y#	c #455153",
"z#	c #3D592A",
"A#	c #5B9226",
"B#	c #3F650F",
"C#	c #739FCA",
"D#	c #5E7D8B",
"E#	c #3B5E06",
"F#	c #478A05",
"G#	c #478C04",
"H#	c #448805",
"I#	c #428304",
"J#	c #4C811B",
"K#	c #476A2D",
"L#	c #2F3637",
"M#	c #D66B0B",
"N#	c #FCAF3E",
"O#	c #F58207",
"P#	c #575E61",
"Q#	c #364B2D",
"R#	c #629731",
"S#	c #458405",
"T#	c #52706B",
"U#	c #77A7D8",
"V#	c #6C95B6",
"W#	c #465A41",
"X#	c #447F05",
"Y#	c #468D05",
"Z#	c #458805",
"`#	c #438304",
" $	c #3F7F04",
".$	c #558725",
"+$	c #3F5B29",
"@$	c #363F41",
"#$	c #FBA736",
"$$	c #D16104",
"%$	c #F5A335",
"&$	c #F78E16",
"*$	c #917653",
"=$	c #2F3736",
"-$	c #629435",
";$	c #4E9010",
">$	c #436A19",
",$	c #698EAA",
"'$	c #719CC4",
")$	c #3A5D04",
"!$	c #448905",
"~$	c #428404",
"{$	c #418005",
"]$	c #608F34",
"^$	c #32412E",
"/$	c #5B5E5A",
"($	c #F58309",
"_$	c #F5A435",
":$	c #E78A22",
"<$	c #FA9D2A",
"[$	c #E47F11",
"}$	c #2F3737",
"|$	c #486E2B",
"1$	c #5D9927",
"2$	c #4E9A06",
"3$	c #3F6608",
"4$	c #6F98BC",
"5$	c #3F5425",
"6$	c #478C05",
"7$	c #458905",
"8$	c #4F8919",
"9$	c #558030",
"0$	c #2E3536",
"a$	c #A57A48",
"b$	c #F9921B",
"c$	c #E68921",
"d$	c #D97210",
"e$	c #FCAC3B",
"f$	c #F68005",
"g$	c #303D32",
"h$	c #669A37",
"i$	c #539912",
"j$	c #4A8E05",
"k$	c #567274",
"l$	c #556F6F",
"m$	c #458A05",
"n$	c #468508",
"o$	c #619333",
"p$	c #364A2B",
"q$	c #3D4746",
"r$	c #FBA432",
"s$	c #F39D31",
"t$	c #F89A24",
"u$	c #DC7F1A",
"v$	c #313A38",
"w$	c #42622A",
"x$	c #6AA434",
"y$	c #519B0B",
"z$	c #3F650C",
"A$	c #76A5D7",
"B$	c #75A3D4",
"C$	c #74A2D3",
"D$	c #73A1D1",
"E$	c #719ECB",
"F$	c #3E5523",
"G$	c #458404",
"H$	c #478A06",
"I$	c #5D952A",
"J$	c #4C742C",
"K$	c #A47A48",
"L$	c #F88E15",
"M$	c #DA7311",
"N$	c #FCAD3D",
"O$	c #F7830A",
"P$	c #94744D",
"Q$	c #2E3535",
"R$	c #4F7A2C",
"S$	c #69A730",
"T$	c #539D0E",
"U$	c #437605",
"V$	c #6D98C6",
"W$	c #6B95C2",
"X$	c #6993BF",
"Y$	c #6892BD",
"Z$	c #6891BC",
"`$	c #6B96C2",
" %	c #6A93BD",
".%	c #3F5429",
"+%	c #488608",
"@%	c #5E9728",
"#%	c #598631",
"$%	c #2F3734",
"%%	c #5F5E57",
"&%	c #F48003",
"*%	c #D86F0E",
"=%	c #EE952B",
"-%	c #FBA936",
";%	c #F58205",
">%	c #6D6C5D",
",%	c #4B732C",
"'%	c #6CA836",
")%	c #4D721A",
"!%	c #678EB9",
"~%	c #628AB3",
"{%	c #5F86AD",
"]%	c #5D82A9",
"^%	c #5C81A8",
"/%	c #5F85AD",
"(%	c #628AB2",
"_%	c #658EB8",
":%	c #6A8DAA",
"<%	c #5A6F35",
"[%	c #537D2E",
"}%	c #303833",
"|%	c #495153",
"1%	c #F27E03",
"2%	c #FA9F2A",
"3%	c #D06003",
"4%	c #FAA02B",
"5%	c #7C6F50",
"6%	c #3C562D",
"7%	c #5B6E51",
"8%	c #7D9EBD",
"9%	c #7093B5",
"0%	c #6488AE",
"a%	c #5E81A7",
"b%	c #5A7EA3",
"c%	c #5C81A5",
"d%	c #6386AC",
"e%	c #6D90B4",
"f%	c #799CBA",
"g%	c #7D9BB7",
"h%	c #4B5E6A",
"i%	c #56574F",
"j%	c #F27F02",
"k%	c #F9951F",
"l%	c #F6A537",
"m%	c #FBA431",
"n%	c #F58307",
"o%	c #AA7B3D",
"p%	c #38443F",
"q%	c #2F3639",
"r%	c #495B6D",
"s%	c #658097",
"t%	c #7E9FBC",
"u%	c #81A2BF",
"v%	c #80A1BD",
"w%	c #81A1BE",
"x%	c #81A2BD",
"y%	c #6B87A0",
"z%	c #4F6375",
"A%	c #333C42",
"B%	c #364046",
"C%	c #897357",
"D%	c #F57F02",
"E%	c #FA9D27",
"F%	c #F6A538",
"G%	c #F29C30",
"H%	c #F47E01",
"I%	c #887258",
"J%	c #475159",
"K%	c #333B41",
"L%	c #37424A",
"M%	c #343D44",
"N%	c #2F3538",
"O%	c #3E4951",
"P%	c #6F6A60",
"Q%	c #E67F0F",
"R%	c #F6850C",
"S%	c #D16003",
"T%	c #E78A23",
"U%	c #FBAC3D",
"V%	c #F78B12",
"W%	c #F47E02",
"X%	c #DD7D18",
"Y%	c #9F7A4B",
"Z%	c #897459",
"`%	c #7E715E",
" &	c #87745A",
".&	c #99784F",
"+&	c #CA7D2A",
"@&	c #F6870D",
"#&	c #FA9D28",
"$&	c #FBAD3D",
"%&	c #EC9128",
"&&	c #FAAC3C",
"*&	c #FCAD3B",
"=&	c #F8951D",
"-&	c #F78E15",
";&	c #F99B26",
">&	c #FBAA38",
",&	c #DE7815",
"'&	c #EB9027",
")&	c #F8A738",
"!&	c #F9A93A",
"~&	c #DD7715",
"{&	c #CF5B00",
"                                                                                                ",
"                                                                                                ",
"                                      . +                                                       ",
"                                    @ # $                                                       ",
"                                    % & *                                                       ",
"                                  = - ; > @                                                     ",
"                                , # ' ) ! ~                                                     ",
"                                { ] ^ ) / ( @                                                   ",
"                              _ : < ) ) [ } | 1                                                 ",
"                              2 3 4 5 6 7 8 9 0 ,                                               ",
"                            a b c d e f g h i j k                                               ",
"                            l m n o p q p r s t u v                                             ",
"                          w x y z A B C D A r s E F G H                                         ",
"                          I J n K L M N O P Q r s R S T ,                                       ",
"                        U V W X Y Z `  ...+.@.#.$.n %.&.*.=.                                    ",
"                        -.;.s >.L ,. .'.).!.~.{.].^./.(._.:.,                                   ",
"                      @ <.[.g }.|.1.).2.2.3.4.5.6.7.K g 8.9.0._                                 ",
"                      v a.b.c.d.e.4.f.g.h.2.i.j.k.l.m.n.X s m o.p.                              ",
"                      q.r.n s.t.u.v.w.h.h.x.y.z.A.B.C.D.E.r s F.G.0                             ",
"                    H.I.J.e A K.L.3.M.N.O.P.Q.R.S.T.U.P.V.W.X.n Y.Z.v                           ",
"                    _ `. +$..+++4.@+#+$+%+&+*+=+-+;+>+,+'+)+!+~+{+]+^+.                         ",
"                    /+(+s >._+:+<+[+}+|+1+2+3+4+5+6+7+8+9+0+a+b+c+d+e+f+U                       ",
"                    g+h+d i+j+k+l+m+n+o+p+p+p+q+r+s+s+t+u+v+w+x+y+z+A+B+:.                      ",
"                  =.# C+g A D+E+F+G+H+I+J+J+J+K+L+M+N+O+P+Q+R+S+T+U+V+W+X+Y+                    ",
"                  @ Z+`+X  @.@+@@@#@$@%@&@&@&@&@&@*@=@s+s+Q+-@;@>@,@P.'@)@!@H.                  ",
"                  @ `.~@{@]@^@/@(@_@:@<@<@<@<@<@<@[@s+s+s+6+}@|@1@2@3@4@5@6@7@                  ",
"                  8@9@h 0@l+a@b@c@d@e@f@f@f@f@f@f@g@h@s+s+6+i@j@k@l@m@n@o@p@q@                  ",
"                  7@r@W+s@t@u@v@c@w@x@y@y@y@y@y@y@z@A@B@C@D@E@j@F@G@H@I@J@K@L@@                 ",
"                  M@N@h O@P@Q@R@c@S@T@T@T@T@T@T@T@T@T@U@V@W@X@Y@Z@`@ #.#+#h @#+                 ",
"                  ##} $#%#&#*#R@=#-#;#;#;#;#;#;#;#>#,#'#;#;#;#)#!#`@~#{#]#^#/#(#                ",
"                  _#:#h <#[#}#|#1#2#3#3#3#3#3#3#4#5#s+6#7#8#9#0#a#b#c#d#P.e#f#g#                ",
"                  _#r@h#i#j#k#l#m#3#3#3#3#3#3#3#n#6+s+s+s+s+o#p#q#b#r#s#P.t#u#v#                ",
"                  w#x#b.y#z#A#B#C#3#3#3#3#3#3#3#D#E#F#s+s+s+G#H#I#Z@J#K#L#s (+M#                ",
"                  = N#O#P#Q#R#S#T#U#3#3#3#3#3#3#3#V#W#X#s+s+Y#Z#`# $.$+$@$W+#$$$                ",
"                  @ %$&$*$=$-$;$6+>$,$3#3#3#3#3#3#3#'$)$s+s+P+!$~${$]$^$/$($_$,                 ",
"                  , :$<$[$}$|$1$c@2$3$4$3#3#3#3#3#3#3#5$s+s+6$7$~$8$9$0$a$b$c$1                 ",
"                    d$e$f$W.g$h$i$2$j$k$3#3#3#3#3#3#3#l$X#s+P+m$n$o$p$q$$#r$/+                  ",
"                    @ s$t$u$v$w$x$y$2$z$A$B$C$D$D$D$C$E$F$G$P+H$I$J$P.K$L$u H                   ",
"                      M$N$O$P$Q$R$S$T$U$V$W$X$Y$Z$Y$X$`$ %.%+%@%#%$%%%&%#$*%                    ",
"                      @ =%-%;%>%Q$,%'%)%!%~%{%]%^%]%/%(%_%:%<%[%}%|%1%2%!@H                     ",
"                        3%u 4%b.5%=$6%7%8%9%0%a%b%c%d%e%f%g%h%P.i%j%k%Z+3%                      ",
"                          (#l%m%n%o%p%q%r%s%t%u%v%w%x%y%z%A%B%C%D%E%F%0                         ",
"                          H = G%N@F.H%I%J%q%P.K%L%M%N%P.O%P%Q%R%(+o.=                           ",
"                              S%T%U%X+V%W%X%Y%Z%`% &.&+&W+@&#&$&T%_                             ",
"                                =.(#%&&&*&<$=&C+8 -&b$;&>&N## (#=.                              ",
"                                    @ 3%,&'&Z+)&!&)&L@0.~&v @                                   ",
"                                        {&@ H @ @ @ @ @ @                                       ",
"                                                                                                "};
