/* XPM */
static char * gnome_terminal_xpm[] = {
"48 48 701 2",
"  	c None",
". 	c #636660",
"+ 	c #61635D",
"@ 	c #646660",
"# 	c #636560",
"$ 	c #8E8F8D",
"% 	c #A0A0A0",
"& 	c #8A8B88",
"* 	c #646661",
"= 	c #626460",
"- 	c #D2D2D2",
"; 	c #D3D3D3",
"> 	c #D5D5D5",
", 	c #D8D8D8",
"' 	c #DADADA",
") 	c #DCDCDC",
"! 	c #DFDFDF",
"~ 	c #E1E1E1",
"{ 	c #E3E3E3",
"] 	c #E6E6E6",
"^ 	c #E8E8E8",
"/ 	c #EAEAEA",
"( 	c #EDEDED",
"_ 	c #EFEFEF",
": 	c #F1F1F1",
"< 	c #F4F4F4",
"[ 	c #F6F6F6",
"} 	c #F8F8F8",
"| 	c #FBFBFB",
"1 	c #FDFDFD",
"2 	c #FEFEFE",
"3 	c #FCFCFC",
"4 	c #F9F9F9",
"5 	c #F7F7F7",
"6 	c #F5F5F5",
"7 	c #F3F3F3",
"8 	c #F0F0F0",
"9 	c #EEEEEE",
"0 	c #ECECEC",
"a 	c #E7E7E7",
"b 	c #E5E5E5",
"c 	c #E0E0E0",
"d 	c #DEDEDE",
"e 	c #D9D9D9",
"f 	c #D7D7D7",
"g 	c #D1D1D1",
"h 	c #62635E",
"i 	c #D0D0D0",
"j 	c #A1A1A1",
"k 	c #A2A2A2",
"l 	c #A3A3A3",
"m 	c #A5A5A5",
"n 	c #5F625B",
"o 	c #61625D",
"p 	c #CFCFCF",
"q 	c #9A9A9A",
"r 	c #171A1A",
"s 	c #181B1B",
"t 	c #5E615A",
"u 	c #60625C",
"v 	c #959595",
"w 	c #121515",
"x 	c #020303",
"y 	c #040404",
"z 	c #050606",
"A 	c #070807",
"B 	c #080808",
"C 	c #080909",
"D 	c #090B0A",
"E 	c #0A0C0B",
"F 	c #0B0D0C",
"G 	c #0C0E0D",
"H 	c #0C0F0E",
"I 	c #323434",
"J 	c #525353",
"K 	c #4D4F4E",
"L 	c #494C4B",
"M 	c #454746",
"N 	c #414342",
"O 	c #3A3D3C",
"P 	c #101312",
"Q 	c #0E100F",
"R 	c #0D0F0F",
"S 	c #0F1211",
"T 	c #454646",
"U 	c #404140",
"V 	c #3A3C3B",
"W 	c #353535",
"X 	c #303131",
"Y 	c #2A2A2A",
"Z 	c #232424",
"` 	c #1E1E1E",
" .	c #171818",
"..	c #CECECE",
"+.	c #5D5F59",
"@.	c #5F615B",
"#.	c #949494",
"$.	c #131616",
"%.	c #161616",
"&.	c #181919",
"*.	c #222322",
"=.	c #1A1B1B",
"-.	c #1A1C1B",
";.	c #1B1D1D",
">.	c #1D1F1E",
",.	c #1E201F",
"'.	c #1F2120",
").	c #1F2221",
"!.	c #202322",
"~.	c #525554",
"{.	c #676968",
"].	c #636564",
"^.	c #5E6060",
"/.	c #5A5D5C",
"(.	c #565857",
"_.	c #424443",
":.	c #222524",
"<.	c #212423",
"[.	c #3E4040",
"}.	c #606261",
"|.	c #5A5C5C",
"1.	c #555655",
"2.	c #505150",
"3.	c #494A4A",
"4.	c #434544",
"5.	c #3E3E3E",
"6.	c #373938",
"7.	c #313232",
"8.	c #CDCDCD",
"9.	c #5C5E58",
"0.	c #5E605A",
"a.	c #C1C1C1",
"b.	c #2D2E2E",
"c.	c #121413",
"d.	c #0F1110",
"e.	c #111413",
"f.	c #121514",
"g.	c #131615",
"h.	c #141716",
"i.	c #545756",
"j.	c #5D5F5E",
"k.	c #585B5A",
"l.	c #545656",
"m.	c #505352",
"n.	c #4C4F4D",
"o.	c #252826",
"p.	c #161918",
"q.	c #151918",
"r.	c #151817",
"s.	c #171B1A",
"t.	c #555756",
"u.	c #4F5251",
"v.	c #4A4C4B",
"w.	c #444645",
"x.	c #3E403F",
"y.	c #383A39",
"z.	c #313332",
"A.	c #2C2C2C",
"B.	c #242625",
"C.	c #1D1E1D",
"D.	c #CCCCCC",
"E.	c #5B5D58",
"F.	c #5C5E59",
"G.	c #979797",
"H.	c #1B1D1C",
"I.	c #1E2020",
"J.	c #606161",
"K.	c #767877",
"L.	c #242726",
"M.	c #232626",
"N.	c #262827",
"O.	c #262928",
"P.	c #272B2A",
"Q.	c #6A6C6C",
"R.	c #686A69",
"S.	c #646766",
"T.	c #606362",
"U.	c #555857",
"V.	c #2A2E2C",
"W.	c #282D2B",
"X.	c #282C2B",
"Y.	c #272C2A",
"Z.	c #444746",
"`.	c #666968",
" +	c #5C5E5E",
".+	c #565959",
"++	c #515453",
"@+	c #4C4E4D",
"#+	c #464948",
"$+	c #414242",
"%+	c #343636",
"&+	c #2C2D2D",
"*+	c #595B57",
"=+	c #191C1B",
"-+	c #484B4A",
";+	c #1C1F1E",
">+	c #171B19",
",+	c #181C1B",
"'+	c #191D1C",
")+	c #1A1F1D",
"!+	c #272B29",
"~+	c #5F6261",
"{+	c #5B5F5D",
"]+	c #585C5B",
"^+	c #555957",
"/+	c #505453",
"(+	c #393E3D",
"_+	c #1D2221",
":+	c #1D2220",
"<+	c #1E2321",
"[+	c #5A5E5D",
"}+	c #4B4E4D",
"|+	c #454947",
"1+	c #3F4242",
"2+	c #393B3B",
"3+	c #333635",
"4+	c #2D302F",
"5+	c #CBCBCB",
"6+	c #585A56",
"7+	c #5A5C57",
"8+	c #9D9D9D",
"9+	c #212322",
"0+	c #252927",
"a+	c #737574",
"b+	c #D8D9D8",
"c+	c #6A6D6D",
"d+	c #2A2E2D",
"e+	c #292E2C",
"f+	c #2A2F2E",
"g+	c #2B302F",
"h+	c #2D3230",
"i+	c #414644",
"j+	c #686C6B",
"k+	c #666969",
"l+	c #626765",
"m+	c #5F6362",
"n+	c #5D615F",
"o+	c #393E3C",
"p+	c #303534",
"q+	c #303434",
"r+	c #2F3433",
"s+	c #494D4C",
"t+	c #646967",
"u+	c #5B5E5E",
"v+	c #565A59",
"w+	c #515554",
"x+	c #4D504E",
"y+	c #474A49",
"z+	c #3B3E3D",
"A+	c #343736",
"B+	c #A7A7A7",
"C+	c #575955",
"D+	c #595B56",
"E+	c #A0A1A1",
"F+	c #121616",
"G+	c #131716",
"H+	c #BDBEBE",
"I+	c #303231",
"J+	c #1C211F",
"K+	c #1F2422",
"L+	c #202524",
"M+	c #212725",
"N+	c #3F4543",
"O+	c #5C605F",
"P+	c #595E5C",
"Q+	c #575B5A",
"R+	c #535957",
"S+	c #4B504E",
"T+	c #252B29",
"U+	c #242B29",
"V+	c #262C2A",
"W+	c #535857",
"X+	c #4E5252",
"Y+	c #444847",
"Z+	c #3F4341",
"`+	c #393D3B",
" @	c #333735",
".@	c #2D3030",
"+@	c #262A29",
"@@	c #1F2322",
"#@	c #AAAAAA",
"$@	c #CACACA",
"%@	c #565854",
"&@	c #585A55",
"*@	c #141717",
"=@	c #313534",
"-@	c #2C312F",
";@	c #2C3130",
">@	c #2E3332",
",@	c #303433",
"'@	c #313634",
")@	c #323735",
"!@	c #333937",
"~@	c #565B59",
"{@	c #646968",
"]@	c #626866",
"^@	c #616664",
"/@	c #5E6361",
"(@	c #484F4D",
"_@	c #373E3B",
":@	c #363D3B",
"<@	c #4D5250",
"[@	c #686C6C",
"}@	c #616564",
"|@	c #5E6260",
"1@	c #585D5C",
"2@	c #545957",
"3@	c #4F5351",
"4@	c #4B4F4E",
"5@	c #454948",
"6@	c #404342",
"7@	c #3A3E3D",
"8@	c #2D3130",
"9@	c #ACACAC",
"0@	c #565753",
"a@	c #1B1F1E",
"b@	c #202624",
"c@	c #232927",
"d@	c #2E3432",
"e@	c #2F3533",
"f@	c #303734",
"g@	c #565C5B",
"h@	c #565C5A",
"i@	c #515755",
"j@	c #313936",
"k@	c #2C3431",
"l@	c #2E3533",
"m@	c #585E5C",
"n@	c #5B615F",
"o@	c #545958",
"p@	c #505553",
"q@	c #4B504F",
"r@	c #464C4A",
"s@	c #424746",
"t@	c #3C4140",
"u@	c #363B39",
"v@	c #2B302E",
"w@	c #1F2321",
"x@	c #AFAFAF",
"y@	c #C9C9C9",
"z@	c #545552",
"A@	c #555752",
"B@	c #2A2F2D",
"C@	c #494E4B",
"D@	c #BEC0BF",
"E@	c #C0C2C1",
"F@	c #C1C3C2",
"G@	c #C1C4C3",
"H@	c #C8CACA",
"I@	c #626967",
"J@	c #5F6564",
"K@	c #5E6462",
"L@	c #555C5A",
"M@	c #3E4542",
"N@	c #505653",
"O@	c #676C6B",
"P@	c #636968",
"Q@	c #606765",
"R@	c #5D6360",
"S@	c #595F5D",
"T@	c #4D5150",
"U@	c #474D4B",
"V@	c #424846",
"W@	c #3E4242",
"X@	c #383D3B",
"Y@	c #323635",
"Z@	c #B2B2B2",
"`@	c #535550",
" #	c #545651",
".#	c #202523",
"+#	c #222826",
"@#	c #242A28",
"##	c #262D2A",
"$#	c #313836",
"%#	c #737776",
"&#	c #767A79",
"*#	c #767B7A",
"=#	c #7B807E",
"-#	c #8C908E",
";#	c #545B59",
">#	c #525A57",
",#	c #515856",
"'#	c #3E4744",
")#	c #343D3A",
"!#	c #353E3B",
"~#	c #565E5B",
"{#	c #59605E",
"]#	c #535A58",
"^#	c #505654",
"/#	c #4C5250",
"(#	c #474E4C",
"_#	c #424947",
":#	c #3E4442",
"<#	c #393F3D",
"[#	c #343937",
"}#	c #282E2C",
"|#	c #232826",
"1#	c #B5B5B5",
"2#	c #C9C9C8",
"3#	c #52544F",
"4#	c #2F3432",
"5#	c #353B39",
"6#	c #3A413F",
"7#	c #3E4543",
"8#	c #404745",
"9#	c #414946",
"0#	c #4C5352",
"a#	c #606664",
"b#	c #5D6462",
"c#	c #5C6461",
"d#	c #5A6260",
"e#	c #464E4C",
"f#	c #444E4B",
"g#	c #515A58",
"h#	c #646B69",
"i#	c #616A67",
"j#	c #5E6764",
"k#	c #5C6360",
"l#	c #4D5352",
"m#	c #494F4D",
"n#	c #444A48",
"o#	c #404643",
"p#	c #343A38",
"q#	c #2E3331",
"r#	c #B8B8B8",
"s#	c #C8C8C8",
"t#	c #51534E",
"u#	c #242B28",
"v#	c #272D2B",
"w#	c #29302E",
"x#	c #2B3330",
"y#	c #2D3533",
"z#	c #2F3835",
"A#	c #313A37",
"B#	c #333C39",
"C#	c #424A47",
"D#	c #4F5855",
"E#	c #4E5754",
"F#	c #48514E",
"G#	c #3B4541",
"H#	c #3B4542",
"I#	c #3C4643",
"J#	c #545D5A",
"K#	c #575F5C",
"L#	c #525B58",
"M#	c #4F5754",
"N#	c #4A5351",
"O#	c #474F4D",
"P#	c #424B48",
"Q#	c #3E4644",
"R#	c #343C39",
"S#	c #2F3634",
"T#	c #2A312E",
"U#	c #262D2B",
"V#	c #BABABA",
"W#	c #C8C8C7",
"X#	c #50524D",
"Y#	c #333836",
"Z#	c #343B39",
"`#	c #39403E",
" $	c #3B4241",
".$	c #404845",
"+$	c #434C49",
"@$	c #515B57",
"#$	c #59615E",
"$$	c #58615E",
"%$	c #4B5552",
"&$	c #4C5652",
"*$	c #555E5B",
"=$	c #5F6965",
"-$	c #5E6664",
";$	c #5A6360",
">$	c #58605E",
",$	c #505956",
"'$	c #4D5552",
")$	c #49514F",
"!$	c #454C49",
"~$	c #404744",
"{$	c #3B4240",
"]$	c #343B38",
"^$	c #BEBEBE",
"/$	c #C7C7C7",
"($	c #4F514C",
"_$	c #4F514D",
":$	c #B9B9B9",
"<$	c #252C2A",
"[$	c #282F2D",
"}$	c #2B322F",
"|$	c #2D3532",
"1$	c #323A38",
"2$	c #36403D",
"3$	c #39423F",
"4$	c #47514D",
"5$	c #4B5451",
"6$	c #4B5551",
"7$	c #4A5551",
"8$	c #414C48",
"9$	c #424D49",
"0$	c #444F4B",
"a$	c #525D59",
"b$	c #545E5A",
"c$	c #525C58",
"d$	c #4F5956",
"e$	c #4D5753",
"f$	c #495450",
"g$	c #45504C",
"h$	c #424C48",
"i$	c #3D4744",
"j$	c #38423F",
"k$	c #323A37",
"l$	c #2F3735",
"m$	c #2A322F",
"n$	c #282F2C",
"o$	c #C7C7C6",
"p$	c #4D4F4B",
"q$	c #4E504C",
"r$	c #BDBDBD",
"s$	c #373F3C",
"t$	c #3A423F",
"u$	c #3D4442",
"v$	c #3F4744",
"w$	c #434D49",
"x$	c #464F4C",
"y$	c #48514F",
"z$	c #535D5A",
"A$	c #545E5C",
"B$	c #535D5B",
"C$	c #505C58",
"D$	c #515D59",
"E$	c #57625E",
"F$	c #5E6966",
"G$	c #5D6763",
"H$	c #5B6662",
"I$	c #59635F",
"J$	c #56605E",
"K$	c #535E5B",
"L$	c #505A56",
"M$	c #454F4C",
"N$	c #373E3C",
"O$	c #353A38",
"P$	c #C4C4C4",
"Q$	c #4C4E4A",
"R$	c #2B3230",
"S$	c #303836",
"T$	c #353F3B",
"U$	c #38423E",
"V$	c #3E4845",
"W$	c #46504D",
"X$	c #46524E",
"Y$	c #485450",
"Z$	c #495651",
"`$	c #505D58",
" %	c #505D59",
".%	c #505C57",
"+%	c #4D5955",
"@%	c #4B5753",
"#%	c #47534F",
"$%	c #45504D",
"%%	c #3F4A47",
"&%	c #3A4441",
"*%	c #38413E",
"=%	c #333B38",
"-%	c #303835",
";%	c #C6C6C6",
">%	c #4B4D49",
",%	c #C5C5C5",
"'%	c #3C4342",
")%	c #444D4A",
"!%	c #495250",
"~%	c #4C5552",
"{%	c #4E5855",
"]%	c #505B58",
"^%	c #525E5A",
"/%	c #55605D",
"(%	c #596561",
"_%	c #5A6762",
":%	c #5B6763",
"<%	c #596661",
"[%	c #586460",
"}%	c #56625E",
"|%	c #54605D",
"1%	c #505B57",
"2%	c #434D4A",
"3%	c #3F4644",
"4%	c #3C4341",
"5%	c #39413E",
"6%	c #363C3A",
"7%	c #C6C6C5",
"8%	c #4A4C48",
"9%	c #29312E",
"0%	c #2F3734",
"a%	c #37413E",
"b%	c #3D4844",
"c%	c #404B47",
"d%	c #434E4A",
"e%	c #45514D",
"f%	c #4A5753",
"g%	c #4D5A56",
"h%	c #4F5D58",
"i%	c #515F5A",
"j%	c #52605B",
"k%	c #424E4A",
"l%	c #343E3B",
"m%	c #292F2E",
"n%	c #494B47",
"o%	c #494B48",
"p%	c #383F3D",
"q%	c #3D4542",
"r%	c #454F4B",
"s%	c #4D5754",
"t%	c #58645F",
"u%	c #5D6A66",
"v%	c #5F6C68",
"w%	c #606E6A",
"x%	c #5D6A65",
"y%	c #57635F",
"z%	c #4A5450",
"A%	c #454E4B",
"B%	c #373D3B",
"C%	c #C4C5C4",
"D%	c #474946",
"E%	c #484A46",
"F%	c #2D3432",
"G%	c #323B38",
"H%	c #3D4845",
"I%	c #404B48",
"J%	c #434F4B",
"K%	c #495551",
"L%	c #4C5954",
"M%	c #4E5C57",
"N%	c #54625D",
"O%	c #55645F",
"P%	c #53625D",
"Q%	c #4B5854",
"R%	c #434E4B",
"S%	c #2A302E",
"T%	c #D4D4D4",
"U%	c #464844",
"V%	c #474945",
"W%	c #47504E",
"X%	c #4A5350",
"Y%	c #4F5A56",
"Z%	c #545F5C",
"`%	c #5B6863",
" &	c #5D6965",
".&	c #5C6965",
"+&	c #596560",
"@&	c #4D5653",
"#&	c #363C3B",
"$&	c #C3C4C3",
"%&	c #454743",
"&&	c #D6D6D6",
"*&	c #29302D",
"=&	c #2C3331",
"-&	c #2E3634",
";&	c #313937",
">&	c #37403D",
",&	c #394340",
"'&	c #3F4946",
")&	c #414C49",
"!&	c #485551",
"~&	c #4C5955",
"{&	c #4D5B56",
"]&	c #485550",
"^&	c #3E4946",
"/&	c #36403C",
"(&	c #2E3633",
"_&	c #292F2D",
":&	c #444642",
"<&	c #363D3A",
"[&	c #39403D",
"}&	c #414845",
"|&	c #4E5955",
"1&	c #535F5B",
"2&	c #55615E",
"3&	c #56615E",
"4&	c #38403D",
"5&	c #C3C3C3",
"6&	c #434541",
"7&	c #434542",
"8&	c #363F3C",
"9&	c #3F4A46",
"0&	c #44504C",
"a&	c #C2C2C2",
"b&	c #414340",
"c&	c #424441",
"d&	c #E2E2E2",
"e&	c #40423F",
"f&	c #E6E7E7",
"g&	c #E7E8E7",
"h&	c #E7E8E8",
"i&	c #E8E9E8",
"j&	c #E6E7E6",
"k&	c #3F413E",
"l&	c #BFBFBF",
"m&	c #3D3F3D",
"n&	c #252623",
"o&	c #1B1B1A",
"p&	c #000000",
"q&	c #010101",
"r&	c #050505",
"                                                                                                ",
"                                                                                                ",
"                                                                                                ",
"                                                                                                ",
"                                                                                                ",
"                                                                                                ",
"        . + + + + + + + + + + + + + + + + + + + + + + + + + + + + + + + + + + + + + @           ",
"      # $ % % % % % % % % % % % % % % % % % % % % % % % % % % % % % % % % % % % % % & *         ",
"      = - ; > , ' ) ! ~ { ] ^ / ( _ : < [ } | 1 2 3 4 5 6 7 8 9 0 / a b { c d ) e f g +         ",
"      h i j j k k k k k k k k k k l l l l l l l l l l l l l l l k k k k k k k k k m i n         ",
"      o p q r r r r r r r r r r r r r r r r r r r r r r r r r r r r r r r r r r s k i t         ",
"      u p v w x y z A B C D E F G H I J K L M N O P Q Q R S T M U V W X Y Z `  .w j ..+.        ",
"      @...#.$.%.&.*.=.-.;.>.,.'.).!.~.{.].^./.(._.:.:.<.<.[.}.|.1.2.3.4.5.6.7.Y w % 8.9.        ",
"      0...#.w C ,.a.b.c.d.P e.f.g.h.i.j.k.l.m.n.o.p.q.r.s.t.(.u.v.w.x.y.z.A.B.C.w % D.E.        ",
"      F...G.$.H.I.J.' K.L.M.L.N.O.P.Q.R.S.T.j.U.V.W.X.Y.Z.`.T. +.+++@+#+$+V %+&+w k D.*+        ",
"      E...q w Q S =+-+8 ;+>+,+'+)+!+~+{+]+^+/+(+_+:+:+<+k.[+U.m.}+|+1+2+3+4+N.'.w m 5+6+        ",
"      7+..8+$.9+0+a+b+c+d+e+f+g+h+i+j+k+l+m+n+o+p+q+r+s+j+t+T.u+v+w+x+y+N z+A+4+$.B+5+C+        ",
"      D+8.E+F+G+d+H+I+:+J+_+K+L+M+N+O+P+Q+R+S+T+T+U+V+P+O+]+W+X+s+Y+Z+`+ @.@+@@@$.#@$@%@        ",
"      &@8.l *@O.X.=@-@;@>@,@'@)@!@~@{@]@^@/@(@_@:@:@<@[@{@}@|@1@2@3@4@5@6@7@A+8@$.9@$@0@        ",
"      %@D.B+$.'+a@:+K+b@c@h+d@e@f@g@1@h@R+i@j@k@k@l@m@n@1@o@p@q@r@s@t@u@'@v@+@w@$.x@y@z@        ",
"      A@8.#@*@B@;@d@p+)@C@D@E@F@G@H@I@J@K@L@M@M@M@N@O@P@Q@R@S@h@i@T@U@V@W@X@Y@v@$.Z@y@`@        ",
"       #8.9@$.<+.#+#@###$#%#&#*#=#-#;#>#,#'#)#)#!#~#{#~#]#^#/#(#_#:#<#[#d@}#|#<+$.1#2#3#        ",
"      `@D.x@*@4#'@!@5#_@6#7#8#9#0#a#b#c#d#e#f#f#g#h#i#j#k#{#L@,#l#m#n#o#6#p#'@q#$.r#s#t#        ",
"      3#D.Z@$.+#u#v#w#x#y#z#A#B#C#D#D#E#F#G#H#I#J#K#J#L#M#N#O#P#Q#6#R#S#T#U#@#+#$.V#W#X#        ",
"      t#D.1#*@Y#Z#_@`# $M@.$C#+$@$#$#$$$D#%$&$*$i#=$-$;$>$J#,$'$)$!$~${$`#:@]$)@$.^$/$($        ",
"      _$D.:$$.<$[$}$|$z#1$)#2$3$4$5$6$7$8$9$0$a$b$c$d$e$f$g$h$i$j$)#k$l$|$m$n$<$$.a.o$p$        ",
"      q$D.r$*@5#s$t$u$v$C#w$x$y$z$A$A$B$C$D$E$F$G$H$I$J$K$L$&$y$M$+$C#v$u$6#N$O$$.P$o$Q$        ",
"      p$D.a.$.[$R$y#S$B#T$U$G#V$f#W$X$X$Y$Z$`$ %.%+%@%#%$%9$%%i$&%*%!#=%-%|$}$n$$./$;%>%        ",
"      Q$D.,%*@N$6#'%v$C#)%W$!%~%{%]%^%/%E$(%_%:%<%[%}%|%^%1%{%~%!%W$2%C#3%4%5%6%$.$@7%8%        ",
"      >%5+/$$.9%k@0%1$!#a%&%b%c%d%e%Y$f%g%h%i%j%i%h%g%f%Y$e%k%c%i$&%a%l%k$0%k@m%$...,%n%        ",
"      o%5+$@*@p%{$q%.$P#r%F#5$s%1%^%/%t%_%u%v%w%v%x%_%y%/%^%1%e$z%F#A%P#.$u$t$B%$.g C%D%        ",
"      E%5+..$.T#F%z#G%!#U$G#H%I%J%X$K%L%M%i%N%O%P%i%M%Q%K%X$R%c%b%G#*%!#G%l$k@S%$.T%P$U%        ",
"      V%5+- *@N$t$u$~$P#f#W%X%e$Y%D$Z%}%(%`% &u%.&:%+&}%Z%D$Y%@&X%W%f#C#~$u$t$#&$., $&%&        ",
"      U%5+&&$.*&=&-&;&)#>&,&I#'&)&0$X$!&f%~&g%{&g%~&f%]&X$J%8$^&I#,&/&R#j@(&x#_&$.) $&:&        ",
"      %&5+' *@<&[&{$M@}&P#A%W%X%&$|&1%^%1&/%2&3&2&/%K$D$1%|&&$X%W%A%P#.$M@{$4&5#$.! 5&6&        ",
"      7&5+d $.v#w#=&0%A#R#8&j$G#i$9&8$d%0&e%X$X$X$e%0&d%8$9&i$G#j$8&B#;&-&=&w#U#$.{ a&b&        ",
"      c&$@d&$.$.$.$.$.$.$.$.$.$.$.$.$.$.$.$.$.$.$.$.$.$.$.$.$.$.$.$.$.$.$.$.$.$.$.] a&e&        ",
"      b&5+7 ] f&f&a a a g&g&h&h&^ ^ ^ ^ i&i&i&i&i&i&i&^ ^ ^ h&h&h&g&a a a a f&j&a / a.k&        ",
"      b&l&T%T%T%T%T%T%T%T%T%T%T%T%T%T%T%T%T%T%T%T%T%T%T%T%T%T%T%T%T%T%T%T%T%T%T%T%; r#m&        ",
"      n&7&c&c&c&c&c&c&c&c&c&c&c&c&c&c&c&c&c&c&c&c&c&c&c&c&c&c&c&c&c&c&c&c&c&c&c&c&c&c&o&p&      ",
"      p&q&r&r&r&r&r&r&r&r&r&r&r&r&r&r&r&r&r&r&r&r&r&r&r&r&r&r&r&r&r&r&r&r&r&r&r&r&r&q&p&p&      ",
"          p&p&p&p&p&p&p&p&p&p&p&p&p&p&p&p&p&p&p&p&p&p&p&p&p&p&p&p&p&p&p&p&p&p&p&p&p&p&          ",
"                                                                                                ",
"                                                                                                ",
"                                                                                                ",
"                                                                                                ",
"                                                                                                ",
"                                                                                                "};
