/* XPM */
static char * gnumeric_xpm[] = {
"48 48 878 2",
"  	c None",
". 	c #4C4E4A",
"+ 	c #4A4D48",
"@ 	c #4A4C48",
"# 	c #4D4F4A",
"$ 	c #787976",
"% 	c #F8F8F8",
"& 	c #FFFFFF",
"* 	c #EEEEED",
"= 	c #6D6E6B",
"- 	c #4E504C",
"; 	c #FDFDFD",
"> 	c #D1D1D1",
", 	c #C3C3C2",
"' 	c #C5C5C3",
") 	c #C4C4C2",
"! 	c #ABABA9",
"~ 	c #C0C0BE",
"{ 	c #C3C3C1",
"] 	c #ADADAB",
"^ 	c #C2C2C0",
"/ 	c #D9D9D9",
"( 	c #EBECEB",
"_ 	c #4D504B",
": 	c #6C6D6A",
"< 	c #BEBEBD",
"[ 	c #D6D6D4",
"} 	c #DADAD9",
"| 	c #D8D8D7",
"1 	c #D6D6D5",
"2 	c #D4D4D3",
"3 	c #A1A1A0",
"4 	c #CBCBCA",
"5 	c #D3D3D2",
"6 	c #D2D2D1",
"7 	c #CCCCCB",
"8 	c #A4A4A2",
"9 	c #D5D5D4",
"0 	c #CECECD",
"a 	c #C5C5C5",
"b 	c #FEFEFE",
"c 	c #4B4D49",
"d 	c #6F716D",
"e 	c #BFBFBE",
"f 	c #DADAD8",
"g 	c #DEDEDC",
"h 	c #DBDBDA",
"i 	c #D9D9D7",
"j 	c #D3D3D1",
"k 	c #D2D2D0",
"l 	c #A0A09F",
"m 	c #CACAC8",
"n 	c #D0D0CE",
"o 	c #A2A2A0",
"p 	c #CCCCCA",
"q 	c #6E706C",
"r 	c #BFBFBD",
"s 	c #D7D7D5",
"t 	c #D0D0CF",
"u 	c #CECECC",
"v 	c #CDCDCC",
"w 	c #9C9C9A",
"x 	c #C4C4C3",
"y 	c #CACAC9",
"z 	c #9D9D9B",
"A 	c #CDCDCB",
"B 	c #C6C6C4",
"C 	c #FEFDFE",
"D 	c #6C6D6B",
"E 	c #BDBDBC",
"F 	c #D4D4D2",
"G 	c #CBCBC9",
"H 	c #989897",
"I 	c #C0C0BF",
"J 	c #C7C7C5",
"K 	c #C6C6C5",
"L 	c #999998",
"M 	c #C9C9C8",
"N 	c #C2C2C1",
"O 	c #6B6D6A",
"P 	c #A3A3A1",
"Q 	c #9E9E9C",
"R 	c #9A9A98",
"S 	c #989896",
"T 	c #979795",
"U 	c #81817F",
"V 	c #949493",
"W 	c #979796",
"X 	c #838381",
"Y 	c #A8A8A7",
"Z 	c #FDFDFC",
"` 	c #6A6B68",
" .	c #BABAB8",
"..	c #C9C9C7",
"+.	c #C5C5C4",
"@.	c #939392",
"#.	c #DFDFDD",
"$.	c #D8D8D6",
"%.	c #AFAFAE",
"&.	c #E1E1DF",
"*.	c #FFFFFE",
"=.	c #686A65",
"-.	c #BEBEBC",
";.	c #CFCFCE",
">.	c #C8C8C6",
",.	c #969694",
"'.	c #ECECEA",
").	c #EBEBE9",
"!.	c #E5E5E3",
"~.	c #B7B7B5",
"{.	c #E7E7E5",
"].	c #676964",
"^.	c #BCBCBB",
"/.	c #CFCFCC",
"(.	c #C8C8C5",
"_.	c #C4C4C1",
":.	c #BEBEBB",
"<.	c #949492",
"[.	c #DADAD7",
"}.	c #E7E7E4",
"|.	c #E0E0DD",
"1.	c #B5B5B3",
"2.	c #EAEAE7",
"3.	c #E2E2DF",
"4.	c #4B4D48",
"5.	c #656764",
"6.	c #ACACAA",
"7.	c #AFAFAC",
"8.	c #A9A9A6",
"9.	c #A5A5A3",
"0.	c #A1A19F",
"a.	c #A0A09E",
"b.	c #868684",
"c.	c #BABAB7",
"d.	c #C3C3C0",
"e.	c #BFBFBC",
"f.	c #C0C0BD",
"g.	c #C1C1BF",
"h.	c #646662",
"i.	c #BBBBBA",
"j.	c #BDBDBB",
"k.	c #939391",
"l.	c #DEDEDD",
"m.	c #B4B4B2",
"n.	c #E8E8E6",
"o.	c #E1E1DE",
"p.	c #CFCFCD",
"q.	c #636561",
"r.	c #D0D0CD",
"s.	c #D1D1CF",
"t.	c #CECECB",
"u.	c #CACAC7",
"v.	c #C2C2BE",
"w.	c #959593",
"x.	c #DCDCDA",
"y.	c #E9E9E6",
"z.	c #E2E2E0",
"A.	c #B6B6B4",
"B.	c #ECECE9",
"C.	c #E9EAE7",
"D.	c #EAEBE8",
"E.	c #E7E5E2",
"F.	c #E3DFDC",
"G.	c #E1DBD9",
"H.	c #DFD8D5",
"I.	c #E0D9D6",
"J.	c #DDD7D5",
"K.	c #CBC6C4",
"L.	c #FDFBFA",
"M.	c #4B4E4A",
"N.	c #62635F",
"O.	c #C7C7C4",
"P.	c #BBBBB9",
"Q.	c #929290",
"R.	c #D5D5D3",
"S.	c #DBDBD9",
"T.	c #B3B4B2",
"U.	c #E7EBE9",
"V.	c #DCDAD7",
"W.	c #C0A6A5",
"X.	c #A67776",
"Y.	c #8E4F4E",
"Z.	c #8D4140",
"`.	c #913A3A",
" +	c #92302F",
".+	c #953534",
"++	c #913B3A",
"@+	c #873939",
"#+	c #985858",
"$+	c #532220",
"%+	c #60615C",
"&+	c #A8A8A6",
"*+	c #818181",
"=+	c #AEAEAC",
"-+	c #B5B7B5",
";+	c #9F9C9B",
">+	c #915F5D",
",+	c #6C1211",
"'+	c #922323",
")+	c #C03A3A",
"!+	c #E25858",
"~+	c #EF6666",
"{+	c #F26868",
"]+	c #F46969",
"^+	c #F06767",
"/+	c #E75D5D",
"(+	c #C74040",
"_+	c #951D1D",
":+	c #610000",
"<+	c #630000",
"[+	c #5E615C",
"}+	c #D1D1CE",
"|+	c #C2C2BF",
"1+	c #C1C1BE",
"2+	c #DDDDDA",
"3+	c #EBEBE8",
"4+	c #E6E3E0",
"5+	c #B89491",
"6+	c #740B0B",
"7+	c #A12929",
"8+	c #F16565",
"9+	c #FF7A7A",
"0+	c #FF7575",
"a+	c #FF7474",
"b+	c #FF7272",
"c+	c #FF7171",
"d+	c #FE7070",
"e+	c #FE6F6F",
"f+	c #FD6D6D",
"g+	c #FD6F6F",
"h+	c #FF7979",
"i+	c #FA6C6C",
"j+	c #B53535",
"k+	c #750A0A",
"l+	c #5C5E5A",
"m+	c #CBCBC8",
"n+	c #E6E6E4",
"o+	c #E6E6E3",
"p+	c #EAEDEA",
"q+	c #D9CECB",
"r+	c #8A4241",
"s+	c #A02626",
"t+	c #ED6767",
"u+	c #FF7D7D",
"v+	c #FF7373",
"w+	c #FC6C6C",
"x+	c #FC6A6A",
"y+	c #FB6969",
"z+	c #FA6767",
"A+	c #F96565",
"B+	c #F96363",
"C+	c #F86262",
"D+	c #F96767",
"E+	c #F56E6E",
"F+	c #AF3838",
"G+	c #6A0000",
"H+	c #5A5C59",
"I+	c #C6C6C3",
"J+	c #DCDCD9",
"K+	c #D2C0BE",
"L+	c #6F1616",
"M+	c #CE4A4A",
"N+	c #FF7C7C",
"O+	c #FD6C6C",
"P+	c #FC6B6B",
"Q+	c #FB6A6A",
"R+	c #FA6868",
"S+	c #FA6666",
"T+	c #F86464",
"U+	c #F76161",
"V+	c #F65E5E",
"W+	c #F65D5D",
"X+	c #F55C5C",
"Y+	c #F45B5B",
"Z+	c #F55E5E",
"`+	c #FC7575",
" @	c #E06262",
".@	c #730606",
"+@	c #595B58",
"@@	c #A7A7A6",
"#@	c #A3A3A0",
"$@	c #A2A29F",
"%@	c #9F9F9D",
"&@	c #999997",
"*@	c #818180",
"=@	c #ADADAA",
"-@	c #B5B5B2",
";@	c #AEA7A4",
">@	c #731F1F",
",@	c #DD5D5D",
"'@	c #FF8080",
")@	c #FE7171",
"!@	c #FE6E6E",
"~@	c #FB6767",
"{@	c #F96464",
"]@	c #F76060",
"^@	c #F75E5E",
"/@	c #F55D5D",
"(@	c #F55B5B",
"_@	c #F45A5A",
":@	c #F35858",
"<@	c #F35656",
"[@	c #F25555",
"}@	c #F15353",
"|@	c #F15050",
"1@	c #FA7272",
"2@	c #DE6262",
"3@	c #720808",
"4@	c #585956",
"5@	c #C1C1BD",
"6@	c #BDBDBA",
"7@	c #B9B9B6",
"8@	c #91918F",
"9@	c #D2D2CF",
"0@	c #DFDFDB",
"a@	c #DEDEDB",
"b@	c #E4E9E5",
"c@	c #995B5A",
"d@	c #B23737",
"e@	c #FF7E7E",
"f@	c #FA6565",
"g@	c #F86363",
"h@	c #F45959",
"i@	c #F35757",
"j@	c #F25656",
"k@	c #F05252",
"l@	c #EF5050",
"m@	c #EF4F4F",
"n@	c #EE4D4D",
"o@	c #ED4B4B",
"p@	c #CD504F",
"q@	c #5E0000",
"r@	c #575855",
"s@	c #BCBCBA",
"t@	c #CDCDCA",
"u@	c #C9C9C6",
"v@	c #D8D8D5",
"w@	c #E5E5E2",
"x@	c #E4E4E1",
"y@	c #E6E7E4",
"z@	c #D1C2C0",
"A@	c #700505",
"B@	c #FA7F7F",
"C@	c #FB6D6D",
"D@	c #F65F5F",
"E@	c #F15555",
"F@	c #F05151",
"G@	c #EF4E4E",
"H@	c #EE4847",
"I@	c #F04644",
"J@	c #F24340",
"K@	c #EA4B4B",
"L@	c #D78A98",
"M@	c #90333B",
"N@	c #BBBBB8",
"O@	c #C9C9C5",
"P@	c #C5C5C2",
"Q@	c #BABAB6",
"R@	c #B8B8B5",
"S@	c #D4D4D0",
"T@	c #E0E0DC",
"U@	c #E5EAE6",
"V@	c #935553",
"W@	c #B43C3C",
"X@	c #FF8181",
"Y@	c #F75F5F",
"Z@	c #F45858",
"`@	c #F25454",
" #	c #F15252",
".#	c #F05050",
"+#	c #EF4D4D",
"@#	c #EF4C4B",
"##	c #ED4A4A",
"$#	c #E84B4D",
"%#	c #E34D51",
"&#	c #D95057",
"*#	c #B75F73",
"=#	c #926F90",
"-#	c #667FB0",
";#	c #4A84BF",
">#	c #588BC0",
",#	c #857B9C",
"'#	c #660000",
")#	c #565854",
"!#	c #ABABA8",
"~#	c #A9A9A4",
"{#	c #A5A5A2",
"]#	c #9F9F9B",
"^#	c #9C9C99",
"/#	c #858583",
"(#	c #B6B6B2",
"_#	c #BFBFBB",
":#	c #C2C6C2",
"<#	c #6B1111",
"[#	c #ED7272",
"}#	c #FB7272",
"|#	c #F25757",
"1#	c #F15151",
"2#	c #EE4C4D",
"3#	c #F44644",
"4#	c #E94D4F",
"5#	c #D45A64",
"6#	c #BF6778",
"7#	c #A9728C",
"8#	c #917C9F",
"9#	c #7886B1",
"0#	c #5F8EC3",
"a#	c #558EC6",
"b#	c #5388C0",
"c#	c #5183BB",
"d#	c #4F7EB6",
"e#	c #4E7CB4",
"f#	c #748AB4",
"g#	c #801719",
"h#	c #565954",
"i#	c #BBBBB7",
"j#	c #C8C8C3",
"k#	c #C5C5C0",
"l#	c #BDBDB9",
"m#	c #B9B9B5",
"n#	c #B8B8B3",
"o#	c #D3D3CE",
"p#	c #E0E0DB",
"q#	c #DFE0DB",
"r#	c #D9D5D0",
"s#	c #6A0D0D",
"t#	c #FF8C8C",
"u#	c #F86969",
"v#	c #F35959",
"w#	c #EE4C4C",
"x#	c #EC4949",
"y#	c #E9544D",
"z#	c #9389AC",
"A#	c #7D97C2",
"B#	c #7899C6",
"C#	c #7098C9",
"D#	c #6897C9",
"E#	c #6393C6",
"F#	c #5C8ABF",
"G#	c #5886BC",
"H#	c #5382BA",
"I#	c #4B7AB3",
"J#	c #4474B0",
"K#	c #758DB7",
"L#	c #862C34",
"M#	c #BCBCB9",
"N#	c #CBCBC7",
"O#	c #C4C4C0",
"P#	c #C0C0BC",
"Q#	c #BCBCB8",
"R#	c #D5D5D2",
"S#	c #E3E3DE",
"T#	c #E3E3DF",
"U#	c #D6D0CC",
"V#	c #690C0B",
"W#	c #FF8F8F",
"X#	c #F66666",
"Y#	c #ED4949",
"Z#	c #EC4848",
"`#	c #EB4747",
" $	c #EB4344",
".$	c #DB9666",
"+$	c #9BAEAB",
"@$	c #6F9ED0",
"#$	c #6D9ACC",
"$$	c #6996C8",
"%$	c #6492C5",
"&$	c #608EC3",
"*$	c #5C8AC0",
"=$	c #4F7EB7",
"-$	c #4676B1",
";$	c #3F70AD",
">$	c #7591BB",
",$	c #7C3240",
"'$	c #C5C5C1",
")$	c #BEBEBA",
"!$	c #B5B5B0",
"~$	c #8F8F8D",
"{$	c #D0D0CB",
"]$	c #DCDCD7",
"^$	c #DBDCD7",
"/$	c #CCC6C2",
"($	c #F27F7F",
"_$	c #F66D6D",
":$	c #EE4E4E",
"<$	c #EB4646",
"[$	c #EA4444",
"}$	c #EA4343",
"|$	c #E94141",
"1$	c #E64944",
"2$	c #C2D47D",
"3$	c #BDC380",
"4$	c #6898D1",
"5$	c #6592C5",
"6$	c #4172AE",
"7$	c #4372AD",
"8$	c #7991B8",
"9$	c #73222D",
"0$	c #565853",
"a$	c #A8A8A5",
"b$	c #A1A19E",
"c$	c #A0A09D",
"d$	c #9E9E9B",
"e$	c #9B9B98",
"f$	c #959592",
"g$	c #B3B3B0",
"h$	c #B2B3B0",
"i$	c #A49E9B",
"j$	c #670B0B",
"k$	c #D15252",
"l$	c #FC8484",
"m$	c #EA4646",
"n$	c #E94242",
"o$	c #E84141",
"p$	c #E83F3F",
"q$	c #E73D3D",
"r$	c #E7393B",
"s$	c #D07F53",
"t$	c #AFF07B",
"u$	c #B6E974",
"v$	c #6B93C6",
"w$	c #6492C6",
"x$	c #4272AE",
"y$	c #3B6CAA",
"z$	c #5B84B8",
"A$	c #8884A7",
"B$	c #61101D",
"C$	c #C8C8C4",
"D$	c #D6D6D3",
"E$	c #E2E2DE",
"F$	c #CBC5C2",
"G$	c #6D1111",
"H$	c #B22727",
"I$	c #F99393",
"J$	c #EE5454",
"K$	c #E84040",
"L$	c #E63B3B",
"M$	c #E63A3A",
"N$	c #E53839",
"O$	c #E43837",
"P$	c #A8E067",
"Q$	c #A6E669",
"R$	c #A8EA69",
"S$	c #92988B",
"T$	c #5D8EC7",
"U$	c #5483BA",
"V$	c #4776B1",
"W$	c #3E6EAB",
"X$	c #4270AB",
"Y$	c #7B9AC3",
"Z$	c #6C678F",
"`$	c #62131F",
" %	c #565753",
".%	c #C9C9C4",
"+%	c #C6C6C1",
"@%	c #BFBFB9",
"#%	c #B9B9B4",
"$%	c #91918E",
"%%	c #DEDED9",
"&%	c #CBC6C2",
"*%	c #AB1E1E",
"=%	c #FC9696",
"-%	c #EA4747",
";%	c #E53A3A",
">%	c #E43838",
",%	c #E43737",
"'%	c #E33535",
")%	c #E62B32",
"!%	c #BA9346",
"~%	c #9BE65A",
"{%	c #9DE15A",
"]%	c #9DE35A",
"^%	c #9CBB66",
"/%	c #5788C8",
"(%	c #4F7FB7",
"_%	c #4373AE",
":%	c #3A6AA8",
"<%	c #7092BF",
"[%	c #737AA2",
"}%	c #3B588B",
"|%	c #641521",
"1%	c #555853",
"2%	c #CACAC5",
"3%	c #CACAC6",
"4%	c #C7C7C2",
"5%	c #C3C3BF",
"6%	c #92928F",
"7%	c #D5D5D1",
"8%	c #E2E2DD",
"9%	c #E0E0DA",
"0%	c #D4D8D4",
"a%	c #711818",
"b%	c #A01B1B",
"c%	c #A90B0B",
"d%	c #E36F6F",
"e%	c #FEA1A1",
"f%	c #E94848",
"g%	c #E33434",
"h%	c #E23333",
"i%	c #E13232",
"j%	c #E12F2F",
"k%	c #D64531",
"l%	c #98CF47",
"m%	c #93DE49",
"n%	c #93DD4A",
"o%	c #94DE4B",
"p%	c #91D454",
"q%	c #6483AE",
"r%	c #4B7AB4",
"s%	c #3D6EAB",
"t%	c #3969A7",
"u%	c #7396C1",
"v%	c #7888B0",
"w%	c #2D518A",
"x%	c #465E8D",
"y%	c #640A10",
"z%	c #535752",
"A%	c #9F9F9C",
"B%	c #9D9D9A",
"C%	c #9A9A97",
"D%	c #979794",
"E%	c #939390",
"F%	c #81817E",
"G%	c #AAAAA7",
"H%	c #B2B2AF",
"I%	c #B0B0AD",
"J%	c #A7ABA9",
"K%	c #7E3F3F",
"L%	c #840F0F",
"M%	c #B01A1A",
"N%	c #9E0000",
"O%	c #D75D5D",
"P%	c #FDA2A2",
"Q%	c #EB5555",
"R%	c #E23434",
"S%	c #DF2C2C",
"T%	c #DE2B2B",
"U%	c #B18430",
"V%	c #89DA39",
"W%	c #89D939",
"X%	c #8ADA3B",
"Y%	c #8ADB3B",
"Z%	c #8CD43D",
"`%	c #738D86",
" &	c #4E7FB8",
".&	c #4B7BB4",
"+&	c #4776B0",
"@&	c #3F70AC",
"#&	c #4B78B0",
"$&	c #829EC5",
"%&	c #798CB4",
"&&	c #294A86",
"*&	c #315A92",
"=&	c #544A70",
"-&	c #545752",
";&	c #B7B7B4",
">&	c #B3B3AF",
",&	c #B1B1AE",
"'&	c #8F8F8C",
")&	c #CCCCC9",
"!&	c #D8D8D4",
"~&	c #D7D7D2",
"{&	c #CCCDC9",
"]&	c #B4A9A6",
"^&	c #6B0000",
"/&	c #AB2626",
"(&	c #A70808",
"_&	c #A20000",
":&	c #C13636",
"<&	c #ED8E8E",
"[&	c #FC9898",
"}&	c #ED6262",
"|&	c #E23636",
"1&	c #D22F1E",
"2&	c #85C324",
"3&	c #7DD627",
"4&	c #7FD629",
"5&	c #7FD62A",
"6&	c #80D62B",
"7&	c #81D629",
"8&	c #6DA26B",
"9&	c #4878B3",
"0&	c #4274AF",
"a&	c #5B86B9",
"b&	c #789AC4",
"c&	c #8C9DC0",
"d&	c #5F73A0",
"e&	c #224985",
"f&	c #224D8A",
"g&	c #48699C",
"h&	c #68121B",
"i&	c #545552",
"j&	c #C4C4BE",
"k&	c #C1C1BB",
"l&	c #BDBDB8",
"m&	c #B7B7B2",
"n&	c #91918D",
"o&	c #D2D2CD",
"p&	c #DFDFD9",
"q&	c #DEDED8",
"r&	c #D6D6D0",
"s&	c #CACDC7",
"t&	c #93615E",
"u&	c #830A0B",
"v&	c #B22A2A",
"w&	c #A40000",
"x&	c #A30000",
"y&	c #A90808",
"z&	c #BF3333",
"A&	c #F08E8E",
"B&	c #FFAFB1",
"C&	c #D2BC84",
"D&	c #92E04E",
"E&	c #84D732",
"F&	c #7DD527",
"G&	c #77D31D",
"H&	c #7ED627",
"I&	c #87B950",
"J&	c #7295BA",
"K&	c #84A5CB",
"L&	c #95B2D4",
"M&	c #96A2C3",
"N&	c #6875A0",
"O&	c #29508A",
"P&	c #204A87",
"Q&	c #3A669E",
"R&	c #64334A",
"S&	c #640000",
"T&	c #545551",
"U&	c #C6C6C2",
"V&	c #C3C3BE",
"W&	c #BFBFBA",
"X&	c #B7B7B3",
"Y&	c #B5B5B1",
"Z&	c #90908D",
"`&	c #D1D1CD",
" *	c #DDDDD8",
".*	c #DADAD5",
"+*	c #CDCDC8",
"@*	c #BDB9B5",
"#*	c #782B2A",
"$*	c #9A2222",
"%*	c #B42B2B",
"&*	c #A60606",
"**	c #9F0000",
"=*	c #B41218",
"-*	c #A2AC4E",
";*	c #A9CF69",
">*	c #AFDF7E",
",*	c #B3E183",
"'*	c #B6E286",
")*	c #B6E287",
"!*	c #B7DB82",
"~*	c #92A3B9",
"{*	c #7D86AB",
"]*	c #4A6092",
"^*	c #1B4684",
"/*	c #1C4886",
"(*	c #214B88",
"_*	c #3E6398",
":*	c #624866",
"<*	c #680203",
"[*	c #535551",
"}*	c #BEBEB9",
"|*	c #CCCCC7",
"1*	c #D7D7D1",
"2*	c #D6D6D1",
"3*	c #CECEC9",
"4*	c #AC9E9A",
"5*	c #721F1E",
"6*	c #8C1515",
"7*	c #B22E2E",
"8*	c #AD1616",
"9*	c #A70000",
"0*	c #4C9200",
"a*	c #479700",
"b*	c #489600",
"c*	c #559A09",
"d*	c #619D14",
"e*	c #629D16",
"f*	c #579C0A",
"g*	c #558900",
"h*	c #204A74",
"i*	c #194684",
"j*	c #1D4886",
"k*	c #1F4986",
"l*	c #1E4986",
"m*	c #2D5791",
"n*	c #466DA2",
"o*	c #60415C",
"p*	c #660609",
"q*	c #B1B1AD",
"r*	c #B2B2AE",
"s*	c #B4B4B0",
"t*	c #A2A39F",
"u*	c #999490",
"v*	c #722B2B",
"w*	c #710203",
"x*	c #A92F2F",
"y*	c #B83333",
"z*	c #AB1515",
"A*	c #A80000",
"B*	c #509304",
"C*	c #4D9B05",
"D*	c #4E9A06",
"E*	c #4D9A06",
"F*	c #588D01",
"G*	c #274F78",
"H*	c #1E4886",
"I*	c #2E568F",
"J*	c #466CA1",
"K*	c #5B638D",
"L*	c #661A25",
"M*	c #650203",
"N*	c #555754",
"O*	c #7D7F7B",
"P*	c #F1F1F1",
"Q*	c #F7F8F8",
"R*	c #F6F7F6",
"S*	c #F6F6F6",
"T*	c #F7F7F6",
"U*	c #F3F3F3",
"V*	c #E6E6E6",
"W*	c #CED1D0",
"X*	c #9C7675",
"Y*	c #660B0B",
"Z*	c #861A1A",
"`*	c #AA3233",
" =	c #B83036",
".=	c #6CA129",
"+=	c #5DA41C",
"@=	c #549F0E",
"#=	c #529E0D",
"$=	c #529D0C",
"%=	c #529E0C",
"&=	c #5D910A",
"*=	c #375E84",
"==	c #3F6297",
"-=	c #526C9A",
";=	c #5A6890",
">=	c #68384E",
",=	c #670101",
"'=	c #560000",
")=	c #5A5C58",
"!=	c #767874",
"~=	c #777975",
"{=	c #777976",
"]=	c #757773",
"^=	c #71726E",
"/=	c #71726F",
"(=	c #71736F",
"_=	c #656663",
":=	c #5E605C",
"<=	c #5C625F",
"[=	c #5A524F",
"}=	c #532424",
"|=	c #590F0E",
"1=	c #780E10",
"2=	c #76421B",
"3=	c #756228",
"4=	c #7C7B31",
"5=	c #798931",
"6=	c #799231",
"7=	c #798D31",
"8=	c #7E7930",
"9=	c #644A5C",
"0=	c #633246",
"a=	c #691F2B",
"b=	c #5F0001",
"c=	c #550000",
"d=	c #530100",
"e=	c #5F0803",
"f=	c #650B04",
"g=	c #690D04",
"h=	c #690C04",
"i=	c #660C04",
"j=	c #5F0903",
"k=	c #550203",
"                                                                                                ",
"                                                                                                ",
"                                                                                                ",
"                                                                                                ",
"                                                                                                ",
"        . + @ @ @ @ @ @ @ @ @ @ @ @ @ @ @ @ @ @ @ @ @ @ @ @ @ @ @ @ #                           ",
"      $ % & & & & & & & & & & & & & & & & & & & & & & & & & & & & & * =                         ",
"    - ; > , ' ' ' ' ) ) ! ~ { { { { { { { { ~ ] ) { { { { { { { { ^ / ( _                       ",
"    : & < [ } } | 1 2 2 3 4 5 6 6 6 6 6 6 5 7 8 9 6 6 6 6 6 6 6 6 0 a b c                       ",
"    d & e f g h i [ j k l m n n n n n n n n m o j n n n n n n n n p , b c                       ",
"    q & r s i [ j t u v w x y m m m m m m y x z A m m m m m m m m B ~ C c                       ",
"    D & E F [ 6 t u G m H I J K K K K K K J I L M K K K K K K K K N E b c                       ",
"    O & P l l Q w R S T U V W T T T T T T W V X H T T T T T T T T V Y Z c                       ",
"    ` &  .p p ..+.^ E E @.j #.g g g g g g #.$.%.&.g g g g g g g g f p *.c                       ",
"    =.& -.6 j ;.p >., ^ ,.g '.).).).).).).'.!.~.* ).).).).).).).).{.k & c                       ",
"    ].& ^.u /.G (._.r :.<.[.}.}.}.}.}.}.}.}.|.1.2.}.}.}.}.}.}.}.}.3.n & 4.                      ",
"    5.& 6.7.7.! 8.9.0.a.b.c.d.d.d.d.d.d.d.d.e.9.) d.d.d.d.d.d.d.d.f.g.b c                       ",
"    h.& i.A A m B N -.j.k.| !.!.!.!.!.!.!.!.l.m.n.!.!.!.!.!.!.!.!.o.p.& c                       ",
"    q.& j.r.s.t.u.B v.~ w.x.2.y.y.y.y.y.y.y.z.A.B.C.D.D.E.F.G.H.I.J.K.L.M.                      ",
"    N.&  .m m O.{ r P. .Q.R.3.3.3.3.3.3.3.3.S.T.U.V.W.X.Y.Z.`. +.+++@+#+$+                      ",
"    %+& &+8 P l z R T w.*+=+A.A.A.A.A.A.A.A.-+;+>+,+'+)+!+~+{+]+]+{+^+/+(+_+:+<+                ",
"    [+& e.}+s.t.m O.|+1+w.2+2.2.2.2.2.2.3+4+5+6+7+8+9+0+a+b+c+c+d+e+f+g+b+h+i+j+k+              ",
"    l+& j.t./.m+J _.r :.<.[.}.n+n+n+o+p+q+r+s+t+u+v+b+c+d+e+f+w+x+y+z+A+B+C+D+c+E+F+G+          ",
"    H+& -.n }+A ..I+g.f.w.J+y.y.y.y.D.K+L+M+N+a+c+d+g+O+P+Q+R+S+A+T+C+U+V+W+X+Y+Z+`+ @.@        ",
"    +@& @@#@$@%@w &@,.<.*@=@-@-@-@-@;@>@,@'@)@!@O+P+Q+~@S+{@B+C+]@^@/@(@_@:@<@[@}@|@1@2@3@      ",
"    4@& c.O.O._.5@6@7@~.8@9@0@0@a@b@c@d@e@w+x+y+z+f@{@g@U+]@V+X+(@h@i@j@[@}@k@l@m@n@o@0+p@q@    ",
"    r@& s@p t@u@I+|+j.s@@.v@w@x@y@z@A@B@C@S+A+T+C+U+D@V+X+Y+:@i@j@E@}@F@l@G@n@o@H@I@J@K@L@M@    ",
"    r@& N@(.O@P@v.:.Q@R@8@S@T@T@U@V@W@X@{@C+]@Y@W+X+Y+Z@i@[@`@ #.#m@+#@###$#%#&#*#=#-#;#>#,#'#  ",
"    )#& =@!#!#~#{#$@]#^#/#(#_#_#:#<#[#}#V+/@X+_@:@|#[@}@1#.#m@2#3#4#5#6#7#8#9#0#a#b#c#d#e#f#g#  ",
"    h#& i#j#j#k#5@l#m#n#8@o#p#q#r#s#t#u#v#:@j@E@}@F@l@G@n@w#x#y#z#A#B#C#D#E#0#F#G#H#d#I#J#K#L#  ",
"    h#& M#N#N#O.O#P#Q#c.Q.R#S#T#U#V#W#X#`@ #F@m@G@w#o@Y#Z#`# $.$+$@$#$$$%$&$*$G#H#=$I#-$;$>$,$  ",
"    h#& Q@'$k#5@)$Q@(#!$~${$]$^$/$V#($_$G@:$w###x#Z#<$[$}$|$1$2$3$4$$$5$&$*$G#H#=$I#-$6$7$8$9$  ",
"    0$& a$b$c$d$e$T f$Q.U !#g$h$i$j$k$l$o@x#`#m$}$n$o$p$q$r$s$t$u$v$w$&$*$G#H#=$I#-$x$y$z$A$B$  ",
"    0$& 6@N#m+C$_.5@Q#N@Q.D$T#E$F$G$H$I$J$n$n$K$p$q$L$M$N$O$P$Q$R$S$T$*$G#U$=$I#V$x$W$X$Y$Z$`$  ",
"     %& M#.%O@+%v.@%m##%$%S@p#%%&%G$*%k$=%-%M$L$;%>%,%'%)%!%~%{%]%^%/%G#U$(%I#V$_%W$:%<%[%}%|%  ",
"    1%& l#2%3%4%5%P#i#Q@6%7%8%9%0%a%b%c%d%e%f%g%'%h%i%j%k%l%m%n%o%p%q%U$(%r%V$_%s%t%u%v%w%x%y%  ",
"    z%*.8.c$A%B%C%D%E%6%F%G%H%I%J%K%L%M%N%O%P%Q%R%S%S%T%U%V%W%X%Y%Z%`% &.&+&x$@&#&$&%&&&*&=&<+  ",
"    -&& m#5@5@)$i#;&>&,&'&)&!&~&{&]&^&/&(&_&:&<&[&}&|&1&2&3&4&5&6&7&8&9&0&+&a&b&c&d&e&f&g&h&    ",
"    i&& N@4%4%j&k&l&n#m&n&o&p&q&r&s&t&u&v&w&x&y&z&A&B&C&D&E&F&G&G&H&I&J&K&L&M&N&O&P&P&Q&R&S&    ",
"    T&& Q#U&+%V&W&i#X&Y&Z&`& * *.*+*@*#*$*%*&*w&x&**=*-*;*>*,*'*)*,*!*~*{*]*^*/*P&(*_*:*<*      ",
"    [*& R@V&5%P#}*Q@(#-@8@|*~&1*2*3*5%4*5*6*7*8*w&x&9*0*a*b*c*d*e*f*g*h*i*j*k*l*m*n*o*p*        ",
"    . *.m q*H%r*,&,&,&r*w I%s*g$s*H%&+t*u*v*w*x*y*z*A*B*C*D*D*E*E*D*F*G*l*H*I*J*K*L*M*          ",
"    N*O*P*% Q*Q*Q*Q*Q*Q*% R*S*S*S*T*U*V*} W*X*Y*Z*`* =.=+=@=#=$=$=%=&=*===-=;=>=,='=            ",
"        )=!=~=~=~=~=~={=]=^=/=/=/=/=(=q _=:=<=[=}=|=1=2=3=4=5=6=6=7=8=9=0=a=b=c=                ",
"                                                        d=e=f=g=h=i=j=k=                        ",
"                                                                                                ",
"                                                                                                ",
"                                                                                                "};
