/* XPM */
static char * grsync_xpm[] = {
"48 48 714 2",
"  	c None",
". 	c #A06E8A",
"+ 	c #AD8099",
"@ 	c #B48AA1",
"# 	c #B389A0",
"$ 	c #AE8199",
"% 	c #965F7E",
"& 	c #B58AA2",
"* 	c #D6BDCB",
"= 	c #DAC3D0",
"- 	c #DDC7D4",
"; 	c #DFCCD7",
"> 	c #DFCBD7",
", 	c #DBC5D1",
"' 	c #BF9AAF",
") 	c #935979",
"! 	c #CCACBE",
"~ 	c #D8C0CD",
"{ 	c #D9C2CF",
"] 	c #DAC4D0",
"^ 	c #DCC7D3",
"/ 	c #DDC8D3",
"( 	c #DFC9D5",
"_ 	c #E2D1DB",
": 	c #CBABBD",
"< 	c #AC7C96",
"[ 	c #CFB2C3",
"} 	c #D2B7C6",
"| 	c #D2B6C5",
"1 	c #D3B8C7",
"2 	c #D5B9C9",
"3 	c #D6BCCA",
"4 	c #D7BECD",
"5 	c #D8C1CE",
"6 	c #DAC2CF",
"7 	c #DFCBD6",
"8 	c #C9A8BA",
"9 	c #AE7E99",
"0 	c #C9A7BA",
"a 	c #CAA9BC",
"b 	c #CCABBD",
"c 	c #CCAEBF",
"d 	c #CDB0C0",
"e 	c #CEB2C2",
"f 	c #CFB4C3",
"g 	c #D1B6C5",
"h 	c #D5B9C8",
"i 	c #D7BECC",
"j 	c #D8C1CD",
"k 	c #BB93A9",
"l 	c #A8718F",
"m 	c #C49DB2",
"n 	c #C19AB0",
"o 	c #C39DB2",
"p 	c #C39EB3",
"q 	c #C2A0B3",
"r 	c #C1A2B4",
"s 	c #C3A4B6",
"t 	c #C4A7B8",
"u 	c #C6A9B9",
"v 	c #C9ACBC",
"w 	c #CBADBE",
"x 	c #CFB2C2",
"y 	c #D1B4C4",
"z 	c #D8BFCD",
"A 	c #A46F8D",
"B 	c #823E64",
"C 	c #AB7492",
"D 	c #BB8FA7",
"E 	c #B98CA5",
"F 	c #BB8EA7",
"G 	c #B990A8",
"H 	c #B690A5",
"I 	c #B897AA",
"J 	c #AD899E",
"K 	c #8E677E",
"L 	c #90687E",
"M 	c #C0A1B3",
"N 	c #C2A2B5",
"O 	c #C6A5B7",
"P 	c #C8A8BA",
"Q 	c #CAAABC",
"R 	c #CDAEBF",
"S 	c #D2B4C5",
"T 	c #A56F8D",
"U 	c #884268",
"V 	c #B889A3",
"W 	c #B37F9C",
"X 	c #B17D9A",
"Y 	c #B27F9B",
"Z 	c #B1839C",
"` 	c #B793A8",
" .	c #B797A9",
"..	c #946A83",
"+.	c #411E33",
"@.	c #6F415B",
"#.	c #B694A8",
"$.	c #BA96AA",
"%.	c #BD99AE",
"&.	c #C19CB1",
"*.	c #C49FB3",
"=.	c #C6A2B5",
"-.	c #C8A3B7",
";.	c #C9A6BA",
">.	c #CAA7B9",
",.	c #9B6282",
"'.	c #8A476C",
").	c #AC7895",
"!.	c #873D66",
"~.	c #B988A4",
"{.	c #BA8BA5",
"].	c #B989A4",
"^.	c #AB7493",
"/.	c #AA7995",
"(.	c #AD839C",
"_.	c #B190A3",
":.	c #946D84",
"<.	c #865973",
"[.	c #B38DA2",
"}.	c #B48DA3",
"|.	c #B890A7",
"1.	c #BB92A9",
"2.	c #BD94AB",
"3.	c #C198AE",
"4.	c #C39BB2",
"5.	c #C7A0B6",
"6.	c #C298AF",
"7.	c #87456A",
"8.	c #935176",
"9.	c #CEACBF",
"0.	c #B587A0",
"a.	c #711347",
"b.	c #8F426D",
"c.	c #A7698C",
"d.	c #B4809D",
"e.	c #B17C9A",
"f.	c #A5728F",
"g.	c #986683",
"h.	c #9B7089",
"i.	c #825871",
"j.	c #946680",
"k.	c #AF859D",
"l.	c #B0849C",
"m.	c #B489A1",
"n.	c #B78AA4",
"o.	c #BC8FA9",
"p.	c #C399B0",
"q.	c #BB8BA5",
"r.	c #9E6384",
"s.	c #C59DB3",
"t.	c #C7A1B7",
"u.	c #B0819B",
"v.	c #7B1F52",
"w.	c #81285A",
"x.	c #7C1F52",
"y.	c #8B3866",
"z.	c #863763",
"A.	c #975C7D",
"B.	c #925D7B",
"C.	c #895573",
"D.	c #5F2D4A",
"E.	c #935D7C",
"F.	c #B58CA4",
"G.	c #BA90A9",
"H.	c #C199AE",
"I.	c #C196AE",
"J.	c #C092AB",
"K.	c #BE8CA7",
"L.	c #C59AB2",
"M.	c #C69EB4",
"N.	c #C196AF",
"O.	c #BF95AC",
"P.	c #AA7B95",
"Q.	c #852F5F",
"R.	c #862C5E",
"S.	c #964874",
"T.	c #934471",
"U.	c #8B3B67",
"V.	c #7F3560",
"W.	c #6D264F",
"X.	c #723558",
"Y.	c #5E2D4A",
"Z.	c #8D466E",
"`.	c #944A74",
" +	c #A25C84",
".+	c #AF6D92",
"++	c #BB80A0",
"@+	c #C28FAB",
"#+	c #C594AF",
"$+	c #C79AB3",
"%+	c #C69AB3",
"&+	c #C69CB3",
"*+	c #C096AE",
"=+	c #B588A1",
"-+	c #A57590",
";+	c #954872",
">+	c #A9688C",
",+	c #913F6C",
"'+	c #954672",
")+	c #914671",
"!+	c #89436B",
"~+	c #824368",
"{+	c #783B5F",
"]+	c #4B1736",
"^+	c #642046",
"/+	c #92366A",
"(+	c #8B215D",
"_+	c #932B65",
":+	c #A04377",
"<+	c #A75081",
"[+	c #AD5E8A",
"}+	c #B8779B",
"|+	c #C28DAB",
"1+	c #C496AF",
"2+	c #BF94AC",
"3+	c #B1839D",
"4+	c #9D6B88",
"5+	c #781D4F",
"6+	c #8A2F61",
"7+	c #954371",
"8+	c #923E6D",
"9+	c #822157",
"0+	c #842F5E",
"a+	c #813561",
"b+	c #844269",
"c+	c #78375C",
"d+	c #40142E",
"e+	c #7A2355",
"f+	c #A43875",
"g+	c #9D296B",
"h+	c #9E2A6B",
"i+	c #A23371",
"j+	c #A23974",
"k+	c #A6487D",
"l+	c #AA5685",
"m+	c #B37196",
"n+	c #BC8BA7",
"o+	c #B387A1",
"p+	c #A3748E",
"q+	c #7B2052",
"r+	c #87285D",
"s+	c #933E6D",
"t+	c #954271",
"u+	c #92406E",
"v+	c #8A3A67",
"w+	c #823661",
"x+	c #823D65",
"y+	c #7A385E",
"z+	c #3F102B",
"A+	c #952F69",
"B+	c #B9508B",
"C+	c #B34684",
"D+	c #AC3578",
"E+	c #A2266C",
"F+	c #9D2468",
"G+	c #A13974",
"H+	c #A0487A",
"I+	c #A25B84",
"J+	c #B1809D",
"K+	c #A77A94",
"L+	c #5B2A47",
"M+	c #7B1E52",
"N+	c #842259",
"O+	c #8E3767",
"P+	c #8D3C6A",
"Q+	c #8C436D",
"R+	c #863F68",
"S+	c #864269",
"T+	c #733157",
"U+	c #A43975",
"V+	c #C25190",
"W+	c #C15291",
"X+	c #BF5490",
"Y+	c #B84987",
"Z+	c #A72B71",
"`+	c #9E286A",
" @	c #A14077",
".@	c #994474",
"+@	c #954C76",
"@@	c #A06A89",
"#@	c #602949",
"$@	c #751A4E",
"%@	c #741A4E",
"&@	c #701C4C",
"*@	c #712451",
"=@	c #722753",
"-@	c #67244B",
";@	c #B82B7A",
">@	c #C03383",
",@	c #C64990",
"'@	c #C75396",
")@	c #C55393",
"!@	c #C05391",
"~@	c #B74887",
"{@	c #A2246C",
"]@	c #9F3371",
"^@	c #9F4879",
"/@	c #914270",
"(@	c #8A446D",
"_@	c #602348",
":@	c #6A1747",
"<@	c #671645",
"[@	c #641443",
"}@	c #59123B",
"|@	c #812458",
"1@	c #913568",
"2@	c #8B2F62",
"3@	c #BF3E86",
"4@	c #C63386",
"5@	c #C62F84",
"6@	c #C53084",
"7@	c #CB4D95",
"8@	c #C95396",
"9@	c #C45292",
"0@	c #BD4D8C",
"a@	c #A62970",
"b@	c #A33976",
"c@	c #A24A7D",
"d@	c #974775",
"e@	c #8B3F6C",
"f@	c #641F47",
"g@	c #410E2B",
"h@	c #631543",
"i@	c #4F1135",
"j@	c #923A6B",
"k@	c #A55080",
"l@	c #A84E80",
"m@	c #AA4D81",
"n@	c #A63D78",
"o@	c #A23170",
"p@	c #A03170",
"q@	c #9C3870",
"r@	c #913267",
"s@	c #943168",
"t@	c #AC4680",
"u@	c #B13C7F",
"v@	c #BB3C85",
"w@	c #CE4D96",
"x@	c #D6539E",
"y@	c #D14A97",
"z@	c #C7448F",
"A@	c #BA3A83",
"B@	c #A82771",
"C@	c #A73B79",
"D@	c #9F4277",
"E@	c #954071",
"F@	c #924572",
"G@	c #6E224F",
"H@	c #913669",
"I@	c #A34B7C",
"J@	c #A94F82",
"K@	c #A9427B",
"L@	c #AF2C76",
"M@	c #B92E7C",
"N@	c #C84991",
"O@	c #D1569C",
"P@	c #C2498E",
"Q@	c #AB3578",
"R@	c #932262",
"S@	c #7C1F54",
"T@	c #42122E",
"U@	c #56173C",
"V@	c #702551",
"W@	c #832F60",
"X@	c #993D73",
"Y@	c #AB4480",
"Z@	c #AF2B77",
"`@	c #AF2976",
" #	c #AB3A7B",
".#	c #9F3B75",
"+#	c #92346A",
"@#	c #923C6E",
"##	c #782454",
"$#	c #9B4876",
"%#	c #8F3366",
"&#	c #A3487B",
"*#	c #A84D81",
"=#	c #A02E6E",
"-#	c #A83475",
";#	c #B2387C",
">#	c #B8347E",
",#	c #C43E8A",
"'#	c #D2579D",
")#	c #D54998",
"!#	c #DC4B9D",
"~#	c #E1439C",
"{#	c #E13596",
"]#	c #D5338F",
"^#	c #9A2D6B",
"/#	c #360924",
"(#	c #4E1035",
"_#	c #611843",
":#	c #7C2E5B",
"<#	c #873063",
"[#	c #974172",
"}#	c #973E71",
"|#	c #812257",
"1#	c #BA7A9E",
"2#	c #D6AFC5",
"3#	c #8B3063",
"4#	c #A54D7E",
"5#	c #A85081",
"6#	c #A23A75",
"7#	c #9F2569",
"8#	c #AD377A",
"9#	c #C05691",
"0#	c #C24A8D",
"a#	c #CA4D94",
"b#	c #CD4693",
"c#	c #CF4292",
"d#	c #CE348B",
"e#	c #D03F91",
"f#	c #972566",
"g#	c #4D1A38",
"h#	c #6C2B50",
"i#	c #762553",
"j#	c #C288A9",
"k#	c #D7B0C6",
"l#	c #D8B2C7",
"m#	c #C894B1",
"n#	c #882B60",
"o#	c #A4487B",
"p#	c #A3467B",
"q#	c #AB4E82",
"r#	c #A9407B",
"s#	c #B14682",
"t#	c #BC538E",
"u#	c #C25693",
"v#	c #C65596",
"w#	c #C85596",
"x#	c #CB5899",
"y#	c #C43F8B",
"z#	c #711E4E",
"A#	c #8E3768",
"B#	c #BD7BA0",
"C#	c #C68EAD",
"D#	c #C992B1",
"E#	c #CB99B5",
"F#	c #C390AD",
"G#	c #B781A0",
"H#	c #862A5D",
"I#	c #A5487C",
"J#	c #A5487B",
"K#	c #AE5687",
"L#	c #AF5386",
"M#	c #A83978",
"N#	c #B75089",
"O#	c #B84D89",
"P#	c #BF5590",
"Q#	c #BF5491",
"R#	c #BC4B8C",
"S#	c #5F1B42",
"T#	c #923267",
"U#	c #B56892",
"V#	c #B97199",
"W#	c #BC779D",
"X#	c #BB7A9F",
"Y#	c #B77C9E",
"Z#	c #AF7798",
"`#	c #A86F91",
" $	c #935278",
".$	c #8D3D6A",
"+$	c #BF7BA0",
"@$	c #BC769D",
"#$	c #BB749B",
"$$	c #B4618F",
"%$	c #AE4E83",
"&$	c #AC447E",
"*$	c #B04682",
"=$	c #B8538C",
"-$	c #B8538D",
";$	c #B8508B",
">$	c #9C3C71",
",$	c #9F3A73",
"'$	c #9B316C",
")$	c #A03B73",
"!$	c #A65281",
"~$	c #A9648B",
"{$	c #A36489",
"]$	c #A2678A",
"^$	c #894D70",
"/$	c #893C67",
"($	c #C483A7",
"_$	c #C88BAD",
":$	c #C07EA2",
"<$	c #BC7A9F",
"[$	c #B86F98",
"}$	c #B66794",
"|$	c #B45C8D",
"1$	c #B25489",
"2$	c #B3548A",
"3$	c #B24E87",
"4$	c #A93577",
"5$	c #9F2C6E",
"6$	c #A4467B",
"7$	c #AC5485",
"8$	c #AC5384",
"9$	c #A94C80",
"0$	c #932C66",
"a$	c #86275E",
"b$	c #8F436F",
"c$	c #904C73",
"d$	c #6F2F55",
"e$	c #CA8DAF",
"f$	c #C385A8",
"g$	c #BB7CA0",
"h$	c #BA7CA0",
"i$	c #B47197",
"j$	c #B46E95",
"k$	c #B66B95",
"l$	c #B25D8D",
"m$	c #AA477F",
"n$	c #A43473",
"o$	c #A43372",
"p$	c #A33171",
"q$	c #992E6B",
"r$	c #A03972",
"s$	c #AD5084",
"t$	c #AE5486",
"u$	c #A85282",
"v$	c #974473",
"w$	c #7D2558",
"x$	c #752455",
"y$	c #65264C",
"z$	c #843F66",
"A$	c #CD98B6",
"B$	c #C793B1",
"C$	c #BD85A5",
"D$	c #B67B9D",
"E$	c #AF7095",
"F$	c #A9628B",
"G$	c #A95A87",
"H$	c #A64F80",
"I$	c #A6457B",
"J$	c #9F2D6D",
"K$	c #9F2E6E",
"L$	c #A13371",
"M$	c #9E326E",
"N$	c #9D2B6B",
"O$	c #9E2E6D",
"P$	c #AA4A80",
"Q$	c #A85384",
"R$	c #9D4F7C",
"S$	c #924773",
"T$	c #742152",
"U$	c #53143A",
"V$	c #D1A3BD",
"W$	c #CCA3BA",
"X$	c #C498B1",
"Y$	c #A97191",
"Z$	c #A3668B",
"`$	c #B07497",
" %	c #AE6B91",
".%	c #AC608B",
"+%	c #A95484",
"@%	c #A6427B",
"#%	c #9E2F6E",
"$%	c #9D2C6C",
"%%	c #9D2D6B",
"&%	c #962D67",
"*%	c #A23572",
"=%	c #A33774",
"-%	c #A8417B",
";%	c #A8437B",
">%	c #9E3D74",
",%	c #90376A",
"'%	c #893A68",
")%	c #7D315E",
"!%	c #461332",
"~%	c #D1AAC1",
"{%	c #D5B4C7",
"]%	c #B487A1",
"^%	c #40172F",
"/%	c #441330",
"(%	c #AC7495",
"_%	c #B4799B",
":%	c #B57499",
"<%	c #AF628E",
"[%	c #AE5889",
"}%	c #AE5688",
"|%	c #A7427B",
"1%	c #9E2F6D",
"2%	c #972B68",
"3%	c #A73C78",
"4%	c #A53875",
"5%	c #A63A76",
"6%	c #A43976",
"7%	c #98336C",
"8%	c #8D3468",
"9%	c #883867",
"0%	c #762956",
"a%	c #43122F",
"b%	c #D2AAC1",
"c%	c #AE849D",
"d%	c #622E4D",
"e%	c #B27A9B",
"f%	c #BA81A2",
"g%	c #B67298",
"h%	c #B36792",
"i%	c #B3618E",
"j%	c #B05889",
"k%	c #AA467E",
"l%	c #A33270",
"m%	c #A32F70",
"n%	c #A02F6E",
"o%	c #9C2E6B",
"p%	c #A43070",
"q%	c #A23270",
"r%	c #96316B",
"s%	c #872A60",
"t%	c #7B2256",
"u%	c #6D204E",
"v%	c #9A5C80",
"w%	c #7A4163",
"x%	c #C08CAA",
"y%	c #BB81A3",
"z%	c #B9769C",
"A%	c #B76C97",
"B%	c #B56391",
"C%	c #B3598C",
"D%	c #B04C84",
"E%	c #A53273",
"F%	c #A53072",
"G%	c #A1306F",
"H%	c #962D68",
"I%	c #A22F70",
"J%	c #A53172",
"K%	c #A02F6F",
"L%	c #912965",
"M%	c #83235C",
"N%	c #781F55",
"O%	c #671A49",
"P%	c #905077",
"Q%	c #C593B0",
"R%	c #BF86A7",
"S%	c #BD7CA1",
"T%	c #BA719A",
"U%	c #B86795",
"V%	c #B75E90",
"W%	c #B45289",
"X%	c #A93877",
"Y%	c #A63273",
"Z%	c #A73274",
"`%	c #A73273",
" &	c #9F2F6E",
".&	c #902863",
"+&	c #83235B",
"@&	c #791F55",
"#&	c #995D80",
"$&	c #C897B4",
"%&	c #C38BAB",
"&&	c #BE80A4",
"*&	c #BC759D",
"=&	c #B96B98",
"-&	c #B96393",
";&	c #B6568C",
">&	c #AC3F7C",
",&	c #A83174",
"'&	c #A83274",
")&	c #8C2862",
"!&	c #81235B",
"~&	c #781F54",
"{&	c #5B1840",
"]&	c #A77090",
"^&	c #CA9DB7",
"/&	c #C48FAE",
"(&	c #BF84A6",
"_&	c #BC789F",
":&	c #B96F98",
"<&	c #B66593",
"[&	c #B45A8D",
"}&	c #AB477F",
"|&	c #9F306E",
"1&	c #992C6A",
"2&	c #88265F",
"3&	c #7F2258",
"4&	c #53163A",
"5&	c #BA89A6",
"6&	c #CBA2BA",
"7&	c #C493B0",
"8&	c #BF88A8",
"9&	c #BA7CA1",
"0&	c #B57098",
"a&	c #B06690",
"b&	c #AA5B89",
"c&	c #9F4B7C",
"d&	c #8E3168",
"e&	c #83265D",
"f&	c #7C2258",
"g&	c #751F53",
"h&	c #4F1437",
"i&	c #B17E9C",
"j&	c #CDA5BD",
"k&	c #C69BB5",
"l&	c #BD8CA9",
"m&	c #B67D9F",
"n&	c #AF7296",
"o&	c #A7658D",
"p&	c #A05B84",
"q&	c #98517B",
"r&	c #873767",
"s&	c #681F4B",
"t&	c #884D70",
"u&	c #B684A2",
"v&	c #C296B0",
"w&	c #BF92AD",
"x&	c #AB7194",
"y&	c #96547C",
"z&	c #75325B",
"A&	c #3F162F",
"B&	c #5A2043",
"C&	c #64294E",
"D&	c #62274B",
"E&	c #491333",
"                                                                                                ",
"                                                                                                ",
"                                                                                                ",
"                                                                                                ",
"                                      . + @ # $ %                                               ",
"                                  & * = - ; ; > , '                                             ",
"                              ) ! , ~ { ] , ^ / ( _ :                                           ",
"                            < [ } | 1 2 3 * 4 5 6 ] 7 8                                         ",
"                          9 0 8 a b c d e f g 1 h 3 i j k                                       ",
"                        l m n o p q r s t u v w d x y g z A                                     ",
"                    B C D E F G H I J K L I M N O P Q b R S T                                   ",
"                  U V W X Y Z `  ...+.    @.#.$.%.&.*.=.-.;.>.,.        '.).                    ",
"                !.~.{.].^./.(._.:.          <.[.}.|.1.2.3.4.5.6.7.    8.9.0.                    ",
"              a.b.c.d.e.f.g.h.i.              j.k.l.m.n.E o.p.5.q.B r.s.t.u.                    ",
"            v.w.x.y.z.A.B.C.D.                  E.F.G.H.I.J.K.L.M.p.M.N.O.P.                    ",
"          Q.R.S.T.U.V.W.X.Y.                      Z.`. +.+++@+#+$+%+&+*+=+-+                    ",
"        ;+>+,+'+)+!+~+{+]+                        ^+/+(+_+:+<+[+}+|+1+2+3+4+                    ",
"    5+6+7+8+9+0+a+b+c+d+                            e+f+g+h+i+j+k+l+m+n+o+p+                    ",
"  q+r+s+t+u+v+w+x+y+z+                                A+B+C+D+E+F+G+H+I+J+K+L+                  ",
"  M+N+O+P+Q+R+S+T+                                    U+V+W+X+Y+Z+`+ @.@+@@@#@                  ",
"    $@%@&@*@=@-@                                    ;@>@,@'@)@!@~@{@]@^@/@(@_@                  ",
"      :@<@[@}@    |@1@2@                          3@4@5@6@7@8@9@0@a@b@c@d@e@f@                  ",
"      g@h@i@      j@k@l@m@n@o@p@q@r@            s@t@u@v@w@x@y@z@A@B@C@D@E@F@G@                  ",
"                  H@I@J@K@Z+L@M@N@O@O@P@Q@R@S@      T@U@V@W@X@Y@Z@`@ #.#+#@###        $#        ",
"                  %#&#*#=#-#;#>#,#'#)#!#~#{#]#^#              /#(#_#:#<#[#}#|#      1#2#        ",
"                  3#4#5#6#7#8#9#0#a#b#c#d#e#f#                          g#h#i#    j#k#l#m#      ",
"                  n#o#p#q#r#s#t#u#v#w#x#y#z#                                  A#B#C#D#E#F#G#    ",
"                  H#I#J#K#L#M#N#O#P#Q#R#S#                                  T#U#V#W#X#Y#Z#`# $  ",
"                  .$+$@$#$$$%$&$*$=$-$;$p@                                >$,$'$)$!$~${$]$^$    ",
"                  /$($_$:$<$[$}$|$1$2$3$4$5$                            6$7$8$9$0$a$b$c$d$      ",
"                  !.e$f$g$h$i$j$k$l$m$n$o$p$q$                        r$s$t$t$u$v$w$x$y$        ",
"                  z$A$B$C$D$E$F$G$H$I$j+J$K$L$                      M$N$O$P$Q$R$S$T$U$          ",
"                    V$W$X$Y$Z$`$ %.%+%9$@%#%$%%%                &%*%=%-%;%>%,%'%)%!%            ",
"                    ~%{%]%^%/%(%_%:%<%[%}%|%1%J$=#            2%3%4%5%6%7%8%9%0%a%              ",
"                    b%c%      d%e%f%g%h%i%j%k%l%m%n%        o%m%m%p%q%r%s%t%u%                  ",
"                    v%          w%x%y%z%A%B%C%D%E%F%G%  H%I%J%J%J%K%L%M%N%O%                    ",
"                                  P%Q%R%S%T%U%V%W%X%Y%Z%`%Y%Y%J% &.&+&@&O%                      ",
"                                    #&$&%&&&*&=&-&;&>&,&'&`%p$^#)&!&~&{&                        ",
"                                      ]&^&/&(&_&:&<&[&}&|&1&L%2&3&~&4&                          ",
"                                        5&6&7&8&9&0&a&b&c&d&e&f&g&h&                            ",
"                                          i&j&k&l&m&n&o&p&q&r&s&                                ",
"                                            t&u&v&w&u&x&y&z&A&                                  ",
"                                                B&C&D&E&                                        ",
"                                                                                                ",
"                                                                                                ",
"                                                                                                ",
"                                                                                                ",
"                                                                                                "};
