/* XPM */
static char * gv_xpm[] = {
"48 48 53 1",
" 	c None",
".	c #FF0000",
"+	c #FFFFFF",
"@	c #EFEFEF",
"#	c #F7F7F7",
"$	c #E7E7E7",
"%	c #C6C6C6",
"&	c #9C9C9C",
"*	c #7B7B7B",
"=	c #636363",
"-	c #424242",
";	c #212121",
">	c #292929",
",	c #4A4A4A",
"'	c #737373",
")	c #8C8C8C",
"!	c #B5B5B5",
"~	c #BDBDBD",
"{	c #181818",
"]	c #393939",
"^	c #D6D6D6",
"/	c #DEDEDE",
"(	c #6B6B6B",
"_	c #313131",
":	c #A5A5A5",
"<	c #ADADAD",
"[	c #CECECE",
"}	c #848484",
"|	c #5A5A5A",
"1	c #525252",
"2	c #949494",
"3	c #E7EFF7",
"4	c #D6DEEF",
"5	c #7394BD",
"6	c #185294",
"7	c #94B5CE",
"8	c #5A84B5",
"9	c #185A94",
"0	c #29639C",
"a	c #295A9C",
"b	c #215A94",
"c	c #3973A5",
"d	c #C6D6E7",
"e	c #638CB5",
"f	c #8CA5C6",
"g	c #527BAD",
"h	c #EFF7F7",
"i	c #8CADC6",
"j	c #84A5C6",
"k	c #7B9CC6",
"l	c #4273AD",
"m	c #BDCEDE",
"n	c #7BA5C6",
"                            +)++                ",
"                            #$%,@               ",
"                             ;*+{'+             ",
"                       ++++++;1+]{^             ",
"                +++#@@/~!~&'];~+1;'             ",
"            ++}-;;;;;;;;;;{])+++>;;             ",
"           +[|{;;;;;;;;{;_!@++++;;;             ",
"          +};;;;;;;;;{>&%#+++++&;;>+            ",
"        +@,;;;;;;;>&+++++++++,{;;;;,@+          ",
"        +=;;;;;;;|/+++++++++&;;;;;;{1#          ",
"        :{;;;;;;{#++++++++#({;;;;;;;{}          ",
"       +{;;;;;;{[++h#+mk++*;;;;;;;;;;;+         ",
"       +;;;;;;;>@++i3+k7++);;;;;;;;;;;+         ",
"       +;;;;;;;-#++83+mn++$>;;;;;;;;;;+         ",
"       +;;;;;;;_@++3b3+h++++%;;;;;;;;;+         ",
"       +;;;;;;;{~+++3#+++++++-;;;;;;;{+         ",
"       +{;;;;;;;1++++++++++++@={;;;;;_+         ",
"        ^;;;;;;;;&+++++c9b+++++~;;;;-#          ",
"        +<;;;;;;;{*@+++4ab+++++@;;;_[+          ",
"         +:;;;;;;;;-++++89+++++^;;;/+           ",
"           +:_;;;;;;{[++34+++#*{]!+             ",
"           ++#];;;;;;)+++++++,{,#+              ",
"          +$:1;;;;;;;[++++@~=2[++               ",
"        ^|;;;;;;,&[$++++++++++                  ",
"       +;;;;;;-[#+++++++++++                    ",
"      +~;;;;;;)++++++++++++                     ",
"     +){;;;;;;;{>}<[$#@#++++++++                ",
"     +1;;;;;;;;;;;{;>]],|==')~[/+++             ",
"     +-;;;;;;;;;;;;;;;;;;;{;{{;;|&^++           ",
"     +<{;;;;;;;;;;;;;;;;;;;;;;;;;;;;{-++        ",
"     +#_;;;;;;;;;;;;;;;;;;;;;;;;;;;;;;|$+       ",
"      +%;;;;;;;;;;;;;;;;;;;;;;;;;;;;;;;_%       ",
"        @&-;;;;;;;;;;;;;;;;;;;;;;;;;;;;;;$+     ",
"        ++#21_{{;;;;;;;;;;;;;;;;;;;;;;;;;)+     ",
"          ++++%!)|1111_>>>{{{;;;;;;;;;;;;,++    ",
"     +#%1]-]1'+++++++++++++++++$|;;;;;;;;]++    ",
"     [-{;;;>)/+++++++++++++++++++:;;;;;;;-++    ",
"    +>;;;;;[++++++@<(&<#++++++++++,;;;;;;)++    ",
"    +;;;;;>++++++1{_++++++++++++#){;;;;;;+++    ",
"    +;;;;;_++++++,;{[#++++++++#@,{;;;;;;2%++    ",
"    +;;;;;;++++++2;;{](&:%!&:(->;;;;;;]%+}+     ",
"    +>;;;;;_~++++++$,>{;;;;;;;;;{{>)[#%,,+      ",
"     %>;;;;;{,+++++++#^))|,,1,,|:%@+$&{|@       ",
"     +%>;;;;;;_'~#++++++++++++++#$~,{{<++       ",
"       +/(_;;;;;;;;;{{{;{;{;{{;;;{;:$+          ",
"        ++@',;{{;;;;;;;;;;;;;;{;=&^++           ",
"           +#$&*=-;;>;;;;;>-,)!$+++             ",
"                                                "};
