/* XPM */
static char * help_xpm[] = {
"48 48 941 2",
"  	c None",
". 	c #E9B96F",
"+ 	c #EBBF7B",
"@ 	c #EABB71",
"# 	c #E9B96E",
"$ 	c #F2D7AD",
"% 	c #FEFBF7",
"& 	c #FCF7EF",
"* 	c #F3D9AF",
"= 	c #EABD75",
"- 	c #D6D9D1",
"; 	c #D5D8D1",
"> 	c #D5D8D0",
", 	c #D2D5CE",
"' 	c #D2D6CE",
") 	c #D1D5CD",
"! 	c #D0D4CD",
"~ 	c #EABA6E",
"{ 	c #EBBE78",
"] 	c #FDFAF4",
"^ 	c #ECC383",
"/ 	c #EDC689",
"( 	c #F8E8CF",
"_ 	c #FBF2E3",
": 	c #E9B872",
"< 	c #C79687",
"[ 	c #D5D9D2",
"} 	c #E3E6E1",
"| 	c #EDEEEB",
"1 	c #F0F2F0",
"2 	c #F3F4F3",
"3 	c #F6F6F4",
"4 	c #F3F3F2",
"5 	c #EFF0EE",
"6 	c #EBEBE8",
"7 	c #DEE0DC",
"8 	c #CDD1C9",
"9 	c #CCCFC8",
"0 	c #BE8884",
"a 	c #EFCB94",
"b 	c #F5E1C0",
"c 	c #F9EDD9",
"d 	c #F4DCB7",
"e 	c #EEC990",
"f 	c #E9BA70",
"g 	c #F6E1C1",
"h 	c #F6E2C3",
"i 	c #D59B8D",
"j 	c #AC1918",
"k 	c #C85A59",
"l 	c #F0F1EF",
"m 	c #F7F8F6",
"n 	c #F8F9F8",
"o 	c #FAFAF9",
"p 	c #FAFBFA",
"q 	c #FBFCFB",
"r 	c #FAFBF9",
"s 	c #F9F9F8",
"t 	c #F6F7F6",
"u 	c #F5F6F3",
"v 	c #ECEDEA",
"w 	c #C5504F",
"x 	c #AB1716",
"y 	c #D49E98",
"z 	c #FAF0E0",
"A 	c #F4DBB4",
"B 	c #EFCE99",
"C 	c #F5DEBB",
"D 	c #FBF4E8",
"E 	c #F8E9D1",
"F 	c #EABA70",
"G 	c #EBBF7A",
"H 	c #F6E4C6",
"I 	c #FBF3E6",
"J 	c #EBC079",
"K 	c #B22C2A",
"L 	c #BA2D2C",
"M 	c #EA7C7C",
"N 	c #F8A8A8",
"O 	c #FAF2F2",
"P 	c #FCFCFC",
"Q 	c #FDFDFD",
"R 	c #FCFCFB",
"S 	c #FBFBFB",
"T 	c #FBFBFA",
"U 	c #F8EBEA",
"V 	c #F79999",
"W 	c #E76E6E",
"X 	c #B82525",
"Y 	c #AF2D29",
"Z 	c #D89968",
"` 	c #EAB96F",
" .	c #EABB72",
"..	c #F9EBD5",
"+.	c #F6E3C4",
"@.	c #EBC07C",
"#.	c #F5E0BE",
"$.	c #F6E1C0",
"%.	c #EABD76",
"&.	c #AB1615",
"*.	c #DB5C5C",
"=.	c #F8A1A1",
"-.	c #FAC1C1",
";.	c #FDE1E1",
">.	c #FDEAEA",
",.	c #FCFDFC",
"'.	c #F9FAF9",
").	c #F8F8F7",
"!.	c #F7F8F7",
"~.	c #FBD5D5",
"{.	c #FCD4D4",
"].	c #F9B3B3",
"^.	c #F69090",
"/.	c #D85151",
"(.	c #AA1212",
"_.	c #FEFBF6",
":.	c #EABC74",
"<.	c #EABB73",
"[.	c #FDFAF5",
"}.	c #B65854",
"|.	c #AB1414",
"1.	c #E77272",
"2.	c #F9ADAD",
"3.	c #FCDBDB",
"4.	c #FDE4E4",
"5.	c #FDE6E6",
"6.	c #FDE5E5",
"7.	c #FAF0F0",
"8.	c #F4F5F3",
"9.	c #EFF0EF",
"0.	c #EBECE9",
"a.	c #EAEBE9",
"b.	c #EBEDEA",
"c.	c #EEEFED",
"d.	c #F2F3F1",
"e.	c #F6D4D4",
"f.	c #F9B6B6",
"g.	c #FABDBD",
"h.	c #FCCECE",
"i.	c #FBCECE",
"j.	c #F89E9E",
"k.	c #E56262",
"l.	c #A91111",
"m.	c #AB4D4B",
"n.	c #E9B86E",
"o.	c #F8E8D0",
"p.	c #F2D5A8",
"q.	c #EBC07D",
"r.	c #FCF5EB",
"s.	c #ECC382",
"t.	c #AE1818",
"u.	c #ED7E7E",
"v.	c #FAB4B4",
"w.	c #FDE3E3",
"x.	c #FBD6D6",
"y.	c #F8B9B9",
"z.	c #F0A2A2",
"A.	c #E7E8E5",
"B.	c #E0E2DF",
"C.	c #D9DBD9",
"D.	c #D8D9D6",
"E.	c #D6D8D4",
"F.	c #D7D9D5",
"G.	c #D8D9D8",
"H.	c #DCDEDA",
"I.	c #E1E3DE",
"J.	c #E7E1DE",
"K.	c #F17F7F",
"L.	c #F69191",
"M.	c #F8A5A5",
"N.	c #F9B1B1",
"O.	c #FBD2D2",
"P.	c #F9A5A5",
"Q.	c #EB6F6F",
"R.	c #AB1313",
"S.	c #EEC88D",
"T.	c #FDF8F1",
"U.	c #EAB96E",
"V.	c #E8B96E",
"W.	c #E97373",
"X.	c #FAB6B6",
"Y.	c #FDDFDF",
"Z.	c #FCDCDC",
"`.	c #F9C2C2",
" +	c #F39595",
".+	c #E96B6B",
"++	c #DC4F4F",
"@+	c #CEB9B8",
"#+	c #C9CBC7",
"$+	c #C5C8C4",
"%+	c #C7C9C5",
"&+	c #C8CAC6",
"*+	c #CACCC7",
"=+	c #CACCC8",
"-+	c #CBCDC9",
";+	c #CED0CD",
">+	c #D69E9B",
",+	c #E44E4E",
"'+	c #EB5F5F",
")+	c #F27A7A",
"!+	c #F69393",
"~+	c #F8A7A7",
"{+	c #FAB9B9",
"]+	c #FBD1D1",
"^+	c #F9A8A8",
"/+	c #E76464",
"(+	c #A91010",
"_+	c #E9B86D",
":+	c #EFCC96",
"<+	c #FDF9F2",
"[+	c #F3D8AE",
"}+	c #F5DEBA",
"|+	c #AF2423",
"1+	c #DB5757",
"2+	c #F8ABAB",
"3+	c #FCD9D9",
"4+	c #FCD2D2",
"5+	c #F7B3B3",
"6+	c #EF8181",
"7+	c #E25757",
"8+	c #D34141",
"9+	c #C83737",
"0+	c #C38180",
"a+	c #C3C5C2",
"b+	c #CFD0CD",
"c+	c #CFD1CD",
"d+	c #CECFCC",
"e+	c #CDCECB",
"f+	c #D06261",
"g+	c #D73F3F",
"h+	c #DF4747",
"i+	c #E95656",
"j+	c #F06E6E",
"k+	c #F58B8B",
"l+	c #F8A0A0",
"m+	c #FCD1D1",
"n+	c #F89C9C",
"o+	c #D94C4C",
"p+	c #AA1F1E",
"q+	c #ECC282",
"r+	c #ECC384",
"s+	c #F3D9B1",
"t+	c #F2D5A9",
"u+	c #F3DAB2",
"v+	c #C57464",
"w+	c #C33636",
"x+	c #FCD8D8",
"y+	c #FCD6D6",
"z+	c #FBCBCB",
"A+	c #F6AAAA",
"B+	c #EB7676",
"C+	c #DB5050",
"D+	c #CD3E3E",
"E+	c #C43636",
"F+	c #C63232",
"G+	c #CE5655",
"H+	c #D3D5D1",
"I+	c #D8DAD7",
"J+	c #DDDEDB",
"K+	c #E0E2DE",
"L+	c #E0E2DD",
"M+	c #DEE1DC",
"N+	c #DADBD8",
"O+	c #D7D7D2",
"P+	c #D93838",
"Q+	c #D63A3A",
"R+	c #D64242",
"S+	c #DD4949",
"T+	c #E65454",
"U+	c #EF6C6C",
"V+	c #F58686",
"W+	c #F68E8E",
"X+	c #C02E2E",
"Y+	c #AA4340",
"Z+	c #EABD77",
"`+	c #FEFDFC",
" @	c #EBBE79",
".@	c #E8BA6D",
"+@	c #EDC68A",
"@@	c #EED1B0",
"#@	c #AA1110",
"$@	c #EF7E7E",
"%@	c #FBC6C6",
"&@	c #FCD5D5",
"*@	c #FBC8C8",
"=@	c #EC7777",
"-@	c #C83E3E",
";@	c #C33737",
">@	c #C83131",
",@	c #D62C2C",
"'@	c #E44040",
")@	c #E5DFDB",
"!@	c #E4E7E2",
"~@	c #D2D5CF",
"{@	c #DCDFDB",
"]@	c #E4E6E2",
"^@	c #E7D1CE",
"/@	c #E84343",
"(@	c #E03131",
"_@	c #D93A3A",
":@	c #D84545",
"<@	c #DC4C4C",
"[@	c #E75858",
"}@	c #F06C6C",
"|@	c #F58484",
"1@	c #F79A9A",
"2@	c #FABABA",
"3@	c #ED6F6F",
"4@	c #A90E0E",
"5@	c #DDA86B",
"6@	c #F8EAD3",
"7@	c #F8EAD4",
"8@	c #E9BA6E",
"9@	c #B75146",
"0@	c #CB4141",
"a@	c #F8A2A2",
"b@	c #FDDDDD",
"c@	c #F8B0B0",
"d@	c #F18080",
"e@	c #E15757",
"f@	c #CC4343",
"g@	c #C43A3A",
"h@	c #CC3131",
"i@	c #DC3131",
"j@	c #E94B4B",
"k@	c #DA4343",
"l@	c #B44443",
"m@	c #BABEB7",
"n@	c #BCC0B9",
"o@	c #B9BCB5",
"p@	c #B7BAB4",
"q@	c #B34341",
"r@	c #DD4A4A",
"s@	c #ED5656",
"t@	c #E63535",
"u@	c #DD3A3A",
"v@	c #DA4949",
"w@	c #DE5252",
"x@	c #E95D5D",
"y@	c #F26F6F",
"z@	c #F68888",
"A@	c #F69292",
"B@	c #C93939",
"C@	c #B85D54",
"D@	c #FDF8F0",
"E@	c #F7E6CB",
"F@	c #B55450",
"G@	c #EEBBBA",
"H@	c #FADFDE",
"I@	c #FBDBDA",
"J@	c #F9B9B9",
"K@	c #F49292",
"L@	c #E86363",
"M@	c #D54A4A",
"N@	c #C73F3F",
"O@	c #CE3535",
"P@	c #DF3838",
"Q@	c #E95454",
"R@	c #C42F2F",
"S@	c #A91414",
"T@	c #A91413",
"U@	c #C63433",
"V@	c #ED6161",
"W@	c #E83F3F",
"X@	c #DE3F3F",
"Y@	c #DD5151",
"Z@	c #E45A5A",
"`@	c #EE6565",
" #	c #F47878",
".#	c #F68D8D",
"+#	c #F8C5C4",
"@#	c #F7DBDA",
"##	c #E7B3B0",
"$#	c #AB4C48",
"%#	c #E8C286",
"&#	c #D0D3CC",
"*#	c #F3F4F2",
"=#	c #F7F7F6",
"-#	c #F3EEEC",
";#	c #EBB6B5",
">#	c #DD5D5C",
",#	c #CC4848",
"'#	c #CC3C3C",
")#	c #DC3232",
"!#	c #B11A19",
"~#	c #AC3432",
"{#	c #AB3230",
"]#	c #B31D1D",
"^#	c #EF6666",
"/#	c #E63737",
"(#	c #DF4A4A",
"_#	c #E05A5A",
":#	c #E96464",
"<#	c #ED9F9E",
"[#	c #ECE1DE",
"}#	c #EEEFEC",
"|#	c #ECEEEA",
"1#	c #BCBCB6",
"2#	c #C0C5BF",
"3#	c #E1E3DF",
"4#	c #F6F7F4",
"5#	c #F5F6F4",
"6#	c #E0E3DF",
"7#	c #CEBEBA",
"8#	c #CB6161",
"9#	c #D83535",
"0#	c #CB3838",
"a#	c #AB2F2D",
"b#	c #A92C2B",
"c#	c #CE4242",
"d#	c #EE5959",
"e#	c #E53E3E",
"f#	c #E06666",
"g#	c #DDBBB8",
"h#	c #E4E4E1",
"i#	c #E9EAE6",
"j#	c #EBEDE9",
"k#	c #F0F2EE",
"l#	c #D1D3CF",
"m#	c #A7ABA3",
"n#	c #BFC3BB",
"o#	c #EDEEEA",
"p#	c #F6F7F5",
"q#	c #D9DAD8",
"r#	c #C9CCC8",
"s#	c #CBCAC7",
"t#	c #E08785",
"u#	c #E35454",
"v#	c #A90F0E",
"w#	c #A80F0F",
"x#	c #E76666",
"y#	c #E58281",
"z#	c #D7D1CB",
"A#	c #D9DAD7",
"B#	c #E6E9E4",
"C#	c #E9EBE7",
"D#	c #F5F5F3",
"E#	c #E2E4E0",
"F#	c #A2A59F",
"G#	c #C0C3BD",
"H#	c #F1F1EF",
"I#	c #F0F2EF",
"J#	c #E6E8E4",
"K#	c #D4D6D3",
"L#	c #E2E3DF",
"M#	c #BA5755",
"N#	c #A95450",
"O#	c #A54D4B",
"P#	c #BA5958",
"Q#	c #D7DAD4",
"R#	c #DFE1DC",
"S#	c #E4E7E3",
"T#	c #E7E9E5",
"U#	c #EAECE8",
"V#	c #E8EBE6",
"W#	c #A5A8A2",
"X#	c #C6C9C3",
"Y#	c #FAFAFA",
"Z#	c #EEF0EC",
"`#	c #E4E5E2",
" $	c #D2D4D1",
".$	c #D6D8D3",
"+$	c #E5E7E3",
"@$	c #B5B7B1",
"#$	c #A9ACA6",
"$$	c #E7E9E4",
"%$	c #D7DBD4",
"&$	c #D9DBD7",
"*$	c #E7E8E4",
"=$	c #E8EAE6",
"-$	c #AEB0AA",
";$	c #CCCFCB",
">$	c #F1F2F0",
",$	c #EDEFEB",
"'$	c #D1D3D0",
")$	c #D9DCD7",
"!$	c #B1B4AD",
"~$	c #A4A8A2",
"{$	c #DADDD7",
"]$	c #DADDD8",
"^$	c #DFE1DD",
"/$	c #E8EBE7",
"($	c #B4B8B1",
"_$	c #F1F2EF",
":$	c #F7F7F5",
"<$	c #EAEBE8",
"[$	c #D2D4D0",
"}$	c #DCDFD9",
"|$	c #B0B3AB",
"1$	c #A3A49F",
"2$	c #D7D9D4",
"3$	c #DCE0DA",
"4$	c #DCDFDA",
"5$	c #E3E6E2",
"6$	c #E2E5E1",
"7$	c #E3E6E0",
"8$	c #D0D2CC",
"9$	c #E3E5E1",
"0$	c #D5D7D2",
"a$	c #DDE0DB",
"b$	c #D3D5D0",
"c$	c #ACAFA8",
"d$	c #9FA29C",
"e$	c #DEE1DB",
"f$	c #DDE0DA",
"g$	c #E3E4E0",
"h$	c #E1E4DE",
"i$	c #EFF0ED",
"j$	c #E8EAE5",
"k$	c #BFC1BB",
"l$	c #C9CCC6",
"m$	c #F5F6F5",
"n$	c #DBDED8",
"o$	c #DDDFDA",
"p$	c #ABAEA7",
"q$	c #9FA19B",
"r$	c #E0E1DD",
"s$	c #E5E8E3",
"t$	c #E5E8E4",
"u$	c #E0E3DE",
"v$	c #B5B7B2",
"w$	c #C0C1BC",
"x$	c #D9DBD6",
"y$	c #E6E8E3",
"z$	c #A8ABA5",
"A$	c #9C9E9A",
"B$	c #D8DCD6",
"C$	c #E3E5E0",
"D$	c #E6E9E5",
"E$	c #E1E4DF",
"F$	c #A7AAA4",
"G$	c #B4B7B2",
"H$	c #F7F7F7",
"I$	c #E6E7E4",
"J$	c #E5E7E2",
"K$	c #E5E6E3",
"L$	c #B0817D",
"M$	c #AC807D",
"N$	c #E7E9E6",
"O$	c #DBDDD8",
"P$	c #D9DCD6",
"Q$	c #9C9E98",
"R$	c #A9ACA5",
"S$	c #E4E6E3",
"T$	c #E3CBC9",
"U$	c #E49E9B",
"V$	c #EC7F7D",
"W$	c #D85959",
"X$	c #A82524",
"Y$	c #A62322",
"Z$	c #DD6F6F",
"`$	c #EF8F8E",
" %	c #E9AAA7",
".%	c #EDDCD9",
"+%	c #8C8E89",
"@%	c #D5D7D3",
"#%	c #EDEEEC",
"$%	c #EBECEA",
"%%	c #E0D6D2",
"&%	c #EAA19F",
"*%	c #F28787",
"=%	c #F08686",
"-%	c #EF7272",
";%	c #EE4747",
">%	c #F37B7B",
",%	c #BC2E2E",
"'%	c #A5413E",
")%	c #A03E3A",
"!%	c #BF3938",
"~%	c #F79797",
"{%	c #F25151",
"]%	c #F7A3A3",
"^%	c #E99997",
"/%	c #D7C8C4",
"(%	c #C7C9C4",
"_%	c #8F928D",
":%	c #BFC2BC",
"<%	c #F2D9D8",
"[%	c #ED6B6B",
"}%	c #EF5E5E",
"|%	c #F27878",
"1%	c #F38989",
"2%	c #F16666",
"3%	c #F14F4F",
"4%	c #EE7E7E",
"5%	c #AA100F",
"6%	c #AB1212",
"7%	c #F29C9C",
"8%	c #F25C5C",
"9%	c #F57A7A",
"0%	c #F9A9A9",
"a%	c #F8ADAD",
"b%	c #F68C8C",
"c%	c #ED5555",
"d%	c #E75655",
"e%	c #F0D0CF",
"f%	c #ACAEAA",
"g%	c #A7807C",
"h%	c #EA9E9D",
"i%	c #F6BEBE",
"j%	c #ED7F7F",
"k%	c #EC5656",
"l%	c #F06262",
"m%	c #F58383",
"n%	c #F15555",
"o%	c #F46C6C",
"p%	c #E87575",
"q%	c #AD1717",
"r%	c #A13534",
"s%	c #9F3431",
"t%	c #AF1B1B",
"u%	c #EC9090",
"v%	c #F68181",
"w%	c #F36464",
"x%	c #F8A4A4",
"y%	c #F9B5B5",
"z%	c #F7A1A1",
"A%	c #F06666",
"B%	c #E84444",
"C%	c #E96F6F",
"D%	c #F4B9B9",
"E%	c #E58D8C",
"F%	c #966C69",
"G%	c #AA2D28",
"H%	c #D54747",
"I%	c #F19292",
"J%	c #F4B1B1",
"K%	c #E95959",
"L%	c #EC4F4F",
"M%	c #F27070",
"N%	c #F68F8F",
"O%	c #F79696",
"P%	c #F57E7E",
"Q%	c #F25050",
"R%	c #F46464",
"S%	c #F39090",
"T%	c #C43E3E",
"U%	c #A32A29",
"V%	c #969892",
"W%	c #90928E",
"X%	c #C84A4A",
"Y%	c #F6AFAF",
"Z%	c #F57676",
"`%	c #F35D5D",
" &	c #FABBBB",
".&	c #F9B2B2",
"+&	c #F38080",
"@&	c #E94545",
"#&	c #E34646",
"$&	c #F1AAAA",
"%&	c #EE8A8A",
"&&	c #A42421",
"*&	c #DBB9B4",
"=&	c #A81212",
"-&	c #EB7070",
";&	c #F5B8B8",
">&	c #EB8080",
",&	c #E74A4A",
"'&	c #ED5454",
")&	c #F48080",
"!&	c #F68484",
"~&	c #F35F5F",
"{&	c #F3A4A3",
"]&	c #DBD0CC",
"^&	c #CCCEC9",
"/&	c #B7B8B3",
"(&	c #9C9E99",
"_&	c #9B9D99",
":&	c #B6B8B4",
"<&	c #CFD1CE",
"[&	c #E2D7D4",
"}&	c #F7B0B0",
"|&	c #F35C5C",
"1&	c #F46F6F",
"2&	c #F8A3A3",
"3&	c #FABFBF",
"4&	c #F69C9C",
"5&	c #EC5454",
"6&	c #E33B3B",
"7&	c #E77373",
"8&	c #F2B3B3",
"9&	c #E86868",
"0&	c #A7100F",
"a&	c #D09A79",
"b&	c #E9B96D",
"c&	c #EDC586",
"d&	c #F0D09E",
"e&	c #A9322C",
"f&	c #CD4040",
"g&	c #EF8888",
"h&	c #F4B8B8",
"i&	c #E74444",
"j&	c #EE5E5E",
"k&	c #F48686",
"l&	c #F79C9C",
"m&	c #F79494",
"n&	c #F37D7D",
"o&	c #DDD0CA",
"p&	c #DDE1DA",
"q&	c #EEF0ED",
"r&	c #DFE2DD",
"s&	c #E5B1AD",
"t&	c #F68A8A",
"u&	c #FAB7B7",
"v&	c #FBC9C9",
"w&	c #FAC4C4",
"x&	c #F7A6A6",
"y&	c #EF6A6A",
"z&	c #E43C3C",
"A&	c #EB8181",
"B&	c #CB3938",
"C&	c #A7332D",
"D&	c #FBF3E8",
"E&	c #EABC75",
"F&	c #FDF7EF",
"G&	c #E7B86D",
"H&	c #A40B0B",
"I&	c #E25D5D",
"J&	c #EE9696",
"K&	c #F1A9A9",
"L&	c #E25050",
"M&	c #E53F3F",
"N&	c #F79B9B",
"O&	c #F1CDCC",
"P&	c #E2E5E0",
"Q&	c #DEE1DA",
"R&	c #DBDED7",
"S&	c #DADDD6",
"T&	c #DBDFD8",
"U&	c #DFE2DC",
"V&	c #F9D1D0",
"W&	c #FBD0D0",
"X&	c #EFA5A5",
"Y&	c #ED9191",
"Z&	c #DF5656",
"`&	c #BC8056",
" *	c #F7E4C7",
".*	c #F9ECD8",
"+*	c #F4DEBA",
"@*	c #E5B66C",
"#*	c #953E3B",
"$*	c #E76969",
"%*	c #F0A3A3",
"&*	c #ED9999",
"**	c #E14B4B",
"=*	c #E23636",
"-*	c #EA4949",
";*	c #F17171",
">*	c #F59F9F",
",*	c #EDEDE9",
"'*	c #EDEFEC",
")*	c #ECEEEB",
"!*	c #F3F4F1",
"~*	c #F6EDEC",
"{*	c #F9B8B8",
"]*	c #F38888",
"^*	c #EA5252",
"/*	c #E13737",
"(*	c #DE4848",
"_*	c #EB9696",
":*	c #EEA1A1",
"<*	c #E46262",
"[*	c #8C3736",
"}*	c #F7E7CD",
"|*	c #F7E5CA",
"1*	c #E7B66C",
"2*	c #F8E9D2",
"3*	c #F1D19F",
"4*	c #E6B76C",
"5*	c #E0B169",
"6*	c #D6A965",
"7*	c #C39B5C",
"8*	c #9D332F",
"9*	c #B62424",
"0*	c #E86D6D",
"a*	c #EE9F9F",
"b*	c #EEA2A2",
"c*	c #E15353",
"d*	c #E03636",
"e*	c #E63D3D",
"f*	c #E49997",
"g*	c #EFF1EE",
"h*	c #F2F3F0",
"i*	c #F1F3F0",
"j*	c #EA8A8A",
"k*	c #E54444",
"l*	c #DD3636",
"m*	c #ECA1A1",
"n*	c #ED9E9E",
"o*	c #E56868",
"p*	c #B42221",
"q*	c #962D2B",
"r*	c #E6B66C",
"s*	c #EEC98F",
"t*	c #F6E4C7",
"u*	c #E7B66D",
"v*	c #E1B36A",
"w*	c #F1D3A4",
"x*	c #FAEFDF",
"y*	c #EFCD98",
"z*	c #C99F60",
"A*	c #9E2423",
"B*	c #B42020",
"C*	c #E56767",
"D*	c #EB9595",
"E*	c #EFADAD",
"F*	c #E36B6B",
"G*	c #DD3E3E",
"H*	c #CFA19D",
"I*	c #CED1CB",
"J*	c #D8DBD5",
"K*	c #CFD3CC",
"L*	c #D28783",
"M*	c #D93D3D",
"N*	c #E06B6B",
"O*	c #EEADAD",
"P*	c #EA9494",
"Q*	c #E26363",
"R*	c #B21E1E",
"S*	c #9D2322",
"T*	c #D1A662",
"U*	c #FCF6EC",
"V*	c #F2D6AB",
"W*	c #E9BA72",
"X*	c #E3B46B",
"Y*	c #ECC281",
"Z*	c #F0D09D",
"`*	c #952C29",
" =	c #AB1515",
".=	c #E05D5D",
"+=	c #E88383",
"@=	c #F0AFAF",
"#=	c #CCC8C3",
"$=	c #C6C8C2",
"%=	c #C8CBC5",
"&=	c #CBCEC7",
"*=	c #CDD1CA",
"==	c #CFD2CB",
"-=	c #CDD0C9",
";=	c #CACDC7",
">=	c #C7CAC4",
",=	c #C4C7C0",
"'=	c #C2C6BF",
")=	c #CCB8B4",
"!=	c #E99C9C",
"~=	c #EEAFAF",
"{=	c #E68181",
"]=	c #DD5959",
"^=	c #942B29",
"/=	c #ECC280",
"(=	c #F1D3A5",
"_=	c #E6B86E",
":=	c #D5A964",
"<=	c #EDC587",
"[=	c #9F493B",
"}=	c #A30C0C",
"|=	c #CC3D3D",
"1=	c #E46B6B",
"2=	c #E69C9C",
"3=	c #E3E4E2",
"4=	c #C2C5BF",
"5=	c #C1C4BE",
"6=	c #BFC1BD",
"7=	c #C6C8C3",
"8=	c #D4D5D1",
"9=	c #E2E3E0",
"0=	c #E6E7E5",
"a=	c #E69695",
"b=	c #E16868",
"c=	c #C93B3B",
"d=	c #A20C0C",
"e=	c #89302E",
"f=	c #C49B5D",
"g=	c #DEB069",
"h=	c #F9ECD7",
"i=	c #E5B771",
"j=	c #DCC1BB",
"k=	c #A42A25",
"l=	c #CA706E",
"m=	c #E1E2DF",
"n=	c #E5E6E4",
"o=	c #E9EAE8",
"p=	c #DCDEDB",
"q=	c #D3D6D2",
"r=	c #D0D2CD",
"s=	c #CB6A6A",
"t=	c #A52C2B",
"u=	c #D19E71",
"v=	c #E0B269",
"w=	c #FAEEDC",
"x=	c #DEB169",
"y=	c #F6E2C2",
"z=	c #DBAE67",
"A=	c #D8AC67",
"B=	c #F4DBB5",
"C=	c #DFB16A",
"D=	c #7B3530",
"E=	c #953F3C",
"F=	c #8B8D88",
"G=	c #AAACA7",
"H=	c #C2C5C0",
"I=	c #D0D3CE",
"J=	c #CFD2CD",
"K=	c #D1D4CF",
"L=	c #CFD2CC",
"M=	c #CED0CB",
"N=	c #CED1CC",
"O=	c #C1C3BE",
"P=	c #A9AAA5",
"Q=	c #8A8C87",
"R=	c #963E3B",
"S=	c #AD694A",
"T=	c #F2D9B1",
"U=	c #F9EDDB",
"V=	c #E8BB74",
"W=	c #BF975A",
"X=	c #E8B86F",
"Y=	c #FEFBF8",
"Z=	c #ECC17E",
"`=	c #70726E",
" -	c #858782",
".-	c #848681",
"+-	c #8C8D89",
"@-	c #949791",
"#-	c #A0A29D",
"$-	c #9FA19D",
"%-	c #939691",
"&-	c #838580",
"*-	c #E5B66D",
"=-	c #F6E3C6",
"--	c #F1D2A2",
";-	c #FBF3E7",
">-	c #F1D3A3",
",-	c #F2D4A6",
"'-	c #E1B26A",
")-	c #E8B86E",
"!-	c #F7E7CE",
"~-	c #EDC485",
"{-	c #EBC07A",
"]-	c #EBC17E",
"^-	c #E9BA6F",
"                                                                                                ",
"                                                                                                ",
"                    . + @ #                                                                     ",
"                  # $ % & * =           - ; > , , ' ) !               # ~ #                     ",
"                  { ] ^ / ( _ : < ; [ } | 1 2 3 3 4 5 6 7 8 9 0   @ a b c d e f                 ",
"                # g h #   # i j k l m n o p q q q p r s t u v w x y z A B C D E F               ",
"            # G H I J     K L M N O P Q P R q S T p p T q p U V W X Y Z   `  ...+.#             ",
"        # @.#.] $.%.    &.*.=.-.;.>.,.,.q '.n ).!.m !.n s s ~.{.].^./.(.      %._.:.            ",
"      <.A [.#.@.#   }.|.1.2.3.4.5.6.7.m 8.9.v 0.a.b.c.d.8.e.f.g.h.i.j.k.l.m.  n.o.p.#           ",
"    q.r...s.#       t.u.v.;.w.4.x.y.z.A.B.C.D.E.F.G.H.I.J.K.L.M.N.-.O.P.Q.R.    S.T.e U.        ",
"  # $.b V.        R.W.X.;.Y.Z.`. +.+++@+#+$+%+&+*+=+-+;+>+,+'+)+!+~+{+]+^+/+(+  _+:+<+[+#       ",
"  ` }+d _+      |+1+2+Y.3+4+5+6+7+8+9+0+a+%+-+b+c+d+e+-+f+g+h+i+j+k+l+].m+n+o+p+  ` q+_ H #     ",
"    r+<+s+t+u+v+w+j.x+y+z+A+B+C+D+E+F+G+H+I+J+K+L+M+N+O+P+Q+R+S+T+U+V+n+X.z+W+X+Y+    Z+`+ @    ",
"    .@+@h +.@@#@$@%@&@*@2+=@C+-@;@>@,@'@)@!@H.~@, {@]@^@/@(@_@:@<@[@}@|@1@g.2@3@4@5@ .6@7@ .    ",
"        8@. 9@0@a@b@%@c@d@e@f@g@h@i@j@k@l@m@n@    o@p@q@r@s@t@u@v@w@x@y@z@n+m+A@B@C@D@E@@       ",
"            F@G@H@I@J@K@L@M@N@O@P@Q@R@S@                T@U@V@W@X@Y@Z@`@ #.#+#@###$#%#V.        ",
"            &#*#T =#-#;#>#,#'#)#i+!#~#                    {#]#^#/#(#_#:#<#[#}#!.|#1#            ",
"          2#3#4#'.5#c.6#7#8#9#j@0#a#                        b#c#d#e#f#g#h#i#j#8.k#l#m#          ",
"          n#o#s p#d.a.q#r#s#t#u#v#                            w#x#y#z#A#K+B#C#5 D#E#F#          ",
"          G#H#T 8.I#J#K#-+l#L#M#N#                            O#P#E#Q#I+R#S#T#U#!.V#W#          ",
"          X#I#Y#d.Z#`# $e+.$+$@$                                #$$$%$&$7 ]@J#*$p#=$-$          ",
"          ;$>$n I#,$E#'$c+)$L#!$                                ~$3#{$]$^$]@} +$*#/$($          ",
"          l#_$:$c.<$E#K#[$}$F.|$                                1$2$3$4$3#5$6$7$I#/$n@          ",
"          8$l 5#v C#9$E.0$a$b$c$                                d$[$e$f$g$+$h$h$i$j$k$          ",
"          l$}#m$<$=$]@&$F.n$o$p$                                q$7 n$r$s$t$u$M+5 +$v$          ",
"          w$U#t =$J#]@4$&$x$y$z$                                A$=$B$C$C#D$e$}$>$E$F$          ",
"          G$=$H$I$J$K$3#H.)$]@L$                                M$N$]$T#0.T#O$P$*#R#Q$          ",
"          R$S$8.T#C$J$g$T$U$V$W$X$                            Y$Z$`$ %.%0.9$%$4$9.n$+%          ",
"          z$@%#%$%%%&%*%=%-%;%>%,%'%                        )%!%~%{%.#N ]%^%/%9$*$(%_%          ",
"            :%I$<%[%}%|%1%*%2%3%4%5%                        6%7%8%9%0%a%b%c%d%e%^$f%            ",
"            g%h%i%j%k%l%m%L.|@n%o%p%q%r%                s%t%u%v%w%x%y%z%A%B%C%D%E%F%            ",
"          V.G%H%I%J%K%L%M%N%O%P%Q%R%S%T%U%V%        W%U%X%Y%Z%`%V  &.&+&@&#&$&%&8+&&            ",
"        # / *&=&-&;&>&,&'&)&V V !&~&{%{&]&^&/&(&_&:&<&[&}&|&1&2&3&3&4&5&6&7&8&9&0&a&b&          ",
"        c&T.d&e&f&g&h&/+i&j&k&l&=.m&n&o&p&h$$$}#q&C#} r&s&t&u&v&w&x&y&z&7+8&A&B&C&D&( E&        ",
"      q.F&d&G&  H&I&J&K&L&M&d#)&N&~+O&=$P&Q&R&S&{$T&U&y$,$V&W&-.4&`@6&h+X&Y&Z&H&`& . *.*<.      ",
"    # +*b @*    #*|.$*%*&***=*-*;*>*,*}#'*)*|#|#)*q&l !*5#~*{*]*^*/*(*_*:*<*S@[*    V.}*|*#     ",
"    1*2*3*4*5*6*7*8*9*0*a*b*c*d*e*f*!@<$| g*_$h*d.*#*#i*5 U#j*k*l*Y@m*n*o*p*q*    r*s*c t*u*    ",
"    v*w*[.x*2*b y*z*A*B*C*D*E*F*G*H*I*J*M++$=$U#0.U#T#E#P$K*L*M*N*O*P*Q*R*S*  T*/ _ U*V*W*      ",
"      X*Y*e Z*d U*@*  `* =.=+=@=h%#=$=X#%=&=*=K*==-=;=>=,='=)=!=~={=]=|.^=    /=<+(=_=:=        ",
"              @*r.<=    [=}=|=1=2=N$3=@%%=4=5=5=G#6=G#7=8=9=0=a=b=c=d=e=    f=s++.g=            ",
"              5*h=B     i=j=k=|.l=H+@%7 A.a.0=m=m=n=o=I$p=q=r=s=T@t=u=      v=w=:+              ",
"              x=y=+*z=A=B=7@C=D=E=F=G=H=I=J=r=[$K=L=M=N=O=P=Q=R=S=T=U=V=W=  X=Y=Z+              ",
"                @.T.c&c&] Z=        `= -.-+-@-#-$-%-F=&- -`=      *-=-w=--/ u+;-V.              ",
"                .@>-_.[.,-'-                                        )-$ !-;-6@~-                ",
"                  # {-]-.                                               ^-# #                   ",
"                                                                                                ",
"                                                                                                ",
"                                                                                                "};
