/* XPM */
static char * inkscape_xpm[] = {
"48 48 497 2",
"  	c None",
". 	c #000000",
"+ 	c #010101",
"@ 	c #36383B",
"# 	c #7B7C81",
"$ 	c #94969B",
"% 	c #88898E",
"& 	c #525357",
"* 	c #050505",
"= 	c #040405",
"- 	c #65676C",
"; 	c #9799A0",
"> 	c #656977",
", 	c #606575",
"' 	c #63677A",
") 	c #9195A1",
"! 	c #91939A",
"~ 	c #111113",
"{ 	c #030303",
"] 	c #68696D",
"^ 	c #97999F",
"/ 	c #6E717C",
"( 	c #E0E1E4",
"_ 	c #FFFFFF",
": 	c #D5D7DC",
"< 	c #9095A3",
"[ 	c #9699A7",
"} 	c #9DA0A8",
"| 	c #101112",
"1 	c #010202",
"2 	c #626366",
"3 	c #9C9DA1",
"4 	c #6D7078",
"5 	c #F9F9F9",
"6 	c #FDFDFD",
"7 	c #F7F7F8",
"8 	c #AFB3BE",
"9 	c #9EA2AF",
"0 	c #A2A4AC",
"a 	c #0F1011",
"b 	c #5C5E5F",
"c 	c #A1A2A4",
"d 	c #5E6066",
"e 	c #F6F6F6",
"f 	c #F5F6F6",
"g 	c #EEEFF1",
"h 	c #E9EAED",
"i 	c #A5A9B6",
"j 	c #A5A9B4",
"k 	c #A5A7AF",
"l 	c #0E0E10",
"m 	c #565656",
"n 	c #A4A4A5",
"o 	c #4E5053",
"p 	c #F2F2F2",
"q 	c #FCFCFC",
"r 	c #F4F4F5",
"s 	c #EDEDEF",
"t 	c #E6E7E9",
"u 	c #DBDCE1",
"v 	c #9CA0AE",
"w 	c #AAADB9",
"x 	c #A5A7AE",
"y 	c #0B0B0D",
"z 	c #515151",
"A 	c #A7A7A7",
"B 	c #414142",
"C 	c #ECECEC",
"D 	c #F3F3F3",
"E 	c #EBEBEC",
"F 	c #E3E4E6",
"G 	c #DDDEE1",
"H 	c #D7D8DC",
"I 	c #D2D3D9",
"J 	c #CDCFD6",
"K 	c #9398A7",
"L 	c #ADB0BC",
"M 	c #A3A5AC",
"N 	c #0A0A0B",
"O 	c #4A4A4A",
"P 	c #393939",
"Q 	c #E6E6E6",
"R 	c #FAFAFB",
"S 	c #F1F1F1",
"T 	c #E9E9EA",
"U 	c #E1E1E3",
"V 	c #D9DADC",
"W 	c #D3D4D7",
"X 	c #CDCFD3",
"Y 	c #C8C9CF",
"Z 	c #C4C6CD",
"` 	c #C0C2CB",
" .	c #8B91A1",
"..	c #AEB1BC",
"+.	c #9D9FA7",
"@.	c #080809",
"#.	c #444444",
"$.	c #A3A3A3",
"%.	c #333333",
"&.	c #E1E1E1",
"*.	c #F0F0F0",
"=.	c #E6E7E7",
"-.	c #DEDEDF",
";.	c #D5D6D8",
">.	c #CFD0D2",
",.	c #C8C9CD",
"'.	c #C2C4C8",
").	c #BEBFC5",
"!.	c #B9BBC3",
"~.	c #B6B9C2",
"{.	c #B2B6C0",
"].	c #858A9D",
"^.	c #ADB0BB",
"/.	c #9699A1",
"(.	c #070809",
"_.	c #3D3D3D",
":.	c #9D9D9D",
"<.	c #303030",
"[.	c #DBDBDB",
"}.	c #EEEEEE",
"|.	c #E4E4E4",
"1.	c #DBDBDC",
"2.	c #D2D3D4",
"3.	c #CBCBCD",
"4.	c #C3C4C6",
"5.	c #BDBEC2",
"6.	c #B7B9BD",
"7.	c #B3B5BB",
"8.	c #AEB1B8",
"9.	c #AAADB6",
"0.	c #A7AAB5",
"a.	c #A5A9B5",
"b.	c #7F8498",
"c.	c #ABAEBA",
"d.	c #8E9199",
"e.	c #060607",
"f.	c #353535",
"g.	c #949494",
"h.	c #2C2C2C",
"i.	c #D4D4D4",
"j.	c #F8F8F8",
"k.	c #EDEDED",
"l.	c #E3E3E3",
"m.	c #D9D9D9",
"n.	c #CFCFCF",
"o.	c #C7C7C8",
"p.	c #BFBFC1",
"q.	c #B7B8BB",
"r.	c #B1B3B6",
"s.	c #ACADB1",
"t.	c #A6A8AE",
"u.	c #9FA1AA",
"v.	c #9C9FAA",
"w.	c #999DAA",
"x.	c #979CAB",
"y.	c #797F93",
"z.	c #A7AAB6",
"A.	c #858891",
"B.	c #050506",
"C.	c #2E2E2E",
"D.	c #888888",
"E.	c #282828",
"F.	c #CDCDCD",
"G.	c #F7F7F7",
"H.	c #ADADAD",
"I.	c #C3C3C3",
"J.	c #BABABB",
"K.	c #B2B2B3",
"L.	c #ABABAE",
"M.	c #A4A6A9",
"N.	c #9FA1A5",
"O.	c #9B9CA1",
"P.	c #96989F",
"Q.	c #93959E",
"R.	c #90939E",
"S.	c #8D919D",
"T.	c #8D919F",
"U.	c #8B8FA0",
"V.	c #747B90",
"W.	c #A2A6B2",
"X.	c #7B7E87",
"Y.	c #030304",
"Z.	c #272727",
"`.	c #7B7B7B",
" +	c #252525",
".+	c #C6C6C6",
"++	c #878787",
"@+	c #616161",
"#+	c #C1C1C1",
"$+	c #B7B7B7",
"%+	c #AEAEAE",
"&+	c #A5A5A6",
"*+	c #9E9FA0",
"=+	c #97989B",
"-+	c #929397",
";+	c #8D8F94",
">+	c #898B91",
",+	c #858790",
"'+	c #838690",
")+	c #818490",
"!+	c #5F6576",
"~+	c #7B8091",
"{+	c #7D8395",
"]+	c #6E758B",
"^+	c #9BA0AD",
"/+	c #71747D",
"(+	c #202020",
"_+	c #6E6E6E",
":+	c #191919",
"<+	c #B3B3B3",
"[+	c #EBEBEB",
"}+	c #CCCCCC",
"|+	c #141414",
"1+	c #3F3F3F",
"2+	c #B6B6B6",
"3+	c #ABABAB",
"4+	c #A1A2A2",
"5+	c #989899",
"6+	c #909091",
"7+	c #8A8A8D",
"8+	c #848588",
"9+	c #7F8085",
"0+	c #7C7E84",
"a+	c #787A82",
"b+	c #757781",
"c+	c #6F727E",
"d+	c #4C5163",
"e+	c #565C6F",
"f+	c #6C7285",
"g+	c #6B7287",
"h+	c #6B7189",
"i+	c #969AA8",
"j+	c #686B75",
"k+	c #1A1A1A",
"l+	c #606060",
"m+	c #181818",
"n+	c #F5F5F5",
"o+	c #E0E0E0",
"p+	c #D5D5D5",
"q+	c #212121",
"r+	c #A0A0A0",
"s+	c #959595",
"t+	c #434444",
"u+	c #202124",
"v+	c #3C3D41",
"w+	c #525358",
"x+	c #64656B",
"y+	c #6A6B73",
"z+	c #676A72",
"A+	c #595C68",
"B+	c #444959",
"C+	c #4C5263",
"D+	c #555B6E",
"E+	c #5E647A",
"F+	c #656B82",
"G+	c #6C728A",
"H+	c #8F94A3",
"I+	c #5D616B",
"J+	c #020203",
"K+	c #161616",
"L+	c #414141",
"M+	c #C0C0C0",
"N+	c #B1B1B1",
"O+	c #8A8A8A",
"P+	c #7A7A7A",
"Q+	c #686868",
"R+	c #060606",
"S+	c #9E9E9E",
"T+	c #696969",
"U+	c #151515",
"V+	c #060608",
"W+	c #0C0D10",
"X+	c #131519",
"Y+	c #1C1E24",
"Z+	c #292C34",
"`+	c #3A3E47",
" @	c #3F414D",
".@	c #3D414F",
"+@	c #454A5A",
"@@	c #4D5265",
"#@	c #565B6F",
"$@	c #656C83",
"%@	c #878D9D",
"&@	c #535762",
"*@	c #020202",
"=@	c #0F0F0F",
"-@	c #434343",
";@	c #373737",
">@	c #070709",
",@	c #0D0E11",
"'@	c #15161B",
")@	c #1D1F26",
"!@	c #252830",
"~@	c #2D303B",
"{@	c #363946",
"]@	c #3E4250",
"^@	c #464A5B",
"/@	c #4E5465",
"(@	c #575D70",
"_@	c #5F657B",
":@	c #666D84",
"<@	c #6C738A",
"[@	c #7F8596",
"}@	c #4B4E59",
"|@	c #0B0B0B",
"1@	c #111111",
"2@	c #0D0F11",
"3@	c #15171B",
"4@	c #1E2026",
"5@	c #262831",
"6@	c #2E313C",
"7@	c #363A46",
"8@	c #3E4351",
"9@	c #464C5C",
"0@	c #4F5467",
"a@	c #575D71",
"b@	c #5F667C",
"c@	c #676D85",
"d@	c #6B728B",
"e@	c #777C8F",
"f@	c #424550",
"g@	c #010102",
"h@	c #232323",
"i@	c #0D0D0D",
"j@	c #0E0F13",
"k@	c #16171D",
"l@	c #1E2028",
"m@	c #262932",
"n@	c #2F323D",
"o@	c #373B48",
"p@	c #3F4452",
"q@	c #484C5D",
"r@	c #505567",
"s@	c #585E72",
"t@	c #60677D",
"u@	c #676E86",
"v@	c #6E7387",
"w@	c #373B46",
"x@	c #030404",
"y@	c #08090B",
"z@	c #0F1013",
"A@	c #17181E",
"B@	c #1F2228",
"C@	c #282A33",
"D@	c #30333E",
"E@	c #383C48",
"F@	c #404453",
"G@	c #484D5E",
"H@	c #505669",
"I@	c #595F73",
"J@	c #61677E",
"K@	c #686F87",
"L@	c #6A7289",
"M@	c #61677B",
"N@	c #080808",
"O@	c #09090B",
"P@	c #0F1115",
"Q@	c #17191F",
"R@	c #20222A",
"S@	c #282B34",
"T@	c #30343F",
"U@	c #383C4A",
"V@	c #414554",
"W@	c #494E5F",
"X@	c #515769",
"Y@	c #5A6074",
"Z@	c #62697F",
"`@	c #4D5264",
" #	c #060708",
".#	c #040404",
"+#	c #090A0C",
"@#	c #101115",
"##	c #181A20",
"$#	c #21232A",
"%#	c #292C35",
"&#	c #313440",
"*#	c #393D4A",
"=#	c #424655",
"-#	c #4A4F60",
";#	c #52586B",
">#	c #5B6175",
",#	c #656B83",
"'#	c #53596C",
")#	c #0E0E12",
"!#	c #0A0B0D",
"~#	c #121317",
"{#	c #1A1C22",
"]#	c #24262E",
"^#	c #2D2E38",
"/#	c #343743",
"(#	c #3C404E",
"_#	c #434858",
":#	c #4B5162",
"<#	c #595F74",
"[#	c #474B5C",
"}#	c #07080A",
"|#	c #141416",
"1#	c #1F2024",
"2#	c #2B2C32",
"3#	c #34373D",
"4#	c #3C3F47",
"5#	c #41444F",
"6#	c #454955",
"7#	c #464A5A",
"8#	c #4A5061",
"9#	c #444857",
"0#	c #17191E",
"a#	c #181819",
"b#	c #242424",
"c#	c #2F3031",
"d#	c #3B3C3E",
"e#	c #454649",
"f#	c #4B4D52",
"g#	c #515459",
"h#	c #54565E",
"i#	c #50525D",
"j#	c #444753",
"k#	c #393D49",
"l#	c #2B2E38",
"m#	c #090909",
"n#	c #313131",
"o#	c #464647",
"p#	c #545456",
"q#	c #666668",
"r#	c #717174",
"s#	c #5B5C61",
"t#	c #3C3E44",
"u#	c #272930",
"v#	c #1B1C23",
"w#	c #0B0C10",
"x#	c #0C0C0C",
"y#	c #2D2D2D",
"z#	c #373736",
"A#	c #343434",
"B#	c #1E1E1E",
"C#	c #2B2B2B",
"D#	c #4F4F4F",
"E#	c #666666",
"F#	c #636464",
"G#	c #3F3F40",
"H#	c #1B1B1C",
"I#	c #0A0B0C",
"J#	c #070707",
"K#	c #404040",
"L#	c #585858",
"M#	c #6C6C6C",
"N#	c #787878",
"O#	c #818181",
"P#	c #8D8D8C",
"Q#	c #9B9B9A",
"R#	c #717170",
"S#	c #A2A2A0",
"T#	c #60605F",
"U#	c #171717",
"V#	c #1D1D1D",
"W#	c #2F2F2F",
"X#	c #121212",
"Y#	c #4D4D4D",
"Z#	c #505050",
"`#	c #525252",
" $	c #5A5A5A",
".$	c #6B6B6A",
"+$	c #969695",
"@$	c #A6A6A6",
"#$	c #B6B6B5",
"$$	c #BABAB8",
"%$	c #A6A6A5",
"&$	c #171716",
"*$	c #1B1B1B",
"=$	c #3A3A3A",
"-$	c #424242",
";$	c #464646",
">$	c #3C3C3C",
",$	c #4C4C4B",
"'$	c #737372",
")$	c #8C8C8B",
"!$	c #9C9C9B",
"~$	c #ADADAB",
"{$	c #6F6F6E",
"]$	c #101010",
"^$	c #363636",
"/$	c #2A2A2A",
"($	c #474746",
"_$	c #1C1C1C",
":$	c #0E0E0E",
"<$	c #262626",
"[$	c #222222",
"}$	c #131313",
"|$	c #4A4B4C",
"1$	c #5F6061",
"2$	c #1C1C1E",
"3$	c #1F1F1F",
"4$	c #0A0A0A",
"5$	c #494949",
"6$	c #3B3B3B",
"7$	c #323232",
"8$	c #3E3E3E",
"                                                                                                ",
"                                          . . . . .                                             ",
"                                        + @ # $ % & *                                           ",
"                                      = - ; > , ' ) ! ~                                         ",
"                                    { ] ^ / ( _ : < [ } |                                       ",
"                                  1 2 3 4 5 _ _ 6 7 8 9 0 a                                     ",
"                                + b c d e _ _ 6 f g h i j k l                                   ",
"                              . m n o p _ _ q r s t ( u v w x y                                 ",
"                            . z A B C _ _ q D E F G H I J K L M N                               ",
"                          . O A P Q _ _ R S T U V W X Y Z `  ...+.@.                            ",
"                        . #.$.%.&._ _ 5 *.=.-.;.>.,.'.).!.~.{.].^./.(.                          ",
"                      . _.:.<.[._ _ 5 }.|.1.2.3.4.5.6.7.8.9.0.a.b.c.d.e.                        ",
"                    . f.g.h.i._ _ j.k.l.m.n.o.p.q.r.s.t.M u.v.w.x.y.z.A.B.                      ",
"                  . C.D.E.F._ _ G.k.&.H.F.I.J.K.L.M.N.O.P.Q.R.S.T.U.V.W.X.Y.                    ",
"                . Z.`. +.+_ _ G.C &.++@+#+$+%+&+*+=+-+;+>+,+'+)+!+~+{+]+^+/+Y.                  ",
"              . (+_+:+<+_ _ e [+&.}+|+1+2+3+4+5+6+7+8+9+0+a+b+c+d+e+f+g+h+i+j+{                 ",
"            . k+l+m+#._ _ n+[+o+p+@+. q+3+r+s+D.t+u+v+w+x+y+z+A+B+C+D+E+F+G+H+I+J+              ",
"          . |+z K+. L+M+N+:.O+P+Q+R+. R+S+s+T+U+J+V+W+X+Y+Z+`+ @.@+@@@#@E+$@G+%@&@*@            ",
"        . =@-@|+. . . . . . . . . . . . P+;@. . + { >@,@'@)@!@~@{@]@^@/@(@_@:@<@[@}@*@          ",
"      . |@%.1@. . . . . . . . . . . . . * . . . . + { >@2@3@4@5@6@7@8@9@0@a@b@c@d@e@f@g@        ",
"    . * h@i@. . . . . . . . . . . . . . . . . . . . + Y.(.j@k@l@m@n@o@p@q@r@s@t@u@<@v@w@.       ",
"    . 1@|@. . . . . . . . . . . . . . . . . . . . . . + x@y@z@A@B@C@D@E@F@G@H@I@J@K@L@M@Y+.     ",
"  . { N@. . . . . . . . . . . . . . . . . . . . . . . . + = O@P@Q@R@S@T@U@V@W@X@Y@Z@K@c@`@ #    ",
"  . . . { .#.#+ . . . . . . . . . . . . . . . . . . . . . + = +#@###$#%#&#*#=#-#;#>#Z@,#'#)#.   ",
"  . . . . . . *@{ *@. . . . . . . . . . . . . . . . . . . . + B.!#~#{#]#^#/#(#_#:#'#<#Y@[#}#.   ",
"      . . . . . . . . . . . . . . . . . . . . . . . . . . . g@= N |#1#2#3#4#5#6#7#W@8#9#0#.     ",
"            . . . . . . . . . . . . . . . . . . . . . . + .#i@a#b#c#d#e#f#g#h#i#j#k#l#,@.       ",
"                  . . . + { * .#*@+ . . . . . . . . . + m#U+h@n#_.o#p#q#r#s#t#u#v#w#+           ",
"                      * x#K+h@y#z#P A#y#* { + . . . . { =@B#C#P D#E#F#G#H#@#I#.#.               ",
"                    J#:+<.K#L#M#N#O#P#Q#R#S#T#U#{ *@+ { |@|+V#W#C#X#.#{ g@.                     ",
"                . *@=@W##.Y#z Z#Z#`# $.$D.+$@$#$$$%$&$*@*@{ { + . . . .                         ",
"              . . + J#*$C.=$-$;$;$-$>$f.f.,$'$)$!$~${$+ . . . . . .                             ",
"              . . . + R+|@]$m+b#C.A#^$%.h. +B#/$($L#E.. . . . . . .                             ",
"                  . . . . + { J#x#U+b#h./$h@_$U+:$J#*@. . . . . . . .                           ",
"                      . . . . . + .#=@(+<$[$k+}$x#R++ . . . . . . . . .         |@|$1$2$        ",
"                              . . + J#*$h@3$m+1@4$.#+ . . . . . . . . . .     . + x@e.= .       ",
"                                . + m#B#h@B#K+=@N@{ . . . . .#J#R+{ + .         . . . . .       ",
"                        . .     . { :$B#[$_$U+:$J#*@. . .#=@|@{ . . . .                         ",
"                      . 5$P .   . m#4$U+V#:+}$x#* + . i@m+N@. . . .       . 6$J#                ",
"                    . . . .     . ]$=@=@}$U+1@4$.#+ :$_$.#. .               . .                 ",
"                      . .       . * x#*$q+K+x#J#*@. <$4$.                                       ",
"                                . . . . i@C#|@* + . /$i@.                                       ",
"                                      . . :+h@+ . m#<.y#+ .                                     ",
"                                        . *@f.h.7$8$h@R+. .                                     ",
"                                          . |@U+}$+ . . .                                       ",
"                                          . . . . . .                                           ",
"                                                                                                ",
"                                                                                                "};
