/* XPM */
static char * jabber_xpm[] = {
"48 48 25 1",
" 	c None",
".	c #C60000",
"+	c #C90000",
"@	c #C80000",
"#	c #CB0000",
"$	c #CA0000",
"%	c #CC0000",
"&	c #C70000",
"*	c #CD0000",
"=	c #C50000",
"-	c #FCB200",
";	c #FFB400",
">	c #FEB300",
",	c #F7AF00",
"'	c #FEB400",
")	c #FAB000",
"!	c #F7AE00",
"~	c #FBB100",
"{	c #FDB200",
"]	c #FDB300",
"^	c #F9B000",
"/	c #FAB100",
"(	c #FCB300",
"_	c #F8AF00",
":	c #FBB200",
"              .+@+#$++@                         ",
"           +$%%%%%%%%%%%%#$@                    ",
"        .%%%%%%%%%%%%%%%%%%%%&                  ",
"        %%%%%%%%%%%%*%%%%%%%%%#                 ",
"        %%%%#++           +$%%%#                ",
"        %%%$                 #%%%.              ",
"        %%$                   @%%%              ",
"        %#                      #%$             ",
"        @                        %%&            ",
"                                 =%%            ",
"                                  +%$           ",
"                                   %%           ",
"                                   #%+          ",
"                                   .%#          ",
"                                    %%          ",
"                                    @%+         ",
"                                    &%%         ",
"                                     %%         ",
"                                     %%@        ",
"                                     %%$        ",
"               --                    %%@        ",
"              ;>,'   )'!             %%+        ",
"             ~;  !{ >';>            @%%         ",
"             ~;   ;]) ~;            %%#         ",
"             ~;   '^   ;           +%%.         ",
"             -;       -]           %%#          ",
"             /;       ;,          #%%+          ",
"              ;      ({          #%%$           ",
"              /     ~;          #%%$            ",
"                    ;_         #%%$             ",
"                    :        .%%%#              ",
"                            $%%%+               ",
"         &%$               #%%%                 ",
"         @%%@             $%%+                  ",
"          #%%@            %%@                   ",
"           %%%@          +%@                    ",
"            $%%#.    @&  ##                     ",
"        +#&   +$%%%%#$   %.                     ",
"         %%&            &%                      ",
"          #%$           +#                      ",
"           +%%$+        @#                      ",
"         .   $%%%#%%%%+ &%                      ",
"        +%+    $%#%%%%$  %                      ",
"        $%%@             *                      ",
"         #%%$            =                      ",
"          $%%%+                                 ",
"            +$%%#$$$$##                         ",
"               &@+#+@                           "};
