/* XPM */
static char * keepassx_xpm[] = {
"48 48 634 2",
"  	c None",
". 	c #1A1A1A",
"+ 	c #111111",
"@ 	c #020202",
"# 	c #000000",
"$ 	c #010101",
"% 	c #1F1F1F",
"& 	c #313131",
"* 	c #050505",
"= 	c #393939",
"- 	c #616161",
"; 	c #787878",
"> 	c #7C7C7C",
", 	c #717171",
"' 	c #505050",
") 	c #1E1E1E",
"! 	c #060606",
"~ 	c #818181",
"{ 	c #E2E2E2",
"] 	c #F2F2F2",
"^ 	c #FBFBFB",
"/ 	c #FFFFFF",
"( 	c #F8F8F8",
"_ 	c #EDEDED",
": 	c #C0C0C0",
"< 	c #323232",
"[ 	c #0B0B0B",
"} 	c #0A0A0A",
"| 	c #484848",
"1 	c #FCFDFB",
"2 	c #F5F9F3",
"3 	c #F1F7EE",
"4 	c #F5F9F2",
"5 	c #919191",
"6 	c #080808",
"7 	c #070707",
"8 	c #FEFEFE",
"9 	c #C4DEB8",
"0 	c #9AC683",
"a 	c #7BB65D",
"b 	c #6CAE4A",
"c 	c #6DAE49",
"d 	c #7BB75B",
"e 	c #99C780",
"f 	c #C6E0B7",
"g 	c #FCFDFC",
"h 	c #CECECE",
"i 	c #252525",
"j 	c #040404",
"k 	c #030303",
"l 	c #979797",
"m 	c #E3EFDD",
"n 	c #71AF52",
"o 	c #5DA43A",
"p 	c #5AA335",
"q 	c #5CA436",
"r 	c #5DA537",
"s 	c #5EA637",
"t 	c #5EA737",
"u 	c #64AB3D",
"v 	c #7AB758",
"w 	c #E1EEDA",
"x 	c #D9D9D9",
"y 	c #0E0E0E",
"z 	c #121212",
"A 	c #333333",
"B 	c #363636",
"C 	c #373737",
"D 	c #3A3A3A",
"E 	c #1C1C1C",
"F 	c #5B5B5B",
"G 	c #D0E4C6",
"H 	c #59A139",
"I 	c #58A136",
"J 	c #59A136",
"K 	c #5AA337",
"L 	c #5BA437",
"M 	c #5CA437",
"N 	c #5DA638",
"O 	c #5EA638",
"P 	c #60A838",
"Q 	c #60A839",
"R 	c #66AC3F",
"S 	c #DAEAD0",
"T 	c #B7B7B7",
"U 	c #0D0D0D",
"V 	c #EBEBEB",
"W 	c #3C3C3C",
"X 	c #0F0F0F",
"Y 	c #DADADA",
"Z 	c #E1EEDC",
"` 	c #60A443",
" .	c #559E33",
"..	c #57A036",
"+.	c #59A236",
"@.	c #5CA734",
"#.	c #51972B",
"$.	c #5AA531",
"%.	c #63AD3A",
"&.	c #5FA937",
"*.	c #66AC3E",
"=.	c #DDECD5",
"-.	c #707070",
";.	c #545454",
">.	c #EAEAEA",
",.	c #6D6D6D",
"'.	c #6AA94F",
").	c #529C31",
"!.	c #559E35",
"~.	c #569F35",
"{.	c #58A036",
"].	c #4E942B",
"^.	c #5F7555",
"/.	c #AEB4AB",
"(.	c #8D9787",
"_.	c #31561C",
":.	c #5CA336",
"<.	c #61AA38",
"[.	c #78B655",
"}.	c #F8FBF7",
"|.	c #E6E6E6",
"1.	c #141414",
"2.	c #1D1D1D",
"3.	c #DBDBDB",
"4.	c #515151",
"5.	c #F7F7F7",
"6.	c #FEFFFE",
"7.	c #F6FAF5",
"8.	c #F3F8F2",
"9.	c #F7FAF6",
"0.	c #272727",
"a.	c #B3D3A6",
"b.	c #4C982D",
"c.	c #539C34",
"d.	c #559D35",
"e.	c #50962E",
"f.	c #8F998A",
"g.	c #DAD8DB",
"h.	c #1F291A",
"i.	c #539131",
"j.	c #63AB3B",
"k.	c #BBDAAB",
"l.	c #FCFCFC",
"m.	c #686868",
"n.	c #A7A7A7",
"o.	c #4C4C4C",
"p.	c #F6F6F6",
"q.	c #F7FAF7",
"r.	c #89B67E",
"s.	c #639F54",
"t.	c #64A055",
"u.	c #72A964",
"v.	c #E5EFE2",
"w.	c #E4E4E4",
"x.	c #FEFFFF",
"y.	c #68A74F",
"z.	c #519B33",
"A.	c #529B34",
"B.	c #57A035",
"C.	c #618B4C",
"D.	c #F6F7F6",
"E.	c #848285",
"F.	c #0E1809",
"G.	c #5FA837",
"H.	c #8BC06E",
"I.	c #5F5F5F",
"J.	c #D3D3D3",
"K.	c #F5F5F5",
"L.	c #F5F9F4",
"M.	c #69A25C",
"N.	c #3C872B",
"O.	c #3E882C",
"P.	c #3D882A",
"Q.	c #50943F",
"R.	c #EEF4EC",
"S.	c #858585",
"T.	c #DCEBD7",
"U.	c #5A9F3F",
"V.	c #509933",
"W.	c #539B32",
"X.	c #7C986F",
"Y.	c #F8F8F9",
"Z.	c #B5B5B5",
"`.	c #060307",
" +	c #457A29",
".+	c #6BB146",
"++	c #F0F7ED",
"@+	c #D4D4D4",
"#+	c #464646",
"$+	c #69A35D",
"%+	c #3B862B",
"&+	c #3E882D",
"*+	c #3F892D",
"=+	c #3F8A2C",
"-+	c #529640",
";+	c #E8F1E6",
">+	c #DEDEDE",
",+	c #222222",
"'+	c #BFD9B5",
")+	c #529A37",
"!+	c #519832",
"~+	c #6C8561",
"{+	c #F7F6F7",
"]+	c #A4A4A4",
"^+	c #020004",
"/+	c #417227",
"(+	c #58A62E",
"_+	c #E5F1E0",
":+	c #191919",
"<+	c #C6C6C6",
"[+	c #454545",
"}+	c #F4F4F4",
"|+	c #FBFDFB",
"1+	c #87B57D",
"2+	c #398529",
"3+	c #3D872C",
"4+	c #3E892B",
"5+	c #639F53",
"6+	c #EBF3E9",
"7+	c #DDDDDD",
"8+	c #2C2C2C",
"9+	c #ABCE9F",
"0+	c #4C9631",
"a+	c #4F9833",
"b+	c #529C34",
"c+	c #549D34",
"d+	c #335425",
"e+	c #CFCFCF",
"f+	c #FDFDFD",
"g+	c #494949",
"h+	c #427528",
"i+	c #58A62F",
"j+	c #D5E8CC",
"k+	c #B9B9B9",
"l+	c #F3F7F2",
"m+	c #59994D",
"n+	c #3A852A",
"o+	c #3D892B",
"p+	c #569845",
"q+	c #F6F9F5",
"r+	c #E3E3E3",
"s+	c #2A2A2A",
"t+	c #D8D8D8",
"u+	c #AFD0A4",
"v+	c #4D9632",
"w+	c #4D9732",
"x+	c #3D7426",
"y+	c #121511",
"z+	c #A9A9A9",
"A+	c #414141",
"B+	c #040702",
"C+	c #5DA637",
"D+	c #55A12D",
"E+	c #D7E9CF",
"F+	c #C8C8C8",
"G+	c #B2B2B2",
"H+	c #FAFCFA",
"I+	c #569648",
"J+	c #3D882C",
"K+	c #3E892C",
"L+	c #599A47",
"M+	c #EEF5ED",
"N+	c #BFBFBF",
"O+	c #C2DBBA",
"P+	c #509837",
"Q+	c #57A436",
"R+	c #2A4E1A",
"S+	c #070C04",
"T+	c #49832C",
"U+	c #5CA537",
"V+	c #54A12D",
"W+	c #E6F1E1",
"X+	c #BBBBBB",
"Y+	c #EDF5EC",
"Z+	c #619D54",
"`+	c #6AA45A",
" @	c #F1F6EF",
".@	c #D6D6D6",
"+@	c #232323",
"@@	c #D2D2D2",
"#@	c #DCEAD7",
"$@	c #569B3D",
"%@	c #4C9532",
"&@	c #509A33",
"*@	c #57A337",
"=@	c #427C29",
"-@	c #284A19",
";@	c #223F15",
">@	c #2F551D",
",@	c #4E8C2F",
"'@	c #5AA236",
")@	c #66AA45",
"!@	c #131313",
"~@	c #161616",
"{@	c #CCCCCC",
"]@	c #C7C7C7",
"^@	c #B4B4B4",
"/@	c #EAF2E9",
"(@	c #509342",
"_@	c #3E892A",
":@	c #5F9E50",
"<@	c #5A9C43",
"[@	c #4B9431",
"}@	c #4E9732",
"|@	c #559C34",
"1@	c #57A136",
"2@	c #58A134",
"3@	c #89BD70",
"4@	c #F9FBF8",
"5@	c #AAAAAA",
"6@	c #D1D1D1",
"7@	c #C9C9C9",
"8@	c #F2F7F1",
"9@	c #4F9241",
"0@	c #40892D",
"a@	c #3E882A",
"b@	c #64A054",
"c@	c #A4C998",
"d@	c #4A9332",
"e@	c #4A9331",
"f@	c #569E35",
"g@	c #5AA237",
"h@	c #BAD8AC",
"i@	c #6F6F6F",
"j@	c #757575",
"k@	c #CDCDCD",
"l@	c #E9F1E7",
"m@	c #5D9A50",
"n@	c #78AC6A",
"o@	c #C6DDBF",
"p@	c #4C9335",
"q@	c #47912F",
"r@	c #499331",
"s@	c #519A33",
"t@	c #559F34",
"u@	c #6FAE52",
"v@	c #F6FAF4",
"w@	c #EFEFEF",
"x@	c #BEBEBE",
"y@	c #DCDCDC",
"z@	c #E7F0E5",
"A@	c #4C913E",
"B@	c #3C862B",
"C@	c #75AA67",
"D@	c #D4E6D0",
"E@	c #479032",
"F@	c #458F2E",
"G@	c #479130",
"H@	c #489130",
"I@	c #4C9632",
"J@	c #549C34",
"K@	c #509B2E",
"L@	c #E1EEDB",
"M@	c #8B8B8B",
"N@	c #4F4F4F",
"O@	c #383838",
"P@	c #ECF3EA",
"Q@	c #4A8F3C",
"R@	c #408A2D",
"S@	c #3B8727",
"T@	c #7BAE6E",
"U@	c #E1EDDE",
"V@	c #4E943A",
"W@	c #448E2F",
"X@	c #458F2F",
"Y@	c #469030",
"Z@	c #489330",
"`@	c #49922F",
" #	c #529B33",
".#	c #5AA03B",
"+#	c #D1E5C9",
"@#	c #E2EDE0",
"##	c #3B852A",
"$#	c #458E33",
"%#	c #428C2D",
"&#	c #438D2E",
"*#	c #45902E",
"=#	c #51973A",
"-#	c #83B673",
";#	c #47912D",
">#	c #45912A",
",#	c #4A942F",
"'#	c #4E9731",
")#	c #4C962E",
"!#	c #489529",
"~#	c #7DB466",
"{#	c #D8E9D1",
"]#	c #E0E0E0",
"^#	c #212121",
"/#	c #636363",
"(#	c #CACACA",
"_#	c #424242",
":#	c #DAE8D6",
"<#	c #438B34",
"[#	c #3D862C",
"}#	c #3E892D",
"|#	c #418B2E",
"1#	c #428C2E",
"2#	c #438D2F",
"3#	c #CEE2C7",
"4#	c #FBFCFA",
"5#	c #DCEAD8",
"6#	c #94C085",
"7#	c #5FA047",
"8#	c #459128",
"9#	c #539A39",
"0#	c #85B771",
"a#	c #D3E5CC",
"b#	c #F7FBF6",
"c#	c #C4C4C4",
"d#	c #FAFAFA",
"e#	c #CEE1CB",
"f#	c #3F8830",
"g#	c #418B2D",
"h#	c #AFCFA5",
"i#	c #0C0C0C",
"j#	c #1B1B1B",
"k#	c #C3C3C3",
"l#	c #C5C5C5",
"m#	c #B9D3B3",
"n#	c #348124",
"o#	c #3C862C",
"p#	c #3B8825",
"q#	c #9DC392",
"r#	c #B1B1B1",
"s#	c #575757",
"t#	c #3E3E3E",
"u#	c #CBCBCB",
"v#	c #242424",
"w#	c #5D5D5D",
"x#	c #F1F7F1",
"y#	c #509243",
"z#	c #398429",
"A#	c #3B862C",
"B#	c #3C8827",
"C#	c #82B376",
"D#	c #282828",
"E#	c #808080",
"F#	c #8C8C8C",
"G#	c #767676",
"H#	c #434343",
"I#	c #090909",
"J#	c #7B7B7B",
"K#	c #E8F1E7",
"L#	c #4C9040",
"M#	c #38822A",
"N#	c #39842B",
"O#	c #3B852B",
"P#	c #3C872C",
"Q#	c #5E9D4E",
"R#	c #F2F8F2",
"S#	c #7A7A7A",
"T#	c #151515",
"U#	c #555555",
"V#	c #C2C2C2",
"W#	c #606060",
"X#	c #59974F",
"Y#	c #348028",
"Z#	c #39832B",
"`#	c #3B8729",
" $	c #E4EFE2",
".$	c #6B6B6B",
"+$	c #535353",
"@$	c #929292",
"#$	c #BDBDBD",
"$$	c #F7FBF8",
"%$	c #4D8F43",
"&$	c #327E27",
"*$	c #36802A",
"=$	c #36812A",
"-$	c #3F892C",
";$	c #5D9C4D",
">$	c #F2F7F0",
",$	c #D0D0D0",
"'$	c #474747",
")$	c #F0F6F0",
"!$	c #4F8F46",
"~$	c #317D27",
"{$	c #337E29",
"]$	c #358029",
"^$	c #3E8632",
"/$	c #4A8E3E",
"($	c #4F9142",
"_$	c #519344",
":$	c #58984B",
"<$	c #428A33",
"[$	c #3C8729",
"}$	c #569846",
"|$	c #F1F7F0",
"1$	c #639C5C",
"2$	c #2F7B26",
"3$	c #327D28",
"4$	c #337E27",
"5$	c #85B27D",
"6$	c #F4F8F4",
"7$	c #BAD4B4",
"8$	c #408931",
"9$	c #5C9B4B",
"0$	c #E2EEDF",
"a$	c #F1F1F1",
"b$	c #5C5C5C",
"c$	c #599654",
"d$	c #2C7824",
"e$	c #307B28",
"f$	c #317C28",
"g$	c #327D27",
"h$	c #8DB787",
"i$	c #AECDA8",
"j$	c #3D872D",
"k$	c #5B9A4A",
"l$	c #F0F6EE",
"m$	c #3B3B3B",
"n$	c #60995B",
"o$	c #297523",
"p$	c #2E7927",
"q$	c #2F7A27",
"r$	c #9D9D9D",
"s$	c #525252",
"t$	c #F0F0F0",
"u$	c #98C090",
"v$	c #539742",
"w$	c #EFF6EE",
"x$	c #F3F3F3",
"y$	c #2E2E2E",
"z$	c #595959",
"A$	c #72A46E",
"B$	c #297524",
"C$	c #2C7826",
"D$	c #2D7827",
"E$	c #8DB788",
"F$	c #9B9B9B",
"G$	c #A3C69B",
"H$	c #3C8829",
"I$	c #599A48",
"J$	c #E0ECDD",
"K$	c #202020",
"L$	c #679D64",
"M$	c #277322",
"N$	c #2A7626",
"O$	c #2B7626",
"P$	c #2B7724",
"Q$	c #27751F",
"R$	c #26751E",
"S$	c #24741B",
"T$	c #89B483",
"U$	c #FEFEFD",
"V$	c #9BC193",
"W$	c #589947",
"X$	c #EDF4EB",
"Y$	c #FDFEFC",
"Z$	c #689D66",
"`$	c #216F1F",
" %	c #297425",
".%	c #297525",
"+%	c #2B7625",
"@%	c #2E7928",
"#%	c #7DAC78",
"$%	c #C1D7BF",
"%%	c #E4EEE2",
"&%	c #B8B8B8",
"*%	c #646464",
"=%	c #F9F9F9",
"-%	c #82B278",
";%	c #3C882A",
">%	c #4F933E",
",%	c #ECF4EA",
"'%	c #8BB48A",
")%	c #236F21",
"!%	c #267224",
"~%	c #277325",
"{%	c #287425",
"]%	c #287424",
"^%	c #2C7727",
"/%	c #A8C7A6",
"(%	c #89B680",
"_%	c #358225",
":%	c #DBE9D7",
"<%	c #5E5E5E",
"[%	c #569156",
"}%	c #236F22",
"|%	c #257124",
"1%	c #9DBF9B",
"2%	c #C1C1C1",
"3%	c #8D8D8D",
"4%	c #7E7E7E",
"5%	c #626262",
"6%	c #F8FAF7",
"7%	c #7CAE72",
"8%	c #9AC18F",
"9%	c #5A5A5A",
"0%	c #559056",
"a%	c #216D21",
"b%	c #247023",
"c%	c #257123",
"d%	c #82AF81",
"e%	c #676767",
"f%	c #777777",
"g%	c #A0A0A0",
"h%	c #848484",
"i%	c #609D53",
"j%	c #94BE8A",
"k%	c #585858",
"l%	c #7AA87A",
"m%	c #4B894B",
"n%	c #4D8A4C",
"o%	c #4C8B4B",
"p%	c #91B790",
"q%	c #101010",
"r%	c #444444",
"s%	c #F0F6EF",
"t%	c #74A968",
"u%	c #3E872E",
"v%	c #3F892E",
"w%	c #428A31",
"x%	c #A2C699",
"y%	c #F5F9F5",
"z%	c #F1F6F1",
"A%	c #F2F6F2",
"B%	c #FDFEFD",
"C%	c #888888",
"D%	c #898989",
"E%	c #353535",
"F%	c #B0B0B0",
"G%	c #9F9F9F",
"H%	c #4E4E4E",
"I%	c #6A6A6A",
"J%	c #696969",
"K%	c #969696",
"L%	c #B3B3B3",
"M%	c #ACACAC",
"N%	c #2B2B2B",
"O%	c #6E6E6E",
"P%	c #727272",
"Q%	c #171717",
"                                                          . + @ # $ % &                         ",
"                                                    @ # * = - ; > , ' ) # !                     ",
"                                                  # # ~ { ] ^ / / / ( _ : < # [                 ",
"                                              } # | ] / / 1 2 3 3 4 1 / / / 5 [ 6               ",
"                                            7 # ~ 8 / 8 9 0 a b c d e f g / / h i *             ",
"6 * ! ! j k $ # #                           # l / / m n o p q r s t t u v w / / x y *           ",
"# z A B B C C D E #                       # F ^ / G H I J K L M N O P Q P R S / / T # U         ",
"# F / / / / / / V W #                   j X Y / Z `  ...I +.K L r @.#.$.%.&.*.=./ / -.#         ",
"# ;.( / / / / / / >.D #                 # ,./ / '.).!.~.{.I +.L ].^./.(._.:.<.[.}./ |.1.2.3.    ",
"# 4.5.6.7.8.8.9./ / |.0.#             j # |./ a.b.c.d.!.~.{.I e.f./ / / g.h.i.j.k./ l.m.# n.    ",
"# o.p.q.r.s.t.u.v./ / w.A #           # A / x.y.z.A.c.d.!.~.B.C.D./ / / / E.F.G.H.}./ n.@ I.J.  ",
"# | K.L.M.N.O.P.Q.R./ / |.& #         # S./ T.U.V.A.A.c.d.!.W.X.Y./ / / / Z.`. +.+++/ x + 0.@+  ",
"# #+K.L.$+%+&+*+=+-+;+/ / >+,+#       # Z./ '+)+V.V.A.A.c.!.!+~+{+/ / / / ]+^+/+(+_+/ ( :+1.<+  ",
"# [+}+|+1+2+3+&+*+4+5+6+/ / 7+8+#     # J./ 9+0+a+V.V.A.b+c.c+d+e+/ / / f+g+# h+i+j+/ / 2.z k+h ",
"# #+p./ l+m+n+3+&+*+o+p+q+/ / r+s+# } # t+/ u+v+w+a+V.V.A.c.c+x+y+z+/ 3.A+# B+C+D+E+/ / ) + Z.F+",
"+ # G+/ / H+I+n+J+&+*+K+L+M+/ / t+) # # N+/ O+P+v+w+a+V.V.A.c.Q+R+# # # # S+T+U+V+W+/ l.. z X+F+",
"  * # n./ / Y+Z+n+J+&+*+4+`+ @/ / .@+@[ @@/ #@$@%@v+w+a+V.&@A.c.*@=@-@;@>@,@L '@)@3 / 3.!@~@{@]@",
"    $ U ^@/ / /@(@%+J+&+*+_@:@8 / / |.]@/ /  @<@[@%@v+}@a+V.&@A.c.c+!.|@1@I J 2@3@4@/ 5@* B 6@7@",
"    2.# z @+/ / 8@9@n+J+&+0@a@b@7./ / / / / c@d@e@[@%@v+}@a+V.&@A.c.c.!.f@~.{.g@h@/ 8 i@# j@k@h ",
"      :+# . @@/ / l@m@n+J+&+0@4+n@H+/ / / o@p@q@r@e@[@%@v+}@a+V.s@A.c.c.!.f@t@u@v@/ w@% # x@F+6@",
"        !@# ) y@/ / z@A@B@J+&+*+_@C@/ / D@E@F@G@H@r@e@[@I@v+}@a+V.s@A.c.J@c+K@L@/ / M@# N@k@]@  ",
"          X # O@V / / P@Q@n+J+&+R@S@T@U@V@W@X@Y@G@H@Z@`@[@I@v+}@a+V.s@A. #.#+#/ / Y # 7 G+]@7@  ",
"            + # [+( / / @#I+##J+&+0@4+$#%#&#W@X@Y@*#=#-#;#>#,#v+}@'#)#!#~#{#/ / ]#^## /#<+]@(#  ",
"              y # _#/ / / :#<#[#O.}#*+R@|#1#2#W@X@F@3#4#5#6#7#>#8#9#0#a#b#/ / _ 8+# i c#]@]@    ",
"                6 # i@d#/ / e#f#%+O.}#*+g#|#1#2#E@h#/ / / / / / / / / / / ^ c#i## j#k#F+]@{@    ",
"                  6 # l#/ / / m#n#o#O.}#*+g#|#p#q#/ / t+.@/ / / / / / }+r#s## # t#k+7@]@u#      ",
"                v## w#}+/ / x#y#z#A#o#O.}#*+B#C#/ / / k#6 D#i@E#F#G#H#. I## # J#c#F+]@(#        ",
"                # | / / / K#L#M#N#O#A#P#O.}#P.Q#R#/ / 8 S## # # # # # I#T#U#V#u#]@]@7@          ",
"              # W#/ / / /@X#Y#M#Z#N#O#A#P#O.}#`#Q# $/ / 8 .$# z +$F , @$#$6@F+]@F+{@            ",
"            # W#5./ / $$%$&$*$=$M#Z#N#O#A#P#O.}#-$;$>$/ / 8 i@# .$,$7@F+]@]@7@k@                ",
"          # '$/ / / )$!$~${$]$*$^$/$($_$:$<$%+&+}#[$}$|$/ / ^ U## G#u#u#k@                      ",
"        # w#8 / / L.1$2$3${${$4$5$6$/ / / 7$8$%+&+*+[$9$0$/ / a$[+#                             ",
"      # b$p./ / / c$d$e$f$3${$g$h$x./ / / / i$j$P#&+*+-$k$l$/ / d#m$#                           ",
"    # H#f+/ / 4#n$o$p$q$e$f$3$~$h$/ r$s$t$/ / u$o#N.&+*+[$v$w$/ / x$y$k                         ",
"  # z$l./ / g A$B$C$D$p$q$e$f$2$E$/ F$# ' d#/ / G$O#N.&+*+H$I$J$/ / 3.K$@                       ",
"I#y$V / / / L$M$N$O$C$D$P$Q$R$S$T$/ 5@# # H#8 / U$V$o#P#&+*+=+W$X$/ / w.} j                     ",
"# C a$/ Y$Z$`$ %.%N$+%@%#%$%%%g / / &%# I## *%=%/ / -%n+3+&+*+;%>%,%/ / x i#6                   ",
"# C a$f+'%)%!%~%{%]%^%/%/ / / / / / V## i@D## i@/ / / (%_%3+&+*+P.p+:%/ l.<%# T                 ",
"# B a$6$[%}%|%!%~% %1%/ / p.2%X+k+&%3%# 4%Z.K$# 5%/ / 6%7%n+3+&+*+o+8%/ =%9%# #$(#              ",
"# B a$6$0%a%}%b%c%d%/ / ^ e%# # # # # # f%{@g%} # h%8 / L.i%n+3+J+P.j%/ =%k%# : 7@              ",
"# B a$q.l%m%n%o%p%/ / / h%# q%#+r%r%r%t#3%(#    7 # @$/ / s%t%u%v%w%x%/ ( s## l#F+              ",
"# B a$6.y%z%z%A%B%/ / C%# k r$k#V#V#V#V#l#F+      ! # D%/ / }.6+6+P@9./ ( +$# (#F+              ",
"# E%w@f+f+f+f+f+f+f+F%* j ; F+]@]@F+F+]@F+F+        j @ G%/ / / / / / / ( H%# {@F+              ",
"# ~@*%I%I%I%I%I%J%5%j## 5%u#]@F+                      j I#K%L%G+L%L%L%L%M%A # k@F+              ",
"# # # # # # # # # # # b$F+]@]@                          j * I#I#I#I#I#I#I#k # e+F+              ",
"  N%.$O%O%i@i@-., P%4%l#]@]@h                             T#~@Q%Q%Q%Q%Q%Q%Q%U e+F+              ",
"    h k@k@k@k@k@k@k@{@]@]@{@                              6@{@e+e+e+e+e+e+e+e+]@]@              ",
"        J.@@@@@@@@J.@+                                      @@]@]@]@]@]@]@]@]@]@F+              "};
