/* XPM */
static char * leafpad_xpm[] = {
"48 48 916 2",
"  	c None",
". 	c #4D9A05",
"+ 	c #4E9A06",
"@ 	c #4E9A05",
"# 	c #4A9601",
"$ 	c #4A9700",
"% 	c #5DAA15",
"& 	c #4C9804",
"* 	c #549E0C",
"= 	c #5BA415",
"- 	c #81C341",
"; 	c #B3EA7D",
"> 	c #58A210",
", 	c #459300",
"' 	c #529F09",
") 	c #63AB1E",
"! 	c #74B833",
"~ 	c #8BC94E",
"{ 	c #A1DC68",
"] 	c #B0EC74",
"^ 	c #BDF387",
"/ 	c #7EBF40",
"( 	c #499600",
"_ 	c #4A9702",
": 	c #499601",
"< 	c #489500",
"[ 	c #539F0A",
"} 	c #65AE1F",
"| 	c #78BD37",
"1 	c #8DCD51",
"2 	c #A3DE6C",
"3 	c #B1E67C",
"4 	c #B2E97C",
"5 	c #A9E96C",
"6 	c #9EE755",
"7 	c #90E43E",
"8 	c #90E33F",
"9 	c #AAE472",
"0 	c #57A111",
"a 	c #529E0B",
"b 	c #559F0E",
"c 	c #58A112",
"d 	c #5CA516",
"e 	c #69B125",
"f 	c #7ABD3A",
"g 	c #8ACA4D",
"h 	c #9AD660",
"i 	c #A9E371",
"j 	c #B8EF83",
"k 	c #BDF18A",
"l 	c #BAF086",
"m 	c #B5EE7E",
"n 	c #AAEB6B",
"o 	c #9FE658",
"p 	c #92E443",
"q 	c #89E132",
"r 	c #88E131",
"s 	c #88DF32",
"t 	c #97E34C",
"u 	c #90CD57",
"v 	c #509B09",
"w 	c #449300",
"x 	c #4F9B06",
"y 	c #66AD23",
"z 	c #7ABC3B",
"A 	c #8DCA53",
"B 	c #9DD666",
"C 	c #A9E172",
"D 	c #B0E978",
"E 	c #B6EF7D",
"F 	c #B4EF7A",
"G 	c #AEED71",
"H 	c #A9EB68",
"I 	c #A4E960",
"J 	c #9FE758",
"K 	c #99E64F",
"L 	c #95E446",
"M 	c #8FE33D",
"N 	c #8CE238",
"O 	c #8CE138",
"P 	c #8BE236",
"Q 	c #89DF34",
"R 	c #84DB2F",
"S 	c #A8E86A",
"T 	c #75B835",
"U 	c #59A312",
"V 	c #8ECB53",
"W 	c #B3E680",
"X 	c #B5EA82",
"Y 	c #ADEA72",
"Z 	c #A4E961",
"` 	c #9AE650",
" .	c #97E54C",
"..	c #97E44A",
"+.	c #95E448",
"@.	c #94E446",
"#.	c #95E745",
"$.	c #94E745",
"%.	c #93E643",
"&.	c #95E844",
"*.	c #94E843",
"=.	c #91E441",
"-.	c #90E340",
";.	c #90E23F",
">.	c #8FE23E",
",.	c #8EE33D",
"'.	c #8EE23C",
").	c #8DE33A",
"!.	c #8BE038",
"~.	c #85D835",
"{.	c #87DF31",
"].	c #B2E97D",
"^.	c #62AA1E",
"/.	c #4D9905",
"(.	c #56A010",
"_.	c #8ECC53",
":.	c #BEF18B",
"<.	c #B1ED76",
"[.	c #9DE655",
"}.	c #91E340",
"|.	c #92E342",
"1.	c #93E345",
"2.	c #95E447",
"3.	c #95E547",
"4.	c #97E748",
"5.	c #71AE35",
"6.	c #689F31",
"7.	c #7CBE3A",
"8.	c #61962E",
"9.	c #669D30",
"0.	c #8FDD42",
"a.	c #92E343",
"b.	c #92E441",
"c.	c #91E440",
"d.	c #8CE13C",
"e.	c #85D537",
"f.	c #89DC36",
"g.	c #B0E57C",
"h.	c #529D0A",
"i.	c #4F5352",
"j.	c #4C9803",
"k.	c #74B734",
"l.	c #B2E77E",
"m.	c #ADED6E",
"n.	c #98E54D",
"o.	c #91E341",
"p.	c #93E344",
"q.	c #95E548",
"r.	c #96E549",
"s.	c #95E349",
"t.	c #8FDB46",
"u.	c #91DD47",
"v.	c #96E449",
"w.	c #90DB46",
"x.	c #8CD644",
"y.	c #90DB45",
"z.	c #88D142",
"A.	c #89D342",
"B.	c #8EDB43",
"C.	c #94E445",
"D.	c #91E442",
"E.	c #8CDC3E",
"F.	c #85D139",
"G.	c #8BDC3B",
"H.	c #8CE339",
"I.	c #9DE755",
"J.	c #A7DF71",
"K.	c #5C5E5A",
"L.	c #6C6E6B",
"M.	c #565957",
"N.	c #3A3F40",
"O.	c #7BBD3C",
"P.	c #B8ED83",
"Q.	c #93E443",
"R.	c #94E447",
"S.	c #96E54A",
"T.	c #96E44A",
"U.	c #99E74C",
"V.	c #83C541",
"W.	c #649732",
"X.	c #699E35",
"Y.	c #95E14B",
"Z.	c #73AF3A",
"`.	c #69A035",
" +	c #6AA034",
".+	c #649932",
"++	c #649931",
"@+	c #639830",
"#+	c #92E046",
"$+	c #8AD73F",
"%+	c #86D03D",
"&+	c #8EDF3F",
"*+	c #8DE23A",
"=+	c #A6E964",
"-+	c #97D35D",
";+	c #3C9100",
">+	c #AFB4B3",
",+	c #7A7D79",
"'+	c #7A7D77",
")+	c #80827D",
"!+	c #838582",
"~+	c #4E5352",
"{+	c #6DB22B",
"]+	c #C0F28E",
"^+	c #99E550",
"/+	c #93E444",
"(+	c #97E54A",
"_+	c #97E54B",
":+	c #98E64D",
"<+	c #99E54E",
"[+	c #9AE84F",
"}+	c #9CEA50",
"|+	c #9DEA50",
"1+	c #9AE64F",
"2+	c #9CE950",
"3+	c #9BEA50",
"4+	c #9BEA4F",
"5+	c #9CEA4F",
"6+	c #9BE94E",
"7+	c #9AE94C",
"8+	c #92E047",
"9+	c #88D241",
"0+	c #89D341",
"a+	c #92E244",
"b+	c #8EE23B",
"c+	c #ADEB6F",
"d+	c #8CCB51",
"e+	c #416F2B",
"f+	c #ABACAB",
"g+	c #DFDFDD",
"h+	c #D1D2CF",
"i+	c #797B77",
"j+	c #737675",
"k+	c #32383B",
"l+	c #5AA314",
"m+	c #B4E883",
"n+	c #8EDE40",
"o+	c #8EDB44",
"p+	c #8FDB45",
"q+	c #90DB47",
"r+	c #91DB48",
"s+	c #92DC4A",
"t+	c #98E54E",
"u+	c #95DF4D",
"v+	c #94DD4D",
"w+	c #96DF4F",
"x+	c #95DD4E",
"y+	c #9BE552",
"z+	c #9AE551",
"A+	c #9AE74F",
"B+	c #95E14C",
"C+	c #8ED647",
"D+	c #8BD345",
"E+	c #8CD645",
"F+	c #8FDC46",
"G+	c #8DDA42",
"H+	c #8DDB41",
"I+	c #8FE23D",
"J+	c #B6F273",
"K+	c #69A07C",
"L+	c #406B9C",
"M+	c #5A7590",
"N+	c #495864",
"O+	c #898B89",
"P+	c #D3D3D1",
"Q+	c #878884",
"R+	c #5E6161",
"S+	c #303639",
"T+	c #84C348",
"U+	c #AEEB72",
"V+	c #91E142",
"W+	c #73B237",
"X+	c #639930",
"Y+	c #659932",
"Z+	c #659934",
"`+	c #6A9E37",
" @	c #92DB4C",
".@	c #70A73B",
"+@	c #6A9E38",
"@@	c #93DB4F",
"#@	c #71A83D",
"$@	c #6B9F39",
"%@	c #93D94F",
"&@	c #9CE654",
"*@	c #9CE753",
"=@	c #9BE652",
"-@	c #91D74C",
";@	c #8CD049",
">@	c #93DC4C",
",@	c #99E74E",
"'@	c #6EA737",
")@	c #63992F",
"!@	c #659D2F",
"~@	c #8DDC39",
"{@	c #69A286",
"]@	c #3969A7",
"^@	c #6996C8",
"/@	c #6896C8",
"(@	c #5783B5",
"_@	c #324355",
":@	c #B2B3B2",
"<@	c #979998",
"[@	c #282E31",
"}@	c #549F0D",
"|@	c #A9DF74",
"1@	c #91DF45",
"2@	c #94E248",
"3@	c #99E94C",
"4@	c #97E44E",
"5@	c #98E44F",
"6@	c #9AE451",
"7@	c #9BE553",
"8@	c #9CE553",
"9@	c #9BE554",
"0@	c #99E154",
"a@	c #9CE456",
"b@	c #A0EA58",
"c@	c #9EE758",
"d@	c #9EE658",
"e@	c #9EE757",
"f@	c #9DE656",
"g@	c #98DE52",
"h@	c #8FD14D",
"i@	c #91D74F",
"j@	c #97E14E",
"k@	c #97E34D",
"l@	c #9AE94E",
"m@	c #99E94A",
"n@	c #97E848",
"o@	c #68AA6F",
"p@	c #3868A5",
"q@	c #6C99CA",
"r@	c #6A96C8",
"s@	c #5A89BE",
"t@	c #5785BB",
"u@	c #567394",
"v@	c #4F5557",
"w@	c #D0D1D1",
"x@	c #5FA71A",
"y@	c #B6EF80",
"z@	c #98E74B",
"A@	c #75B339",
"B@	c #73AF39",
"C@	c #96E24C",
"D@	c #7EBE41",
"E@	c #72A93C",
"F@	c #74AB3D",
"G@	c #77B040",
"H@	c #98E052",
"I@	c #7EB845",
"J@	c #76AC42",
"K@	c #76AC43",
"L@	c #9EE458",
"M@	c #A0E85B",
"N@	c #A1E85B",
"O@	c #9BE057",
"P@	c #93D552",
"Q@	c #93D752",
"R@	c #9BE155",
"S@	c #9EE756",
"T@	c #9BE453",
"U@	c #81BF44",
"V@	c #73AA3C",
"W@	c #97E24D",
"X@	c #9BEB47",
"Y@	c #69AA71",
"Z@	c #3D6EA9",
"`@	c #6B96C8",
" #	c #5988BE",
".#	c #5784BA",
"+#	c #7397C4",
"@#	c #4D71A2",
"##	c #2A394B",
"$#	c #4A9701",
"%#	c #7DBE3F",
"&#	c #B1EE75",
"*#	c #93DF49",
"=#	c #94DF4B",
"-#	c #99E54F",
";#	c #98E14F",
">#	c #97DF50",
",#	c #9DE657",
"'#	c #9CE157",
")#	c #9BE158",
"!#	c #9CE159",
"~#	c #9CE15A",
"{#	c #A1E75C",
"]#	c #A1E75D",
"^#	c #96D857",
"/#	c #92D254",
"(#	c #A0E75B",
"_#	c #9FE75A",
":#	c #9FE659",
"<#	c #9EE657",
"[#	c #99E253",
"}#	c #9AE550",
"|#	c #9EEC4B",
"1#	c #62A17B",
"2#	c #3969A6",
"3#	c #6B97C8",
"4#	c #6895C7",
"5#	c #799CC7",
"6#	c #4D74A8",
"7#	c #1F4986",
"8#	c #98D45F",
"9#	c #A8EB68",
"0#	c #97E44C",
"a#	c #95E04C",
"b#	c #96DF4E",
"c#	c #99E054",
"d#	c #9AE056",
"e#	c #9BE157",
"f#	c #A2E85E",
"g#	c #A3E85F",
"h#	c #A1E55E",
"i#	c #96D758",
"j#	c #97D859",
"k#	c #9FE45D",
"l#	c #9EE25C",
"m#	c #A2E75E",
"n#	c #9EE35B",
"o#	c #9BE058",
"p#	c #9AE355",
"q#	c #97E052",
"r#	c #97E051",
"s#	c #6AAA75",
"t#	c #6E9ACA",
"u#	c #6A97C8",
"v#	c #5684BA",
"w#	c #7297C4",
"x#	c #4E75A8",
"y#	c #1A4483",
"z#	c #ABE276",
"A#	c #97E44B",
"B#	c #75AE3D",
"C#	c #74AB3E",
"D#	c #75AC3F",
"E#	c #76AC41",
"F#	c #77AD44",
"G#	c #78AD45",
"H#	c #78AC46",
"I#	c #A0E45E",
"J#	c #9FE25E",
"K#	c #97D75B",
"L#	c #9EE05E",
"M#	c #A6EB63",
"N#	c #88C051",
"O#	c #7DB14A",
"P#	c #A1E55F",
"Q#	c #86C04F",
"R#	c #77AB45",
"S#	c #78AD44",
"T#	c #9DE358",
"U#	c #85C14A",
"V#	c #79B13C",
"W#	c #55896B",
"X#	c #3E6EA9",
"Y#	c #6C98C9",
"Z#	c #4E74A8",
"`#	c #1E4986",
" $	c #479500",
".$	c #B8EB86",
"+$	c #A1E75A",
"@$	c #97E050",
"#$	c #9BE056",
"$$	c #9DE15C",
"%$	c #A3E861",
"&$	c #9FE15F",
"*$	c #99D75C",
"=$	c #A3E663",
"-$	c #A6E965",
";$	c #A2E463",
">$	c #A1E361",
",$	c #A4E862",
"'$	c #A1E45F",
")$	c #9EE15D",
"!$	c #9DE15B",
"~$	c #A0E75C",
"{$	c #A2E956",
"]$	c #619B7D",
"^$	c #3767A5",
"/$	c #6D98C9",
"($	c #789CC7",
"_$	c #4F75AA",
":$	c #1D4788",
"<$	c #479400",
"[$	c #BFF18F",
"}$	c #97E44D",
"|$	c #99E053",
"1$	c #9DE658",
"2$	c #9CE358",
"3$	c #A3E860",
"4$	c #A5E962",
"5$	c #A0E361",
"6$	c #9BD95E",
"7$	c #A6E766",
"8$	c #A4E565",
"9$	c #A3E365",
"0$	c #A3E464",
"a$	c #A6E866",
"b$	c #A4E861",
"c$	c #9FE35E",
"d$	c #9DE25B",
"e$	c #6FAC7C",
"f$	c #6F9BCA",
"g$	c #7197C4",
"h$	c #4E74AA",
"i$	c #255376",
"j$	c #428526",
"k$	c #C1F290",
"l$	c #A0E85A",
"m$	c #90D84A",
"n$	c #73A93C",
"o$	c #74AC3F",
"p$	c #75AB41",
"q$	c #9CE258",
"r$	c #86C24D",
"s$	c #78AD46",
"t$	c #A5EA62",
"u$	c #A1E261",
"v$	c #9CDB5F",
"w$	c #A5E766",
"x$	c #AAEC6A",
"y$	c #8CC258",
"z$	c #7DAD4F",
"A$	c #7EAF50",
"B$	c #81B351",
"C$	c #A3E266",
"D$	c #86BB53",
"E$	c #7FB24E",
"F$	c #A0E161",
"G$	c #88BF4B",
"H$	c #578A6F",
"I$	c #3F6FAA",
"J$	c #6E99C9",
"K$	c #6B98C8",
"L$	c #5683BA",
"M$	c #4C71AA",
"N$	c #3C6789",
"O$	c #84BD60",
"P$	c #499800",
"Q$	c #469400",
"R$	c #C1F191",
"S$	c #99E450",
"T$	c #9FE75B",
"U$	c #9EE45C",
"V$	c #A2E462",
"W$	c #9DDB61",
"X$	c #A6E867",
"Y$	c #A9EA6A",
"Z$	c #A9EA6B",
"`$	c #A7E56A",
" %	c #A6E46A",
".%	c #A9E86C",
"+%	c #A9E86B",
"@%	c #ACED6D",
"#%	c #A8E969",
"$%	c #A3E466",
"%%	c #ACF063",
"&%	c #659D83",
"*%	c #6F9AC9",
"=%	c #6996C7",
"-%	c #779CC7",
";%	c #33647A",
">%	c #9FD975",
",%	c #A0D869",
"'%	c #449200",
")%	c #B9EB88",
"!%	c #9FE35D",
"~%	c #A3E762",
"{%	c #9EDD60",
"]%	c #AAE96C",
"^%	c #AAEA6E",
"/%	c #ACEB6F",
"(%	c #7DAB51",
"_%	c #729D4A",
":%	c #729C49",
"<%	c #719B48",
"[%	c #A3E166",
"}%	c #629678",
"|%	c #3766A5",
"1%	c #719CCB",
"2%	c #6C98C8",
"3%	c #5583BA",
"4%	c #7196C3",
"5%	c #4F75AB",
"6%	c #2B5A7C",
"7%	c #88D056",
"8%	c #ADED70",
"9%	c #A1D86C",
"0%	c #B0E47D",
"a%	c #A5E963",
"b%	c #92D74F",
"c%	c #74A940",
"d%	c #77AC43",
"e%	c #9EE35A",
"f%	c #88C24F",
"g%	c #7AAD49",
"h%	c #9DDD5F",
"i%	c #A4E465",
"j%	c #A8EA69",
"k%	c #AAEA6B",
"l%	c #ACEB70",
"m%	c #ADEA71",
"n%	c #AEEB73",
"o%	c #A9E46F",
"p%	c #A6E16C",
"q%	c #A5E16B",
"r%	c #A5E66C",
"s%	c #6FAD88",
"t%	c #4070AA",
"u%	c #4D72AB",
"v%	c #35657E",
"w%	c #8CD25C",
"x%	c #9EEA4E",
"y%	c #AEEB71",
"z%	c #9ED568",
"A%	c #489600",
"B%	c #A5DC71",
"C%	c #A9EA69",
"D%	c #9BE555",
"E%	c #9BDB5D",
"F%	c #A1E162",
"G%	c #ABEA6D",
"H%	c #ADEB71",
"I%	c #AFEB73",
"J%	c #AFEB75",
"K%	c #B0EC75",
"L%	c #AEEC73",
"M%	c #ADEF74",
"N%	c #B4BA47",
"O%	c #737268",
"P%	c #6897CF",
"Q%	c #779BC7",
"R%	c #5076AB",
"S%	c #36667F",
"T%	c #91D65C",
"U%	c #9AE252",
"V%	c #93DB4C",
"W%	c #A9E372",
"X%	c #95CD5F",
"Y%	c #94CF5C",
"Z%	c #AEEC71",
"`%	c #9FE05F",
" &	c #ABEB6E",
".&	c #AFEB74",
"+&	c #B0EC77",
"@&	c #B1EC77",
"#&	c #B0EC76",
"$&	c #BC8516",
"%&	c #E5D08E",
"&&	c #BCCEC6",
"*&	c #6490BE",
"=&	c #7096C3",
"-&	c #5177AB",
";&	c #28567C",
">&	c #81BE59",
",&	c #8ECE4E",
"'&	c #8ED14D",
")&	c #8FD64A",
"!&	c #ADE478",
"~&	c #8BC653",
"{&	c #439200",
"]&	c #82C145",
"^&	c #B3EE79",
"/&	c #9BE653",
"(&	c #9DE756",
"_&	c #A1E75E",
":&	c #9FE15E",
"<&	c #A4E762",
"[&	c #A7E966",
"}&	c #A5E369",
"|&	c #A4E16A",
"1&	c #A5E16D",
"2&	c #A7E16F",
"3&	c #B1EC79",
"4&	c #ACE576",
"5&	c #A8E372",
"6&	c #AFC452",
"7&	c #C38D2A",
"8&	c #FFFBC4",
"9&	c #FFFDBC",
"0&	c #C7D1BB",
"a&	c #6891C5",
"b&	c #5075AC",
"c&	c #2D597A",
"d&	c #7AB357",
"e&	c #8DCB4D",
"f&	c #8DCD4F",
"g&	c #8FD24D",
"h&	c #8FD649",
"i&	c #B4E684",
"j&	c #7BBA3E",
"k&	c #6EB22C",
"l&	c #B9F083",
"m&	c #9CE754",
"n&	c #9FE35C",
"o&	c #A1E45E",
"p&	c #7CAA4E",
"q&	c #719D49",
"r&	c #739D4B",
"s&	c #749D4D",
"t&	c #7AA251",
"u&	c #A8E071",
"v&	c #81AC57",
"w&	c #779D4E",
"x&	c #A58922",
"y&	c #E3C77A",
"z&	c #FFFAC2",
"A&	c #FFFBC3",
"B&	c #FFFCC1",
"C&	c #7B8892",
"D&	c #254D77",
"E&	c #50753B",
"F&	c #86C04C",
"G&	c #8BC94F",
"H&	c #8CCD4E",
"I&	c #91D54C",
"J&	c #BBE98F",
"K&	c #63A922",
"L&	c #5AA315",
"M&	c #BBF088",
"N&	c #9FE65A",
"O&	c #9EE25B",
"P&	c #A2E860",
"Q&	c #A4E963",
"R&	c #A6E966",
"S&	c #A8EA68",
"T&	c #ACEE6C",
"U&	c #AEEE6F",
"V&	c #AFEF72",
"W&	c #B1EF73",
"X&	c #B2EF76",
"Y&	c #AFEC75",
"Z&	c #B2F077",
"`&	c #A6DE6C",
" *	c #5F4E19",
".*	c #E7D89B",
"+*	c #E7C97D",
"@*	c #CF9F43",
"#*	c #B97D12",
"$*	c #B38419",
"%*	c #7FAE4E",
"&*	c #89C54F",
"**	c #8CCB4E",
"=*	c #91D350",
"-*	c #96DD51",
";*	c #A2E65F",
">*	c #C1F192",
",*	c #57A011",
"'*	c #B0E57D",
")*	c #9FE65B",
"!*	c #A0E25F",
"~*	c #9EDF60",
"{*	c #A0DF62",
"]*	c #A1E065",
"^*	c #A2E067",
"/*	c #A5E36A",
"(*	c #ABEA6F",
"_*	c #AAE56F",
":*	c #A8E46F",
"<*	c #6A8E44",
"[*	c #000000",
"}*	c #755B13",
"|*	c #A28B23",
"1*	c #989E36",
"2*	c #8FB348",
"3*	c #89C455",
"4*	c #8FCC55",
"5*	c #95D457",
"6*	c #9ADE59",
"7*	c #9EE559",
"8*	c #9FE858",
"9*	c #B0ED75",
"0*	c #98D260",
"a*	c #479300",
"b*	c #539D0D",
"c*	c #A5DB72",
"d*	c #A0E75A",
"e*	c #9CE556",
"f*	c #9DE458",
"g*	c #A1E85C",
"h*	c #A4EA5F",
"i*	c #77A947",
"j*	c #6E9B42",
"k*	c #6F9B44",
"l*	c #709C45",
"m*	c #719C46",
"n*	c #76A14A",
"o*	c #AAE86E",
"p*	c #85B656",
"q*	c #749F4B",
"r*	c #5C7B39",
"s*	c #87B956",
"t*	c #A2DB63",
"u*	c #A4E366",
"v*	c #A3E564",
"w*	c #A3E760",
"x*	c #9FE759",
"y*	c #9EE656",
"z*	c #BDF08C",
"A*	c #63AB20",
"B*	c #4E9708",
"C*	c #92CC5A",
"D*	c #9BE455",
"E*	c #A5EB61",
"F*	c #A7ED64",
"G*	c #A8ED66",
"H*	c #A9ED68",
"I*	c #ABEE6A",
"J*	c #ABEE6B",
"K*	c #ABEA6C",
"L*	c #ADED6F",
"M*	c #AEEF6F",
"N*	c #A7E967",
"O*	c #A5E964",
"P*	c #A2E75D",
"Q*	c #9CE655",
"R*	c #ADEB70",
"S*	c #9DD468",
"T*	c #509A0A",
"U*	c #7BBD3D",
"V*	c #A4E962",
"W*	c #A9E96A",
"X*	c #A9E96B",
"Y*	c #A6E865",
"Z*	c #AFEC74",
"`*	c #B7E788",
" =	c #5FA71B",
".=	c #68AF25",
"+=	c #B0E979",
"@=	c #9CE755",
"#=	c #A5E863",
"$=	c #A8EA67",
"%=	c #A0E85C",
"&=	c #BAEF86",
"*=	c #B8E988",
"==	c #5BA416",
"-=	c #428702",
";=	c #5CA616",
">=	c #ADE775",
",=	c #9BE753",
"'=	c #9DE654",
")=	c #A5E864",
"!=	c #A5E865",
"~=	c #A2E85F",
"{=	c #B2ED7A",
"]=	c #BFED92",
"^=	c #9ED668",
"/=	c #519C09",
"(=	c #468B04",
"_=	c #8BD049",
":=	c #AFEC73",
"<=	c #A4E467",
"[=	c #AAE86D",
"}=	c #B0EE74",
"|=	c #AEEC72",
"1=	c #ADEC70",
"2=	c #ACEB6E",
"3=	c #A7E968",
"4=	c #AAEA6C",
"5=	c #B6EE7E",
"6=	c #BCF189",
"7=	c #B0E380",
"8=	c #6AB028",
"9=	c #479100",
"0=	c #8DD546",
"a=	c #A8EC64",
"b=	c #8BD246",
"c=	c #539E0C",
"d=	c #57A110",
"e=	c #6CB227",
"f=	c #7DC03D",
"g=	c #8CCC4F",
"h=	c #9AD560",
"i=	c #A7E071",
"j=	c #C0F190",
"k=	c #C5F398",
"l=	c #C8F49D",
"m=	c #C9F49F",
"n=	c #CAF4A1",
"o=	c #CBF4A2",
"p=	c #CBF5A2",
"q=	c #C8F49E",
"r=	c #BEEC8F",
"s=	c #ADE17C",
"t=	c #97D160",
"u=	c #7CBC3E",
"v=	c #5EA719",
"w=	c #559F0F",
"x=	c #4A9207",
"y=	c #519D08",
"z=	c #87D43B",
"A=	c #9CE752",
"B=	c #87D13F",
"C=	c #4F9B07",
"D=	c #468F02",
"E=	c #479201",
"F=	c #489400",
"G=	c #469300",
"H=	c #559F0D",
"I=	c #529D0B",
"J=	c #4E9A04",
"K=	c #479200",
"L=	c #448A02",
"M=	c #7DCE2E",
"N=	c #95E744",
"O=	c #81D035",
"P=	c #539F0B",
"Q=	c #4C9704",
"R=	c #71C223",
"S=	c #93E840",
"T=	c #7ECF30",
"U=	c #6EBF21",
"V=	c #4F9C07",
"W=	c #4A9603",
"                                                                                                ",
"                                                                                                ",
"                                                                                                ",
"                                                                                        .       ",
"                                                                                      + @       ",
"                                                                                # $ % &         ",
"                                                                          + * = - ; >           ",
"                                                                , , ' ) ! ~ { ] ^ / (           ",
"                                                _ : ( < < [ } | 1 2 3 4 5 6 7 8 9 0             ",
"                                    + a b c d e f g h i j k l m n o p q r q s t u v             ",
"                            w x y z A B C D E F G H I J K L M N N N O O P Q R S T               ",
"                        # U V W X Y Z `  ...+.@.#.$.%.&.*.=.-.;.>.,.'.).!.~.{.].^.              ",
"                    /.(._.:.<.[.}.|.1.@.2.3.3.4.5.6.7.8.9.0.a.b.c.8 M d.e.f.a.g.h.      i.      ",
"                  j.k.l.m.n.o.p.@.2.q.r.s.t.u.v.w.x.y.z.A.B.C.p.p D.E.F.G.H.I.J.,     K.L.M.N.  ",
"                ( O.P.` Q.1.R.2.r.S.T.U.V.W.X.Y.Z.`. +.+++@+#+3.C.$+%+&+8 *+=+-+;+>+,+'+)+!+~+  ",
"              ( {+]+^+/+@.3.r.(+_+n.:+<+[+}+|+1+2+3+4+5+6+7+_+8+9+0+a+p =.b+c+d+e+f+g+h+)+i+j+k+",
"              l+m+J n+o+p+q+r+s+t+u+v+` w+x+y+y+y+y+z+` A+B+C+D+E+F+o+G+H+I+J+K+L+M+N+O+P+Q+R+S+",
"            /.T+U+V+W+X+.+Y+Z+`+ @.@+@@@#@$@%@I.&@&@*@=@-@;@>@,@'@.+X+)@!@~@{@]@^@/@(@_@:@<@[@  ",
"            }@|@1+1@2@3@n.4@5@6@7@8@9@0@a@b@c@d@e@f@g@h@i@y+=@j@k@l@7+m@n@o@p@q@r@s@t@u@v@w@    ",
"            x@y@z@A@B@C@D@E@F@G@H@I@J@J@K@L@M@N@O@P@Q@R@S@I.T@U@V@W@n.X@Y@Z@`@r@ #.#+#@###      ",
"          $#%#&#q.*#=#-#;#>#H@0@,#'#)#!#~#{#]#^#/#!#(#_#:#<#f@[#>#}#|#1#2#3#4#s@.#5#6#7#        ",
"          ( 8#9#T.0#a#b#>#H@c#d#e#!#]#f#g#h#i#j#k#l#m#n#!#o#<#p#q#r#s#2#t#u#s@v#w#x#y#          ",
"          < z#I A#a#B#C#D#E#J@F#G#H#I#I J#K#L#M#N#O#P#Q#R#S#T#U#V#W#X#Y#3# #v#w#Z#`#            ",
"           $.$+$n.-#@$H@c##$)#~#$$J#%$&$*$=$-$-$;$>$,$'$)$!$~${$]$^$/$4#s@v#($_$:$              ",
"          <$[$J }$w+r#|$1$2$~#m#3$4$5$6$7$8$9$9$0$a$;$>$b$c$d$e$2#f$3#s@v#g$h$i$j$              ",
"          <$k$l$m$n$o$p$q$r$s$P#t$u$v$w$x$y$z$A$B$C$D$E$F$G$H$I$J$K$ #L$g$M$N$O$P$              ",
"          Q$R$(#S$>#|$d#T$U$)$,$V$W$X$Y$Z$`$ %.%+%@%#%$%%%&%^$*%=%s@L$-%_$;%>%,%'%              ",
"           $)%f#z+7@c#O@~$!%J#~%{%7$Y$]%^%/%G (%_%:%<%[%}%|%1%2%s@3%4%5%6%7%8%9%'%              ",
"          < 0%a%=@b%c%d%e%f%g%h%i%j%k%^%l%m%n%o%p%q%r%s%t%*%2% #3%4%u%v%w%x%y%z%'%              ",
"          A%B%C%7@D%d#!#]#h#E%F%j%Z$G%/%H%I%J%K%L%M%N%O%P%=%s@3%Q%R%S%T%U%V%W%X%w               ",
"          ( Y%Z%=@f@:#(#f#P#`%-$j%Z$ &H%.&K%+&@&#&n%$&%&&&*&3%=&-&;&>&,&'&)&!&~&{&              ",
"          $#]&^&/&(&:#(#_&:&<&[&j%}&|&1&2&W%3&4&5&6&7&8&9&0&a&b&c&d&e&f&g&h&i&j&                ",
"            k&l&m&f@o N@n&o&a%[&x$p&q&r&s&t&u&v&w&x&y&z&A&B&C&D&E&F&G&H&'&I&J&K&                ",
"            L&M&[.(&c@N&O&P&Q&R&S&T&U&V&W&X&Y&Z&`& *.*+*@*#*$*%*f%&***=*-*;*>*(                 ",
"            ,*'*J I.e@T#)*g#!*~*{*]*^*/*(*m%_*:*<*[*}*|*1*2*3*4*5*6*7*8*m&9*0*a*                ",
"            b*c*d*m&e*f*g*h*i*j*k*l*m*n* %o*p*q*r*s*t*u*$%v*~%w*f#M@x*y*e@z*A*                  ",
"            B*C*j%y+D*d@(#]#E*F*G*H*I*J*Z$K*L*M*M*n C%N*a$O*Z g#P*d*d@Q*R*S*T*                  ",
"              U*J%^+9@<#x*g*m#3$V*O*a$N*S&Y$W*X*j%j%N*Y*O*V*3$P*M@J [.Z*`* =                    ",
"              .=+=t+/&@=c@_#g*m#3$V*#=-$[&N*$=S&N*[&-$a%Z 3$_&%=o :#&=*===-=                    ",
"              ;=>=,='=(&S@d@_#(#P*w*%$,$)=)=)=!=)=#=,$3$g#f#~=4${=]=^=/=(=                      ",
"            /=_=:=<=[=X&X&}=|=1=2=k%W*j%#%N*3=3=Y$4=R*#&5=6=k$7=C*8=9=                          ",
"          j.0=a=b=c=d=;=e=f=g=h=i=X j=k=l=m=n=o=p=q=r=s=t=u=v=w=x=                              ",
"        y=z=A=B=C=        D=E=F=<$a*G=< @ * H=I=J=<$G=a*K=L=                                    ",
"      ' M=N=O=P=                                                                                ",
"    Q=R=S=T=C=                                                                                  ",
"      C=U=V=                                                                                    ",
"        W=                                                                                      ",
"                                                                                                "};
