/* XPM */
static char * librecad_xpm[] = {
"48 48 130 2",
"  	c None",
". 	c #B9E862",
"+ 	c #D3F19D",
"@ 	c #C4EB7A",
"# 	c #BEE96E",
"$ 	c #8ED900",
"% 	c #DAF2AB",
"& 	c #FFFFFF",
"* 	c #FFFFFE",
"= 	c #E4F6C3",
"- 	c #BFE96E",
"; 	c #A1E02C",
"> 	c #8ED901",
", 	c #A2E02D",
"' 	c #BFEA6F",
") 	c #E5F6C4",
"! 	c #FCFEF8",
"~ 	c #D2F09A",
"{ 	c #9EDF25",
"] 	c #9FDF26",
"^ 	c #D3F09C",
"/ 	c #FCFEF9",
"( 	c #E0F4B8",
"_ 	c #9EDE24",
": 	c #E1F5BB",
"< 	c #BBE866",
"[ 	c #F3FBE4",
"} 	c #F7FCEE",
"| 	c #A9E23C",
"1 	c #90DA04",
"2 	c #ABE342",
"3 	c #C6EC7E",
"4 	c #D6F1A3",
"5 	c #DCF3B1",
"6 	c #DCF3B0",
"7 	c #C5EC7D",
"8 	c #A9E23E",
"9 	c #F8FDEF",
"0 	c #A3E02F",
"a 	c #A1DF2A",
"b 	c #D5F1A1",
"c 	c #F7FCED",
"d 	c #A3E030",
"e 	c #A8E23B",
"f 	c #99DD18",
"g 	c #FEFFFC",
"h 	c #D3F09B",
"i 	c #98DC17",
"j 	c #BDE96A",
"k 	c #F2FBE1",
"l 	c #F3FBE5",
"m 	c #A5E135",
"n 	c #C0EA70",
"o 	c #DFF4B7",
"p 	c #B1E550",
"q 	c #FBFEF6",
"r 	c #B1E54F",
"s 	c #9EDE23",
"t 	c #A5E133",
"u 	c #9FDF27",
"v 	c #D1F098",
"w 	c #F3FBE3",
"x 	c #D4F09D",
"y 	c #E3F6C0",
"z 	c #A0DF29",
"A 	c #FDFEFB",
"B 	c #A1DF2B",
"C 	c #BDE96B",
"D 	c #D6F1A2",
"E 	c #AEAEAE",
"F 	c #6A8040",
"G 	c #647E32",
"H 	c #647E34",
"I 	c #888A85",
"J 	c #8B8B8B",
"K 	c #949494",
"L 	c #90DA05",
"M 	c #8F9388",
"N 	c #4D4D4D",
"O 	c #5A5A5A",
"P 	c #ACE343",
"Q 	c #889770",
"R 	c #555555",
"S 	c #C5C5C5",
"T 	c #9FB86E",
"U 	c #79AB19",
"V 	c #B5CD8C",
"W 	c #869A61",
"X 	c #879962",
"Y 	c #849B5B",
"Z 	c #859A5B",
"` 	c #899870",
" .	c #9EB86D",
"..	c #8F9389",
"+.	c #ABE341",
"@.	c #6A8041",
"#.	c #647E33",
"$.	c #BEE96D",
"%.	c #D5F1A0",
"&.	c #C0EA71",
"*.	c #E6F7C7",
"=.	c #A0DF28",
"-.	c #F2FBE2",
";.	c #97DC15",
">.	c #D4F19F",
",.	c #FBFEF5",
"'.	c #A4E032",
").	c #FDFEFA",
"!.	c #E0F5BA",
"~.	c #B1E54E",
"{.	c #E2F5BE",
"].	c #C1EA74",
"^.	c #AAE23F",
"/.	c #D2F099",
"(.	c #98DC16",
"_.	c #F8FDF0",
":.	c #A4E031",
"<.	c #F9FDF1",
"[.	c #C6EC7F",
"}.	c #DEF4B4",
"|.	c #DDF4B3",
"1.	c #C3EB77",
"2.	c #E1F5BC",
"3.	c #E3F5BF",
"4.	c #E6F7C6",
"5.	c #C1EA72",
"6.	c #8FD902",
"7.	c #C1EA73",
"8.	c #C6EB7C",
"9.	c #C5EB7D",
"                                                                                                ",
"                                                                                                ",
"                                                                                                ",
"                                                                                                ",
"          . . . .                         + @ # # @ +                         . . . .           ",
"        . $ $ $ $ % & & & & & & * = - ; > $ $ $ $ $ $ > , ' ) * & & & & & & % $ $ $ $ .         ",
"        . $ $ $ $ % & & & & ! ~ { $ $ $ $ $ $ $ $ $ $ $ $ $ $ ] ^ / & & & & % $ $ $ $ .         ",
"        . $ $ $ $ % & & & ( _ $ $ $ $ $ $ $ $ $ $ $ $ $ $ $ $ $ $ ] : & & & % $ $ $ $ .         ",
"        . $ $ $ $ % & ! - > $ $ $ $ $ $ $ $ $ $ $ $ $ $ $ $ $ $ $ $ $ < / & % $ $ $ $ .         ",
"          % % % % [ } | $ $ $ $ $ $ $ 1 2 3 4 5 6 4 7 2 1 $ $ $ $ $ $ $ 8 9 [ % % % %           ",
"          & & & & } 0 $ $ $ $ $ $ a b c & & & & & & & & c b a $ $ $ $ $ $ d 9 & & & &           ",
"          & & & ! e $ $ $ $ $ f ^ g & & & & & & & & & & & & g h i $ $ $ $ $ 8 / & & &           ",
"          & & & j $ $ $ $ $ d k & & & & & & & & & & & & & & & & l m $ $ $ $ $ n & & &           ",
"          & & o $ $ $ $ $ p q & & & & & & & & & & & & & & & & & & q r $ $ $ $ > : & &           ",
"          & ! s $ $ $ $ m q & & & & & & & & & & & & & & & & & & & & q t $ $ $ $ u / &           ",
"          & v $ $ $ $ f l & & & & & & & & & & & & & & & & & & & & & & w i $ $ $ $ ^ &           ",
"          * _ $ $ $ $ x & & & & & & & & & & & & & & & & & & & & & & & & h $ $ $ $ ] *           ",
"          y $ $ $ $ z A & & & & & & & & & & & & & & & & & & & & & & & & g B $ $ $ $ )           ",
"          C $ $ $ $ 4 & & & & & & & & & & & & & & & & & & & & & & & & & & D $ $ $ $ '           ",
"        E F G G G H I J J K & & & & & & & & & & & & & & & & & & & & & & & 9 L $ $ $ ,           ",
"        M N N N N N N N N O & & & & & & & & & & & & & & & & & & & & & & & & P $ $ $ >           ",
"        Q N N N N N N N N R S S S S S S S S S S S S S S S S S S S S S S S S T U U U U V         ",
"        W N N N N N N N N N N N N N N N N N N N N N N N N N N N N N N N N N N N N N N X         ",
"        Y N N N N N N N N N N N N N N N N N N N N N N N N N N N N N N N N N N N N N N Z         ",
"        Y N N N N N N N N N N N N N N N N N N N N N N N N N N N N N N N N N N N N N N Z         ",
"        W N N N N N N N N N N N N N N N N N N N N N N N N N N N N N N N N N N N N N N X         ",
"        ` N N N N N N N N R S S S S S S S S S S S S S S S S S S S S S S S S  .U U U U V         ",
"        ..N N N N N N N N O & & & & & & & & & & & & & & & & & & & & & & & & +.$ $ $ >           ",
"        E @.G G G #.I J J K & & & & & & & & & & & & & & & & & & & & & & & c 1 $ $ $ 0           ",
"          $.$ $ $ $ b & & & & & & & & & & & & & & & & & & & & & & & & & & %.$ $ $ $ &.          ",
"          = $ $ $ $ u A & & & & & & & & & & & & & & & & & & & & & & & & g a $ $ $ $ *.          ",
"          * ] $ $ $ $ h & & & & & & & & & & & & & & & & & & & & & & & & v $ $ $ $ =.*           ",
"          & h $ $ $ $ i w & & & & & & & & & & & & & & & & & & & & & & -.;.$ $ $ $ >.&           ",
"          & / ] $ $ $ $ t q & & & & & & & & & & & & & & & & & & & & ,.'.$ $ $ $ z ).&           ",
"          & & !.> $ $ $ $ r q & & & & & & & & & & & & & & & & & & ,.~.$ $ $ $ > {.& &           ",
"          & & & - $ $ $ $ $ d k & & & & & & & & & & & & & & & & [ m $ $ $ $ $ ].& & &           ",
"          & & & / ^.$ $ $ $ $ i ~ A & & & & & & & & & & & & A /.(.$ $ $ $ $ 2 ).& & &           ",
"          & & & & _.:.$ $ $ $ $ $ a b } & & & & & & & & c b z $ $ $ $ $ $ '.<.& & & &           ",
"          % % % % [ _.^.$ $ $ $ $ $ $ 1 P [.4 }.|.4 3 2 1 $ $ $ $ $ $ $ 2 <.[ % % % %           ",
"        . $ $ $ $ % & A 1.> $ $ $ $ $ $ $ $ $ $ $ $ $ $ $ $ $ $ $ $ > - / & % $ $ $ $ .         ",
"        . $ $ $ $ % & & & 2.=.$ $ $ $ $ $ $ $ $ $ $ $ $ $ $ $ $ $ a 3.& & & % $ $ $ $ .         ",
"        . $ $ $ $ % & & & & ).x u $ $ $ $ $ $ $ $ $ $ $ $ $ $ =.>.).& & & & % $ $ $ $ .         ",
"        . $ $ $ $ % & & & & & & & 4.5.0 > $ $ $ $ $ $ 6.d 7.*.& & & & & & & % $ $ $ $ .         ",
"          . . . .                           8.# # 9.                          . . . .           ",
"                                                                                                ",
"                                                                                                ",
"                                                                                                ",
"                                                                                                "};
