/* XPM */
static char * logviewer_xpm[] = {
"48 48 367 2",
"  	c None",
". 	c #8F908C",
"+ 	c #888A85",
"@ 	c #8B8D89",
"# 	c #8D908B",
"$ 	c #8E8F8A",
"% 	c #8A8C88",
"& 	c #9FA19C",
"* 	c #F3F3F2",
"= 	c #92948F",
"- 	c #C3C4C2",
"; 	c #FFFFFF",
"> 	c #BEBFBC",
", 	c #949691",
"' 	c #F5F6F5",
") 	c #A1A39E",
"! 	c #DBDCDA",
"~ 	c #F2F3F2",
"{ 	c #FEFEFE",
"] 	c #90928C",
"^ 	c #EDEEED",
"/ 	c #CDCDCB",
"( 	c #8B8D88",
"_ 	c #ECECEA",
": 	c #FBFBFA",
"< 	c #FAFAF9",
"[ 	c #D4D5D2",
"} 	c #B6B7B5",
"| 	c #989A95",
"1 	c #7B7D79",
"2 	c #737671",
"3 	c #71736F",
"4 	c #8A8B87",
"5 	c #A8A9A6",
"6 	c #C6C6C5",
"7 	c #F2F3F1",
"8 	c #E7E7E5",
"9 	c #898B86",
"0 	c #D0D1CF",
"a 	c #8F928D",
"b 	c #F0F1F0",
"c 	c #B4B6B3",
"d 	c #8E908C",
"e 	c #DDDFDC",
"f 	c #ECEDEB",
"g 	c #DCDDDB",
"h 	c #91938F",
"i 	c #8C8E89",
"j 	c #AAACA7",
"k 	c #C5C7C3",
"l 	c #E5E5E5",
"m 	c #F8F8F7",
"n 	c #ECECEB",
"o 	c #C9CAC7",
"p 	c #A8AAA6",
"q 	c #898C87",
"r 	c #737570",
"s 	c #C5C7C4",
"t 	c #D8DAD8",
"u 	c #90928D",
"v 	c #B8BAB7",
"w 	c #90938E",
"x 	c #B1B3B0",
"y 	c #E3E4E1",
"z 	c #B9BBB7",
"A 	c #848682",
"B 	c #F7F7F6",
"C 	c #E9EAE7",
"D 	c #E0E3DE",
"E 	c #D9DCD5",
"F 	c #D3D7CF",
"G 	c #D7DAD3",
"H 	c #DFE2DC",
"I 	c #E6E8E3",
"J 	c #F0F1EE",
"K 	c #CBCDC9",
"L 	c #71736E",
"M 	c #949692",
"N 	c #E0E1DE",
"O 	c #E8E9E6",
"P 	c #E3E4E0",
"Q 	c #8D8F8B",
"R 	c #B4B5B3",
"S 	c #8E8F8B",
"T 	c #FAFAFA",
"U 	c #F1F1F0",
"V 	c #EFEFED",
"W 	c #A3A6A1",
"X 	c #979994",
"Y 	c #E9E9E8",
"Z 	c #EEEFEC",
"` 	c #D6D9D3",
" .	c #D9DBD6",
"..	c #DFE0DB",
"+.	c #E6E7E4",
"@.	c #EDEDEA",
"#.	c #E5E6E2",
"$.	c #DFE1DC",
"%.	c #DADDD6",
"&.	c #E5E7E3",
"*.	c #949592",
"=.	c #70726D",
"-.	c #8C8E88",
";.	c #FDFDFD",
">.	c #999B98",
",.	c #8C8F8A",
"'.	c #949591",
").	c #F9F9F9",
"!.	c #DFE2DD",
"~.	c #D5D8D1",
"{.	c #F2F2F1",
"].	c #F6F6F5",
"^.	c #F9F9F8",
"/.	c #F8F8F8",
"(.	c #F5F5F4",
"_.	c #F2F2F0",
":.	c #DFE1DB",
"<.	c #F0F1EF",
"[.	c #939591",
"}.	c #939491",
"|.	c #EEEEEC",
"1.	c #929490",
"2.	c #868883",
"3.	c #E3E4E3",
"4.	c #E3E6E1",
"5.	c #D4D8D2",
"6.	c #E5E6E4",
"7.	c #FCFCFC",
"8.	c #F7F8F7",
"9.	c #F0F0EF",
"0.	c #E6E7E5",
"a.	c #E1E3DF",
"b.	c #EBEBEA",
"c.	c #6A6C68",
"d.	c #BDBEBB",
"e.	c #E4E5E3",
"f.	c #B9BBB8",
"g.	c #F1F2EF",
"h.	c #D3D7D0",
"i.	c #E5E6E3",
"j.	c #F6F7F6",
"k.	c #FBFBFB",
"l.	c #FCFDFC",
"m.	c #F9FAF9",
"n.	c #F1F2F0",
"o.	c #E7E8E5",
"p.	c #E2E3DF",
"q.	c #C8C9C6",
"r.	c #676965",
"s.	c #DDDEDC",
"t.	c #E6E6E3",
"u.	c #F8F8F6",
"v.	c #D8DBD5",
"w.	c #E9E9E6",
"x.	c #FEFEFD",
"y.	c #F5F5F3",
"z.	c #E5E7E1",
"A.	c #EFF0EE",
"B.	c #82837F",
"C.	c #B4B5B2",
"D.	c #F0F0EE",
"E.	c #8E908B",
"F.	c #9D9F9B",
"G.	c #D9DCD6",
"H.	c #FDFDFC",
"I.	c #EAECE8",
"J.	c #A2A3A1",
"K.	c #919390",
"L.	c #898A85",
"M.	c #B6B7B3",
"N.	c #E7E9E5",
"O.	c #DCDFDA",
"P.	c #EEEFED",
"Q.	c #F7F7F7",
"R.	c #F1F2F1",
"S.	c #EBECEA",
"T.	c #E6E8E5",
"U.	c #EAEBE7",
"V.	c #C4C4C1",
"W.	c #767875",
"X.	c #E1E2E1",
"Y.	c #8F908B",
"Z.	c #CED0CC",
"`.	c #E0E2DE",
" +	c #FCFCFB",
".+	c #ECEDEC",
"++	c #E4E4E1",
"@+	c #5E5F5C",
"#+	c #DADBD9",
"$+	c #979993",
"%+	c #DDDEDD",
"&+	c #DBDED8",
"*+	c #ECEDE9",
"=+	c #EBECE9",
"-+	c #5C5E5A",
";+	c #D5D5D3",
">+	c #C8C9C5",
",+	c #E1E3DE",
"'+	c #E6E8E4",
")+	c #F4F4F4",
"!+	c #EDEFEB",
"~+	c #DBDBD9",
"{+	c #666764",
"]+	c #DADAD9",
"^+	c #888B85",
"/+	c #AFB1AC",
"(+	c #DCE0DA",
"_+	c #EDEEEC",
":+	c #FAFBFA",
"<+	c #BCBDBA",
"[+	c #7D7F7B",
"}+	c #D1D2D0",
"|+	c #E8E9E7",
"1+	c #8E918D",
"2+	c #979995",
"3+	c #D9DDD6",
"4+	c #EAEBE9",
"5+	c #F4F4F3",
"6+	c #EAEBE8",
"7+	c #F1F1EF",
"8+	c #949693",
"9+	c #D6D7D4",
"0+	c #898B87",
"a+	c #F3F4F2",
"b+	c #EFEFEE",
"c+	c #757773",
"d+	c #E6E6E5",
"e+	c #A3A59F",
"f+	c #F0F0ED",
"g+	c #DADDD7",
"h+	c #F6F7F5",
"i+	c #B0B1AF",
"j+	c #797B76",
"k+	c #DBDBDA",
"l+	c #EEEEED",
"m+	c #868882",
"n+	c #CBCCC9",
"o+	c #DDE1DB",
"p+	c #E8EAE8",
"q+	c #666864",
"r+	c #C0C1BE",
"s+	c #D3D4D2",
"t+	c #888985",
"u+	c #888B86",
"v+	c #ECECE9",
"w+	c #80827D",
"x+	c #A1A19F",
"y+	c #D2D3D1",
"z+	c #DFE0DE",
"A+	c #C7C7C5",
"B+	c #999A98",
"C+	c #676A66",
"D+	c #4F5351",
"E+	c #848582",
"F+	c #C6C7C5",
"G+	c #E3E5E0",
"H+	c #EBEDEA",
"I+	c #F2F3F0",
"J+	c #D3D4D1",
"K+	c #797B77",
"L+	c #8D8E8B",
"M+	c #E1E1E0",
"N+	c #838480",
"O+	c #686A66",
"P+	c #656763",
"Q+	c #80827F",
"R+	c #7B7D7B",
"S+	c #4E5150",
"T+	c #ACACAA",
"U+	c #9E9F9B",
"V+	c #EDEDEB",
"W+	c #ECEDEA",
"X+	c #A8AAA7",
"Y+	c #6F706D",
"Z+	c #B7B8B5",
"`+	c #DDDDDC",
" @	c #DFDFDE",
".@	c #939590",
"+@	c #5C5E59",
"@@	c #6E706B",
"#@	c #ACADAB",
"$@	c #A1A3A0",
"%@	c #656866",
"&@	c #6E7171",
"*@	c #BABBB9",
"=@	c #A5A6A3",
"-@	c #7B7D78",
";@	c #8C8E8A",
">@	c #A4A6A1",
",@	c #BDBFBA",
"'@	c #D4D4D3",
")@	c #C2C4C0",
"!@	c #A6A7A4",
"~@	c #8B8D87",
"{@	c #6C6E6B",
"]@	c #8B8D8A",
"^@	c #CCCDCA",
"/@	c #D4D5D3",
"(@	c #D6D7D5",
"_@	c #E6E7E6",
":@	c #565854",
"<@	c #6C6E69",
"[@	c #9C9E9B",
"}@	c #90918F",
"|@	c #828381",
"1@	c #484C4C",
"2@	c #999C9B",
"3@	c #E7E8E6",
"4@	c #D0D1CE",
"5@	c #BFC0BD",
"6@	c #ACAEAB",
"7@	c #999A97",
"8@	c #848683",
"9@	c #A7A8A6",
"0@	c #CDCECC",
"a@	c #D5D6D4",
"b@	c #565855",
"c@	c #6B6D68",
"d@	c #6B6D6A",
"e@	c #494D4B",
"f@	c #454A4B",
"g@	c #D2D2D1",
"h@	c #EDEDEC",
"i@	c #E0E0DF",
"j@	c #474B49",
"k@	c #3B4041",
"l@	c #7A7D79",
"m@	c #E0E0E0",
"n@	c #F5F5F5",
"o@	c #F0F0F0",
"p@	c #EAEAEA",
"q@	c #E8E8E8",
"r@	c #ECECEC",
"s@	c #F2F2F2",
"t@	c #F6F6F6",
"u@	c #565955",
"v@	c #7F817C",
"w@	c #E5E6E5",
"x@	c #EEEFEE",
"y@	c #575855",
"z@	c #787B77",
"A@	c #474C4D",
"B@	c #848681",
"C@	c #5C5E5C",
"D@	c #454847",
"E@	c #3B4141",
"F@	c #E8E9E9",
"G@	c #3A3F3F",
"H@	c #333839",
"I@	c #7E817C",
"J@	c #8C8D89",
"K@	c #8D8F8A",
"L@	c #9C9E9A",
"M@	c #939490",
"N@	c #DBDCD9",
"O@	c #9C9D99",
"P@	c #CED0CB",
"Q@	c #868983",
"R@	c #C1C3BF",
"S@	c #ABADA8",
"T@	c #B9BCB6",
"U@	c #BFC2BC",
"V@	c #82857F",
"W@	c #C7C9C5",
"X@	c #CBCEC8",
"Y@	c #898B85",
"Z@	c #6A6B68",
"                                                                                                ",
"                                                                                                ",
"                                                                                                ",
"                                                                                                ",
"                . + @   # + + + + + + + + + + + + + + + + + + + + + + + + $   % + .             ",
"                & * = + - ; ; ; ; ; ; ; ; ; ; ; ; ; ; ; ; ; ; ; ; ; ; ; ; > + , ' )             ",
"                ! ; ; ; ; ; ; ; ; ; ; ; ~ { ; ; ; ; ; ; ; ; ; ; ; ; ; ; ; ; ; ; ; !             ",
"              ] ^ / + ( _ : : < [ } | 1 2 3 4 5 6 7 : : : : : : : : : : : 8 9 + 0 ^ ]           ",
"              a b c   d e f g h i j k l m n o p q r s f f f f f f f f f f t u   v b a           ",
"              w ' x + d y z A > B C D E F G H I J K L M N O O O O O O O O P Q + R ' w           ",
"              S T U V V W X Y Z `  ...+.V @.#.$.%.&.n *.=.8 V V V V V V V V V V U T S           ",
"              -.;.>.+ ,.'.).!.~.#.{.].^.< /.(._.@.D :.<.[.}.|.|.|.|.|.|.|.|.1.+ >.;.-.          ",
"              9 ; 9   2.3.4.5.6.~ T 7.;.;.;.7.8.9.0.a.a.b.c.d.e.e.e.e.e.e.e.+   9 ; 9           ",
"              + ; 1.9 f.g.h.i.j.k.;.;.;.;.;.l.7.m.n.o.p.C q.r.s.i.i.i.i.i.i.1.+ 1.; +           ",
"              + ; t.Q u.v.w.B 7.{ ; ; { { x.;.;.7.< y.V z.A.B.C.D.D.D.D.D.D.D.D.D.; +           ",
"              + ; E.F.J G.{.k.H.; ; ; { { x.;.H.7.: ]._.I.I.J.K.V D.D.D.D.D.1.+ 1.; +           ",
"              + ; L.M.N.O.P.).k.;.; { { { ;.7.k.< Q.R.S.T.U.V.W.X.0.0.0.0.0.+   + ; +           ",
"              + ; Y.Z.!.`.{.).T  +;.{ { ;.7.k.T ).].R..+0.U.++@+#+0.0.0.0.0.1.+ 1.; +           ",
"              + ; $+%+&+*+^. +7.;.;.{ { { ;.H.7.k.< B (._.=+9.-+;+_._._._._._._._.; +           ",
"              + ; d >+,+'+B k.7.H.;.;.;.;.;.7.7.k.^.B )+_.!+~+{+]+{.{.{.{.{.1.+ 1.; +           ",
"              + ; ^+/+N.(+_+Q.).T :+k.k.: T m.^.].* A.b.=+A.<+[+}+|+|+|+|+|++   + ; +           ",
"              + ; 1+2+Z 3+4+(.8.).< < T < m.^.B 5+n.P.6+V 7+F.8+9+C C C C C 1.+ 1.; +           ",
"              + ; P.0+b.&+6+].< : k.7.7. +k.T )./.B (.5+a+b+c+C.d+5+5+5+5+5+5+5+5+; +           ",
"              + ; 1.2.e+f+g+{.m < T : : T T ).^.m ].(.h+_.i+j+k+l+(.(.(.(.(.1.+ 1.; +           ",
"              + ; +   m+n+I o+p+_+R.~ ~ 7 R.<.b+f S._.(.~+q+r+s+|+4+4+4+4+4++   + ; +           ",
"              + ; 1.+ t+u+d+T.H T.f _+P.b+l+f S.f a+a+v+w+x+y+z+S.S.S.S.S.S.1.+ 1.; +           ",
"              + /.A+B+C+D+E+F+Z G+&.H+A.a+I+g.g._.<.J+K+L+k+M+].].].].].].].].].].; +           ",
"              N+O+P+Q+R+S+T+E.U+d+V+=+C U.W+Z P._ X+Y+Z+`+ @* B B B B B B B .@+ .@; +           ",
"              +@@@#@$@%@&@*@s+=@-@;@>@,@'@)@!@~@{@]@^@/@(@_@_+_+_+_+_+_+_+_++   + ; +           ",
"            :@<@[@}@|@1@2@/@3@(@4@5@6@7@8@1.9@*@0@/@a@#+4+_+_+_+_+_+_+_+_+_+[.+ [.; +           ",
"          b@c@[@]@d@e@f@g@h@^.m b.M+i@i@ @ @ @i@i@M+b+^.^.^.^.^.^.^.^.^.^.^.^.^.^.; +           ",
"        :@c@[@]@d@j@k@l@m@Q.).).).).n@o@p@q@r@s@t@).).).).).).).).).).).).).[.+ [.; +           ",
"      u@c.[@]@d@e@k@  v@w@x@x@x@x@x@x@x@x@x@x@x@x@x@x@x@x@x@x@x@x@x@x@x@x@x@+   + ; +           ",
"      y@z@]@d@j@A@8@B@u x@x@x@x@x@x@x@x@x@x@x@x@x@x@x@x@x@x@x@x@x@x@x@x@x@x@[.+ [.; +           ",
"        e@C@D@E@F@k.k.k.k.k.k.k.k.k.k.k.k.k.k.k.k.k.k.k.k.k.k.k.k.k.k.k.k.k.k.k.k.; +           ",
"          G@H@I@; [.+ [. + + + + + + + + + + + + + + + + + + + + + + + + + +[.+ [.; +           ",
"              + ; +   + b b b b b b b b b b b b b b b b b b b b b b b b b b +   + ; +           ",
"          J@+ + + + + + + + + + + + + + + + + + + + + + + + + + + + + + + + + + + + + + J@      ",
"          K@^.k.k.k.k.k.k.k.k.k.k.k.k.k.k.k.k.k.k.k.k.k.k.k.k.k.k.k.k.k.k.k.k.k.k.k.k.^.K@      ",
"          Y.~ L@+ M@e.+.+.+.+.+.+.+.+.+.+.+.+.+.+.+.+.+.+.+.+.+.+.+.+.+.+.+.+.e.M@+ L@~ Y.      ",
"          Q N@O@o@M k P@P@P@P@P@P@P@P@P@P@P@P@P@P@P@P@P@P@P@P@P@P@P@P@P@P@P@P@k M o@O@N@S       ",
"          Q@R@S@+ ( T@U@U@U@U@U@U@U@U@U@U@U@U@U@U@U@U@U@U@U@U@U@U@U@U@U@U@U@U@T@( + S@R@V@      ",
"            '.W@X@X@X@X@X@X@X@X@X@X@X@X@X@X@X@X@X@X@X@X@X@X@X@X@X@X@X@X@X@X@X@X@X@X@W@'.        ",
"            Y+Y@+ + + + + + + + + + + + + + + + + + + + + + + + + + + + + + + + + + Y@Z@        ",
"                                                                                                ",
"                                                                                                ",
"                                                                                                ",
"                                                                                                "};
