/* XPM */
static char * lxterminal_xpm[] = {
"48 48 269 2",
"  	c None",
". 	c #E9E9E9",
"+ 	c #F8F8F8",
"@ 	c #F7F7F8",
"# 	c #F8F7F8",
"$ 	c #F9F9F9",
"% 	c #F4F4F4",
"& 	c #ABABAB",
"* 	c #D9D9D9",
"= 	c #AAAAAA",
"- 	c #434340",
"; 	c #4D4D48",
"> 	c #4B4C48",
", 	c #4B4B48",
"' 	c #4A4B47",
") 	c #4A4A46",
"! 	c #494946",
"~ 	c #494945",
"{ 	c #484845",
"] 	c #474745",
"^ 	c #474744",
"/ 	c #464644",
"( 	c #464643",
"_ 	c #454543",
": 	c #444442",
"< 	c #424240",
"[ 	c #42423F",
"} 	c #41413F",
"| 	c #40403E",
"1 	c #3F3F3E",
"2 	c #3E3E3D",
"3 	c #3D3D3C",
"4 	c #3C3C3B",
"5 	c #3A3A39",
"6 	c #353534",
"7 	c #959595",
"8 	c #E1E1E1",
"9 	c #E5E5E5",
"0 	c #585857",
"a 	c #5A5B54",
"b 	c #585952",
"c 	c #565751",
"d 	c #565650",
"e 	c #54564F",
"f 	c #54544F",
"g 	c #53544E",
"h 	c #52534D",
"i 	c #52524C",
"j 	c #51514B",
"k 	c #50504B",
"l 	c #4F4F4B",
"m 	c #4E4E49",
"n 	c #4C4C47",
"o 	c #4B4B47",
"p 	c #484844",
"q 	c #474743",
"r 	c #454542",
"s 	c #444441",
"t 	c #41413E",
"u 	c #3F3F3D",
"v 	c #3E3E3C",
"w 	c #3C3C3A",
"x 	c #3B3B3A",
"y 	c #3B3B39",
"z 	c #2E2E2D",
"A 	c #434343",
"B 	c #EFEFEF",
"C 	c #5B5B5A",
"D 	c #555550",
"E 	c #53534E",
"F 	c #51514C",
"G 	c #50504A",
"H 	c #4E4E4A",
"I 	c #4D4D49",
"J 	c #4C4C48",
"K 	c #4A4A45",
"L 	c #434341",
"M 	c #40403D",
"N 	c #3D3D3B",
"O 	c #1D1D1C",
"P 	c #131313",
"Q 	c #3E3E3E",
"R 	c #EEEEEE",
"S 	c #54554F",
"T 	c #52524D",
"U 	c #4F4F4A",
"V 	c #393937",
"W 	c #363635",
"X 	c #2B2B2A",
"Y 	c #191918",
"Z 	c #141414",
"` 	c #151515",
" .	c #111111",
"..	c #5A5A59",
"+.	c #50504C",
"@.	c #464642",
"#.	c #3A3A38",
"$.	c #2F2F2F",
"%.	c #242423",
"&.	c #181818",
"*.	c #5A5A58",
"=.	c #4B4B46",
"-.	c #1B1B1B",
";.	c #161616",
">.	c #595957",
",.	c #42423E",
"'.	c #393938",
").	c #373736",
"!.	c #2D2E2D",
"~.	c #1A1A1A",
"{.	c #3F3F3C",
"].	c #2A2A29",
"^.	c #575757",
"/.	c #383836",
"(.	c #2C2C2B",
"_.	c #191919",
":.	c #575756",
"<.	c #3D3D3A",
"[.	c #383837",
"}.	c #373735",
"|.	c #333331",
"1.	c #1F1F1F",
"2.	c #131314",
"3.	c #565655",
"4.	c #343432",
"5.	c #252524",
"6.	c #3C3C39",
"7.	c #373734",
"8.	c #353533",
"9.	c #2F2F2E",
"0.	c #1A1A19",
"a.	c #555554",
"b.	c #343433",
"c.	c #282827",
"d.	c #545454",
"e.	c #363634",
"f.	c #333332",
"g.	c #313130",
"h.	c #222222",
"i.	c #171717",
"j.	c #E6E6E6",
"k.	c #545453",
"l.	c #313131",
"m.	c #202020",
"n.	c #1D1D1D",
"o.	c #1E1E1E",
"p.	c #1C1C1C",
"q.	c #535353",
"r.	c #343434",
"s.	c #323231",
"t.	c #232323",
"u.	c #242424",
"v.	c #252525",
"w.	c #262626",
"x.	c #212121",
"y.	c #525252",
"z.	c #323230",
"A.	c #30302F",
"B.	c #272727",
"C.	c #282828",
"D.	c #2A2A2A",
"E.	c #2B2B2B",
"F.	c #292929",
"G.	c #515151",
"H.	c #303030",
"I.	c #2C2C2C",
"J.	c #2E2E2E",
"K.	c #2D2D2D",
"L.	c #515150",
"M.	c #323232",
"N.	c #333333",
"O.	c #353535",
"P.	c #363636",
"Q.	c #505050",
"R.	c #383838",
"S.	c #393939",
"T.	c #3A3A3A",
"U.	c #3B3B3B",
"V.	c #373737",
"W.	c #3C3C3C",
"X.	c #404040",
"Y.	c #414141",
"Z.	c #3D3D3D",
"`.	c #3F3F3F",
" +	c #454545",
".+	c #464646",
"++	c #474747",
"@+	c #444444",
"#+	c #424242",
"$+	c #E7E7E7",
"%+	c #4D4D4D",
"&+	c #4A4A4A",
"*+	c #4B4B4B",
"=+	c #4C4C4C",
"-+	c #494949",
";+	c #DFDFDF",
">+	c #767676",
",+	c #484848",
"'+	c #0E0E0E",
")+	c #5E5E5E",
"!+	c #BDBDBD",
"~+	c #F6F6F6",
"{+	c #D4D4D4",
"]+	c #D1D1D1",
"^+	c #D2D2D2",
"/+	c #D3D3D3",
"(+	c #D5D5D5",
"_+	c #D6D6D6",
":+	c #D7D7D7",
"<+	c #DADADA",
"[+	c #DBDBDB",
"}+	c #DDDDDD",
"|+	c #DCDCDC",
"1+	c #D8D8D8",
"2+	c #F7F7F7",
"3+	c #CACACA",
"4+	c #B8B8B8",
"5+	c #DEDEDE",
"6+	c #C5C5C5",
"7+	c #B9B9B9",
"8+	c #D0D0D0",
"9+	c #CBCBCB",
"0+	c #CFCFCF",
"a+	c #BBBBBB",
"b+	c #C9C9C9",
"c+	c #C6C6C6",
"d+	c #AEAEAE",
"e+	c #CDCDCD",
"f+	c #B2B2B2",
"g+	c #9E9E9E",
"h+	c #9F9F9F",
"i+	c #A5A5A5",
"j+	c #A8A8A8",
"k+	c #A1A1A1",
"l+	c #9C9C9C",
"m+	c #999999",
"n+	c #838383",
"o+	c #AFAFAF",
"p+	c #B1B1B1",
"q+	c #A9A9A9",
"r+	c #9D9D9D",
"s+	c #989898",
"t+	c #818181",
"u+	c #949494",
"v+	c #B7B7B7",
"w+	c #979797",
"x+	c #CCCCCC",
"y+	c #E2E2E2",
"z+	c #F2F2F2",
"A+	c #F0F0F0",
"B+	c #ECECEC",
"C+	c #E8E8E8",
"D+	c #F1F1F1",
"E+	c #FAFAFA",
"F+	c #C1C1C1",
"G+	c #BEBEBE",
"H+	c #EAEAEA",
"I+	c #C3C3C3",
"J+	c #EBEBEB",
"K+	c #EDEDED",
"L+	c #C7C7C7",
"M+	c #C8C8C8",
"N+	c #B5B5B5",
"O+	c #8A8A8A",
"P+	c #BABABA",
"Q+	c #E0E0E0",
"R+	c #CECECE",
"S+	c #BFBFBF",
"T+	c #B6B6B6",
"                                                                                                ",
"                                                                                                ",
"                                                                                                ",
"                                                                                                ",
"                                                                                                ",
"          . + @ @ @ @ @ @ # + + + + + + + + + + + + + + + + + + + + + + + + + + $ % &           ",
"        * = - ; > , ' ) ) ! ~ { ] ^ / ( _ _ : : - - < [ } | | 1 2 2 3 3 3 4 4 5 6 7 8           ",
"        9 0 a b c d e f g h i j k l m ; n o ) ~ p q ( r s - [ t | u v 3 w x y y z A B           ",
"        9 C c D f g E F j k G H I J o o K { ^ ( ( r L < [ t M u 3 N w y y 5 z O P Q R           ",
"        9 C S E T F j k U I ; J o ) { p ^ q r s L < [ t u 2 v N w y V W X Y Z `  .Q R           ",
"        9 ..i +.k U I ; J o ) ~ p ^ ( @.: L - [ t u 2 v N w y y #.$.%.&.P ` ` `  .Q R           ",
"        9 *.k H J J n =.~ { ^ q ( s L - < t M u v 3 4 y #.5 5 z -.;.` ` ` ` ` `  .Q R           ",
"        9 >.I n o ! { { ^ ( r : L < ,.M u u 3 N y 5 #.'.).!.~.P ` ` ` ` ` ` ` `  .Q R           ",
"        9 0 ) ~ { ^ ( r : L - } | | {.v N w y 5 '.#.).].O Z ` ` ` ` ` ` ` ` ` `  .Q R           ",
"        9 ^.p q r s L < [ t M u 2 N w y #.'.'././.(._.;.` ` ` ` ` ` ` ` ` ` ` `  .Q R           ",
"        9 :.r s L < t t M 2 3 <.w y #.'.[./.}.|.1.2.` ` ` ` ` ` ` ` ` ` ` ` ` `  .Q R           ",
"        9 3.- t t u 2 v N w y #.'.[./.}.}.4.5.;.Z ` ` ` ` ` ` ` ` ` ` ` ` ` ` `  .Q R           ",
"        9 3.M u 3 N w 6.#.'.[././.7.8.6 9.0.` ` ` ` ` ` ` ` ` ` ` ` ` ` ` ` ` `  .Q R           ",
"        9 a.3 N w 5 '.'.'./.}.6 8.b.|.c.` ` ` ` ` ` ` ` ` ` ` ` ` ` ` ` ` ` ` `  .Q R           ",
"        9 d.y #.'.V [.}.e.8.4.f.4.g.h.&._.~.~.~.~.~.~._.&.i.;.` ` ` ` ` ` ` ` `  .Q R           ",
"        j.k.V [.).e.8.b.4.|.b.b.l.m.n.o.o.1.1.1.1.1.1.o.o.p.-.~._.;.` ` ` ` ` `  .Q R           ",
"        j.q.e.e.8.b.|.|.f.r.6 s.h.m.h.t.u.v.v.w.w.v.v.u.t.h.x.1.n.-._.i.` ` ` `  .Q R           ",
"        j.y.4.|.z.z.s.b.6 ).A.u.u.w.B.C.D.D.E.E.E.D.D.F.C.B.v.u.h.m.o.-._.i.` `  .Q R           ",
"        j.G.g.g.H.s.f.6 W $.w.B.F.E.I.J.$.$.H.H.H.H.$.J.K.I.D.C.B.u.x.1.n.~.i.`  .Q R           ",
"        j.L.J.9.g.s.b.W l.w.F.I.J.$.M.N.r.O.P.P.P.P.O.N.M.l.J.I.E.C.w.t.m.n.-.&. .Q R           ",
"        j.Q.(.9.A.s.b.K.B.D.K.$.l.r.P.R.S.T.U.U.U.U.T.S.V.O.N.H.J.I.F.w.t.m.n.-.P Q R           ",
"        j.Q.E.J.A.s.E.B.D.K.H.N.P.R.U.W.Q X.X.Y.Y.X.X.Z.W.T.V.O.M.$.I.F.w.t.m.p.;.Q R           ",
"        j.Q.].z $.X w.D.K.H.N.P.S.W.`.Y.A  +.+++++ +@+#+`.Q U.V.O.M.J.I.C.v.h.1.&.Y.R           ",
"        $+%+F.I.w.u.C.E.J.M.O.R.W.`.Y.@+++&+*+=+=+*+-+.+A X.Q T.V.r.l.K.D.w.t.m._.`.B           ",
"        ;+>+i._._.p.m.t.B.E.J.M.O.R.W.`.A .+-+&+&+,+@+#+Q T.V.r.H.K.F.v.h.1.-.i.'+)+.           ",
"        !+~+{+]+^+/+{+(+(+_+:+:+* * <+<+[+[+}+}+}+|+[+<+<+<+* 1+:+:+_+(+{+{+/+/+{+2+3+          ",
"        4+/+[+[+|+[+|+|+}+}+}+}+5+5+5+5+;+;+;+;+;+;+;+5+5+5+5+5+}+}+<+<+<+* |+{+* _+6+          ",
"        7+{+(+(+(+(+(+(+(+(+(+(+(+(+(+(+(+(+(+(+(+(+(+(+(+(+(+(+(+8+/+9+]+0+^+a+b+:+c+          ",
"        d+e+8+8+8+8+8+8+8+8+8+8+8+8+8+8+8+8+8+8+8+8+8+8+8+8+8+8+8+]+]+/+8+^+8+:+* ^+f+          ",
"                                      g+h+i+i+j+k+l+m+7                                         ",
"                                      n+l+o+p+7+q+r+s+t+                                        ",
"                                      u+7+9+e+:+c+v+p+w+                                        ",
"                                    ;+v+1+9 9 B [+x+3+d+3+y+                                    ",
"                              9+~+2+z+8+A+B+C+D+}+8+{+!+{+$ + 9                                 ",
"                              % B+j.}+* E+R C+D+}+8+{+F+3+y+$+z+G+                              ",
"                            l+H+$+;+1+8+H+~+A+% ;+]+8+I+(+[+8 J+p+                              ",
"                              g+8 B K+9 ]+3+x+/+L+F+M+<+B B K+N+                                ",
"                                O+P+|+K+Q+_+R+9+x+^+1+B+9 b+l+                                  ",
"                                      & G+c+3+R+9+c+S+T+                                        ",
"                                                                                                ",
"                                                                                                ",
"                                                                                                ",
"                                                                                                "};
