/* XPM */
static char * mindmap_xpm[] = {
"48 48 822 2",
"  	c None",
". 	c #231F1F",
"+ 	c #221E19",
"@ 	c #211D17",
"# 	c #231D1B",
"$ 	c #221E1F",
"% 	c #221E1E",
"& 	c #201A10",
"* 	c #1E1A0D",
"= 	c #1E1A0F",
"- 	c #1D1A0E",
"; 	c #1E1A10",
"> 	c #221D19",
", 	c #221F21",
"' 	c #201C14",
") 	c #1E1A0C",
"! 	c #271C15",
"~ 	c #9B2F21",
"{ 	c #913221",
"] 	c #402419",
"^ 	c #161810",
"/ 	c #1E1B11",
"( 	c #221E1B",
"_ 	c #1F1A0F",
": 	c #1D1A0F",
"< 	c #732A1F",
"[ 	c #F14425",
"} 	c #F04D25",
"| 	c #E65126",
"1 	c #893D22",
"2 	c #1C1A16",
"3 	c #1A190F",
"4 	c #231F1C",
"5 	c #211E1B",
"6 	c #201A0E",
"7 	c #211B13",
"8 	c #BC3D24",
"9 	c #F04F25",
"0 	c #EE5525",
"a 	c #EE5C26",
"b 	c #FC6727",
"c 	c #CE5C27",
"d 	c #432B1B",
"e 	c #231E1E",
"f 	c #1E1A0E",
"g 	c #342118",
"h 	c #E54D26",
"i 	c #EF5726",
"j 	c #EE5D26",
"k 	c #EE6427",
"l 	c #ED6A28",
"m 	c #F57329",
"n 	c #D46B29",
"o 	c #332519",
"p 	c #1D1910",
"q 	c #221E1D",
"r 	c #1D190E",
"s 	c #40251A",
"t 	c #EC5827",
"u 	c #EF6027",
"v 	c #EE6627",
"w 	c #EE6D28",
"x 	c #EE722A",
"y 	c #EE782A",
"z 	c #F7822C",
"A 	c #AA6228",
"B 	c #141613",
"C 	c #231E18",
"D 	c #221E20",
"E 	c #1D1911",
"F 	c #40261A",
"G 	c #EC6027",
"H 	c #EF6828",
"I 	c #EE6E28",
"J 	c #EE752A",
"K 	c #EE792A",
"L 	c #EE7E2B",
"M 	c #EE842C",
"N 	c #F88F2E",
"O 	c #4E361F",
"P 	c #1E1A11",
"Q 	c #231F1D",
"R 	c #211E1E",
"S 	c #1F1C15",
"T 	c #3E2719",
"U 	c #EB6828",
"V 	c #EF7029",
"W 	c #EE762A",
"X 	c #EE7B2A",
"Y 	c #EE802B",
"Z 	c #EE852D",
"` 	c #EE8A2D",
" .	c #F3922D",
"..	c #CA7F2C",
"+.	c #302518",
"@.	c #282117",
"#.	c #221F1F",
"$.	c #1B191E",
"%.	c #292120",
"&.	c #342922",
"*.	c #382B23",
"=.	c #342A22",
"-.	c #25201F",
";.	c #221E1C",
">.	c #2D2116",
",.	c #DF6B2A",
"'.	c #F0782A",
").	c #EE7D2B",
"!.	c #EE822C",
"~.	c #EE872D",
"{.	c #EE8C2D",
"].	c #EE912D",
"^.	c #EF952E",
"/.	c #F29E30",
"(.	c #A4712B",
"_.	c #272016",
":.	c #2A231B",
"<.	c #211E1F",
"[.	c #1D1B1E",
"}.	c #2F2621",
"|.	c #473426",
"1.	c #563D29",
"2.	c #553E29",
"3.	c #583F29",
"4.	c #584029",
"5.	c #573F29",
"6.	c #564029",
"7.	c #513C28",
"8.	c #302622",
"9.	c #19181D",
"0.	c #211D16",
"a.	c #AF5E27",
"b.	c #F17F2B",
"c.	c #EE832C",
"d.	c #EE892D",
"e.	c #EE8D2D",
"f.	c #EE922D",
"g.	c #EF972F",
"h.	c #EF9D31",
"i.	c #EFA332",
"j.	c #F9AE33",
"k.	c #7D5E29",
"l.	c #251E18",
"m.	c #26211E",
"n.	c #241F20",
"o.	c #2B2420",
"p.	c #3F3024",
"q.	c #553C28",
"r.	c #5A4028",
"s.	c #5E4026",
"t.	c #724726",
"u.	c #915226",
"v.	c #AE5A26",
"w.	c #C45C26",
"x.	c #BD5325",
"y.	c #9E4523",
"z.	c #6B3924",
"A.	c #6A482B",
"B.	c #503927",
"C.	c #251F20",
"D.	c #201D1B",
"E.	c #50331D",
"F.	c #EA832D",
"G.	c #F08B2C",
"H.	c #EE8F2D",
"I.	c #EE942E",
"J.	c #EF992F",
"K.	c #EF9F31",
"L.	c #EFA432",
"M.	c #EFA933",
"N.	c #F1B034",
"O.	c #F8BA36",
"P.	c #6C5626",
"Q.	c #261F1A",
"R.	c #231E1F",
"S.	c #302722",
"T.	c #413124",
"U.	c #4A3626",
"V.	c #4C3726",
"W.	c #664927",
"X.	c #946229",
"Y.	c #C1792A",
"Z.	c #E3862B",
"`.	c #F4882D",
" +	c #F9852C",
".+	c #F77C2B",
"++	c #F47329",
"@+	c #F56C28",
"#+	c #FA6427",
"$+	c #F25825",
"%+	c #A63F23",
"&+	c #674228",
"*+	c #68472B",
"=+	c #242020",
"-+	c #1A1815",
";+	c #6B4421",
">+	c #F7952E",
",+	c #F2962F",
"'+	c #EF9A30",
")+	c #EFA032",
"!+	c #EFA632",
"~+	c #EFAB33",
"{+	c #F0B034",
"]+	c #F0B534",
"^+	c #F1BC36",
"/+	c #E3B634",
"(+	c #4A3D21",
"_+	c #32281C",
":+	c #211D1F",
"<+	c #221D20",
"[+	c #1E1B1F",
"}+	c #252120",
"|+	c #3A2E22",
"1+	c #4F3A25",
"2+	c #5C4128",
"3+	c #443224",
"4+	c #5E4726",
"5+	c #BC862D",
"6+	c #EA9E32",
"7+	c #F19C30",
"8+	c #F1952E",
"9+	c #EF8E2D",
"0+	c #EE812C",
"a+	c #EE7A2A",
"b+	c #EE7329",
"c+	c #EE6B29",
"d+	c #EE6326",
"e+	c #EF5B26",
"f+	c #F25325",
"g+	c #AF3C23",
"h+	c #68472A",
"i+	c #62432A",
"j+	c #18181E",
"k+	c #231F1E",
"l+	c #151514",
"m+	c #5C4122",
"n+	c #E69730",
"o+	c #F2A432",
"p+	c #EFA732",
"q+	c #EFAC34",
"r+	c #F0B234",
"s+	c #F0B834",
"t+	c #F0BD36",
"u+	c #F0C236",
"v+	c #F3C937",
"w+	c #9A832D",
"x+	c #3A2C1C",
"y+	c #392C1D",
"z+	c #25211F",
"A+	c #2D2520",
"B+	c #3F3122",
"C+	c #533C24",
"D+	c #5A4126",
"E+	c #553D26",
"F+	c #4C3A25",
"G+	c #A27E2D",
"H+	c #F7B634",
"I+	c #F5AE33",
"J+	c #EF9C30",
"K+	c #EF962E",
"L+	c #EE902D",
"M+	c #EE7C2B",
"N+	c #EE7529",
"O+	c #EE6D29",
"P+	c #EF6628",
"Q+	c #EE5E26",
"R+	c #EE5426",
"S+	c #F84D25",
"T+	c #713022",
"U+	c #79542E",
"V+	c #312723",
"W+	c #241F1E",
"X+	c #1B1A1C",
"Y+	c #4C3922",
"Z+	c #C68C2F",
"`+	c #F9B534",
" @	c #F5B834",
".@	c #F0B935",
"+@	c #F0BE36",
"@@	c #F0C436",
"#@	c #EFC837",
"$@	c #F1CF38",
"%@	c #D0B636",
"&@	c #392E1E",
"*@	c #43331E",
"=@	c #40311E",
"-@	c #392C1F",
";@	c #433321",
">@	c #4E3923",
",@	c #523C23",
"'@	c #553E25",
")@	c #493524",
"!@	c #6C5928",
"~@	c #D7AD33",
"{@	c #FBC237",
"]@	c #F0B434",
"^@	c #EFAC33",
"/@	c #EFA532",
"(@	c #EF9E31",
"_@	c #EF982F",
":@	c #EE8B2D",
"<@	c #EE842D",
"[@	c #EE7E2C",
"}@	c #EE7029",
"|@	c #EE6026",
"1@	c #EE5726",
"2@	c #FA5125",
"3@	c #933522",
"4@	c #6E4F2D",
"5@	c #3E2F24",
"6@	c #1F1C1E",
"7@	c #262019",
"8@	c #6E5426",
"9@	c #DAAA34",
"0@	c #FCCA38",
"a@	c #F8CA37",
"b@	c #F1CB37",
"c@	c #F0CF39",
"d@	c #F3D83A",
"e@	c #CEBB35",
"f@	c #392F1F",
"g@	c #43341F",
"h@	c #453420",
"i@	c #493621",
"j@	c #4C3721",
"k@	c #4F3922",
"l@	c #523C24",
"m@	c #513B26",
"n@	c #695828",
"o@	c #EBC436",
"p@	c #F2C336",
"q@	c #F0BB35",
"r@	c #F0AF34",
"s@	c #EF9A2F",
"t@	c #EF932D",
"u@	c #EE7229",
"v@	c #EE6A29",
"w@	c #EF6227",
"x@	c #EE5A26",
"y@	c #F15125",
"z@	c #683323",
"A@	c #82582F",
"B@	c #3A2C23",
"C@	c #241E14",
"D@	c #1D1810",
"E@	c #231D19",
"F@	c #695725",
"G@	c #AE932F",
"H@	c #D1B535",
"I@	c #D7BF37",
"J@	c #CCBA36",
"K@	c #685E28",
"L@	c #3C2F1E",
"M@	c #43331F",
"N@	c #473621",
"O@	c #4A3722",
"P@	c #4D3923",
"Q@	c #503B24",
"R@	c #563E25",
"S@	c #473724",
"T@	c #D0B635",
"U@	c #F1CC37",
"V@	c #F0C437",
"W@	c #F0BE35",
"X@	c #F0B735",
"Y@	c #EFAA32",
"Z@	c #EF9C31",
"`@	c #EE882D",
" #	c #EE7B2B",
".#	c #EE7429",
"+#	c #EE6C29",
"@#	c #EF6427",
"##	c #F05D26",
"$#	c #BF4724",
"%#	c #66452A",
"&#	c #81552E",
"*#	c #282120",
"=#	c #14161D",
"-#	c #13161D",
";#	c #19181A",
">#	c #1E1A15",
",#	c #372C1A",
"'#	c #332919",
")#	c #1B1516",
"!#	c #1B1517",
"~#	c #241B19",
"{#	c #382D1C",
"]#	c #33281D",
"^#	c #35281D",
"/#	c #42331F",
"(#	c #46341F",
"_#	c #41311E",
":#	c #3D301F",
"<#	c #483622",
"[#	c #543E25",
"}#	c #432F23",
"|#	c #93862F",
"1#	c #F9DB3B",
"2#	c #EFCC37",
"3#	c #F0C636",
"4#	c #F0BF36",
"5#	c #F0AB33",
"6#	c #EF912D",
"7#	c #EE772A",
"8#	c #EE6F29",
"9#	c #EE6728",
"0#	c #EF5F26",
"a#	c #7C3E24",
"b#	c #885A2F",
"c#	c #1D1C1F",
"d#	c #4B3322",
"e#	c #734C25",
"f#	c #946428",
"g#	c #C1892E",
"h#	c #DFA633",
"i#	c #DCAF34",
"j#	c #C0A131",
"k#	c #94812D",
"l#	c #6A6027",
"m#	c #342C1E",
"n#	c #3B2D1C",
"o#	c #42321E",
"p#	c #3F2F1D",
"q#	c #32271A",
"r#	c #2A2218",
"s#	c #36291A",
"t#	c #4B3620",
"u#	c #523A25",
"v#	c #493D24",
"w#	c #EDDC3B",
"x#	c #F1D53A",
"y#	c #EFCD38",
"z#	c #EFC836",
"A#	c #F0C136",
"B#	c #F0B535",
"C#	c #EFAE33",
"D#	c #EE862D",
"E#	c #EE792B",
"F#	c #F26B29",
"G#	c #CF5726",
"H#	c #674529",
"I#	c #79512D",
"J#	c #26201B",
"K#	c #A75926",
"L#	c #F7882D",
"M#	c #FD972E",
"N#	c #FA9F30",
"O#	c #F3A632",
"P#	c #F2BB35",
"Q#	c #F4C837",
"R#	c #F9D83B",
"S#	c #FFEC3D",
"T#	c #C5BF38",
"U#	c #2F251F",
"V#	c #41321F",
"W#	c #382B1D",
"X#	c #302619",
"Y#	c #3D2D1B",
"Z#	c #4D371F",
"`#	c #503A22",
" $	c #4C3524",
".$	c #5B5227",
"+$	c #F1E13B",
"@$	c #F2D93A",
"#$	c #EFCF39",
"$$	c #EFCA37",
"%$	c #F0C336",
"&$	c #F0BD35",
"*$	c #F0B635",
"=$	c #EFA832",
"-$	c #EFA132",
";$	c #EF9B30",
">$	c #EE952E",
",$	c #F0752A",
"'$	c #F16D29",
")$	c #693B24",
"!$	c #76502D",
"~$	c #322722",
"{$	c #1B1B1D",
"]$	c #63361F",
"^$	c #FA792A",
"/$	c #EF802B",
"($	c #ED8A2D",
"_$	c #F0B634",
":$	c #EECB38",
"<$	c #EED63A",
"[$	c #FCF03E",
"}$	c #635D28",
"|$	c #392A1D",
"1$	c #44331F",
"2$	c #4A3621",
"3$	c #4D3921",
"4$	c #4F3A23",
"5$	c #523D25",
"6$	c #553C27",
"7$	c #493325",
"8$	c #6A5C29",
"9$	c #C0AE34",
"0$	c #F7D83A",
"a$	c #F4D038",
"b$	c #EFC536",
"c$	c #F0B835",
"d$	c #EF972E",
"e$	c #F2852D",
"f$	c #F8822B",
"g$	c #D86B28",
"h$	c #784325",
"i$	c #64472A",
"j$	c #413025",
"k$	c #161B1F",
"l$	c #9B4723",
"m$	c #F97329",
"n$	c #EE872C",
"o$	c #F0C836",
"p$	c #EFD239",
"q$	c #F8E73C",
"r$	c #A19B32",
"s$	c #36271E",
"t$	c #4B3821",
"u$	c #533E26",
"v$	c #4C3725",
"w$	c #4E4426",
"x$	c #4F4525",
"y$	c #3D2A23",
"z$	c #4D3825",
"A$	c #6F6129",
"B$	c #D4B635",
"C$	c #FCD238",
"D$	c #F4C436",
"E$	c #F0BB36",
"F$	c #F0B334",
"G$	c #F0AD33",
"H$	c #EF9F32",
"I$	c #EE982F",
"J$	c #F1942E",
"K$	c #F9922D",
"L$	c #DE7C2B",
"M$	c #894F25",
"N$	c #654327",
"O$	c #5F422A",
"P$	c #2E2521",
"Q$	c #161B20",
"R$	c #AF4B24",
"S$	c #F76E28",
"T$	c #EE8E2D",
"U$	c #F0AE33",
"V$	c #EFCE38",
"W$	c #EFDA3A",
"X$	c #D2CA39",
"Y$	c #3D3020",
"Z$	c #4D3822",
"`$	c #513B24",
" %	c #513925",
".%	c #554E27",
"+%	c #ECE93D",
"@%	c #F5EF3E",
"#%	c #B1AA33",
"$%	c #584A27",
"%%	c #543927",
"&%	c #473425",
"*%	c #766229",
"=%	c #C5A031",
"-%	c #E7B434",
";%	c #EEB535",
">%	c #EFAE34",
",%	c #EEA732",
"'%	c #EEA031",
")%	c #EB9930",
"!%	c #D5852B",
"~%	c #895727",
"{%	c #533A27",
"]%	c #5C4129",
"^%	c #463325",
"/%	c #1E1C20",
"(%	c #151A1F",
"_%	c #A14324",
":%	c #F86928",
"<%	c #EE7F2B",
"[%	c #EF942E",
"}%	c #EFA031",
"|%	c #EFAA33",
"1%	c #F0C036",
"2%	c #EFCA38",
"3%	c #EFD63A",
"4%	c #DDD139",
"5%	c #453822",
"6%	c #4B3721",
"7%	c #543C24",
"8%	c #3A2A21",
"9%	c #BCB636",
"0%	c #F7EB3D",
"a%	c #EEDE3B",
"b%	c #F7E03B",
"c%	c #E3C938",
"d%	c #7D6A2B",
"e%	c #543B27",
"f%	c #66442B",
"g%	c #5A3F29",
"h%	c #654A29",
"i%	c #76582A",
"j%	c #83612A",
"k%	c #8B622B",
"l%	c #865C2A",
"m%	c #75512A",
"n%	c #5A3E27",
"o%	c #483526",
"p%	c #402F24",
"q%	c #272020",
"r%	c #16191E",
"s%	c #753623",
"t%	c #EE7C2A",
"u%	c #EFA633",
"v%	c #EFC737",
"w%	c #F1D43A",
"x%	c #CDBD36",
"y%	c #3D2E20",
"z%	c #503A23",
"A%	c #4E3723",
"B%	c #544A25",
"C%	c #F5E33C",
"D%	c #EFD73A",
"E%	c #EFD139",
"F%	c #EFCC38",
"G%	c #F1C937",
"H%	c #F5C737",
"I%	c #95772C",
"J%	c #573B28",
"K%	c #78512D",
"L%	c #7C532D",
"M%	c #82552E",
"N%	c #7E532E",
"O%	c #5E412A",
"P%	c #403025",
"Q%	c #282220",
"R%	c #332420",
"S%	c #DF5925",
"T%	c #F06B29",
"U%	c #EF982E",
"V%	c #F0A332",
"W%	c #EFAD34",
"X%	c #FBD83A",
"Y%	c #7F712B",
"Z%	c #33261F",
"`%	c #473522",
" &	c #463123",
".&	c #8A782D",
"+&	c #FBDB3A",
"@&	c #EFC637",
"#&	c #EFB835",
"$&	c #F3B735",
"%&	c #765828",
"&&	c #704B2C",
"*&	c #7D542E",
"=&	c #81572E",
"-&	c #7C522D",
";&	c #252020",
">&	c #16181C",
",&	c #201E1F",
"'&	c #974122",
")&	c #F26627",
"!&	c #EE932E",
"~&	c #EFB534",
"{&	c #FAC837",
"]&	c #BA9E31",
"^&	c #362A20",
"/&	c #2C2420",
"(&	c #382C21",
"_&	c #563F25",
":&	c #443123",
"<&	c #B89A31",
"[&	c #F5CA36",
"}&	c #F0BC36",
"|&	c #F0B736",
"1&	c #EFB234",
"2&	c #EFAD33",
"3&	c #F1AA33",
"4&	c #DB9730",
"5&	c #593F26",
"6&	c #80562E",
"7&	c #583E29",
"8&	c #15161C",
"9&	c #1F1D1F",
"0&	c #3F271F",
"a&	c #E75E25",
"b&	c #F4B434",
"c&	c #CDA132",
"d&	c #433522",
"e&	c #3E2F21",
"f&	c #1E1D1E",
"g&	c #573F25",
"h&	c #443323",
"i&	c #CBA132",
"j&	c #F3BD36",
"k&	c #EFB034",
"l&	c #EFA232",
"m&	c #F89E30",
"n&	c #A46828",
"o&	c #5C412A",
"p&	c #8D5C30",
"q&	c #483426",
"r&	c #171B1F",
"s&	c #8B3F23",
"t&	c #F96D28",
"u&	c #F3A532",
"v&	c #D59B30",
"w&	c #4B3A22",
"x&	c #433221",
"y&	c #252121",
"z&	c #211C1E",
"A&	c #523C25",
"B&	c #473524",
"C&	c #CC9931",
"D&	c #F3B134",
"E&	c #EF962F",
"F&	c #EF922E",
"G&	c #F38B2D",
"H&	c #573A25",
"I&	c #875A30",
"J&	c #201D20",
"K&	c #994824",
"L&	c #F47429",
"M&	c #F68D2D",
"N&	c #F6972E",
"O&	c #AA732B",
"P&	c #433421",
"Q&	c #3C2E20",
"R&	c #2A2320",
"S&	c #1B1A1E",
"T&	c #463524",
"U&	c #493625",
"V&	c #BE862E",
"W&	c #F4A633",
"X&	c #ED822C",
"Y&	c #FA842C",
"Z&	c #8C4F26",
"`&	c #77512D",
" *	c #201F1F",
".*	c #5C3522",
"+*	c #B25F27",
"@*	c #BF6D2A",
"#*	c #6C4823",
"$*	c #3E3020",
"%*	c #292321",
"&*	c #362B23",
"**	c #4F3A26",
"=*	c #936429",
"-*	c #FB9F31",
";*	c #EE922E",
">*	c #EF852D",
",*	c #EE812B",
"'*	c #EE7D2A",
")*	c #F67529",
"!*	c #AC5526",
"~*	c #6A4A2C",
"{*	c #2D2421",
"]*	c #1D1D1F",
"^*	c #24211D",
"/*	c #2E271E",
"(*	c #2F2720",
"_*	c #292221",
":*	c #563E28",
"<*	c #5A3E24",
"[*	c #F7922D",
"}*	c #EF892D",
"|*	c #EE7F2C",
"1*	c #EE6A28",
"2*	c #F76728",
"3*	c #AB4B24",
"4*	c #5C432A",
"5*	c #513A27",
"6*	c #463526",
"7*	c #B56628",
"8*	c #F8822C",
"9*	c #EE6E29",
"0*	c #ED5C26",
"a*	c #FD5926",
"b*	c #7D3924",
"c*	c #4F3B28",
"d*	c #372B22",
"e*	c #66472A",
"f*	c #523724",
"g*	c #E06A28",
"h*	c #F26D28",
"i*	c #EE5325",
"j*	c #F74F25",
"k*	c #C73C22",
"l*	c #543C28",
"m*	c #453324",
"n*	c #201C1F",
"o*	c #503B26",
"p*	c #65482A",
"q*	c #623824",
"r*	c #D45625",
"s*	c #EF5725",
"t*	c #F05225",
"u*	c #F04B25",
"v*	c #F04325",
"w*	c #D23722",
"x*	c #5A3325",
"y*	c #75502D",
"z*	c #261F20",
"A*	c #4B3726",
"B*	c #64482B",
"C*	c #5E3D27",
"D*	c #7B3B25",
"E*	c #8E3924",
"F*	c #923624",
"G*	c #893224",
"H*	c #673B27",
"I*	c #85592F",
"J*	c #211C20",
"K*	c #312722",
"L*	c #724E2D",
"M*	c #82572E",
"N*	c #87592F",
"O*	c #8A5B30",
"P*	c #4D3727",
"Q*	c #1C1A1E",
"R*	c #1A191E",
"S*	c #24201F",
"T*	c #372B24",
"U*	c #4C3727",
"                                                                                                ",
"                                                                                                ",
"                                                                                                ",
"                                                                                                ",
"                                                                                                ",
"      . + @ # $                                                                                 ",
"    % & * = - ; > $                                                                             ",
"  , ' ) ! ~ { ] ^ / (                                                                           ",
"  % _ : < [ } | 1 2 3 4                                                                         ",
"  5 6 7 8 9 0 a b c d : e                                                                       ",
"  ( f g h i j k l m n o p %                                                                     ",
"  q r s t u v w x y z A B C D                                                                   ",
"  $ E F G H I J K L M N O P Q                   R                                               ",
"    S T U V W X Y Z `  ...+.@.D         R     #.                      $.%.&.*.=.-.              ",
"    ;.>.,.'.).!.~.{.].^./.(._.:.        $   <.                  [.}.|.1.2.3.4.5.6.7.8.9.        ",
"    D 0.a.b.c.d.e.f.g.h.i.j.k.l.m.      %   $             n.o.p.q.r.s.t.u.v.w.x.y.z.A.B.C.      ",
"      D.E.F.G.H.I.J.K.L.M.N.O.P.Q.R.    <.%         . S.T.U.V.W.X.Y.Z.`. +.+++@+#+$+%+&+*+=+    ",
"      q -+;+>+,+'+)+!+~+{+]+^+/+(+_+:+  $ <+  [+}+|+1+2+3+4+5+6+7+8+9+~.0+a+b+c+d+e+f+g+h+i+j+  ",
"        k+l+m+n+o+p+q+r+s+t+u+v+w+x+y+z+$ k+A+B+C+D+E+F+G+H+I+i.J+K+L+d.!.M+N+O+P+Q+R+S+T+U+V+  ",
"          W+X+Y+Z+`+ @.@+@@@#@$@%@&@*@=@-@;@>@,@'@)@!@~@{@]@^@/@(@_@f.:@<@[@y }@H |@1@2@3@4@5@  ",
"              6@7@8@9@0@a@b@c@d@e@f@g@h@i@j@k@l@m@n@o@p@q@]+r@p+)+s@t@e.~.Y a+u@v@w@x@y@z@A@B@  ",
"              D C@D@E@F@G@H@I@J@K@L@M@N@O@P@Q@R@S@T@U@V@W@X@{+Y@i.Z@K+H.`@!. #.#+#@###$#%#&#*#  ",
"          =#-#;#>#,#'#)#!#~#{#]#^#/#(#_#:#<#[#}#|#1#2#3#4#.@r+5#L.(@_@6#:@<@).7#8#9#0#a#b#q.    ",
"      $ c#d#e#f#g#h#i#j#k#l#m#n#o#p#q#r#s#t#u#v#w#x#y#z#A#q@B#C#!+)+J.t@{.D#Y E#u@F#G#H#I#$     ",
"    $ J#K#L#M#N#O#{+P#Q#R#S#T#U#V#W#X#Y#Z#`# $.$+$@$#$$$%$&$*${+=$-$;$>$H.`@0+ #,$'$)$!$~$      ",
"    {$]$^$/$($I.)+~+_$A#:$<$[$}$|$1$2$3$4$5$6$7$8$9$0$a$b$4#c$r+~+L.h.d$].` e$f$g$h$i$j$        ",
"    k$l$m$M+n$6#Z@p+r+&$o$p$q$r$s$i@t$P@u$v$w$x$y$z$A$B$C$D$E$F$G$!+H$I$J$K$L$M$N$O$P$          ",
"    Q$R$S$y c.T$_@L.U$.@@@V$W$X$Y$i@Z$`$ %.%+%@%#%$%%%&%*%=%-%;%>%,%'%)%!%~%{%]%^%/%            ",
"    (%_%:%b+<%d.[%}%|%_$1%2%3%4%5%6%>@7%8%9%0%a%b%c%d%e%f%g%h%i%j%k%l%m%n%o%p%q%                ",
"    r%s%#+8#t%D#L+Z@u%r+&$v%w%x%y%Z$z%A%B%C%D%E%F%G%H%I%J%K%I#L%M%N%O%P%Q%                      ",
"    <.R%S%T%7#c.{.U%V%W%.@%$X%Y%Z%`%l@ &.&+&2%@&A#t+#&$&%&&&*&=&-&;&>&                          ",
"      ,&'&)&b+<%d.!&K.|%~&{&]&^&/&(&_&:&<&[&1%}&|&1&2&3&4&5&6&b#7&8&                            ",
"      9&0&a&I  #Z L+;$/@b&c&d&e&f&o.g&h&i&j&B#k&~+p+l&(@m&n&o&p&q&                              ",
"        r&s&t&7#!.{.g.u&v&w&x&y&  z&A&B&C&D&M./@-$J+E&F&9+G&H&I&5@                              ",
"          J&K&L&z M&N&O&P&Q&R&    S&T&U&V&W&(@'+[%L+{.~.X&Y&Z&`&&.                              ",
"           *. .*+*@*#*:#$*%*        &***=*-*;*H.` >*,*'*7#)*!*~*{*                              ",
"              ]*]*^*/*(*:+          _*:*<*[*}*<@|*X J }@1*2*3*4**#                              ",
"                                    $ 5*6*7*8*K b+9*H w@0*a*b*c*                                ",
"                                      d*e*f*g*h*v |@x@i*j*k*l*m*                                ",
"                                      n*o*p*q*r*s*t*u*v*w*x*y*z*                                ",
"                                        . A*B*C*D*E*F*G*H*I*j$                                  ",
"                                          J*K*:*L**&M*N*O*P*Q*                                  ",
"                                              R*S*T*|.U*K*{$                                    ",
"                                                                                                ",
"                                                                                                ",
"                                                                                                ",
"                                                                                                ",
"                                                                                                "};
