/* XPM */
static char * monodevelop_xpm[] = {
"48 48 750 2",
"  	c None",
". 	c #3D6BA5",
"+ 	c #3D6CA5",
"@ 	c #3C6AA3",
"# 	c #3B69A2",
"$ 	c #3F6DA5",
"% 	c #3B6AA4",
"& 	c #3B6AA3",
"* 	c #3C6BA4",
"= 	c #3E6EA6",
"- 	c #6289BB",
"; 	c #9DB8DA",
"> 	c #4F79AF",
", 	c #3D6DA4",
"' 	c #3E6DA5",
") 	c #638BBB",
"! 	c #8EACD3",
"~ 	c #A6C0DF",
"{ 	c #ADC5E3",
"] 	c #B4C9E6",
"^ 	c #AEC4E3",
"/ 	c #8FADD3",
"( 	c #6B91C0",
"_ 	c #4471A9",
": 	c #3A69A4",
"< 	c #3D6DA5",
"[ 	c #4370A8",
"} 	c #7C9FC9",
"| 	c #B0C6E5",
"1 	c #C2D5ED",
"2 	c #C0D3EC",
"3 	c #8DABD2",
"4 	c #3E6CA5",
"5 	c #3E6CA6",
"6 	c #4170A6",
"7 	c #82A3CC",
"8 	c #BACEE9",
"9 	c #C2D4ED",
"0 	c #B9CEEA",
"a 	c #AFC7E7",
"b 	c #ACC5E6",
"c 	c #A9C3E5",
"d 	c #B7CCE9",
"e 	c #C1D4EC",
"f 	c #6C92C0",
"g 	c #3D6BA3",
"h 	c #3C6AA4",
"i 	c #3D6CA4",
"j 	c #3B6BA3",
"k 	c #5580B3",
"l 	c #93B0D5",
"m 	c #BED1EA",
"n 	c #9EBBE2",
"o 	c #AAC3E5",
"p 	c #B8CDE8",
"q 	c #3C6CA4",
"r 	c #6F94C2",
"s 	c #B9CEE9",
"t 	c #BFD2EC",
"u 	c #ABC4E6",
"v 	c #9BB9E1",
"w 	c #98B7E0",
"x 	c #99B8E0",
"y 	c #A1BDE3",
"z 	c #B1C9E8",
"A 	c #A0BADB",
"B 	c #4D79AE",
"C 	c #3D6BA4",
"D 	c #6F94C1",
"E 	c #A7C1DF",
"F 	c #B8CEE8",
"G 	c #A7C2E5",
"H 	c #9AB8E0",
"I 	c #BDD1EA",
"J 	c #7096C3",
"K 	c #3F6CA5",
"L 	c #8DACD3",
"M 	c #AEC7E7",
"N 	c #9AB8E1",
"O 	c #ACC4E1",
"P 	c #CBD7E5",
"Q 	c #DFE4E9",
"R 	c #EBECEB",
"S 	c #ECEDEB",
"T 	c #E4E7E9",
"U 	c #D4DDE7",
"V 	c #BECEE3",
"W 	c #9FBCE1",
"X 	c #A0BDE3",
"Y 	c #B8CEE9",
"Z 	c #BDD0EA",
"` 	c #82A3CB",
" .	c #5480B1",
"..	c #87A7CE",
"+.	c #B4CBE6",
"@.	c #BED2EA",
"#.	c #B0C8E7",
"$.	c #A0BDE2",
"%.	c #9AB9E0",
"&.	c #A2BFE2",
"*.	c #A1BEE1",
"=.	c #AFC8E6",
"-.	c #A3BEDC",
";.	c #9CB7DA",
">.	c #A5C0E4",
",.	c #9DBADE",
"'.	c #DDE3E8",
").	c #EEEEEC",
"!.	c #EDEDEB",
"~.	c #CCD8E6",
"{.	c #97B6DF",
"].	c #BAD0E8",
"^.	c #BDD2E9",
"/.	c #B9CFE8",
"(.	c #A9C4E5",
"_.	c #9AB9E1",
":.	c #9DBBE1",
"<.	c #A5C1E2",
"[.	c #A9C4E3",
"}.	c #A5C1E1",
"|.	c #98B8E0",
"1.	c #B9D1E7",
"2.	c #527DB1",
"3.	c #3B69A3",
"4.	c #3C6BA5",
"5.	c #8DABD3",
"6.	c #BACCE2",
"7.	c #ECECEC",
"8.	c #EAEBEA",
"9.	c #B3C8E0",
"0.	c #A4C0E2",
"a.	c #9CBADF",
"b.	c #B2CCE5",
"c.	c #8AAAD0",
"d.	c #6F95C2",
"e.	c #BBD0E8",
"f.	c #A1BCE1",
"g.	c #93B2DC",
"h.	c #CED8E4",
"i.	c #EDEEEC",
"j.	c #EBEBEA",
"k.	c #E7E8E8",
"l.	c #C0CEE1",
"m.	c #94B3DD",
"n.	c #80A4CF",
"o.	c #9EBBDD",
"p.	c #A1BEE0",
"q.	c #ADC8E1",
"r.	c #AEC6E2",
"s.	c #A5BFDE",
"t.	c #90B0D9",
"u.	c #ACC0DB",
"v.	c #EDEDEC",
"w.	c #CFD5DB",
"x.	c #7A91B0",
"y.	c #748EAF",
"z.	c #7690B2",
"A.	c #7791B3",
"B.	c #7992B1",
"C.	c #AEBCCA",
"D.	c #DBDEE1",
"E.	c #ADC2DA",
"F.	c #80A2CE",
"G.	c #8AACD1",
"H.	c #95B4DB",
"I.	c #92B2D9",
"J.	c #ADC9DF",
"K.	c #6D94C0",
"L.	c #84A4CB",
"M.	c #AEC6DF",
"N.	c #8EADD7",
"O.	c #8FADD2",
"P.	c #E8E9E8",
"Q.	c #92A5BC",
"R.	c #7995B9",
"S.	c #819FC5",
"T.	c #84A3CA",
"U.	c #85A3CB",
"V.	c #83A1C8",
"W.	c #7E9AC0",
"X.	c #7792B6",
"Y.	c #98AAC0",
"Z.	c #ECECEB",
"`.	c #9DB6D7",
" +	c #8CACD6",
".+	c #698FBE",
"++	c #A7C3E2",
"@+	c #98B6DA",
"#+	c #9FBCD9",
"$+	c #96B6D4",
"%+	c #A8C2DC",
"&+	c #97B4D8",
"*+	c #87A7D1",
"=+	c #D9DFE4",
"-+	c #859CB9",
";+	c #7C9AC1",
">+	c #83A2CC",
",+	c #86A6D1",
"'+	c #87A7D2",
")+	c #8AA9D3",
"!+	c #8CAAD3",
"~+	c #85A4CE",
"{+	c #82A1CA",
"]+	c #7B98BF",
"^+	c #8198B7",
"/+	c #DDE0E2",
"(+	c #DEE2E6",
"_+	c #88A8D3",
":+	c #7EA0CD",
"<+	c #81A4CC",
"[+	c #A6C1E1",
"}+	c #8AA9D4",
"|+	c #8FAED5",
"1+	c #A4C2D8",
"2+	c #4A77AC",
"3+	c #618BB8",
"4+	c #A7C3DA",
"5+	c #85A6D0",
"6+	c #95AFD0",
"7+	c #A5B4C7",
"8+	c #7997BF",
"9+	c #80A1CB",
"0+	c #82A3CE",
"a+	c #87A7CF",
"b+	c #C1CEDE",
"c+	c #D3DAE3",
"d+	c #8CA9CF",
"e+	c #8097B6",
"f+	c #84A3C9",
"g+	c #83A4CF",
"h+	c #658BBC",
"i+	c #A5C1E0",
"j+	c #8BABD3",
"k+	c #9DBDD4",
"l+	c #688EBA",
"m+	c #84A6C9",
"n+	c #98B6D3",
"o+	c #7EA0CA",
"p+	c #C8D2DD",
"q+	c #E4E6E7",
"r+	c #7291B7",
"s+	c #7C9DC7",
"t+	c #7FA0CB",
"u+	c #92ADCE",
"v+	c #E0E4E6",
"w+	c #E0E3E5",
"x+	c #AFBCCC",
"y+	c #A0B2C6",
"z+	c #B3C1D2",
"A+	c #8EA9CB",
"B+	c #7D9EC8",
"C+	c #7593BA",
"D+	c #D5DBE1",
"E+	c #B3C3D6",
"F+	c #7FA1CC",
"G+	c #7A9CC8",
"H+	c #7B9FC8",
"I+	c #8DADD3",
"J+	c #92B3D0",
"K+	c #7DA2C4",
"L+	c #8DAECC",
"M+	c #8DADCF",
"N+	c #7899C4",
"O+	c #CCD3DA",
"P+	c #7595BF",
"Q+	c #7B9CC8",
"R+	c #799BC6",
"S+	c #D3DAE0",
"T+	c #DCE0E2",
"U+	c #6F89AC",
"V+	c #6A87AD",
"W+	c #6D8BB1",
"X+	c #6F8EB6",
"Y+	c #7697C1",
"Z+	c #82A2CB",
"`+	c #98B6D9",
" @	c #A6C2E1",
".@	c #BCD0E6",
"+@	c #CDD9E7",
"@@	c #7FA0CC",
"#@	c #7B9DC9",
"$@	c #688EBD",
"%@	c #A8C3E3",
"&@	c #9BB9DB",
"*@	c #87A9CB",
"=@	c #8BAFCA",
"-@	c #92B2CD",
";@	c #85A5C9",
">@	c #7293BD",
",@	c #A5B5C9",
"'@	c #7394BF",
")@	c #7799C5",
"!@	c #7897BF",
"~@	c #99A9BF",
"{@	c #6D8CB4",
"]@	c #7394BE",
"^@	c #7495C0",
"/@	c #82A1CB",
"(@	c #A5C2E1",
"_@	c #ACC6E3",
":@	c #C5D5E6",
"<@	c #85A6CE",
"[@	c #7296C2",
"}@	c #8EAED2",
"|@	c #7B9BC7",
"1@	c #7C9FC6",
"2@	c #90B4C9",
"3@	c #4471A7",
"4@	c #92B3CC",
"5@	c #7EA0C5",
"6@	c #6E8FB9",
"7@	c #8CA3BF",
"8@	c #7193BE",
"9@	c #7395C1",
"0@	c #7896BC",
"a@	c #869DB9",
"b@	c #6F91BC",
"c@	c #7396C2",
"d@	c #83A3CB",
"e@	c #A6C2E2",
"f@	c #A8C3E2",
"g@	c #84A6CD",
"h@	c #8DA8CA",
"i@	c #A0B8D4",
"j@	c #A7C2E1",
"k@	c #7A9CC6",
"l@	c #6D93C0",
"m@	c #7599C4",
"n@	c #7496C2",
"o@	c #8CB1C7",
"p@	c #567FAF",
"q@	c #8BADC8",
"r@	c #7B9EC2",
"s@	c #698BB5",
"t@	c #A0B3CA",
"u@	c #6E90BD",
"v@	c #6F91BE",
"w@	c #6889B3",
"x@	c #E1E4E5",
"y@	c #9CAEC6",
"z@	c #6D8FBB",
"A@	c #6F92BF",
"B@	c #7093C0",
"C@	c #A3BFE0",
"D@	c #A7C2E2",
"E@	c #618AB8",
"F@	c #426FA5",
"G@	c #A4B8CD",
"H@	c #6A8CB3",
"I@	c #4F7AAD",
"J@	c #9DBADC",
"K@	c #9AB7DA",
"L@	c #6F93C0",
"M@	c #6389B7",
"N@	c #A4C0E0",
"O@	c #7597C3",
"P@	c #85ACC3",
"Q@	c #5883B0",
"R@	c #83A6C1",
"S@	c #789BBF",
"T@	c #6687B1",
"U@	c #EBECEA",
"V@	c #B2BFCF",
"W@	c #698CB8",
"X@	c #6B8DBA",
"Y@	c #6586B1",
"Z@	c #C1CAD4",
"`@	c #C7CFD8",
" #	c #688BB7",
".#	c #6B8EBB",
"+#	c #7E9FC7",
"@#	c #6C92BE",
"##	c #4C77AA",
"$#	c #668AB6",
"%#	c #E6E8E8",
"&#	c #6785AD",
"*#	c #5C83B2",
"=#	c #5E87B5",
"-#	c #7898C2",
";#	c #6A8EBB",
">#	c #779AC4",
",#	c #80A7BF",
"'#	c #5984B0",
")#	c #799EBD",
"!#	c #779ABD",
"~#	c #6284AF",
"{#	c #E5E7E7",
"]#	c #C5CED8",
"^#	c #6587B4",
"/#	c #678AB8",
"(#	c #6385B1",
"_#	c #8A9EB8",
":#	c #9CAFC8",
"<#	c #6789B7",
"[#	c #94B2D6",
"}#	c #A1BEDF",
"|#	c #4C76AA",
"1#	c #668AB7",
"2#	c #B4C1D2",
"3#	c #CBD2D9",
"4#	c #6182AD",
"5#	c #5B81B1",
"6#	c #9EBCDD",
"7#	c #8FAED3",
"8#	c #7B9DC7",
"9#	c #7BA2BC",
"0#	c #5B86B0",
"a#	c #3B6AA2",
"b#	c #7097B8",
"c#	c #7499BB",
"d#	c #5F81AD",
"e#	c #DEE1E2",
"f#	c #E8E9EA",
"g#	c #6083AF",
"h#	c #6387B5",
"i#	c #6184B1",
"j#	c #5979A3",
"k#	c #BAC3CD",
"l#	c #BFCAD7",
"m#	c #A1BDDD",
"n#	c #87A8CE",
"o#	c #839EBF",
"p#	c #C3CDD9",
"q#	c #6F89AA",
"r#	c #8CACD1",
"s#	c #86A6CD",
"t#	c #85A6CD",
"u#	c #7A9CC5",
"v#	c #759DB8",
"w#	c #5B86AF",
"x#	c #678FB2",
"y#	c #749AB8",
"z#	c #5C7EAB",
"A#	c #D1D6DC",
"B#	c #92A7C1",
"C#	c #5F83B1",
"D#	c #5F82B0",
"E#	c #5B7DA9",
"F#	c #5E7A9E",
"G#	c #CAD1D7",
"H#	c #90AED0",
"I#	c #E1E3E4",
"J#	c #7088A6",
"K#	c #597BA6",
"L#	c #5E81AF",
"M#	c #99B7DA",
"N#	c #81A3CA",
"O#	c #8DACD1",
"P#	c #6D92BD",
"Q#	c #729BB4",
"R#	c #5A84AD",
"S#	c #3C6AA2",
"T#	c #5480AC",
"U#	c #779EB7",
"V#	c #587BA9",
"W#	c #AAB8C8",
"X#	c #D6DBE0",
"Y#	c #5A7DAB",
"Z#	c #5B7FAE",
"`#	c #5A7EAC",
" $	c #5577A2",
".$	c #4F6D94",
"+$	c #94A3B6",
"@$	c #E5E6E6",
"#$	c #A9C3E3",
"$$	c #9FBBD9",
"%$	c #ACB7C5",
"&$	c #577498",
"*$	c #5476A1",
"=$	c #7495BF",
"-$	c #698FBB",
";$	c #5C80AE",
">$	c #A2BEDF",
",$	c #6389B6",
"'$	c #709CB2",
")$	c #4F7AA8",
"!$	c #3B69A4",
"~$	c #426EA5",
"{$	c #749DB4",
"]$	c #5A80AB",
"^$	c #6884A6",
"/$	c #6786AD",
"($	c #577CAB",
"_$	c #567BA9",
":$	c #5275A2",
"<$	c #4C6D96",
"[$	c #49678E",
"}$	c #95B3D4",
"|$	c #A5C0E0",
"1$	c #6F86A3",
"2$	c #4C698E",
"3$	c #4B6B94",
"4$	c #5274A0",
"5$	c #7091BA",
"6$	c #7192BC",
"7$	c #6B8EB8",
"8$	c #85A5CA",
"9$	c #8DADD2",
"0$	c #4570A5",
"a$	c #6488B4",
"b$	c #4E76A8",
"c$	c #5B80AB",
"d$	c #6C99AF",
"e$	c #4370A5",
"f$	c #6992AF",
"g$	c #5D85AA",
"h$	c #4C709B",
"i$	c #E8E9E9",
"j$	c #C8D0D9",
"k$	c #5177A6",
"l$	c #5278A7",
"m$	c #5075A2",
"n$	c #4D719E",
"o$	c #6F92BC",
"p$	c #82A1C5",
"q$	c #4D719D",
"r$	c #4F74A2",
"s$	c #5177A5",
"t$	c #80A1C8",
"u$	c #A3C0DF",
"v$	c #698FBC",
"w$	c #3A699F",
"x$	c #4E75A6",
"y$	c #86A6CA",
"z$	c #85A7CE",
"A$	c #4B74A5",
"B$	c #5C85A9",
"C$	c #6390AB",
"D$	c #5883A8",
"E$	c #618BAA",
"F$	c #4A6F9C",
"G$	c #C8CFD6",
"H$	c #ECEDEC",
"I$	c #5A7BA6",
"J$	c #4E74A4",
"K$	c #4E74A3",
"L$	c #527AA9",
"M$	c #678AB4",
"N$	c #416DA1",
"O$	c #3F6DA3",
"P$	c #547DAE",
"Q$	c #4572A6",
"R$	c #39689F",
"S$	c #3D699F",
"T$	c #4A72A3",
"U$	c #6D90B9",
"V$	c #A7C3E1",
"W$	c #517BAC",
"X$	c #4D74A4",
"Y$	c #608CA7",
"Z$	c #507FA6",
"`$	c #3C6BA3",
" %	c #4873A5",
".%	c #6591AA",
"+%	c #4B719F",
"@%	c #6F87A5",
"#%	c #A8B6C8",
"$%	c #496F9F",
"%%	c #4A70A1",
"&%	c #4870A1",
"*%	c #7A9DC7",
"=%	c #446CA0",
"-%	c #406A9F",
";%	c #426C9F",
">%	c #446D9F",
",%	c #4970A1",
"'%	c #6386B2",
")%	c #A4C0DF",
"!%	c #6F94BF",
"~%	c #3F6A9F",
"{%	c #517BA3",
"]%	c #5D8CA5",
"^%	c #3F6EA3",
"/%	c #5C87A4",
"(%	c #527DA0",
"_%	c #406490",
":%	c #E0E2E3",
"<%	c #7690B0",
"[%	c #466D9D",
"}%	c #3E699E",
"|%	c #89A9CF",
"1%	c #89A9CD",
"2%	c #6589B4",
"3%	c #4A71A0",
"4%	c #4F75A3",
"5%	c #86A5CA",
"6%	c #8FAFD3",
"7%	c #3A689D",
"8%	c #4A729E",
"9%	c #5989A1",
"0%	c #4B78A1",
"a%	c #4976A1",
"b%	c #5987A1",
"c%	c #406593",
"d%	c #94A4B8",
"e%	c #DDE0E3",
"f%	c #416798",
"g%	c #42699A",
"h%	c #41699A",
"i%	c #3E6A9E",
"j%	c #96B4D7",
"k%	c #89A8CC",
"l%	c #84A4C9",
"m%	c #8CAACF",
"n%	c #94B1D4",
"o%	c #4672A4",
"p%	c #53829E",
"q%	c #4D7B9D",
"r%	c #3F6CA3",
"s%	c #5D8BA5",
"t%	c #4F769F",
"u%	c #446691",
"v%	c #859BB8",
"w%	c #486EA0",
"x%	c #476DA0",
"y%	c #416EA2",
"z%	c #7DA0C8",
"A%	c #8BABD1",
"B%	c #4571A6",
"C%	c #416A9F",
"D%	c #5381A2",
"E%	c #5584A1",
"F%	c #406DA4",
"G%	c #5582A7",
"H%	c #5D8AA7",
"I%	c #4A6E9D",
"J%	c #BBC4CF",
"K%	c #DEE0E2",
"L%	c #95A5BA",
"M%	c #4C709E",
"N%	c #4F75A6",
"O%	c #5278A8",
"P%	c #5882A7",
"Q%	c #5F8EA8",
"R%	c #5E8CA8",
"S%	c #5884A7",
"T%	c #4D75A6",
"U%	c #3D6AA0",
"V%	c #517DAF",
"W%	c #94B3D6",
"X%	c #678EBB",
"Y%	c #456FA3",
"Z%	c #5682A5",
"`%	c #5C8CA6",
" &	c #4572A5",
".&	c #3B6BA4",
"+&	c #4673A6",
"@&	c #6595AE",
"#&	c #577DA9",
"$&	c #6380A5",
"%&	c #ECECEA",
"&&	c #C9D0D6",
"*&	c #6D84A2",
"=&	c #496993",
"-&	c #4E709E",
";&	c #587FA9",
">&	c #5F8CAD",
",&	c #6393AC",
"'&	c #5F8DAB",
")&	c #507DA9",
"!&	c #4A7AA9",
"~&	c #5E8DAC",
"{&	c #6191AC",
"]&	c #5A84AE",
"^&	c #4B75A9",
"/&	c #3C6BA2",
"(&	c #5C85B4",
"_&	c #7297C2",
":&	c #89A9D0",
"<&	c #9FBBDE",
"[&	c #81A3CB",
"}&	c #688EBC",
"|&	c #4673A8",
"1&	c #406CA3",
"2&	c #527BAC",
"3&	c #5D8CAC",
"4&	c #5E8FAB",
"5&	c #4977A7",
"6&	c #6190B0",
"7&	c #638FB2",
"8&	c #577BAA",
"9&	c #53749C",
"0&	c #51729D",
"a&	c #5679A5",
"b&	c #5E87AD",
"c&	c #6593AF",
"d&	c #6897B1",
"e&	c #5D8BAF",
"f&	c #4978A8",
"g&	c #5383AD",
"h&	c #6695B1",
"i&	c #6392B1",
"j&	c #5C86B3",
"k&	c #4A77AA",
"l&	c #436FA6",
"m&	c #3D6BA2",
"n&	c #416EA5",
"o&	c #3E6CA3",
"p&	c #4471A6",
"q&	c #4F7BAD",
"r&	c #608EB2",
"s&	c #6496B0",
"t&	c #5E8EAF",
"u&	c #4371A6",
"v&	c #507EAD",
"w&	c #6C9CB7",
"x&	c #6489BA",
"y&	c #6288B4",
"z&	c #6692B3",
"A&	c #6B9BB5",
"B&	c #6999B5",
"C&	c #5887AF",
"D&	c #4271A6",
"E&	c #3A69A2",
"F&	c #4473A8",
"G&	c #6191B3",
"H&	c #6A9CB5",
"I&	c #6A9BB6",
"J&	c #6896B7",
"K&	c #6691B9",
"L&	c #5F89B6",
"M&	c #5A86B3",
"N&	c #5F8AB6",
"O&	c #6593B9",
"P&	c #6897B6",
"Q&	c #689BB5",
"R&	c #6495B4",
"S&	c #507EAE",
"T&	c #6E9EBA",
"U&	c #709FBB",
"V&	c #71A1BB",
"W&	c #6898B9",
"X&	c #5283AF",
"Y&	c #3A68A0",
"Z&	c #517EAE",
"`&	c #5E8CB4",
" *	c #6A9AB9",
".*	c #6EA0BA",
"+*	c #6E9FBA",
"@*	c #6D9EBB",
"#*	c #6798B8",
"$*	c #5D8BB3",
"%*	c #4D7DAE",
"&*	c #5C8CB5",
"**	c #6492B8",
"=*	c #4A78AB",
"-*	c #39659A",
";*	c #39669E",
">*	c #39669D",
",*	c #37669C",
"                                                                                                ",
"                                                                                                ",
"                                                                                                ",
"                                                                                                ",
"                                                                        . + @                   ",
"                        # $ % & & & $ *                             = & - ; >                   ",
"                    , ' ) ! ~ { ] ^ / ( _ & $                 : < [ } | 1 2 3 4                 ",
"                5 6 7 8 9 0 a b c b d 2 e ^ f g h         i j k l m 2 a n o p '                 ",
"              q r s t u v w w w w w w x y z 9 A B ' @ ' C D E e F G H w w v I J K               ",
"            + L 9 M N w O P Q R S T U V W w X Y Z `  ...+.@.#.$.w w %.&.*.w =.-.h               ",
"          C ;.2 >.w ,.'.).).).).).).).).!.~.{.w G ].^./.(._.w w :.<.[.[.}.|.X 1.2.3.            ",
"        4.5.@.y {.6.7.).).).).).).).).).).).8.9.{.w N w w w w 0.[.[.[.[.[.a.w b.c.4             ",
"      < d.e.f.g.h.).).).).).).i.j.k.!.).).).).).l.g.m.m.m.m.m.n.[.[.[.[.[.o.m.p.q.'             ",
"      [ r.s.t.u.v.).).).v.w.x.y.z.A.B.C.D.).).).).E.t.t.t.t.t.F.G.[.[.[.[.[.H.I.J.K.4           ",
"    , L.M.N.O.R ).).).P.Q.R.S.T.U.U.V.W.X.Y.Z.).).v.`. + + + + +.+++[.[.[.[.@+ +#+$+&           ",
"    4 %+&+*+=+).).).!.-+;+>+,+'+'+)+!+~+{+]+^+/+).).(+,+_+_+_+_+:+<+[.[.[.[.[+}+|+1+2+          ",
"  * 3+4+5+6+).).).).7+8+9+0+a+b+T ).S c+d+9+8+e+v.).).f+g+g+g+g+g+h+i+[.[.[.[.j+g+k+l+q         ",
"  i m+n+o+p+).).).q+r+s+t+u+v+).w+x+y+z+A+o+B+C+D+).).E+t+F+F+F+F+G+H+[.[.[.[.I+F+J+K+C         ",
"  & L+M+N+q+).).).O+P+Q+R+S+).T+U+V+W+X+Y+Z+`+ @.@).).+@`+@@#@#@#@#@$@%@[.[.[.&@#@*@=@&         ",
"  & -@;@>@8.).).).,@'@)@!@).).~@{@]@^@^@/@(@[.[._@).).:@[.i+<@)@)@)@[@}@[.[.[.[.|@1@2@3@        ",
"  * 4@5@6@!.).).).7@8@9@0@).).a@b@c@c@d@e@[.f@g@h@).).i@e@[.j@k@c@c@c@l@[.[.[.[.m@n@o@p@3.      ",
"  & q@r@s@!.).).).t@u@v@w@x@).y@z@A@B@C@[.D@E@F@G@).).H@I@J@[.K@L@A@A@M@N@[.[.[.O@A@P@Q@h       ",
"  & R@S@T@U@).).).V@W@X@Y@Z@).`@ #.#+#[.[.@###$#%#).).&#*#=#[.[.-#.#.#;#`+[.[.[.>#.#,#'#%       ",
"  & )#!#~#{#).).).]#^#/#(#_#).).:#<#[#[.}#|#1#2#).).3#4#<#5#6#[.k@/#/#/#7#[.[.[.8#/#9#0#*       ",
"  a#b#c#d#e#).).).f#g#h#i#j#k#).).l#m#[.n#o#p#).).Z.q#g#h#h#r#[.s#h#h#h#t#[.[.[.u#h#v#w#C       ",
"  % x#y#z#A#).).).).B#C#D#E#F#G#).).j@[.H#).).).I#J#K#L#C#C#M#[.N#C#C#C#O#[.[.[.P#C#Q#R#@       ",
"  S#T#U#V#W#).).).).X#Y#Z#`# $.$+$@$#$[.$$).@$%$&$*$Y#Z#Z#=$%@[.-$Z#Z#;$>$[.[.[.,$Z#'$)$!$      ",
"    ~${$]$^$).).).).)./$($($_$:$<$[$}$[.|$1$2$3$4$5$6$7$8$}.[.9$0$($($a$[.[.[.}.b$c$d$e$        ",
"    % f$g$h$i$).).).).j$k$l$l$k$m$n$o$[.[.p$q$r$s$t$++[.[.u$v$w$x$l$l$y$[.[.[.z$A$B$C$&         ",
"    % D$E$F$G$).).).).H$I$J$J$J$J$K$L$[.[.f@M$J$J$N$O$P$Q$R$S$T$J$J$U$[.[.[.V$W$X$Y$Z$`$        ",
"    &  %.%+%@%).).).).).#%$%%%%%%%%%&%*%[.[.++6$%%%%=%-%;%>%,%%%%%'%)%[.[.[.!%~%{%]%^%          ",
"      & /%(%_%:%).).).).!.<%[%[%[%[%[%}%|%[.[.[.1%2%3%[%[%[%[%4%5%[.[.[.[.6%7%8%9%0%j           ",
"      @ a%b%c%d%).).).).).e%f%g%g%g%g%h%i%j%[.[.[.[.|$k%l%m%n%)%[.[.[.[.>$o%h%p%q%3.            ",
"        r%s%t%u%j.).).).).).v%w%w%w%w%w%x%y%z%%@[.[.[.[.[.[.[.[.[.[.[.A%B%C%D%E%F%h             ",
"        a#G%H%I%J%).).).K%L%M%N%O%P%Q%R%S%T%U%V%W%[.[.[.[.[.[.[.[.)%X%w$Y%Z%`% &j               ",
"        .&+&@&#&$&%&&&*&=&-&;&>&,&'&)&!&~&{&]&^&/&(&_&:&<&[.M#[&}&|&1&2&3&4&5&*                 ",
"          % 6&7&8&9&0&a&b&c&d&e&f&& h & * g&h&i&j&k&l&m&S#n&S#o&p&q&r&s&t&u&`$                  ",
"          C v&w&x&y&z&A&B&C&D&.&E&        `$F&G&H&I&J&K&L&M&N&O&P&Q&R&S&* @                     ",
"            C T&U&V&W&X&C `$                Y&& n&Z&`& *.*+*@*#*$*%** g                         ",
"            g &***=*% S#                          -*C & i .&& & @ ;*                            ",
"            >*& `$,*                                                                            ",
"                                                                                                ",
"                                                                                                ",
"                                                                                                ",
"                                                                                                ",
"                                                                                                ",
"                                                                                                ",
"                                                                                                "};
