/* XPM */
static char * movieplayer_xpm[] = {
"48 48 539 2",
"  	c None",
". 	c #6D6F6A",
"+ 	c #70726D",
"@ 	c #AEAFAD",
"# 	c #D6D7D6",
"$ 	c #ABADAA",
"% 	c #797B76",
"& 	c #6F716B",
"* 	c #6D716C",
"= 	c #71736E",
"- 	c #E0E0DF",
"; 	c #FBFBFB",
"> 	c #FCFCFC",
", 	c #F8F2F2",
"' 	c #DAA3A3",
") 	c #C99291",
"! 	c #A68483",
"~ 	c #72716D",
"{ 	c #6A6C68",
"] 	c #6C6E68",
"^ 	c #F9F9F9",
"/ 	c #F1DCDC",
"( 	c #B83939",
"_ 	c #B32A2A",
": 	c #BE4949",
"< 	c #C96868",
"[ 	c #D58888",
"} 	c #D59797",
"| 	c #C2BBB9",
"1 	c #91928E",
"2 	c #6C6E69",
"3 	c #70736E",
"4 	c #949691",
"5 	c #FDFDFD",
"6 	c #EBCBCB",
"7 	c #B42C2C",
"8 	c #AD1919",
"9 	c #B22828",
"0 	c #EAC7C7",
"a 	c #F7F7F6",
"b 	c #DDDEDC",
"c 	c #B5B6B3",
"d 	c #808977",
"e 	c #6D6F6B",
"f 	c #6F716C",
"g 	c #6C6D68",
"h 	c #C7C8C6",
"i 	c #B02222",
"j 	c #B73434",
"k 	c #EFD6D6",
"l 	c #F9FAF8",
"m 	c #B4D496",
"n 	c #A2CA7C",
"o 	c #B3D395",
"p 	c #AEC993",
"q 	c #99AD86",
"r 	c #747B6D",
"s 	c #6D706B",
"t 	c #6F716D",
"u 	c #DDB8B8",
"v 	c #CC6F6F",
"w 	c #BD4646",
"x 	c #B22727",
"y 	c #BD4545",
"z 	c #F6E7E7",
"A 	c #FEFEFE",
"B 	c #F4F8F0",
"C 	c #87BB57",
"D 	c #5FA41E",
"E 	c #67A929",
"F 	c #7CB547",
"G 	c #92C165",
"H 	c #D1E4BF",
"I 	c #EAEAE9",
"J 	c #C9C9C8",
"K 	c #999A97",
"L 	c #71726E",
"M 	c #70716C",
"N 	c #77706D",
"O 	c #AB8482",
"P 	c #CA8F8E",
"Q 	c #D69090",
"R 	c #D07B7B",
"S 	c #D58A8A",
"T 	c #F9F3F3",
"U 	c #ECF4E5",
"V 	c #7BB445",
"W 	c #62A522",
"X 	c #BDD8A4",
"Y 	c #FAFAFA",
"Z 	c #F8F8F8",
"` 	c #C3CCD5",
" .	c #98A5B6",
"..	c #81878E",
"+.	c #6C6E6A",
"@.	c #71746E",
"#.	c #6F706C",
"$.	c #85726F",
"%.	c #B1B0AC",
"&.	c #D8D9D8",
"*.	c #F4F4F4",
"=.	c #E4EFD9",
"-.	c #72AF38",
";.	c #66A828",
">.	c #CEE2BB",
",.	c #9EB0CA",
"'.	c #4F71A0",
").	c #6A86AF",
"!.	c #859CBD",
"~.	c #9EAEC5",
"{.	c #9FA6AE",
"].	c #7D7E7B",
"^.	c #6E706B",
"/.	c #8A8B87",
"(.	c #B9BCB6",
"_.	c #B3D098",
":.	c #ACD08B",
"<.	c #98C46E",
"[.	c #82B84F",
"}.	c #6DAC31",
"|.	c #6DAC32",
"1.	c #DBE9CE",
"2.	c #F8F8F9",
"3.	c #869CBD",
"4.	c #365C93",
"5.	c #3C6196",
"6.	c #8CA2C1",
"7.	c #F7F7F9",
"8.	c #EFEFEE",
"9.	c #D0D0CF",
"0.	c #A3A4A0",
"a.	c #737571",
"b.	c #72736E",
"c.	c #6E7368",
"d.	c #8E9F7D",
"e.	c #A8C38E",
"f.	c #B7D49C",
"g.	c #F0F5EC",
"h.	c #F1F3F5",
"i.	c #718CB2",
"j.	c #8AA0BF",
"k.	c #F7F8F8",
"l.	c #E5E5E5",
"m.	c #ADAEAD",
"n.	c #A5A7A4",
"o.	c #8B8C88",
"p.	c #6D6F69",
"q.	c #72736F",
"r.	c #747672",
"s.	c #A5A5A3",
"t.	c #D2D2D0",
"u.	c #EFEFEF",
"v.	c #F2F4F7",
"w.	c #5474A3",
"x.	c #3B6096",
"y.	c #375D93",
"z.	c #A2B3CC",
"A.	c #C8C9C8",
"B.	c #5C5E5A",
"C.	c #565854",
"D.	c #666764",
"E.	c #7C7E7B",
"F.	c #949592",
"G.	c #B4B5B3",
"H.	c #DBDCDB",
"I.	c #80827C",
"J.	c #7A7F80",
"K.	c #919EAF",
"L.	c #9BADC4",
"M.	c #9BAEC9",
"N.	c #829ABC",
"O.	c #6C87B0",
"P.	c #BFCADB",
"Q.	c #888A85",
"R.	c #868781",
"S.	c #80827B",
"T.	c #797B74",
"U.	c #797A74",
"V.	c #7C7D77",
"W.	c #858680",
"X.	c #777A74",
"Y.	c #71736F",
"Z.	c #6C6D6A",
"`.	c #7E8790",
" +	c #AEB4BB",
".+	c #E3E4E3",
"++	c #7A7C76",
"@+	c #F5F5F3",
"#+	c #F6F6F5",
"$+	c #F6F6F4",
"%+	c #787A74",
"&+	c #9B9C9A",
"*+	c #CBCBCA",
"=+	c #797B75",
"-+	c #F9F9F8",
";+	c #E7E7E2",
">+	c #E5E5E1",
",+	c #C4C4C0",
"'+	c #9B9D98",
")+	c #9E9F99",
"!+	c #C5C5C1",
"~+	c #E5E5E0",
"{+	c #C1C2BD",
"]+	c #A1A19D",
"^+	c #C8CAC6",
"/+	c #C7C9C5",
"(+	c #9FA19C",
"_+	c #C2C3BE",
":+	c #E6E6E1",
"<+	c #979994",
"[+	c #CACCC8",
"}+	c #C4C6C0",
"|+	c #C5C7C1",
"1+	c #999B96",
"2+	c #E7E7E3",
"3+	c #949690",
"4+	c #CCCECA",
"5+	c #C2C5BF",
"6+	c #C3C6BF",
"7+	c #CBCCC8",
"8+	c #969792",
"9+	c #777973",
"0+	c #767872",
"a+	c #E8E8E4",
"b+	c #BFC0BA",
"c+	c #A5A7A2",
"d+	c #CDCFCB",
"e+	c #CDCECB",
"f+	c #A3A5A1",
"g+	c #BFBFBA",
"h+	c #E6E6E6",
"i+	c #E1E2E1",
"j+	c #EDEEED",
"k+	c #E1E1E1",
"l+	c #EDEDED",
"m+	c #EDEDEC",
"n+	c #FDFDFC",
"o+	c #E9E9E5",
"p+	c #E3E3DF",
"q+	c #BABAB5",
"r+	c #92948F",
"s+	c #93958F",
"t+	c #BBBCB7",
"u+	c #E3E3DE",
"v+	c #9B9C9B",
"w+	c #7B7C7A",
"x+	c #A3A4A2",
"y+	c #FAFAF9",
"z+	c #A2A3A2",
"A+	c #F8F8F7",
"B+	c #F9F9F7",
"C+	c #F5F5F4",
"D+	c #9A9B99",
"E+	c #7A7B79",
"F+	c #A1A2A0",
"G+	c #F5F5F2",
"H+	c #A7A7A7",
"I+	c #787978",
"J+	c #979796",
"K+	c #F6F7F5",
"L+	c #FBFBFA",
"M+	c #969696",
"N+	c #F5F6F4",
"O+	c #A6A6A6",
"P+	c #777877",
"Q+	c #777876",
"R+	c #959594",
"S+	c #F2F3F1",
"T+	c #F7F7F5",
"U+	c #EAEAE5",
"V+	c #E9E9E4",
"W+	c #E6E6E2",
"X+	c #F0F0F0",
"Y+	c #797A78",
"Z+	c #8E8E8E",
"`+	c #F3F3F2",
" @	c #FCFCFB",
".@	c #B7B7B6",
"+@	c #8E8E8D",
"@@	c #F2F2F1",
"#@	c #B6B6B5",
"$@	c #8C8C8C",
"%@	c #EFEFED",
"&@	c #EAEAE6",
"*@	c #484E4F",
"=@	c #E8E8E3",
"-@	c #F3F4F1",
";@	c #F3F4F2",
">@	c #F4F5F3",
",@	c #F1F1EF",
"'@	c #EFF0ED",
")@	c #EEEFEC",
"!@	c #EDEEEB",
"~@	c #F0F0ED",
"{@	c #F1F1EE",
"]@	c #EFEFEC",
"^@	c #EFEFEB",
"/@	c #EDEDE9",
"(@	c #A5A7A6",
"_@	c #797C7C",
":@	c #4E5354",
"<@	c #313739",
"[@	c #AAACAB",
"}@	c #AEB1AF",
"|@	c #BBBDBB",
"1@	c #FEFEFD",
"2@	c #F8F8F6",
"3@	c #F4F4F2",
"4@	c #F3F3F1",
"5@	c #F2F2F0",
"6@	c #DADAD8",
"7@	c #5B6060",
"8@	c #464C4D",
"9@	c #636867",
"0@	c #777A79",
"a@	c #8F918F",
"b@	c #32383A",
"c@	c #D2D3D1",
"d@	c #CBCCCA",
"e@	c #C5C6C4",
"f@	c #BABCBB",
"g@	c #A1A3A2",
"h@	c #D6D7D3",
"i@	c #F2F2EF",
"j@	c #A9ACAA",
"k@	c #3B4141",
"l@	c #757877",
"m@	c #A2A3A1",
"n@	c #8C8E8B",
"o@	c #7C7D7A",
"p@	c #6B6D69",
"q@	c #C7C7C5",
"r@	c #CCCCCA",
"s@	c #D1D1CF",
"t@	c #D7D8D6",
"u@	c #B3B5B4",
"v@	c #BFC1C0",
"w@	c #F3F3F0",
"x@	c #6F7373",
"y@	c #4E5253",
"z@	c #959795",
"A@	c #90918E",
"B@	c #555753",
"C@	c #C0C1BE",
"D@	c #C2C3C0",
"E@	c #D1D2CF",
"F@	c #D4D5D3",
"G@	c #8B8E8D",
"H@	c #A8AAA9",
"I@	c #505555",
"J@	c #757773",
"K@	c #C9CAC7",
"L@	c #BEC0BE",
"M@	c #949797",
"N@	c #DFDFDE",
"O@	c #DEDEDD",
"P@	c #CACBCA",
"Q@	c #393F41",
"R@	c #969896",
"S@	c #747673",
"T@	c #676965",
"U@	c #7A7C79",
"V@	c #303638",
"W@	c #C8C8C6",
"X@	c #D5D5D3",
"Y@	c #B4B5B5",
"Z@	c #DDDDDB",
"`@	c #DCDCDA",
" #	c #595E5E",
".#	c #747776",
"+#	c #90928F",
"@#	c #A9AAA8",
"##	c #FFFFFF",
"$#	c #E8E8E7",
"%#	c #D0D1CE",
"&#	c #474C4E",
"*#	c #A2A4A2",
"=#	c #5D5F5B",
"-#	c #C2C2C0",
";#	c #D7D7D5",
">#	c #BDBEBD",
",#	c #DEDEDC",
"'#	c #DDDDDA",
")#	c #A9ABAA",
"!#	c #666A6A",
"~#	c #8E8F8C",
"{#	c #2F3537",
"]#	c #D0D0CE",
"^#	c #C6C7C6",
"/#	c #A5A7A7",
"(#	c #DBDBD9",
"_#	c #DADAD7",
":#	c #7C7F7F",
"<#	c #7A7C7B",
"[#	c #70726F",
"}#	c #CBCBC9",
"|#	c #CCCDCB",
"1#	c #B1B3B2",
"2#	c #4F5455",
"3#	c #919391",
"4#	c #6A6C69",
"5#	c #ECEDEB",
"6#	c #E5E6E4",
"7#	c #D3D3D2",
"8#	c #AFB1B0",
"9#	c #DCDCD9",
"0#	c #DBDBD8",
"a#	c #D9D9D7",
"b#	c #363B3D",
"c#	c #A3A4A3",
"d#	c #2E3436",
"e#	c #DEDFDD",
"f#	c #D8D9D7",
"g#	c #B4B6B5",
"h#	c #D8D8D6",
"i#	c #EEEEEB",
"j#	c #D8D8D4",
"k#	c #494E4F",
"l#	c #343A3C",
"m#	c #666966",
"n#	c #A6A7A5",
"o#	c #D4D4D3",
"p#	c #929390",
"q#	c #373D3F",
"r#	c #393E40",
"s#	c #363C3D",
"t#	c #353B3C",
"u#	c #353B3D",
"v#	c #363C3E",
"w#	c #383E40",
"x#	c #EEEEEA",
"y#	c #EDEDEA",
"z#	c #ECECE9",
"A#	c #ECECE8",
"B#	c #787B7B",
"C#	c #7C7F7E",
"D#	c #545652",
"E#	c #60625F",
"F#	c #F3F3F3",
"G#	c #F8F9F9",
"H#	c #B0B1AF",
"I#	c #303637",
"J#	c #D8D8D5",
"K#	c #EBEBE8",
"L#	c #D7D7D3",
"M#	c #A2A5A3",
"N#	c #676B6A",
"O#	c #8C8D8A",
"P#	c #CCCCCB",
"Q#	c #C9CAC8",
"R#	c #868784",
"S#	c #D5D5D2",
"T#	c #D5D5D1",
"U#	c #EBEBE7",
"V#	c #D6D6D2",
"W#	c #D4D4D1",
"X#	c #D4D4D0",
"Y#	c #D3D3D0",
"Z#	c #C8C9C6",
"`#	c #5A5C58",
" $	c #838482",
".$	c #60625E",
"+$	c #B2B3B1",
"@$	c #585A56",
"#$	c #9FA09E",
"$$	c #474C4D",
"%$	c #595D5D",
"&$	c #7A7D7C",
"*$	c #8A8C89",
"=$	c #ABACAA",
"-$	c #8F908E",
";$	c #AAABA9",
">$	c #E3E3E3",
",$	c #828380",
"'$	c #858684",
")$	c #7F8281",
"!$	c #D3D3CF",
"~$	c #D2D2CF",
"{$	c #BEBFBC",
"]$	c #3B4042",
"^$	c #9B9D9A",
"/$	c #6E706D",
"($	c #ACADAB",
"_$	c #696B67",
":$	c #9C9E9C",
"<$	c #DBDBD7",
"[$	c #D1D1CC",
"}$	c #D2D2CD",
"|$	c #D1D1CD",
"1$	c #8F928F",
"2$	c #55595A",
"3$	c #6A6B68",
"4$	c #888986",
"5$	c #BABBBA",
"6$	c #F2F2F2",
"7$	c #E6E7E6",
"8$	c #7D7F7B",
"9$	c #686A67",
"0$	c #A0A19F",
"a$	c #535858",
"b$	c #7A7C77",
"c$	c #BDBEB9",
"d$	c #696D6E",
"e$	c #565B5B",
"f$	c #9C9D9C",
"g$	c #868885",
"h$	c #848683",
"i$	c #9D9F9D",
"j$	c #575B5C",
"k$	c #3F4444",
"l$	c #7C7D76",
"m$	c #7A7B76",
"n$	c #7F817B",
"o$	c #7F817A",
"p$	c #5D615E",
"q$	c #383D3F",
"r$	c #7D807F",
"s$	c #747572",
"t$	c #636561",
"u$	c #626460",
"v$	c #848582",
"w$	c #9E9F9D",
"x$	c #4D5150",
"y$	c #2E3335",
"z$	c #484C4E",
"A$	c #696C6C",
"B$	c #828584",
"C$	c #989A98",
"D$	c #404547",
"E$	c #9B9D9B",
"F$	c #838684",
"G$	c #696D6C",
"H$	c #494F50",
"I$	c #24282A",
"J$	c #2C3132",
"K$	c #2F3536",
"L$	c #2C3133",
"M$	c #25292B",
"N$	c #2E3435",
"                                                                                                ",
"        . +                                                                                     ",
"        @ # $ % & *                                                                             ",
"      = - ; > , ' ) ! ~ + {                                                                     ",
"      ] ^ ; / ( _ : < [ } | 1 2 3                                                               ",
"      4 5 6 7 8 8 8 8 9 0 > > a b c d e f                                                       ",
"    g h 0 i 8 8 8 8 j k 5 > > ; l m n o p q r + s                                               ",
"    t u v w x 8 8 y z A A A 5 B C D D E F G H I J K f L                                         ",
"    M N O P Q R S T > 5 5 A U V D D D D W X Y Y Y ; Z `  ...+.@.                                ",
"          #.s $.%.&.*.5 5 =.-.D D D D ;.>.; Y Y ^ ^ ,.'.).!.,.~.{.].^.#.                        ",
"                  L e /.(._.:.<.[.}.|.1.; ; Y Y 2.3.4.4.4.4.5.6.7.> 8.9.0.a.3 +.                ",
"                          b.c.d.e.f.g.> ; Y Y h.i.4.4.4.4.4.j.k.^ ^ ^ Y l.m.@ n.o.p.q.          ",
"                                +.M r.s.t.u.v.6.w.x.4.4.y.z.^ ^ ^ ^ ^ A.B.C.D.E.F.G.H.I.        ",
"                                        f ^.J.K.L.M.N.O.P.^ ^ ^ Q.R.S.T.U.U.U.U.V.W.R.X.        ",
"                                                Y.Z.`. +.+^ ; Y ++@+#+#+#+#+#+#+#+#+$+%+        ",
"                                                      { = + &+*+=+-+;+>+,+'+)+!+~+;+-+%+        ",
"                                                              e %+-+;+{+]+^+/+(+_+:+-+%+        ",
"                                                                %+-+;+<+[+}+|+^+1+:+-+%+        ",
"                                                                %+-+2+3+4+5+6+7+8+:+-+%+        ",
"    9+%+%+%+%+%+%+%+%+%+%+%+%+%+%+%+%+%+%+%+%+%+%+%+%+%+%+%+%+%+0+-+a+b+c+d+e+f+g+:+-+%+        ",
"    0+5 5 ; h+i+i+i+j+5 5 5 ; h+i+k+k+l+5 5 5 ; h+k+k+k+m+n+> > > n+o+p+q+r+s+t+u+:+-+%+        ",
"    0+A a v+w+w+w+x+-+y+y+a v+w+w+w+z+A+-+B+C+D+E+E+E+F+C+$+$+@+@+G+o+a+2+:+~+:+:+:+-+%+        ",
"    0+A H+I+I+I+J+K+L+L+y+H+I+I+I+M+N+y+-+A+O+P+P+Q+R+S+T+#+$+$+@+@+U+V+a+2+W+:+:+:+-+%+        ",
"    0+X+I+I+Y+Z+`+ @ @ @.@Y+Y+I++@@@L+y+y+#@P+P+P+$@%@a a T+#+$+$+@+&@*@V+=@;+:+:+:+-+%+        ",
"    0+n+-@;@>@a y+y+y+y+#+>@>@;@#+a T+$+@+,@'@)@!@~@{@~@]@^@/@e+(@_@:@<@[@}@|@7+:+:+-+%+        ",
"    0+1@B+-+y+L+L+; ; ; ; L+y+y+-+A+2@T+$+@+3@3@4@5@,@{@~@6@7@8@9@0@a@b@c@d@e@f@g@h@-+%+        ",
"    0+1@-+y+L+; > n+5 5 n+ @; Y y+-+A+a #+$+@+3@4@5@i@{@j@k@l@m@n@o@p@<@q@r@s@t@*+u@v@%+        ",
"    0+1@-+y+L+ @n+5 A A 5 >  @L+y+-+A+a T+$+@+3@4@w@i@x@y@z@A@B.B@B@B@<@C@C@C@D@E@F@v@G@        ",
"    0+1@-+y+L+;  @> n+n+>  @L+Y y+-+A+a T+$+@+3@4@w@H@I@x+J@B@B@B@B@B@<@C@C@C@C@C@K@t@L@M@      ",
"    0+1@A+-+y+y+L+L+; ; L+L+y+y+-+A+2@T+$+C+N@O@4@P@Q@R@S@B@B@T@U@U@U@V@d@d@d@K@C@C@W@X@Y@      ",
"    0+5 a A+A+-+-+y+y+y+y+-+-+A+A+a T+$+C+@+Z@`@w@ #.#+#B@B@B@@#######V@`+`+`+$#C@C@C@%#d@H@    ",
"    0+5 $+T+a a 2@A+A+A+A+2@2@a T+#+$+@+@+3@4@w@c@&#*#=#B@B@B@@#######V@`+`+`+$#C@C@C@-#;#>#    ",
"    0+n+N@N@$+$+#+#+T+T+#+#+$+$+N@N@@+O@,#4@Z@'#)#!#~#B@B@B@B@@#####A@{#d@d@d@K@C@C@C@C@]#^#/#  ",
"    0+n+'#Z@3@@+@+@+@+@+@+@+@+3@Z@Z@4@`@(#i@6@_#:#<#E.B@B@B@B@@#####[#{#C@C@C@C@C@C@C@C@}#|#1#  ",
"    0+> 5@5@w@4@4@4@4@4@4@4@4@4@w@5@i@i@{@{@~@~@2#3#4#B@B@B@B@@#####$#{#5#6#]#C@C@C@C@C@e@7#8#  ",
"    0+ @9#9#,@`@'#i@'#'#i@'#'#,@`@9#{@0#0#]@6@a#b#c#B.B@B@B@B@@#######d#`+`+`+e#C@C@C@C@-#f#g#  ",
"    0+ @h#h#~@a#a#~@a#a#~@a#a#~@a#h#]@h#;#i#j#k#d#l#m#B@B@B@B@n#o#n#p#d#q#r#r#Q@s#t#u#s#v#w#v#d#",
"    0+; x#i#i#i#^@^@]@]@]@^@^@i#i#i#x#y#y#/@z#A#B#C#U@B@B@B@B@C.B@B@B@D#E#F#G#G#H#D#D#D#a.C#I#  ",
"    0+L+J#J#/@J#J#y#h#h#y#h#J#/@J#J#z#j#j#K#L#L#M#N#O#B@B@B@B@B@B@B@B@B@B@P#####Q#B@B@B@R#!#    ",
"    0+L+S#T#U#S#S#K#V#V#A#V#S#U#S#T#U#S#W#&@X#Y#Z#k#m@`#B@B@B@ $B@B@B@B@.$Z ####+$B@B@@$#$$$    ",
"    0+L+o+o+U+&@&@&@&@&@&@&@&@&@U+o+o+o+V+V+a+=@;+%$&$*$B@B@B@A k+=$-$;$>$####A ,$B@B@'$)$V@    ",
"    0+y+X#X#a+W#W#a+W#W#a+W#W#a+W#X#=@X#Y#;+!$~$:+{$]$^$/$B@B@A ##############($B@B@_$:$b#      ",
"    0+C+<$[$W+}$|$;+}$|$;+}$|$;+}$|$:+[$[$:+[$[$:+[$1$2$m@3$B@4$5$- 6$Y 7$P#8$B@B@9$0$a$        ",
"    b$c$C+A+A+A+A+A+A+A+A+A+A+A+A+A+A+A+A+A+A+A+A+A+A+d$e$f$g$@$B@B@B@B@B@B@B@@$h$i$j$k$        ",
"      l$m$n$n$n$n$n$n$n$n$n$n$n$n$n$n$n$o$o$o$o$o$o$n$o$p$q$r$#$h$s$t$C.u$a.v$w$)$r#x$          ",
"                                                            y$z$A$B$C$D$E$F$G$H$d#              ",
"                                                                I$J$K$d#K$L$M$                  ",
"                                                                      N$                        "};
