/* XPM */
static char * mypaint_xpm[] = {
"48 48 386 2",
"  	c None",
". 	c #8A8D88",
"+ 	c #888A85",
"@ 	c #FDFDFD",
"# 	c #FFFFFF",
"$ 	c #F0F0EE",
"% 	c #CAD7E6",
"& 	c #82A9D3",
"* 	c #D2DDE7",
"= 	c #F1F1EF",
"- 	c #F1F1F0",
"; 	c #F2F2F0",
"> 	c #F2F2F1",
", 	c #F3F3F1",
"' 	c #F3F3F2",
") 	c #BFD1E2",
"! 	c #BACDE1",
"~ 	c #E1E7EB",
"{ 	c #89AED5",
"] 	c #729FCF",
"^ 	c #94B5D8",
"/ 	c #E9ECED",
"( 	c #D0DBE6",
"_ 	c #B8CCE1",
": 	c #7FA8D2",
"< 	c #ADC5DE",
"[ 	c #73A0CF",
"} 	c #C3D3E3",
"| 	c #B9CDE1",
"1 	c #A9C3DD",
"2 	c #83AAD3",
"3 	c #91B3D7",
"4 	c #A4BFDC",
"5 	c #C6D5E4",
"6 	c #AEC6DF",
"7 	c #F0F0EF",
"8 	c #B4C9E0",
"9 	c #87ADD4",
"0 	c #8AAED5",
"a 	c #8CB0D6",
"b 	c #7CA5D2",
"c 	c #ABC4DD",
"d 	c #8BAFD5",
"e 	c #74A1D0",
"f 	c #EAEDEE",
"g 	c #F4F4F2",
"h 	c #AFC6DE",
"i 	c #E0E6EC",
"j 	c #B6CBE0",
"k 	c #D0DCE7",
"l 	c #E1E7ED",
"m 	c #AAC4DD",
"n 	c #88AED4",
"o 	c #BFD1E3",
"p 	c #BFD0E3",
"q 	c #DCE4EB",
"r 	c #95B6D8",
"s 	c #79A4D1",
"t 	c #F1F2F1",
"u 	c #76A2D0",
"v 	c #D8E1E9",
"w 	c #9EBCDB",
"x 	c #DBE3EB",
"y 	c #95B5D8",
"z 	c #F4F4F3",
"A 	c #9FBCDA",
"B 	c #76A2D1",
"C 	c #75A1D0",
"D 	c #EFF0EF",
"E 	c #7EA7D2",
"F 	c #BACDE2",
"G 	c #A0BDDC",
"H 	c #C9D8E6",
"I 	c #9BB9D9",
"J 	c #7CA6D2",
"K 	c #8BAFD6",
"L 	c #E6EAED",
"M 	c #E4E8EE",
"N 	c #84ABD4",
"O 	c #A3BFDB",
"P 	c #BCCFE1",
"Q 	c #91B3D8",
"R 	c #ACC5DF",
"S 	c #BED1E3",
"T 	c #B7CCE1",
"U 	c #90B2D7",
"V 	c #9AB9DA",
"W 	c #B6CBE2",
"X 	c #7FA7D3",
"Y 	c #7DA6D2",
"Z 	c #C6D6E5",
"` 	c #B8CDE2",
" .	c #86ACD4",
"..	c #CCD9E6",
"+.	c #F1F1F1",
"@.	c #7AA4D1",
"#.	c #C2D3E4",
"$.	c #D8E1EA",
"%.	c #B1C8DF",
"&.	c #82AAD3",
"*.	c #C1D2E4",
"=.	c #F5F5F3",
"-.	c #87ACD5",
";.	c #D9E2EA",
">.	c #CAD9E6",
",.	c #739FCF",
"'.	c #BDD0E3",
").	c #EAEDF0",
"!.	c #F5F5F4",
"~.	c #D2DDE9",
"{.	c #8AAFD5",
"].	c #93B4D8",
"^.	c #9BB9DA",
"/.	c #93B5D8",
"(.	c #A4C0DD",
"_.	c #CBD9E6",
":.	c #96B6D9",
"<.	c #CAD8E7",
"[.	c #A2BEDC",
"}.	c #DDE5EB",
"|.	c #7BA5D1",
"1.	c #A6C1DC",
"2.	c #77A2D0",
"3.	c #A1BEDC",
"4.	c #95B6D9",
"5.	c #ACC0D5",
"6.	c #DEE2E5",
"7.	c #9EBBDA",
"8.	c #78A3D0",
"9.	c #7FA3CB",
"0.	c #6F9AC8",
"a.	c #6F8EAE",
"b.	c #889EB6",
"c.	c #889FB7",
"d.	c #869EB6",
"e.	c #8BA1B6",
"f.	c #E4E5E6",
"g.	c #74A0D0",
"h.	c #9FBDDB",
"i.	c #87ADD5",
"j.	c #C9D8E7",
"k.	c #E5EAEF",
"l.	c #6C8EB2",
"m.	c #6290C4",
"n.	c #A5BEDB",
"o.	c #AEC6E0",
"p.	c #A3C0DE",
"q.	c #87929B",
"r.	c #3C4244",
"s.	c #CCCDCC",
"t.	c #97B7D9",
"u.	c #EEF0F2",
"v.	c #B4C0CA",
"w.	c #6D98C7",
"x.	c #7C9DC7",
"y.	c #98B8D9",
"z.	c #B1BABF",
"A.	c #BEBFBE",
"B.	c #8A8D8B",
"C.	c #54585A",
"D.	c #F6F6F4",
"E.	c #7D97AF",
"F.	c #6E9BCA",
"G.	c #7092B5",
"H.	c #7C7E7B",
"I.	c #858683",
"J.	c #8C8D8B",
"K.	c #444134",
"L.	c #AA7F3A",
"M.	c #DDD0BB",
"N.	c #F6F6F5",
"O.	c #9BBAD9",
"P.	c #F2F2F2",
"Q.	c #6A8FB5",
"R.	c #516678",
"S.	c #4E5150",
"T.	c #595B57",
"U.	c #454847",
"V.	c #6E6C64",
"W.	c #CFA96D",
"X.	c #9D6C1C",
"Y.	c #A67A33",
"Z.	c #DBCDB6",
"`.	c #ABC5DE",
" +	c #90B3D7",
".+	c #D1DDE9",
"++	c #E3E8ED",
"@+	c #A6ACB0",
"#+	c #4C5152",
"$+	c #34393B",
"%+	c #565040",
"&+	c #9D6D22",
"*+	c #D2AB6D",
"=+	c #E6CB9F",
"-+	c #C89D58",
";+	c #9E6B1A",
">+	c #A3762E",
",+	c #D9C9B0",
"'+	c #BBCEE3",
")+	c #9EBBDB",
"!+	c #88ADD5",
"~+	c #EDF0F1",
"{+	c #E2E8EF",
"]+	c #E8E8E7",
"^+	c #BDBDBD",
"/+	c #BEBDBC",
"(+	c #C1B094",
"_+	c #A17226",
":+	c #A3701F",
"<+	c #CA9E59",
"[+	c #DDB87E",
"}+	c #C39345",
"|+	c #9F6C18",
"1+	c #A3752A",
"2+	c #8A7B5D",
"3+	c #CBD9E7",
"4+	c #AAC4DE",
"5+	c #A1BEDD",
"6+	c #E6E6E5",
"7+	c #C4C4C2",
"8+	c #C6C6C4",
"9+	c #E1E1E0",
"0+	c #D8C9AF",
"a+	c #A3752D",
"b+	c #A06C1B",
"c+	c #C29245",
"d+	c #D5A65C",
"e+	c #BE8731",
"f+	c #996510",
"g+	c #925B03",
"h+	c #D9E2EB",
"i+	c #BFD1E4",
"j+	c #BACEE3",
"k+	c #E6E6E4",
"l+	c #CBCBCA",
"m+	c #CDCDCD",
"n+	c #E7E7E6",
"o+	c #DBCCB6",
"p+	c #9B6816",
"q+	c #BA8530",
"r+	c #CB943C",
"s+	c #BA7D1E",
"t+	c #986106",
"u+	c #915A03",
"v+	c #A3BFDC",
"w+	c #A7C2DD",
"x+	c #8AAFD6",
"y+	c #D7E1EB",
"z+	c #D1D1D0",
"A+	c #D4D4D3",
"B+	c #EBEBEA",
"C+	c #DED1BB",
"D+	c #AB803C",
"E+	c #94610C",
"F+	c #B1761B",
"G+	c #B67812",
"H+	c #915B03",
"I+	c #CAD8E6",
"J+	c #F1F2F2",
"K+	c #E0E7EE",
"L+	c #D8D8D7",
"M+	c #DDDDDC",
"N+	c #EFEFEE",
"O+	c #F7F7F6",
"P+	c #8A7F69",
"Q+	c #905A03",
"R+	c #915A04",
"S+	c #E8E8E8",
"T+	c #ECECEC",
"U+	c #F8F8F8",
"V+	c #FEFEFE",
"W+	c #8A8C88",
"X+	c #82847F",
"Y+	c #7F817D",
"Z+	c #848681",
"`+	c #878984",
" @	c #D3D7CF",
".@	c #D1D4CD",
"+@	c #CED2CA",
"@@	c #D0D4CC",
"#@	c #D2D6CE",
"$@	c #898D87",
"%@	c #A26F20",
"&@	c #AE8647",
"*@	c #9B650E",
"=@	c #AA7726",
"-@	c #C69A52",
";@	c #945C04",
">@	c #8F5902",
",@	c #D59B40",
"'@	c #C17D11",
")@	c #935C04",
"!@	c #C99C55",
"~@	c #A97421",
"{@	c #9C650F",
"]@	c #AF894B",
"^@	c #9E6C1E",
"/@	c #925C03",
"(@	c #BF934E",
"_@	c #B07B26",
":@	c #AB6F10",
"<@	c #CFA156",
"[@	c #AD7722",
"}@	c #B27D29",
"|@	c #CE9D52",
"1@	c #AB6F0F",
"2@	c #B27D2B",
"3@	c #BD914C",
"4@	c #915C04",
"5@	c #AD7928",
"6@	c #CC9B50",
"7@	c #B67610",
"8@	c #C98F32",
"9@	c #DBA755",
"0@	c #935B04",
"a@	c #DDAB5B",
"b@	c #C78A2B",
"c@	c #B67611",
"d@	c #CF9F56",
"e@	c #A87623",
"f@	c #DBAA5C",
"g@	c #CB8B27",
"h@	c #C27F13",
"i@	c #E3B161",
"j@	c #A8711C",
"k@	c #AD7822",
"l@	c #E1AE5D",
"m@	c #C17E11",
"n@	c #CD8F2D",
"o@	c #D9A75A",
"p@	c #925C05",
"q@	c #BA852F",
"r@	c #DDA854",
"s@	c #D29637",
"t@	c #D7A250",
"u@	c #DAA756",
"v@	c #CE9231",
"w@	c #E0AC59",
"x@	c #B5802C",
"y@	c #935E06",
"z@	c #E3B163",
"A@	c #C98923",
"B@	c #C28014",
"C@	c #E4B364",
"D@	c #A16C16",
"E@	c #A8721D",
"F@	c #E3B060",
"G@	c #C27E13",
"H@	c #CB8C29",
"I@	c #E2B061",
"J@	c #935D05",
"K@	c #BF8A34",
"L@	c #DBA54F",
"M@	c #D4993C",
"N@	c #D29E4A",
"O@	c #8B5703",
"P@	c #8C5803",
"Q@	c #D7A350",
"R@	c #D19436",
"S@	c #DEA955",
"T@	c #BB8730",
"U@	c #955F08",
"V@	c #C7861F",
"W@	c #C48116",
"X@	c #E5B466",
"Y@	c #9D6712",
"Z@	c #8C5702",
"`@	c #A16B17",
" #	c #E4B263",
".#	c #CA8A24",
"+#	c #935D07",
"@#	c #865404",
"##	c #C6913B",
"$#	c #E9B96E",
"%#	c #CD9945",
"&#	c #815101",
"*#	c #845203",
"=#	c #D39E4B",
"-#	c #E7B66A",
";#	c #E6B569",
">#	c #E9B86E",
",#	c #C08B36",
"'#	c #7F4E02",
")#	c #8E5903",
"!#	c #96600A",
"~#	c #945E07",
"                                                                                                ",
"                                                                                                ",
"          . + + + + + + + + + + + + + + + + + + + + + + + + + + + + + + + + + + + + .           ",
"          + @ # # # # # # # # # # # # # # # # # # # # # # # # # # # # # # # # # # @ +           ",
"          + # $ $ $ $ $ % & * = = = = = = - - - - ; ; ; ; ; > > > > > , , , , ' ' # +           ",
"          + # $ $ ) ! ~ { ] ^ = = = / - - - - ; ; ; ; ; ; > > > > > , , , , ' ' ' # +           ",
"          + # $ ( ] ] _ ] ] : = = < [ } - - - ; ; ; ; > > > > > , , , , ' ' ' ' ' # +           ",
"          + # $ | ] [ 1 ] ] 2 = = 3 ] 4 - ; 5 6 ; ; > > > > > , , , , ' ' ' ' ' ' # +           ",
"          + # 7 8 ] 9 0 ] ] a - - b ] c ; ; d e f > > > > > , , , , ' ' ' ' ' ' g # +           ",
"          + # 7 h ] ^ ] ] ] 4 - i ] ] j ; k ] ] l > > > , , , , ' ' ' ' ' ' ' g g # +           ",
"          + # = m ] n ] ] ] o - p ] ] q ; r ] s t > > , , , , ' ' ' ' ' ' g g g g # +           ",
"          + # = 4 ] u ] ] ] v ; w ] n ; x ] ] y > > , , , , ' ' ' ' ' ' g g g z z # +           ",
"          + # = A ] ] e B C D ; E ] F > G ] ] H , , , , ' ' ' ' ' ' ' g g g z z z # +           ",
"          + # = I ] ] J ] K ; q ] [ L M C ] N > , , , ' ' ' ' ' ' g g g g z z z z # +           ",
"          + # - y ] ] : ] O ; P ] Q > R ] ] S T 1 D ' ' ' ' ' ' g g g z z z z z z # +           ",
"          + # - U ] ] & ] _ ; V ] W t X ] Y Z ] ] ` ' ' ' ' ' g g g z z z z z z z # +           ",
"          + # - d ] ]  .] ..+.@.] #.$.] ] %.&.] ] *.' ' ' g g g g z z z z z z =.=.# +           ",
"          + # ; -.] ] { ] $.;.] ] >.%.] ,.'.] ] e ).' ' g g g z z z z z z z =.=.!.# +           ",
"          + # ; & ] ] y ] ~.T ] ] ~.{.] ].^.] ] /.' g g g g z z z z z z z =.=.!.!.# +           ",
"          + # ; X ] ] (.] _.:.] ] <.] ] 6 C ] ] [.}.g g g z z z z z z =.=.!.!.!.!.# +           ",
"          + # ; |.] ] 1.] #.2.] ] 3.] ] 4.] ] ] ] [ 5.6.z z z z z z =.=.!.!.!.!.!.# +           ",
"          + # > 2.] ] [.] 7.] ] ] s ] ] 8.] ] ] ] ] 9.0.a.b.c.d.e.f.=.!.!.!.!.!.!.# +           ",
"          + # > g.] ] h.] 2.] ] ] ] ] ] ] e ].,.i.j.k.l.m.n.o.p.q.r.s.!.!.!.!.!.!.# +           ",
"          + # > J ] ] t.] ] ] ] ] ] ] ] ] 3 g u.z z z v.w.x.y.z.A.B.C.!.!.!.!.!.D.# +           ",
"          + # > a ] ] d ] ] B ,.] ] ] ] ] o z z z z z z E.F.G.H.I.J.K.L.M.!.!.D.N.# +           ",
"          + # , O.] ] E ] ] 2 ] ] ] ] ]  .P.z z z z z =.> Q.R.S.T.U.V.W.X.Y.Z.N.N.# +           ",
"          + # , `.] ] [ ] ]  +] ] C J u .+z z z z z =.=.!.++@+#+$+%+&+*+=+-+;+>+,+# +           ",
"          + # , '+] ] ] ] ] )+] ] !+~+{+z z z z z =.=.!.!.!.!.]+^+/+(+_+:+<+[+}+|+1+2+          ",
"          + # ' 3+] ] ] ] ] 4+] ] 5+z z z z z =.=.!.!.!.!.!.!.!.6+7+8+9+0+a+b+c+d+e+f+g+        ",
"          + # ' h+] ] X ] ] i+] ] j+z z z z =.=.!.!.!.!.!.!.!.!.D.k+l+m+n+N.o+Y.p+q+r+s+t+u+    ",
"          + # ' x ] ] V v+w+u.x+] y+z z =.=.!.!.!.!.!.!.!.!.!.D.N.N.6+z+A+B+N.N.C+D+E+F+G+H+    ",
"          + # ' ' )+Y I+z z z J+K+z z =.=.!.!.!.!.!.!.!.!.D.D.N.N.N.N.n+L+M+N+N.O+# P+g+Q+R+    ",
"          + @ # # # # # # # # # # # # # # # # # # # # # # # # # # # # # +.S+T+U+V+@ +           ",
"          W++ + + + + + + + + + + + + + + + + + + + + + + + + + + + + + + X+Y+X+Z+`+W+          ",
"          +  @ @ @ @ @ @ @ @ @ @ @ @ @ @ @ @ @ @ @ @ @ @ @ @ @ @ @ @ @ @ @ @.@+@@@#@+           ",
"          $@+ + + + + + + + + + + + + + + + + + + + + + + + + + + + + + + + + + + + $@          ",
"                          %@&@*@=@-@;@      >@,@'@>@      )@!@~@{@]@^@                          ",
"                        /@(@_@:@<@[@        >@,@'@>@        }@|@1@2@3@4@                        ",
"                        5@6@7@8@9@H+        >@,@'@>@        0@a@b@c@d@e@                        ",
"                      4@f@g@h@i@j@          >@,@'@>@          k@l@m@n@o@p@                      ",
"                      q@r@'@s@t@g+          >@,@'@>@          g+u@v@'@w@x@                      ",
"                    y@z@A@B@C@D@            >@,@'@>@            E@F@G@H@I@J@                    ",
"                    K@L@'@M@N@O@            >@,@'@>@            P@Q@R@'@S@T@                    ",
"                  U@C@V@W@X@Y@              Z@>@>@Z@              `@ #h@.#z@+#                  ",
"                @###$#$#$#%#&#                                    *#=#-#;#>#,#'#                ",
"                )#>@>@>@>@>@                                        4@!#!#!#~#)#                ",
"                                                                                                ",
"                                                                                                "};
