/* XPM */
static char * mysqlcc_xpm[] = {
"64 64 45 1",
" 	c None",
".	c #00416B",
"+	c #00416A",
"@	c #00436C",
"#	c #00426A",
"$	c #00426D",
"%	c #00426B",
"&	c #00426C",
"*	c #00406B",
"=	c #00446C",
"-	c #00436B",
";	c #00416C",
">	c #F68C00",
",	c #F78B00",
"'	c #F78A00",
")	c #F68600",
"!	c #F68300",
"~	c #F58000",
"{	c #F68700",
"]	c #F58500",
"^	c #F58600",
"/	c #F78800",
"(	c #F78900",
"_	c #F68800",
":	c #F88A00",
"<	c #F88B00",
"[	c #F78C00",
"}	c #F68400",
"|	c #004069",
"1	c #F68A00",
"2	c #004169",
"3	c #F88900",
"4	c #004269",
"5	c #F68B00",
"6	c #F58B00",
"7	c #00436A",
"8	c #F98B00",
"9	c #F57900",
"0	c #F68900",
"a	c #F58400",
"b	c #F68200",
"c	c #F78600",
"d	c #F68500",
"e	c #F68100",
"f	c #00456D",
"                                                                ",
"                                                                ",
"                                                                ",
"                                                                ",
"                                                                ",
"                                                                ",
"                                                                ",
"                                                                ",
"                                                                ",
"                                                                ",
"                                                                ",
"                                      . +@                      ",
"                                      .   #..$                  ",
"                                       .      .                 ",
"                                       +        %               ",
"                                        &        %              ",
"                                        +         %             ",
"                                                   %            ",
"                                         .          %           ",
"                                          *         %           ",
"                                          %          #          ",
"                                          %          +          ",
"                                                      %         ",
"                                         &            #         ",
"                                         @  =          %        ",
"                                            @+         &        ",
"                                          - #           .%      ",
"                                          &%% +            #    ",
"                                                            +   ",
"                                                             %  ",
"                                                          ;%    ",
"                                                          %     ",
"                                                           %    ",
"                                                            &.  ",
"                                >          ,,                   ",
"  %.%       %.               '')!~),     ,{]^/'     !(          ",
"  ...      %&..             ,_:<  [}    _:'  ,':    ,:          ",
"  %..      #|.+             1<         ''     ,''   ,<          ",
" #; .-     # -+             ,'        '',      ,'   ,<          ",
" .+ .+    %# +%  ##%    %-  1',       ,'       ',   ,<          ",
" ..  +    .  +%   2#    %-   (',      ,,       ','  '<          ",
" .+  ##   .  .#   .+    %&    1'('    3,       <,<  '<          ",
" #%  #+  &+  ##   &4    %      :,:':  ',       '[[  '<          ",
" #%  %4  .#  2#    +.  %#        ',(: ''       5,'  '<          ",
" %-   #. %   +#    .%  %.         (,, 6,5      1'   ,<          ",
" 7.   .&%.   %+    ++  &          ,:' 8,,      :'   ,<          ",
" %.   %.%&   +%     + -%          5<1  ,5     '',   ,:          ",
" -.    .#    #.     %%&&    9[   <</   00,0  ':'    ,5::::  5   ",
" %%    .+    *%%    ..@     ,ab))/5     :'')^<,,    c<^^de' ' ,'",
"                    #.f                       ,'{               ",
"                    ++                          0               ",
"                   +&                                           ",
"                 #%-                                            ",
"                                                                ",
"                                                                ",
"                                                                ",
"                                                                ",
"                                                                ",
"                                                                ",
"                                                                ",
"                                                                ",
"                                                                ",
"                                                                ",
"                                                                "};
