/* XPM */
static char * netbsd_xpm[] = {
"48 48 21 1",
" 	c None",
".	c #F26711",
"+	c #F26611",
"@	c #F26811",
"#	c #F36712",
"$	c #F26610",
"%	c #F36711",
"&	c #F36610",
"*	c #F26710",
"=	c #777777",
"-	c #F16712",
";	c #767676",
">	c #F36710",
",	c #F16611",
"'	c #F26712",
")	c #F16711",
"!	c #787878",
"~	c #F36611",
"{	c #F26810",
"]	c #F16810",
"^	c #F26812",
"                                                ",
"                                                ",
"                                                ",
"                                                ",
"                                                ",
"                                 ..+....@#      ",
"                             $.......%          ",
"                         &.......*.             ",
"         = ..-@      ...........                ",
"          ;+..................>,%......%.%      ",
"          = .......................-            ",
"           = ...................*               ",
"           = .................*                 ",
"            = ..............'                   ",
"            = ............$                     ",
"             = .........,                       ",
"             =  )%..%                           ",
"              !                                 ",
"              =                                 ",
"              ;=                                ",
"~{#.    @#)    =     =======    ==== !======    ",
" +..     .            ==   ==  ==  != ==    ==  ",
" +...    .            ==   ==  ==     ;=     == ",
" @ '..   .       +.   ==   ==  ==!    ==     ===",
" @  *..  .  *]. )..#  === =;   !===   ==     ===",
" @   ..% . .  .. ..   === ;=!   ====  ==      ==",
" @    ..'...^..  ..   ==   ===    === ==     ===",
" *     .....     ..   ==   ;=;     == ==     == ",
" +&    #..{.$    .%   ==!  ==;=    == ===   === ",
" '*     .* ...@  ...  === !== ==! ==  ===  ==   ",
"                                                ",
"                                                ",
"                                                ",
"                     ==                         ",
"                      ==                        ",
"                      ==                        ",
"                       ==                       ",
"                       ==                       ",
"                        ==                      ",
"                        ==                      ",
"                         ==                     ",
"                         ==                     ",
"                          =                     ",
"                                                ",
"                                                ",
"                                                ",
"                                                ",
"                                                "};
