/* XPM */
static char * netbsd_logo_xpm[] = {
"48 48 244 2",
"  	c None",
". 	c #FFFFFF",
"+ 	c #FDF0E7",
"@ 	c #FACAAC",
"# 	c #F7AC7E",
"$ 	c #F59154",
"% 	c #F47E37",
"& 	c #F27120",
"* 	c #F26B18",
"= 	c #F26915",
"- 	c #F3772B",
"; 	c #F48A47",
"> 	c #F8A979",
", 	c #FACFB3",
"' 	c #FFF9F6",
") 	c #FEF8F4",
"! 	c #FAD2B9",
"~ 	c #F7A979",
"{ 	c #F48039",
"] 	c #F26711",
"^ 	c #F79D65",
"/ 	c #F8BC95",
"( 	c #FACFB4",
"_ 	c #FCDBC9",
": 	c #FBE0CE",
"< 	c #FCD5C0",
"[ 	c #FDEDE1",
"} 	c #FEFEFE",
"| 	c #C3C3C3",
"1 	c #FAC9AB",
"2 	c #FBD4BD",
"3 	c #FFFDFB",
"4 	c #FFFBF9",
"5 	c #FBDBC6",
"6 	c #F9B287",
"7 	c #F58B49",
"8 	c #F26A16",
"9 	c #F37425",
"0 	c #F8AD80",
"a 	c #FDE1D1",
"b 	c #FFFEFE",
"c 	c #999999",
"d 	c #E6CDBE",
"e 	c #F26914",
"f 	c #F26F1E",
"g 	c #F48E50",
"h 	c #F8AF81",
"i 	c #F9BE9B",
"j 	c #FAD5BD",
"k 	c #FBCCB0",
"l 	c #F9C6A6",
"m 	c #F8B88F",
"n 	c #F7A36F",
"o 	c #F48845",
"p 	c #F26D1B",
"q 	c #F9C7A7",
"r 	c #FEF0E7",
"s 	c #FBDECA",
"t 	c #FBCDB1",
"u 	c #FAC6A5",
"v 	c #F9C8A9",
"w 	c #FCE4D5",
"x 	c #D9D9D9",
"y 	c #9C9C9C",
"z 	c #F7A371",
"A 	c #F69050",
"B 	c #F59A63",
"C 	c #F4782D",
"D 	c #F36C1A",
"E 	c #F3772A",
"F 	c #FFFAF8",
"G 	c #929292",
"H 	c #DFD3CB",
"I 	c #F26813",
"J 	c #F9B891",
"K 	c #FEF3ED",
"L 	c #D4D4D4",
"M 	c #979797",
"N 	c #F8B990",
"O 	c #F37D33",
"P 	c #F9BB95",
"Q 	c #FEF1EA",
"R 	c #8D8D8D",
"S 	c #D8D4D2",
"T 	c #F37A2F",
"U 	c #F48742",
"V 	c #CDCDCD",
"W 	c #919191",
"X 	c #FACCB0",
"Y 	c #F58E4F",
"Z 	c #FDFDFD",
"` 	c #888888",
" .	c #D0CFCF",
"..	c #F58A49",
"+.	c #F26812",
"@.	c #F6975D",
"#.	c #FCDFCD",
"$.	c #C7C7C7",
"%.	c #8C8C8C",
"&.	c #FBDECC",
"*.	c #F37B31",
"=.	c #F7AF83",
"-.	c #FCE8DC",
";.	c #FBFBFB",
">.	c #848484",
",.	c #CACACA",
"'.	c #F6A674",
").	c #F69153",
"!.	c #F48744",
"~.	c #F58D4C",
"{.	c #F79C64",
"].	c #F8B78F",
"^.	c #C2C2C2",
"/.	c #FAFAFA",
"(.	c #F9F9F9",
"_.	c #808080",
":.	c #C4C4C4",
"<.	c #BABABA",
"[.	c #838383",
"}.	c #F8A675",
"|.	c #F48741",
"1.	c #F58541",
"2.	c #FAC2A0",
"3.	c #F58D4B",
"4.	c #F59A62",
"5.	c #FDF3EC",
"6.	c #F4F4F4",
"7.	c #7D7D7D",
"8.	c #BDBDBD",
"9.	c #B9B9B9",
"0.	c #9B9B9B",
"a.	c #949494",
"b.	c #9A9A9A",
"c.	c #B8B8B8",
"d.	c #EFEFEF",
"e.	c #E5E5E5",
"f.	c #989898",
"g.	c #8B8B8B",
"h.	c #D0D0D0",
"i.	c #939393",
"j.	c #9F9F9F",
"k.	c #A4A4A4",
"l.	c #F69D67",
"m.	c #FBCEB2",
"n.	c #FACBAE",
"o.	c #F26E1C",
"p.	c #F1F1F1",
"q.	c #777777",
"r.	c #C0C0C0",
"s.	c #828282",
"t.	c #A2A2A2",
"u.	c #BBBBBB",
"v.	c #ABABAB",
"w.	c #898989",
"x.	c #BCBCBC",
"y.	c #FCFCFC",
"z.	c #D1D1D1",
"A.	c #7F7F7F",
"B.	c #F8AC7F",
"C.	c #F26E1D",
"D.	c #FDE4D5",
"E.	c #FCE2D2",
"F.	c #FBDCC7",
"G.	c #787878",
"H.	c #DDDDDD",
"I.	c #A8A8A8",
"J.	c #CCCCCC",
"K.	c #797979",
"L.	c #DFDFDF",
"M.	c #FAC5A4",
"N.	c #FDE8DB",
"O.	c #F48846",
"P.	c #F59357",
"Q.	c #F5F5F5",
"R.	c #DBDBDB",
"S.	c #9D9D9D",
"T.	c #FEF9F6",
"U.	c #FDEDE3",
"V.	c #F4904F",
"W.	c #F4813B",
"X.	c #FBD6C1",
"Y.	c #F3833D",
"Z.	c #E8E8E8",
"`.	c #D7D7D7",
" +	c #B3B3B3",
".+	c #FEEDE4",
"++	c #F37528",
"@+	c #FBD1B5",
"#+	c #FDF0E8",
"$+	c #F26F1F",
"%+	c #F58D4D",
"&+	c #AAAAAA",
"*+	c #D8D8D8",
"=+	c #ACACAC",
"-+	c #909090",
";+	c #EDEDED",
">+	c #B0B0B0",
",+	c #CECECE",
"'+	c #7B7B7B",
")+	c #F6975E",
"!+	c #F6A06A",
"~+	c #F7A370",
"{+	c #F8B68E",
"]+	c #858585",
"^+	c #F7AA7A",
"/+	c #FAC09D",
"(+	c #F4833C",
"_+	c #FDEADF",
":+	c #C6C6C6",
"<+	c #B5B5B5",
"[+	c #C1C1C1",
"}+	c #E1E1E1",
"|+	c #C8C8C8",
"1+	c #F8A97A",
"2+	c #F7A36D",
"3+	c #F5843F",
"4+	c #D2D2D2",
"5+	c #F37426",
"6+	c #FACCAF",
"7+	c #FFFCFA",
"8+	c #FEEFE6",
"9+	c #F48038",
"0+	c #F37424",
"a+	c #FAC4A3",
"b+	c #FDEBDF",
"c+	c #818181",
"d+	c #A3A3A3",
"e+	c #F6F6F6",
"f+	c #7A7A7A",
"g+	c #D5D5D5",
"h+	c #8A8A8A",
"i+	c #E9E9E9",
"j+	c #CBCBCB",
"k+	c #7C7C7C",
"l+	c #FBD7C0",
"m+	c #FAD5BE",
"n+	c #DCDCDC",
"o+	c #E4E4E4",
"p+	c #E3E3E3",
"q+	c #E2E2E2",
"r+	c #E0E0E0",
"s+	c #878787",
"t+	c #F7F7F7",
"u+	c #BFBFBF",
". . . . . . . . . . . . . . . . . . . . . . . . . . . . . . . . . . . . . . . . . . . . . . . . ",
". . . . . . . . . . . . . . . . . . . . . . . . . . . . . . . . . . . . . . . . . . . . . . . . ",
". . . . . . . . . . . . . . . . . . . . . . . . . . . . . . . . . . . . . . . . . . . . . . . . ",
". . . . . . . . . . . . . . . . . . . . . . . . . . . . . . . . . . . . . . . . . . . . . . . . ",
". . . . . . . . . . . . . . . . . . . . . . . . . . . . . . . . . . . . . . . . . . . . . . . . ",
". . . . . . . . . . . . . . . . . . . . . . . . . . . . . . . + @ # $ % & * = - ; > , ' . . . . ",
". . . . . . . . . . . . . . . . . . . . . . . . . . . ) ! ~ { ] ] ] ] ] - ^ / ( _ : < ( [ . . . ",
". . . . . . . . } | 1 2 3 . . . . . . . . . . 4 5 6 7 8 ] ] ] ] ] 9 0 a b . . . . . . . . . . . ",
". . . . . . . . . c d e f g h i ( j k l m n o p ] ] ] ] ] ] ] { q r s t u v ( w 4 . . . . . . . ",
". . . . . . . . . x y z ] ] ] ] ] ] ] ] ] ] ] ] ] ] ] ] ] p A B C ] ] ] ] ] ] D E ^ u F . . . . ",
". . . . . . . . . . G H f ] ] ] ] ] ] ] ] ] ] ] ] ] ] ] ] ] ] ] ] ] I g J _ K . . . ) [ . . . . ",
". . . . . . . . . . L M N ] ] ] ] ] ] ] ] ] ] ] ] ] ] ] ] ] ] ] O P Q . . . . . . . . . . . . . ",
". . . . . . . . . . } R S T ] ] ] ] ] ] ] ] ] ] ] ] ] ] ] ] U ( b . . . . . . . . . . . . . . . ",
". . . . . . . . . . . V W X ] ] ] ] ] ] ] ] ] ] ] ] ] ] Y < . . . . . . . . . . . . . . . . . . ",
". . . . . . . . . . . Z `  ...] ] ] ] ] ] ] ] ] ] +.@.#.. . . . . . . . . . . . . . . . . . . . ",
". . . . . . . . . . . . $.%.&.] ] ] ] ] ] ] ] *.=.-.. . . . . . . . . . . . . . . . . . . . . . ",
". . . . . . . . . . . . ;.>.,.t '.).!.~.{.].: . . . . . . . . . . . . . . . . . . . . . . . . . ",
". . . . . . . . . . . . . ^.` /.. . . . . . . . . . . . . . . . . . . . . . . . . . . . . . . . ",
". . . . . . . . . . . . . (._.:.. . . . . . . . . . . . . . . . . . . . . . . . . . . . . . . . ",
". . . . . . . . . . . . . . <.[.(.. . . . . . . . . . . . . . . . . } . . . . . . . . . . . . . ",
"}.|.1.n . . . 2.3.1.4.5.. . 6.7.8.. . . . 9.0.G a.0.b.c.d.. . e.y b.f.g.h.c.0.i.i.j.c k.| 6.. . ",
". l.] ] m.. . . n.o.4 . . . . p.p.. . . . . a.q.^.. r.q.` (.6.s.t.. . u.v.} w.q.x.. y.z.[.A.h.. ",
". B.T ] C.D.. . E.{ . . . . . . . b F.. . . j.q.$.. /.G.q.H.z.q.I.. . y.J.. a.q.$.. . . e.K.G.L.",
". h M.@.] T Q . N.O.. . . 4 . . 3 B.P.. . . j.q.$.. d.q.A.Q.R.q.G.<.y.. . . M q.$.. . . . y q.S.",
". h 1 T.U ] !.T.U.... M.U V.W.X.Y.] p 1.k . j.q.S.x.R R Z.. Z c q.q.w.`.. . M q.$.. . . .  +q.A.",
". h 1 . .+++] ^ [ ..@+] ( #+$+%+@+] P.. . . j.q.&+*+=+q.-+;+. (.>+K.q.q.,+. M q.$.. . . . u.q.'+",
". h M.. . s 8 ] )+..$ ] !+~+~+{+! ] P.. . . j.q.$.. . y q.t.. . . e.w.q.]+. M q.$.. . . . =+q.G ",
". ^+/+. . . M.] ] ..(+] _+. . . ! ] P.. . . j.q.:+. . <+q.R [+. . . }+q.G.y.M q.:.. . . y.s.q.|+",
". l.6 . . . . 1+] ..2+] @.T.b u ! ] 3+. . . 0.q.9.. . S.q.v.a.4+. . 6.q.a.. W q.c.. . . 9.q.t.} ",
"t 5+O 6+. . . 7+O.U 8+9+] 8 0+a+b+I ] $ , V c+q.c+x.I.K.d+e+9.f+u.g+j.h+i+j+k+q._.x.^.c %.:.} . ",
"F.: #.l+. . . . 8+F.. F m+a+N.. . a u D.. n+}+o+R.R.e.;.. . . p+V $.x Z Z R.q+q+R.x r+d.. . . . ",
". . . . . . . . . . . . . . . . . . . . . . . . . . . . . . . . . . . . . . . . . . . . . . . . ",
". . . . . . . . . . . . . . . . . . . . Q.r.:+. . . . . . . . . . . . . . . . . . . . . . . . . ",
". . . . . . . . . . . . . . . . . . . . } -+q.x . . . . . . . . . . . . . . . . . . . . . . . . ",
". . . . . . . . . . . . . . . . . . . . . z.q.G } . . . . . . . . . . . . . . . . . . . . . . . ",
". . . . . . . . . . . . . . . . . . . . . } g.q.L . . . . . . . . . . . . . . . . . . . . . . . ",
". . . . . . . . . . . . . . . . . . . . . . j+q.R } . . . . . . . . . . . . . . . . . . . . . . ",
". . . . . . . . . . . . . . . . . . . . . . y.s+q.V . . . . . . . . . . . . . . . . . . . . . . ",
". . . . . . . . . . . . . . . . . . . . . . . :.q.` y.. . . . . . . . . . . . . . . . . . . . . ",
". . . . . . . . . . . . . . . . . . . . . . . (.s.q.$.. . . . . . . . . . . . . . . . . . . . . ",
". . . . . . . . . . . . . . . . . . . . . . . . 8.q.>.(.. . . . . . . . . . . . . . . . . . . . ",
". . . . . . . . . . . . . . . . . . . . . . . . t+A.q.| . . . . . . . . . . . . . . . . . . . . ",
". . . . . . . . . . . . . . . . . . . . . . . . . u+q.:.. . . . . . . . . . . . . . . . . . . . ",
". . . . . . . . . . . . . . . . . . . . . . . . . . . . . . . . . . . . . . . . . . . . . . . . ",
". . . . . . . . . . . . . . . . . . . . . . . . . . . . . . . . . . . . . . . . . . . . . . . . ",
". . . . . . . . . . . . . . . . . . . . . . . . . . . . . . . . . . . . . . . . . . . . . . . . ",
". . . . . . . . . . . . . . . . . . . . . . . . . . . . . . . . . . . . . . . . . . . . . . . . ",
". . . . . . . . . . . . . . . . . . . . . . . . . . . . . . . . . . . . . . . . . . . . . . . . "};
