/* XPM */
static char * netbsd_menu_xpm[] = {
"48 20 14 1",
" 	c None",
".	c #F26711",
"+	c #F16711",
"@	c #F26611",
"#	c #F16611",
"$	c #F16610",
"%	c #F26710",
"&	c #F36610",
"*	c #F16710",
"=	c #F26610",
"-	c #767777",
";	c #777777",
">	c #777676",
",	c #767676",
"                                      .+..+.@..#",
"                                 ...+@#.....$..@",
"                              .#.+.....%@+@$    ",
"                          +..+........@#        ",
"&*.                   ..%...........#           ",
" ++#*.@          .=.@*...........++             ",
"- ....#.%..+.*.$..$.............   ..#..$.=...*=",
"; +...........................**%.@.%.....+.+..@",
";> *..........................*@.........#      ",
";, +..................................          ",
" ;> $.............................#+            ",
" ,; +...........................%$              ",
"  ;> ..........................$                ",
"  ;,  .....................*.=                  ",
"   ,; ......................                    ",
"   ,,  +................$                       ",
"    ;> #.............=*                         ",
"    ,;  .@..........                            ",
"     ;,    .+..=                                ",
"     ;;                                         "};
