/* XPM */
static char * ninja_ide_xpm[] = {
"48 48 649 2",
"  	c None",
". 	c #E6E6E6",
"+ 	c #F2F2F2",
"@ 	c #F8F8F8",
"# 	c #FAFAFA",
"$ 	c #F3F3F3",
"% 	c #F0F0F0",
"& 	c #EBEBEB",
"* 	c #CECECD",
"= 	c #ABAAAA",
"- 	c #939393",
"; 	c #878686",
"> 	c #808080",
", 	c #7E7E7E",
"' 	c #848484",
") 	c #909090",
"! 	c #ACACAC",
"~ 	c #D9D9D9",
"{ 	c #EFEFEF",
"] 	c #EDEDED",
"^ 	c #EFF6F6",
"/ 	c #6F7979",
"( 	c #111B1A",
"_ 	c #000000",
": 	c #232726",
"< 	c #9B9F9F",
"[ 	c #F2F4F4",
"} 	c #FAFDFD",
"| 	c #FBFFFF",
"1 	c #DB8080",
"2 	c #9F1E20",
"3 	c #9F2224",
"4 	c #9E1F21",
"5 	c #9C1C1E",
"6 	c #9B1B1D",
"7 	c #961C1E",
"8 	c #8C1B1E",
"9 	c #851A1D",
"0 	c #7E1A1B",
"a 	c #76191B",
"b 	c #6F181A",
"c 	c #681719",
"d 	c #621618",
"e 	c #5B1517",
"f 	c #531113",
"g 	c #4D0E0F",
"h 	c #D8C4C4",
"i 	c #FDFFFF",
"j 	c #FCFFFF",
"k 	c #C0A6A6",
"l 	c #FFFFFF",
"m 	c #FBEDED",
"n 	c #EE1F21",
"o 	c #F12B2F",
"p 	c #F12B2E",
"q 	c #F44749",
"r 	c #F5585A",
"s 	c #E9292C",
"t 	c #DA2B2E",
"u 	c #CE292C",
"v 	c #C3272B",
"w 	c #B82729",
"x 	c #AD2528",
"y 	c #A32326",
"z 	c #982224",
"A 	c #8E2023",
"B 	c #841D20",
"C 	c #7B1B1D",
"D 	c #782528",
"E 	c #B28989",
"F 	c #C0A4A3",
"G 	c #4E0406",
"H 	c #E1D6D6",
"I 	c #D9E4E4",
"J 	c #F8A2A2",
"K 	c #EE2528",
"L 	c #EE2B2E",
"M 	c #EE292C",
"N 	c #F03B3E",
"O 	c #FCD7D7",
"P 	c #FCCFCE",
"Q 	c #E62326",
"R 	c #D72A2D",
"S 	c #CB282B",
"T 	c #C1272B",
"U 	c #B62628",
"V 	c #AA2427",
"W 	c #A12326",
"X 	c #962223",
"Y 	c #8C1F22",
"Z 	c #821D20",
"` 	c #7A1C1E",
" .	c #621012",
"..	c #5C1012",
"+.	c #520B0C",
"@.	c #BDA4A5",
"#.	c #F2F3F3",
"$.	c #E2EFEF",
"%.	c #F5797A",
"&.	c #EE282B",
"*.	c #EE2A2D",
"=.	c #EF3738",
"-.	c #FDEAEB",
";.	c #F68787",
">.	c #E6272A",
",.	c #70191B",
"'.	c #651516",
").	c #5D1113",
"!.	c #530D0F",
"~.	c #7E4E4F",
"{.	c #F6FAFA",
"].	c #E3F0F0",
"^.	c #F56667",
"/.	c #F0292C",
"(.	c #F02B2E",
"_.	c #F0282B",
":.	c #F66D6D",
"<.	c #F66768",
"[.	c #E92B2E",
"}.	c #D92A2D",
"|.	c #CE282B",
"1.	c #B72629",
"2.	c #AC2427",
"3.	c #A22326",
"4.	c #972223",
"5.	c #8D1F22",
"6.	c #831D20",
"7.	c #7B1C1E",
"8.	c #6F1618",
"9.	c #905656",
"0.	c #9A6A6B",
"a.	c #8D5C5D",
"b.	c #F5F3F3",
"c.	c #B8B9B9",
"d.	c #E8EFEF",
"e.	c #A95F5F",
"f.	c #861F21",
"g.	c #872123",
"h.	c #861C1E",
"i.	c #872122",
"j.	c #822123",
"k.	c #7B2123",
"l.	c #782324",
"m.	c #712224",
"n.	c #6D2223",
"o.	c #672122",
"p.	c #622122",
"q.	c #5D2122",
"r.	c #582021",
"s.	c #531E1F",
"t.	c #4D1D1E",
"u.	c #401212",
"v.	c #D7D1D0",
"w.	c #F1F5F5",
"x.	c #D8DCDC",
"y.	c #9C9D9D",
"z.	c #7C7E7D",
"A.	c #353737",
"B.	c #383A3A",
"C.	c #2E3130",
"D.	c #0D0F0E",
"E.	c #191B1A",
"F.	c #1D1E1E",
"G.	c #1F2120",
"H.	c #202121",
"I.	c #202222",
"J.	c #1F2121",
"K.	c #1E1F1F",
"L.	c #101211",
"M.	c #C6C6C6",
"N.	c #AEAEAE",
"O.	c #5A5959",
"P.	c #EAEAEA",
"Q.	c #E5E5E5",
"R.	c #E1E1E1",
"S.	c #EEEEEE",
"T.	c #1B1C1B",
"U.	c #191A19",
"V.	c #1E1E1E",
"W.	c #212221",
"X.	c #20201F",
"Y.	c #1C1D1C",
"Z.	c #0D0D0C",
"`.	c #C8C7C7",
" +	c #F6F6F6",
".+	c #F2F3F2",
"++	c #ECECEC",
"@+	c #FEFEFE",
"#+	c #D5D5D5",
"$+	c #A8A8A8",
"%+	c #8A8A8A",
"&+	c #7A7B7B",
"*+	c #727272",
"=+	c #6F6F70",
"-+	c #707171",
";+	c #969696",
">+	c #BDBCBC",
",+	c #2D2D2C",
"'+	c #111211",
")+	c #191919",
"!+	c #1C1C1C",
"~+	c #1D1E1D",
"{+	c #1D1D1D",
"]+	c #181818",
"^+	c #060605",
"/+	c #B9B8B8",
"(+	c #484848",
"_+	c #171818",
":+	c #1B1B1B",
"<+	c #242424",
"[+	c #373737",
"}+	c #5F6060",
"|+	c #ABABAB",
"1+	c #FBFBFB",
"2+	c #E2E1E1",
"3+	c #5A5A5A",
"4+	c #1C1C1D",
"5+	c #181919",
"6+	c #161717",
"7+	c #1A1B1B",
"8+	c #191A1A",
"9+	c #1B1C1C",
"0+	c #222323",
"a+	c #696969",
"b+	c #C8C8C8",
"c+	c #575656",
"d+	c #030402",
"e+	c #0D0C0B",
"f+	c #121211",
"g+	c #141414",
"h+	c #161616",
"i+	c #151514",
"j+	c #111110",
"k+	c #B5B5B5",
"l+	c #343434",
"m+	c #0B0C0C",
"n+	c #121212",
"o+	c #131313",
"p+	c #0D0E0E",
"q+	c #090909",
"r+	c #626161",
"s+	c #414242",
"t+	c #232424",
"u+	c #282929",
"v+	c #292A2B",
"w+	c #2C2C2D",
"x+	c #2C2C2C",
"y+	c #2B2B2C",
"z+	c #262626",
"A+	c #212222",
"B+	c #1B1C1D",
"C+	c #0F1010",
"D+	c #020303",
"E+	c #7A7A7A",
"F+	c #D4D4D4",
"G+	c #646464",
"H+	c #040302",
"I+	c #060505",
"J+	c #0B0B0A",
"K+	c #0D0C0C",
"L+	c #0E0D0D",
"M+	c #090908",
"N+	c #B6B5B5",
"O+	c #353535",
"P+	c #121313",
"Q+	c #1C1D1D",
"R+	c #131414",
"S+	c #B7B7B6",
"T+	c #9D9D9C",
"U+	c #1F2020",
"V+	c #282829",
"W+	c #2E2F2F",
"X+	c #323233",
"Y+	c #343535",
"Z+	c #363637",
"`+	c #363636",
" @	c #333434",
".@	c #2F3030",
"+@	c #272728",
"@@	c #090A0A",
"#@	c #7D7C7C",
"$@	c #A9A8A8",
"%@	c #898888",
"&@	c #2B2B2B",
"*@	c #030303",
"=@	c #030302",
"-@	c #010101",
";@	c #C4C4C4",
">@	c #303131",
",@	c #212322",
"'@	c #1A1B1A",
")@	c #454445",
"!@	c #FCFCFC",
"~@	c #353636",
"{@	c #272827",
"]@	c #2F2F30",
"^@	c #3A3A3B",
"/@	c #3D3D3D",
"(@	c #3B3B3C",
"_@	c #383839",
":@	c #353536",
"<@	c #2C2D2D",
"[@	c #0E0F0F",
"}@	c #454545",
"|@	c #BEBEBE",
"1@	c #C1C1C0",
"2@	c #313031",
"3@	c #ECEBEB",
"4@	c #252525",
"5@	c #1A1A1A",
"6@	c #262727",
"7@	c #232524",
"8@	c #151616",
"9@	c #202020",
"0@	c #E7E7E7",
"a@	c #2B2C2C",
"b@	c #3B3B3B",
"c@	c #3F3F40",
"d@	c #414141",
"e@	c #414142",
"f@	c #404040",
"g@	c #3E3D3E",
"h@	c #373738",
"i@	c #2E2E2F",
"j@	c #2A2A2B",
"k@	c #141515",
"l@	c #0C0D0D",
"m@	c #C5C4C4",
"n@	c #C3C3C3",
"o@	c #757575",
"p@	c #474747",
"q@	c #292A2A",
"r@	c #292B2B",
"s@	c #272828",
"t@	c #D6D6D6",
"u@	c #3F3F3F",
"v@	c #424242",
"w@	c #444344",
"x@	c #434343",
"y@	c #414041",
"z@	c #3D3D3E",
"A@	c #39393A",
"B@	c #343435",
"C@	c #242525",
"D@	c #1E2020",
"E@	c #101111",
"F@	c #070808",
"G@	c #272727",
"H@	c #686868",
"I@	c #737373",
"J@	c #BBBBBB",
"K@	c #060707",
"L@	c #2D2D2D",
"M@	c #2A2B2B",
"N@	c #252626",
"O@	c #D2D2D2",
"P@	c #D0D0D0",
"Q@	c #434344",
"R@	c #424243",
"S@	c #2D2E2E",
"T@	c #060606",
"U@	c #020202",
"V@	c #515251",
"W@	c #CDCDCD",
"X@	c #313232",
"Y@	c #424343",
"Z@	c #3A3A3A",
"`@	c #323333",
" #	c #0A0B0B",
".#	c #080909",
"+#	c #040505",
"@#	c #0C0C0C",
"##	c #4E4E4E",
"$#	c #323232",
"%#	c #313131",
"&#	c #292929",
"*#	c #CCCBCB",
"=#	c #404041",
"-#	c #3A3B3B",
";#	c #161818",
">#	c #575757",
",#	c #5E5E5E",
"'#	c #585858",
")#	c #545454",
"!#	c #535252",
"~#	c #4F4F4F",
"{#	c #515050",
"]#	c #515151",
"^#	c #565656",
"/#	c #5D5D5D",
"(#	c #686767",
"_#	c #636464",
":#	c #111212",
"<#	c #2F2F2F",
"[#	c #333333",
"}#	c #303030",
"|#	c #D1D1D1",
"1#	c #CCCCCC",
"2#	c #212121",
"3#	c #383939",
"4#	c #3E3E3E",
"5#	c #787979",
"6#	c #666666",
"7#	c #111111",
"8#	c #040404",
"9#	c #050505",
"0#	c #1F1F1F",
"a#	c #2D2F2F",
"b#	c #CECECE",
"c#	c #2E302F",
"d#	c #1D1F1F",
"e#	c #A5A5A5",
"f#	c #0B0B0B",
"g#	c #2D2D2E",
"h#	c #373838",
"i#	c #B2B2B2",
"j#	c #636363",
"k#	c #7C7C7C",
"l#	c #2E2E2E",
"m#	c #333535",
"n#	c #DADADA",
"o#	c #313132",
"p#	c #DFDFDF",
"q#	c #D3D3D3",
"r#	c #C2C1C1",
"s#	c #F1F1F1",
"t#	c #A3A2A3",
"u#	c #1B1A1A",
"v#	c #151515",
"w#	c #2F3131",
"x#	c #E2E2E2",
"y#	c #303031",
"z#	c #2F302F",
"A#	c #222222",
"B#	c #E8E8E8",
"C#	c #0E0E0E",
"D#	c #8A8989",
"E#	c #A7A7A7",
"F#	c #101010",
"G#	c #F5F5F5",
"H#	c #F3F2F2",
"I#	c #434444",
"J#	c #1B1D1D",
"K#	c #B1B1B1",
"L#	c #010000",
"M#	c #020201",
"N#	c #616161",
"O#	c #B7B6B6",
"P#	c #626262",
"Q#	c #0D0D0D",
"R#	c #2C2D2C",
"S#	c #2A2B2C",
"T#	c #868686",
"U#	c #E0E0E0",
"V#	c #CFCFCF",
"W#	c #ADADAD",
"X#	c #202021",
"Y#	c #222423",
"Z#	c #A1A1A1",
"`#	c #080707",
" $	c #0A0A09",
".$	c #0C0B0A",
"+$	c #080706",
"@$	c #030201",
"#$	c #090808",
"$$	c #B9B9B9",
"%$	c #595959",
"&$	c #181918",
"*$	c #232423",
"=$	c #FCFDFD",
"-$	c #4F4E4E",
";$	c #9B9A9A",
">$	c #0F0E0E",
",$	c #131312",
"'$	c #0F0F0E",
")$	c #0A0908",
"!$	c #020100",
"~$	c #282727",
"{$	c #DCDCDC",
"]$	c #4E4E4D",
"^$	c #171717",
"/$	c #A09F9F",
"($	c #F9F9F9",
"_$	c #989898",
":$	c #4C4D4D",
"<$	c #0A0A0A",
"[$	c #9C9C9C",
"}$	c #070706",
"|$	c #161716",
"1$	c #171817",
"2$	c #0F0F0F",
"3$	c #30302F",
"4$	c #AAA9A9",
"5$	c #838383",
"6$	c #6A6A6A",
"7$	c #5C5C5C",
"8$	c #656565",
"9$	c #767676",
"0$	c #959494",
"a$	c #C7C7C7",
"b$	c #F7F7F7",
"c$	c #F1F0F1",
"d$	c #ADADAC",
"e$	c #1F201F",
"f$	c #3B3A3A",
"g$	c #DEDEDE",
"h$	c #B3B3B3",
"i$	c #6B6B6B",
"j$	c #5B5B5A",
"k$	c #828282",
"l$	c #919191",
"m$	c #C9C9C9",
"n$	c #B0B0B1",
"o$	c #121312",
"p$	c #1E201F",
"q$	c #222424",
"r$	c #131514",
"s$	c #777979",
"t$	c #7E8080",
"u$	c #B7B8B8",
"v$	c #AFB2B2",
"w$	c #E1E4E3",
"x$	c #BEB6B6",
"y$	c #321514",
"z$	c #3F1E1E",
"A$	c #422020",
"B$	c #462122",
"C$	c #4A2122",
"D$	c #4D2222",
"E$	c #502222",
"F$	c #532122",
"G$	c #562222",
"H$	c #561E1F",
"I$	c #561A1A",
"J$	c #5A1A1A",
"K$	c #5D1A1A",
"L$	c #5D1919",
"M$	c #5A1716",
"N$	c #9D7373",
"O$	c #D6DADA",
"P$	c #A9A9A9",
"Q$	c #FEFFFF",
"R$	c #BDA0A0",
"S$	c #D0BBBA",
"T$	c #AA7C7D",
"U$	c #6B1617",
"V$	c #771C1E",
"W$	c #801E20",
"X$	c #8A2022",
"Y$	c #942124",
"Z$	c #9E2326",
"`$	c #A82427",
" %	c #B22629",
".%	c #BD272A",
"+%	c #C8282C",
"@%	c #D42A2D",
"#%	c #E32B2E",
"$%	c #E9282B",
"%%	c #EA3638",
"&%	c #E92D2F",
"*%	c #E92A2D",
"=%	c #E9272A",
"-%	c #F27E7E",
";%	c #D5E1E1",
">%	c #875959",
",%	c #500709",
"'%	c #5A0C0E",
")%	c #651213",
"!%	c #701A1C",
"~%	c #7A1B1E",
"{%	c #831E20",
"]%	c #8C2022",
"^%	c #972224",
"/%	c #AB2427",
"(%	c #B62629",
"_%	c #CC282C",
":%	c #D82A2D",
"<%	c #E7282B",
"[%	c #F47474",
"}%	c #FFF8F7",
"|%	c #EF2D2F",
"1%	c #EE272A",
"2%	c #F78C8C",
"3%	c #D2DDDD",
"4%	c #9D7979",
"5%	c #540D0E",
"6%	c #5B0D10",
"7%	c #651415",
"8%	c #701A1B",
"9%	c #E72023",
"0%	c #FEE5E5",
"a%	c #FDE7E6",
"b%	c #F14E50",
"c%	c #ED2428",
"d%	c #F9ADAD",
"e%	c #C6CFCF",
"f%	c #D0D3D3",
"g%	c #CCB8B8",
"h%	c #51090B",
"i%	c #A37878",
"j%	c #844243",
"k%	c #6D1415",
"l%	c #CD282C",
"m%	c #E72528",
"n%	c #F25557",
"o%	c #ED1D20",
"p%	c #FBECEC",
"q%	c #A7AAAA",
"r%	c #9A9B9B",
"s%	c #F2EEEE",
"t%	c #946869",
"u%	c #BB9393",
"v%	c #671315",
"w%	c #721B1C",
"x%	c #7A1D1E",
"y%	c #831E1F",
"z%	c #8C1F21",
"A%	c #942023",
"B%	c #9E2224",
"C%	c #A72225",
"D%	c #B22426",
"E%	c #BB2528",
"F%	c #C82629",
"G%	c #CE2124",
"H%	c #CE2427",
"I%	c #CE2629",
"J%	c #CD2123",
"K%	c #ED7373",
"L%	c #F6FEFE",
"M%	c #CDCECE",
"N%	c #E7EBEB",
"O%	c #5E5D5D",
"P%	c #666565",
"Q%	c #F4F7F7",
"R%	c #727776",
"S%	c #030806",
"T%	c #454F4F",
"U%	c #E9F1F1",
"V%	c #A09E9E",
"W%	c #A3A3A3",
"X%	c #6F6E6E",
"Y%	c #464646",
"Z%	c #454444",
"`%	c #4D4C4C",
" &	c #585757",
".&	c #706F6F",
"+&	c #D7D7D7",
"@&	c #F4F4F4",
"#&	c #8C8C8C",
"                                                                                                ",
"                                                                                                ",
"                                    . + + + @ # # # $ + %                                       ",
"                                $ & * = - ; > , , , ' ) ! ~ { ]                                 ",
"                              ^ / ( _ _ _ _ _ _ _ _ _ _ _ _ : < [     }                         ",
"                            | 1 2 3 4 5 6 7 8 9 0 a b c d e f g h i j k l                       ",
"                            m n o p p q r s t u v w x y z A B C D E F G H                       ",
"                          I J K L M N O P Q R S T U V W X Y Z ` b  ...+.@.#.                    ",
"                          $.%.&.*.=.-.l ;.>.R S T U V W X Y Z ` ,.'.).!.~.{.                    ",
"                          ].^./.(._.:.<.p [.}.|.v 1.2.3.4.5.6.7.8.9.0.a.b.c.                    ",
"                          d.e.f.g.g.h.h.i.j.k.l.m.n.o.p.q.r.s.t.u.v.w.x.y.                      ",
"                          . z.A.B.B.B.B.B.B.C.D.E.F.G.H.I.I.J.K.L.M.N.O.                        ",
"                    P.Q.R.{ l l l l l l l l l S.T.U.V.H.W.W.X.Y.Z.`. +S.] { .+++Q.              ",
"              @+#+$+%+&+*+=+-+, ;+>++ l l l l l ,+'+)+!+~+{+T.]+^+/+(+_+:+<+[+}+|+1+            ",
"          2+@ 3+4+5+6+_+7+7+8+6+_+9+0+a++ l b+c+d+e+f+g+h+h+i+j+_ k+l+m+n+o+n+p+q+r+l           ",
"          l s+q+F.t+u+v+w+x+y+u+z+A+B+C+D+E+F+G+n+H+I+J+K+L+e+M+_ N+O+P+8+Q+9+5+R+_ S+.         ",
"        ++T+D+U+V+W+X+Y+Z+`+ @X+.@y++@A+9+@@!+#@$@%@&@_ _ *@=@-@_ ;@>@6+K.,@0+U+'@p+)@!@        ",
"        !@~@5+{@]@`+^@/@/@/@(@_@:@>@<@u+t+K._+[@_+}@|@1@2@_ _ _ _ 3@4@5@0+6@6@7@K.8@9@{         ",
"        0@0+U+a@:@b@c@d@e@f@g@b@h@X+i@j@6@0+K.8+k@l@_ b@m@n@o@p@|+Q.'+K.z+q@r@s@0+8+{+~         ",
"        t@0+0+]@_@u@v@w@x@y@z@A@B@.@a@s@C@A+D@9+5+8@E@F@_ G@H@;+I@J@K@A+q@<@L@M@N@Q+F.O@        ",
"        P@A+C@>@^@f@Q@Q@R@u@A@ @S@s@t+U+Q+7+8+5+6+8@P+C+m+T@U@_ %+V@k@N@<@.@.@<@s@K.K.P@        ",
"        W@A+N@X@b@f@Y@v@c@Z@`@M@K.F.0+A+U+V.7+8@E@l@ #.#T@+#@###;+T@0+&@>@$#%#.@&#H.K.P@        ",
"        *#0+N@X@^@u@=#c@-#`@q@;#>#a+,#'#)#!#~#~#~#{#]#^#O./#(#_#:#U+u+<#`@Y+[#}#q@H.U+|#        ",
"        1#2#C@>@3#z@4#(@~@a@:#5#6#7#T@8#9#F@@#:#6+:+!+Q+0#A+Q+_+H.u+a#$#O+~@l+.@q@H.K.P@        ",
"        b#H.C@c#h@^@b@[+.@d#b@e#_ -@+#F@f#p+E@:#R+8@6+8+7+~+W.4@q@S@`@O+`+`+ @<#u+K.V.|#        ",
"        |#H.0+g#B@h@h#X+M@l@i#j#k#~#7#_ T@p+:#R+6+8+Q+U+A+<+s@M@l#X@m#~@`+O+`@S@6@Q+F.F+        ",
"        n#H.K.M@o#Y+ @i@N@C+p#q#) r#s#t#u#_  #E@v#8+F.H.<+G@q@L@w#%# @Y+Y+[#.@&@t+5+K.x#        ",
"        3@0+7+6@<@y#z#M@H.A#B#_ _ _ C#D#{ E#l+F#m+R+8+V.A+N@u+a@S@>@%#$#>@.@a@6@U+k@a@G#        ",
"        H#I#P+H.s@M@q@N@J#.@K#_ L#M#_ _ M+N#O#J@P#Q#@@_+Q+H.C@s@q@a@R#<@S#q@N@H.8+D+T#U#        ",
"        V#W#_ 5+X#Y#t+H.6+l+Z#_ `# $.$ $+$@$#$$#$$R.%$_ [@&$Q+U+0+t+C@<+*$H.F.5+@@<+=$-         ",
"          l -$f#R+5+8+_+C+l+;$_ >$,$g+g+n+'$)$!$~$/+l {$]$!+8@:#R+8@^$6+k@:#E@h+u@S.O@          ",
"          /$($_$:$6@P+<$9#`+[$}$|$5@!+!+:+1$2$3$l l l l l U#4$5$6$7$%$7$8$9$0$a$] W#            ",
"              V#b$c$& B#B#+ d$C#!+e$A#A#2#V.h+f$l l l l l l l l l !@++U#g$P@h$i$                ",
"                  j$k$l$%@m$n$o$p$A+Y#q$,@H.F.r$ @s$t$t$t$t$t$t$z.u$|@                          ",
"                      6#v$w$x$y$z$A$B$C$D$E$F$G$H$I$J$K$L$L$K$K$M$N$O$                          ",
"                    P$Q$R$S$T$U$V$W$X$Y$Z$`$ %.%+%@%#%$%%%&%*%[.=%-%;%                          ",
"                    {.>%,%'%)%!%~%{%]%^%W /%(%T _%:%<%[%l }%|%*.1%2%3%                          ",
"                    H#4%5%6%7%8%~%{%]%^%W /%(%T _%:%9%0%a%b%M L c%d%e%                          ",
"                    f%g%h%i%j%k%` {%]%^%W 2.(%T l%}.m%2%n%*.L L o%p%q%                          ",
"                    r%s%t%Q$l u%v%w%x%y%z%A%B%C%D%E%F%G%H%I%I%J%K%L%                            ",
"                      M%N%O%P%Q%R%S%_ _ _ _ _ _ _ _ _ _ _ _ _ T%U%V%                            ",
"                              P#] B#W%X%)#Y%x@v@v@Z%`% &.&- +&@&#&                              ",
"                                  #&|#{ # !@!@!@!@!@1+($+++&E#                                  ",
"                                                                                                ",
"                                                                                                ",
"                                                                                                ",
"                                                                                                ",
"                                                                                                "};
