/* XPM */
static char * openoffice_writer_xpm[] = {
"48 48 819 2",
"  	c None",
". 	c #00182E",
"+ 	c #00182D",
"@ 	c #00172D",
"# 	c #143652",
"$ 	c #204868",
"% 	c #204768",
"& 	c #1F4767",
"* 	c #1F4766",
"= 	c #1F4665",
"- 	c #1E4464",
"; 	c #1D4361",
"> 	c #1C4160",
", 	c #1C405E",
"' 	c #1B3F5D",
") 	c #1B405E",
"! 	c #1C415F",
"~ 	c #1D4261",
"{ 	c #1E4463",
"] 	c #204968",
"^ 	c #21496A",
"/ 	c #214A6B",
"( 	c #1D3449",
"_ 	c #51677B",
": 	c #788EA1",
"< 	c #7F94A6",
"[ 	c #7D92A4",
"} 	c #7B90A2",
"| 	c #6F8497",
"1 	c #0F2437",
"2 	c #A0ADB8",
"3 	c #B0BECA",
"4 	c #AFBEC9",
"5 	c #AEBDC9",
"6 	c #ABBAC6",
"7 	c #A6B5C2",
"8 	c #9FAFBC",
"9 	c #97A8B5",
"0 	c #B2BEC7",
"a 	c #CBD2D9",
"b 	c #E3E7EA",
"c 	c #E8ECEE",
"d 	c #FFFFFF",
"e 	c #ECEFF1",
"f 	c #E9EDEF",
"g 	c #DEE3E7",
"h 	c #B6C3CD",
"i 	c #B4C2CD",
"j 	c #BDCAD5",
"k 	c #C1CDD8",
"l 	c #C2CED9",
"m 	c #B5C3D0",
"n 	c #244C6B",
"o 	c #486076",
"p 	c #51708A",
"q 	c #385A79",
"r 	c #325574",
"s 	c #315472",
"t 	c #305271",
"u 	c #1C3750",
"v 	c #324657",
"w 	c #8198A9",
"x 	c #8098A9",
"y 	c #8097A8",
"z 	c #7F96A8",
"A 	c #7B92A4",
"B 	c #748B9D",
"C 	c #AAB8C2",
"D 	c #F0F3F4",
"E 	c #F5F6F7",
"F 	c #C5CDD3",
"G 	c #ADB8C1",
"H 	c #9CAAB5",
"I 	c #8395A5",
"J 	c #7A91A3",
"K 	c #8AA0B1",
"L 	c #95AABB",
"M 	c #9AAFC0",
"N 	c #9BB0C1",
"O 	c #9BB1C2",
"P 	c #9CB1C2",
"Q 	c #65829B",
"R 	c #1C3F5B",
"S 	c #00172C",
"T 	c #53718D",
"U 	c #3B6080",
"V 	c #395E7D",
"W 	c #375B7A",
"X 	c #345775",
"Y 	c #315371",
"Z 	c #415261",
"` 	c #8F9BA5",
" .	c #BAC6CE",
"..	c #C7CFD6",
"+.	c #C6CFD6",
"@.	c #AEBAC4",
"#.	c #8397A5",
"$.	c #7C909F",
"%.	c #D9DEE2",
"&.	c #D4D9DD",
"*.	c #8997A2",
"=.	c #506576",
"-.	c #4B6173",
";.	c #506677",
">.	c #566C7E",
",.	c #64798A",
"'.	c #758C9C",
").	c #8A9FAF",
"!.	c #97ACBB",
"~.	c #9DB1C0",
"{.	c #9FB3C2",
"].	c #A0B4C4",
"^.	c #A1B5C5",
"/.	c #A2B6C5",
"(.	c #A3B7C6",
"_.	c #436681",
":.	c #00162C",
"<.	c #426884",
"[.	c #3D617D",
"}.	c #395D78",
"|.	c #4A6980",
"1.	c #A3B2BD",
"2.	c #F5F6F8",
"3.	c #EDEFF1",
"4.	c #82909C",
"5.	c #425869",
"6.	c #465C6D",
"7.	c #4A6071",
"8.	c #4F6475",
"9.	c #53697A",
"0.	c #5B7081",
"a.	c #677D8D",
"b.	c #798E9E",
"c.	c #8B9FAF",
"d.	c #96AAB9",
"e.	c #9CB0BF",
"f.	c #9EB2C1",
"g.	c #A1B4C4",
"h.	c #A3B6C5",
"i.	c #A4B7C7",
"j.	c #A5B8C8",
"k.	c #A6B9C8",
"l.	c #224A69",
"m.	c #00162B",
"n.	c #3D627C",
"o.	c #527087",
"p.	c #B0BDC6",
"q.	c #FAFBFB",
"r.	c #E0E3E6",
"s.	c #DBDFE2",
"t.	c #DADFE2",
"u.	c #E5E8EB",
"v.	c #D9DDE0",
"w.	c #4C606F",
"x.	c #495F70",
"y.	c #516778",
"z.	c #586F7F",
"A.	c #607586",
"B.	c #657A8B",
"C.	c #6B8091",
"D.	c #728797",
"E.	c #7D92A3",
"F.	c #869BAB",
"G.	c #8DA3B2",
"H.	c #92A6B6",
"I.	c #96ABBA",
"J.	c #9BAFBE",
"K.	c #A0B3C2",
"L.	c #A5B8C7",
"M.	c #849CAF",
"N.	c #1E4361",
"O.	c #001529",
"P.	c #6C859A",
"Q.	c #F3F5F6",
"R.	c #E1E5E8",
"S.	c #9DA9B4",
"T.	c #617484",
"U.	c #1D3040",
"V.	c #182734",
"W.	c #415869",
"X.	c #405668",
"Y.	c #405567",
"Z.	c #3F5466",
"`.	c #465B6C",
" +	c #86939E",
".+	c #DADEE2",
"++	c #DEE1E5",
"@+	c #4C6070",
"#+	c #425969",
"$+	c #4C6274",
"%+	c #586E7F",
"&+	c #637989",
"*+	c #697F8F",
"=+	c #6C8293",
"-+	c #6D8394",
";+	c #718797",
">+	c #8D9EAC",
",+	c #9BAAB7",
"'+	c #ADBAC4",
")+	c #C1CBD2",
"!+	c #CBD3DA",
"~+	c #BBC7D0",
"{+	c #97AAB8",
"]+	c #94AABA",
"^+	c #9BB0C0",
"/+	c #9EB2C2",
"(+	c #9FB3C3",
"_+	c #6F8AA0",
":+	c #1D415E",
"<+	c #001427",
"[+	c #8496A6",
"}+	c #3E566D",
"|+	c #203952",
"1+	c #1C354D",
"2+	c #1B344B",
"3+	c #122232",
"4+	c #223442",
"5+	c #465C6E",
"6+	c #475D6E",
"7+	c #435A6B",
"8+	c #415769",
"9+	c #3D5465",
"0+	c #3C5263",
"a+	c #465C6C",
"b+	c #42596A",
"c+	c #4C6375",
"d+	c #587080",
"e+	c #627A8B",
"f+	c #667E8F",
"g+	c #A4B1BC",
"h+	c #DADFE3",
"i+	c #C3CCD3",
"j+	c #99AAB6",
"k+	c #859CAD",
"l+	c #90A6B7",
"m+	c #95ABBC",
"n+	c #97ADBE",
"o+	c #597891",
"p+	c #001325",
"q+	c #23405A",
"r+	c #1E3750",
"s+	c #1C344C",
"t+	c #1C364E",
"u+	c #112233",
"v+	c #344859",
"w+	c #556C7F",
"x+	c #556C80",
"y+	c #546B7E",
"z+	c #51687C",
"A+	c #4D6477",
"B+	c #485F72",
"C+	c #445A6E",
"D+	c #445A6D",
"E+	c #4B6174",
"F+	c #5B7386",
"G+	c #6F8495",
"H+	c #C6CFD5",
"I+	c #FDFDFD",
"J+	c #F2F3F5",
"K+	c #B5BDC5",
"L+	c #82919E",
"M+	c #556A7C",
"N+	c #4B6175",
"O+	c #546B7F",
"P+	c #647B8E",
"Q+	c #778EA2",
"R+	c #859CB0",
"S+	c #8CA3B7",
"T+	c #8EA5B9",
"U+	c #496A85",
"V+	c #001324",
"W+	c #213C57",
"X+	c #1E3852",
"Y+	c #1D3851",
"Z+	c #1F3B54",
"`+	c #213D57",
" @	c #132537",
".@	c #485D71",
"+@	c #637C91",
"@@	c #647D91",
"#@	c #627A90",
"$@	c #60788E",
"%@	c #5C7488",
"&@	c #556D81",
"*@	c #4F667B",
"=@	c #4D6579",
"-@	c #A2AFBA",
";@	c #F9F9FA",
">@	c #E5E8EA",
",@	c #8896A2",
"'@	c #405568",
")@	c #395064",
"!@	c #3D5367",
"~@	c #40566B",
"{@	c #445C70",
"]@	c #4E667B",
"^@	c #5C748A",
"/@	c #6F889D",
"(@	c #7C95AB",
"_@	c #839CB2",
":@	c #849DB3",
"<@	c #3F617D",
"[@	c #213E59",
"}@	c #203C57",
"|@	c #223E59",
"1@	c #223F5B",
"2@	c #102336",
"3@	c #4F687C",
"4@	c #647F94",
"5@	c #617D92",
"6@	c #617B91",
"7@	c #5E7A8E",
"8@	c #5C778C",
"9@	c #587488",
"0@	c #556E83",
"a@	c #4F697D",
"b@	c #4E677A",
"c@	c #C3CCD2",
"d@	c #E5F0F8",
"e@	c #7D8C99",
"f@	c #31485A",
"g@	c #32495C",
"h@	c #374E61",
"i@	c #3C5467",
"j@	c #425B6E",
"k@	c #476174",
"l@	c #4D677C",
"m@	c #567085",
"n@	c #617C90",
"o@	c #6D889D",
"p@	c #7591A7",
"q@	c #7A96AC",
"r@	c #355A76",
"s@	c #203E5A",
"t@	c #203D59",
"u@	c #203D58",
"v@	c #1F3B56",
"w@	c #0F2335",
"x@	c #455F73",
"y@	c #547086",
"z@	c #708799",
"A@	c #8598A7",
"B@	c #94A5B2",
"C@	c #90A1AF",
"D@	c #698192",
"E@	c #496479",
"F@	c #435E72",
"G@	c #BAC3CA",
"H@	c #E7F6FF",
"I@	c #CCD8E2",
"J@	c #4A5E6E",
"K@	c #2D4456",
"L@	c #334A5E",
"M@	c #395266",
"N@	c #415C70",
"O@	c #49647A",
"P@	c #516C82",
"Q@	c #577389",
"R@	c #5C788F",
"S@	c #627E95",
"T@	c #67849A",
"U@	c #6C8AA1",
"V@	c #6F8DA4",
"W@	c #718FA6",
"X@	c #355976",
"Y@	c #001429",
"Z@	c #1E3B57",
"`@	c #1C3955",
" #	c #1B3751",
".#	c #19344E",
"+#	c #30475D",
"@#	c #8B939B",
"##	c #E2E5E8",
"$#	c #D2D8DC",
"%#	c #DBEBF9",
"&#	c #B2BFCA",
"*#	c #304658",
"=#	c #2B4257",
"-#	c #344D61",
";#	c #3D586E",
">#	c #47627A",
",#	c #506D85",
"'#	c #57748D",
")#	c #5D7B94",
"!#	c #607E97",
"~#	c #64829C",
"{#	c #65849D",
"]#	c #6786A0",
"^#	c #6887A1",
"/#	c #6988A2",
"(#	c #385B78",
"_#	c #18344D",
":#	c #163149",
"<#	c #4B5E70",
"[#	c #B9C0C7",
"}#	c #D4E8F8",
"|#	c #BCCAD5",
"1#	c #2A4054",
"2#	c #2A4257",
"3#	c #344D64",
"4#	c #3E5B73",
"5#	c #496780",
"6#	c #51718B",
"7#	c #577892",
"8#	c #5C7D98",
"9#	c #5E809A",
"0#	c #5F819C",
"a#	c #60829D",
"b#	c #3D5F7B",
"c#	c #001224",
"d#	c #243B51",
"e#	c #ABB3BB",
"f#	c #F6FFFF",
"g#	c #D5E8F8",
"h#	c #D7EAF9",
"i#	c #D9EBF9",
"j#	c #DAEBF9",
"k#	c #D9EAF9",
"l#	c #D6E9F8",
"m#	c #DFF4FF",
"n#	c #D2E7F8",
"o#	c #D8E6F2",
"p#	c #3B5061",
"q#	c #263F55",
"r#	c #304B62",
"s#	c #3C5971",
"t#	c #476781",
"u#	c #50718C",
"v#	c #547692",
"w#	c #577995",
"x#	c #587B97",
"y#	c #446681",
"z#	c #364350",
"A#	c #E6E8EA",
"B#	c #BAC9D5",
"C#	c #95A1AC",
"D#	c #7E8994",
"E#	c #6F7F8F",
"F#	c #45586A",
"G#	c #2D4255",
"H#	c #1C3146",
"I#	c #3D5163",
"J#	c #475B6C",
"K#	c #788896",
"L#	c #BFCDD9",
"M#	c #E8F3FB",
"N#	c #738493",
"O#	c #243B52",
"P#	c #2D475F",
"Q#	c #385670",
"R#	c #436380",
"S#	c #4B6E8B",
"T#	c #507391",
"U#	c #517593",
"V#	c #4F6F8A",
"W#	c #1B3F5C",
"X#	c #F3F4F4",
"Y#	c #CBCFD2",
"Z#	c #717D8A",
"`#	c #212E3E",
" $	c #091828",
".$	c #101E2C",
"+$	c #091725",
"@$	c #1E364B",
"#$	c #1E374D",
"$$	c #1F374E",
"%$	c #1F384E",
"&$	c #1E364C",
"*$	c #1D344A",
"=$	c #1C344A",
"-$	c #3A4F64",
";$	c #213A50",
">$	c #29445D",
",$	c #33526D",
"'$	c #3D5F7C",
")$	c #456988",
"!$	c #496F8D",
"~$	c #4A708F",
"{$	c #4F708C",
"]$	c #1B3F5B",
"^$	c #FDFDFE",
"/$	c #CCCED1",
"($	c #4E5B68",
"_$	c #081829",
":$	c #08182A",
"<$	c #091A2B",
"[$	c #0A1B2C",
"}$	c #162637",
"|$	c #051322",
"1$	c #244058",
"2$	c #25415A",
"3$	c #27425C",
"4$	c #27435C",
"5$	c #26425B",
"6$	c #24405A",
"7$	c #233E57",
"8$	c #213C54",
"9$	c #223C55",
"0$	c #27435D",
"a$	c #2F4E69",
"b$	c #3F6482",
"c$	c #436988",
"d$	c #446B8B",
"e$	c #527491",
"f$	c #1B405D",
"g$	c #EDF0F1",
"h$	c #8999A3",
"i$	c #000A17",
"j$	c #091A2C",
"k$	c #091A2D",
"l$	c #0A1D2F",
"m$	c #0B1F33",
"n$	c #0C2135",
"o$	c #182C40",
"p$	c #041222",
"q$	c #2B4A66",
"r$	c #2F516D",
"s$	c #30526F",
"t$	c #305370",
"u$	c #2F526F",
"v$	c #2E4F6C",
"w$	c #2B4B68",
"x$	c #294864",
"y$	c #294964",
"z$	c #2D4F6B",
"A$	c #345776",
"B$	c #3A6080",
"C$	c #3E6485",
"D$	c #3F6788",
"E$	c #4C7190",
"F$	c #214663",
"G$	c #123247",
"H$	c #000B19",
"I$	c #0B1E32",
"J$	c #0C2035",
"K$	c #0D243A",
"L$	c #0F263E",
"M$	c #102841",
"N$	c #122A43",
"O$	c #192A3B",
"P$	c #284863",
"Q$	c #375D7C",
"R$	c #385F7E",
"S$	c #39607E",
"T$	c #385E7D",
"U$	c #375C7B",
"V$	c #345A78",
"W$	c #335876",
"X$	c #335775",
"Y$	c #355B79",
"Z$	c #39607F",
"`$	c #3C6484",
" %	c #3D6686",
".%	c #3E6786",
"+%	c #375974",
"@%	c #000E1C",
"#%	c #0E253B",
"$%	c #102840",
"%%	c #112A44",
"&%	c #122D46",
"*%	c #132E49",
"=%	c #132E4A",
"-%	c #2F4155",
";%	c #1A364F",
">%	c #3B6484",
",%	c #3C6485",
"'%	c #3C6586",
")%	c #3A6283",
"!%	c #396081",
"~%	c #375E7E",
"{%	c #365E7E",
"]%	c #386081",
"^%	c #396182",
"/%	c #396283",
"(%	c #3B6384",
"_%	c #3B6485",
":%	c #4B6C86",
"<%	c #1A3D59",
"[%	c #000F21",
"}%	c #122B44",
"|%	c #132D48",
"1%	c #132F4A",
"2%	c #142F4B",
"3%	c #14304C",
"4%	c #354B61",
"5%	c #0A1F34",
"6%	c #3A6384",
"7%	c #396181",
"8%	c #365D7E",
"9%	c #345B7C",
"0%	c #33597A",
"a%	c #335879",
"b%	c #537591",
"c%	c #193E5A",
"d%	c #001124",
"e%	c #253F59",
"f%	c #0D1F33",
"g%	c #355B7B",
"h%	c #355C7C",
"i%	c #305676",
"j%	c #2D5171",
"k%	c #2A4D6D",
"l%	c #294C6C",
"m%	c #496E8D",
"n%	c #274B67",
"o%	c #001225",
"p%	c #304255",
"q%	c #1F3D57",
"r%	c #375E7F",
"s%	c #325777",
"t%	c #A7BAC8",
"u%	c #4A6A83",
"v%	c #001125",
"w%	c #364A60",
"x%	c #0D2239",
"y%	c #537590",
"z%	c #183B57",
"A%	c #2A425C",
"B%	c #0A1B2E",
"C%	c #4D7290",
"D%	c #224461",
"E%	c #15314D",
"F%	c #2A3B4D",
"G%	c #24435F",
"H%	c #43627B",
"I%	c #001023",
"J%	c #2F4257",
"K%	c #152E45",
"L%	c #385F7F",
"M%	c #345B7B",
"N%	c #325778",
"O%	c #2F5574",
"P%	c #2F5575",
"Q%	c #305576",
"R%	c #325878",
"S%	c #335979",
"T%	c #4B6B85",
"U%	c #173853",
"V%	c #2F455C",
"W%	c #091D32",
"X%	c #315777",
"Y%	c #355C7D",
"Z%	c #4F718D",
"`%	c #173954",
" &	c #001022",
".&	c #253E58",
"+&	c #061628",
"@&	c #496F8E",
"#&	c #1C3F5A",
"$&	c #000F22",
"%&	c #16324E",
"&&	c #132336",
"*&	c #315574",
"=&	c #2B4B65",
"-&	c #173450",
";&	c #1E2F41",
">&	c #284864",
",&	c #365670",
"'&	c #1A3854",
")&	c #26384B",
"!&	c #203D57",
"~&	c #3D5D77",
"{&	c #000E20",
"]&	c #1D3B58",
"^&	c #26384D",
"/&	c #1E3850",
"(&	c #3A6182",
"_&	c #365D7D",
":&	c #315677",
"<&	c #2E5272",
"[&	c #2B4E6E",
"}&	c #3D6687",
"|&	c #3E5E78",
"1&	c #14324B",
"2&	c #20405D",
"3&	c #2A3E52",
"4&	c #1D364D",
"5&	c #426B8C",
"6&	c #40698A",
"7&	c #3E6586",
"8&	c #3A6181",
"9&	c #365C7C",
"0&	c #355A7B",
"a&	c #365B7B",
"b&	c #375D7D",
"c&	c #395F80",
"d&	c #3C6383",
"e&	c #406989",
"f&	c #41698A",
"g&	c #426A8B",
"h&	c #436C8D",
"i&	c #43637D",
"j&	c #13334B",
"k&	c #000E1F",
"l&	c #244462",
"m&	c #2A3E53",
"n&	c #1E364D",
"o&	c #487192",
"p&	c #466F90",
"q&	c #446B8C",
"r&	c #406687",
"s&	c #3C6384",
"t&	c #3B6081",
"u&	c #3A5F80",
"v&	c #3A6081",
"w&	c #3B6181",
"x&	c #3C6283",
"y&	c #3D6384",
"z&	c #42698A",
"A&	c #456D8E",
"B&	c #476F90",
"C&	c #497293",
"D&	c #44657F",
"E&	c #13324A",
"F&	c #284967",
"G&	c #2A3F54",
"H&	c #213A51",
"I&	c #4E7798",
"J&	c #4C7495",
"K&	c #476E8F",
"L&	c #416687",
"M&	c #3C6182",
"N&	c #385D7E",
"O&	c #375B7C",
"P&	c #50799A",
"Q&	c #456681",
"R&	c #133049",
"S&	c #000D1F",
"T&	c #2C4E6D",
"U&	c #293C52",
"V&	c #29425A",
"W&	c #567E9F",
"X&	c #507899",
"Y&	c #496F90",
"Z&	c #B4C6D5",
"`&	c #5881A2",
" *	c #446580",
".*	c #133047",
"+*	c #000D1E",
"@*	c #305372",
"#*	c #273A4E",
"$*	c #324D65",
"%*	c #5E87A8",
"&*	c #5880A1",
"**	c #4E7596",
"=*	c #B8CAD9",
"-*	c #618AAB",
";*	c #345777",
">*	c #1F3144",
",*	c #426079",
"'*	c #6790B1",
")*	c #6189AA",
"!*	c #577FA0",
"~*	c #BCCEDD",
"{*	c #6A93B4",
"]*	c #3A5A74",
"^*	c #385C7C",
"/*	c #152436",
"(*	c #587A96",
"_*	c #729BBC",
":*	c #6D96B7",
"<*	c #668FB0",
"[*	c #5D85A7",
"}*	c #567EA0",
"|*	c #52799B",
"1*	c #507699",
"2*	c #749DBE",
"3*	c #2D4C66",
"4*	c #000C1D",
"5*	c #051224",
"6*	c #769CBB",
"7*	c #7EA7C8",
"8*	c #7CA4C6",
"9*	c #78A0C2",
"0*	c #739BBD",
"a*	c #6F98B9",
"b*	c #6C95B7",
"c*	c #6B93B6",
"d*	c #7FA8C9",
"e*	c #183852",
"f*	c #355775",
"g*	c #122133",
"h*	c #8DB6D6",
"i*	c #8EB7D8",
"j*	c #8DB6D7",
"k*	c #8BB4D6",
"l*	c #8AB3D4",
"m*	c #88B1D3",
"n*	c #87B0D1",
"o*	c #7BA3C3",
"p*	c #123149",
"q*	c #3D6281",
"r*	c #416787",
"s*	c #2F4A63",
"t*	c #32475C",
"u*	c #9CC5E6",
"v*	c #6A8EAB",
"w*	c #112D44",
"x*	c #2D4961",
"y*	c #436A87",
"z*	c #223549",
"A*	c #607B94",
"B*	c #A9D2F3",
"C*	c #4D6D87",
"D*	c #152637",
"E*	c #2B495F",
"F*	c #416781",
"G*	c #456D87",
"H*	c #436A83",
"I*	c #0C1A2A",
"J*	c #9CC1DF",
"K*	c #B3DCFD",
"L*	c #ADD6F7",
"M*	c #1D3C54",
"N*	c #000A19",
"O*	c #000B1C",
"P*	c #041725",
"Q*	c #123049",
"R*	c #12314A",
"        . . . . . + @ @ # $ $ % & * = - ; > , ' ' ) ! ~ { & ] ^ / / / / / / / / / / / / /       ",
"      @ ( _ : < [ } | 1 2 3 3 4 5 6 7 8 9 0 a b c d e f g h i j k l l l l l l l l l l m n       ",
"      + o p q r s t u v w w x y z A B C D d d d E F G H I J K L M N O O P P P P P P P Q R       ",
"      S T U V W X Y Z `  ...+.@.#.$.%.d d d &.*.=.-.;.>.,.'.).!.~.{.].^./.(.(.(.(.(.(._.        ",
"      :.<.[.}.|.1.2.d d d d d d d E d d 3.4.5.6.7.8.9.0.a.b.c.d.e.f.g.h.i.j.k.k.k.k.].l.        ",
"      m.n.o.p.q.d d d r.s.t.u.d d d d v.w.5.x.y.z.A.B.C.D.E.F.G.H.I.J.K.h.i.L.L.L.L.M.N.        ",
"      O.P.Q.R.S.T.U.V.W.X.Y.Z.`. +.+++@+#+$+%+&+*+=+-+;+>+,+'+)+!+~+{+]+^+/+(+(+(+(+_+:+        ",
"      <+[+}+|+1+2+3+4+5+6+5+7+8+9+0+a+b+c+d+e+f+;+g+h+d d d d d b i+j+k+l+m+n+n+n+n+o+          ",
"      p+q+r+s+s+t+u+v+w+x+y+z+A+B+C+D+E+y+F+G+H+I+d d d J+K+L+M+N+O+P+Q+R+S+T+T+T+T+U+          ",
"      V+W+X+Y+Z+`+ @.@+@@@#@$@%@&@*@=@*@x+-@;@d d d >@,@'@)@!@~@{@]@^@/@(@_@:@:@:@:@<@          ",
"      <+[@}@}@|@1@2@3@4@5@6@7@8@9@0@a@b@c@d d d d@e@f@g@h@i@j@k@l@m@n@o@p@q@q@q@q@q@r@          ",
"      O.1@s@t@u@v@w@x@y@z@A@B@C@D@E@F@G@d d H@I@J@K@L@M@N@O@P@Q@R@S@T@U@V@W@W@W@W@W@X@          ",
"      Y@Z@`@ #.#+#@###d d d d d d Q.$#d d %#&#*#=#-#;#>#,#'#)#!#~#{#]#^#/#/#/#/#/#/#(#          ",
"      <+_#:#<#[#d d d d d d d d d d d d }#|#1#2#3#4#5#6#7#8#9#0#a#a#a#a#a#a#a#a#a#a#b#          ",
"      c#d#e#d d d d f#g#h#i#j#k#l#m#d n#o#p#q#r#s#t#u#v#w#x#x#x#x#x#x#x#x#x#x#x#x#x#y#          ",
"      z#A#d d d B#C#D#E#F#G#H#I#J#K#L#M#N#O#P#Q#R#S#T#U#U#U#U#U#U#U#U#U#U#U#U#U#U#U#V#W#        ",
"      X#d Y#Z#`# $.$+$@$#$$$%$#$&$*$=$-$;$>$,$'$)$!$~$~$~$~$~$~$~$~$~$~$~$~$~$~$~$~${$]$        ",
"    ^$/$($_$:$<$[$}$|$1$2$3$4$5$6$7$8$9$0$a$(#b$c$d$d$d$d$d$d$d$d$d$d$d$d$d$d$d$d$d$e$f$        ",
"  g$h$i$j$k$l$m$n$o$p$q$r$s$t$u$v$w$x$y$z$A$B$C$D$D$D$D$D$D$D$D$D$D$D$D$D$D$D$D$D$D$E$F$        ",
"    G$H$I$J$K$L$M$N$O$P$Q$R$S$T$U$V$W$X$Y$Z$`$ % % % % % % % % % % % % % % % % % % %.%+%        ",
"      @%#%$%%%&%*%=%-%;%>%,%'%,%)%!%~%{%~%]%^%^%^%^%^%^%^%^%^%^%^%^%^%^%^%^%^%/%)%(%_%:%<%      ",
"      [%}%|%1%2%3%3%4%5%'%'%'%_%6%7%8%9%0%a%a%a%a%a%a%a%a%a%a%a%a%a%a%a%a%a%0%9%8%7%6%b%c%      ",
"      d%1%3%3%3%3%3%e%f%g%'%'%(%7%h%i%j%k%l%l%l%l%l%l%l%l%l%l%l%l%l%l%l%l%l%k%j%i%h%7%m%n%      ",
"      o%3%3%3%3%3%3%3%p%q%'%'%6%r%s%t%t%t%t%t%t%t%t%t%t%t%t%t%t%t%t%t%t%t%t%t%t%t%s%r%6%u%      ",
"      v%3%3%3%3%3%3%3%w%x%'%'%)%8%i%t%t%t%t%t%t%t%t%t%t%t%t%t%t%t%t%t%t%t%t%t%t%t%i%8%)%y%z%    ",
"      d%3%3%3%3%3%3%3%A%B%~%'%6%r%s%t%t%t%t%t%t%t%t%t%t%t%t%t%t%t%t%t%t%t%t%t%t%t%s%r%6%C%D%    ",
"      d%3%3%3%3%3%3%3%E%F%G%'%(%7%h%i%j%k%l%l%l%l%l%l%l%l%l%l%l%l%l%l%l%l%l%k%j%i%h%7%(% %H%    ",
"      I%3%3%3%3%3%3%3%3%J%K%'%_%)%L%M%N%i%O%O%O%O%O%O%O%O%O%O%O%O%P%Q%i%s%R%S%9%8%7%6%_%'%T%U%  ",
"      I%3%3%3%3%3%3%3%3%V%W%'%_%)%L%M%N%i%O%O%O%O%O%O%O%O%O%O%O%O%Q%X%S%Y%r%7%/%)%(%_%'%'%Z%`%  ",
"       &3%3%3%3%3%3%3%3%.&+&7%(%7%h%i%j%k%l%l%l%l%l%l%l%l%l%l%l%l%k%j%i%h%7%(%'%'%'%'%'%'%@&#&  ",
"      $&E%E%E%E%E%E%E%E%%&&&*&6%r%s%t%t%t%t%t%t%t%t%t%t%t%t%t%t%t%t%t%t%s%r%6%'%'%'%'%'%'% %=&  ",
"      [%-&-&-&-&-&-&-&-&-&;&>&)%8%i%t%t%t%t%t%t%t%t%t%t%t%t%t%t%t%t%t%t%i%8%)%'%'%'%'%'%'%'%,&  ",
"      [%'&'&'&'&'&'&'&'&'&)&!&6%r%s%t%t%t%t%t%t%t%t%t%t%t%t%t%t%t%t%t%t%s%r%6%'%'%'%'%'%'%'%~&  ",
"      {&]&]&]&]&]&]&]&]&]&^&/&,%(&_&:&<&[&k%k%k%k%k%k%k%k%k%k%k%k%[&<&:&_&(&,%}&}&}&}&}&}&}&|&1&",
"      {&2&2&2&2&2&2&2&2&2&3&4&5&6&7&8&~%9&0&0&0&0&0&0&0&0&0&0&0&0&a&b&c&d&7&D$e&f&g&5&h&h&h&i&j&",
"      k&l&l&l&l&l&l&l&l&l&m&n&o&p&q&r&s&t&u&u&u&u&u&u&u&u&u&u&u&u&u&v&w&x&y&C$r&z&A&B&o&C&C&D&E&",
"      k&F&F&F&F&F&F&F&F&F&G&H&I&J&K&L&M&N&O&O&O&O&O&O&O&O&O&O&O&O&O&O&O&O&O&N&M&L&K&J&I&P&P&Q&R&",
"      S&T&T&T&T&T&T&T&T&T&U&V&W&X&Y&Z&Z&Z&Z&Z&Z&Z&Z&Z&Z&Z&Z&Z&Z&Z&Z&Z&Z&Z&Z&Z&Z&Z&Y&X&W&`&`& *.*",
"      +*@*@*@*@*@*@*@*@*@*#*$*%*&***=*=*=*=*=*=*=*=*=*=*=*=*=*=*=*=*=*=*=*=*=*=*=***&*%*-*-*i&  ",
"      +*;*;*;*;*;*;*;*;*;*>*,*'*)*!*~*~*~*~*~*~*~*~*~*~*~*~*~*~*~*~*~*~*~*~*~*~*~*!*)*'*{*{*]*  ",
"      +*^*^*^*^*^*^*^*^*^*/*(*_*:*<*[*}*|*1*1*1*1*1*1*1*1*1*1*1*1*1*1*1*1*1*|*}*[*<*:*_*2*2*3*  ",
"      4*t&t&t&t&t&t&t&t&u&5*6*7*8*9*0*a*b*c*c*c*c*c*c*c*c*c*c*c*c*c*c*c*c*c*b*a*0*9*8*7*d*7*e*  ",
"      4*C$C$C$C$C$C$C$C$f*g*h*i*j*k*l*m*n*n*n*n*n*n*n*n*n*n*n*n*n*n*n*n*n*n*n*m*l*k*j*i*i*o*p*  ",
"      4*q*r*r*r*r*r*r*r*s*t*u*u*u*u*u*u*u*u*u*u*u*u*u*u*u*u*u*u*u*u*u*u*u*u*u*u*u*u*u*u*u*v*w*  ",
"      4*x*y*y*y*y*y*y*y*z*A*B*B*B*B*B*B*B*B*B*B*B*B*B*B*B*B*B*B*B*B*B*B*B*B*B*B*B*B*B*B*B*C*    ",
"      H$D*E*F*G*G*G*G*H*I*J*K*K*K*K*K*K*K*K*K*K*K*K*K*K*K*K*K*K*K*K*K*K*K*K*K*K*K*K*K*K*L*M*    ",
"        N*O*O*O*O*O*O*O*P*Q*R*R*R*R*R*R*R*R*R*R*R*R*R*R*R*R*R*R*R*R*R*R*R*R*R*R*R*R*R*R*R*w*    ",
"                                                                                                "};
