/* XPM */
static char * openoffice_apache_xpm[] = {
"48 48 207 2",
"  	c None",
". 	c #2490D1",
"+ 	c #0A83CC",
"@ 	c #0F85CD",
"# 	c #0E85CD",
"$ 	c #1C8CD0",
"% 	c #0480CB",
"& 	c #007DCA",
"* 	c #0B84CC",
"= 	c #3F9ED7",
"- 	c #007DC9",
"; 	c #0B83CC",
"> 	c #1086CD",
", 	c #1187CE",
"' 	c #037FCB",
") 	c #1186CD",
"! 	c #1186CE",
"~ 	c #007AC9",
"{ 	c #007BC9",
"] 	c #1488CE",
"^ 	c #1388CE",
"/ 	c #007CC9",
"( 	c #0079C8",
"_ 	c #1086CE",
": 	c #1287CE",
"< 	c #0580CB",
"[ 	c #1087CD",
"} 	c #007ECA",
"| 	c #017FCA",
"1 	c #027FCB",
"2 	c #0D85CD",
"3 	c #0F86CD",
"4 	c #0681CB",
"5 	c #017DCA",
"6 	c #1689CF",
"7 	c #4EA5DA",
"8 	c #6DB5E1",
"9 	c #99CBEA",
"0 	c #AED6EF",
"a 	c #ABD5EE",
"b 	c #91C7E8",
"c 	c #61B0DF",
"d 	c #0983CC",
"e 	c #0982CC",
"f 	c #46A1D8",
"g 	c #6EB6E1",
"h 	c #9ECEEB",
"i 	c #BBDDF1",
"j 	c #B9DCF1",
"k 	c #B5DAF0",
"l 	c #87C2E6",
"m 	c #5EADDE",
"n 	c #3196D4",
"o 	c #027FCA",
"p 	c #3E9ED7",
"q 	c #4CA4DA",
"r 	c #B3D9EF",
"s 	c #F7FBFD",
"t 	c #FFFFFF",
"u 	c #FCFDFF",
"v 	c #D8EBF7",
"w 	c #7DBDE4",
"x 	c #218FD1",
"y 	c #85C1E5",
"z 	c #DBEDF8",
"A 	c #FDFEFE",
"B 	c #C3E1F2",
"C 	c #6BB4E0",
"D 	c #047FCB",
"E 	c #0C84CD",
"F 	c #78BAE3",
"G 	c #7EBEE4",
"H 	c #6CB5E1",
"I 	c #67B2E0",
"J 	c #69B3E0",
"K 	c #8EC6E7",
"L 	c #BEDEF1",
"M 	c #DEEFF8",
"N 	c #ECF5FB",
"O 	c #F2F8FC",
"P 	c #CBE4F4",
"Q 	c #96CAE9",
"R 	c #65B1DF",
"S 	c #55A9DB",
"T 	c #54A8DB",
"U 	c #59ABDD",
"V 	c #68B3E0",
"W 	c #0F86CE",
"X 	c #017ECA",
"Y 	c #188ACF",
"Z 	c #4EA6DA",
"` 	c #9BCDEA",
" .	c #F3F9FC",
"..	c #FAFCFE",
"+.	c #F9FCFE",
"@.	c #EEF7FB",
"#.	c #91C8E8",
"$.	c #2D95D3",
"%.	c #0D84CD",
"&.	c #1D8DD0",
"*.	c #2E95D4",
"=.	c #A7D3EC",
"-.	c #FDFEFF",
";.	c #9FCFEB",
">.	c #2490D2",
",.	c #0781CB",
"'.	c #0882CB",
").	c #66B2DF",
"!.	c #1187CD",
"~.	c #0380CB",
"{.	c #0782CC",
"].	c #0C84CC",
"^.	c #2691D2",
"/.	c #47A2D9",
"(.	c #4AA3DA",
"_.	c #56A9DC",
":.	c #72B7E2",
"<.	c #55A9DC",
"[.	c #46A2D9",
"}.	c #2D94D3",
"|.	c #198BCF",
"1.	c #58ABDD",
"2.	c #8BC4E7",
"3.	c #CAE4F4",
"4.	c #EEF7FC",
"5.	c #D2E8F6",
"6.	c #9CCDEB",
"7.	c #5DADDD",
"8.	c #208ED1",
"9.	c #228FD1",
"0.	c #3298D5",
"a.	c #8CC5E7",
"b.	c #E2F1F9",
"c.	c #FCFDFE",
"d.	c #F1F8FC",
"e.	c #95CAE9",
"f.	c #3A9CD6",
"g.	c #56AADC",
"h.	c #95C9E9",
"i.	c #B3D8EF",
"j.	c #CBE5F5",
"k.	c #DCEEF8",
"l.	c #EDF6FB",
"m.	c #F0F8FC",
"n.	c #E6F2FA",
"o.	c #D9ECF7",
"p.	c #B9DBF0",
"q.	c #A3D0EC",
"r.	c #75B9E2",
"s.	c #3B9CD6",
"t.	c #2B94D3",
"u.	c #A8D3ED",
"v.	c #FAFDFE",
"w.	c #FCFEFE",
"x.	c #FBFDFE",
"y.	c #D6EAF7",
"z.	c #B8DBF0",
"A.	c #89C3E6",
"B.	c #5BACDD",
"C.	c #51A7DB",
"D.	c #43A0D8",
"E.	c #3E9DD7",
"F.	c #52A8DB",
"G.	c #D4EAF6",
"H.	c #3A9BD6",
"I.	c #7CBCE4",
"J.	c #F0F7FC",
"K.	c #FEFEFF",
"L.	c #BCDDF1",
"M.	c #399BD6",
"N.	c #FEFFFF",
"O.	c #E4F1F9",
"P.	c #E9F4FB",
"Q.	c #86C2E6",
"R.	c #3096D4",
"S.	c #F4F9FD",
"T.	c #F8FBFE",
"U.	c #F6FAFD",
"V.	c #88C3E6",
"W.	c #007CCA",
"X.	c #2A92D3",
"Y.	c #52A7DB",
"Z.	c #BEDEF2",
"`.	c #E8F3FA",
" +	c #C4E1F3",
".+	c #3398D4",
"++	c #0580CC",
"@+	c #409ED7",
"#+	c #83C0E5",
"$+	c #D1E8F6",
"%+	c #8FC7E8",
"&+	c #0581CC",
"*+	c #1387CE",
"=+	c #419FD7",
"-+	c #BFDFF2",
";+	c #FCFEFF",
">+	c #79BBE3",
",+	c #5DADDE",
"'+	c #E5F2FA",
")+	c #6FB6E1",
"!+	c #B2D8EF",
"~+	c #90C7E8",
"{+	c #0882CC",
"]+	c #94C9E9",
"^+	c #0D84CC",
"/+	c #4DA5DA",
"(+	c #0881CB",
"                                      . + @ # # # # @ + .                                       ",
"                                $ % & * @ # # # # # # @ * & % $                                 ",
"                          = & - ; > , @ # # # # # # # # @ , > ; - & =                           ",
"                        & ' , , @ # # # # # # # # # # # # # # @ , , ' &                         ",
"                    ) % , ! # # # # # # # # # # # # # # # # # # # # ! , % )                     ",
"                  ~ # ! # # # # # # # # # # # # # # # # # # # # # # # # ! # ~                   ",
"                { ] @ # # # # # # # # # # # # # # # # # # # # # # # # # # @ ] {                 ",
"              { ^ # # # # # # # # # # # # # # # # # # # # # # # # # # # # # # ^ {               ",
"            / ^ # # # # # # # # # # # # # # # # # # # # # # # # # # # # # # # # ^ /             ",
"          ( ] # # # # # # # # # # # # # # # # # # # # # # # # # # # # # # # # # # ] (           ",
"        @ @ @ # # # # # # # # # # @ , , ! _ ! ! : > @ # # # # # ! , ! > > > , : > @ @ @         ",
"        < [ # # # # # # # # # _ ! * } & | 1 1 } & % 2 : 3 3 , 2 1 & | ' ' ' } & 4 > ] <         ",
"      5 , # # # # # # # # # # } / 6 7 8 9 0 a b c = ! & d e } > f g h i j k l m n o / _ 5       ",
"    p % > # # # # # # # # # # q r s t t t t t t t u v w x x y z t t t t t t t t A B C : D =     ",
"    } ! # # # # # # # # # E 6 F G H I J K L M t t t t t N N t t t t O P Q R S T U V C ] W }     ",
"    & , # # # # # # # # # # 2 & ~ / / / X % Y Z `  .t ..t t +.t @.#.$.4 o / } } } / / %., &     ",
"  &.* # # # # # # # # # # # # ! : : : : ! > E | & *.=.t -.u t ;.>.& ,.> ! : , , , , , # # * &.  ",
"  % _ # # # # # # # # # # # # # # # # # # # @ ! : ,.& C t t C & '.: > # # # # # # # # # # _ %   ",
"  & , # # # # # # # # # # # # # # # # # # # # # # > , { m )./ !.> # # # # # # # # # # # # , &   ",
">.* @ # # # # # # # # # # # # # # # # # # # # # # # # , ~.' ! # # # # # # # # # # # # # # @ * >.",
"d @ # # # # # # # # # # # # # # # # # # # # # # # # # # _ ! # # # # # # # # # # # # # # # # @ d ",
"3 # # # # # # # # # # # # # # # # # # # # # # # # # # # # # # # # # # # # # # # # # # # # # # 3 ",
"# # # # # # # # # # # # # # # # # # # # # # # # # # # # # # # # # # # # # # # # # # # # # # # # ",
"# # # # # # # # # # # # # # # # # # # # # # # # # # # 3 ! ! , , , , , ! > # # # # # # # # # # # ",
"# # # # # # # # # # # # # # # # # # # # # # # @ , , > e | X } } } } } | {.@ ! , @ # # # # # # # ",
"# # # # @ @ 3 3 3 @ # # # # # # # # # # # > : ].& } < ^./.(._.:.F ).<.[.}.+ } & + > # # # # # # ",
"> ! : ! 2 * d e + E > : , > @ # # # # > > 4 / |.1.2.3.N t t t t t t t t 4.5.6.7.$ | 2 # # # # 3 ",
"~.o / o 3 Y 8.9.$ 6 < / } % 2 , > @ : ,.~.0.a.b.t t t t A +.+.c.t t t t t t t t d.e.d @ # # @ d ",
"f.g.h.i.j.k.l.m.n.o.p.q.r.s., & < %./ t.u.v.t t w.c.x.v.t t t t y.z.A.R B.C.D.E.T F.2 # # @ * >.",
"  t t t t t t t t t t t t t G.b H.: I.J.t t x.K.K.x.t t x.L.V M.> 1 } & & } ' % } } # # # , &   ",
"  t -.v.....x.x.w.-.c.x.w.N.t t x.O.t t w.t t -.t t P.Q.R.< } % # _ , : , , ! > ! ! # # # _ %   ",
"  S.T.t t t t t t K.c.-.t t -.c.t t c.K.t t c.t U.V.8.W.4 > , > # # # # # # # # # # # # # * &.  ",
"    X.q Y.<.V.Z.`.t t t K.-.t t N.-.t t N.u t  +.+/ + : > # # # # # # # # # # # # # # # , &     ",
"    ( ++} } } o x @+#+$+t t -.K.t t t N.K.t %+{.&+*+3 # # # # # # # # # # # # # # # # # ! }     ",
"    =+4 ] , , ! d % W.# Z -+t t ;+t N.A t >+& # ! # # # # # # # # # # # # # # # # # # > % p     ",
"      5 , # # # 3 > : # | 4 ,+'+t x.x.t )+{ , @ # # # # # # # # # # # # # # # # # # # , 5       ",
"        < [ # # # # # # , 3 } $ !+t t ~+& : @ # # # # # # # # # # # # # # # # # # # [ <         ",
"        @ @ @ # # # # # # # : {+% ]+a ~.@ @ # # # # # # # # # # # # # # # # # # # @ @ @         ",
"          ( ] # # # # # # # # > %.4 + 2 @ # # # # # # # # # # # # # # # # # # # # ] (           ",
"            / ^ # # # # # # # # @ > @ @ # # # # # # # # # # # # # # # # # # # # ^ /             ",
"              { ] # # # # # # # # # # # # # # # # # # # # # # # # # # # # # # ^ {               ",
"                ( > 3 # # # # # # # # # # # # # # # # # # # # # # # # # # @ ] {                 ",
"                  {++ , # # # # # # # # # # # # # # # # # # # # # # # # ! # ~                   ",
"                    ^+% , ! # # # # # # # # # # # # # # # # # # # # ! , % )                     ",
"                        & ' , , @ # # # # # # # # # # # # # # @ , , ' &                         ",
"                          = & - ; > , > # # # # # # # # @ , > ; - & =                           ",
"                                $ % & < 3 # # # # # # @ * & % $                                 ",
"                                      /+(+> # # # # @ + .                                       "};
