/* XPM */
static char * openoffice_xpm[] = {
"48 48 701 2",
"  	c None",
". 	c #00182E",
"+ 	c #13477F",
"@ 	c #1A5BA1",
"# 	c #1A5AA0",
"$ 	c #19589E",
"% 	c #19579C",
"& 	c #19579B",
"* 	c #19569A",
"= 	c #1B5CA3",
"- 	c #1B5CA4",
"; 	c #1B5DA5",
"> 	c #31475C",
", 	c #5E7386",
"' 	c #7B91A3",
") 	c #7F94A6",
"! 	c #7E93A5",
"~ 	c #708598",
"{ 	c #02192D",
"] 	c #041D36",
"^ 	c #A5BBD0",
"/ 	c #B1C8DF",
"( 	c #ADC4DB",
"_ 	c #A9C0D7",
": 	c #A4BCD3",
"< 	c #A0B8CF",
"[ 	c #9DB6CD",
"} 	c #9DB5CC",
"| 	c #9FB7CE",
"1 	c #A2BAD0",
"2 	c #A7BED5",
"3 	c #AEC4DB",
"4 	c #B4CAE1",
"5 	c #B9CFE6",
"6 	c #BDD2E9",
"7 	c #BED3EA",
"8 	c #BFD4EB",
"9 	c #1D5EA5",
"0 	c #1B5CA1",
"a 	c #00172C",
"b 	c #32495D",
"c 	c #637E96",
"d 	c #496A85",
"e 	c #365A78",
"f 	c #335675",
"g 	c #325674",
"h 	c #325574",
"i 	c #325573",
"j 	c #203C56",
"k 	c #00162A",
"l 	c #213C59",
"m 	c #87A8CB",
"n 	c #85A5C8",
"o 	c #7F9FC2",
"p 	c #7898BB",
"q 	c #9DB3CB",
"r 	c #BECCDB",
"s 	c #DCE3EB",
"t 	c #E3E9EF",
"u 	c #FFFFFF",
"v 	c #E7EDF2",
"w 	c #E3EAF1",
"x 	c #D3DDE9",
"y 	c #9AB4D2",
"z 	c #90B0D4",
"A 	c #97B7DC",
"B 	c #9ABADF",
"C 	c #9BBBE0",
"D 	c #6291C5",
"E 	c #185290",
"F 	c #00162C",
"G 	c #4D687F",
"H 	c #3E6381",
"I 	c #3B607F",
"J 	c #395E7D",
"K 	c #375C7A",
"L 	c #375A78",
"M 	c #355876",
"N 	c #182F44",
"O 	c #001427",
"P 	c #45627F",
"Q 	c #809FBF",
"R 	c #7998B7",
"S 	c #ADBED0",
"T 	c #F1F4F6",
"U 	c #F5F7F9",
"V 	c #C6D0DA",
"W 	c #AEBCCC",
"X 	c #9DAFC3",
"Y 	c #879FB9",
"Z 	c #7F9DBD",
"` 	c #90AECF",
" .	c #9BB9DB",
"..	c #A0BEE0",
"+.	c #A1BFE1",
"@.	c #A2C0E2",
"#.	c #477DB7",
"$.	c #1A5CA3",
"%.	c #00162B",
"&.	c #4F7088",
"*.	c #3C627B",
"=.	c #3A5E77",
"-.	c #375A73",
";.	c #5D788C",
">.	c #7A909F",
",.	c #99AAB5",
"'.	c #ACB9C3",
").	c #9BA3AA",
"!.	c #6C7680",
"~.	c #7790A6",
"{.	c #7C97B1",
"].	c #D9E0E7",
"^.	c #D4DBE1",
"/.	c #899BAC",
"(.	c #506A84",
"_.	c #4B6683",
":.	c #506B88",
"<.	c #56738F",
"[.	c #647F9E",
"}.	c #7593B2",
"|.	c #8AA7C8",
"1.	c #97B5D5",
"2.	c #9DBBDB",
"3.	c #9FBDDD",
"4.	c #A0BEDF",
"5.	c #A1BFE0",
"6.	c #A2C0E1",
"7.	c #A3C1E2",
"8.	c #2663A7",
"9.	c #1A5BA2",
"0.	c #001629",
"a.	c #3B5E79",
"b.	c #496880",
"c.	c #A3B1BD",
"d.	c #F5F7F8",
"e.	c #EDF0F2",
"f.	c #8092A4",
"g.	c #3F5A76",
"h.	c #435E7A",
"i.	c #46627E",
"j.	c #4B6784",
"k.	c #506C89",
"l.	c #557391",
"m.	c #62809F",
"n.	c #7291B2",
"o.	c #83A3C4",
"p.	c #8FAFD1",
"q.	c #94B5D7",
"r.	c #96B7D9",
"s.	c #99B9DC",
"t.	c #9BBBDE",
"u.	c #9CBCDF",
"v.	c #9DBDE0",
"w.	c #9EBEE1",
"x.	c #90B4DA",
"y.	c #19599E",
"z.	c #213242",
"A.	c #ADBAC5",
"B.	c #FAFBFB",
"C.	c #D7DBDF",
"D.	c #D1D6DB",
"E.	c #D1D5D9",
"F.	c #DBDDDF",
"G.	c #D7DDE2",
"H.	c #46607A",
"I.	c #3C5875",
"J.	c #425F7D",
"K.	c #4A6786",
"L.	c #506F8E",
"M.	c #567595",
"N.	c #5B7A9B",
"O.	c #6080A1",
"P.	c #6787A9",
"Q.	c #7192B5",
"R.	c #799BBF",
"S.	c #80A3C6",
"T.	c #84A6CB",
"U.	c #88ABCF",
"V.	c #8CAFD4",
"W.	c #90B3D9",
"X.	c #93B6DC",
"Y.	c #94B7DD",
"Z.	c #95B8DE",
"`.	c #7DA5D1",
" +	c #195698",
".+	c #F0F1F2",
"++	c #E0E3E7",
"@+	c #9AA5AF",
"#+	c #5D6E7D",
"$+	c #20344A",
"%+	c #162C41",
"&+	c #162B40",
"*+	c #152A3F",
"=+	c #132437",
"-+	c #000A17",
";+	c #132233",
">+	c #8092A5",
",+	c #D9DEE4",
"'+	c #DCE1E7",
")+	c #445E7A",
"!+	c #395776",
"~+	c #426181",
"{+	c #4C6D8E",
"]+	c #547799",
"^+	c #597CA0",
"/+	c #5C80A4",
"(+	c #5D81A5",
"_+	c #6284A7",
":+	c #809CB9",
"<+	c #8EA9C3",
"[+	c #A3B8CF",
"}+	c #B9CADB",
"|+	c #C3D2E1",
"1+	c #B1C6DB",
"2+	c #85A7CB",
"3+	c #7FA7CF",
"4+	c #85ADD6",
"5+	c #87AFD9",
"6+	c #88B0DA",
"7+	c #6C99C9",
"8+	c #19599F",
"9+	c #175394",
"0+	c #B9C2C9",
"a+	c #1E2A38",
"b+	c #172E45",
"c+	c #152C41",
"d+	c #142A3F",
"e+	c #142A3E",
"f+	c #152A40",
"g+	c #152738",
"h+	c #000C18",
"i+	c #091A2E",
"j+	c #335172",
"k+	c #324F6F",
"l+	c #3D5A78",
"m+	c #375677",
"n+	c #3F6183",
"o+	c #496C91",
"p+	c #52779C",
"q+	c #557AA1",
"r+	c #6083A8",
"s+	c #9AB0C7",
"t+	c #D6DFE7",
"u+	c #E0E6ED",
"v+	c #BBCBDA",
"w+	c #8AA7C5",
"x+	c #6F97C3",
"y+	c #77A1CE",
"z+	c #7CA6D4",
"A+	c #7DA8D6",
"B+	c #6493C5",
"C+	c #19589D",
"D+	c #175293",
"E+	c #000D1D",
"F+	c #142A40",
"G+	c #152C42",
"H+	c #162D43",
"I+	c #172E44",
"J+	c #182E46",
"K+	c #182F46",
"L+	c #1B2E41",
"M+	c #000E1D",
"N+	c #0C2035",
"O+	c #395C81",
"P+	c #36587D",
"Q+	c #3B5F84",
"R+	c #426790",
"S+	c #496F99",
"T+	c #5F82A7",
"U+	c #C0CDDB",
"V+	c #FDFDFE",
"W+	c #F1F3F6",
"X+	c #AFBDCB",
"Y+	c #7990A8",
"Z+	c #48688A",
"`+	c #3B5E84",
" @	c #446891",
".@	c #5077A3",
"+@	c #5F89B9",
"@@	c #6B97C9",
"#@	c #709ED1",
"$@	c #71A0D3",
"%@	c #5F8FC4",
"&@	c #000E1E",
"*@	c #152C43",
"=@	c #172F47",
"-@	c #183049",
";@	c #19324C",
">@	c #1A334D",
",@	c #19344D",
"'@	c #21374D",
")@	c #001021",
"!@	c #0C223B",
"~@	c #436A96",
"{@	c #3E648E",
"]@	c #3D628C",
"^@	c #3E658E",
"/@	c #446A93",
"(@	c #99ADC3",
"_@	c #F8F9FB",
":@	c #E4E8EC",
"<@	c #8195AB",
"[@	c #365377",
"}@	c #2D4E73",
"|@	c #2F5177",
"1@	c #32557B",
"2@	c #365A81",
"3@	c #3D638E",
"4@	c #4972A0",
"5@	c #5784B5",
"6@	c #6291C6",
"7@	c #6798CD",
"8@	c #6899CF",
"9@	c #5E8FC4",
"0@	c #18579B",
"a@	c #175292",
"b@	c #001123",
"c@	c #173049",
"d@	c #17314B",
"e@	c #18324C",
"f@	c #18324D",
"g@	c #18334D",
"h@	c #17324C",
"i@	c #21374C",
"j@	c #001122",
"k@	c #092038",
"l@	c #4470A2",
"m@	c #406C9B",
"n@	c #3C6694",
"o@	c #3D6490",
"p@	c #BECBD8",
"q@	c #E5F0F9",
"r@	c #768BA2",
"s@	c #26456A",
"t@	c #27476D",
"u@	c #2A4C73",
"v@	c #2E517B",
"w@	c #325883",
"x@	c #365E8A",
"y@	c #3B6492",
"z@	c #426D9E",
"A@	c #4978AB",
"B@	c #5385BB",
"C@	c #598DC6",
"D@	c #5D92CA",
"E@	c #5D92CC",
"F@	c #5A8CC4",
"G@	c #18569A",
"H@	c #001325",
"I@	c #16304A",
"J@	c #153049",
"K@	c #152F49",
"L@	c #142E46",
"M@	c #132D45",
"N@	c #122B43",
"O@	c #3C5063",
"P@	c #61717F",
"Q@	c #666F79",
"R@	c #626E7A",
"S@	c #597EA8",
"T@	c #366293",
"U@	c #315B8A",
"V@	c #B5C2D1",
"W@	c #E7F6FF",
"X@	c #CBD8E4",
"Y@	c #415C7C",
"Z@	c #214269",
"`@	c #254872",
" #	c #2A507C",
".#	c #315987",
"+#	c #376193",
"@#	c #3B699D",
"##	c #4070A6",
"$#	c #4475AC",
"%#	c #477BB3",
"&#	c #4B80BB",
"*#	c #5086C3",
"=#	c #5289C7",
"-#	c #538BC9",
";#	c #598DC7",
">#	c #175598",
",#	c #165394",
"'#	c #001226",
")#	c #132E46",
"!#	c #122C43",
"~#	c #2A4054",
"{#	c #8B97A1",
"]#	c #DDE0E3",
"^#	c #F2F5F8",
"/#	c #CED7E1",
"(#	c #DBEBF9",
"_#	c #AFBFCF",
":#	c #244569",
"<#	c #1F426A",
"[#	c #254C78",
"}#	c #2B5686",
"|#	c #326195",
"1#	c #396BA2",
"2#	c #3E73AC",
"3#	c #4179B4",
"4#	c #447CB9",
"5#	c #4680BE",
"6#	c #4782C0",
"7#	c #4984C3",
"8#	c #4985C5",
"9#	c #4A86C6",
"0#	c #548DC9",
"a#	c #185698",
"b#	c #175596",
"c#	c #485A6B",
"d#	c #B8BFC5",
"e#	c #D4E8F8",
"f#	c #BACAD9",
"g#	c #204066",
"h#	c #1C416C",
"i#	c #234C7D",
"j#	c #2B5A8F",
"k#	c #3266A0",
"l#	c #3870AD",
"m#	c #3C76B7",
"n#	c #3F7BBD",
"o#	c #417EC1",
"p#	c #427FC3",
"q#	c #4280C3",
"r#	c #4280C4",
"s#	c #4381C4",
"t#	c #2A63A1",
"u#	c #175496",
"v#	c #A5AAB0",
"w#	c #F6FFFF",
"x#	c #D5E8F8",
"y#	c #D7EAF9",
"z#	c #D9EBF9",
"A#	c #DAEBF9",
"B#	c #D9EAF9",
"C#	c #D6E9F8",
"D#	c #DFF4FF",
"E#	c #D2E7F8",
"F#	c #D7E6F2",
"G#	c #325074",
"H#	c #1A3F6B",
"I#	c #214B7D",
"J#	c #295991",
"K#	c #3067A5",
"L#	c #3671B3",
"M#	c #3A76BB",
"N#	c #3B79BF",
"O#	c #3C7BC0",
"P#	c #3C7BC1",
"Q#	c #3E74AE",
"R#	c #F4F6F7",
"S#	c #BAC9D5",
"T#	c #929FAB",
"U#	c #7B8692",
"V#	c #636E7A",
"W#	c #35414F",
"X#	c #1A2737",
"Y#	c #101C2A",
"Z#	c #272F39",
"`#	c #364454",
" $	c #7489A2",
".$	c #BDCDDD",
"+$	c #E8F3FB",
"@$	c #6E85A1",
"#$	c #183E6B",
"$$	c #1E4A7C",
"%$	c #275993",
"&$	c #2E67A7",
"*$	c #3472B5",
"=$	c #3777BD",
"-$	c #3879BF",
";$	c #3879C0",
">$	c #487EB8",
",$	c #165293",
"'$	c #154E8C",
")$	c #C9CBCE",
"!$	c #707C89",
"~$	c #1F2E3E",
"{$	c #071627",
"]$	c #071728",
"^$	c #081729",
"/$	c #08182A",
"($	c #152534",
"_$	c #000A15",
":$	c #010C1A",
"<$	c #153864",
"[$	c #153863",
"}$	c #33537A",
"|$	c #183F6C",
"1$	c #1E497D",
"2$	c #265892",
"3$	c #2C66A7",
"4$	c #3271B5",
"5$	c #3576BE",
"6$	c #3678BF",
"7$	c #3678C0",
"8$	c #4E86C3",
"9$	c #155191",
"0$	c #15508F",
"a$	c #E4E8EA",
"b$	c #70838F",
"c$	c #000914",
"d$	c #081829",
"e$	c #09192A",
"f$	c #091A2C",
"g$	c #0A1B2E",
"h$	c #0A1B2F",
"i$	c #0B1D30",
"j$	c #0B1E32",
"k$	c #0B1E33",
"l$	c #112438",
"m$	c #0E1A28",
"n$	c #000B18",
"o$	c #13355F",
"p$	c #1A4374",
"q$	c #1B4475",
"r$	c #1F4B80",
"s$	c #255791",
"t$	c #2D65A5",
"u$	c #3270B5",
"v$	c #3575BD",
"w$	c #3F7EC3",
"x$	c #2D649F",
"y$	c #155090",
"z$	c #EDF0F1",
"A$	c #8999A3",
"B$	c #123146",
"C$	c #000A16",
"D$	c #0A1D2F",
"E$	c #0D2138",
"F$	c #0D243A",
"G$	c #0E253B",
"H$	c #0E263D",
"I$	c #0F263E",
"J$	c #10273F",
"K$	c #263647",
"L$	c #0D2948",
"M$	c #23558D",
"N$	c #23558E",
"O$	c #275B97",
"P$	c #2D66A6",
"Q$	c #3170B4",
"R$	c #3575BC",
"S$	c #487BB3",
"T$	c #154F8E",
"U$	c #144C89",
"V$	c #123247",
"W$	c #000C1B",
"X$	c #102841",
"Y$	c #112943",
"Z$	c #112B44",
"`$	c #122C45",
" %	c #122C47",
".%	c #122D48",
"+%	c #132D48",
"@%	c #31465B",
"#%	c #041A31",
"$%	c #2E68A9",
"%%	c #2E67A8",
"&%	c #306BAE",
"*%	c #3371B6",
"=%	c #3576BD",
"-%	c #4F85C1",
";%	c #144E8D",
">%	c #144C8A",
",%	c #112A44",
"'%	c #122D46",
")%	c #132E49",
"!%	c #132E4A",
"~%	c #132F4A",
"{%	c #142F4B",
"]%	c #14304C",
"^%	c #253F58",
"/%	c #112134",
"(%	c #285E9B",
"_%	c #3373B9",
":%	c #3474BB",
"<%	c #4482C4",
"[%	c #255C97",
"}%	c #144D8B",
"|%	c #001022",
"1%	c #2C3E51",
"2%	c #001124",
"3%	c #19406B",
"4%	c #4174AC",
"5%	c #134C8A",
"6%	c #001023",
"7%	c #304459",
"8%	c #0D2847",
"9%	c #487DB7",
"0%	c #134B88",
"a%	c #124882",
"b%	c #2C445C",
"c%	c #03182F",
"d%	c #4982C0",
"e%	c #134A87",
"f%	c #134984",
"g%	c #203B55",
"h%	c #071729",
"i%	c #316FB4",
"j%	c #407FC3",
"k%	c #194F8A",
"l%	c #124985",
"m%	c #000F21",
"n%	c #142436",
"o%	c #295E98",
"p%	c #275B94",
"q%	c #124884",
"r%	c #1D2E40",
"s%	c #235080",
"t%	c #30639B",
"u%	c #114782",
"v%	c #15314D",
"w%	c #1F3043",
"x%	c #214874",
"y%	c #33679F",
"z%	c #000E20",
"A%	c #183551",
"B%	c #223346",
"C%	c #20446B",
"D%	c #3A7CC4",
"E%	c #366AA2",
"F%	c #114680",
"G%	c #000E1F",
"H%	c #1C3A56",
"I%	c #213346",
"J%	c #22456C",
"K%	c #3F81C9",
"L%	c #366AA3",
"M%	c #10457F",
"N%	c #000D1F",
"O%	c #20405D",
"P%	c #213246",
"Q%	c #254970",
"R%	c #4486CE",
"S%	c #3568A1",
"T%	c #10447D",
"U%	c #254664",
"V%	c #1E2F42",
"W%	c #2E537E",
"X%	c #4A8CD4",
"Y%	c #32659C",
"Z%	c #10447C",
"`%	c #000D1E",
" &	c #2B4C6B",
".&	c #182739",
"+&	c #3B6696",
"@&	c #5193DB",
"#&	c #295D94",
"$&	c #0F437B",
"%&	c #305372",
"&&	c #0C1A2B",
"*&	c #5185BD",
"=&	c #589AE2",
"-&	c #1C4F86",
";&	c #0F427A",
">&	c #000C1D",
",&	c #355979",
"'&	c #305270",
")&	c #021124",
"!&	c #65A3E6",
"~&	c #60A2EA",
"{&	c #5899DF",
"]&	c #0F4179",
"^&	c #0F4077",
"/&	c #2C4A66",
"(&	c #3A5F80",
"_&	c #2F4B66",
":&	c #0E223A",
"<&	c #6BADF5",
"[&	c #548FD0",
"}&	c #0E4178",
"|&	c #0D3C70",
"1&	c #000B1B",
"2&	c #203449",
"3&	c #3D6383",
"4&	c #3F6586",
"5&	c #2C4259",
"6&	c #243E5E",
"7&	c #74B6FE",
"8&	c #4A80BB",
"9&	c #0E4077",
"0&	c #0C3869",
"a&	c #000C1C",
"b&	c #1A3045",
"c&	c #304F69",
"d&	c #3F6583",
"e&	c #426987",
"f&	c #132335",
"g&	c #5B83AC",
"h&	c #7CBEFF",
"i&	c #285A90",
"j&	c #0E4076",
"k&	c #000815",
"l&	c #000A1A",
"m&	c #000B1C",
"n&	c #0B325E",
"o&	c #0D3D71",
"p&	c #0E3F76",
"q&	c #0E3E75",
"r&	c #0D386A",
"                                                                                                ",
"                                                                                                ",
"                                                                                                ",
"                                                                                                ",
"                                                                                                ",
"                                                                                                ",
"              . . . . . . . . . . + @ # $ % & * * & % $ # @ = - ; ; ; ; ; ; ; ; ; ; ;           ",
"            . > , ' ) ) ! ! ~ { ] ^ / ( _ : < [ } | 1 2 3 4 5 6 7 8 8 8 8 8 8 8 8 8 9 0         ",
"          a b c d e f g h i j k l m n o p q r s t u v w x y z A B C C C C C C C C D = E         ",
"          F G H I J K L M M N O P Q R S T u u u U V W X Y Z `  ...+.+.+.@.@.@.@.@.#.$.          ",
"          %.&.*.=.-.;.>.,.'.).!.~.{.].u u u ^./.(._.:.<.[.}.|.1.2.3.4.5.6.7.7.7.7.8.9.          ",
"          0.a.b.c.d.u u u u u u u d.u u e.f.g.h.i.j.k.l.m.n.o.p.q.r.s.t.u.v.w.w.x.@ y.          ",
"          z.A.B.u u u C.D.E.F.u u u u G.H.I.J.K.L.M.N.O.P.Q.R.S.T.U.V.W.X.Y.Z.Z.`.#  +          ",
"          .+++@+#+$+%+&+*+=+-+;+>+,+'+)+!+~+{+]+^+/+(+_+:+<+[+}+|+1+2+3+4+5+6+6+7+8+9+          ",
"        0+a+b+c+d+e+d+d+f+g+h+i+j+k+l+m+n+o+p+q+r+s+t+u u u u u u+v+w+x+y+z+A+A+B+C+D+          ",
"          E+f+F+G+H+I+J+K+L+M+N+O+P+P+Q+R+S+T+U+V+u u u W+X+Y+Z+`+ @.@+@@@#@$@$@%@C+D+          ",
"          &@*@=@-@;@>@>@,@'@)@!@~@{@]@^@/@(@_@u u u :@<@[@}@|@1@2@3@4@5@6@7@8@8@9@0@a@          ",
"          b@c@d@e@f@g@h@d@i@j@k@l@m@n@o@p@u u u q@r@s@t@u@v@w@x@y@z@A@B@C@D@E@E@F@G@D+          ",
"          H@I@J@K@L@M@N@O@P@Q@R@S@T@U@V@u u W@X@Y@Z@`@ #.#+#@###$#%#&#*#=#-#-#-#;#>#,#          ",
"          '#)#!#~#{#]#u u u u u u ^#/#u u (#_#:#<#[#}#|#1#2#3#4#5#6#7#8#9#9#9#9#0#a#b#          ",
"          j@c#d#u u u u u u u u u u u u e#f#g#h#i#j#k#l#m#n#o#p#q#r#r#r#r#r#r#r#s#t#u#          ",
"          v#u u u u w#x#y#z#A#B#C#D#u E#F#G#H#I#J#K#L#M#N#O#P#P#P#P#P#P#P#P#P#P#P#Q#,#          ",
"        R#u u u S#T#U#V#W#X#Y#Z#`# $.$+$@$#$$$%$&$*$=$-$;$;$;$;$;$;$;$;$;$;$;$;$;$>$,$'$        ",
"      B.u )$!$~${${${$]$^$/$($_$:$<$[$}$|$1$2$3$4$5$6$7$7$7$7$7$7$7$7$7$7$7$7$7$7$8$9$0$        ",
"    V+a$b$c$d$e$f$g$h$i$j$k$l$m$n$o$p$q$r$s$t$u$v$7$7$7$7$7$7$7$7$7$7$7$7$7$7$7$7$w$x$y$        ",
"  z$A$B$B$C$D$k$N+E$F$G$H$I$J$K$M+L$M$N$O$P$Q$R$6$7$7$7$7$7$7$7$7$7$7$7$7$7$7$7$7$7$S$T$U$      ",
"    V$V$  W$F$I$X$Y$Z$`$ %.%+%@%j@#%$%%%&%*%=%6$7$7$7$7$7$7$7$7$7$7$7$7$7$7$7$7$7$7$-%;%>%      ",
"          &@,%'%)%!%~%{%{%]%]%^%/%b@(%_%:%5$6$7$7$7$7$7$7$7$7$7$7$7$7$7$7$7$7$7$7$7$<%[%}%      ",
"          |%~%{%]%]%]%]%]%]%]%]%1%2%3%6$7$7$7$7$7$7$7$7$7$7$7$7$7$7$7$7$7$7$7$7$7$7$7$4%5%      ",
"          6%]%]%]%]%]%]%]%]%]%]%7%6%8%7$7$7$7$7$7$7$7$7$7$7$7$7$7$7$7$7$7$7$7$7$7$7$7$9%0%a%    ",
"          6%]%]%]%]%]%]%]%]%]%]%b%6%c%7$7$7$7$7$7$7$7$7$7$7$7$7$7$7$7$7$7$7$7$7$7$7$7$d%e%f%    ",
"          |%]%]%]%]%]%]%]%]%]%]%g%h%|%i%7$7$7$7$7$7$7$7$7$7$7$7$7$7$7$7$7$7$7$7$7$7$7$j%k%l%    ",
"          m%]%]%]%]%]%]%]%]%]%]%]%n%m%o%7$7$7$7$7$7$7$7$7$7$7$7$7$7$7$7$7$7$7$7$7$7$7$7$p%q%    ",
"          m%]%]%]%]%]%]%]%]%]%]%]%r%m%s%7$7$7$7$7$7$7$7$7$7$7$7$7$7$7$7$7$7$7$7$7$7$7$7$t%u%    ",
"          m%v%v%v%v%v%v%v%v%v%v%v%w%m%x%7$7$7$7$7$7$7$7$7$7$7$7$7$7$7$7$7$7$7$7$7$7$7$7$y%u%    ",
"          z%A%A%A%A%A%A%A%A%A%A%A%B%z%C%D%D%D%D%D%D%D%D%D%D%D%D%D%D%D%D%D%D%D%D%D%D%D%D%E%F%    ",
"          G%H%H%H%H%H%H%H%H%H%H%H%I%G%J%K%K%K%K%K%K%K%K%K%K%K%K%K%K%K%K%K%K%K%K%K%K%K%K%L%M%    ",
"          N%O%O%O%O%O%O%O%O%O%O%O%P%N%Q%R%R%R%R%R%R%R%R%R%R%R%R%R%R%R%R%R%R%R%R%R%R%R%R%S%T%    ",
"          N%U%U%U%U%U%U%U%U%U%U%U%V%N%W%X%X%X%X%X%X%X%X%X%X%X%X%X%X%X%X%X%X%X%X%X%X%X%X%Y%Z%    ",
"          `% & & & & & & & & & & &.&`%+&@&@&@&@&@&@&@&@&@&@&@&@&@&@&@&@&@&@&@&@&@&@&@&@&#&$&    ",
"          `%%&%&%&%&%&%&%&%&%&%&%&&&`%*&=&=&=&=&=&=&=&=&=&=&=&=&=&=&=&=&=&=&=&=&=&=&=&=&-&;&    ",
"          >&f ,&,&,&,&,&,&,&,&,&'&>&)&!&~&~&~&~&~&~&~&~&~&~&~&~&~&~&~&~&~&~&~&~&~&~&~&{&]&^&    ",
"          >&/&(&(&(&(&(&(&(&(&(&_&>&:&<&<&<&<&<&<&<&<&<&<&<&<&<&<&<&<&<&<&<&<&<&<&<&<&[&}&|&    ",
"          1&2&3&4&4&4&4&4&4&4&4&5&>&6&7&7&7&7&7&7&7&7&7&7&7&7&7&7&7&7&7&7&7&7&7&7&7&7&8&9&0&    ",
"            a&b&c&d&e&e&e&e&e&e&f&a&g&h&h&h&h&h&h&h&h&h&h&h&h&h&h&h&h&h&h&h&h&h&h&h&h&i&j&      ",
"            k&l&m&m&m&m&m&m&m&m&m&n&o&p&p&p&p&p&p&p&p&p&p&p&p&p&p&p&p&p&p&p&p&p&p&p&p&q&r&      ",
"                                                                                                ",
"                                                                                                "};
