/* XPM */
static char * openoffice_calc_xpm[] = {
"48 48 884 2",
"  	c None",
". 	c #00182E",
"+ 	c #00182D",
"@ 	c #00172D",
"# 	c #48581F",
"$ 	c #717E17",
"% 	c #717D17",
"& 	c #707D17",
"* 	c #6F7C17",
"= 	c #6E7A17",
"- 	c #6B7816",
"; 	c #687516",
"> 	c #657316",
", 	c #637115",
"' 	c #617015",
") 	c #616F15",
"! 	c #627015",
"~ 	c #647115",
"{ 	c #677416",
"] 	c #727F18",
"^ 	c #758118",
"/ 	c #768218",
"( 	c #1D3449",
"_ 	c #51677B",
": 	c #788EA1",
"< 	c #7F94A6",
"[ 	c #7D92A4",
"} 	c #7B90A2",
"| 	c #6F8497",
"1 	c #0A202C",
"2 	c #A9B86B",
"3 	c #BBCC77",
"4 	c #BBCB77",
"5 	c #BACB76",
"6 	c #B6C775",
"7 	c #B1C273",
"8 	c #A9BC6F",
"9 	c #A1B46B",
"0 	c #B8C695",
"a 	c #CFD7BA",
"b 	c #E5EADA",
"c 	c #EAEEE1",
"d 	c #FFFFFF",
"e 	c #EEF1E6",
"f 	c #EBEFE1",
"g 	c #E1E7CD",
"h 	c #BFCE89",
"i 	c #C1D079",
"j 	c #CAD97E",
"k 	c #CEDC80",
"l 	c #CFDD80",
"m 	c #C8D577",
"n 	c #75811A",
"o 	c #486076",
"p 	c #51708A",
"q 	c #385A79",
"r 	c #325574",
"s 	c #315472",
"t 	c #305271",
"u 	c #1C3750",
"v 	c #32442E",
"w 	c #9EB44A",
"x 	c #9DB449",
"y 	c #9CB349",
"z 	c #9BB249",
"A 	c #96AD47",
"B 	c #8EA544",
"C 	c #B8C691",
"D 	c #F2F5ED",
"E 	c #F6F7F3",
"F 	c #CBD4BB",
"G 	c #B6C29D",
"H 	c #A8B785",
"I 	c #97AA5F",
"J 	c #95AC46",
"K 	c #A9BF4D",
"L 	c #B5CA51",
"M 	c #BBD053",
"N 	c #BDD154",
"O 	c #BED254",
"P 	c #9DAD3A",
"Q 	c #646E14",
"R 	c #00172C",
"S 	c #53718D",
"T 	c #3B6080",
"U 	c #395E7D",
"V 	c #375B7A",
"W 	c #345775",
"X 	c #315371",
"Y 	c #415261",
"Z 	c #95A183",
"` 	c #C6D1A7",
" .	c #D0D9B7",
"..	c #CFD8B7",
"+.	c #BBC798",
"@.	c #97AB63",
"#.	c #8FA45C",
"$.	c #DEE4D1",
"%.	c #D7DDD0",
"&.	c #92A17E",
"*.	c #5E743F",
"=.	c #5A7139",
"-.	c #60773B",
";.	c #677F3F",
">.	c #778E44",
",.	c #8EA34E",
"'.	c #A5B957",
").	c #B6C85D",
"!.	c #BCCE61",
"~.	c #BFD061",
"{.	c #C1D262",
"].	c #C2D362",
"^.	c #C3D463",
"/.	c #C4D563",
"(.	c #87942D",
"_.	c #00162C",
":.	c #426884",
"<.	c #3D617D",
"[.	c #395D78",
"}.	c #4A6980",
"|.	c #A3B2BD",
"1.	c #F5F6F8",
"2.	c #F6F8F4",
"3.	c #EFF1EC",
"4.	c #8A9A7C",
"5.	c #4F6739",
"6.	c #536B3B",
"7.	c #586F3D",
"8.	c #5E7540",
"9.	c #647B42",
"0.	c #6C8345",
"a.	c #7C924C",
"b.	c #91A655",
"c.	c #A6BA5E",
"d.	c #B4C664",
"e.	c #BBCD67",
"f.	c #BED068",
"g.	c #C1D36A",
"h.	c #C3D46A",
"i.	c #C5D66B",
"j.	c #C6D76C",
"k.	c #C7D86C",
"l.	c #C3D468",
"m.	c #00162B",
"n.	c #3D627C",
"o.	c #527087",
"p.	c #B0BDC6",
"q.	c #FAFBFB",
"r.	c #E2E6DD",
"s.	c #DEE2D8",
"t.	c #DDE2D8",
"u.	c #E7EBE3",
"v.	c #DBE0D7",
"w.	c #586D45",
"x.	c #50673A",
"y.	c #59703D",
"z.	c #627A42",
"A.	c #6B8246",
"B.	c #748A4A",
"C.	c #7A904D",
"D.	c #81974F",
"E.	c #8AA054",
"F.	c #97AC59",
"G.	c #A2B75F",
"H.	c #ACBF63",
"I.	c #B1C565",
"J.	c #B7C967",
"K.	c #BDCF69",
"L.	c #C2D36C",
"M.	c #C5D76D",
"N.	c #C7D86E",
"O.	c #C8D96E",
"P.	c #B2C158",
"Q.	c #697314",
"R.	c #001529",
"S.	c #6C859A",
"T.	c #F3F5F6",
"U.	c #E1E5E8",
"V.	c #9DA9B4",
"W.	c #617484",
"X.	c #1D3040",
"Y.	c #17241C",
"Z.	c #526A38",
"`.	c #506838",
" +	c #4F6737",
".+	c #4E6636",
"++	c #556B3F",
"@+	c #8F9D81",
"#+	c #DDE1D9",
"$+	c #E0E4DE",
"%+	c #597046",
"&+	c #526A39",
"*+	c #5F763E",
"=+	c #6E8545",
"-+	c #7A914A",
";+	c #82994D",
">+	c #879D4F",
",+	c #889E4F",
"'+	c #8CA054",
")+	c #A2B474",
"!+	c #AFBE83",
"~+	c #BECB98",
"{+	c #CED9B1",
"]+	c #D7DFBC",
"^+	c #CDD8A6",
"/+	c #B6C86F",
"(+	c #B9CD64",
"_+	c #C2D467",
":+	c #C5D768",
"<+	c #C6D869",
"[+	c #A3B24C",
"}+	c #636E12",
"|+	c #001427",
"1+	c #8496A6",
"2+	c #3E566D",
"3+	c #203952",
"4+	c #1C354D",
"5+	c #1B344B",
"6+	c #122232",
"7+	c #263523",
"8+	c #5A7239",
"9+	c #5B7339",
"0+	c #5A7238",
"a+	c #576F37",
"b+	c #546B36",
"c+	c #4F6733",
"d+	c #4C6532",
"e+	c #576E3F",
"f+	c #556D36",
"g+	c #637B3C",
"h+	c #728942",
"i+	c #7F9647",
"j+	c #859C49",
"k+	c #8DA356",
"l+	c #B5C293",
"m+	c #E0E6D3",
"n+	c #E8ECDE",
"o+	c #B3C27E",
"p+	c #ACC158",
"q+	c #B9CE5E",
"r+	c #C1D461",
"s+	c #C3D661",
"t+	c #95A23D",
"u+	c #001325",
"v+	c #23405A",
"w+	c #1E3750",
"x+	c #1C344C",
"y+	c #1C364E",
"z+	c #112233",
"A+	c #3F502C",
"B+	c #72893C",
"C+	c #728A3C",
"D+	c #71893B",
"E+	c #6E853A",
"F+	c #688038",
"G+	c #617936",
"H+	c #5B7334",
"I+	c #5C7434",
"J+	c #647C37",
"K+	c #71893C",
"L+	c #7A933F",
"M+	c #8BA156",
"N+	c #D1D9BD",
"O+	c #FDFEFD",
"P+	c #F3F5F1",
"Q+	c #BEC7AE",
"R+	c #92A277",
"S+	c #6C8246",
"T+	c #869D43",
"U+	c #A0B54C",
"V+	c #B4C853",
"W+	c #BDD157",
"X+	c #BFD357",
"Y+	c #889630",
"Z+	c #001324",
"`+	c #213C57",
" @	c #1E3852",
".@	c #1D3851",
"+@	c #1F3B54",
"@@	c #213D57",
"#@	c #132537",
"$@	c #5D6F34",
"%@	c #8DA43E",
"&@	c #8DA53D",
"*@	c #8CA33D",
"=@	c #889F3C",
"-@	c #829A3B",
";@	c #789037",
">@	c #708834",
",@	c #6D8633",
"'@	c #708934",
")@	c #758E3A",
"!@	c #B3C194",
"~@	c #FAFBF8",
"{@	c #E8EBE3",
"]@	c #94A583",
"^@	c #566E33",
"/@	c #526A2B",
"(@	c #566F2C",
"_@	c #5A732D",
":@	c #617A30",
"<@	c #6F8834",
"[@	c #849B3A",
"}@	c #9DB443",
"|@	c #AFC548",
"1@	c #B9CE4C",
"2@	c #BBD04C",
"3@	c #808C28",
"4@	c #213E59",
"5@	c #203C57",
"6@	c #223E59",
"7@	c #223F5B",
"8@	c #102336",
"9@	c #708533",
"0@	c #94AD37",
"a@	c #92AA36",
"b@	c #8FA836",
"c@	c #8CA535",
"d@	c #89A234",
"e@	c #849D33",
"f@	c #7D9631",
"g@	c #768F2F",
"h@	c #708931",
"i@	c #CED6BB",
"j@	c #E6F1F6",
"k@	c #8A9B78",
"l@	c #486124",
"m@	c #4B6422",
"n@	c #516A24",
"o@	c #597227",
"p@	c #627B29",
"q@	c #6B832B",
"r@	c #738B2D",
"s@	c #809932",
"t@	c #90A836",
"u@	c #A3B93A",
"v@	c #AFC53E",
"w@	c #B4CA40",
"x@	c #B6CC40",
"y@	c #788520",
"z@	c #203E5A",
"A@	c #203D59",
"B@	c #203D58",
"C@	c #1F3B56",
"D@	c #0F2335",
"E@	c #667C2C",
"F@	c #849F2C",
"G@	c #96AC51",
"H@	c #A4B66B",
"I@	c #AFBF7F",
"J@	c #ABBC7A",
"K@	c #8EA44C",
"L@	c #738D28",
"M@	c #6A8426",
"N@	c #C6CFB1",
"O@	c #E7F6FF",
"P@	c #D0DCD9",
"Q@	c #5E7340",
"R@	c #465F1D",
"S@	c #50681F",
"T@	c #5B7422",
"U@	c #688126",
"V@	c #758E28",
"W@	c #7F982B",
"X@	c #8AA22D",
"Y@	c #91AA2F",
"Z@	c #99B231",
"`@	c #A1B933",
" #	c #AAC235",
".#	c #AEC636",
"+#	c #B2CA37",
"@#	c #76821F",
"##	c #001429",
"$#	c #1E3B57",
"%#	c #1C3955",
"&#	c #1B3751",
"*#	c #19344E",
"=#	c #30475D",
"-#	c #8B939B",
";#	c #E6E9E0",
">#	c #F6F7F2",
",#	c #DAE0CC",
"'#	c #DBEBF9",
")#	c #B8C7BB",
"!#	c #485F22",
"~#	c #486218",
"{#	c #56711B",
"]#	c #66801F",
"^#	c #779123",
"/#	c #869F26",
"(#	c #92AB28",
"_#	c #9AB42A",
":#	c #A1BA2B",
"<#	c #A5BE2C",
"[#	c #A9C22D",
"}#	c #ACC52D",
"|#	c #AEC72E",
"1#	c #AFC82E",
"2#	c #788420",
"3#	c #18344D",
"4#	c #163149",
"5#	c #4B5E70",
"6#	c #B9C0C7",
"7#	c #D4E8F8",
"8#	c #C1D0CA",
"9#	c #445D1B",
"0#	c #4A6315",
"a#	c #5B7518",
"b#	c #708A1C",
"c#	c #829D1F",
"d#	c #92AC21",
"e#	c #9CB524",
"f#	c #A3BD25",
"g#	c #A8C125",
"h#	c #ABC426",
"i#	c #ACC526",
"j#	c #7B8822",
"k#	c #001224",
"l#	c #243B51",
"m#	c #ABB3BB",
"n#	c #F6FFFF",
"o#	c #D5E8F8",
"p#	c #D7EAF9",
"q#	c #D9EBF9",
"r#	c #DAEBF9",
"s#	c #D9EAF9",
"t#	c #D6E9F8",
"u#	c #DFF4FF",
"v#	c #D2E7F8",
"w#	c #D9E8EF",
"x#	c #556C2D",
"y#	c #4A6410",
"z#	c #5D7612",
"A#	c #738D15",
"B#	c #88A217",
"C#	c #99B31A",
"D#	c #A2BC1B",
"E#	c #A7C11C",
"F#	c #A8C21C",
"G#	c #A9C31C",
"H#	c #828F24",
"I#	c #364350",
"J#	c #E6E8EA",
"K#	c #BAC9D5",
"L#	c #95A1AC",
"M#	c #818C87",
"N#	c #81936B",
"O#	c #5C733A",
"P#	c #485F1E",
"Q#	c #39520A",
"R#	c #566D32",
"S#	c #5E743D",
"T#	c #879A76",
"U#	c #C4D3CE",
"V#	c #E8F3FB",
"W#	c #86996E",
"X#	c #48640C",
"Y#	c #5B760E",
"Z#	c #738F10",
"`#	c #89A513",
" $	c #9AB614",
".$	c #A2BE15",
"+$	c #A5C115",
"@$	c #A6C215",
"#$	c #8C9D27",
"$$	c #57610A",
"%$	c #F3F4F4",
"&$	c #CBCFD2",
"*$	c #717D8A",
"=$	c #212E3E",
"-$	c #091828",
";$	c #101E2C",
">$	c #101B11",
",$	c #425C07",
"'$	c #435D07",
")$	c #455F07",
"!$	c #445E07",
"~$	c #435C07",
"{$	c #405907",
"]$	c #3F5907",
"^$	c #59712A",
"/$	c #496307",
"($	c #5A7508",
"_$	c #718D0A",
":$	c #86A30C",
"<$	c #98B40C",
"[$	c #A0BD0D",
"}$	c #A2BF0D",
"|$	c #A3C00D",
"1$	c #91A522",
"2$	c #566009",
"3$	c #FDFDFE",
"4$	c #CCCED1",
"5$	c #4E5B68",
"6$	c #081829",
"7$	c #08182A",
"8$	c #091A2B",
"9$	c #0A1B2C",
"0$	c #162637",
"a$	c #091415",
"b$	c #557105",
"c$	c #587305",
"d$	c #5B7705",
"e$	c #5A7505",
"f$	c #567205",
"g$	c #526E05",
"h$	c #4F6A05",
"i$	c #506C05",
"j$	c #5C7805",
"k$	c #6E8B06",
"l$	c #84A106",
"m$	c #94B207",
"n$	c #9EBB07",
"o$	c #A1BE07",
"p$	c #9CB31D",
"q$	c #576009",
"r$	c #EDF0F1",
"s$	c #8999A3",
"t$	c #000A17",
"u$	c #091A2C",
"v$	c #091A2D",
"w$	c #0A1D2F",
"x$	c #0B1F33",
"y$	c #0C2135",
"z$	c #182C40",
"A$	c #041222",
"B$	c #6A8503",
"C$	c #779402",
"D$	c #799702",
"E$	c #7A9802",
"F$	c #799602",
"G$	c #749102",
"H$	c #6D8A02",
"I$	c #688502",
"J$	c #698502",
"K$	c #739002",
"L$	c #83A102",
"M$	c #92B002",
"N$	c #9BB902",
"O$	c #9EBC02",
"P$	c #9FBD02",
"Q$	c #A3C010",
"R$	c #5B660B",
"S$	c #123247",
"T$	c #000B19",
"U$	c #0B1E32",
"V$	c #0C2035",
"W$	c #0D243A",
"X$	c #0F263E",
"Y$	c #102841",
"Z$	c #122A43",
"`$	c #192A3B",
" %	c #5B720D",
".%	c #8FAC00",
"+%	c #92B000",
"@%	c #90AE00",
"#%	c #8DAB00",
"$%	c #89A600",
"%%	c #85A300",
"&%	c #85A200",
"*%	c #8BA800",
"=%	c #93B100",
"-%	c #9AB700",
";%	c #9DBB00",
">%	c #9EBC00",
",%	c #9EBC01",
"'%	c #6E7B17",
")%	c #000E1C",
"!%	c #0E253B",
"~%	c #102840",
"{%	c #112A44",
"]%	c #122D46",
"^%	c #132E49",
"/%	c #132E4A",
"(%	c #2F4155",
"_%	c #36481A",
":%	c #9CBA00",
"<%	c #9BB900",
"[%	c #99B700",
"}%	c #97B400",
"|%	c #98B600",
"1%	c #869721",
"2%	c #4E5805",
"3%	c #000F21",
"4%	c #122B44",
"5%	c #132D48",
"6%	c #132F4A",
"7%	c #142F4B",
"8%	c #14304C",
"9%	c #354B61",
"0%	c #0F2021",
"a%	c #9AB800",
"b%	c #99B800",
"c%	c #9BB11E",
"d%	c #4E5704",
"e%	c #001124",
"f%	c #253F59",
"g%	c #0D1F33",
"h%	c #839D04",
"i%	c #9AB900",
"j%	c #95B300",
"k%	c #90AF00",
"l%	c #8FAE00",
"m%	c #8FAD00",
"n%	c #9FBD0E",
"o%	c #59640C",
"p%	c #001225",
"q%	c #304255",
"r%	c #3E5115",
"s%	c #97B500",
"t%	c #8CAC00",
"u%	c #88A700",
"v%	c #85A500",
"w%	c #84A300",
"x%	c #83A300",
"y%	c #83A200",
"z%	c #82A200",
"A%	c #92B100",
"B%	c #7B8A20",
"C%	c #001125",
"D%	c #364A60",
"E%	c #14241E",
"F%	c #8BAA00",
"G%	c #7D9C00",
"H%	c #799900",
"I%	c #789800",
"J%	c #779700",
"K%	c #769600",
"L%	c #759500",
"M%	c #739400",
"N%	c #90A61E",
"O%	c #464E01",
"P%	c #2A425C",
"Q%	c #0A1B2D",
"R%	c #8BA603",
"S%	c #D3E08B",
"T%	c #D3E18C",
"U%	c #CFDD85",
"V%	c #9AB711",
"W%	c #4E5906",
"X%	c #15314D",
"Y%	c #2A3B4D",
"Z%	c #4B5F10",
"`%	c #92B001",
" &	c #6E7C1B",
".&	c #001023",
"+&	c #2F4257",
"@&	c #26351A",
"#&	c #678800",
"$&	c #6B8C00",
"%&	c #709000",
"&&	c #698A00",
"*&	c #638500",
"=&	c #81941C",
"-&	c #3F4700",
";&	c #2F455C",
">&	c #0D1C1E",
",&	c #769700",
"'&	c #688900",
")&	c #6D8D00",
"!&	c #739300",
"~&	c #7A9B00",
"{&	c #7F9E00",
"]&	c #648500",
"^&	c #91AA18",
"/&	c #3E4600",
"(&	c #001022",
"_&	c #253E58",
":&	c #061627",
"<&	c #8DA902",
"[&	c #759600",
"}&	c #668700",
"|&	c #729300",
"1&	c #6A8B00",
"2&	c #628300",
"3&	c #9DBA0D",
"4&	c #434C04",
"5&	c #000F22",
"6&	c #16324E",
"7&	c #132336",
"8&	c #708808",
"9&	c #99B701",
"0&	c #515C0D",
"a&	c #173450",
"b&	c #1E2F41",
"c&	c #556911",
"d&	c #6E8E00",
"e&	c #5E8000",
"f&	c #5F6C13",
"g&	c #1A3854",
"h&	c #26384B",
"i&	c #3E4F15",
"j&	c #6B7916",
"k&	c #000E20",
"l&	c #1D3B58",
"m&	c #26384D",
"n&	c #354617",
"o&	c #6E7E15",
"p&	c #2F3700",
"q&	c #20405D",
"r&	c #2A3E52",
"s&	c #2C3C18",
"t&	c #91B003",
"u&	c #84A503",
"v&	c #779702",
"w&	c #D5E28D",
"x&	c #658702",
"y&	c #6A8B02",
"z&	c #709102",
"A&	c #789902",
"B&	c #7C9C02",
"C&	c #688A02",
"D&	c #608302",
"E&	c #9CBA03",
"F&	c #758617",
"G&	c #2E3600",
"H&	c #000E1F",
"I&	c #244462",
"J&	c #2A3E53",
"K&	c #2B3919",
"L&	c #95B406",
"M&	c #88A806",
"N&	c #7B9B06",
"O&	c #D6E48F",
"P&	c #6B8D05",
"Q&	c #709206",
"R&	c #779806",
"S&	c #80A006",
"T&	c #84A406",
"U&	c #6F9006",
"V&	c #668905",
"W&	c #A0BE07",
"X&	c #768817",
"Y&	c #2C3400",
"Z&	c #284967",
"`&	c #2A3F54",
" *	c #2D3B1A",
".*	c #99B80A",
"+*	c #8BAC0A",
"@*	c #7E9F09",
"#*	c #D8E691",
"$*	c #6D9009",
"%*	c #739509",
"&*	c #7A9C09",
"**	c #83A409",
"=*	c #88A80A",
"-*	c #729309",
";*	c #698C08",
">*	c #A4C20B",
",*	c #768717",
"'*	c #2B3100",
")*	c #000D1F",
"!*	c #2C4E6D",
"~*	c #293C52",
"{*	c #35431B",
"]*	c #9DBC0E",
"^*	c #90B00D",
"/*	c #82A30D",
"(*	c #DAE893",
"_*	c #72940C",
":*	c #77980C",
"<*	c #7E9F0C",
"[*	c #87A70D",
"}*	c #8AAB0D",
"|*	c #76970C",
"1*	c #6D900C",
"2*	c #A8C60E",
"3*	c #708018",
"4*	c #282F00",
"5*	c #000D1E",
"6*	c #305372",
"7*	c #273A4E",
"8*	c #414F1C",
"9*	c #A3C213",
"0*	c #96B612",
"a*	c #88AA11",
"b*	c #DCEA95",
"c*	c #759710",
"d*	c #789B10",
"e*	c #7EA011",
"f*	c #85A611",
"g*	c #779910",
"h*	c #709310",
"i*	c #ADCC13",
"j*	c #697818",
"k*	c #345777",
"l*	c #1F3144",
"m*	c #586821",
"n*	c #A9C818",
"o*	c #9EBE17",
"p*	c #90B116",
"q*	c #DFEC97",
"r*	c #B3D118",
"s*	c #596715",
"t*	c #385C7C",
"u*	c #152436",
"v*	c #7B8F24",
"w*	c #B1D01D",
"x*	c #A7C71C",
"y*	c #9BBC1B",
"z*	c #E0EE99",
"A*	c #E1EE9A",
"B*	c #B8D71D",
"C*	c #46500E",
"D*	c #000C1D",
"E*	c #3B6081",
"F*	c #3A5F80",
"G*	c #041122",
"H*	c #B0CB2B",
"I*	c #BBDA24",
"J*	c #B4D323",
"K*	c #ABCC22",
"L*	c #A0C221",
"M*	c #9ABB20",
"N*	c #95B720",
"O*	c #94B620",
"P*	c #93B61F",
"Q*	c #92B41F",
"R*	c #90B21F",
"S*	c #8EB11E",
"T*	c #99BB20",
"U*	c #BEDD24",
"V*	c #2B3303",
"W*	c #3E6485",
"X*	c #355775",
"Y*	c #08131B",
"Z*	c #C9E62F",
"`*	c #C6E52C",
" =	c #C2E12C",
".=	c #BCDB2B",
"+=	c #B4D42A",
"@=	c #AFD029",
"#=	c #ABCC29",
"$=	c #AACA29",
"%=	c #A8C928",
"&=	c #A9CA29",
"*=	c #A7C928",
"==	c #A7C828",
"-=	c #B0CB27",
";=	c #232900",
">=	c #3D6281",
",=	c #416787",
"'=	c #2F4A63",
")=	c #232E1F",
"!=	c #D2F035",
"~=	c #D1EF34",
"{=	c #CEED34",
"]=	c #CBE934",
"^=	c #C6E533",
"/=	c #C3E332",
"(=	c #C1E132",
"_=	c #BFDF32",
":=	c #BEDE32",
"<=	c #8FA327",
"[=	c #1F2500",
"}=	c #2D4961",
"|=	c #436A87",
"1=	c #223549",
"2=	c #59682D",
"3=	c #DAF83C",
"4=	c #D9F73C",
"5=	c #D8F73C",
"6=	c #D7F53B",
"7=	c #D6F43B",
"8=	c #D5F33B",
"9=	c #D4F33B",
"0=	c #D3F23B",
"a=	c #D3F13B",
"b=	c #64721D",
"c=	c #152637",
"d=	c #2B495F",
"e=	c #416781",
"f=	c #456D87",
"g=	c #436A83",
"h=	c #081523",
"i=	c #BDD448",
"j=	c #E0FE42",
"k=	c #D9F640",
"l=	c #2C3406",
"m=	c #000A19",
"n=	c #000B1C",
"o=	c #181E00",
"p=	c #1E2500",
"q=	c #1C2200",
"        . . . . . + @ @ # $ $ % & * = - ; > , ' ) ! ~ { - * ] ^ / / / / / / / / / / / / /       ",
"      @ ( _ : < [ } | 1 2 3 3 4 5 6 7 8 9 0 a b c d e f g h i j k l l l l l l l l l l m n       ",
"      + o p q r s t u v w x x y z A B C D d d d E F G H I J K L M N N N O O O O O O O P Q       ",
"      R S T U V W X Y Z `  ...+.@.#.$.d d d %.&.*.=.-.;.>.,.'.).!.~.{.].^././././././.(.        ",
"      _.:.<.[.}.|.1.d d d d d d d 2.d d 3.4.5.6.7.8.9.0.a.b.c.d.e.f.g.h.i.j.k.k.k.k.l.%         ",
"      m.n.o.p.q.d d d r.s.t.u.d d d d v.w.x.y.z.A.B.C.D.E.F.G.H.I.J.K.L.M.N.O.O.O.O.P.Q.        ",
"      R.S.T.U.V.W.X.Y.Z.`. +.+++@+#+$+%+&+*+=+-+;+>+,+'+)+!+~+{+]+^+/+(+_+:+<+<+<+<+[+}+        ",
"      |+1+2+3+4+5+6+7+8+9+0+a+b+c+d+e+f+g+h+i+j+k+l+m+d d d d d n+..o+p+q+r+s+s+s+s+t+          ",
"      u+v+w+x+x+y+z+A+B+C+D+E+F+G+H+I+J+K+L+M+N+O+d d d P+Q+R+S+J+B+T+U+V+W+X+X+X+X+Y+          ",
"      Z+`+ @.@+@@@#@$@%@&@*@=@-@;@>@,@'@)@!@~@d d d {@]@^@/@(@_@:@<@[@}@|@1@2@2@2@2@3@          ",
"      |+4@5@5@6@7@8@9@0@a@b@c@d@e@f@g@h@i@d d d j@k@l@m@n@o@p@q@r@s@t@u@v@w@x@x@x@x@y@          ",
"      R.7@z@A@B@C@D@E@F@G@H@I@J@K@L@M@N@d d O@P@Q@R@S@T@U@V@W@X@Y@Z@`@ #.#+#+#+#+#+#@#          ",
"      ##$#%#&#*#=#-#;#d d d d d d >#,#d d '#)#!#~#{#]#^#/#(#_#:#<#[#}#|#1#1#1#1#1#1#2#          ",
"      |+3#4#5#6#d d d d d d d d d d d d 7#8#9#0#a#b#c#d#e#f#g#h#h#i#i#i#i#i#i#i#i#i#j#          ",
"      k#l#m#d d d d n#o#p#q#r#s#t#u#d v#w#x#y#z#A#B#C#D#E#F#G#G#G#G#G#G#G#G#G#G#G#G#H#          ",
"      I#J#d d d K#L#M#N#O#P#Q#R#S#T#U#V#W#X#Y#Z#`# $.$+$@$@$@$@$@$@$@$@$@$@$@$@$@$@$#$$$        ",
"      %$d &$*$=$-$;$>$,$'$)$)$!$~${$]$^$/$($_$:$<$[$}$|$|$|$|$|$|$|$|$|$|$|$|$|$|$|$1$2$        ",
"    3$4$5$6$7$8$9$0$a$b$c$d$d$e$f$g$h$i$j$k$l$m$n$o$o$o$o$o$o$o$o$o$o$o$o$o$o$o$o$o$p$q$        ",
"  r$s$t$u$v$w$x$y$z$A$B$C$D$E$F$G$H$I$J$K$L$M$N$O$P$P$P$P$P$P$P$P$P$P$P$P$P$P$P$P$P$Q$R$        ",
"    S$T$U$V$W$X$Y$Z$`$ %.%+%+%@%#%$%%%&%*%=%-%;%>%>%>%>%>%>%>%>%>%>%>%>%>%>%>%>%>%>%,%'%        ",
"      )%!%~%{%]%^%/%(%_%:%;%;%;%<%[%}%}%|%:%;%>%>%>%>%>%>%>%>%>%>%>%>%>%>%>%>%>%>%>%>%1%2%      ",
"      3%4%5%6%7%8%8%9%0%>%>%>%;%;%:%<%[%a%b%[%[%[%[%[%[%[%[%[%[%[%[%[%[%[%[%b%a%a%<%:%c%d%      ",
"      e%6%8%8%8%8%8%f%g%h%>%;%:%i%|%j%+%k%l%m%m%m%m%m%m%m%m%m%m%m%m%m%m%m%m%l%k%+%j%|%n%o%      ",
"      p%8%8%8%8%8%8%8%q%r%>%;%i%s%+%t%u%v%w%x%w%w%w%x%y%z%z%z%z%y%x%w%w%w%x%w%v%u%t%A%s%B%      ",
"      C%8%8%8%8%8%8%8%D%E%>%:%|%+%F%z%G%H%I%J%H%H%H%J%K%L%M%M%L%K%J%H%H%H%J%I%H%G%y%F%A%N%O%    ",
"      e%8%8%8%8%8%8%8%P%Q%R%<%j%t%z%S%T%T%T%T%T%T%T%T%T%T%T%T%T%T%T%T%T%T%T%T%T%T%U%y%t%V%W%    ",
"      e%8%8%8%8%8%8%8%X%Y%Z%a%+%u%G%T%T%T%T%T%T%T%T%T%T%T%T%T%T%T%T%T%T%T%T%T%T%T%T%G%u%`% &    ",
"      .&8%8%8%8%8%8%8%8%+&@&a%k%v%H%T%T%#&$&%&K%H%K%%&&&*&T%T%*&&&%&K%H%K%%&$&#&T%T%H%v%k%=&-&  ",
"      .&8%8%8%8%8%8%8%8%;&>&b%l%w%,&T%T%'&)&!&~&{&~&!&$&]&T%T%]&$&!&~&{&~&!&)&'&T%T%J%w%l%^&/&  ",
"      (&8%8%8%8%8%8%8%8%_&:&<&m%y%[&T%T%}&$&|&~&{&~&|&1&2&T%T%2&1&|&~&{&~&|&$&}&T%T%[&y%m%3&4&  ",
"      5&X%X%X%X%X%X%X%X%6&7&8&m%y%[&T%T%}&$&|&~&{&~&|&1&2&T%T%2&1&|&~&{&~&|&$&}&T%T%[&y%m%9&0&  ",
"      3%a&a&a&a&a&a&a&a&a&b&c&m%z%L%T%T%*&'&d&[&H%[&d&}&e&T%T%e&}&d&[&H%[&d&'&*&T%T%L%z%m%[%f&  ",
"      3%g&g&g&g&g&g&g&g&g&h&i&m%z%M%T%T%T%T%T%T%T%T%T%T%T%T%T%T%T%T%T%T%T%T%T%T%T%T%M%z%m%[%j&  ",
"      k&l&l&l&l&l&l&l&l&l&m&n&m%z%M%T%T%T%T%T%T%T%T%T%T%T%T%T%T%T%T%T%T%T%T%T%T%T%T%M%z%m%[%o&p&",
"      k&q&q&q&q&q&q&q&q&q&r&s&t&u&v&w&w&x&y&z&A&B&A&z&C&D&w&w&D&C&z&A&B&A&z&y&x&w&w&v&u&t&E&F&G&",
"      H&I&I&I&I&I&I&I&I&I&J&K&L&M&N&O&O&P&Q&R&S&T&S&R&U&V&O&O&V&U&R&S&T&S&R&Q&P&O&O&N&M&L&W&X&Y&",
"      H&Z&Z&Z&Z&Z&Z&Z&Z&Z&`& *.*+*@*#*#*$*%*&***=***&*-*;*#*#*;*-*&***=***&*%*$*#*#*@*+*.*>*,*'*",
"      )*!*!*!*!*!*!*!*!*!*~*{*]*^*/*(*(*_*:*<*[*}*[*<*|*1*(*(*1*|*<*[*}*[*<*:*_*(*(*/*^*]*2*3*4*",
"      5*6*6*6*6*6*6*6*6*6*7*8*9*0*a*b*b*c*d*e*f*a*f*e*g*h*b*b*h*g*e*f*a*f*e*d*c*b*b*a*0*9*i*j*  ",
"      5*k*k*k*k*k*k*k*k*k*l*m*n*o*p*q*q*q*q*q*q*q*q*q*q*q*q*q*q*q*q*q*q*q*q*q*q*q*q*p*o*n*r*s*  ",
"      5*t*t*t*t*t*t*t*t*t*u*v*w*x*y*z*A*A*A*A*A*A*A*A*A*A*A*A*A*A*A*A*A*A*A*A*A*A*A*y*x*w*B*C*  ",
"      D*E*E*E*E*E*E*E*E*F*G*H*I*J*K*L*M*N*O*P*N*N*N*P*Q*R*S*S*R*Q*P*N*N*N*P*O*N*T*L*K*J*I*U*V*  ",
"      D*W*W*W*W*W*W*W*W*X*Y*Z*`* =.=+=@=#=$=%=&=$=&=%=%=*=====*=%=%=&=$=&=%=$=#=@=+=.= =`*-=;=  ",
"      D*>=,=,=,=,=,=,=,='=)=!=~={=]=^=/=(=_=:=:=:=:=:=:=:=:=:=:=:=:=:=:=:=:=_=(=/=^=]={=~=<=[=  ",
"      D*}=|=|=|=|=|=|=|=1=2=3=4=5=6=7=8=9=0=a=a=a=a=a=a=a=a=a=a=a=a=a=a=a=a=0=9=8=7=6=5=4=b=    ",
"      T$c=d=e=f=f=f=f=g=h=i=j=j=j=j=j=j=j=j=j=j=j=j=j=j=j=j=j=j=j=j=j=j=j=j=j=j=j=j=j=j=k=l=    ",
"        m=n=n=n=n=n=n=n=o=p=p=p=p=p=p=p=p=p=p=p=p=p=p=p=p=p=p=p=p=p=p=p=p=p=p=p=p=p=p=p=p=q=    ",
"                                                                                                "};
