/* XPM */
static char * pgadmin3_xpm[] = {
"48 50 124 2",
"  	c None",
". 	c #336791",
"+ 	c #336892",
"@ 	c #336690",
"# 	c #2F5F85",
"$ 	c #2C597E",
"% 	c #2B567A",
"& 	c #2B5679",
"* 	c #2C587C",
"= 	c #2D5B80",
"- 	c #2F5F86",
"; 	c #32648D",
"> 	c #336792",
", 	c #2D5C81",
"' 	c #2A5477",
") 	c #275070",
"! 	c #285071",
"~ 	c #2B5578",
"{ 	c #2D5A7F",
"] 	c #306087",
"^ 	c #32658E",
"/ 	c #224560",
"( 	c #295375",
"_ 	c #2E5D84",
": 	c #33668F",
"< 	c #326690",
"[ 	c #2A5578",
"} 	c #2F5E84",
"| 	c #346994",
"1 	c #274E6E",
"2 	c #2B577A",
"3 	c #336790",
"4 	c #31638B",
"5 	c #306088",
"6 	c #244967",
"7 	c #336891",
"8 	c #1A344A",
"9 	c #32658F",
"0 	c #2E5C81",
"a 	c #346892",
"b 	c #254B69",
"c 	c #1F3F59",
"d 	c #306188",
"e 	c #2F6086",
"f 	c #32658D",
"g 	c #295273",
"h 	c #2E5D83",
"i 	c #346893",
"j 	c #21445F",
"k 	c #1F3E58",
"l 	c #264D6C",
"m 	c #1A354A",
"n 	c #2D5B7F",
"o 	c #274F6E",
"p 	c #31648D",
"q 	c #244865",
"r 	c #2F6087",
"s 	c #2C597D",
"t 	c #346993",
"u 	c #1D394F",
"v 	c #2F5E85",
"w 	c #32668F",
"x 	c #2D5C82",
"y 	c #346891",
"z 	c #2C587D",
"A 	c #274F70",
"B 	c #193146",
"C 	c #274E6D",
"D 	c #264C6B",
"E 	c #295274",
"F 	c #346792",
"G 	c #21435E",
"H 	c #2E5C82",
"I 	c #31638C",
"J 	c #20425D",
"K 	c #2E5D82",
"L 	c #1E3C54",
"M 	c #285172",
"N 	c #2C5A7F",
"O 	c #285170",
"P 	c #1F3E57",
"Q 	c #234763",
"R 	c #31628A",
"S 	c #1D3B53",
"T 	c #224561",
"U 	c #264E6F",
"V 	c #234764",
"W 	c #2A5579",
"X 	c #264D6E",
"Y 	c #2F5F87",
"Z 	c #234662",
"` 	c #30628A",
" .	c #31628B",
"..	c #284F70",
"+.	c #2B587C",
"@.	c #2E5E83",
"#.	c #254B6A",
"$.	c #2B577B",
"%.	c #336691",
"&.	c #254968",
"*.	c #20415B",
"=.	c #306086",
"-.	c #31618A",
";.	c #2E5E84",
">.	c #264E6D",
",.	c #254A67",
"'.	c #2A5376",
").	c #295476",
"!.	c #2D5A7E",
"~.	c #295477",
"{.	c #306189",
"].	c #1A3449",
"^.	c #264D6D",
"/.	c #21435F",
"(.	c #31658E",
"_.	c #274F6F",
":.	c #31648C",
"<.	c #2D5A80",
"[.	c #20425C",
"}.	c #1D3C54",
"|.	c #224662",
"1.	c #274E6F",
"2.	c #306289",
"3.	c #21425D",
"                                                                                                ",
"                                                              . . . . . . .                     ",
"              . . . . . . . . . .         . . . . . . . . . . . . . . . . . . . .               ",
"          . + @ # $ % & * = - ; + > . . + ; , ' ) ! ~ { ] . + ^ /           ( _ : > <           ",
"        . + [                     } + | 1                   2 > 3 4               5 + @         ",
"      . . 6                       7 @ 8                         ; . 9               0 . @       ",
"    . a b                       . . c                             - > ^               ] . d     ",
"    . d                         + 0                                 e + 4               f a     ",
"    . g                       . +                                     ; + h               i j   ",
"  . . k                       + &                                       . <               i l   ",
"  . .                       . + m                                         > n             a o   ",
"  . .                       . p                                           . >             i q   ",
"  . .                       . r                                             + s           t u   ",
"  . .                       . v   a . > . .                         . > + + . :         . t     ",
"  . .                       . w @ t 9 x d > <                     . y z A A ; @         . f     ",
"  . .                       . . - B   C D x . E                 . F G + i   ^ p         . H     ",
"    . l                     . =       . I J i *                 . v   K L   + H         . M     ",
"    . &                     . N             7 ]                 . #         i O       . 3 P     ",
"    . ,                     . H             . :                 . @         i Q       . :       ",
"    . R                     . ,             . t                   t S       i T       + K       ",
"    . +                     . N             . |                   > r       i U     . t m       ",
"      i V                   . W             . |                   . .       + z     . 4         ",
"      + h                   > X             . >                     . {     > Y     + Z         ",
"      . i                   + q             . `                     . ^     .  .  . ;           ",
"        + V                 > ..            . &                       + =   + ` c . +.          ",
"        . @.                . }           . . c                       . + #.+ { h i             ",
"        . I                 . ^           . ;                           . w + = | g             ",
"        . .                   . I         + (                           . . 3 @ I               ",
"          > $.                ^ . %.    . t                               . . . &.              ",
"          . @                   . | i + . . $.                            @ . 3 *.      . .     ",
"            + s               . :   l =.> . . >                         . . > . . . . . . . -.  ",
"            . .             . ^       ;.+ 1 L + -                       > *   >.+.* * =.. a ,.  ",
"              . v         . i *.b f > i {     . .                       + '.      ).# 9 i 1     ",
"              3 + !.    . . = + > w ^ ~.    a . w                       . + + . > . w {.].      ",
"                9 + @ . i l x + ^ ( S   ).. + + 9                     . + E E E ^./.            ",
"                  H a < /     %.> 3 @ . . t * {.(.                    . t                       ",
"                                D $.= s _.    :.;                     . i                       ",
"                                              . 9                     > 4                       ",
"                                              . 3                     + <.                      ",
"                                              . +                     + A                       ",
"                                              . +                     i [.                      ",
"                                              . +                     t                         ",
"                                              . +                   . 3                         ",
"                                              . >                   . {.                        ",
"                                                . E                 . z                         ",
"                                                . `               . . }.                        ",
"                                                . + e           . > $.                          ",
"                                                  :.+ . . . + t @ |.                            ",
"                                                    1.2.. @ K 3.                                ",
"                                                                                                "};
