/* XPM */
static char * pidgin_xpm[] = {
"48 48 667 2",
"  	c None",
". 	c #77A3D1",
"+ 	c #7AA5D1",
"@ 	c #73A0CF",
"# 	c #729FCF",
"$ 	c #719ECE",
"% 	c #709DCC",
"& 	c #6F9CCB",
"* 	c #6E9BCA",
"= 	c #6D99C9",
"- 	c #6C98C8",
"; 	c #6B97C6",
"> 	c #6A96C5",
", 	c #6995C4",
"' 	c #6894C3",
") 	c #6793C1",
"! 	c #6692C0",
"~ 	c #6591BF",
"{ 	c #6591BE",
"] 	c #6C95BF",
"^ 	c #6891BD",
"/ 	c #7CA6D1",
"( 	c #D7E3EF",
"_ 	c #F7F9FB",
": 	c #FFFFFF",
"< 	c #F6F8FA",
"[ 	c #D2DDE9",
"} 	c #6B92BC",
"| 	c #8AAFD7",
"1 	c #F8FAFB",
"2 	c #FEFEFE",
"3 	c #F7F9FA",
"4 	c #7A9CC1",
"5 	c #78A4D1",
"6 	c #F5F7FA",
"7 	c #F3F6F8",
"8 	c #628AB3",
"9 	c #B7CDE4",
"0 	c #FDFDFE",
"a 	c #AABED5",
"b 	c #7BA5D2",
"c 	c #EEF3F7",
"d 	c #FCFDFE",
"e 	c #FBFCFD",
"f 	c #ECF0F4",
"g 	c #6086AF",
"h 	c #3A1941",
"i 	c #3C1941",
"j 	c #5E5B89",
"k 	c #D4CAD8",
"l 	c #F8FAFC",
"m 	c #F9FBFD",
"n 	c #FAFAFC",
"o 	c #5C82AC",
"p 	c #4B1F51",
"q 	c #562660",
"r 	c #632A6D",
"s 	c #94649C",
"t 	c #E7E0ED",
"u 	c #F6F8FC",
"v 	c #527BA5",
"w 	c #401B47",
"x 	c #4D2055",
"y 	c #5A2664",
"z 	c #672C72",
"A 	c #6D64A0",
"B 	c #72317D",
"C 	c #7F368B",
"D 	c #90459E",
"E 	c #DDCAE6",
"F 	c #F3F7FB",
"G 	c #4F78A3",
"H 	c #662B71",
"I 	c #62296C",
"J 	c #582662",
"K 	c #4A2451",
"L 	c #3D1B44",
"M 	c #4E2656",
"N 	c #6C4075",
"O 	c #A699AE",
"P 	c #CBC7D4",
"Q 	c #EDF0F6",
"R 	c #F1F5FA",
"S 	c #4D75A0",
"T 	c #401E46",
"U 	c #5D3A64",
"V 	c #7D5B84",
"W 	c #9979A1",
"X 	c #B395BB",
"Y 	c #BEA0C5",
"Z 	c #AA89B2",
"` 	c #8F6C98",
" .	c #75537D",
"..	c #56355D",
"+.	c #4F3056",
"@.	c #C4C0CE",
"#.	c #EEF3F9",
"$.	c #4B739E",
"%.	c #3F1B45",
"&.	c #5B3861",
"*.	c #B292B9",
"=.	c #B895C0",
"-.	c #AF88B8",
";.	c #A77EB2",
">.	c #A073AA",
",.	c #9B6DA7",
"'.	c #A47AAE",
").	c #AD86B6",
"!.	c #B591BD",
"~.	c #BE9EC5",
"{.	c #9873A0",
"].	c #4A2750",
"^.	c #897792",
"/.	c #E7ECF4",
"(.	c #ECF2F9",
"_.	c #49719B",
":.	c #401D46",
"<.	c #88648F",
"[.	c #BC9CC3",
"}.	c #A378AE",
"|.	c #9665A2",
"1.	c #9867A4",
"2.	c #9969A4",
"3.	c #9A6BA6",
"4.	c #9B6CA6",
"5.	c #9C6EA7",
"6.	c #9D6FA8",
"7.	c #9E71A9",
"8.	c #B38FBC",
"9.	c #B797BE",
"0.	c #694671",
"a.	c #53355A",
"b.	c #CECEDB",
"c.	c #E9F0F8",
"d.	c #476F99",
"e.	c #43214A",
"f.	c #AD8CB5",
"g.	c #B490BC",
"h.	c #9868A4",
"i.	c #9766A3",
"j.	c #9969A3",
"k.	c #9D6FA9",
"l.	c #9E71A8",
"m.	c #9F72A9",
"n.	c #9F72AA",
"o.	c #A073AB",
"p.	c #A981B3",
"q.	c #886290",
"r.	c #56385E",
"s.	c #E4EAF3",
"t.	c #E7EEF7",
"u.	c #456D96",
"v.	c #93709B",
"w.	c #B08AB9",
"x.	c #9563A1",
"y.	c #9766A2",
"z.	c #9F73AA",
"A.	c #A175AB",
"B.	c #A277AC",
"C.	c #A378AC",
"D.	c #A378AD",
"E.	c #A277AD",
"F.	c #A175AC",
"G.	c #67446F",
"H.	c #8F829B",
"I.	c #E4EDF6",
"J.	c #436A94",
"K.	c #603D67",
"L.	c #BD9DC4",
"M.	c #9867A3",
"N.	c #9E70A8",
"O.	c #A379AE",
"P.	c #A47AAF",
"Q.	c #A67CAF",
"R.	c #A67CB0",
"S.	c #A57BB0",
"T.	c #AD85B6",
"U.	c #B596BD",
"V.	c #492850",
"W.	c #C5C7D6",
"X.	c #E2EBF5",
"Y.	c #416891",
"Z.	c #B393BA",
"`.	c #9564A1",
" +	c #855490",
".+	c #7A4A85",
"++	c #794985",
"@+	c #865792",
"#+	c #9D71A7",
"$+	c #A77DB0",
"%+	c #A980B1",
"&+	c #A980B2",
"*+	c #A87FB1",
"=+	c #9B71A5",
"-+	c #7B4F85",
";+	c #704379",
">+	c #71457A",
",+	c #643D6D",
"'+	c #D9E0EF",
")+	c #DFE9F5",
"!+	c #3F668F",
"~+	c #7A5582",
"{+	c #9462A0",
"]+	c #7E4C89",
"^+	c #A484AC",
"/+	c #E6DDE8",
"(+	c #E9E1EB",
"_+	c #B79EBD",
":+	c #7B4B86",
"<+	c #9B70A6",
"[+	c #AA82B3",
"}+	c #AC84B4",
"|+	c #AC85B4",
"1+	c #AC85B5",
"2+	c #AC84B5",
"3+	c #A279AB",
"4+	c #794C84",
"5+	c #AF95B5",
"6+	c #E9E2EA",
"7+	c #EAE3EB",
"8+	c #A68BAC",
"9+	c #785283",
"0+	c #D8E1EE",
"a+	c #DDE8F4",
"b+	c #3D648C",
"c+	c #401C46",
"d+	c #9E7CA7",
"e+	c #8A5A97",
"f+	c #936C9C",
"g+	c #D8C9DC",
"h+	c #814E8D",
"i+	c #A77FB1",
"j+	c #AC86B5",
"k+	c #AE88B7",
"l+	c #AF8AB8",
"m+	c #AF89B8",
"n+	c #8C5C96",
"o+	c #C5AEC9",
"p+	c #926E9A",
"q+	c #A391B4",
"r+	c #DBE6F3",
"s+	c #3C628A",
"t+	c #3D1A44",
"u+	c #B899BF",
"v+	c #834F8F",
"w+	c #C2A9C7",
"x+	c #DECDE3",
"y+	c #975DA5",
"z+	c #D4BDDA",
"A+	c #BDA1C4",
"B+	c #93629F",
"C+	c #B18DBA",
"D+	c #B28EBB",
"E+	c #B490BB",
"F+	c #B38FBA",
"G+	c #B28DBA",
"H+	c #895495",
"I+	c #F0EAF2",
"J+	c #D5BEDB",
"K+	c #854296",
"L+	c #CFB4D6",
"M+	c #C7B2CC",
"N+	c #8A6398",
"O+	c #D8E4F2",
"P+	c #3A5F88",
"Q+	c #3C1A43",
"R+	c #834E90",
"S+	c #E8DEEB",
"T+	c #8E509E",
"U+	c #AD82B9",
"V+	c #7C348D",
"W+	c #F3EDF4",
"X+	c #8D559A",
"Y+	c #B28DBB",
"Z+	c #B491BD",
"`+	c #B593BE",
" @	c #B794BF",
".@	c #B693BE",
"+@	c #B592BD",
"@@	c #91579D",
"#@	c #EDE3EE",
"$@	c #8A4A9B",
"%@	c #A176AC",
"&@	c #813C93",
"*@	c #F2EDF3",
"=@	c #835090",
"-@	c #D6E3F2",
";@	c #D9E5F3",
">@	c #3E6289",
",@	c #3B1941",
"'@	c #C1A4C8",
")@	c #8B5298",
"!@	c #F2EBF3",
"~@	c #803A92",
"{@	c #5B3465",
"]@	c #702484",
"^@	c #FCFAFC",
"/@	c #965CA2",
"(@	c #B38EBC",
"_@	c #B896BF",
":@	c #B897C0",
"<@	c #BA99C2",
"[@	c #B998C1",
"}@	c #A06BAC",
"|@	c #C19EC9",
"1@	c #823D93",
"2@	c #482252",
"3@	c #79308C",
"4@	c #8F5C9D",
"5@	c #D3E1F1",
"6@	c #DAE6F3",
"7@	c #F8F9FB",
"8@	c #416489",
"9@	c #935A9F",
"0@	c #DBC7DF",
"a@	c #BD9AC7",
"b@	c #6E1E82",
"c@	c #AD80B9",
"d@	c #EDE2EF",
"e@	c #9D63A9",
"f@	c #B795BF",
"g@	c #B999C1",
"h@	c #BC9DC3",
"i@	c #BD9EC5",
"j@	c #BB9AC3",
"k@	c #B18ABA",
"l@	c #9F64AC",
"m@	c #BA93C4",
"n@	c #B790C1",
"o@	c #DBC7E0",
"p@	c #A177B3",
"q@	c #E8EBF0",
"r@	c #426488",
"s@	c #3C1942",
"t@	c #BFA2C7",
"u@	c #9965A6",
"v@	c #A874B4",
"w@	c #FCFAFD",
"x@	c #F8F4F9",
"y@	c #B586BF",
"z@	c #A979B3",
"A@	c #B896C0",
"B@	c #BC9CC2",
"C@	c #BE9FC5",
"D@	c #B799BE",
"E@	c #BFA1C7",
"F@	c #A977B4",
"G@	c #A064AD",
"H@	c #CCADD3",
"I@	c #FBF9FC",
"J@	c #EBDFEE",
"K@	c #A771B4",
"L@	c #C3BCDD",
"M@	c #F5F8FB",
"N@	c #9BAEC0",
"O@	c #3C1A42",
"P@	c #BEA0C6",
"Q@	c #9A6AA5",
"R@	c #9B63A8",
"S@	c #AF7EBA",
"T@	c #E9DBEC",
"U@	c #FAF7FB",
"V@	c #D8BFDD",
"W@	c #AB77B7",
"X@	c #A169AD",
"Y@	c #B796BF",
"Z@	c #BC9CC4",
"`@	c #926F96",
" #	c #B97344",
".#	c #8C627F",
"+#	c #AC7FB5",
"@#	c #9F65AC",
"##	c #9B5EA9",
"$#	c #985DA5",
"%#	c #7E5D8D",
"&#	c #D5E2F1",
"*#	c #DCE7F4",
"=#	c #EFF3F9",
"-#	c #EEF2F5",
";#	c #3E5F84",
">#	c #3D1A43",
",#	c #BC9EC4",
"'#	c #9D69AA",
")#	c #9B60A9",
"!#	c #9A5BA8",
"~#	c #9C61AA",
"{#	c #A574B1",
"]#	c #B28CBA",
"^#	c #B08EB9",
"/#	c #C5B5C8",
"(#	c #E1DAE3",
"_#	c #F0C797",
":#	c #EB9533",
"<#	c #D48245",
"[#	c #C8BACB",
"}#	c #AB89B4",
"|#	c #B390BC",
"1#	c #BA9AC2",
"2#	c #6E4C75",
"3#	c #BFB4C1",
"4#	c #FEFEFF",
"5#	c #EAF0F7",
"6#	c #D4E2F1",
"7#	c #F7F9FC",
"8#	c #F4F6F9",
"9#	c #D5DCE3",
"0#	c #416286",
"a#	c #BB9CC2",
"b#	c #9B6CA5",
"c#	c #9D70A8",
"d#	c #A074AB",
"e#	c #A278AB",
"f#	c #96656A",
"g#	c #8F6589",
"h#	c #A17CAA",
"i#	c #A27DAA",
"j#	c #DBD2DD",
"k#	c #FEEBCE",
"l#	c #FDB853",
"m#	c #EC9734",
"n#	c #CF5E02",
"o#	c #EEC5A5",
"p#	c #E2DBE4",
"q#	c #8E6A97",
"r#	c #845D87",
"s#	c #8E4942",
"t#	c #44244C",
"u#	c #3D6189",
"v#	c #3C628B",
"w#	c #3B618A",
"x#	c #3A6088",
"y#	c #3A5F87",
"z#	c #395E86",
"A#	c #4B6C90",
"B#	c #EEF1F3",
"C#	c #33587F",
"D#	c #32577D",
"E#	c #32567D",
"F#	c #3C5E82",
"G#	c #36597E",
"H#	c #3E1A44",
"I#	c #B99AC0",
"J#	c #9B6CA7",
"K#	c #9A6BA5",
"L#	c #A47CAF",
"M#	c #825670",
"N#	c #F0AC52",
"O#	c #CD9057",
"P#	c #BB825D",
"Q#	c #D09257",
"R#	c #FCB651",
"S#	c #DB983E",
"T#	c #ED9936",
"U#	c #D06004",
"V#	c #B75101",
"W#	c #AC5120",
"X#	c #A54E25",
"Y#	c #C3580A",
"Z#	c #A14F2C",
"`#	c #B194B8",
" $	c #3F1C46",
".$	c #517192",
"+$	c #FAFBFD",
"@$	c #869AB1",
"#$	c #3E1B44",
"$$	c #B798BE",
"%$	c #9E75A6",
"&$	c #9D6A5F",
"*$	c #FDB751",
"=$	c #F2AD4B",
"-$	c #EE9B38",
";$	c #D16206",
">$	c #C25600",
",$	c #CE5C00",
"'$	c #CD5C01",
")$	c #905C70",
"!$	c #9B7CA2",
"~$	c #8CA0B6",
"{$	c #F6F9FC",
"]$	c #EDF3F9",
"^$	c #ECF0F3",
"/$	c #395C81",
"($	c #3E1B45",
"_$	c #B595BC",
":$	c #9868A3",
"<$	c #A77EB0",
"[$	c #8A6294",
"}$	c #A36E5D",
"|$	c #FAB451",
"1$	c #EF9D3A",
"2$	c #D26407",
"3$	c #994D37",
"4$	c #B18FBA",
"5$	c #7D5E84",
"6$	c #3F6186",
"7$	c #DBE1E7",
"8$	c #FBFCFE",
"9$	c #456687",
"0$	c #A57BAF",
"a$	c #A87EB0",
"b$	c #92699C",
"c$	c #835566",
"d$	c #E8A654",
"e$	c #F19F3C",
"f$	c #D36609",
"g$	c #AD511F",
"h$	c #946C9B",
"i$	c #B997C1",
"j$	c #624368",
"k$	c #385B81",
"l$	c #E8ECEF",
"m$	c #BFC9D5",
"n$	c #456486",
"o$	c #58375E",
"p$	c #925F9F",
"q$	c #9664A1",
"r$	c #A078A9",
"s$	c #744D78",
"t$	c #9D6A5D",
"u$	c #E7A554",
"v$	c #F2A13E",
"w$	c #D4680B",
"x$	c #A84F22",
"y$	c #8D6492",
"z$	c #57385D",
"A$	c #31547C",
"B$	c #35577D",
"C$	c #4C6A8C",
"D$	c #7E5C85",
"E$	c #925E9E",
"F$	c #9A6AA4",
"G$	c #A67DB0",
"H$	c #A87FB2",
"I$	c #976FA1",
"J$	c #7A5181",
"K$	c #925D5A",
"L$	c #BE611E",
"M$	c #A34E28",
"N$	c #8C6394",
"O$	c #4E2E54",
"P$	c #9F7FA6",
"Q$	c #9E70A9",
"R$	c #8F5B9C",
"S$	c #9563A0",
"T$	c #855D8F",
"U$	c #8B6295",
"V$	c #4B2B51",
"W$	c #B89BBF",
"X$	c #905B9D",
"Y$	c #8E599A",
"Z$	c #915D9D",
"`$	c #9360A0",
" %	c #76567D",
".%	c #62396A",
"+%	c #A36DB0",
"@%	c #8A5297",
"#%	c #8D579A",
"$%	c #905B9C",
"%%	c #915D9E",
"&%	c #93609F",
"*%	c #A77EB1",
"=%	c #A687AD",
"-%	c #3F1B46",
";%	c #8A4F98",
">%	c #8D469D",
",%	c #884F95",
"'%	c #8A5398",
")%	c #87608F",
"!%	c #461F4F",
"~%	c #924CA2",
"{%	c #823394",
"]%	c #844093",
"^%	c #895197",
"/%	c #8B5498",
"(%	c #9664A2",
"_%	c #9B72A5",
":%	c #4F2758",
"<%	c #713C7D",
"[%	c #8A449B",
"}%	c #7D308F",
"|%	c #7F3491",
"1%	c #874C95",
"2%	c #8F5A9B",
"3%	c #986AA2",
"4%	c #865793",
"5%	c #764780",
"6%	c #421D49",
"7%	c #834D8F",
"8%	c #803E91",
"9%	c #7B358C",
"0%	c #7C378D",
"a%	c #7F3B90",
"b%	c #874E95",
"c%	c #885096",
"d%	c #8B5398",
"e%	c #905C9D",
"f%	c #925F9E",
"g%	c #935F9F",
"h%	c #9461A0",
"i%	c #9562A1",
"j%	c #93619F",
"k%	c #854E91",
"l%	c #7B4687",
"m%	c #814F8D",
"n%	c #82508D",
"o%	c #5E3066",
"p%	c #47214F",
"q%	c #854F91",
"r%	c #7F408E",
"s%	c #7A3989",
"t%	c #7C3C8B",
"u%	c #7D3E8C",
"v%	c #82458F",
"w%	c #885498",
"x%	c #8A5698",
"y%	c #8C5999",
"z%	c #8E5C9B",
"A%	c #905F9D",
"B%	c #92619D",
"C%	c #9363A0",
"D%	c #9464A0",
"E%	c #9566A1",
"F%	c #9667A2",
"G%	c #9668A2",
"H%	c #9465A0",
"I%	c #9565A1",
"J%	c #9564A0",
"K%	c #92619E",
"L%	c #91609D",
"M%	c #905E9D",
"N%	c #834F90",
"O%	c #7E498A",
"P%	c #7E488A",
"Q%	c #83508E",
"R%	c #70427C",
"S%	c #46204D",
"T%	c #492351",
"U%	c #83518F",
"V%	c #80488E",
"W%	c #7A3F88",
"X%	c #7C418A",
"Y%	c #7D438A",
"Z%	c #7F478C",
"`%	c #854F92",
" &	c #8D5C99",
".&	c #8F5F9B",
"+&	c #91629D",
"@&	c #9466A0",
"#&	c #9568A0",
"$&	c #976AA2",
"%&	c #996DA4",
"&&	c #996EA4",
"*&	c #9A6FA4",
"=&	c #9A70A3",
"-&	c #9C72A5",
";&	c #9A6FA3",
">&	c #9A6EA3",
",&	c #976BA2",
"'&	c #9669A1",
")&	c #9567A0",
"!&	c #91629A",
"~&	c #875791",
"{&	c #845491",
"]&	c #82508E",
"^&	c #804D8C",
"/&	c #8B5C96",
"(&	c #6B3E73",
"                                                                                                ",
"                                    . + @ # # # # # # $ % & * = - ; > , ' ) ! ~ { ] ^           ",
"                                  / ( _ : : : : : : : : : : : : : : : : : : : : : < [ }         ",
"                                | 1 2 : : : : : : : : : : : : : : : : : : : : : : : 2 3 4       ",
"                              5 6 : : : : : : : : : : : : : : : : : : : : : : : : : : : 7 8     ",
"                              9 2 0 0 0 0 0 0 0 0 0 0 0 0 0 0 0 0 0 0 0 0 0 0 0 0 0 0 0 2 a     ",
"                            b c d e e e e e e e e e e e e e e e e e e e e e e e e e e e d f g   ",
"                        h i j k l l l l l l l l l l l l l l l l l l l l l l l l l l l l m n o   ",
"                          p q r s t u u u u u u u u u u u u u u u u u u u u u u u u u u u : v   ",
"                    w x y z A B C D E F F F F F F F F F F F F F F F F F F F F F F F F F F : G   ",
"                        H I J K L M N O P Q R R R R R R R R R R R R R R R R R R R R R R R : S   ",
"                      T U V W X Y Z `  ...+.@.#.#.#.#.#.#.#.#.#.#.#.#.#.#.#.#.#.#.#.#.#.#.: $.  ",
"                  %.&.*.=.-.;.>.,.'.).!.~.{.].^./.(.(.(.(.(.(.(.(.(.(.(.(.(.(.(.(.(.(.(.(.: _.  ",
"                :.<.[.}.|.1.2.3.4.,.5.6.7.8.9.0.a.b.c.c.c.c.c.c.c.c.c.c.c.c.c.c.c.c.c.c.c.: d.  ",
"              e.f.g.h.i.j.3.,.k.l.m.n.o.n.n.p.~.q.r.s.t.t.t.t.t.t.t.t.t.t.t.t.t.t.t.t.t.t.: u.  ",
"            %.v.w.x.y.2.4.6.m.z.A.B.C.D.D.E.F.D.~.G.H.I.I.I.I.I.I.I.I.I.I.I.I.I.I.I.I.I.I.: J.  ",
"            K.L.M.y.2.4.N.n.F.D.O.P.Q.R.R.S.'.D.T.U.V.W.X.X.X.X.X.X.X.X.X.X.X.X.X.X.X.X.X.: Y.  ",
"          T Z.D.`. +.+++@+#+O.Q.$+%+p.p.p.&+*+=+-+;+>+,+'+)+)+)+)+)+)+)+)+)+)+)+)+)+)+)+)+: !+  ",
"          ~+!.{+]+^+/+(+_+:+<+&+[+}+|+1+1+2+3+4+5+6+7+8+9+0+a+a+a+a+a+a+a+a+a+a+a+a+a+a+a+: b+  ",
"        c+d+S.e+f+2 : : : g+h+i+j+k+l+w.m+m+n+o+: : : : p+q+r+r+r+r+r+r+r+r+r+r+r+r+r+r+r+: s+  ",
"        t+u+4.v+w+: x+y+z+: A+B+w.C+D+E+F+G+H+I+J+K+L+: M+N+O+O+O+O+O+O+O+O+O+O+O+O+O+O+O+: P+  ",
"        Q+Y h.R+S+: T+U+V+: W+X+Y+Z+`+ @.@+@@@#@$@%@&@: *@=@-@-@-@-@-@-@-@-@-@-@-@-@-@-@;@0 >@  ",
"        ,@'@i.)@!@: ~@{@]@^@2 /@(@_@:@<@[@:@}@|@1@2@3@: W+4@5@5@5@5@5@5@5@5@5@5@5@5@5@5@6@7@8@  ",
"        ,@'@1.9@0@: a@b@c@: d@e@f@g@h@i@L.j@k@l@m@b@n@: o@p@5@5@5@5@5@5@5@5@5@5@5@5@5@5@I.q@r@  ",
"        s@t@j.u@v@w@: x@: 2 y@z@A@B@C@D@E@L.g@F@G@H@I@J@K@L@5@5@5@5@5@5@5@5@5@5@5@5@5@5@M@N@    ",
"        O@P@Q@4.R@S@T@U@V@W@X@`+Y@Z@`@ #.#i@[@f@+#@###$#%#5@5@5@5@5@5@5@5@5@5@5@5@&#*#=#-#;#    ",
"        >#,#3.4.l.'#)#!#~#{#]#^#/#(#_#:#<#(#[#}#|#m+1#2#3#: : : : : 4#5#5@6#7#: : : 8#9#0#      ",
"        >#a#4.b#c#d#O.e#f#g#h#i#j#k#l#m#n#o#p#q#r#s#u+t#u#v#w#x#y#z#A#: 5@I.B#C#D#E#F#G#        ",
"        H#I#J#K#6.d#D.L#M#N#O#P#Q#R#S#T#U#V#W#X#Y#Z#`# $            .$4#6#+$@$                  ",
"        #$$$4.2.,.n.E.S.%$&$*$*$*$*$=$-$;$>$,$,$'$)$!$#$            ~${$]$^$/$                  ",
"        ($_$J#:$4.l.d#O.<$[$}$|$*$*$*$1$2$,$,$,$3$4$5$            6$7$8$3 9$                    ",
"        #$,#1.y.K#6.n.E.0$a$b$c$d$*$*$e$f$,$,$g$h$i$j$            k$l$m$n$                      ",
"        o$i$p$q$:$4.c#d#D.P.a$r$s$t$u$v$w$,$x$y$%+j@z$          A$B$C$                          ",
"        D$2+E${+i.F$,.7.d#D.0$G$H$I$J$K$L$M$N$$+S.Z@O$                                          ",
"       $P$Q$R$p$S$M.Q@,.7.d#B.D.P.R.G$3+T$U$S.O.D.L.V$                                          ",
"      :.W$X$Y$Z$`$x.1.K#,.c#n.d#B.D.D.D.D.D.E.F.z.Z+ %                                          ",
"      .%+%@%#%$%%%&%x.M.F$4.6.c#m.o.d#d#d#z.n.7.k.*%=%($                                        ",
"    -%;%>%,%'%#%$%%%`$S$i.:$K#4.,.6.k.N.k.6.5.4.3.Q@L.)%($                                      ",
"    !%~%{%]%^%/%#%$%Z$&%{+(%y.:$2.Q@3.3.3.K#F$j.M.|.Q@D+_%:%%.                                  ",
"    <%[%}%|%1%^%/%#%2%R$E$p${+x.|.i.i.i.i.y.y.q$S$&%p$E$3%4%5%6%                                ",
"  6%7%8%9%0%a%b%c%d%#%Y$$%e%f%g%h%{+i%i%i%i%j%&%f%%%R$Y$k%l%m%n%o%6%                            ",
"  p%q%r%s%t%u%v%w%x%y%z%A%B%C%D%E%F%G%G%G%G%H%I%J%K%L%M%N%O%P%Q%@+R%S%                          ",
"  T%U%V%W%X%Y%Z%`% &.&+&@&#&$&%&&&*&=&-&=&=&;&>&,&'&)&!&~&{&]&^&h+/&(&                          ",
"                                                                                                ",
"                                                                                                ",
"                                                                                                ",
"                                                                                                ",
"                                                                                                "};
