/* XPM */
static char * planner_xpm[] = {
"48 48 537 2",
"  	c None",
". 	c #2E3436",
"+ 	c #25559E",
"@ 	c #2D5DA2",
"# 	c #2D5CA2",
"$ 	c #2D5CA1",
"% 	c #2C5CA1",
"& 	c #2C5CA0",
"* 	c #2C5BA0",
"= 	c #2C5B9F",
"- 	c #2C5A9F",
"; 	c #2C5A9E",
"> 	c #2C599D",
", 	c #25549A",
"' 	c #1F5099",
") 	c #85A7D3",
"! 	c #7DA0CF",
"~ 	c #7CA0CE",
"{ 	c #7CA0CF",
"] 	c #7DA0CE",
"^ 	c #7DA1CE",
"/ 	c #7EA1CE",
"( 	c #7FA1CE",
"_ 	c #7FA2CE",
": 	c #80A1CE",
"< 	c #80A2CE",
"[ 	c #80A2CD",
"} 	c #81A2CD",
"| 	c #81A1CD",
"1 	c #80A1CB",
"2 	c #325FA0",
"3 	c #1D4F98",
"4 	c #91B1D9",
"5 	c #7299CD",
"6 	c #6C96CB",
"7 	c #6C96CA",
"8 	c #6B96CB",
"9 	c #6C95CA",
"0 	c #6B95CA",
"a 	c #6B94C9",
"b 	c #6A94C9",
"c 	c #6A93C9",
"d 	c #6993C8",
"e 	c #6892C8",
"f 	c #6892C7",
"g 	c #6791C7",
"h 	c #6691C6",
"i 	c #6690C6",
"j 	c #6590C6",
"k 	c #668FC6",
"l 	c #658FC5",
"m 	c #648EC5",
"n 	c #648FC4",
"o 	c #648EC4",
"p 	c #638EC4",
"q 	c #608BC2",
"r 	c #91AED3",
"s 	c #3461A0",
"t 	c #1D4E97",
"u 	c #91B1D8",
"v 	c #6792C8",
"w 	c #6691C8",
"x 	c #6691C7",
"y 	c #6590C7",
"z 	c #658FC6",
"A 	c #648FC6",
"B 	c #648FC5",
"C 	c #638EC5",
"D 	c #628DC5",
"E 	c #628DC4",
"F 	c #618DC4",
"G 	c #618CC4",
"H 	c #618CC3",
"I 	c #608CC3",
"J 	c #608BC3",
"K 	c #5F8BC3",
"L 	c #5F8BC2",
"M 	c #5E8AC2",
"N 	c #5D89C1",
"O 	c #5C88C0",
"P 	c #5885BE",
"Q 	c #94AFD3",
"R 	c #35609F",
"S 	c #1D4D96",
"T 	c #92B1D8",
"U 	c #6A93C8",
"V 	c #638FC5",
"W 	c #5F8AC2",
"X 	c #5E8AC1",
"Y 	c #5E89C1",
"Z 	c #5B88C0",
"` 	c #5B87C0",
" .	c #5B87BF",
"..	c #5A86BF",
"+.	c #5986BE",
"@.	c #5985BE",
"#.	c #5481BB",
"$.	c #95B0D3",
"%.	c #1C4D94",
"&.	c #93B1D7",
"*.	c #6790C5",
"=.	c #5A86BE",
"-.	c #5884BD",
";.	c #5784BD",
">.	c #5783BC",
",.	c #5683BC",
"'.	c #5582BB",
").	c #507EBA",
"!.	c #97B1D3",
"~.	c #34609E",
"{.	c #1C4C93",
"].	c #94B2D7",
"^.	c #5A87BF",
"/.	c #5885BD",
"(.	c #5783BD",
"_.	c #5582BC",
":.	c #5481BA",
"<.	c #5380BA",
"[.	c #5280B9",
"}.	c #4D7CB7",
"|.	c #99B2D4",
"1.	c #355F9C",
"2.	c #1C4C92",
"3.	c #95B2D7",
"4.	c #628CC2",
"5.	c #527FB9",
"6.	c #517EB9",
"7.	c #517EB8",
"8.	c #507EB8",
"9.	c #507DB8",
"0.	c #4F7DB7",
"a.	c #4F7CB7",
"b.	c #4A78B5",
"c.	c #9BB4D4",
"d.	c #355F9B",
"e.	c #1C4B90",
"f.	c #97B3D7",
"g.	c #5F89C0",
"h.	c #5682BB",
"i.	c #5581BB",
"j.	c #4E7CB7",
"k.	c #4E7CB6",
"l.	c #4E7BB6",
"m.	c #4D7BB6",
"n.	c #4D7BB5",
"o.	c #4D7AB5",
"p.	c #4C7AB5",
"q.	c #4676B2",
"r.	c #9EB5D4",
"s.	c #1B4A8F",
"t.	c #99B4D7",
"u.	c #618BC0",
"v.	c #5985BD",
"w.	c #5985BC",
"x.	c #5984BC",
"y.	c #5984BB",
"z.	c #5883BB",
"A.	c #5783BB",
"B.	c #5782BA",
"C.	c #5683BA",
"D.	c #5682BA",
"E.	c #5682B9",
"F.	c #5582BA",
"G.	c #5581BA",
"H.	c #5481B9",
"I.	c #5580B9",
"J.	c #5480B9",
"K.	c #5480B8",
"L.	c #537FB8",
"M.	c #527FB8",
"N.	c #527EB7",
"O.	c #517EB7",
"P.	c #517DB6",
"Q.	c #507DB6",
"R.	c #4B79B3",
"S.	c #A0B7D6",
"T.	c #355E99",
"U.	c #1B4A8E",
"V.	c #8FABD0",
"W.	c #83A2CA",
"X.	c #82A1CA",
"Y.	c #84A2CA",
"Z.	c #84A3CA",
"`.	c #85A3CA",
" +	c #85A2CA",
".+	c #85A4CA",
"++	c #86A3CA",
"@+	c #86A4CB",
"#+	c #87A4CA",
"$+	c #87A4CB",
"%+	c #87A5CB",
"&+	c #88A5CB",
"*+	c #89A5CB",
"=+	c #8AA6CB",
"-+	c #8EA8CB",
";+	c #325B96",
">+	c #214E91",
",+	c #2B5797",
"'+	c #2B5796",
")+	c #2B5697",
"!+	c #2C5797",
"~+	c #2B5696",
"{+	c #2B5695",
"]+	c #2B5694",
"^+	c #2B5693",
"/+	c #2B5593",
"(+	c #2C5593",
"_+	c #2A5492",
":+	c #224D8C",
"<+	c #62C306",
"[+	c #5FC200",
"}+	c #5EC200",
"|+	c #5EC100",
"1+	c #5DC100",
"2+	c #5DC000",
"3+	c #5CC000",
"4+	c #5CBF00",
"5+	c #5CBE00",
"6+	c #5DBF00",
"7+	c #61C006",
"8+	c #70CA1B",
"9+	c #B5E883",
"0+	c #BAEA8A",
"a+	c #BBEA8B",
"b+	c #BBEB8C",
"c+	c #BCEB8D",
"d+	c #BCEB8E",
"e+	c #BDEC8F",
"f+	c #BEEC90",
"g+	c #BEEB91",
"h+	c #BEEC92",
"i+	c #BFEC92",
"j+	c #BFEC93",
"k+	c #C0EC94",
"l+	c #C0ED95",
"m+	c #B7E887",
"n+	c #67C112",
"o+	c #6EC61A",
"p+	c #B0E57C",
"q+	c #A1E260",
"r+	c #A2E262",
"s+	c #A1E262",
"t+	c #A1E261",
"u+	c #A0E25F",
"v+	c #A0E15F",
"w+	c #9FE15F",
"x+	c #A0E15E",
"y+	c #9FE15D",
"z+	c #9EE15D",
"A+	c #9EE15C",
"B+	c #A0E160",
"C+	c #AEE47A",
"D+	c #66BE11",
"E+	c #6DC41A",
"F+	c #B0E57B",
"G+	c #9AE054",
"H+	c #9AE056",
"I+	c #9ADF56",
"J+	c #9ADF55",
"K+	c #99DF55",
"L+	c #99DF54",
"M+	c #98DF53",
"N+	c #98DF52",
"O+	c #97DE52",
"P+	c #97DE51",
"Q+	c #97DE50",
"R+	c #96DE50",
"S+	c #96DE4F",
"T+	c #95DE4F",
"U+	c #99DF53",
"V+	c #ACE377",
"W+	c #64BA11",
"X+	c #6BC119",
"Y+	c #AFE57B",
"Z+	c #96DE4D",
"`+	c #97DE4F",
" @	c #95DE4E",
".@	c #95DE4D",
"+@	c #94DE4C",
"@@	c #95DE4B",
"#@	c #93DD4B",
"$@	c #94DD4A",
"%@	c #93DD4A",
"&@	c #92DD49",
"*@	c #93DD49",
"=@	c #92DD48",
"-@	c #ABE277",
";@	c #62B810",
">@	c #6ABE19",
",@	c #AFE47A",
"'@	c #92DD47",
")@	c #93DC4A",
"!@	c #92DC48",
"~@	c #91DC48",
"{@	c #91DC46",
"]@	c #90DD46",
"^@	c #8FDC44",
"/@	c #90DC44",
"(@	c #8EDC43",
"_@	c #8FDC42",
":@	c #8EDC42",
"<@	c #91DD47",
"[@	c #ABE176",
"}@	c #61B411",
"|@	c #68BB18",
"1@	c #8DDB40",
"2@	c #8FDB43",
"3@	c #8EDB43",
"4@	c #8EDB42",
"5@	c #8DDB41",
"6@	c #8EDB41",
"7@	c #8CDB40",
"8@	c #8DDA3F",
"9@	c #8BDA3F",
"0@	c #8CDA3E",
"a@	c #8CDA3D",
"b@	c #8ADA3D",
"c@	c #8BDA3C",
"d@	c #8ADA3B",
"e@	c #AAE176",
"f@	c #5FB111",
"g@	c #66B818",
"h@	c #AEE37A",
"i@	c #89DA39",
"j@	c #8BDA3D",
"k@	c #8ADA3C",
"l@	c #89DA3A",
"m@	c #88DA39",
"n@	c #89D938",
"o@	c #88D938",
"p@	c #87D937",
"q@	c #88D936",
"r@	c #86D936",
"s@	c #86D935",
"t@	c #87D935",
"u@	c #AAE075",
"v@	c #5EAE11",
"w@	c #65B518",
"x@	c #AEE37B",
"y@	c #85D833",
"z@	c #86D836",
"A@	c #87D835",
"B@	c #86D834",
"C@	c #85D834",
"D@	c #85D933",
"E@	c #84D833",
"F@	c #84D732",
"G@	c #84D831",
"H@	c #83D831",
"I@	c #82D82F",
"J@	c #83D82F",
"K@	c #5CAB11",
"L@	c #63B218",
"M@	c #AFE37C",
"N@	c #7ED527",
"O@	c #80D62B",
"P@	c #7FD62B",
"Q@	c #7FD629",
"R@	c #7ED628",
"S@	c #7ED627",
"T@	c #7DD627",
"U@	c #7DD526",
"V@	c #7DD525",
"W@	c #7CD524",
"X@	c #7BD523",
"Y@	c #7BD522",
"Z@	c #7BD521",
"`@	c #7FD62A",
" #	c #A9DF74",
".#	c #5AA811",
"+#	c #60AD17",
"@#	c #A5DD6E",
"##	c #B0E37E",
"$#	c #B1E380",
"%#	c #B1E480",
"&#	c #B2E482",
"*#	c #B2E483",
"=#	c #B4E484",
"-#	c #B4E486",
";#	c #B5E587",
">#	c #B5E588",
",#	c #B7E58A",
"'#	c #B8E68B",
")#	c #B9E58D",
"!#	c #B9E58E",
"~#	c #BAE68F",
"{#	c #ACDD7B",
"]#	c #59A510",
"^#	c #529F08",
"/#	c #5EA916",
"(#	c #5EA818",
"_#	c #5EA718",
":#	c #5DA618",
"<#	c #5DA518",
"[#	c #5DA419",
"}#	c #5CA318",
"|#	c #5CA319",
"1#	c #5DA31A",
"2#	c #5DA41A",
"3#	c #5DA41B",
"4#	c #5EA51B",
"5#	c #5CA418",
"6#	c #4F9B08",
"7#	c #E4BA01",
"8#	c #E7C011",
"9#	c #E7C113",
"0#	c #E6C113",
"a#	c #E6C013",
"b#	c #E6C014",
"c#	c #E5C014",
"d#	c #E4BF14",
"e#	c #E3BE14",
"f#	c #E1BC12",
"g#	c #DDB402",
"h#	c #E4BC08",
"i#	c #F7E565",
"j#	c #FAEB76",
"k#	c #FAEB77",
"l#	c #FAEB78",
"m#	c #F9EB79",
"n#	c #F9EB7A",
"o#	c #F9EB7C",
"p#	c #F9EB7D",
"q#	c #F9EB7F",
"r#	c #F6E46E",
"s#	c #DEB709",
"t#	c #E2BB09",
"u#	c #F8E666",
"v#	c #FAE952",
"w#	c #FAE84D",
"x#	c #FAE74B",
"y#	c #F9E749",
"z#	c #F9E647",
"A#	c #F9E746",
"B#	c #F9E543",
"C#	c #F8E647",
"D#	c #F6E66D",
"E#	c #DCB60A",
"F#	c #E0B909",
"G#	c #F7E665",
"H#	c #FAE84F",
"I#	c #F8E649",
"J#	c #F8E747",
"K#	c #F9E646",
"L#	c #F8E644",
"M#	c #F7E542",
"N#	c #F7E541",
"O#	c #F8E645",
"P#	c #DBB50A",
"Q#	c #F6E564",
"R#	c #F9E648",
"S#	c #F8E543",
"T#	c #F8E541",
"U#	c #F7E43F",
"V#	c #F7E43E",
"W#	c #F7E33C",
"X#	c #F6E33A",
"Y#	c #F7E33F",
"Z#	c #F5E56C",
"`#	c #D8B30A",
" $	c #DCB609",
".$	c #F5E463",
"+$	c #F7E43C",
"@$	c #F7E33B",
"#$	c #F6E339",
"$$	c #F6E237",
"%$	c #F6E236",
"&$	c #F6E234",
"*$	c #F5E239",
"=$	c #F5E46C",
"-$	c #D7B20A",
";$	c #DAB409",
">$	c #F5E362",
",$	c #F6E43D",
"'$	c #F5E136",
")$	c #F6E133",
"!$	c #F5E031",
"~$	c #F4E02F",
"{$	c #F4DF2E",
"]$	c #F5E134",
"^$	c #F4E46C",
"/$	c #D4AF0A",
"($	c #D8B309",
"_$	c #F4E361",
":$	c #F6E137",
"<$	c #F5E030",
"[$	c #F4E02E",
"}$	c #F4DF2C",
"|$	c #F4DF2B",
"1$	c #F4DE29",
"2$	c #F3DE27",
"3$	c #D2AE0A",
"4$	c #D7B209",
"5$	c #F3E260",
"6$	c #F4E030",
"7$	c #F4DF29",
"8$	c #F3DE26",
"9$	c #F3DE24",
"0$	c #F3DD22",
"a$	c #F2DD21",
"b$	c #F2DD27",
"c$	c #F2E36D",
"d$	c #D1AD0B",
"e$	c #D6B109",
"f$	c #F3E261",
"g$	c #F4E036",
"h$	c #F3DF2F",
"i$	c #F3DE2D",
"j$	c #F2DE2C",
"k$	c #F3DE2A",
"l$	c #F2DD29",
"m$	c #F3DE31",
"n$	c #F2E36F",
"o$	c #D0AC0B",
"p$	c #D4B009",
"q$	c #F5E671",
"r$	c #F9ED7E",
"s$	c #F9EE7F",
"t$	c #F9EE81",
"u$	c #F9EE83",
"v$	c #FAEE85",
"w$	c #F9EF88",
"x$	c #FAEF89",
"y$	c #FBEF8D",
"z$	c #F5E883",
"A$	c #CEAB0B",
"B$	c #CCA600",
"C$	c #C8A100",
"D$	c #C7A000",
"E$	c #C69F00",
"F$	c #C59F00",
"G$	c #C59E00",
"H$	c #C49E00",
"I$	c #C49D00",
"J$	c #C39D00",
"K$	c #C29D00",
"L$	c #C6A200",
"                                                                                                ",
"                                                                                                ",
"          . . . . . . . . . . . . . . . . . . . . . . . . . . . . . . . . . . . . . . . .       ",
"          .                                                                             .       ",
"                                                                                                ",
"                                                                                                ",
"          + @ # # # # $ $ % % % % & & & & * * * * = * * = = = = = - ; ; > ,                     ",
"          ' ) ! ~ { ! ! ! ] ] ] ^ ^ ^ / / ( / ( ( ( _ : < [ [ [ [ } } | 1 2                     ",
"          3 4 5 6 7 7 8 9 0 a a b c d d e e f g g h i j k l l m n o p q r s                     ",
"          t u 9 v w x x y j z A B C C D E F G H I J K L M M N N N O O P Q R                     ",
"          S T U V C C D E F G I I J L W W X Y N N O O Z `  .....+.@.P #.$.R                     ",
"          %.&.*.J J L W M M Y N N O O O  . ...=.+.@.@.-.-.;.>.,.,.'.'.).!.~.                    ",
"          {.].o N N N O O `  .^.....+.@.P /.;.;.(.,.,._.'.'.#.:.<.<.[.}.|.1.                    ",
"          2.3.4...=.@.@././.-.;.>.,.,._.'.#.#.:.<.<.<.5.5.6.7.8.9.0.a.b.c.d.                    ",
"          e.f.g.>.,.,.h.'.i.:.:.<.<.[.5.5.7.7.8.9.0.0.j.k.l.m.n.o.p.p.q.r.d.                    ",
"          s.t.u.v.w.w.x.y.z.z.A.B.C.D.E.F.G.H.I.J.K.L.L.M.N.N.O.P.P.Q.R.S.T.                    ",
"          U.V.W.X.X.X.X.W.W.Y.W.Y.Z.`. +`..+++@+#+$+$+%+&+&+*+*+*+=+=+=+-+;+                    ",
"          >+,+,+'+'+)+,+!+,+'+'+'+,+,+'+'+~+'+~+~+{+{+{+]+]+]+]+^+/+/+(+_+:+                    ",
"                                                                                                ",
"                                                                                                ",
"                                                  <+[+}+}+|+|+}+1+1+1+2+2+|+2+3+3+4+5+6+7+      ",
"                                                  8+9+0+a+b+b+c+d+d+e+e+f+g+h+i+j+k+l+m+n+      ",
"                                                  o+p+q+r+s+t+q+q+u+v+u+w+x+y+z+z+A+B+C+D+      ",
"                                                  E+F+G+H+I+J+K+L+M+M+N+O+P+Q+R+S+T+U+V+W+      ",
"                                                  X+Y+Z+R+`+S+ @Z+.@+@@@#@$@%@&@*@=@.@-@;@      ",
"                                                  >@,@'@)@&@!@~@~@{@]@{@^@^@/@(@_@:@<@[@}@      ",
"                                                  |@C+1@2@3@4@5@6@1@7@8@9@0@a@b@c@d@:@e@f@      ",
"                                                  g@h@i@j@k@d@d@l@l@m@n@o@p@q@r@s@t@k@u@v@      ",
"                                                  w@x@y@p@z@A@B@C@D@E@F@G@H@G@I@I@J@r@u@K@      ",
"                                                  L@M@N@O@P@Q@Q@R@S@T@U@V@W@W@X@Y@Z@`@ #.#      ",
"                                                  +#@#####$#%#&#*#=#-#;#>#,#,#'#)#!#~#{#]#      ",
"                                                  ^#/#(#_#:#<#<#[#}#|#|#|#|#1#1#2#3#4#5#6#      ",
"                                                                                                ",
"                                                                                                ",
"                                    7#8#9#0#a#b#c#c#d#e#f#g#                                    ",
"                                    h#i#j#k#l#m#n#o#p#q#r#s#                                    ",
"                                    t#u#v#w#x#y#z#A#B#C#D#E#                                    ",
"                                    F#G#H#I#J#K#L#M#N#O#D#P#                                    ",
"                                    s#Q#R#S#T#U#V#W#X#Y#Z#`#                                    ",
"                                     $.$M#+$@$#$$$%$&$*$=$-$                                    ",
"                                    ;$>$,$'$&$)$!$~${$]$^$/$                                    ",
"                                    ($_$:$<$[$}$|$1$2$[$^$3$                                    ",
"                                    4$5$6$7$2$8$9$0$a$b$c$d$                                    ",
"                                    e$f$g$h$i$i$j$k$l$m$n$o$                                    ",
"                                    p$q$r$s$t$u$v$w$x$y$z$A$                                    ",
"                                    B$C$D$E$F$G$H$I$J$K$J$L$                                    ",
"                                                                                                ",
"                                                                                                "};
