/* XPM */
static char * poedit_xpm[] = {
"48 48 696 2",
"  	c None",
". 	c #1D004C",
"+ 	c #1C094C",
"@ 	c #1E0150",
"# 	c #1E014F",
"$ 	c #1E004E",
"% 	c #1C0D4A",
"& 	c #1E004D",
"* 	c #1C0B48",
"= 	c #1D1646",
"- 	c #1C1047",
"; 	c #1D413A",
"> 	c #2C5869",
", 	c #4858B2",
"' 	c #5E70D2",
") 	c #728AE6",
"! 	c #869BEB",
"~ 	c #8297EB",
"{ 	c #6E86E5",
"] 	c #5A6CD1",
"^ 	c #4551B7",
"/ 	c #2A4973",
"( 	c #21403D",
"_ 	c #1E1047",
": 	c #1D0D4A",
"< 	c #1D0E4A",
"[ 	c #1E1346",
"} 	c #255A31",
"| 	c #408F5D",
"1 	c #7DB4AF",
"2 	c #B6CEDD",
"3 	c #DAEAE6",
"4 	c #DDECE6",
"5 	c #DEE3F9",
"6 	c #DFE3FA",
"7 	c #E0E4FA",
"8 	c #DBE0F9",
"9 	c #ADC5DD",
"0 	c #76C77F",
"a 	c #41A534",
"b 	c #245238",
"c 	c #1E1247",
"d 	c #1D1348",
"e 	c #1D1347",
"f 	c #1D1047",
"g 	c #1E3754",
"h 	c #60A98E",
"i 	c #B5D9C9",
"j 	c #D0E5DE",
"k 	c #D3DBF3",
"l 	c #D4E4E6",
"m 	c #D6EDDA",
"n 	c #D6ECDB",
"o 	c #D8E6EA",
"p 	c #DADFF9",
"q 	c #D9DEF9",
"r 	c #D8DEF8",
"s 	c #D7E5E8",
"t 	c #D5ECD9",
"u 	c #D6F1D1",
"v 	c #B1E5A9",
"w 	c #5EC74D",
"x 	c #265F31",
"y 	c #1E0E48",
"z 	c #1D034E",
"A 	c #1E0E49",
"B 	c #1E3E3D",
"C 	c #4E928B",
"D 	c #AACCCC",
"E 	c #C7E4D1",
"F 	c #CADCE5",
"G 	c #CDD9ED",
"H 	c #CEE6D9",
"I 	c #D1EFCD",
"J 	c #D4F0CF",
"K 	c #D4EFD1",
"L 	c #D2E4E2",
"M 	c #D4DAF8",
"N 	c #D5DBF7",
"O 	c #D5DBF8",
"P 	c #D3DBF5",
"Q 	c #D2ECD4",
"R 	c #D3F0CE",
"S 	c #D1EFCC",
"T 	c #D0EFCB",
"U 	c #CFEEC9",
"V 	c #A2E098",
"W 	c #4EBA3C",
"X 	c #21413D",
"Y 	c #1D094B",
"Z 	c #1E1147",
"` 	c #2C7D3F",
" .	c #94CCA7",
"..	c #C0D0E8",
"+.	c #C2D0ED",
"@.	c #C3D7E3",
"#.	c #C6E2D3",
"$.	c #CAECC6",
"%.	c #CCEEC7",
"&.	c #CDEEC8",
"*.	c #CDEBCD",
"=.	c #CDDCE8",
"-.	c #CED6F7",
";.	c #CCE5D9",
">.	c #CFD7F5",
",.	c #CFD6F7",
"'.	c #CDDDE6",
").	c #CDD5F6",
"!.	c #CBE1DE",
"~.	c #CEEEC9",
"{.	c #CCEDC6",
"].	c #CAEDC4",
"^.	c #C9ECC2",
"/.	c #C6ECC0",
"(.	c #87D97A",
"_.	c #2D852C",
":.	c #1D0C4A",
"<.	c #1F1A44",
"[.	c #48AC3B",
"}.	c #A9E2A1",
"|.	c #BAD6D4",
"1.	c #BDC7F4",
"2.	c #BDD4DE",
"3.	c #C1E8BE",
"4.	c #C2E8C0",
"5.	c #C4E8C3",
"6.	c #C3E5C8",
"7.	c #C4DCDB",
"8.	c #C7CFF6",
"9.	c #C8D0F6",
"0.	c #C8D1F6",
"a.	c #C9D1F6",
"b.	c #C6E1D5",
"c.	c #C5E1D3",
"d.	c #C7ECC1",
"e.	c #C5EBBF",
"f.	c #C4EBBD",
"g.	c #C2EABB",
"h.	c #C1EABA",
"i.	c #9CDE91",
"j.	c #3AA62C",
"k.	c #1F1944",
"l.	c #1D054D",
"m.	c #1C084C",
"n.	c #1F2342",
"o.	c #56BB4F",
"p.	c #ADE3A7",
"q.	c #B3CED8",
"r.	c #B6C1F3",
"s.	c #B7C4EF",
"t.	c #B8DEC3",
"u.	c #BACCE6",
"v.	c #BDCCED",
"w.	c #BFC9F4",
"x.	c #C1CAF5",
"y.	c #C2CBF5",
"z.	c #C2CCF5",
"A.	c #C3CDF5",
"B.	c #C3D0EE",
"C.	c #C4CDF5",
"D.	c #C2CFEF",
"E.	c #C1D3E6",
"F.	c #C0E4C6",
"G.	c #C0E0CC",
"H.	c #C1E9BD",
"I.	c #BFE9B8",
"J.	c #BDE9B6",
"K.	c #BCE8B4",
"L.	c #BAE8B2",
"M.	c #A7E29D",
"N.	c #49BB36",
"O.	c #1F2044",
"P.	c #1D024F",
"Q.	c #1E1844",
"R.	c #54BE47",
"S.	c #A8CACE",
"T.	c #ACDBB5",
"U.	c #AFBEEE",
"V.	c #B2BEF2",
"W.	c #B3BFF2",
"X.	c #B5C1F3",
"Y.	c #B8C3F3",
"Z.	c #B7DAC9",
"`.	c #B8D5D3",
" +	c #BBC6F4",
".+	c #BCC6F4",
"++	c #BDC8F4",
"@+	c #BDC9F0",
"#+	c #BEDECC",
"$+	c #BEE3C4",
"%+	c #BDD5DB",
"&+	c #BCD7D6",
"*+	c #C0EAB9",
"=+	c #BEE9B7",
"-+	c #BDE9B5",
";+	c #B9E8B2",
">+	c #B8E7B0",
",+	c #B6E7AE",
"'+	c #B5E6AC",
")+	c #AAE3A0",
"!+	c #43B930",
"~+	c #1E1447",
"{+	c #1D074B",
"]+	c #375BA2",
"^+	c #9CC3C6",
"/+	c #A4D1BB",
"(+	c #A8BBE8",
"_+	c #ABB8F1",
":+	c #ADBAF2",
"<+	c #AEBBF2",
"[+	c #B0BDF2",
"}+	c #B1BDF2",
"|+	c #B4C0F2",
"1+	c #B4C2F0",
"2+	c #B7C2F3",
"3+	c #B7C7E9",
"4+	c #B9E0C0",
"5+	c #B9DFC0",
"6+	c #BAE6B7",
"7+	c #B8E3BA",
"8+	c #B6D7CD",
"9+	c #BAE7B4",
"0+	c #BBE8B3",
"a+	c #B9E7B1",
"b+	c #B7E7AF",
"c+	c #B5E6AD",
"d+	c #B3E6AB",
"e+	c #B0E5A7",
"f+	c #AEE4A5",
"g+	c #9ADE8E",
"h+	c #36A427",
"i+	c #1E0F48",
"j+	c #2C319D",
"k+	c #90A2ED",
"l+	c #A1B0F0",
"m+	c #A2B2ED",
"n+	c #A4B3F0",
"o+	c #A6B4F0",
"p+	c #A8B6F1",
"q+	c #A9B7F1",
"r+	c #ACB9F1",
"s+	c #AEBAF2",
"t+	c #AFBCF2",
"u+	c #B0D0D0",
"v+	c #B4E3B3",
"w+	c #B4E4B1",
"x+	c #B0D8C3",
"y+	c #B6E6AE",
"z+	c #B4E6AB",
"A+	c #B1E5A8",
"B+	c #ADE4A3",
"C+	c #ABE3A2",
"D+	c #A8E29E",
"E+	c #86D778",
"F+	c #2C8827",
"G+	c #1E1048",
"H+	c #1F0D66",
"I+	c #778DE9",
"J+	c #9AAAEF",
"K+	c #9CACEF",
"L+	c #9EAEEF",
"M+	c #A0AFF0",
"N+	c #A2B1F0",
"O+	c #A3B1F0",
"P+	c #A7B5F1",
"Q+	c #A9C2DD",
"R+	c #A9C1DF",
"S+	c #ABBAEE",
"T+	c #AADDAF",
"U+	c #AEE2AA",
"V+	c #ACCDCD",
"W+	c #AFE4A6",
"X+	c #ADE4A4",
"Y+	c #ACE3A3",
"Z+	c #A6E19B",
"`+	c #A4E19A",
" @	c #68CE57",
".@	c #234738",
"+@	c #1D064D",
"@@	c #4058CE",
"#@	c #94A6EE",
"$@	c #96A7EE",
"%@	c #98A8EE",
"&@	c #99AAEF",
"*@	c #9BABEF",
"=@	c #9DADEF",
"-@	c #9EADEF",
";@	c #9FAFEF",
">@	c #A2B2EE",
",@	c #A1CCBE",
"'@	c #A2D2B4",
")@	c #A3B9E3",
"!@	c #A3C9C8",
"~@	c #A6D7B2",
"{@	c #A6CDC5",
"]@	c #A5CAC9",
"^@	c #AAE3A1",
"/@	c #A9E29F",
"(@	c #A5E19B",
"_@	c #A3E199",
":@	c #A1E096",
"<@	c #9FDF94",
"[@	c #9EDF93",
"}@	c #96DD8B",
"|@	c #3AB327",
"1@	c #201575",
"2@	c #788EE9",
"3@	c #8FA1ED",
"4@	c #91A3ED",
"5@	c #93A4ED",
"6@	c #98A9EE",
"7@	c #9CBBD4",
"8@	c #9BC8BC",
"9@	c #9FD7A7",
"0@	c #9EBBD6",
"a@	c #A0B9DD",
"b@	c #9ECFB3",
"c@	c #9FBED4",
"d@	c #A0CABF",
"e@	c #A4DBA5",
"f@	c #A6E29C",
"g@	c #A2E097",
"h@	c #A0E095",
"i@	c #9ADE8F",
"j@	c #99DD8D",
"k@	c #97DD8C",
"l@	c #6CCF5C",
"m@	c #255A34",
"n@	c #4562DA",
"o@	c #889CEC",
"p@	c #8B9EEC",
"q@	c #8D9FED",
"r@	c #8EA0ED",
"s@	c #93A5EE",
"t@	c #95A6EE",
"u@	c #97A8EE",
"v@	c #95B4D6",
"w@	c #96C5B9",
"x@	c #99CFAB",
"y@	c #9FDE97",
"z@	c #A0DF96",
"A@	c #9DDF92",
"B@	c #98DD8C",
"C@	c #96DC8A",
"D@	c #94DC88",
"E@	c #92DB86",
"F@	c #90DB84",
"G@	c #3FBD2B",
"H@	c #201371",
"I@	c #6F87E8",
"J@	c #8498EB",
"K@	c #869AEB",
"L@	c #889BEC",
"M@	c #899CEC",
"N@	c #8A9DEC",
"O@	c #8C9FEC",
"P@	c #8EA1ED",
"Q@	c #92A3ED",
"R@	c #92BEBE",
"S@	c #99DD8E",
"T@	c #9BDE90",
"U@	c #95DC89",
"V@	c #93DC87",
"W@	c #91DB84",
"X@	c #8EDA82",
"Y@	c #8DDA80",
"Z@	c #65CE54",
"`@	c #255735",
" #	c #1C0849",
".#	c #2B3BB1",
"+#	c #8195EB",
"@#	c #8397EB",
"##	c #8599EB",
"$#	c #879AEC",
"%#	c #8BAAD5",
"&#	c #8CA2E7",
"*#	c #8DB7C1",
"=#	c #90CD9E",
"-#	c #91CDA0",
";#	c #92D88D",
">#	c #92DB85",
",#	c #8EDA81",
"'#	c #8CD97F",
")#	c #8AD97D",
"!#	c #8AD97C",
"~#	c #88D87B",
"{#	c #7CD46D",
"]#	c #2F9D21",
"^#	c #1D1049",
"/#	c #4B6AE2",
"(#	c #8296EB",
"_#	c #859AE9",
":#	c #88CE90",
"<#	c #8AD389",
"[#	c #8BD28B",
"}#	c #8CD48A",
"|#	c #8BD48A",
"1#	c #89C99B",
"2#	c #8BCB99",
"3#	c #8DCF95",
"4#	c #8BCB9B",
"5#	c #8AA6DC",
"6#	c #87BAB5",
"7#	c #89BDB1",
"8#	c #8ED58B",
"9#	c #8FDA83",
"0#	c #89D87C",
"a#	c #87D87A",
"b#	c #3DBF2F",
"c#	c #1D024E",
"d#	c #1D004A",
"e#	c #1E0C63",
"f#	c #667FE6",
"g#	c #728AE8",
"h#	c #6B83E7",
"i#	c #66AA99",
"j#	c #77D367",
"k#	c #82C594",
"l#	c #82A5D0",
"m#	c #8499E9",
"n#	c #83A5D2",
"o#	c #86CE8B",
"p#	c #83B4B8",
"q#	c #87CE8F",
"r#	c #85B4B9",
"s#	c #85A2D9",
"t#	c #85B3BB",
"u#	c #82A5D1",
"v#	c #82BAAA",
"w#	c #56C252",
"x#	c #1E1261",
"y#	c #1F2085",
"z#	c #7D92EA",
"A#	c #5C78E5",
"B#	c #4565E1",
"C#	c #2E52DE",
"D#	c #284DDD",
"E#	c #267B87",
"F#	c #30BB20",
"G#	c #30BC1F",
"H#	c #256DA1",
"I#	c #395BDF",
"J#	c #5D79E5",
"K#	c #6E8BDC",
"L#	c #7CC294",
"M#	c #7EB7A9",
"N#	c #82CE85",
"O#	c #7FB5AD",
"P#	c #7DC196",
"Q#	c #83CF84",
"R#	c #71D161",
"S#	c #205645",
"T#	c #26319B",
"U#	c #7C91EA",
"V#	c #5673E4",
"W#	c #2557C7",
"X#	c #208C61",
"Y#	c #20758A",
"Z#	c #267E81",
"`#	c #26827B",
" $	c #2561B6",
".$	c #3069B7",
"+$	c #587ADB",
"@$	c #78AEB2",
"#$	c #81C88E",
"$$	c #87D779",
"%$	c #80C690",
"&$	c #78D26C",
"*$	c #29891F",
"=$	c #1D0A4C",
"-$	c #3147B8",
";$	c #8094E7",
">$	c #607AE5",
",$	c #2D51DD",
"'$	c #257988",
")$	c #2FB32B",
"!$	c #34BF1D",
"~$	c #26817C",
"{$	c #2C50DD",
"]$	c #4C6BE2",
"^$	c #7091D7",
"/$	c #7EA9C5",
"($	c #7FA3CD",
"_$	c #80C692",
":$	c #7FAFBA",
"<$	c #79AAB9",
"[$	c #1E8136",
"}$	c #1D044D",
"|$	c #3F5FDD",
"1$	c #7A8DDB",
"2$	c #4767E2",
"3$	c #2557C6",
"4$	c #255FB7",
"5$	c #2DAE32",
"6$	c #2AA049",
"7$	c #257F7D",
"8$	c #235FB5",
"9$	c #3F60E0",
"0$	c #6982E7",
"a$	c #82CD87",
"b$	c #7FA3CF",
"c$	c #7F91DE",
"d$	c #294FD3",
"e$	c #3B5DE0",
"f$	c #3254D7",
"g$	c #2446CB",
"h$	c #2652CF",
"i$	c #2AA63E",
"j$	c #2EB923",
"k$	c #31BD1E",
"l$	c #247F7E",
"m$	c #257989",
"n$	c #30BD1D",
"o$	c #289C4D",
"p$	c #24758E",
"q$	c #25827A",
"r$	c #299B50",
"s$	c #44C330",
"t$	c #6FD05F",
"u$	c #84D57C",
"v$	c #7CB0B6",
"w$	c #7FC19A",
"x$	c #82CF84",
"y$	c #84D47D",
"z$	c #83CD88",
"A$	c #80B8AB",
"B$	c #7FB1B7",
"C$	c #80CD85",
"D$	c #83CE87",
"E$	c #83D280",
"F$	c #7F94E2",
"G$	c #7F91E0",
"H$	c #3356DE",
"I$	c #2447CC",
"J$	c #2549D1",
"K$	c #279558",
"L$	c #33BE1C",
"M$	c #2FB824",
"N$	c #27A63A",
"O$	c #279F46",
"P$	c #43C42E",
"Q$	c #86D879",
"R$	c #82CC8A",
"S$	c #7DAAC1",
"T$	c #7FB1B5",
"U$	c #7EB9A6",
"V$	c #7F9FD5",
"W$	c #8097E7",
"X$	c #7FA1D3",
"Y$	c #7FABC0",
"Z$	c #80C090",
"`$	c #7B8EDD",
" %	c #264BD9",
".%	c #2547CE",
"+%	c #2547CD",
"@%	c #274DDB",
"#%	c #2DB624",
"$%	c #245FB6",
"%%	c #2FB626",
"&%	c #3BC125",
"*%	c #58CA45",
"=%	c #6DC476",
"-%	c #7FB6AD",
";%	c #8095EA",
">%	c #7FBF8B",
",%	c #6EB583",
"'%	c #263EC3",
")%	c #2344C4",
"!%	c #274CDB",
"~%	c #2458C4",
"{%	c #32BE1B",
"]%	c #278575",
"^%	c #256BA1",
"/%	c #2FB528",
"(%	c #3FC22A",
"_%	c #54B962",
":%	c #6783E1",
"<%	c #6C83E0",
"[%	c #5E75D3",
"}%	c #3B7E9B",
"|%	c #2BB02E",
"1%	c #2432AA",
"2%	c #274CDC",
"3%	c #2344C5",
"4%	c #216986",
"5%	c #268574",
"6%	c #289E4A",
"7%	c #256BA2",
"8%	c #274CDA",
"9%	c #2445C7",
"0%	c #2548D0",
"a%	c #274DDC",
"b%	c #218A66",
"c%	c #222592",
"d%	c #28A13D",
"e%	c #2EAC1A",
"f%	c #32B81C",
"g%	c #29935D",
"h%	c #2653CE",
"i%	c #299D4E",
"j%	c #33BD1C",
"k%	c #227D61",
"l%	c #2446CA",
"m%	c #274ED8",
"n%	c #1F0D65",
"o%	c #2561B5",
"p%	c #2EAF31",
"q%	c #30B21B",
"r%	c #2EAB1A",
"s%	c #2FAE1A",
"t%	c #33BC1C",
"u%	c #236F89",
"v%	c #2249BF",
"w%	c #28A224",
"x%	c #2DAA19",
"y%	c #248B49",
"z%	c #264FD3",
"A%	c #288479",
"B%	c #2FAF1A",
"C%	c #2FAC1A",
"D%	c #2CAE22",
"E%	c #238276",
"F%	c #248C65",
"G%	c #257198",
"H%	c #247099",
"I%	c #2365AB",
"J%	c #2434AF",
"K%	c #2558C4",
"L%	c #2FB922",
"M%	c #258A69",
"N%	c #299855",
"O%	c #31BD1C",
"P%	c #245ABE",
"Q%	c #25925C",
"R%	c #2BAE30",
"S%	c #2647D4",
"T%	c #2459C0",
"U%	c #246B9F",
"V%	c #278E65",
"W%	c #288B6B",
"X%	c #29A145",
"Y%	c #28955A",
"Z%	c #274ED9",
"`%	c #257D80",
" &	c #289854",
".&	c #28945C",
"+&	c #2651D3",
"@&	c #2641C8",
"#&	c #2650D4",
"$&	c #2EBA1F",
"%&	c #268770",
"&&	c #2462B1",
"*&	c #29965A",
"=&	c #232899",
"-&	c #2656C8",
";&	c #2BA245",
">&	c #2DAC37",
",&	c #2652D0",
"'&	c #2437B6",
")&	c #2652D1",
"!&	c #2EB626",
"~&	c #299758",
"{&	c #2643CC",
"]&	c #30BA22",
"^&	c #245CBB",
"/&	c #2469A4",
"(&	c #1E0454",
"_&	c #247392",
":&	c #235DB9",
"<&	c #2654CC",
"[&	c #299954",
"}&	c #279656",
"|&	c #289856",
"1&	c #28A146",
"2&	c #2FB625",
"3&	c #255DBB",
"4&	c #279F48",
"5&	c #30B923",
"6&	c #274EDA",
"7&	c #255AC1",
"8&	c #2FB627",
"9&	c #258377",
"0&	c #299E4C",
"a&	c #269654",
"b&	c #2559C2",
"c&	c #247491",
"d&	c #256BA4",
"e&	c #238474",
"f&	c #246E9C",
"g&	c #32BE1C",
"h&	c #2DB22C",
"i&	c #25768E",
"j&	c #237D7C",
"k&	c #257590",
"l&	c #246AA2",
"m&	c #2354C7",
"                                    . + @ # $ $ $ $ # @ % &                                     ",
"                              * = - ; > , ' ) ! ~ { ] ^ / ( _ : &                               ",
"                          < [ } | 1 2 3 4 5 6 7 7 7 6 6 8 9 0 a b c d                           ",
"                      e f g h i j k l m n o p p p p p q r s t u v w x y z                       ",
"                    A B C D E F G H I J K L M N O O M M P Q R S T U V W X Y                     ",
"                  Z `  ...+.@.#.$.%.&.*.=.-.-.;.>.,.,.'.).!.~.%.{.].^./.(._._                   ",
"              :.<.[.}.|.1.2.3.4.5.6.7.8.9.0.a.a.a.a.a.b.0.c.c.d.d.e.f.g.h.i.j.k.l.              ",
"            m.n.o.p.q.r.s.t.u.1.v.w.x.y.z.A.A.A.B.C.A.D.E.F.G.H.g.h.I.J.K.L.M.N.O.P.            ",
"            Q.R.S.T.U.V.W.X.r.Y.Z.`. +.+1.++@+#+h.$+%+&+*+*+I.=+-+K.L.;+>+,+'+)+!+~+            ",
"          {+]+^+/+(+_+:+<+[+}+W.|+1+r.2+Y.3+4+5+6+7+8+9+0+L.;+a+>+b+c+'+d+v e+f+g+h+i+          ",
"        # j+k+l+m+n+o+p+q+_+r+s+<+t+[+}+u+v+w+x+y+,+,+,+c+c+'+z+d+v A+e+f+B+C+)+D+E+F+G+        ",
"      # H+I+J+K+L+M+N+O+n+o+P+p+q+Q+R+S+T+e+U+V+v v v A+A+e+W+W+X+B+Y+C+)+D+M.Z+`+V  @.@+@      ",
"      $ @@#@$@%@&@*@=@-@;@l+N+>@,@'@)@o+!@~@{@]@Y+Y+Y+Y+C+C+^@)+/@D+M.Z+(@_@V :@<@[@}@|@y       ",
"    @ 1@2@3@4@5@#@$@%@6@J+*@=@7@8@9@0@a@b@c@d@e@f@f@f@f@f@Z+(@`+`+_@g@:@h@[@[@i.i@j@k@l@m@+@    ",
"    # n@o@p@q@r@3@4@5@s@t@$@u@6@v@w@x@y@:@z@:@g@g@g@g@:@:@h@h@<@[@[@A@i.i@g+B@k@C@D@E@F@G@G+    ",
"  & H@I@J@K@L@M@N@O@r@P@k+4@Q@5@R@S@i@i@T@T@i.i.i.i.i.i.T@T@i@g+g+j@B@}@C@U@V@E@W@F@X@Y@Z@`@ #  ",
"  @ .#+#+#+#@#J@##$#L@M@N@p@%#&#*#U@U@C@C@}@}@}@}@C@=#-#;#C@C@U@D@V@E@>#W@F@X@,#'#)#!#~#{#]#^#  ",
"  # /#+#+#+#+#+#+#(#@#J@##_#:#<#[#}#|#1#2#3#W@>#>#4#5#6#7#8#F@9#X@X@,#Y@'#)#!#0#a#a#a#a#a#b#c#  ",
"d#e#f#+#+#+#+#+#+#+#+#g#h#i#l@j#k#l#m#n#o#p#q#'#'#r#s#t#u#v#)#)#!#0#~#a#a#a#a#a#a#a#a#a#a#w#x#& ",
"@ y#z#+#+#+#+#z#A#B#C#D#D#E#F#G#H#I#/#J#K#L#M#N#O#P#Q#a#a#a#a#a#a#a#a#a#a#a#a#a#a#a#a#a#a#R#S#@ ",
"@ T#+#+#+#U#V#C#D#D#D#D#D#W#X#Y#Z#`#`# $D#.$+$@$+##$a#$$$$a#a#a#a#a#a#a#a#a#a#a#a#a#a#a#%$&$*$=$",
"# -$;$+#>$,$D#D#D#D#D#D#'$)$!$!$!$!$!$~$D#D#D#{$]$^$/$($_$a#a#a#a#a#a#a#a#a#a#a#a#a#a#a#:$<$[$}$",
"$ |$1$2$D#D#D#D#D#D#3$4$5$!$!$!$!$!$!$6$7$D#D#8$D#D#9$0$a$a#a#a#a#a#a#a#a#a#a#a#a#a#a#a#b$c$d$$ ",
"$ e$f$g$D#D#D#D#D#h$i$j$!$!$!$!$!$!$!$!$k$l$m$n$o$p$q$r$s$t$a#a#u$v$w$x$y$z$A$B$C$D$a#E$F$G$H$$ ",
"$ D#D#I$J$D#D#D#D#K$!$!$!$!$!$!$!$!$!$!$!$L$M$!$!$!$!$N$O$!$P$l@Q$R$S$T$U$V$+#W$X$Y$$$Z$`$B#D#$ ",
"$  %D#D#.%+%D#D#@%#%!$!$!$!$!$!$!$!$!$!$!$!$!$!$!$!$!$5$$%%%!$!$&%*%=%$$a#-%+#+#+#;%>%,%I#D# %$ ",
"# '%D#D#D#J$)%!%~%{%!$!$!$!$!$!$!$!$!$!$!$!$!$!$!$!$!$!$]%^%/%!$!$!$!$(%_%:%g#2@<%[%}%|%D#D#'%# ",
"@ 1%D#D#D#D#2%3%4%!$!$!$!$!$!$!$!$!$!$!$!$!$!$!$!$!$!$!$!$5%6%!$!$!$!$n$7%8%9%9%0%D#a%b%D#D#1%@ ",
"@ c%D#D#D#D#D#a%d%e%e%f%!$!$!$!$!$!$!$!$!$!$!$!$!$!$!$!$!$g%h%i%!$!$j%k%9%l%2%D#D#D#D#m%D#D#c%@ ",
"& n%D#D#D#D#D#D#o%p%!$q%r%e%s%t%!$!$!$!$!$!$!$!$!$!$!$!$!$L$u%v%w%x%y%z%D#D#D#D#D#D#D#D#D#D#n%& ",
"  # D#D#D#D#D#D#D#A%!$!$!$!$t%B%e%C%C%C%C%C%C%C%C%e%e%e%e%C%D%E%F%G%H%I%D#D#D#D#D#D#D#D#D#D##   ",
"  @ J%D#D#D#D#D#D#K%L%!$!$!$!$!$!$!$!$!$!$!$!$!$!$!$!$!$!$!$!$L$M%N%O%P%D#D#D#D#D#D#D#D#D#J%@   ",
"  & H@D#D#D#D#D#D#D#Q%{%!$!$!$!$!$!$!$!$!$!$!$!$!$!$!$!$!$!$!$!$!$!$R%D#D#D#D#D#D#D#D#D#D#H@&   ",
"    # S%D#D#D#D#D#D#D#T%U%V%W%X%!$!$!$!$!$!$!$!$!$!$!$!$!$!$!$!$!$!$Y%D#D#D#D#D#D#D#D#D#S%#     ",
"    @ 1@D#D#D#D#D#D#D#D#D#D#D#Z%`% &F#!$!$!$!$!$!$!$!$!$!$!$!$!$!$.&+&D#D#D#D#D#D#D#D#D#1@@     ",
"      $ @&D#D#D#D#D#D#D#D#D#D#D#D##&$&!$!$!$!$!$!$!$!$!$!$!$!$!$%&a%D#D#D#D#D#D#D#D#D#@&$       ",
"      # H+D#D#D#D#D#D#D#D#D#D#D#D#&&!$!$!$!$!$!$!$!$!$!$!$!$!$*&a%D#D#D#D#D#D#D#D#D#D#H+#       ",
"        # =&D#D#D#D#D#D#D#D#D#D#D#-&;&!$!$!$!$!$!$!$!$!$!$!$>&,&D#D#D#D#D#D#D#D#D#D#=&#         ",
"          $ '&D#D#D#D#D#D#D#D#D#D#D#)&!&!$!$!$!$!$!$!$!$!$!$~&D#D#D#D#D#D#D#D#D#D#'&$           ",
"            @ {&D#D#D#D#D#D#D#D#D#D#D#.&!$!$!$!$!$!$!$!$!$!$]&^&D#a%/&D#D#D#D#D#{&@             ",
"            @ (&{&D#D#D#D#D#D#D#D#D#D#_&!$!$!$!$!$!$!$!$!$!$L$:&<&[&}&D#D#D#D#{&(&@             ",
"              @ @ '&D#D#D#D#D#D#D#D#D#|&!$!$!$!$!$!$!$!$!$!$1&m%1&2&3&D#D#D#'&@ @               ",
"                  $ =&D#D#D#D#D#D#D#D#4&!$!$!$!$!$!$!$!$5&q$6&7&8&9&D#D#D#=&$                   ",
"                    # H+@&D#D#D#D#D#D#,&0&!$!$!$!$!$!$L$a&D#D#b&c&@%D#@&H+#                     ",
"                      # $ 1@S%D#D#D#D#D#d&5&!$!$!$!$L$e&a%D#D#D#D#S%1@$ #                       ",
"                          @ # H@J%D#D#D#D#f&g&!$!$h&i&D#D#D#D#J%H@# @                           ",
"                              & @ # n%c%1%'%j&k&l&m&'%1%c%n%# @ &                               ",
"                                    & @ @ # $ $ $ $ # @ @ &                                     "};
