/* XPM */
static char * psi_xpm[] = {
"48 48 711 2",
"  	c None",
". 	c #1A24D3",
"+ 	c #101CD5",
"@ 	c #ADB9FC",
"# 	c #CED8FE",
"$ 	c #5E75E6",
"% 	c #0C25BF",
"& 	c #5266E5",
"* 	c #B6CBFF",
"= 	c #F8FFFF",
"- 	c #B6CDFD",
"; 	c #2B53DF",
"> 	c #020E73",
", 	c #5076E6",
"' 	c #DAF2FF",
") 	c #D2E7FF",
"! 	c #356AF0",
"~ 	c #0415B8",
"{ 	c #344FDF",
"] 	c #425ADB",
"^ 	c #3E56DB",
"/ 	c #405ADB",
"( 	c #1F40DD",
"_ 	c #010CA8",
": 	c #162EA9",
"< 	c #081A75",
"[ 	c #2758CF",
"} 	c #C6E6FF",
"| 	c #2258C5",
"1 	c #0D27C5",
"2 	c #B7CFFF",
"3 	c #E3EFFF",
"4 	c #D6E3FE",
"5 	c #D6E4FD",
"6 	c #D0E4FF",
"7 	c #4061EE",
"8 	c #00006A",
"9 	c #9DBDFF",
"0 	c #B4D2FF",
"a 	c #2E5DD5",
"b 	c #3570DB",
"c 	c #DFF9FF",
"d 	c #94C7FF",
"e 	c #203CDD",
"f 	c #BFD2FE",
"g 	c #D4DFFD",
"h 	c #C8D5FC",
"i 	c #CCDAFC",
"j 	c #A2BCFF",
"k 	c #0F29CF",
"l 	c #638FF8",
"m 	c #DAF3FF",
"n 	c #DBF3FF",
"o 	c #437BE4",
"p 	c #81B5FC",
"q 	c #E2FBFF",
"r 	c #447ED0",
"s 	c #395CEF",
"t 	c #C5D8FF",
"u 	c #C5D3FB",
"v 	c #BCCDFB",
"w 	c #C2D4FD",
"x 	c #6A8FFF",
"y 	c #000F9D",
"z 	c #2456C3",
"A 	c #C2E3FF",
"B 	c #D0F0FF",
"C 	c #295CBA",
"D 	c #3365B9",
"E 	c #7EB9FF",
"F 	c #000B99",
"G 	c #5E83FE",
"H 	c #CCDCFF",
"I 	c #BECEFE",
"J 	c #B8CBFE",
"K 	c #BACEFF",
"L 	c #3C64FB",
"M 	c #000465",
"N 	c #1B49C3",
"O 	c #4478D6",
"P 	c #EAFFFF",
"Q 	c #84B4F1",
"R 	c #96CCFF",
"S 	c #9FD5FF",
"T 	c #173F77",
"U 	c #0520C7",
"V 	c #86A8FF",
"W 	c #CAD8FF",
"X 	c #B7CBFF",
"Y 	c #B9CCFF",
"Z 	c #A3BFFF",
"` 	c #173EE5",
" .	c #000237",
"..	c #82C0FF",
"+.	c #67A9FB",
"@.	c #0F3072",
"#.	c #AFE0FF",
"$.	c #B2E4FF",
"%.	c #84BDFA",
"&.	c #BCEEFF",
"*.	c #2C62A1",
"=.	c #1942E5",
"-.	c #A7C4FF",
";.	c #C0D1FF",
">.	c #B2C9FF",
",.	c #7DA6FF",
"'.	c #0424BF",
").	c #4988EB",
"!.	c #4D8EE1",
"~.	c #5993DF",
"{.	c #6FA8ED",
"].	c #19386B",
"^.	c #528ED8",
"/.	c #72AFEB",
"(.	c #295893",
"_.	c #3969F7",
":.	c #B9D3FF",
"<.	c #B4CBFF",
"[.	c #AEC6FF",
"}.	c #B7CDFF",
"|.	c #5385FF",
"1.	c #00148F",
"2.	c #01081F",
"3.	c #010D21",
"4.	c #021EB4",
"5.	c #6193FF",
"6.	c #BBD2FF",
"7.	c #ABC6FF",
"8.	c #ACC6FF",
"9.	c #A7C7FF",
"0.	c #2D62F8",
"a.	c #000959",
"b.	c #0723CF",
"c.	c #092ED7",
"d.	c #1540E0",
"e.	c #224FE5",
"f.	c #2653E7",
"g.	c #214EE4",
"h.	c #0F3ADF",
"i.	c #0725D0",
"j.	c #0D37D4",
"k.	c #87B3FF",
"l.	c #B2CCFF",
"m.	c #A8C3FF",
"n.	c #ADC8FF",
"o.	c #8DB8FF",
"p.	c #1644E0",
"q.	c #000228",
"r.	c #1231D8",
"s.	c #1B4BE5",
"t.	c #477BF5",
"u.	c #79A6FC",
"v.	c #9BBFFF",
"w.	c #ACCAFF",
"x.	c #B0CDFF",
"y.	c #B0CEFF",
"z.	c #98BEFE",
"A.	c #4F83FA",
"B.	c #0F37DD",
"C.	c #275AEF",
"D.	c #A3C5FF",
"E.	c #AAC5FF",
"F.	c #A4C2FF",
"G.	c #ADC9FF",
"H.	c #6FA1FF",
"I.	c #0A2CB8",
"J.	c #1439E8",
"K.	c #3872FF",
"L.	c #497DFF",
"M.	c #467AFF",
"N.	c #457AFF",
"O.	c #427BFF",
"P.	c #1D4EF4",
"Q.	c #0A24B3",
"R.	c #2660F5",
"S.	c #7FB1FF",
"T.	c #A1C3FF",
"U.	c #A5C5FF",
"V.	c #A6C4FF",
"W.	c #A9C6FF",
"X.	c #ACC8FF",
"Y.	c #B4CEFF",
"Z.	c #B3D2FF",
"`.	c #5088FF",
" +	c #0825AC",
".+	c #041B92",
"++	c #4A80FF",
"@+	c #A4C3FF",
"#+	c #A7C6FF",
"$+	c #5086FF",
"%+	c #031984",
"&+	c #0D30C1",
"*+	c #75A8FF",
"=+	c #B0CFFF",
"-+	c #9AC3FF",
";+	c #3064F0",
">+	c #1F4EE4",
",+	c #7EACFF",
"'+	c #94B8FF",
")+	c #90B5FF",
"!+	c #94B9FF",
"~+	c #97B9FF",
"{+	c #99BBFF",
"]+	c #9BBDFF",
"^+	c #AAC7FF",
"/+	c #88B4FF",
"(+	c #1844D3",
"_+	c #0D31BA",
":+	c #72A2FF",
"<+	c #ABC9FF",
"[+	c #A1C0FF",
"}+	c #A4C1FF",
"|+	c #9AC0FF",
"1+	c #3469F8",
"2+	c #000A4C",
"3+	c #0E2EB5",
"4+	c #5A92FF",
"5+	c #8CB4FF",
"6+	c #81ABFF",
"7+	c #7EA9FF",
"8+	c #77A9FF",
"9+	c #2C61EF",
"0+	c #0C2DB1",
"a+	c #5891FF",
"b+	c #98BDFF",
"c+	c #97BBFF",
"d+	c #95BDFF",
"e+	c #98BAFF",
"f+	c #9ABCFF",
"g+	c #9BBEFF",
"h+	c #A3C3FF",
"i+	c #90BBFF",
"j+	c #2151D8",
"k+	c #1F50E4",
"l+	c #8EB9FF",
"m+	c #9DBFFF",
"n+	c #86B4FF",
"o+	c #1D4CDB",
"p+	c #0E2FB2",
"q+	c #89B4FF",
"r+	c #7FAAFF",
"s+	c #7BA9FF",
"t+	c #74A8FF",
"u+	c #2B62EF",
"v+	c #3A73FF",
"w+	c #7FB3FF",
"x+	c #5B94FF",
"y+	c #3771F8",
"z+	c #5D91F9",
"A+	c #98BCFF",
"B+	c #99BDFF",
"C+	c #A1C2FF",
"D+	c #88B5FF",
"E+	c #1F4DD3",
"F+	c #3B71F9",
"G+	c #9DC3FF",
"H+	c #9FC1FF",
"I+	c #9ABDFF",
"J+	c #6CA1FF",
"K+	c #0E33AF",
"L+	c #1034B5",
"M+	c #5C95FF",
"N+	c #89B3FF",
"O+	c #7EABFF",
"P+	c #75A9FF",
"Q+	c #2C62ED",
"R+	c #2253E3",
"S+	c #2B67FC",
"T+	c #0D2D9C",
"U+	c #021577",
"V+	c #2E66EC",
"W+	c #91BCFF",
"X+	c #96BBFF",
"Y+	c #163DBC",
"Z+	c #0D2EAE",
"`+	c #5C92FF",
" @	c #A2C4FF",
".@	c #9EC1FF",
"+@	c #071E79",
"@@	c #1438B3",
"#@	c #629AFF",
"$@	c #87B2FF",
"%@	c #7DABFF",
"&@	c #7CAAFF",
"*@	c #76A9FF",
"=@	c #2B60E9",
"-@	c #061350",
";@	c #051555",
">@	c #447DFD",
",@	c #96BFFF",
"'@	c #95BAFF",
")@	c #9DC2FF",
"!@	c #092689",
"~@	c #1C4AD9",
"{@	c #79ABFF",
"]@	c #98BBFF",
"^@	c #93BEFF",
"/@	c #356DF4",
"(@	c #041047",
"_@	c #1B45CA",
":@	c #6DA3FF",
"<@	c #8AB4FF",
"[@	c #80ADFF",
"}@	c #7DAAFF",
"|@	c #6CA4FF",
"1@	c #275BE1",
"2@	c #1237A9",
"3@	c #639DFF",
"4@	c #98BFFF",
"5@	c #96BCFF",
"6@	c #9CBFFF",
"7@	c #95BEFF",
"8@	c #3A73F8",
"9@	c #020F45",
"0@	c #3268EE",
"a@	c #92BCFF",
"b@	c #9EC0FF",
"c@	c #9CC0FF",
"d@	c #82B4FF",
"e@	c #2151D4",
"f@	c #2657DE",
"g@	c #6AA4FF",
"h@	c #6EA4FF",
"i@	c #5A97FF",
"j@	c #4A8EFF",
"k@	c #408BFF",
"l@	c #2352D1",
"m@	c #275CE3",
"n@	c #4E94FF",
"o@	c #5B9AFF",
"p@	c #659FFF",
"q@	c #72A8FF",
"r@	c #6BA6FF",
"s@	c #2353CF",
"t@	c #4B85FE",
"u@	c #94BDFF",
"v@	c #8FB8FF",
"w@	c #8AB5FF",
"x@	c #649EFF",
"y@	c #1539A6",
"z@	c #2F68EE",
"A@	c #4690FF",
"B@	c #3F87FF",
"C@	c #3C86FF",
"D@	c #3E88FF",
"E@	c #418CFF",
"F@	c #204ABF",
"G@	c #3D7BFE",
"H@	c #4A93FF",
"I@	c #428BFF",
"J@	c #418BFF",
"K@	c #458FFF",
"L@	c #468CFF",
"M@	c #163594",
"N@	c #1E46C1",
"O@	c #4F92FF",
"P@	c #5295FF",
"Q@	c #4D92FF",
"R@	c #4D91FF",
"S@	c #5196FF",
"T@	c #4384FF",
"U@	c #0E2472",
"V@	c #407DF9",
"W@	c #4B93FF",
"X@	c #468DFF",
"Y@	c #488EFF",
"Z@	c #4A91FF",
"`@	c #4C90FF",
" #	c #1A3B9D",
".#	c #1D45BD",
"+#	c #5193FF",
"@#	c #5298FF",
"##	c #4D93FF",
"$#	c #4B92FF",
"%#	c #559BFF",
"&#	c #4481FB",
"*#	c #091A56",
"=#	c #2E5FD9",
"-#	c #579CFF",
";#	c #4991FF",
">#	c #4890FF",
",#	c #5499FF",
"'#	c #3C75F5",
")#	c #05103C",
"!#	c #214FDA",
"~#	c #5292FD",
"{#	c #5097FF",
"]#	c #4C93FF",
"^#	c #4C92FF",
"/#	c #5398FF",
"(#	c #4D8DFF",
"_#	c #112B79",
":#	c #3163E1",
"<#	c #61A2FF",
"[#	c #62A4FF",
"}#	c #3466DD",
"|#	c #4780F5",
"1#	c #60A2FF",
"2#	c #5297FF",
"3#	c #5498FF",
"4#	c #2F5ED1",
"5#	c #3467E6",
"6#	c #4780F8",
"7#	c #071545",
"8#	c #4B85F9",
"9#	c #67A8FF",
"0#	c #569AFF",
"a#	c #569BFF",
"b#	c #5CA0FF",
"c#	c #66A5FF",
"d#	c #1F45A6",
"e#	c #1A42B0",
"f#	c #5F9CFF",
"g#	c #579AFF",
"h#	c #5DA1FF",
"i#	c #64A3FF",
"j#	c #1E419C",
"k#	c #538CFC",
"l#	c #66A7FF",
"m#	c #589BFF",
"n#	c #589CFF",
"o#	c #6BAAFF",
"p#	c #3566D8",
"q#	c #1A3FA4",
"r#	c #67A2FF",
"s#	c #68A9FF",
"t#	c #5B9FFF",
"u#	c #6DACFF",
"v#	c #5C97FF",
"w#	c #0D2465",
"x#	c #2F61DA",
"y#	c #71ADFF",
"z#	c #5EA1FF",
"A#	c #6BACFF",
"B#	c #5E99FF",
"C#	c #0D2464",
"D#	c #2A5CD5",
"E#	c #70ACFF",
"F#	c #63A5FF",
"G#	c #5DA0FF",
"H#	c #5D9FFF",
"I#	c #6DA9FF",
"J#	c #1D419D",
"K#	c #2D5DC9",
"L#	c #7BB4FF",
"M#	c #64A6FF",
"N#	c #7BB6FF",
"O#	c #477BE7",
"P#	c #497FF0",
"Q#	c #7CB6FF",
"R#	c #65A6FF",
"S#	c #7CB7FF",
"T#	c #4E83EC",
"U#	c #010D2D",
"V#	c #5992FF",
"W#	c #7AB5FF",
"X#	c #071B52",
"Y#	c #4177E6",
"Z#	c #83BBFF",
"`#	c #69ABFF",
" $	c #69AAFF",
".$	c #6EAEFF",
"+$	c #83BCFF",
"@$	c #3360BD",
"#$	c #669EFF",
"$$	c #7DB9FF",
"%$	c #68AAFF",
"&$	c #6AABFF",
"*$	c #6DAEFF",
"=$	c #85BEFF",
"-$	c #3462C2",
";$	c #376EE9",
">$	c #84BAFF",
",$	c #71B1FF",
"'$	c #6EAFFF",
")$	c #87BEFF",
"!$	c #3567CD",
"~$	c #487EE6",
"{$	c #88C0FF",
"]$	c #6DAFFF",
"^$	c #74B3FF",
"/$	c #88C1FF",
"($	c #2C56AD",
"_$	c #275ACD",
":$	c #80B6FF",
"<$	c #7AB7FF",
"[$	c #1B3F8F",
"}$	c #2760E6",
"|$	c #7BB0FF",
"1$	c #84BDFF",
"2$	c #6CADFF",
"3$	c #6FAFFF",
"4$	c #6BADFF",
"5$	c #86C0FF",
"6$	c #72AAFF",
"7$	c #10307A",
"8$	c #4B7FE3",
"9$	c #91C5FF",
"0$	c #74B4FF",
"a$	c #75B3FF",
"b$	c #77B6FF",
"c$	c #4275DA",
"d$	c #3F74DF",
"e$	c #92C5FF",
"f$	c #78B7FF",
"g$	c #73B3FF",
"h$	c #8CC4FF",
"i$	c #72A8FE",
"j$	c #0A2159",
"k$	c #235EE0",
"l$	c #73A9FF",
"m$	c #93C7FF",
"n$	c #75B4FF",
"o$	c #7CB8FF",
"p$	c #97C9FF",
"q$	c #3A6FD7",
"r$	c #4073D3",
"s$	c #9DCFFF",
"t$	c #7CBAFF",
"u$	c #7BB9FF",
"v$	c #79B7FF",
"w$	c #78ADFF",
"x$	c #0F3384",
"y$	c #6098F8",
"z$	c #99CBFF",
"A$	c #7AB9FF",
"B$	c #5286E0",
"C$	c #2961D9",
"D$	c #7AADFF",
"E$	c #9FCFFE",
"F$	c #7DBBFF",
"G$	c #7BB8FF",
"H$	c #A0D0FF",
"I$	c #69A3FF",
"J$	c #0A2666",
"K$	c #2653AB",
"L$	c #9CCDFF",
"M$	c #7FBCFF",
"N$	c #80BDFF",
"O$	c #85BFFF",
"P$	c #A6D3FF",
"Q$	c #669FFB",
"R$	c #1947A4",
"S$	c #1141A6",
"T$	c #83B6FF",
"U$	c #96CAFF",
"V$	c #7FBBFF",
"W$	c #80BCFF",
"X$	c #85C1FF",
"Y$	c #9ACBFF",
"Z$	c #2F66D3",
"`$	c #184295",
" %	c #4F88EC",
".%	c #93C5FF",
"+%	c #A1D0FF",
"@%	c #82BFFF",
"#%	c #81BEFF",
"$%	c #7EBBFF",
"%%	c #A1D1FF",
"&%	c #8CC2FF",
"*%	c #1F4EA8",
"=%	c #7AB2FF",
"-%	c #A7D5FF",
";%	c #83C0FF",
">%	c #87C2FF",
",%	c #90C7FF",
"'%	c #AAD6FF",
")%	c #8FC1FF",
"!%	c #71A7FE",
"~%	c #A2CDFD",
"{%	c #8EC7FF",
"]%	c #84C0FF",
"^%	c #94CAFF",
"/%	c #A2CBFD",
"(%	c #76A8FA",
"_%	c #96C7FF",
":%	c #A9D7FF",
"<%	c #9ACEFF",
"[%	c #86C2FF",
"}%	c #A5D3FF",
"|%	c #3167CA",
"1%	c #00081B",
"2%	c #3A75D9",
"3%	c #AED9FF",
"4%	c #9DD0FF",
"5%	c #89C4FF",
"6%	c #8DC7FF",
"7%	c #8BC5FF",
"8%	c #8FC7FF",
"9%	c #A1D2FF",
"0%	c #ACD7FF",
"a%	c #A2D2FF",
"b%	c #8DC6FF",
"c%	c #8CC7FF",
"d%	c #8AC6FF",
"e%	c #9CCFFF",
"f%	c #ACD6FF",
"g%	c #A8D6FF",
"h%	c #9ED1FF",
"i%	c #90C8FF",
"j%	c #8AC5FF",
"k%	c #8CC6FF",
"l%	c #91C8FF",
"m%	c #B1DCFF",
"n%	c #9ED0FF",
"o%	c #356FD5",
"p%	c #010F2C",
"q%	c #63A1FB",
"r%	c #BFE5FF",
"s%	c #A2D5FF",
"t%	c #90CBFF",
"u%	c #94CCFF",
"v%	c #92CCFF",
"w%	c #93CCFF",
"x%	c #95CDFF",
"y%	c #96CEFF",
"z%	c #91CCFF",
"A%	c #92CBFF",
"B%	c #94CDFF",
"C%	c #AAD9FF",
"D%	c #BDE5FF",
"E%	c #8CC1FF",
"F%	c #2A5FBF",
"G%	c #000D27",
"H%	c #0F3477",
"I%	c #6BA8FC",
"J%	c #BFE6FF",
"K%	c #B3DFFF",
"L%	c #9CD2FF",
"M%	c #97D0FF",
"N%	c #98D0FF",
"O%	c #9AD1FF",
"P%	c #99D1FF",
"Q%	c #A0D5FF",
"R%	c #B2DEFF",
"S%	c #5E9AF3",
"T%	c #153E86",
"U%	c #092961",
"V%	c #4D8AE8",
"W%	c #C2E9FF",
"X%	c #BFE9FF",
"Y%	c #A5D8FF",
"Z%	c #9ED5FF",
"`%	c #9DD5FF",
" &	c #A1D6FF",
".&	c #AFDEFF",
"+&	c #BAE5FF",
"@&	c #BEE8FF",
"#&	c #C0E9FF",
"$&	c #BBE5FF",
"%&	c #9ECFFF",
"&&	c #649EF3",
"*&	c #21529F",
"=&	c #001233",
"-&	c #19458E",
";&	c #4880D4",
">&	c #6CA3EB",
",&	c #A5CDFD",
"'&	c #C4E8FF",
")&	c #A3D9FF",
"!&	c #A1D8FF",
"~&	c #BAE4FF",
"{&	c #B2D8FF",
"]&	c #89BDF9",
"^&	c #74AAEA",
"/&	c #588EDB",
"(&	c #3568B9",
"_&	c #153C7C",
":&	c #02102D",
"<&	c #01296E",
"[&	c #C6EDFF",
"}&	c #A9DEFF",
"|&	c #AADEFF",
"1&	c #ADE0FF",
"2&	c #C9F0FF",
"3&	c #548EDE",
"4&	c #00215D",
"5&	c #011231",
"6&	c #00081A",
"7&	c #1F4C8F",
"8&	c #B0DEFF",
"9&	c #C2ECFF",
"0&	c #AEE2FF",
"a&	c #B0E3FF",
"b&	c #B8E8FF",
"c&	c #C7EFFF",
"d&	c #3465A8",
"e&	c #4F8CE5",
"f&	c #D1F3FF",
"g&	c #BBEBFF",
"h&	c #B4E7FF",
"i&	c #B3E7FF",
"j&	c #C4F1FF",
"k&	c #1E4988",
"l&	c #99C9FD",
"m&	c #EFFFFF",
"n&	c #D9FCFF",
"o&	c #DAFCFF",
"p&	c #E9FFFF",
"q&	c #ABDCFF",
"r&	c #0D2F61",
"s&	c #6EA9F2",
"t&	c #7CADE8",
"u&	c #79ACE7",
"v&	c #7AACE7",
"w&	c #7EB1EC",
"x&	c #5997E5",
"y&	c #0B2142",
"z&	c #00081D",
"A&	c #00081E",
"B&	c #010B1C",
"                                                                        . +                     ",
"                                                                        @ # $ %                 ",
"                                                                        & * = - ;               ",
"                                                                          > , ' ) !             ",
"                                                  ~ { ] ^ ^ / ( _     : <     [ } } |           ",
"                                                  1 2 3 4 5 6 7 8     9 0 a     b c d           ",
"                                                  e f g h i j k       l m n o     p q r         ",
"                                                  s t u v w x y         z A B C   D B E         ",
"                                                F G H I J K L M     N     O P Q     R S T       ",
"                                                U V W X Y Z `  .    ..+.  @.#.$.    %.&.*.      ",
"                                                =.-.;.>.K ,.'.      ).!.    ~.{.].  ^./.(.      ",
"                                                _.:.<.[.}.|.1.        2.      3.                ",
"                                              4.5.6.7.8.9.0.a.                                  ",
"                b.c.d.e.f.g.h.i.              j.k.l.m.n.o.p.q.                                  ",
"            r.s.t.u.v.w.x.y.z.A.B.            C.D.E.F.G.H.I.      J.K.L.M.N.O.P.                ",
"          Q.R.S.T.U.U.V.W.X.Y.Z.`. +        .+++w.@+F.#+$+%+      &+*+=+D.T.-+;+                ",
"            >+,+'+)+!+~+{+]+9 ^+/+(+        _+:+<+[+}+|+1+2+      3+4+5+6+7+8+9+                ",
"            0+a+b+c+d+b+e+f+g+h+i+j+        k+l+V.m+T.n+o+        p+4+q+r+s+t+u+                ",
"              v+w+x+y+z+A+c+B+C+D+E+        F+G+H+I+C+J+K+        L+M+N+O+s+P+Q+                ",
"              R+S+T+U+V+W+X+c+C+*+Y+      Z+`+ @I+A+.@`.+@        @@#@$@%@&@*@=@                ",
"                -@  ;@>@,@'@X+)@a+!@      ~@{@T.]@A+^@/@(@        _@:@<@[@}@|@1@                ",
"                    2@3@4@5@6@7@8@9@      0@a@b@b+c@d@e@          f@g@h@i@j@k@l@                ",
"                    m@n@o@p@q@r@s@        t@u@v@w@l+x@y@          z@A@B@C@D@E@F@                ",
"                    G@H@I@J@K@L@M@      N@O@P@Q@R@S@T@U@          V@W@X@Y@Z@`@ #                ",
"                  .#+#@###$#%#&#*#      =#-#;#;#>#,#'#)#        !#~#{#]#^#/#(#_#                ",
"                  :#<#,#@#/#[#}#        |#1#2#/#3#<#4#          5#<#/#/#2#1#6#7#                ",
"                  8#9#0#a#b#c#d#      e#f#<#g#g#h#i#j#          k#l#0#m#n#o#p#                  ",
"                q#r#s#b#t#u#v#w#      x#y#[#z#b#A#B#C#        D#E#F#G#H#l#I#J#                  ",
"                K#L#9#F#M#N#O#        P#Q#M#R#M#S#T#U#        V#N#M#R#F#W#M+X#                  ",
"                Y#Z#`# $.$+$@$        #$$$%$&$*$=$-$        ;$>$,$ $`#'$)$!$                    ",
"                ~${$]$*$^$/$($      _$:$<$*$.$<$Z#[$      }$|$1$2$3$4$5$6$7$                    ",
"                8$9$0$a$b$d c$      d$e$f$a$g$h$i$j$    k$l$m$^$n$^$o$p$q$                      ",
"                r$s$t$u$v$p$w$x$    y$z$<$u$A$s$B$    C$D$E$F$G$G$u$H$I$J$                      ",
"                K$L$h$M$N$O$P$Q$R$S$T$U$V$W$X$Y$Z$`$ %.%+%@%N$#%$%%%&%*%                        ",
"                  =%-%;%>%X$,%'%)%!%~%{%X$]%^%/%(%_%:%<%X$[%X$]%}%L$|%1%                        ",
"                  2%3%4%5%6%7%8%9%0%a%b%c%d%e%f%g%h%i%j%k%j%l%m%n%o%p%                          ",
"                    q%r%s%t%u%u%v%w%v%x%x%x%y%w%w%z%A%t%B%C%D%E%F%G%                            ",
"                    H%I%J%K%L%M%M%N%O%O%O%P%M%M%M%P%Q%R%J%:%S%T%                                ",
"                      U%V%9%W%X%K%Y%Z%Z%`% &.&+&@&#&$&%&&&*&=&                                  ",
"                          -&;&>&,&'&)&)&!&~&{&]&^&/&(&_&:&                                      ",
"                              <&W#[&}&|&1&2&3&4&5&6&                                            ",
"                              7&8&9&0&a&b&c&d&                                                  ",
"                              e&f&g&h&i&j&+&k&                                                  ",
"                              l&m&n&o&n&p&q&r&                                                  ",
"                              s&t&u&u&v&w&x&y&                                                  ",
"                                  z&z&z&A&B&                                                    ",
"                                                                                                ",
"                                                                                                "};
