/* XPM */
static char * python_xpm[] = {
"48 48 810 2",
"  	c None",
". 	c #274E70",
"+ 	c #264D6F",
"@ 	c #264C6E",
"# 	c #254C6E",
"$ 	c #254B6D",
"% 	c #244B6D",
"& 	c #2D5577",
"* 	c #345D7F",
"= 	c #376183",
"- 	c #335B7E",
"; 	c #2C5476",
"> 	c #284F71",
", 	c #2C5376",
"' 	c #3B6589",
") 	c #527EA2",
"! 	c #6290B5",
"~ 	c #6695BA",
"{ 	c #6593B8",
"] 	c #6492B7",
"^ 	c #6693B9",
"/ 	c #618DB2",
"( 	c #517B9F",
"_ 	c #3A6385",
": 	c #2C5375",
"< 	c #49759A",
"[ 	c #6E97BB",
"} 	c #7EA6C6",
"| 	c #608FB7",
"1 	c #5D8CB4",
"2 	c #5789B1",
"3 	c #5586AF",
"4 	c #5485AE",
"5 	c #5586AE",
"6 	c #5887AF",
"7 	c #5D8BB1",
"8 	c #638FB5",
"9 	c #6A95B8",
"0 	c #5F89AC",
"a 	c #456D90",
"b 	c #285072",
"c 	c #2A5173",
"d 	c #628FB5",
"e 	c #8CAFCC",
"f 	c #ECF2F7",
"g 	c #F4F7FA",
"h 	c #9EBBD3",
"i 	c #4D81AC",
"j 	c #4B80AB",
"k 	c #4B7FAB",
"l 	c #4B7EAA",
"m 	c #4B7EA9",
"n 	c #4C7FA8",
"o 	c #4E7FA9",
"p 	c #5383AB",
"q 	c #6690B3",
"r 	c #6992B5",
"s 	c #497193",
"t 	c #547FA3",
"u 	c #6E99BF",
"v 	c #BDD1E1",
"w 	c #FFFFFF",
"x 	c #DDE7EF",
"y 	c #5A8BB3",
"z 	c #4F83AD",
"A 	c #4F82AD",
"B 	c #4F82AC",
"C 	c #4F81AB",
"D 	c #4F81AA",
"E 	c #4F80A9",
"F 	c #4E7EA7",
"G 	c #6690B2",
"H 	c #678EAF",
"I 	c #2D5476",
"J 	c #234A6C",
"K 	c #6691B5",
"L 	c #6D99BE",
"M 	c #9AB8D1",
"N 	c #C5D6E4",
"O 	c #5789B2",
"P 	c #5286AE",
"Q 	c #5285AE",
"R 	c #5285AD",
"S 	c #5284AD",
"T 	c #5284AB",
"U 	c #5283AB",
"V 	c #5283AA",
"W 	c #5282A9",
"X 	c #5D89AE",
"Y 	c #7299B9",
"Z 	c #2F5678",
"` 	c #6A93B7",
" .	c #719BBF",
"..	c #5A8BB5",
"+.	c #84A8C7",
"@.	c #95B5CF",
"#.	c #5687B1",
"$.	c #5687B0",
"%.	c #5687AF",
"&.	c #5686AE",
"*.	c #5687AE",
"=.	c #5686AD",
"-.	c #5686AC",
";.	c #5684AC",
">.	c #608CB0",
",.	c #769CBC",
"'.	c #6C96B8",
").	c #759FC2",
"!.	c #6996BC",
"~.	c #6894BB",
"{.	c #6895BA",
"].	c #6895B9",
"^.	c #6894B9",
"/.	c #6894B8",
"(.	c #6893B8",
"_.	c #6591B5",
":.	c #5B8AB0",
"<.	c #5A88AF",
"[.	c #5A88AE",
"}.	c #5A87AD",
"|.	c #648EB2",
"1.	c #799EBD",
"2.	c #305778",
"3.	c #6A91B4",
"4.	c #739CBE",
"5.	c #749CBD",
"6.	c #759CBE",
"7.	c #759CBD",
"8.	c #749CBC",
"9.	c #749CBB",
"0.	c #749BBB",
"a.	c #789EBF",
"b.	c #5F8DB2",
"c.	c #5D8BB0",
"d.	c #5D8AAF",
"e.	c #6891B3",
"f.	c #2E5577",
"g.	c #658BAB",
"h.	c #789FBF",
"i.	c #6390B4",
"j.	c #628EB3",
"k.	c #618EB2",
"l.	c #618DB1",
"m.	c #6A93B5",
"n.	c #638EB2",
"o.	c #2C5477",
"p.	c #2B5274",
"q.	c #32597B",
"r.	c #385E80",
"s.	c #375E80",
"t.	c #365C7F",
"u.	c #365C7E",
"v.	c #355C7E",
"w.	c #345C7E",
"x.	c #345B7D",
"y.	c #335B7C",
"z.	c #315879",
"A.	c #688DAD",
"B.	c #7BA2C1",
"C.	c #6793B5",
"D.	c #6691B4",
"E.	c #6590B3",
"F.	c #5B89AF",
"G.	c #487AA4",
"H.	c #5987AD",
"I.	c #294F6E",
"J.	c #2D5576",
"K.	c #6991B2",
"L.	c #86ADCD",
"M.	c #88B0D0",
"N.	c #88AFCF",
"O.	c #88AECF",
"P.	c #88AECE",
"Q.	c #88AECD",
"R.	c #88AECC",
"S.	c #89ADCC",
"T.	c #89ADCB",
"U.	c #89ACCB",
"V.	c #8AADCB",
"W.	c #87AAC7",
"X.	c #81A5C3",
"Y.	c #6793B6",
"Z.	c #5887AE",
"`.	c #477BA5",
" +	c #356D9C",
".+	c #4276A1",
"++	c #5A87AE",
"@+	c #365564",
"#+	c #BA9401",
"$+	c #B99100",
"%+	c #B78F00",
"&+	c #B88F00",
"*+	c #B89000",
"=+	c #B99200",
"-+	c #BB9400",
";+	c #87AECE",
">+	c #78A3C6",
",+	c #729EC3",
"'+	c #739EC2",
")+	c #749FC3",
"!+	c #749FC2",
"~+	c #759EC2",
"{+	c #769FC2",
"]+	c #77A0C2",
"^+	c #759EC1",
"/+	c #6E99BD",
"(+	c #6C97BB",
"_+	c #6A96BA",
":+	c #6591B7",
"<+	c #5E8DB3",
"[+	c #487CA7",
"}+	c #3B73A1",
"|+	c #386F9E",
"1+	c #366E9C",
"2+	c #356E9C",
"3+	c #4276A2",
"4+	c #355565",
"5+	c #DBBF4C",
"6+	c #F0DB7E",
"7+	c #EFDA7C",
"8+	c #EFD97B",
"9+	c #E8D06C",
"0+	c #CCAA28",
"a+	c #BA9300",
"b+	c #365D7F",
"c+	c #8EB3D3",
"d+	c #7DA7C9",
"e+	c #709EC3",
"f+	c #719DC2",
"g+	c #719EC2",
"h+	c #6E9BC0",
"i+	c #6A98BD",
"j+	c #5B8DB6",
"k+	c #487FAE",
"l+	c #3C77A7",
"m+	c #3470A3",
"n+	c #3370A2",
"o+	c #336FA1",
"p+	c #346FA0",
"q+	c #346F9F",
"r+	c #356F9E",
"s+	c #366F9E",
"t+	c #366E9D",
"u+	c #E6CE67",
"v+	c #FFF2A9",
"w+	c #FFF0A3",
"x+	c #FFF0A2",
"y+	c #FFF1A5",
"z+	c #FFF4AD",
"A+	c #D4B63C",
"B+	c #BA9200",
"C+	c #22496B",
"D+	c #698EAF",
"E+	c #8CB1D0",
"F+	c #7AA4C7",
"G+	c #74A0C4",
"H+	c #76A1C5",
"I+	c #5C8EB8",
"J+	c #4881AF",
"K+	c #3875A7",
"L+	c #3472A5",
"M+	c #3672A5",
"N+	c #3673A5",
"O+	c #3772A4",
"P+	c #3672A3",
"Q+	c #3671A2",
"R+	c #3670A1",
"S+	c #3670A0",
"T+	c #36709F",
"U+	c #4377A2",
"V+	c #365565",
"W+	c #B99000",
"X+	c #E6CE6A",
"Y+	c #FFF1A9",
"Z+	c #FFEA83",
"`+	c #FFE87A",
" @	c #FFE981",
".@	c #FFEE9F",
"+@	c #FFF2AC",
"@@	c #C39E13",
"#@	c #85A9C8",
"$@	c #8CB0CF",
"%@	c #78A3C7",
"&@	c #7CA5C7",
"*@	c #6495BD",
"=@	c #3F7BAC",
"-@	c #3875A9",
";@	c #3775A8",
">@	c #3774A7",
",@	c #3774A6",
"'@	c #3773A6",
")@	c #3773A5",
"!@	c #346D9B",
"~@	c #4E7FA7",
"{@	c #5380A6",
"]@	c #2B5375",
"^@	c #395762",
"/@	c #BF9300",
"(@	c #EDD87E",
"_@	c #FFF1AB",
":@	c #FFE982",
"<@	c #FFEB8A",
"[@	c #FFF2AE",
"}@	c #E4CC67",
"|@	c #446A8A",
"1@	c #8EB1CE",
"2@	c #89AECE",
"3@	c #75A1C5",
"4@	c #4B83B3",
"5@	c #3474A9",
"6@	c #3775A9",
"7@	c #3872A4",
"8@	c #3773A4",
"9@	c #3772A3",
"0@	c #3772A2",
"a@	c #3771A2",
"b@	c #3771A1",
"c@	c #3771A0",
"d@	c #37709F",
"e@	c #376F9E",
"f@	c #376F9D",
"g@	c #4376A1",
"h@	c #5987AC",
"i@	c #457094",
"j@	c #244D74",
"k@	c #6D703B",
"l@	c #C09700",
"m@	c #F7E69C",
"n@	c #FFF0AB",
"o@	c #FFE881",
"p@	c #FFE880",
"q@	c #FFF0AC",
"r@	c #F9E89F",
"s@	c #557A9A",
"t@	c #97B8D4",
"u@	c #729FC5",
"v@	c #407DAF",
"w@	c #3575AA",
"x@	c #3776AA",
"y@	c #3F79A9",
"z@	c #477EAC",
"A@	c #4C81AE",
"B@	c #4E83AE",
"C@	c #4F83AE",
"D@	c #4F80AA",
"E@	c #5082AA",
"F@	c #5A89AF",
"G@	c #4F7CA1",
"H@	c #2B5479",
"I@	c #2F5169",
"J@	c #B59102",
"K@	c #CFAF33",
"L@	c #FDEEAF",
"M@	c #FFEEA3",
"N@	c #FFE883",
"O@	c #FFE885",
"P@	c #FFE985",
"Q@	c #FFEFA7",
"R@	c #FBEBA9",
"S@	c #C6A31D",
"T@	c #BB9300",
"U@	c #6286A4",
"V@	c #82AACC",
"W@	c #3D7BAE",
"X@	c #3676AB",
"Y@	c #3776AB",
"Z@	c #3673A7",
"`@	c #3A76A7",
" #	c #4F84B1",
".#	c #578AB4",
"+#	c #5A8CB6",
"@#	c #588AB3",
"##	c #5282AB",
"$#	c #5181A9",
"%#	c #5180A8",
"&#	c #5180A7",
"*#	c #5180A6",
"=#	c #517FA5",
"-#	c #4E7CA2",
";#	c #3F6A8E",
">#	c #295173",
",#	c #264D70",
"'#	c #99841A",
")#	c #BE9703",
"!#	c #EBD683",
"~#	c #FFF2BA",
"{#	c #FFEB90",
"]#	c #FFEA8C",
"^#	c #FFEA8B",
"/#	c #FFEDA0",
"(#	c #FDEFB4",
"_#	c #D0B23A",
":#	c #4F799E",
"<#	c #5B90BD",
"[#	c #3878AC",
"}#	c #3E79AA",
"|#	c #578AB5",
"1#	c #5789B4",
"2#	c #4B7BA3",
"3#	c #315C80",
"4#	c #234A6D",
"5#	c #234A6E",
"6#	c #234B6E",
"7#	c #244B6E",
"8#	c #294E6C",
"9#	c #385663",
"0#	c #8F7F20",
"a#	c #BC9500",
"b#	c #DAC059",
"c#	c #FFF8C6",
"d#	c #FFEEA6",
"e#	c #FFEB92",
"f#	c #FFEB93",
"g#	c #FFEC9C",
"h#	c #FFF3BE",
"i#	c #D9BD51",
"j#	c #274D6F",
"k#	c #3E6D95",
"l#	c #5A8FBC",
"m#	c #3A79AD",
"n#	c #3C78AA",
"o#	c #5689B5",
"p#	c #5588B2",
"q#	c #38648A",
"r#	c #204A73",
"s#	c #385561",
"t#	c #5F6846",
"u#	c #6E703A",
"v#	c #717138",
"w#	c #727137",
"x#	c #747336",
"y#	c #877B26",
"z#	c #AF8C01",
"A#	c #C49C08",
"B#	c #E2CB70",
"C#	c #FFF6C7",
"D#	c #FFF1B3",
"E#	c #FFEC99",
"F#	c #FFEB98",
"G#	c #FFEB99",
"H#	c #FFEDA1",
"I#	c #DDBF4A",
"J#	c #3D6A91",
"K#	c #598EBB",
"L#	c #3E7CB0",
"M#	c #3674A8",
"N#	c #5288B4",
"O#	c #325C80",
"P#	c #254D70",
"Q#	c #616A44",
"R#	c #AE8E09",
"S#	c #B79000",
"T#	c #BA9100",
"U#	c #BA9000",
"V#	c #B98F00",
"W#	c #BE9603",
"X#	c #D9BE55",
"Y#	c #F6E8AC",
"Z#	c #FFF4C6",
"`#	c #FFF2B8",
" $	c #FFE472",
".$	c #FFEA90",
"+$	c #E0C14A",
"@$	c #376288",
"#$	c #578CB9",
"$$	c #4681B2",
"%$	c #3675A9",
"&$	c #437EAE",
"*$	c #598DB7",
"=$	c #406E94",
"-$	c #254D72",
";$	c #5E6846",
">$	c #C29700",
",$	c #C7A31D",
"'$	c #E5CF77",
")$	c #F4E4A6",
"!$	c #F6E7AC",
"~$	c #F6E7AD",
"{$	c #F7E8AE",
"]$	c #F8EAAF",
"^$	c #F8EAB1",
"/$	c #F9EBB2",
"($	c #F9ECB3",
"_$	c #FAECB5",
":$	c #FDF2C1",
"<$	c #FFFAD2",
"[$	c #FFF8CD",
"}$	c #FFF1B5",
"|$	c #FFEEA5",
"1$	c #FFEEA7",
"2$	c #FFEEA8",
"3$	c #FFEDA3",
"4$	c #FFEA96",
"5$	c #FFDE59",
"6$	c #FFDA45",
"7$	c #FFEA8E",
"8$	c #DEBF44",
"9$	c #274E6F",
"0$	c #2F587C",
"a$	c #5589B6",
"b$	c #4E87B6",
"c$	c #3575AB",
"d$	c #5187B3",
"e$	c #5588B1",
"f$	c #2B557B",
"g$	c #415A5C",
"h$	c #BF9600",
"i$	c #D2B43E",
"j$	c #FFF3C5",
"k$	c #FFF8D4",
"l$	c #FFF5C9",
"m$	c #FFF5C7",
"n$	c #FFF5CB",
"o$	c #FFF4C8",
"p$	c #FFF3C1",
"q$	c #FFF1B8",
"r$	c #FFF0B3",
"s$	c #FFEFB1",
"t$	c #FFEEA9",
"u$	c #FFEC9E",
"v$	c #FFE88D",
"w$	c #FFE478",
"x$	c #FFDF5C",
"y$	c #FFD93D",
"z$	c #FFD839",
"A$	c #FFDC50",
"B$	c #FFE88A",
"C$	c #D8B739",
"D$	c #5486B3",
"E$	c #548BB8",
"F$	c #3877AC",
"G$	c #3978AB",
"H$	c #558AB6",
"I$	c #4E80A8",
"J$	c #1D4872",
"K$	c #908020",
"L$	c #C19A0A",
"M$	c #F2E2A3",
"N$	c #FFF7D4",
"O$	c #FFF2BF",
"P$	c #FFF0B5",
"Q$	c #FFF0B6",
"R$	c #FFF1BA",
"S$	c #FFEA98",
"T$	c #FFE57C",
"U$	c #FFE065",
"V$	c #FFDD55",
"W$	c #FFDC4E",
"X$	c #FFDA4A",
"Y$	c #FFDA49",
"Z$	c #FFDA48",
"`$	c #FFD946",
" %	c #FFD944",
".%	c #FFD840",
"+%	c #FFD73B",
"@%	c #FFD73A",
"#%	c #FFD738",
"$%	c #FCE482",
"%%	c #CEAA22",
"&%	c #43749D",
"*%	c #588DBB",
"=%	c #417DB0",
"-%	c #3C79AC",
";%	c #568BB7",
">%	c #47779E",
",%	c #1D4773",
"'%	c #AB8D0C",
")%	c #C29E16",
"!%	c #FFF5D2",
"~%	c #FFF5CF",
"{%	c #FFF1BB",
"]%	c #FFF1BC",
"^%	c #FFF1BD",
"/%	c #FFEB9F",
"(%	c #FFDF64",
"_%	c #FFD634",
":%	c #FFD636",
"<%	c #FFD737",
"[%	c #FFD739",
"}%	c #FFE47B",
"|%	c #F9DE79",
"1%	c #C09A08",
"2%	c #2D5579",
"3%	c #5189B7",
"4%	c #3F7CAE",
"5%	c #3A78AC",
"6%	c #407CAE",
"7%	c #578CB7",
"8%	c #45749C",
"9%	c #204970",
"0%	c #C39F19",
"a%	c #FFFBE3",
"b%	c #FFF5CD",
"c%	c #FFF3C3",
"d%	c #FFF4C7",
"e%	c #FFF3C2",
"f%	c #FFE788",
"g%	c #FFDB53",
"h%	c #FFD431",
"i%	c #FFD533",
"j%	c #FFD536",
"k%	c #FFD537",
"l%	c #FFD637",
"m%	c #FFE682",
"n%	c #E9CA56",
"o%	c #39658B",
"p%	c #5A90BD",
"q%	c #578DB9",
"r%	c #568CB7",
"s%	c #598DB9",
"t%	c #45759C",
"u%	c #204971",
"v%	c #C39F1A",
"w%	c #FFFDE9",
"x%	c #FFF6D2",
"y%	c #FFEDA8",
"z%	c #FFD94A",
"A%	c #FFD534",
"B%	c #FFD535",
"C%	c #FFDE5F",
"D%	c #C7A114",
"E%	c #345E83",
"F%	c #4879A1",
"G%	c #4D7EA7",
"H%	c #4C7EA7",
"I%	c #4D7FA7",
"J%	c #3E6B92",
"K%	c #C3A01A",
"L%	c #FFFEEE",
"M%	c #FFF7D7",
"N%	c #FFE78F",
"O%	c #FFD430",
"P%	c #FFD432",
"Q%	c #FFD434",
"R%	c #FFD743",
"S%	c #FFD948",
"T%	c #FFD947",
"U%	c #FFD845",
"V%	c #FFD843",
"W%	c #FFD842",
"X%	c #FFDB56",
"Y%	c #FFE783",
"Z%	c #EBCC5A",
"`%	c #264D6E",
" &	c #244B6C",
".&	c #224C74",
"+&	c #AA8C0D",
"@&	c #C3A01B",
"#&	c #FFE37D",
"$&	c #FFD128",
"%&	c #FFD330",
"&&	c #FFD331",
"*&	c #FFD436",
"=&	c #FFE175",
"-&	c #FFE687",
";&	c #FFE98C",
">&	c #FFE989",
",&	c #EED060",
"'&	c #C09A0A",
")&	c #B89302",
"!&	c #C39F16",
"~&	c #FFEFA9",
"{&	c #FFD94B",
"]&	c #FFD22D",
"^&	c #FFD22E",
"/&	c #FFD333",
"(&	c #FFE272",
"_&	c #EFD05F",
":&	c #C49F0F",
"<&	c #C8A214",
"[&	c #C8A215",
"}&	c #C8A316",
"|&	c #C9A41A",
"1&	c #C9A41B",
"2&	c #C39F11",
"3&	c #BE9806",
"4&	c #C39D0E",
"5&	c #FFE683",
"6&	c #FFD84A",
"7&	c #FFD12B",
"8&	c #FFD12D",
"9&	c #FFD232",
"0&	c #FFE171",
"a&	c #EECE5C",
"b&	c #BF9806",
"c&	c #C19B0B",
"d&	c #C19B0A",
"e&	c #C09A09",
"f&	c #FFD748",
"g&	c #FFD029",
"h&	c #FFD12A",
"i&	c #FFD230",
"j&	c #FFE070",
"k&	c #FEE27D",
"l&	c #FADD75",
"m&	c #FADC72",
"n&	c #F2D464",
"o&	c #B89100",
"p&	c #FFE482",
"q&	c #FFD647",
"r&	c #FFCF27",
"s&	c #FFCF28",
"t&	c #FFD02C",
"u&	c #FFD74D",
"v&	c #FFDA55",
"w&	c #FFD950",
"x&	c #FFD951",
"y&	c #FFDA56",
"z&	c #FFE178",
"A&	c #F7D96D",
"B&	c #B59000",
"C&	c #C39D0D",
"D&	c #FFE480",
"E&	c #FFD645",
"F&	c #FFCF25",
"G&	c #FFCE25",
"H&	c #FFCE24",
"I&	c #FFD336",
"J&	c #FFE58E",
"K&	c #FFE37F",
"L&	c #FFD02E",
"M&	c #FFDF72",
"N&	c #F7D86B",
"O&	c #B48E00",
"P&	c #FFE47F",
"Q&	c #FFD442",
"R&	c #FFCD23",
"S&	c #FFCF2A",
"T&	c #FFEEB3",
"U&	c #FFE796",
"V&	c #FFDF71",
"W&	c #F6D869",
"X&	c #AE8A00",
"Y&	c #FADA6F",
"Z&	c #FFDC64",
"`&	c #FFCC1E",
" *	c #FFCD22",
".*	c #FFCF2D",
"+*	c #FFF2C7",
"@*	c #FFF2C5",
"#*	c #FFE17A",
"$*	c #E8C850",
"%*	c #775E00",
"&*	c #BE9701",
"**	c #E0BD3F",
"=*	c #FFE077",
"-*	c #FFDE6D",
";*	c #FFD136",
">*	c #FFCD27",
",*	c #FFCC20",
"'*	c #FFCC21",
")*	c #FFCC23",
"!*	c #FFDE72",
"~*	c #FFFBEF",
"{*	c #FFFBEC",
"]*	c #FFE794",
"^*	c #F9D96A",
"/*	c #A98500",
"(*	c #000000",
"_*	c #9F7D00",
":*	c #C19903",
"<*	c #DCB839",
"[*	c #F8D86A",
"}*	c #FFE47E",
"|*	c #FFDE6B",
"1*	c #FFD959",
"2*	c #FFD64B",
"3*	c #FFD544",
"4*	c #FFD340",
"5*	c #FFD445",
"6*	c #FFDD65",
"7*	c #FFE582",
"8*	c #FCDC72",
"9*	c #E4C142",
"0*	c #C29C0A",
"a*	c #594700",
"b*	c #191400",
"c*	c #9A7900",
"d*	c #BE9600",
"e*	c #D2AD26",
"f*	c #EDC953",
"g*	c #FFDE73",
"h*	c #FFE27B",
"i*	c #FFE179",
"j*	c #FFE37B",
"k*	c #EDCB54",
"l*	c #D4AF29",
"m*	c #C19A09",
"n*	c #BF9802",
"o*	c #B38E00",
"p*	c #433500",
"q*	c #6A5400",
"r*	c #AC8900",
"s*	c #B68F00",
"t*	c #C39C0C",
"u*	c #CBA61A",
"v*	c #D1AB22",
"w*	c #CDA719",
"x*	c #C59E0D",
"y*	c #B08B00",
"z*	c #7E6400",
"A*	c #4B3B00",
"B*	c #755C00",
"C*	c #8F7100",
"D*	c #9C7C00",
"E*	c #A38000",
"F*	c #A88400",
"G*	c #A58200",
"H*	c #907200",
"I*	c #534200",
"                                                                                                ",
"                                        . + @ # @ + .                                           ",
"                                  . + $ % & * = - ; $ # + .                                     ",
"                              . > , ' ) ! ~ { ] { ^ / ( _ : . .                                 ",
"                            + ; < [ } | 1 2 3 4 5 6 7 8 9 0 a b .                               ",
"                          + c d e f g h i j k j l m n o p q r s >                               ",
"                          % t u v w w x y z A B C C D E E F G H I .                             ",
"                          J K L M w w N O P Q R S S T U V W X Y Z .                             ",
"                          J `  ...+.@.| #.$.$.%.&.&.*.=.-.;.>.,.Z .                             ",
"                          J '.).!.~.^ {.{.].^./.(._.:.<.[.}.|.1.2..                             ",
"                          J 3.4.5.6.7.8.8.9.0.0.a.5.b.c.c.d.e.1.Z .                             ",
"              . . . . . . + I f.f.f.f.f.f.f.f.: g.h.i.j.k.l.m.n.o..                             ",
"            . p.q.r.s.s.s.t.u.u.u.u.v.w.x.x.y.z.A.B.C.D.E.F.G.H.o.I.                            ",
"          . J.K.L.M.N.N.O.P.Q.Q.R.S.T.T.T.T.U.V.W.X.Y.Z.`. +.+++o.@+#+$+%+%+&+*+=+-+            ",
"        . J H ;+>+,+,+'+)+!+~+{+]+^+/+(+_+/.:+<+5 [+}+|+1+2+3+++o.4+*+5+6+7+8+9+0+a+-+          ",
"        # b+c+d+e+e+f+g+h+i+j+k+l+m+m+n+o+o+p+q+r+r+s+t+1+2+3+++o.4+%+u+v+w+x+y+z+A+B+          ",
"        C+D+E+F+G+H+f+I+J+K+L+M+N+O+O+P+Q+Q+R+S+T+s+s+t+1+2+U+H.o.V+W+X+Y+Z+`+ @.@+@@@a+        ",
"      . J.#@$@%@&@*@=@-@;@>@,@'@)@O+O+P+Q+Q+R+S+T+s+s+t+t+!@~@{@]@^@/@(@_@:@`+`+<@[@}@*+        ",
"      + |@1@2@3@4@5@6@6@;@>@,@'@)@O+7@8@9@0@a@b@c@d@d@e@f@g@h@i@j@k@l@m@n@o@p@p@o@q@r@-+        ",
"      + s@t@u@v@w@x@x@6@;@>@,@M+y@z@A@B@C@C@A A B C C D@E@F@G@H@I@J@K@L@M@N@O@P@N@Q@R@S@T@      ",
"      + U@V@W@X@Y@x@x@6@;@Z@`@ #.#+#@###$#$#%#%#%#&#*#=#-#;#>#,#'#)#!#~#{#]#]#]#^#/#(#_#a+      ",
"      . :#<#[#Y@Y@x@x@6@;@}#|#1#2#3#4#5#5#5#6#6#6#6#6#6#7#8#9#0#a#b#c#d#e#f#f#f#e#g#h#i#a+      ",
"      j#k#l#m#Y@Y@x@x@6@n#o#p#q#r#s#t#u#v#v#v#v#w#w#w#w#x#y#z#A#B#C#D#E#F#F#F#G#G#H#D#I#a+      ",
"      j#J#K#L#X@Y@x@x@M#N#.#O#P#Q#R#S#T#U#U#W+W+W+W+W+W+V#W#X#Y#Z#`#H#/#/#/#/#/#M@ $.$+$-+      ",
"      j#@$#$$$X@Y@x@%$&$*$=$-$;$>$,$'$)$!$~${$]$^$/$($_$:$<$[$Z#}$|$1$1$2$2$3$4$5$6$7$8$a+      ",
"      9$0$a$b$c$Y@x@%$d$e$f$g$h$i$j$k$l$m$m$m$m$m$m$l$n$n$o$p$q$r$s$t$u$v$w$x$y$z$A$B$C$a+      ",
"        . D$E$F$Y@x@G$H$I$J$K$L$M$N$O$P$P$P$P$Q$R$q$S$T$U$V$W$X$Y$Z$`$ %.%+%@%+%#%U$$%%%a+      ",
"        $ &%*%=%Y@x@-%;%>%,%'%)%!%~%{%]%]%^%P$/%(%@%_%:%<%#%#%[%[%[%[%[%[%[%[%[%#%}%|%1%-+      ",
"        + 2%K#3%4%5%6%7%8%9%'%0%a%b%c%d%e%f%g%h%i%j%k%j%j%j%k%k%k%k%k%k%l%l%l%l%Y$m%n%*+        ",
"          + o%p%q%r%;%s%t%u%'%v%w%x%b%y%z%:%i%A%A%A%A%A%B%B%B%B%B%B%B%B%B%B%B%A%C%]#D%a+        ",
"          . j#E%F%G%H%I%J%u%'%K%L%M%N%O%P%Q%R%S%T%T%S%S%S%S%S%S%S%S%S%S%U%V%W%X%Y%Z%*+-+        ",
"            . `%$  & & &# .&+&@&L%#&$&%&&&*&=&-&]#]#]#]#]#;&]#]#]#]#]#]#]#]#]#>&,&'&-+          ",
"                            )&!&~&{&]&^&^&/&(&_&:&D%D%D%<&[&[&[&[&[&}&|&1&1&1&2&3&-+            ",
"                            -+4&5&6&7&8&8&9&0&a&b&c&c&c&c&d&d&d&d&e&a+-+-+-+-+-+-+              ",
"                            a+4&5&f&g&h&7&i&j&k&l&l&l&l&l&l&l&l&m&n&*+                          ",
"                            o&4&p&q&r&s&s&t&u&v&v&v&v&v&v&w&x&y&z&A&o&                          ",
"                            B&C&D&E&F&r&r&r&G&G&G&G&G&H&I&J&K&L&M&N&$+                          ",
"                            O&C&P&Q&R&G&G&G&G&G&G&G&G&S&T&w w U&V&W&B+                          ",
"                            X&d&Y&Z&`& *R&R&R&R&R&R&R&.*+*w w @*#*$*T@                          ",
"                            %*&***=*-*;*>*R&,*,*,*,*'*)*!*~*{*]*^*b&/*                          ",
"                            (*_*:*<*[*}*|*1*2*3*4*5*2*1*6*7*8*9*0*o&a*                          ",
"                              b*c*d*d&e*f*g*h*z&=*i*j*g*k*l*m*n*o*p*                            ",
"                                  q*r*s*o&=+t*u*v*w*x*o&o&s*y*z*                                ",
"                                      A*B*C*D*E*F*G*_*H*%*I*                                    ",
"                                                                                                ",
"                                                                                                ",
"                                                                                                ",
"                                                                                                "};
