/* XPM */
static char * qcad_xpm[] = {
"48 48 754 2",
"  	c None",
". 	c #DBDFE8",
"+ 	c #CED3E0",
"@ 	c #C5CADA",
"# 	c #B6BDD0",
"$ 	c #ABB3C9",
"% 	c #A3ACC5",
"& 	c #A1AAC3",
"* 	c #A7B0C7",
"= 	c #ADB6CA",
"- 	c #B0B7CC",
"; 	c #C1C7D6",
"> 	c #FFFFFF",
", 	c #C9CDDC",
"' 	c #ADB5CA",
") 	c #A7B1C8",
"! 	c #9EA8C2",
"~ 	c #99A3BE",
"{ 	c #939FBB",
"] 	c #8E99B8",
"^ 	c #8994B5",
"/ 	c #8490B1",
"( 	c #7E8BAD",
"_ 	c #7885A9",
": 	c #717FA6",
"< 	c #707EA5",
"[ 	c #6C7AA2",
"} 	c #717FA5",
"| 	c #B4BCCF",
"1 	c #FAFBFB",
"2 	c #DDE0E9",
"3 	c #A9B1C7",
"4 	c #A6AFC7",
"5 	c #9FA9C3",
"6 	c #9AA4BF",
"7 	c #95A0BC",
"8 	c #8F9AB8",
"9 	c #8A95B5",
"0 	c #8590B2",
"a 	c #7F8CAD",
"b 	c #7987AB",
"c 	c #7481A7",
"d 	c #6E7CA4",
"e 	c #6A78A0",
"f 	c #6877A0",
"g 	c #5A6A97",
"h 	c #808DAF",
"i 	c #B1B8CD",
"j 	c #E7E9EF",
"k 	c #C1C7D7",
"l 	c #ABB4CA",
"m 	c #ABB3CA",
"n 	c #A5AEC6",
"o 	c #A0A9C2",
"p 	c #7E8BAE",
"q 	c #7886AA",
"r 	c #7381A7",
"s 	c #707EA4",
"t 	c #6E7CA3",
"u 	c #6D7BA3",
"v 	c #6D7CA3",
"w 	c #6A79A1",
"x 	c #6978A1",
"y 	c #919CB9",
"z 	c #ADB5C9",
"A 	c #D5DAE5",
"B 	c #B5BCCF",
"C 	c #AFB7CD",
"D 	c #AAB3C8",
"E 	c #A4AEC7",
"F 	c #9FA9C2",
"G 	c #9BA5BF",
"H 	c #949FBC",
"I 	c #8F9AB7",
"J 	c #8B96B6",
"K 	c #8894B4",
"L 	c #8692B2",
"M 	c #818DAF",
"N 	c #7C8AAC",
"O 	c #7582A8",
"P 	c #707FA5",
"Q 	c #7280A5",
"R 	c #7380A6",
"S 	c #7381A6",
"T 	c #7482A7",
"U 	c #7F8BAE",
"V 	c #ACB4C8",
"W 	c #B4BBCF",
"X 	c #B0B9CE",
"Y 	c #97A2BD",
"Z 	c #8E99B7",
"` 	c #8893B5",
" .	c #707EA2",
"..	c #516290",
"+.	c #3F5285",
"@.	c #3A4D81",
"#.	c #3C4F83",
"$.	c #48598A",
"%.	c #5C6C97",
"&.	c #7582A9",
"*.	c #7784A9",
"=.	c #7986AA",
"-.	c #7B88AB",
";.	c #7D89AD",
">.	c #838FB0",
",.	c #9AA2BA",
"'.	c #E0E3EB",
").	c #B2B9CE",
"!.	c #B0B8CE",
"~.	c #9BA5C0",
"{.	c #6778A5",
"].	c #516088",
"^.	c #404C6D",
"/.	c #4A5167",
"(.	c #61646C",
"_.	c #71706F",
":.	c #797772",
"<.	c #7A7C80",
"[.	c #232837",
"}.	c #323D5A",
"|.	c #2D3B5F",
"1.	c #56699B",
"2.	c #808DB0",
"3.	c #838EAF",
"4.	c #808DAE",
"5.	c #8D99B7",
"6.	c #627196",
"7.	c #EDEFF4",
"8.	c #B0B8CD",
"9.	c #AAB2C9",
"0.	c #99A3BF",
"a.	c #9CA7C0",
"b.	c #394D84",
"c.	c #565A67",
"d.	c #676769",
"e.	c #7A7977",
"f.	c #8A8988",
"g.	c #9A9A9A",
"h.	c #A7A7A7",
"i.	c #AFAFAF",
"j.	c #B3B3B3",
"k.	c #A7A7A6",
"l.	c #1E1E1D",
"m.	c #AFAEAC",
"n.	c #858585",
"o.	c #212124",
"p.	c #172C5B",
"q.	c #7A8CB7",
"r.	c #8A95B4",
"s.	c #8592B2",
"t.	c #828FB0",
"u.	c #828EAF",
"v.	c #838EB0",
"w.	c #6B79A2",
"x.	c #3E5185",
"y.	c #FDFDFC",
"z.	c #B2B8CE",
"A.	c #9CA6C0",
"B.	c #22376E",
"C.	c #696966",
"D.	c #7A7978",
"E.	c #929292",
"F.	c #C9C9C9",
"G.	c #DBDBDB",
"H.	c #E5E5E5",
"I.	c #EAEAEA",
"J.	c #F0F0F0",
"K.	c #4E4E4E",
"L.	c #D5D5D5",
"M.	c #D8D8D8",
"N.	c #C7C7C7",
"O.	c #C7D1D2",
"P.	c #743A32",
"Q.	c #201A39",
"R.	c #8491B0",
"S.	c #828DAF",
"T.	c #828CAE",
"U.	c #808CAF",
"V.	c #263B75",
"W.	c #3C4F85",
"X.	c #D3D8E3",
"Y.	c #B0B7CD",
"Z.	c #AAB2C8",
"`.	c #A0A9C3",
" +	c #7C8AB0",
".+	c #37456E",
"++	c #75726A",
"@+	c #868685",
"#+	c #ABABAB",
"$+	c #CFCFCF",
"%+	c #E7E7E7",
"&+	c #F4F4F4",
"*+	c #F9F9F9",
"=+	c #FCFCFC",
"-+	c #4C4C4C",
";+	c #F8F8F8",
">+	c #F5F9F9",
",+	c #DEC0C0",
"'+	c #B62A2A",
")+	c #ACBDB5",
"!+	c #4E5874",
"~+	c #576898",
"{+	c #8893B3",
"]+	c #8D97B6",
"^+	c #4C5E8E",
"/+	c #243A75",
"(+	c #2B4079",
"_+	c #2B3F72",
":+	c #F0F1F4",
"<+	c #B1B9CD",
"[+	c #98A2BE",
"}+	c #9AA5C0",
"|+	c #3C4A73",
"1+	c #6D6D6D",
"2+	c #8C8C8C",
"3+	c #B9B9B9",
"4+	c #E0E0E0",
"5+	c #FBFBFB",
"6+	c #FDFDFD",
"7+	c #3C3C3C",
"8+	c #BFBFBF",
"9+	c #FEFEFE",
"0+	c #D96E6E",
"a+	c #F7F2F2",
"b+	c #E1E2E2",
"c+	c #BFBEBC",
"d+	c #757B8A",
"e+	c #7281AC",
"f+	c #4B5D8D",
"g+	c #293F78",
"h+	c #2A3F77",
"i+	c #D2D6E3",
"j+	c #A6AEC6",
"k+	c #A5AEC7",
"l+	c #9CA5C0",
"m+	c #A4ACC4",
"n+	c #4B5C8C",
"o+	c #60626A",
"p+	c #8C8B8B",
"q+	c #BEBEBE",
"r+	c #C0C0C0",
"s+	c #2E2E2E",
"t+	c #E59999",
"u+	c #FAE8E8",
"v+	c #FBFCFC",
"w+	c #E9E9EA",
"x+	c #A3A2A2",
"y+	c #132044",
"z+	c #2B407B",
"A+	c #2A3F78",
"B+	c #2B3F78",
"C+	c #2C417B",
"D+	c #1F2D56",
"E+	c #E9EAF0",
"F+	c #A8B2C7",
"G+	c #A2ABC4",
"H+	c #7E8CB2",
"I+	c #3A4564",
"J+	c #8A8881",
"K+	c #B6B6B6",
"L+	c #E6E6E6",
"M+	c #FAFAFA",
"N+	c #131313",
"O+	c #FEFDFD",
"P+	c #F9E9E9",
"Q+	c #D24444",
"R+	c #F9E5E5",
"S+	c #161615",
"T+	c #AAADB5",
"U+	c #293F79",
"V+	c #2C4079",
"W+	c #CDD2DF",
"X+	c #A0AAC2",
"Y+	c #ABB4CB",
"Z+	c #34477D",
"`+	c #7F7B71",
" @	c #A2A3A3",
".@	c #DDDDDC",
"+@	c #F7F7F7",
"@@	c #5A5A5A",
"#@	c #B2B2B2",
"$@	c #E79C9C",
"%@	c #F1C2C2",
"&@	c #2C2C2C",
"*@	c #C2C2C2",
"=@	c #F7F4EC",
"-@	c #4D5D87",
";@	c #2A3F79",
">@	c #2B4078",
",@	c #2D427D",
"'@	c #B7BFD1",
")@	c #A4ACC5",
"!@	c #A3ABC5",
"~@	c #8894B7",
"{@	c #535A72",
"]@	c #8B8A89",
"^@	c #C6C6C6",
"/@	c #F1F1F1",
"(@	c #E1E1E1",
"_@	c #555555",
":@	c #FEFFFF",
"<@	c #FCF4F4",
"[@	c #DC6767",
"}@	c #3D3D3D",
"|@	c #F4F4F3",
"1@	c #B5B7BC",
"2@	c #1F3674",
"3@	c #2C417A",
"4@	c #223361",
"5@	c #ACB5CA",
"6@	c #A9B1C8",
"7@	c #A7AFC7",
"8@	c #A6AFC6",
"9@	c #707FA8",
"0@	c #707071",
"a@	c #A1A2A2",
"b@	c #DFDFDF",
"c@	c #6B6B6B",
"d@	c #8D8D8D",
"e@	c #CA2525",
"f@	c #EFBCBC",
"g@	c #F7F8F9",
"h@	c #FFFFF3",
"i@	c #2B407A",
"j@	c #283C71",
"k@	c #ACB4CA",
"l@	c #A8B1C8",
"m@	c #6E7A9D",
"n@	c #77797C",
"o@	c #EDEDED",
"p@	c #EBEBEB",
"q@	c #202020",
"r@	c #FDFCFC",
"s@	c #F1C3C3",
"t@	c #E69696",
"u@	c #494949",
"v@	c #FCFCFD",
"w@	c #FCFAF5",
"x@	c #58678E",
"y@	c #273C77",
"z@	c #B8BED2",
"A@	c #ADB5CB",
"B@	c #6F7A99",
"C@	c #828387",
"D@	c #CBCBCB",
"E@	c #060606",
"F@	c #B3B2B2",
"G@	c #B5B5B5",
"H@	c #E0DDDB",
"I@	c #D88A8B",
"J@	c #F7EBEC",
"K@	c #FEFEFD",
"L@	c #242424",
"M@	c #FEFDFA",
"N@	c #7C87A5",
"O@	c #233975",
"P@	c #AFB7CC",
"Q@	c #AEB6CB",
"R@	c #AEB6CC",
"S@	c #AFB6CC",
"T@	c #747F9C",
"U@	c #9C9EA0",
"V@	c #EFEFEF",
"W@	c #7F7F7F",
"X@	c #838383",
"Y@	c #F5F6F6",
"Z@	c #988B7F",
"`@	c #706252",
" #	c #4C463F",
".#	c #D09B7D",
"+#	c #C5C7C7",
"@#	c #C0C4D4",
"##	c #686868",
"$#	c #98A2BC",
"%#	c #213773",
"&#	c #B1B9CE",
"*#	c #B2BACF",
"=#	c #656F8B",
"-#	c #222325",
";#	c #303030",
">#	c #353535",
",#	c #313131",
"'#	c #434343",
")#	c #F2F2F2",
"!#	c #F1F1F2",
"~#	c #B5B0A7",
"{#	c #797271",
"]#	c #E7DEAA",
"^#	c #FDE9AC",
"/#	c #F8E295",
"(#	c #F4E29C",
"_#	c #BAB8A4",
":#	c #000002",
"<#	c #424141",
"[#	c #343434",
"}#	c #343332",
"|#	c #373F57",
"1#	c #2D4480",
"2#	c #B3BACF",
"3#	c #B3BBCF",
"4#	c #ACB4CB",
"5#	c #AAB3CA",
"6#	c #838EA9",
"7#	c #999A9D",
"8#	c #4B4B4B",
"9#	c #A9A9A9",
"0#	c #E3E3E3",
"a#	c #A4A9B0",
"b#	c #EADCC0",
"c#	c #FDEFC7",
"d#	c #FBE9B7",
"e#	c #FAE5A8",
"f#	c #FCE598",
"g#	c #FFD260",
"h#	c #E1BE89",
"i#	c #D8DDE2",
"j#	c #808CAD",
"k#	c #2A4078",
"l#	c #2C4179",
"m#	c #B6BED0",
"n#	c #A9B2C9",
"o#	c #989897",
"p#	c #D8D8D9",
"q#	c #585858",
"r#	c #636565",
"s#	c #6E4747",
"t#	c #713435",
"u#	c #FFFFEE",
"v#	c #FBEDC4",
"w#	c #FBE9B6",
"x#	c #F9D994",
"y#	c #F6C76D",
"z#	c #FF8500",
"A#	c #DDA359",
"B#	c #CAD5DF",
"C#	c #F6F7F7",
"D#	c #69779F",
"E#	c #263C76",
"F#	c #2A3E76",
"G#	c #8C97B5",
"H#	c #909AB8",
"I#	c #8D98B7",
"J#	c #8995B4",
"K#	c #808DB1",
"L#	c #868993",
"M#	c #D0CFCF",
"N#	c #F6F6F6",
"O#	c #F1F4F4",
"P#	c #D18888",
"Q#	c #827B7D",
"R#	c #EEEADD",
"S#	c #FDF4DB",
"T#	c #FBEBB1",
"U#	c #FAB82F",
"V#	c #FBA00C",
"W#	c #F78E04",
"X#	c #FD8600",
"Y#	c #DA9F56",
"Z#	c #CBCED4",
"`#	c #F7F6F6",
" $	c #4A5C8D",
".$	c #223260",
"+$	c #6979A0",
"@$	c #66769F",
"#$	c #60709B",
"$$	c #5A6B97",
"%$	c #566796",
"&$	c #7882A0",
"*$	c #C2C1BC",
"=$	c #F5D6D6",
"-$	c #E5A4A4",
";$	c #C6C8C8",
">$	c #B2B1AE",
",$	c #FFFCE6",
"'$	c #FAEECB",
")$	c #FBD855",
"!$	c #F9B431",
"~$	c #FBA204",
"{$	c #F88E05",
"]$	c #FF8400",
"^$	c #CDA56D",
"/$	c #CBCFD4",
"($	c #FDFCFA",
"_$	c #B6BCCE",
":$	c #384C82",
"<$	c #293E78",
"[$	c #2D437D",
"}$	c #172240",
"|$	c #556592",
"1$	c #6C7BA3",
"2$	c #63739C",
"3$	c #5E6E99",
"4$	c #586A96",
"5$	c #4E608F",
"6$	c #6D7DA7",
"7$	c #A8AAAB",
"8$	c #EDFFFF",
"9$	c #CC2C2C",
"0$	c #F7E1E1",
"a$	c #F3FFFF",
"b$	c #A8C0BD",
"c$	c #ECDB5A",
"d$	c #FBEDAD",
"e$	c #FBE593",
"f$	c #FBD85D",
"g$	c #F9B430",
"h$	c #FA9E05",
"i$	c #F99002",
"j$	c #DA9F55",
"k$	c #C8D2DB",
"l$	c #7E8AAB",
"m$	c #203572",
"n$	c #2B4179",
"o$	c #2D437E",
"p$	c #5C6C98",
"q$	c #596A95",
"r$	c #536493",
"s$	c #4E5F90",
"t$	c #3D5084",
"u$	c #9E9EB6",
"v$	c #AA0100",
"w$	c #DB7E7E",
"x$	c #DE7777",
"y$	c #C61111",
"z$	c #C61313",
"A$	c #E18A8A",
"B$	c #D44E4E",
"C$	c #C71414",
"D$	c #D44A4A",
"E$	c #DB6E6E",
"F$	c #C72323",
"G$	c #B21E1F",
"H$	c #894F4D",
"I$	c #F7D306",
"J$	c #F9E9B6",
"K$	c #FBE594",
"L$	c #FADB5D",
"M$	c #F9B631",
"N$	c #FA9E06",
"O$	c #F88E04",
"P$	c #FE8700",
"Q$	c #CC9452",
"R$	c #23376D",
"S$	c #2C4078",
"T$	c #5D6D98",
"U$	c #536492",
"V$	c #485A8B",
"W$	c #435688",
"X$	c #4D5F90",
"Y$	c #C0E1EB",
"Z$	c #E8F5F5",
"`$	c #F6FFFF",
" %	c #C0CBCA",
".%	c #6F7396",
"+%	c #F8D80C",
"@%	c #FBECA9",
"#%	c #FAE290",
"$%	c #FBDA5C",
"%%	c #FAB32F",
"&%	c #FF8D00",
"*%	c #8C7553",
"=%	c #1D326A",
"-%	c #465A8C",
";%	c #4E6090",
">%	c #485A8C",
",%	c #435588",
"'%	c #3E5186",
")%	c #364A80",
"!%	c #7381A5",
"~%	c #CCCDD1",
"{%	c #EDEBE9",
"]%	c #B7B7B6",
"^%	c #807E7F",
"/%	c #E7CD2F",
"(%	c #FBECA8",
"_%	c #FBD85C",
":%	c #F9B32F",
"<%	c #FB9E06",
"[%	c #F88F02",
"}%	c #FF9000",
"|%	c #9E7841",
"1%	c #1F3872",
"2%	c #2A3E77",
"3%	c #253767",
"4%	c #324577",
"5%	c #3D5186",
"6%	c #384C81",
"7%	c #32477D",
"8%	c #223874",
"9%	c #E4E4E5",
"0%	c #ECEBE9",
"a%	c #B8B8BA",
"b%	c #807F7F",
"c%	c #F8D80D",
"d%	c #F9E9B5",
"e%	c #FBDA5D",
"f%	c #F9B630",
"g%	c #FD8A00",
"h%	c #9B7542",
"i%	c #1E346B",
"j%	c #2C4077",
"k%	c #141E39",
"l%	c #3B4F83",
"m%	c #3F5286",
"n%	c #32477E",
"o%	c #2D427B",
"p%	c #2E427A",
"q%	c #172E6D",
"r%	c #DDDFE4",
"s%	c #EFEFEE",
"t%	c #B5B5B4",
"u%	c #737494",
"v%	c #F7DA10",
"w%	c #FCEDA9",
"x%	c #FAE38F",
"y%	c #FBDA5E",
"z%	c #FBA205",
"A%	c #816F5D",
"B%	c #1A2B5C",
"C%	c #203262",
"D%	c #364B83",
"E%	c #33477E",
"F%	c #2D427A",
"G%	c #233974",
"H%	c #47598B",
"I%	c #9AA3BE",
"J%	c #F1F2F2",
"K%	c #A1A09F",
"L%	c #909090",
"M%	c #A0A0A0",
"N%	c #A2A2A2",
"O%	c #A1A1A1",
"P%	c #979798",
"Q%	c #8C8C8B",
"R%	c #F1F0EE",
"S%	c #F9F8F5",
"T%	c #8E93A2",
"U%	c #404861",
"V%	c #D8C52B",
"W%	c #FCEEAA",
"X%	c #FBE694",
"Y%	c #FBD85E",
"Z%	c #F9B42F",
"`%	c #FA9D06",
" &	c #FFA22C",
".&	c #BDA582",
"+&	c #6C6050",
"@&	c #233462",
"#&	c #2E447E",
"$&	c #283D77",
"%&	c #2E437B",
"&&	c #31457D",
"*&	c #7481A6",
"=&	c #DCE0E9",
"-&	c #E5E4DC",
";&	c #ACA9A3",
">&	c #A09D98",
",&	c #A5A39C",
"'&	c #D0CDC4",
")&	c #F0F0F3",
"!&	c #98A2BD",
"~&	c #2B3F74",
"{&	c #1E3060",
"]&	c #253051",
"^&	c #F4DF0C",
"/&	c #F9E8B9",
"(&	c #FBDB62",
"_&	c #FFBC2C",
":&	c #B3A08E",
"<&	c #8C7B67",
"[&	c #4F4335",
"}&	c #6E6C62",
"|&	c #26386A",
"1&	c #263B76",
"2&	c #142C6A",
"3&	c #092265",
"4&	c #324781",
"5&	c #4A5E91",
"6&	c #3C5188",
"7&	c #162D6E",
"8&	c #0E2666",
"9&	c #293D72",
"0&	c #20315E",
"a&	c #13205E",
"b&	c #F4DE0C",
"c&	c #FDEDAB",
"d&	c #FCE589",
"e&	c #E1DDD4",
"f&	c #8F806D",
"g&	c #54493F",
"h&	c #61584B",
"i&	c #E3AEA0",
"j&	c #A5765F",
"k&	c #223360",
"l&	c #2C427D",
"m&	c #2D417A",
"n&	c #273D76",
"o&	c #203160",
"p&	c #222C4F",
"q&	c #D9C95A",
"r&	c #DAD7C6",
"s&	c #C8B9A3",
"t&	c #9D886E",
"u&	c #949586",
"v&	c #E8AFA1",
"w&	c #C05D58",
"x&	c #BC5C5C",
"y&	c #AC6A5D",
"z&	c #2A4079",
"A&	c #293D71",
"B&	c #253668",
"C&	c #22283A",
"D&	c #746551",
"E&	c #C5BEAC",
"F&	c #D0D2C1",
"G&	c #E6A28E",
"H&	c #D36D6F",
"I&	c #CB6866",
"J&	c #C56361",
"K&	c #B85E5C",
"L&	c #283C70",
"M&	c #0C1223",
"N&	c #0E0D0A",
"O&	c #756250",
"P&	c #FCC5B8",
"Q&	c #E4797B",
"R&	c #E07A73",
"S&	c #D47070",
"T&	c #CA6865",
"U&	c #C36362",
"V&	c #273B6F",
"W&	c #2D427E",
"X&	c #2B417A",
"Y&	c #2C427C",
"Z&	c #2E437F",
"`&	c #293D73",
" *	c #233361",
".*	c #182444",
"+*	c #E38984",
"@*	c #F18685",
"#*	c #E57C7B",
"$*	c #DE7674",
"%*	c #E37D77",
"&*	c #84614C",
"**	c #233362",
"=*	c #243565",
"-*	c #1E2D55",
";*	c #0D1426",
">*	c #F48F8B",
",*	c #F38686",
"'*	c #F38D86",
")*	c #645044",
"!*	c #BE726B",
"~*	c #3D362C",
"                                                                                                ",
"                                                                                                ",
"                                                                                                ",
"                                                                                                ",
"                                    . + @ # $ % & % * = - ;                                     ",
"                              > , ' ) ! ~ { ] ^ / ( _ : < [ } |                                 ",
"                          1 2 % 3 4 5 6 7 8 9 0 a b c d e f f g h i                             ",
"                        j k l m n o 6 7 8 9 / p q r s t u u [ v w x y z                         ",
"                      A B C D E F G H I J K L M N q O P } } Q } R S T U V                       ",
"                    . W X D n F 6 Y Z `  ...+.@.#.$.%.R &.q *._ =.-.;.p >.,.                    ",
"                  '.).!.D n F G ~.{.].^./.(._.:.:.<.[.}.|.1.2.3.4.>./ >.M 5.6.                  ",
"                7.8.!.9.n F 0.a.b.c.d.e.f.g.h.i.j.k.l.m.n.o.p.q.r.s.t.u.v.w.x.                  ",
"              y.W z.D n F A.8 B.C.D.E.i.F.G.H.I.J.K.L.M.N.O.P.Q.P R.S.T.U.x.V.W.                ",
"              X.Y.Z.n `.G  +.+++@+#+$+%+&+*+=+=+%+-+;+*+>+,+'+)+!+~+{+]+^+/+(+(+_+              ",
"            :+<+D n F [+}+|+1+2+3+4+&+5+6+6+6+> 7+8+> 9+> 0+a+b+c+d+e+f+g+(+(+(+h+              ",
"            i+j+k+`.l+m+n+o+p+q+%+*+=+9+9+9+> r+s+> 9+> t+u+v+*+w+x+y+z+(+(+A+B+C+D+            ",
"          E+F+n G+o & H+I+J+K+L+M+6+9+9+> 9+M+N+> 6+O+P+Q+R+9+6+> S+T+U+V+(+A+(+(+h+            ",
"          W+% n % X+Y+Z+`+ @.@+@6+6+9+9+9+> @@#@> 9+> $@%@> 6+> &@*@=@-@;@>@A+B+A+,@            ",
"          '@* j+)@!@~@{@]@^@/@=+9+9+9+9+6+(@_@/@9+:@<@[@> 9+> q+}@> |@1@2@(+A+A+(+3@4@          ",
"          5@6@7@j+8@9@0@a@b@*+6+9+9+> 9+> c@d@> 9+> e@f@> 6++@-+L+=+g@h@A+;@(+A+(+i@j@          ",
"          k@9.6@* l@m@n@3+o@=+9+> 9+> > p@q@> r@> s@t@> 9+6+G.u@> 9+v@w@x@y@(+(+A+A+3@          ",
"        z@A@5@m $ m B@C@D@&+6+9+9+> 9+> E@> F@G@H@I@J@K@9+> L@L+> 9+6+M@N@O@(+(+(+A+>@          ",
"        P@P@Q@R@S@R@T@U@V@> > > > > > W@X@Y@Z@`@ #.#+#@#> ##n.> > > > > $#%#(+(+(+A+>@          ",
"        Y+&#).*#C R@=#-#;#>#>#>#>#>#,#'#)#!#~#{#]#^#/#(#_#:#<#[#>#>#>#}#|#1#A+(+(+A+A+          ",
"        5 2#3#- 4#5#6#7#4+> > > > > M+8#9#0#a#b#c#d#e#f#g#h#i#5+> > > > j#U+A+k#(+A+l#          ",
"          m#3#P@Y+n#8 o#p#5+> > > > > 0#q#r#s#t#u#v#w#x#y#z#A#B#C#6+> > D#E#>@(+A+(+F#          ",
"          >.G#H#I#J#K#L#M#N#6+9+9+> 9+> > O#P#Q#R#S#T#U#V#W#X#Y#Z#`#=+>  $E#(+A+(+3@.$          ",
"          +$t @$#$$$%$&$*$J.6+9+> 9+> 9+9+=$-$;$>$,$'$)$!$~${$]$^$/$($_$:$<$A+A+A+[$}$          ",
"          |$1$2$3$4$5$6$7$8$> > > > > > > 9$0$a$b$c$d$e$f$g$h$i$]$j$k$l$m$n$(+A+(+o$            ",
"            p$3$q$r$s$t$u$v$w$x$y$z$A$B$C$D$E$F$G$H$I$J$K$L$M$N$O$P$Q$R$S$V+(+(+C+4@            ",
"            +.T$U$s$V$W$X$Y$Z$:@> > > > > > > > `$ %.%+%@%#%$%%%~${$&%*%=%F#V+A+o$              ",
"              -%;%>%,%'%)%!%~%{%5+6+9+9+9+9+9+6++@%+]%^%/%(%K$_%:%<%[%}%|%1%2%3@3%              ",
"              4%>%,%5%6%7%8%L 9%0%5+6+9+9+9+9+9+6+;+L+a%b%c%d%K$e%f%N${$g%h%i%j%k%              ",
"                l%m%6%n%o%p%q%1$r%s%;+=+> > > > > > =+L+t%u%v%w%x%y%g$z%O$}%A%B%                ",
"                C%D%E%o%(+(+F%G%H%I%J%> K%L%M%N%O%P%Q%R%S%T%U%V%W%X%Y%Z%`% &.&+&                ",
"                  @&#&3@(+(+(+(+$&%&&&*&=&-&;&>&,&'&)&!&#.~&{&]&^&/&X%(&_&:&<&[&}&              ",
"                    |&i@(+A+>@A+(+(+3@1&2&3&4&5&6&7&8&8%V+>@9&0&a&b&c&d&e&f&g&h&i&j&            ",
"                      k&l&(+(+A+A+A+(+(+l#m&<$n&$&V+3@(+(+n$B+9&o&p&q&r&s&t&u&v&w&x&y&          ",
"                          i@i@>@(+A+;@A+A+A+(+(+(+A+A+(+(+z&V+B+A&B&C&D&E&F&G&H&I&J&K&          ",
"                            L&>@i@i@(+A+>@;@A+A+A+z&>@A+A+3@i@(+A+M&  N&O&P&Q&R&S&T&U&          ",
"                                k&V&W&,@C+i@(+(+(+X&C+Y&Z&`& *.*          +*@*#*$*%*&*          ",
"                                      .***L&>@C+3@`&=*-*;*                  >*,*'*)*            ",
"                                                                              !*~*              ",
"                                                                                                ",
"                                                                                                ",
"                                                                                                ",
"                                                                                                ",
"                                                                                                "};
