/* XPM */
static char * qemu_xpm[] = {
"48 48 583 2",
"  	c None",
". 	c #838383",
"+ 	c #989898",
"@ 	c #B0B0B0",
"# 	c #BCBCBC",
"$ 	c #C2C2C2",
"% 	c #C4C4C4",
"& 	c #BDBDBD",
"* 	c #B3B3B3",
"= 	c #A3A3A3",
"- 	c #898989",
"; 	c #7F7F7F",
"> 	c #7E7E7E",
", 	c #808080",
"' 	c #AAAAAA",
") 	c #D9D9D9",
"! 	c #F1F1F1",
"~ 	c #F5F5F5",
"{ 	c #F8F8F8",
"] 	c #FAFAFA",
"^ 	c #FBFBFB",
"/ 	c #F9F9F9",
"( 	c #F7F7F7",
"_ 	c #F3F3F3",
": 	c #E9E9E9",
"< 	c #8C8C8C",
"[ 	c #797979",
"} 	c #787878",
"| 	c #747474",
"1 	c #9C9C9C",
"2 	c #E6E6E6",
"3 	c #F8F8F9",
"4 	c #F7F8F9",
"5 	c #F7F8F8",
"6 	c #C3C3C3",
"7 	c #868686",
"8 	c #6E6E6E",
"9 	c #888888",
"0 	c #CAC9C9",
"a 	c #F6F8F9",
"b 	c #F2F8FC",
"c 	c #F4E5DA",
"d 	c #F5DFD0",
"e 	c #F6D9C6",
"f 	c #F6E6DB",
"g 	c #F4FAFE",
"h 	c #F5FCFF",
"i 	c #F6FAFD",
"j 	c #F5F7F8",
"k 	c #F4F4F4",
"l 	c #F2F2F2",
"m 	c #F6F6F6",
"n 	c #ABABAB",
"o 	c #707070",
"p 	c #686868",
"q 	c #626262",
"r 	c #646464",
"s 	c #E1E1E1",
"t 	c #ECEDEE",
"u 	c #EFD7C8",
"v 	c #F9A065",
"w 	c #FE802C",
"x 	c #FE7F2A",
"y 	c #FE7E28",
"z 	c #FF802C",
"A 	c #F8B88D",
"B 	c #FC9855",
"C 	c #F9BD96",
"D 	c #F4E7DD",
"E 	c #F1F8FD",
"F 	c #F1F4F5",
"G 	c #F0F0F0",
"H 	c #EFEFEF",
"I 	c #EEEEEE",
"J 	c #EDEDED",
"K 	c #ECECEC",
"L 	c #EBEBEB",
"M 	c #BFBFBF",
"N 	c #6B6B6B",
"O 	c #5B5B5B",
"P 	c #5D5D5D",
"Q 	c #828282",
"R 	c #E5E5E5",
"S 	c #E6E7E8",
"T 	c #ECD2C2",
"U 	c #FE751A",
"V 	c #FE761B",
"W 	c #FE7316",
"X 	c #FE7519",
"Y 	c #FE7215",
"Z 	c #FE7112",
"` 	c #FB8B40",
" .	c #F5BC96",
"..	c #EFE1D9",
"+.	c #ECEAEA",
"@.	c #EAEBEB",
"#.	c #E8E8E8",
"$.	c #E7E7E7",
"%.	c #B9B9B9",
"&.	c #5C5C5C",
"*.	c #565656",
"=.	c #575757",
"-.	c #777777",
";.	c #D3D3D3",
">.	c #DFDFDF",
",.	c #E0E0E0",
"'.	c #E1E2E3",
").	c #F69352",
"!.	c #FC7924",
"~.	c #FE731A",
"{.	c #FE741A",
"].	c #FD731A",
"^.	c #FF7317",
"/.	c #FE6E11",
"(.	c #FD7923",
"_.	c #F3AD80",
":.	c #E6E5E5",
"<.	c #E4E4E4",
"[.	c #E3E3E3",
"}.	c #E2E2E2",
"|.	c #DEDEDE",
"1.	c #4F4F4F",
"2.	c #616161",
"3.	c #B1B1B1",
"4.	c #D7D7D7",
"5.	c #DADEE1",
"6.	c #E9B18E",
"7.	c #FE6E14",
"8.	c #FD711A",
"9.	c #FF741B",
"0.	c #E96818",
"a.	c #FF751B",
"b.	c #FF731A",
"c.	c #FD7018",
"d.	c #F39B64",
"e.	c #DFE6EB",
"f.	c #DCDCDC",
"g.	c #DADADA",
"h.	c #D8D8D8",
"i.	c #D2D2D2",
"j.	c #858585",
"k.	c #555555",
"l.	c #484848",
"m.	c #767676",
"n.	c #D1D1D1",
"o.	c #D3D4D4",
"p.	c #D5D5D5",
"q.	c #F87B30",
"r.	c #FC6F19",
"s.	c #2E1405",
"t.	c #000000",
"u.	c #060300",
"v.	c #9A440F",
"w.	c #FE690F",
"x.	c #E7B393",
"y.	c #D8DDDF",
"z.	c #CFCFCF",
"A.	c #4E4E4E",
"B.	c #474747",
"C.	c #414141",
"D.	c #505050",
"E.	c #AEAEAE",
"F.	c #CBCBCB",
"G.	c #CDCDCD",
"H.	c #E2A785",
"I.	c #FB6E1C",
"J.	c #FB6D19",
"K.	c #FC6C18",
"L.	c #FF6F19",
"M.	c #7D360C",
"N.	c #B64E12",
"O.	c #FD6D18",
"P.	c #F67C34",
"Q.	c #D3D7D9",
"R.	c #D1D2D2",
"S.	c #C8C8C8",
"T.	c #C9C9C9",
"U.	c #6F6F6F",
"V.	c #4D4D4D",
"W.	c #404040",
"X.	c #3A3A3A",
"Y.	c #5E5E5E",
"Z.	c #C5C4C4",
"`.	c #CBC1BB",
" +	c #F5762E",
".+	c #FB6A17",
"++	c #FB6A18",
"@+	c #FD6B18",
"#+	c #D45914",
"$+	c #8C3B0D",
"%+	c #903D0E",
"&+	c #EF6517",
"*+	c #FB6B18",
"=+	c #FB6C1B",
"-+	c #E59D75",
";+	c #CBCFD1",
">+	c #C8CBCD",
",+	c #C7C7C7",
"'+	c #C1C1C1",
")+	c #969696",
"!+	c #4A4A4A",
"~+	c #3F3F3F",
"{+	c #383838",
"]+	c #333333",
"^+	c #464646",
"/+	c #494949",
"(+	c #7B7B7B",
"_+	c #BBBBBB",
":+	c #BDBFBF",
"<+	c #D0A893",
"[+	c #FD630D",
"}+	c #FA6817",
"|+	c #FD6917",
"1+	c #A94610",
"2+	c #B24A10",
"3+	c #D65914",
"4+	c #EA6216",
"5+	c #E25E15",
"6+	c #E76016",
"7+	c #F06316",
"8+	c #FA6310",
"9+	c #F57630",
"0+	c #DD9E7B",
"a+	c #C8B6AC",
"b+	c #C0BBB8",
"c+	c #BABCBC",
"d+	c #454545",
"e+	c #373737",
"f+	c #303030",
"g+	c #313131",
"h+	c #3E3E3E",
"i+	c #444444",
"j+	c #B2B2B2",
"k+	c #B5B9BC",
"l+	c #E38451",
"m+	c #FB6412",
"n+	c #FA6617",
"o+	c #FA6616",
"p+	c #F96616",
"q+	c #FC6717",
"r+	c #FE6817",
"s+	c #E85F15",
"t+	c #BF4E11",
"u+	c #9F410E",
"v+	c #923C0E",
"w+	c #8B3A0F",
"x+	c #83350C",
"y+	c #7E340C",
"z+	c #85350A",
"A+	c #A84008",
"B+	c #DD5C17",
"C+	c #F08248",
"D+	c #D79A79",
"E+	c #B1AEAC",
"F+	c #B3B4B4",
"G+	c #434343",
"H+	c #3D3D3D",
"I+	c #2F2F2F",
"J+	c #282828",
"K+	c #363636",
"L+	c #3C3C3C",
"M+	c #8B8B8B",
"N+	c #ACACAC",
"O+	c #ACB4B8",
"P+	c #F7661C",
"Q+	c #F96315",
"R+	c #F96316",
"S+	c #FA6416",
"T+	c #FB6416",
"U+	c #F46116",
"V+	c #EA5D15",
"W+	c #E15914",
"X+	c #D95613",
"Y+	c #A8420F",
"Z+	c #79300B",
"`+	c #3F1804",
" @	c #7F350E",
".@	c #E47740",
"+@	c #ACA6A4",
"@@	c #353535",
"#@	c #272727",
"$@	c #2E2E2E",
"%@	c #343434",
"&@	c #A2A2A2",
"*@	c #A3A6A7",
"=@	c #B59D92",
"-@	c #FC5D0E",
";@	c #F86115",
">@	c #F86014",
",@	c #F4661F",
"'@	c #F16925",
")@	c #EF6A28",
"!@	c #EF6A27",
"~@	c #F46923",
"{@	c #F8681F",
"]@	c #FF6A1E",
"^@	c #B54C17",
"/@	c #833813",
"(@	c #BC8A72",
"_@	c #4E5051",
":@	c #2C2C2C",
"<@	c #262626",
"[@	c #202020",
"}@	c #252525",
"|@	c #323232",
"1@	c #424242",
"2@	c #9A9A9A",
"3@	c #9A9FA2",
"4@	c #CC7F5B",
"5@	c #FA5E11",
"6@	c #F85F14",
"7@	c #F75F15",
"8@	c #F85E13",
"9@	c #FB5B0C",
"0@	c #F16724",
"a@	c #D68963",
"b@	c #BFA294",
"c@	c #B1AFAE",
"d@	c #A9B2B7",
"e@	c #A7AEB1",
"f@	c #A9A3A0",
"g@	c #AA948A",
"h@	c #B19080",
"i@	c #B3907E",
"j@	c #A19C9A",
"k@	c #A3938B",
"l@	c #444545",
"m@	c #2B2B2B",
"n@	c #242424",
"o@	c #1E1E1E",
"p@	c #232323",
"q@	c #2A2A2A",
"r@	c #939393",
"s@	c #90989C",
"t@	c #DD6C37",
"u@	c #F85C13",
"v@	c #F75C14",
"w@	c #F95A0F",
"x@	c #F06524",
"y@	c #CC8F73",
"z@	c #B4AAA5",
"A@	c #AEADAD",
"B@	c #ABACAC",
"C@	c #A9A9A9",
"D@	c #A5A6A6",
"E@	c #9E9F9F",
"F@	c #9B9C9C",
"G@	c #979898",
"H@	c #939494",
"I@	c #919292",
"J@	c #292929",
"K@	c #222222",
"L@	c #1C1C1C",
"M@	c #212121",
"N@	c #868E92",
"O@	c #E96022",
"P@	c #F65B13",
"Q@	c #EE6222",
"R@	c #C68D72",
"S@	c #A8ACAE",
"T@	c #A7AAAB",
"U@	c #A7A7A7",
"V@	c #A5A5A5",
"W@	c #9F9F9F",
"X@	c #999999",
"Y@	c #929292",
"Z@	c #8E8E8E",
"`@	c #393939",
" #	c #2D2D2D",
".#	c #1A1A1A",
"+#	c #141414",
"@#	c #191919",
"##	c #848484",
"$#	c #EA5D1E",
"%#	c #F55813",
"&#	c #F65812",
"*#	c #DB6E3F",
"=#	c #A79D9A",
"-#	c #A0A5A7",
";#	c #A1A1A1",
">#	c #A0A0A0",
",#	c #9E9E9E",
"'#	c #979797",
")#	c #949494",
"!#	c #919191",
"~#	c #8D8D8D",
"{#	c #7D7D7D",
"]#	c #181818",
"^#	c #121212",
"/#	c #161616",
"(#	c #4B4B4B",
"_#	c #E8591D",
":#	c #F55512",
"<#	c #ED5B1E",
"[#	c #9F948F",
"}#	c #999A9A",
"|#	c #959595",
"1#	c #909090",
"2#	c #636363",
"3#	c #1B1B1B",
"4#	c #0F0F0F",
"5#	c #1F1F1F",
"6#	c #545C60",
"7#	c #DF5820",
"8#	c #F45411",
"9#	c #F6530E",
"0#	c #C66E4A",
"a#	c #8A9194",
"b#	c #8F8F8F",
"c#	c #878787",
"d#	c #818181",
"e#	c #727272",
"f#	c #131313",
"g#	c #0C0C0C",
"h#	c #111111",
"i#	c #171717",
"j#	c #1D1D1D",
"k#	c #3E4649",
"l#	c #C45226",
"m#	c #F55110",
"n#	c #F45110",
"o#	c #F84F0C",
"p#	c #A17666",
"q#	c #828587",
"r#	c #7C7C7C",
"s#	c #7A7A7A",
"t#	c #737373",
"u#	c #6C6C6C",
"v#	c #101010",
"w#	c #0A0A0A",
"x#	c #0E0E0E",
"y#	c #373F42",
"z#	c #B74B21",
"A#	c #F54F0F",
"B#	c #F34F10",
"C#	c #F84D0B",
"D#	c #8C7167",
"E#	c #77797A",
"F#	c #757575",
"G#	c #696969",
"H#	c #656565",
"I#	c #4C4C4C",
"J#	c #0D0D0D",
"K#	c #070707",
"L#	c #343B3E",
"M#	c #AB4722",
"N#	c #F64D0F",
"O#	c #F34D10",
"P#	c #F84B0C",
"Q#	c #88675B",
"R#	c #6C6F70",
"S#	c #6D6D6D",
"T#	c #6A6A6A",
"U#	c #676767",
"V#	c #585858",
"W#	c #3B3B3B",
"X#	c #040404",
"Y#	c #323638",
"Z#	c #713F2E",
"`#	c #FE4B0C",
" $	c #F14A0E",
".$	c #F6490C",
"+$	c #915A46",
"@$	c #5F6365",
"#$	c #606060",
"$$	c #5F5F5F",
"%$	c #5A5A5A",
"&$	c #545454",
"*$	c #010101",
"=$	c #151515",
"-$	c #363737",
";$	c #9C4223",
">$	c #FA490C",
",$	c #F1480E",
"'$	c #F5480C",
")$	c #A14E32",
"!$	c #505658",
"~$	c #525252",
"{$	c #090909",
"]$	c #020202",
"^$	c #9A3F21",
"/$	c #EF450D",
"($	c #F0460D",
"_$	c #F1460C",
":$	c #C4471F",
"<$	c #454E50",
"[$	c #0B0B0B",
"}$	c #060606",
"|$	c #030303",
"1$	c #080808",
"2$	c #313132",
"3$	c #333536",
"4$	c #983E21",
"5$	c #F8440B",
"6$	c #F0440D",
"7$	c #E04413",
"8$	c #4C4746",
"9$	c #943C21",
"0$	c #F9420A",
"a$	c #EF410C",
"b$	c #E7410F",
"c$	c #6B4235",
"d$	c #414242",
"e$	c #050505",
"f$	c #353130",
"g$	c #B33B17",
"h$	c #EF3F0B",
"i$	c #EE3F0B",
"j$	c #913D25",
"k$	c #3B3C3D",
"l$	c #2B2C2D",
"m$	c #3F2F2B",
"n$	c #CC3A11",
"o$	c #F13D0B",
"p$	c #EE3C0B",
"q$	c #EF3D0B",
"r$	c #BD3B16",
"s$	c #3E3735",
"t$	c #262929",
"u$	c #3B2D29",
"v$	c #E93A0C",
"w$	c #EE3A0A",
"x$	c #ED3A0A",
"y$	c #EB3A0B",
"z$	c #43322D",
"A$	c #232525",
"B$	c #542B20",
"C$	c #ED370A",
"D$	c #ED380A",
"E$	c #F63808",
"F$	c #7A301D",
"G$	c #282B2C",
"H$	c #882C15",
"I$	c #EB3609",
"J$	c #EB3608",
"K$	c #EE3608",
"L$	c #CA330E",
"M$	c #1A2427",
"N$	c #1B1C1C",
"O$	c #1F1D1D",
"P$	c #C82F0C",
"Q$	c #EC3308",
"R$	c #EB3308",
"S$	c #F33407",
"T$	c #38211C",
"U$	c #1C1F1F",
"V$	c #151718",
"W$	c #2D1B17",
"X$	c #E83008",
"Y$	c #EC3108",
"Z$	c #F03107",
"`$	c #812510",
" %	c #12191A",
".%	c #0D1213",
"+%	c #5E1D0F",
"@%	c #EF2F07",
"#%	c #EB2F07",
"$%	c #C0290A",
"%%	c #091315",
"&%	c #140F0D",
"*%	c #A52208",
"=%	c #EB2D06",
"-%	c #D52A07",
";%	c #1A100D",
">%	c #0C0D0D",
",%	c #070808",
"'%	c #370F08",
")%	c #DB2906",
"!%	c #310E08",
"~%	c #060708",
"{%	c #000103",
"]%	c #821703",
"^%	c #E52805",
"/%	c #3C0C03",
"(%	c #000202",
"_%	c #C92004",
":%	c #4E0D02",
"<%	c #3B0901",
"[%	c #6A1002",
"}%	c #0B0200",
"|%	c #450B01",
"1%	c #010000",
"2%	c #050100",
"                                                                                                ",
"                                    . + @ # $ % $ & * = - ;                                     ",
"                              > , ' ) ! ~ { ] ^ ^ / ( _ : % < [ }                               ",
"                          | ; 1 2 ^ 3 4 5 / / / / { ( ( ( / ] 6 7 | 8                           ",
"                        8 9 0 a b c d e f g h i j ~ k k _ l l m 2 n o p q                       ",
"                    r p 7 s t u v w x y z A B C D E F G H I J K L : M N q O                     ",
"                  P q Q 2 R S T U V V V V W X Y Z `  ...+.@.: #.$.R : %.r &.*.                  ",
"                =.P -.;.>.,.'.).!.~.{.{.{.{.{.].{.^./.(._.:.<.[.}.,.|.}.' &.*.1.                ",
"              1.=.2.3.4.) 5.6.7.8.8.8.8.8.8.8.8.9.0.a.b.c.d.e.|.f.g.h.4.i.j.k.1.l.              ",
"            l.1.k.m.;.n.o.p.q.r.r.r.r.r.r.r.r.b.s.t.u.v.r.w.x.y.4.p.;.n.z.* O A.B.C.            ",
"          C.B.1.D.E.F.F.G.H.I.J.K.K.K.K.K.K.K.L.M.t.t.t.N.O.P.Q.R.z.G.F.S.T.U.V.B.W.X.          ",
"          W.B.V.Y.6 $ Z.`. +.+++++++++++++++++@+@+#+$+%+&+*+=+-+;+>+,+% '+$ )+!+B.~+{+]+        ",
"        {+~+^+/+(+_+_+:+<+[+}+}+}+}+}+}+}+}+|+#+1+2+3+4+5+6+7+8+9+0+a+b+c+%.@ B.d+~+e+f+        ",
"      g+e+h+i+B.- j+* k+l+m+n+o+o+o+o+o+o+o+p+q+r+s+t+u+v+w+x+y+z+A+B+C+D+E+F+A.G+H+e+I+J+      ",
"      I+K+L+G+d+M+' N+O+P+Q+R+R+R+R+R+R+R+R+R+R+R+S+S+T+T+U+V+W+X+Y+Z+`+ @.@+@k.C.L+@@I+J+      ",
"    #@$@%@X.C.i+. &@*@=@-@;@;@;@;@;@;@;@;@;@;@;@;@;@;@>@;@,@'@)@!@~@{@]@^@/@(@_@~+X.]+:@<@[@    ",
"    }@:@|@{+~+1@| 2@3@4@5@6@6@6@6@6@6@6@6@6@6@6@7@8@9@0@a@b@c@d@e@f@g@h@i@j@k@l@h+{+g+m@n@o@    ",
"    p@q@f+K+L+C.Y.r@s@t@u@v@v@v@v@v@v@v@v@v@v@v@w@x@y@z@A@B@C@D@&@E@F@G@H@I@. ~+L+@@I+J@K@L@    ",
"  L@M@J+$@%@X.W.^+9 N@O@P@P@P@P@P@P@P@P@P@P@P@Q@R@S@T@U@V@&@W@1 X@)+Y@Z@M+- r h+`@]+ #<@[@.#+#  ",
"  @#o@}@m@g+e+H+1@p ##$#%#&#&#&#&#&#&#&#%#%#*#=#-#;#>#,#1 2@'#)#!#~#- 7 Q {#!+L+e+g+q@n@o@]#^#  ",
"  /#L@K@J+I+%@X.W.(#-._#:#:#:#:#:#:#:#:#:#<#[#}#+ + )+|#Y@1#Z@M+9 ##, {#} 2#W.X.]+$@J+K@3#/#4#  ",
"  +#@#5#<@:@g+K+H+1@6#7#8#8#8#8#8#8#8#8#9#0#a#b#b#Z@~#M+- c#. d#> [ m.e#N /+L+e+g+q@}@5#]#f#g#  ",
"  h#i#j#K@J+$@]+`@h+k#l#m#n#n#n#n#n#n#n#o#p#q#####. Q d#; r#s#-.t#o u#p 1.L+{+]+$@J+K@L@/#v#w#  ",
"  x#+#.#5#}@m@f+@@X.y#z#A#B#B#B#B#B#B#B#C#D#E#[ } } -.F#| e#8 N G#H#2.I#~+X.%@f+q@n@5#@#f#J#K#  ",
"  w#h#/#L@K@#@ #g+K+L#M#N#O#O#O#O#O#O#O#P#Q#R#U.8 S#S#T#G#U#r 2.P V#!+~+W#K+g+:@#@M@L@/#v#w#X#  ",
"  K#J#f#]#o@p@J+$@|@Y#Z#`# $ $ $ $ $ $ $.$+$@$2#2#q #$$$P %$V#&$1.^+h+W#e+|@ #J+p@j#]#^#J#K#*$  ",
"  X#w#4#=$.#5#n@q@$@|@-$;$>$,$,$,$,$,$,$'$)$!$*.*.k.k.~$D.1.I#B.1@~+W#e+|@ #J@n@o@.#=$4#{$X#t.  ",
"  ]$K#g#h#i#3#[@}@q@$@|@K+^$/$($($($($($_$:$<$V.V.V.(#!+l.^+i+W.h+X.K+|@$@J@}@[@3#/#h#[$}$*$t.  ",
"  t.|$1$J#f#]#L@M@}@q@$@2$3$4$5$6$6$6$6$6$7$8$l.B.B.^+d+G+C.~+L+{+%@g+ #J@}@M@L@i#^#J#K#]$t.t.  ",
"  t.t.X#w#x#f#]#L@M@}@J@ #f+]+9$0$a$a$a$a$b$c$d$1@C.C.~+H+W#`@e+]+f+:@J@}@M@L@i#f#x#{$X#t.t.t.  ",
"    t.*$e$w#4#+#]#L@[@n@J+m@$@f$g$h$i$i$i$i$j$k$L+L+X.`@{+K+]+g+$@m@J+n@[@L@i#f#4#w#e$t.t.t.    ",
"    t.t.]$}$[$4#f#]#L@[@p@<@q@l$m$n$o$p$p$q$r$s$K+K+@@%@|@f+$@:@J@<@p@o@L@i#f#4#w#}$*$t.t.t.    ",
"    t.t.t.]$}$[$4#f#i#.#o@M@n@#@t$u$v$w$x$x$y$z$g+f+f+$@ #m@J@#@n@M@o@.#/#f#4#w#}$]$t.t.t.t.    ",
"      t.t.t.]$}$w#x#^#/#@#L@5#M@p@A$B$C$D$D$E$F$G$m@J@J+#@<@p@M@5#3#]#/#^#x#w#}$]$t.t.t.t.      ",
"      t.t.t.t.]$}$w#J#h#f#i#.#3#o@[@M@H$I$J$K$L$M$}@n@p@K@[@o@3#@#i#f#v#g#{$e$*$t.t.t.t.t.      ",
"        t.t.t.t.*$X#1$[$x#^#+#/#]#.#N$O$P$Q$R$S$T$U$o@o@L@.#]#/#+#h#4#[$K#X#*$t.t.t.t.t.        ",
"          t.t.t.t.t.|$}$w#g#4#h#f#=$i#V$W$X$Y$Z$`$ %@#i#/#+#f#h#4#g#{$}$|$t.t.t.t.t.t.t.        ",
"          t.t.t.t.t.t.*$X#K#{$[$x#4#h#^#.%+%@%#%$%%%f#^#v#4#x#[${$K#X#*$t.t.t.t.t.t.t.          ",
"            t.t.t.t.t.t.t.*$|$}$1$w#[$g#x#&%*%=%-%;%>%J#[$w#1$}$X#*$t.t.t.t.t.t.t.t.t.          ",
"              t.t.t.t.t.t.t.t.*$]$X#e$}$K#,%'%)%)%!%~%}$e$X#]$*$t.t.t.t.t.t.t.t.t.t.t.          ",
"                t.t.t.t.t.t.t.t.t.t.*$*$]$]${%]%^%/%(%*$t.t.t.t.t.t.t.t.t.t.t.t.t.t.t.t.        ",
"                  t.t.t.t.t.t.t.t.t.t.t.t.t.t.t._%:%t.t.t.t.t.t.t.t.t.t.t.t.t.t.t.t.t.t.        ",
"                    t.t.t.t.t.t.t.t.t.t.t.t.t.t.<%[%t.t.t.t.t.t.t.t.t.t.t.t.t.t.t.t.t.t.        ",
"                        t.t.t.t.t.t.t.t.t.t.t.t.}%|%t.t.t.t.t.t.t.t.t.t.t.t.t.t.t.t.t.t.t.      ",
"                            t.t.t.t.t.t.t.t.t.t.1%2%t.t.t.t.t.t.t.t.t.  t.t.t.t.t.t.t.t.t.      ",
"                                t.t.t.t.t.t.t.t.t.t.t.t.t.t.t.t.t.      t.t.t.t.t.t.t.t.t.t.    ",
"                                      t.t.t.t.t.t.t.t.t.t.                t.t.t.t.t.t.t.t.t.    ",
"                                                                                                "};
