/* XPM */
static char * qnetwalk_xpm[] = {
"48 48 253 2",
"  	c #000000",
". 	c #010608",
"+ 	c #071F2B",
"@ 	c #06202B",
"# 	c #06212C",
"$ 	c #07242F",
"% 	c #08212D",
"& 	c #08242E",
"* 	c #072430",
"= 	c #092531",
"- 	c #092734",
"; 	c #0C2630",
"> 	c #0C2734",
", 	c #0A2833",
"' 	c #0A2835",
") 	c #0E2832",
"! 	c #0C2935",
"~ 	c #0A2A38",
"{ 	c #0B2C3A",
"] 	c #0B2D3C",
"^ 	c #0C2B38",
"/ 	c #0C2C3A",
"( 	c #0D2E3D",
"_ 	c #0D303E",
": 	c #112A35",
"< 	c #142D36",
"[ 	c #132D3A",
"} 	c #162E38",
"| 	c #11313E",
"1 	c #173039",
"2 	c #16303C",
"3 	c #19313B",
"4 	c #0B3040",
"5 	c #0E3141",
"6 	c #0E3344",
"7 	c #0F3443",
"8 	c #0F3444",
"9 	c #0D3648",
"0 	c #0E3A4C",
"a 	c #0F3C50",
"b 	c #123340",
"c 	c #123442",
"d 	c #103545",
"e 	c #143644",
"f 	c #113748",
"g 	c #173846",
"h 	c #113849",
"i 	c #123A4C",
"j 	c #123C4E",
"k 	c #153949",
"l 	c #143B4C",
"m 	c #143D4E",
"n 	c #1B3743",
"o 	c #1B3845",
"p 	c #1A3D4C",
"q 	c #103D51",
"r 	c #143E51",
"s 	c #183F50",
"t 	c #243C45",
"u 	c #233D49",
"v 	c #293F48",
"w 	c #124055",
"x 	c #154052",
"y 	c #154155",
"z 	c #134359",
"A 	c #12445A",
"B 	c #12475E",
"C 	c #164358",
"D 	c #164459",
"E 	c #15455C",
"F 	c #16485F",
"G 	c #1C4252",
"H 	c #1A465A",
"I 	c #18485D",
"J 	c #1F485B",
"K 	c #1D495D",
"L 	c #154A62",
"M 	c #154F69",
"N 	c #1A4B61",
"O 	c #16526E",
"P 	c #1F5167",
"Q 	c #1A526C",
"R 	c #175572",
"S 	c #1B5671",
"T 	c #1C5974",
"U 	c #195C7B",
"V 	c #26404B",
"W 	c #2C424B",
"X 	c #224453",
"Y 	c #214758",
"Z 	c #21495A",
"` 	c #224A5C",
" .	c #234C5D",
"..	c #244959",
"+.	c #254D5E",
"@.	c #294552",
"#.	c #2B4956",
"$.	c #2C4C5B",
"%.	c #30454E",
"&.	c #304750",
"*.	c #344C56",
"=.	c #3A4E57",
"-.	c #36525E",
";.	c #3A525C",
">.	c #254E60",
",.	c #265063",
"'.	c #22536A",
").	c #2A5365",
"!.	c #2A5568",
"~.	c #2C596C",
"{.	c #225B75",
"].	c #255F7A",
"^.	c #2D5C71",
"/.	c #315362",
"(.	c #315768",
"_.	c #375866",
":.	c #325A6C",
"<.	c #3B5560",
"[.	c #3B5866",
"}.	c #3E5D6B",
"|.	c #315E71",
"1.	c #26607A",
"2.	c #2B627A",
"3.	c #346073",
"4.	c #34647A",
"5.	c #35687F",
"6.	c #3A6476",
"7.	c #38667B",
"8.	c #3B697D",
"9.	c #41555D",
"0.	c #455B64",
"a.	c #405C69",
"b.	c #485B63",
"c.	c #485F69",
"d.	c #47606A",
"e.	c #48626E",
"f.	c #4F6169",
"g.	c #426371",
"h.	c #416778",
"i.	c #456B7B",
"j.	c #4A6775",
"k.	c #4C6874",
"l.	c #50636A",
"m.	c #52656D",
"n.	c #536A73",
"o.	c #536E79",
"p.	c #5A6C74",
"q.	c #5F7077",
"r.	c #5C727B",
"s.	c #63757C",
"t.	c #1A6282",
"u.	c #1D6789",
"v.	c #346A83",
"w.	c #3A6D84",
"x.	c #3E7085",
"y.	c #3C728A",
"z.	c #41748B",
"A.	c #45788F",
"B.	c #4E7485",
"C.	c #49788D",
"D.	c #457B94",
"E.	c #557583",
"F.	c #587785",
"G.	c #5E7E8C",
"H.	c #607680",
"I.	c #657B85",
"J.	c #657F8B",
"K.	c #6B7C83",
"L.	c #46819C",
"M.	c #4C829B",
"N.	c #4E87A1",
"O.	c #4C89A4",
"P.	c #4F8BA8",
"Q.	c #518AA3",
"R.	c #528FAA",
"S.	c #5290AD",
"T.	c #5393B0",
"U.	c #599DBC",
"V.	c #6A8089",
"W.	c #668797",
"X.	c #638899",
"Y.	c #6A8490",
"Z.	c #718085",
"`.	c #73848B",
" +	c #78868C",
".+	c #7A888E",
"++	c #778990",
"@+	c #778E98",
"#+	c #7C8C92",
"$+	c #798F99",
"%+	c #7E9199",
"&+	c #6A97AB",
"*+	c #6A9DB6",
"=+	c #769BAC",
"-+	c #7C9BA8",
";+	c #818F94",
">+	c #83939A",
",+	c #8C9A9F",
"'+	c #8E9BA2",
")+	c #949FA4",
"!+	c #8DA5B0",
"~+	c #95A1A6",
"{+	c #94A2A9",
"]+	c #98A3A7",
"^+	c #98A3A8",
"/+	c #9AA5AA",
"(+	c #98A6AD",
"_+	c #9AA8AF",
":+	c #9DA8AD",
"<+	c #94AFBC",
"[+	c #9CABB1",
"}+	c #97B0BB",
"|+	c #A1ABAE",
"1+	c #A1ADB2",
"2+	c #A7B0B4",
"3+	c #A1B2BA",
"4+	c #A8B1B4",
"5+	c #ABB6BA",
"6+	c #AEB8BB",
"7+	c #B1BABD",
"8+	c #8FB9CB",
"9+	c #B5BDC1",
"0+	c #A7C0CC",
"a+	c #A8C0CB",
"b+	c #B6C4CA",
"c+	c #BBC2C6",
"d+	c #BDC5C9",
"e+	c #B1C9D3",
"f+	c #C2CACD",
"g+	c #C8CFD1",
"h+	c #CDD2D5",
"i+	c #CED8DD",
"j+	c #D1D6D8",
"k+	c #D5DADD",
"l+	c #D8DCDE",
"m+	c #DADEE0",
"n+	c #DBE2E4",
"o+	c #DDE5E9",
"p+	c #E1E4E6",
"q+	c #E2E7E9",
"r+	c #E5E8EA",
"s+	c #E8EBEC",
"t+	c #EAECED",
"u+	c #ECEEEF",
"v+	c #EBEEF0",
"w+	c #EDEFF0",
"x+	c #EEF0F1",
"y+	c #F2F4F4",
"z+	c #F6F7F8",
"A+	c #F7F8F8",
"B+	c #F8F9FA",
"C+	c #FBFCFC",
"D+	c #FEFEFE",
"@ @ @ # # = / i C t+D+D+D+v+E q ( ~ ' ' ' ' ' 4 ] = = = % % # ' h r t+D+D+D+t+r d = # @ @ @ @ @ ",
"@ @ @ @ ' h D j 5 v+D+D+D+v+h C I i { ' ' = = ~ ~ = & % # ' h y i _ t+D+D+D+t+5 m y 5 = @ @ @ @ ",
"@ @ # ' x h ' $ % t+D+D+D+t+= ' 5 y y ' = = * ' - % # # ~ x h ' & } t+D+D+D+t+1 = / q j = @ @ @ ",
"@ @ ' x d = # @ # t+D+D+D+v+* * = ~ y r ' = & = = # # ~ y d & ) f./+A+D+D+D+A+/+l.< = j i = @ @ ",
"@ = r d # @ @ | >.t+D+D+D+t+` / % % = r i = # * # # = r d % %.:+t+C+y+q+n+q+y+C+t+:+&.= j i % @ ",
"# f j = @ # k 4.` t+D+D+D+t+!.3._ # # ' y _ # # # # f j = W 2+y+u+f+{+I.n.I.'+f+w+y+4+W ' r _ @ ",
"' D ^ @ # k 4.p ;.w+x+p+x+w+0...4.( @ # 5 y & @ @ ' y ' ; |+y+p+'+g.).).,.).!.k.~+s+y+)+; 5 y = ",
"d j % @ / |.g q.7+>+F.h.E.>+d+K.Z ).= @ = y / @ # d j = 0.t+y+^+g...^ % # % ! Z g.{+y+s+b.= y / ",
"/.$.t t [.E.p.6+o.w.y.4.y.y.r.c+*.^.e @ # i d @ % j 5 < ,+D+h+k.>.& # ' ( ' # & +.j.h+D+]+*./.$.",
"y+y+y+y+y+y+y+[+x.2.N N N 2.w.{+,++.+.@ @ 5 h % = r ' W h+y+~+|./ % d I N I g @ / |.[+y+B+y+y+y+",
"D+D+D+D+D+D+C+J.w.N N N N N w.o.h+$.^.@ @ / j % = r = 9.m+u+`.).& = I N N N I = ; !.#+w+D+D+D+D+",
"D+D+D+D+D+D+B+g.4.N N N N N 4.}.m+/.|.@ @ / i = = x & 9.p+s+V.).% ' N N N N N ' # ).V.s+D+D+D+D+",
"D+D+D+D+D+D+D+$+y.N N N N N y.J.c+).!.@ @ _ i % = r = =.l+x+#+~.= = D N N N D = = :.>+y+D+D+D+D+",
"k+k+k+k+l+m+m+6+8.y.P N P w.8.1+`.).G @ @ d h % = r / t d+A+1+3.c @ ( y I y ( @ c 3.6+B+w+l+l+l+",
"h h % % e ^.u |+>+6.w.w.v.6.>+7+#.|.^ @ & x 5 @ # h h )  +C+l+H.)./ @ % = # @ [ ).H.l+C+.+: x 5 ",
"( y = @ & ,.).;.1+f+%+[.%+f+7+c.4.G % @ ^ D = @ # ( y = W k+A+9+n.|.b , & , b :.n.9+y+l+W ( D ' ",
"& r 8 # @ = ~.!.X t+D+D+D+t+$.|.Z % @ & i h # @ # & r 8 % Z.r+y+9+K.i.:.>.:.i.I.9+y+r+Z.= h f # ",
"@ / x / @ # = G |.t+D+D+D+t+~.p % @ @ 5 r = # @ # @ / x / 3 #+r+A+p+d+:+'+:+d+p+A+r+#+3 5 x = @ ",
"@ # d y - @ @ % ' t+D+D+D+t+= @ @ # / C ( # @ @ # @ # d y - < K.j+A+D+A+y+z+D+A+j+K.1 ( C ( # @ ",
"@ @ % 5 y _ % @ @ t+D+D+D+t+@ @ = d y / # @ @ @ @ @ @ % 5 y _ % v s.y+D+D+D+y+s.W % d y / # @ @ ",
"@ @ @ % 5 y j ' & t+D+D+D+t+& / r r / # @ @ @ @ # @ @ @ % 5 y i ' ) t+D+D+D+t+! / r r / # @ @ @ ",
"@ @ @ @ @ ' h y r t+D+D+D+t+x y d = @ @ @ @ @ @ # @ @ @ @ # ' h y r t+D+D+D+t+y y d = @ @ @ @ @ ",
"@ @ @ @ @ @ % = / t+D+D+D+t+^ = # @ @ @ @ @ @ @ @ @ @ @ @ @ @ % ' / t+D+D+D+t+/ = # @ @ @ @ @ @ ",
"% % % % % % % % : u+D+D+D+r+% % % % % % % % % % @ % % % % % % % % : u+D+D+D+r+% % % % % % % % % ",
"@ @ @ @ @ @ @ # [ u+D+D+D+r+% @ @ @ @ @ @ @ @ @ @ @ @ @ @ @ @ @ # [ u+D+D+D+p+% @ + @ @ @ @ @ @ ",
"@ @ @ @ @ # ' h r t+D+D+D+t+x d = # @ @ @ @ @ @ # @ @ @ @ @ # { i H u+D+D+D+s+r d = # @ @ @ @ @ ",
"@ @ @ @ = h C m r t+D+D+D+t+G x y 5 = @ @ @ @ @ @ @ @ @ @ ' h y h _ t+D+D+D+t+7 j y 5 = @ @ @ @ ",
"@ @ # ' y l G ).).t+D+D+D+r+>.!.G y j = @ @ @ @ # @ @ # ' x h ' $ @ t+D+D+D+t+I.-.c q m = @ @ @ ",
"@ # / y k Z >.| ; u+D+D+D+t+% | !.` y i = @ @ @ # @ @ ' y d & @ @ @ t+D+D+D+t+5+1+I.n i i = @ @ ",
"@ = r h  .G % @ % t+D+D+D+t+@ @ % G >.r h % @ @ # @ = r d # @ @ @ = t+D+D+D+t+;.++3+$+V i i % @ ",
"# f r +.G & @ & t u+D+D+D+u+t & @ & G ,.y _ # # # # f i = @ @ # / r t+D+D+D+t+r p o.!+X.b r _ @ ",
"' D p ).% # ; n.f+y+m+g+m+y+f+p.; % % !.K y = = = ~ D ( # # # 5 r ( t+D+D+D+t+( r d i.&+6.k y = ",
"d r  .e @ & n.h+f+s.-.$.-.s.f+h+n.= $ k ,.H 5 ' - h y = # % ( y / ;.x+D+D+D+x+;./ r p C.M.X y / ",
"j d ,.) @ t c+j+9.!.D.O.D.!.9.j+f+;.u @.i.:.).@.<.(.$.V V V /.$.0.d+D+D+D+D+D+d+*._ j ).S.|.j d ",
"r k +.# & r.w+`.!.R.S.R.S.S.~.++B+y+y+y+y+y+y+y+y+y+y+y+y+y+y+y+y+D+D+D+D+D+D+B+(+: l 2 R.w.d i ",
"x G G @ ) .+r+-.z.R.R.R.S.S.D.}.t+D+D+D+D+D+D+D+D+D+D+D+D+D+D+D+D+D+D+D+D+D+D+D+k+V d ( M.w.b i ",
"x G p @ : ;+n+#.D.R.R.S.S.T.L./.r+D+D+D+D+D+D+D+D+D+D+D+D+D+D+D+D+D+D+D+D+D+D+D+n+*.5 / z.w.( i ",
"r p G % ; `.w+0.w.R.T.T.T.T.y.k.y+D+D+D+D+D+D+D+D+D+D+D+D+D+D+D+D+D+D+D+D+D+D+D+f+o g { Q.w.d i ",
"m k ,.% # m.s+>+..P.S.T.T.S.,.{+z+n+n+n+n+n+n+n+i+n+n+o+r+n+n+n+n+B+D+D+D+D+D+y+#+! j o S.8.h h ",
"h l ,./ % 3 :+n+K.X 4.y.v.` `.n+3+p ] h 2.Q w B A L L i.0+G.I y X {+y+D+D+D+y+{+u d l 3.Q.).x 5 ",
"( y Z p @ % *.9+q+(+d.#.e._+r+b+/.5 5 N 2.S i L B w Q ).<+}+!.N m G Y.b+k+b+V.n 5 y G M.D.p D , ",
"& r G !.! @ # *.{+p+r+p+r+q+_+}._ 5 h v.{.N 9 M L 0 Q N B.e+-+K N y 6 p X g ( h r k z.R.~.r h # ",
"@ / y G ,.! # = 2 <.r.K.r.}.k ( 5 i 2.].Q a 9 R M 9 z S H W.0+=+!.D E D y y y i Y A.Q.6.k r = @ ",
"@ % d y G >.! % = = ' ~ ] { ( 5 i 2.1.T E 0 0 T O 0 0 L S H X.8+*+z.J m h k G 7.N.R.8.k y / @ @ ",
"@ @ % 5 y H !.Z d ' ' ' { ( x '.v.].T A 0 0 0 U R 0 0 q L S N 7.R.U.U.T.O.S.T.S.D.).l y / # @ @ ",
"@ @ @ % 5 y H H ^.4.~.,.^.v.v.{.T Q z 0 0 a a t.U a a 0 j L S Q K '.w.v.v.v.7.Z s y x / # @ @ @ ",
"@ @ @ @ # ! i H D I N '.Q Q Q Q L q 0 0 a q q t.U q q a 0 0 w N Q Q D y q j r D D h - # @ @ @ @ ",
"@ @ @ @ @ # = ~ 5 i G >.y x j h 9 0 0 a q q w u.t.w q q a 0 0 0 i q y H >.q i 5 ' = # @ @ @ @ @ "};
