/* XPM */
static char * qt_creator_xpm[] = {
"48 48 453 2",
"  	c None",
". 	c #076323",
"+ 	c #136C27",
"@ 	c #519D36",
"# 	c #7ABE40",
"$ 	c #7FC241",
"% 	c #076324",
"& 	c #68B03B",
"* 	c #81C442",
"= 	c #025F23",
"- 	c #5AA538",
"; 	c #82C442",
"> 	c #066224",
", 	c #106A26",
"' 	c #85C743",
") 	c #7EC140",
"! 	c #046123",
"~ 	c #2B7F2D",
"{ 	c #83C542",
"] 	c #30832E",
"^ 	c #046023",
"/ 	c #80C341",
"( 	c #7EC13F",
"_ 	c #7DC13F",
": 	c #7EC240",
"< 	c #6DB539",
"[ 	c #57A13B",
"} 	c #8FC277",
"| 	c #B4D999",
"1 	c #C2E1A5",
"2 	c #BADE98",
"3 	c #A5D479",
"4 	c #81C344",
"5 	c #7CC13C",
"6 	c #80C340",
"7 	c #82C542",
"8 	c #59A536",
"9 	c #3D864D",
"0 	c #DAE7DD",
"a 	c #F6F9F8",
"b 	c #FEFEFF",
"c 	c #FFFFFF",
"d 	c #FBFDF9",
"e 	c #F1F8EA",
"f 	c #A2D275",
"g 	c #7AC03A",
"h 	c #72B83E",
"i 	c #76B944",
"j 	c #89C64D",
"k 	c #7BC03B",
"l 	c #5EA838",
"m 	c #1A6E38",
"n 	c #DFEBE3",
"o 	c #FEFFFE",
"p 	c #A8D67F",
"q 	c #84C642",
"r 	c #136D23",
"s 	c #7FAE92",
"t 	c #E5F3D7",
"u 	c #7ABF39",
"v 	c #76BB3F",
"w 	c #09671D",
"x 	c #A8C8B3",
"y 	c #F6FBF0",
"z 	c #B4D89E",
"A 	c #7FAF8D",
"B 	c #DDEAE1",
"C 	c #F2F9EC",
"D 	c #8BC752",
"E 	c #74B93E",
"F 	c #05631C",
"G 	c #CBDED1",
"H 	c #E2F2D5",
"I 	c #7AC039",
"J 	c #4A9832",
"K 	c #2C7A44",
"L 	c #FCFEFB",
"M 	c #B3DA8E",
"N 	c #54A034",
"O 	c #42875C",
"P 	c #F3F8F5",
"Q 	c #C1E1A3",
"R 	c #7EC23D",
"S 	c #086421",
"T 	c #7CBF40",
"U 	c #247C24",
"V 	c #90B99D",
"W 	c #F4FAEE",
"X 	c #89C750",
"Y 	c #7FC240",
"Z 	c #78BC3F",
"` 	c #106B1F",
" .	c #CFE1D4",
"..	c #FCFEF8",
"+.	c #5CA635",
"@.	c #5EA152",
"#.	c #649D76",
"$.	c #E5F3D8",
"%.	c #85C54A",
"&.	c #88C64F",
"*.	c #80C242",
"=.	c #0E6A20",
"-.	c #D6E5DB",
";.	c #E9F4DE",
">.	c #79BF38",
",.	c #7CC040",
"'.	c #277E25",
").	c #88B496",
"!.	c #3E8458",
"~.	c #B1CDBD",
"{.	c #FEFFFF",
"].	c #FDFEFC",
"^.	c #EDF6E4",
"/.	c #8CC854",
"(.	c #71B73E",
"_.	c #1A6F33",
":.	c #E9F1EB",
"<.	c #D6EBC3",
"[.	c #388B2B",
"}.	c #5A976E",
"|.	c #83B091",
"1.	c #ADCBB8",
"2.	c #8FCA59",
"3.	c #6AB13B",
"4.	c #297846",
"5.	c #EEF4F0",
"6.	c #CAE6B1",
"7.	c #43932F",
"8.	c #3E8655",
"9.	c #C4DFB9",
"0.	c #358636",
"a.	c #B7D1C0",
"b.	c #EBF5E5",
"c.	c #ABD293",
"d.	c #BADBA4",
"e.	c #87C54E",
"f.	c #5FA938",
"g.	c #388153",
"h.	c #F2F7F3",
"i.	c #C2E2A4",
"j.	c #499731",
"k.	c #2F7D47",
"l.	c #DEEFD1",
"m.	c #1B7817",
"n.	c #A0C3AB",
"o.	c #E1F1D3",
"p.	c #76BE33",
"q.	c #7BC03A",
"r.	c #58A337",
"s.	c #41875B",
"t.	c #F4F8F5",
"u.	c #BFE0A0",
"v.	c #4D9B33",
"w.	c #24753D",
"x.	c #E4F1DA",
"y.	c #1E791A",
"z.	c #A1C4AD",
"A.	c #81C341",
"B.	c #55A236",
"C.	c #44885E",
"D.	c #F5F8F6",
"E.	c #BBDE9A",
"F.	c #4D9B34",
"G.	c #23753B",
"H.	c #E6F3DF",
"I.	c #1F7A1C",
"J.	c #59A437",
"K.	c #40865A",
"L.	c #BFE19F",
"M.	c #24763D",
"N.	c #E5F1DC",
"O.	c #1F7A1B",
"P.	c #60AA38",
"Q.	c #378052",
"R.	c #F1F6F3",
"S.	c #C3E2A5",
"T.	c #4A9932",
"U.	c #2B7A43",
"V.	c #E0EFD5",
"W.	c #297745",
"X.	c #CBE6B2",
"Y.	c #79BF39",
"Z.	c #459430",
"`.	c #39824F",
" +	c #D5EAC5",
".+	c #BEC0C1",
"++	c #71B73D",
"@+	c #196E34",
"#+	c #E9F1EC",
"$+	c #D8ECC6",
"%+	c #78BF38",
"&+	c #3D8F2D",
"*+	c #4C8E61",
"=+	c #C3E1AA",
"-+	c #D1D3D3",
";+	c #C3C5C6",
">+	c #0D691F",
",+	c #DDE9E2",
"'+	c #EAF5E0",
")+	c #7EC141",
"!+	c #318629",
"~+	c #6DA37E",
"{+	c #A9D483",
"]+	c #217B1F",
"^+	c #CFD1D2",
"/+	c #EAECED",
"(+	c #848685",
"_+	c #7BBF40",
":+	c #1F7822",
"<+	c #9EC2AA",
"[+	c #88C64E",
"}+	c #7BBE40",
"|+	c #1E7722",
"1+	c #A3C5AE",
"2+	c #87C550",
"3+	c #237C22",
"4+	c #E3F2D6",
"5+	c #D2D4D4",
"6+	c #EBECEC",
"7+	c #80C241",
"8+	c #42922F",
"9+	c #A5D47A",
"0+	c #7EC23F",
"a+	c #72B83D",
"b+	c #156D2C",
"c+	c #E1EDE5",
"d+	c #E7F3DC",
"e+	c #76BD38",
"f+	c #257D24",
"g+	c #F7FBF2",
"h+	c #7FBD52",
"i+	c #7AB660",
"j+	c #88C553",
"k+	c #B2B4B4",
"l+	c #E0E1E2",
"m+	c #E8EAEA",
"n+	c #E5E7E7",
"o+	c #AFB0B1",
"p+	c #6BB23C",
"q+	c #06631F",
"r+	c #D3E3D9",
"s+	c #E1F0D2",
"t+	c #80C246",
"u+	c #207824",
"v+	c #80AF91",
"w+	c #FDFEFD",
"x+	c #348829",
"y+	c #76A886",
"z+	c #F2F8F0",
"A+	c #F6F9FB",
"B+	c #A2D377",
"C+	c #C3C4C4",
"D+	c #EEEFEF",
"E+	c #E4E5E6",
"F+	c #E1E3E3",
"G+	c #838484",
"H+	c #378A2E",
"I+	c #388150",
"J+	c #EDF3F1",
"K+	c #DFEBE4",
"L+	c #DDEFCE",
"M+	c #84C449",
"N+	c #5CA738",
"O+	c #19702F",
"P+	c #F2F7F4",
"Q+	c #A1D274",
"R+	c #A5A7A7",
"S+	c #DBDCDC",
"T+	c #F4F5F5",
"U+	c #E8E9E9",
"V+	c #D9D9D9",
"W+	c #EFF0F0",
"X+	c #CDCFCF",
"Y+	c #33862F",
"Z+	c #6DA281",
"`+	c #E6F3D9",
" @	c #92CC5E",
".@	c #57A335",
"+@	c #63A554",
"@@	c #B8DAA0",
"#@	c #C8E5AD",
"$@	c #BADE99",
"%@	c #9FD170",
"&@	c #82C345",
"*@	c #C9CACB",
"=@	c #E7E8E8",
"-@	c #F1F1F2",
";@	c #ECECEC",
">@	c #D4D5D6",
",@	c #EDEDEE",
"'@	c #EBECED",
")@	c #BCBDBE",
"!@	c #55A037",
"~@	c #478D54",
"{@	c #BED5C6",
"]@	c #FCFDFB",
"^@	c #B6DC93",
"/@	c #85C54B",
"(@	c #7DC040",
"_@	c #7FC242",
":@	c #7FC340",
"<@	c #C4C5C6",
"[@	c #E5E6E6",
"}@	c #EDEFEF",
"|@	c #EFF1F1",
"1@	c #CDCECE",
"2@	c #E4E5E5",
"3@	c #EEEFF0",
"4@	c #E6E7E7",
"5@	c #A9ABAB",
"6@	c #89CB43",
"7@	c #0B6722",
"8@	c #9BC0A8",
"9@	c #93CB5F",
"0@	c #E2E3E3",
"a@	c #EDEEEE",
"b@	c #CFD0D0",
"c@	c #D8D9D9",
"d@	c #DDDEDE",
"e@	c #8C8D8D",
"f@	c #3B8C2E",
"g@	c #659D7A",
"h@	c #FCFDFC",
"i@	c #E3F1D5",
"j@	c #ACD884",
"k@	c #92CB5C",
"l@	c #7FC33F",
"m@	c #BFBEC2",
"n@	c #D6D8D7",
"o@	c #ECEDED",
"p@	c #ECEEED",
"q@	c #D5D5D5",
"r@	c #D1D1D2",
"s@	c #D4D5D5",
"t@	c #6DB43C",
"u@	c #1B7035",
"v@	c #ECF3EE",
"w@	c #B6DC92",
"x@	c #B6B6B7",
"y@	c #E9EAEA",
"z@	c #EBEBEC",
"A@	c #E1E1E1",
"B@	c #C6C6C7",
"C@	c #E9E9EA",
"D@	c #BFBFBF",
"E@	c #3E8F2C",
"F@	c #559465",
"G@	c #F3F7F4",
"H@	c #FBFCFB",
"I@	c #CACBCB",
"J@	c #EAEBEB",
"K@	c #B9B9B9",
"L@	c #E4E4E4",
"M@	c #EAEAEA",
"N@	c #9C9D9D",
"O@	c #5AA633",
"P@	c #6AAC50",
"Q@	c #A5D087",
"R@	c #B9DD97",
"S@	c #B1DA8C",
"T@	c #91CB5C",
"U@	c #ACA8B2",
"V@	c #DBDBDC",
"W@	c #E9E8EA",
"X@	c #E8E8EA",
"Y@	c #E5E5E5",
"Z@	c #BABABA",
"`@	c #EAEAEB",
" #	c #E8E8E9",
".#	c #DEDEDF",
"+#	c #686969",
"@#	c #7EC340",
"##	c #D7D7D8",
"$#	c #E8E8E8",
"%#	c #E7E7E7",
"&#	c #C1C1C1",
"*#	c #D6D6D7",
"=#	c #E9E9E9",
"-#	c #EBEBEB",
";#	c #BFBFC0",
">#	c #B7B8B8",
",#	c #D0D0D0",
"'#	c #C2C1C3",
")#	c #9B9B9B",
"!#	c #DCDCDD",
"~#	c #E6E6E7",
"{#	c #D1D1D1",
"]#	c #B4B5B5",
"^#	c #036023",
"/#	c #30832D",
"(#	c #959797",
"_#	c #E7E7E8",
":#	c #E4E4E5",
"<#	c #E5E5E6",
"[#	c #D8D8D9",
"}#	c #AFAFAF",
"|#	c #E1E1E2",
"1#	c #BBBCBC",
"2#	c #34862F",
"3#	c #A3A4A4",
"4#	c #E6E6E6",
"5#	c #E3E4E4",
"6#	c #DFE0E0",
"7#	c #B4B4B4",
"8#	c #DEDFDF",
"9#	c #939393",
"0#	c #A2A3A3",
"a#	c #E3E2E2",
"b#	c #E3E3E3",
"c#	c #B9BABA",
"d#	c #C7C7C7",
"e#	c #C9CACA",
"f#	c #9A9B9B",
"g#	c #BCBCBD",
"h#	c #E2E2E2",
"i#	c #7E7F7F",
"j#	c #E0E0E1",
"k#	c #CBCACB",
"l#	c #AFAFB0",
"m#	c #E3E3E4",
"n#	c #E0E0E2",
"o#	c #A3A3A3",
"p#	c #E0E0E0",
"q#	c #D7D7D7",
"r#	c #B0B0B0",
"s#	c #DADADA",
"t#	c #E0E0DF",
"u#	c #B3B4B5",
"v#	c #C1C1C2",
"w#	c #E0DFE0",
"x#	c #DFDEDF",
"y#	c #AAAAAB",
"z#	c #CECDCE",
"A#	c #DEDDDE",
"B#	c #E2E1E1",
"C#	c #ABACAC",
"D#	c #B3B3B3",
"E#	c #DFDFDF",
"F#	c #B3B2B3",
"G#	c #C1C0C1",
"H#	c #DDDDDD",
"I#	c #959696",
"J#	c #A4A4A5",
"K#	c #C3C3C3",
"L#	c #BEBEBE",
"M#	c #DEDEDE",
"N#	c #DCDBDC",
"O#	c #CECECE",
"P#	c #B4B3B4",
"Q#	c #9E9F9F",
"R#	c #B8B8B8",
"S#	c #B8B9B9",
"T#	c #AFB0B0",
"      . + @ # $ $ $                                                                             ",
"    % + & * $ $ $ $ $ $ $ $ $ $ $                                                               ",
"  % = - ; $ $ $ $ $ $ $ $ $ $ $ $ $ $ $ $ $ $                                                   ",
"% > , ' $ $ $ $ $ $ $ $ $ $ $ $ $ $ $ $ $ $ $ $ $ $ $ )                                         ",
"% ! ~ { $ $ $ $ $ $ $ $ $ $ $ $ $ $ $ $ $ $ $ $ $ $ $ $ $ $ $ $ $                               ",
"% ! ] { $ $ $ $ $ $ $ $ $ $ $ $ $ $ $ $ $ $ $ $ $ $ $ $ $ $ $ $ $                               ",
"% ^ ] { $ $ $ $ $ $ $ / ( _ : ( : $ $ $ $ $ $ $ $ $ $ $ $ $ $ $ $                               ",
"% ^ ] { $ $ $ $ $ ; < [ } | 1 2 3 4 5 $ $ $ $ / 6 ( $ $ $ $ $ $ $                               ",
"% ^ ] { $ $ $ $ 7 8 9 0 a b c c d e f g $ $ / h i j k $ $ $ $ $ $                               ",
"% ^ ] { $ $ $ ; l m n c c c b c c c o p $ $ q r s c t u $ $ $ $ $                               ",
"% ^ ] { $ $ $ v w x c c c y z A B c c C D $ E F G c H I $ $ $ $ $                               ",
"% ^ ] { $ $ / J K c c c L M _ N O P c c Q R l S c c H I $ $ $ $ $                               ",
"% ^ ] { $ $ T U V c c c W X Y Z `  .c c ..+.@.#.c c $.%.&.*.$ $ $                               ",
"% ^ ] { $ $ v =.-.c c c ;.>.$ ,.'.).c c c !.~.c {.c ].C ^./.$ $ $                               ",
"% ^ ] { $ $ (._.:.c c c <.>.$ $ [.}.c c c |.1.c c c c c c 2.$ $ $                               ",
"% ^ ] { $ $ 3.4.5.c c c 6.u $ / 7.8.c c c 9.0.a.c c b.c.d.e.$ $ $                               ",
"% ^ ] { $ / f.g.h.c c c i.g $ / j.k.c c c l.m.n.c c o.p.q.: $ $ $                               ",
"% ^ ] { $ / r.s.t.c c c u.g $ / v.w.c c c x.y.z.c c H I $ $ $ $ $                               ",
"% ^ ] { $ A.B.C.D.c c c E.g $ / F.G.c c c H.I.z.c c H I $ $ $ $ $                               ",
"% ^ ] { $ / J.K.t.c c c L.g $ / v.M.c c c N.O.z.c c H I $ $ $ $ $                               ",
"% ^ ] { $ / P.Q.R.c c c S.g $ / T.U.c c c V.y.z.c c H I $ $ $ $ $                               ",
"% ^ ] { $ $ 3.W.5.c c c X.Y.$ / Z.`.c c c  +y.z.c c H I $ $ $ $ $                         .+    ",
"% ^ ] { $ $ ++@+#+c c c $+%+$ / &+*+c c c =+I.z.c c H I $ $ $ $ $                       -+;+    ",
"% ^ ] { $ $ v >+,+c c c '+>.$ )+!+~+c c c {+]+z.c c H I $ $ $ $ $                     ^+/+(+    ",
"% ^ ] { $ $ _+:+<+c c c W [+Y }+|+1+c c c 2+3+z.c c 4+>.Y $ $ $ $                   5+6+5+      ",
"% ^ ] { $ $ 7+8+8.c c c d 9+0+a+b+c+c c d+e+f+<+c c g+h+i+j+Y $ $               k+l+m+n+o+      ",
"% ^ ] { $ $ 7+p+q+r+c c c s+t+u+v+w+c c 3 _ x+y+c c c z+A+B+( $ $             C+D+E+l+F+G+      ",
"% ^ ] { $ $ $ ' H+I+c c c c J+K+c c c L+M+/ N+O+P+c c c c Q+( $ $         R+S+T+U+V+W+X+        ",
"% ^ ] { $ $ $ $ / Y+Z+b c c c c c c `+ @: $ * .@+@@@#@$@%@&@$ $ $       *@=@-@;@>@,@'@)@        ",
"% ^ ] { $ $ $ $ $ T !@~@{@c c c ]@^@/@: $ $ $ / ) (@_@( : $ $ :@    <@[@}@D+|@1@2@3@4@5@        ",
"% ^ ] { $ $ $ $ $ $ * 6@7@8@c c c 9@_ Y $ $ $ $ $ $ $ $ $ :     k+0@W+a@a@a@b@c@W+a@d@e@        ",
"% ^ ] { $ $ $ $ $ $ $ 7 f@g@h@c c i@j@k@Y $ $ $ $ $ $ l@    m@n@o@p@6+6+o@q@r@D+6+o@s@          ",
"% ^ ] { $ $ $ $ $ $ $ $ t@u@v@c c c L w@( $ $ $ $ $     x@S+y@z@z@z@z@z@A@B@C@z@z@o@D@          ",
"% ^ ] { $ $ $ $ $ $ $ $ )+E@F@G@H@c ].w@( $ $ $ $     I@6+J@J@J@J@J@J@4@K@L@J@J@J@M@N@          ",
"% ^ ] { $ $ $ $ $ $ $ $ $ * O@P@Q@R@S@T@Y $ $ $   U@V@z@W@X@X@X@X@C@Y@Z@V@`@ #X@C@.#+#          ",
"% ^ ] { $ $ $ $ $ $ $ $ $ $ / Y ( ( ( Y $ $ $ @#  ## #$#$#$#$#$#$#%#&#*#=#$#$#$#-#;#            ",
"% ^ ] { $ $ $ $ $ $ $ $ $ $ $ $ $ $ $ $ $ $ $   >#-#%#%#%#%#%#%#$#,#'#%#%#%#%#%#%#)#            ",
"% ! ] { $ $ $ $ $ $ $ $ $ $ $ $ $ $             !#%#~#~#~#~#~#=#{#]#L@~#~#~#~#%#q@              ",
"  ^#/#{ $ $ $ $ $ $ $ $                       (#_#:#:#:#:#:#<#[#}#|#<#:#:#:#:#:#1#              ",
"    2#{ $ $ $                                 3#4#5#5#5#5#5#6#7#V+5#5#5#5#5#5#8#9#              ",
"                                              0#Y@a#a#a#b#L@c#d#b#a#a#a#a#a#L@e#                ",
"                                              f#L@A@A@A@L@g#K@h#A@A@A@A@A@A@A@i#                ",
"                                                A@j#j#j#k#l#m#j#j#j#j#j#j#n#o#                  ",
"                                                ##p#p#q#r#s#p#t#p#p#t#p#p#u#                    ",
"                                                v#w#x#y#z#A#A#A#A#A#x#B#C#                      ",
"                                                D#E#F#G#p#H#H#H#H#s#,#I#                        ",
"                                                J#K#L#A@M#x#N#O#K#P#                            ",
"                                                  Q#R#1#S#T#                                    "};
