/* XPM */
static char * qt3_xpm[] = {
"48 48 187 2",
"  	c None",
". 	c #AACA00",
"+ 	c #A8C800",
"@ 	c #91AC00",
"# 	c #6D8100",
"$ 	c #4C5A00",
"% 	c #343D00",
"& 	c #252C00",
"* 	c #293100",
"= 	c #3D4900",
"- 	c #596A00",
"; 	c #7B9200",
"> 	c #9DBB00",
", 	c #A5C400",
"' 	c #6F8400",
") 	c #2D3600",
"! 	c #0D0F00",
"~ 	c #010100",
"{ 	c #000000",
"] 	c #040500",
"^ 	c #151800",
"/ 	c #445100",
"( 	c #8BA500",
"_ 	c #A9C900",
": 	c #819900",
"< 	c #1F2500",
"[ 	c #020200",
"} 	c #060700",
"| 	c #9AB700",
"1 	c #A2C100",
"2 	c #4E5D00",
"3 	c #030300",
"4 	c #141700",
"5 	c #799000",
"6 	c #99B500",
"7 	c #364000",
"8 	c #080A00",
"9 	c #627400",
"0 	c #A7C700",
"a 	c #9EBC00",
"b 	c #313A00",
"c 	c #040400",
"d 	c #161A00",
"e 	c #222800",
"f 	c #1E2400",
"g 	c #0E1100",
"h 	c #637600",
"i 	c #A8C700",
"j 	c #434F00",
"k 	c #516000",
"l 	c #869F00",
"m 	c #99B600",
"n 	c #A2C000",
"o 	c #9FBD00",
"p 	c #93AF00",
"q 	c #738900",
"r 	c #394300",
"s 	c #080900",
"t 	c #4F5E00",
"u 	c #A7C600",
"v 	c #859E00",
"w 	c #2A3200",
"x 	c #000100",
"y 	c #161B00",
"z 	c #9DBA00",
"A 	c #111400",
"B 	c #7A9100",
"C 	c #A4C200",
"D 	c #455100",
"E 	c #475500",
"F 	c #0A0B00",
"G 	c #809800",
"H 	c #465300",
"I 	c #0B0D00",
"J 	c #8EA900",
"K 	c #9EBB00",
"L 	c #151900",
"M 	c #637500",
"N 	c #A1C000",
"O 	c #3A4500",
"P 	c #121500",
"Q 	c #7F9700",
"R 	c #293000",
"S 	c #4B5900",
"T 	c #728800",
"U 	c #A4C300",
"V 	c #A0BF00",
"W 	c #3C4700",
"X 	c #131600",
"Y 	c #829A00",
"Z 	c #090B00",
"` 	c #1B2000",
" .	c #424E00",
"..	c #758B00",
"+.	c #A1BF00",
"@.	c #3C4800",
"#.	c #829B00",
"$.	c #A6C500",
"%.	c #374100",
"&.	c #050500",
"*.	c #202600",
"=.	c #191E00",
"-.	c #9CB900",
";.	c #A3C200",
">.	c #010200",
",.	c #3B4600",
"'.	c #718700",
").	c #97B300",
"!.	c #131700",
"~.	c #303900",
"{.	c #A0BE00",
"].	c #0F1100",
"^.	c #414E00",
"/.	c #8CA600",
"(.	c #0A0C00",
"_.	c #546400",
":.	c #323B00",
"<.	c #8AA400",
"[.	c #090A00",
"}.	c #5A6B00",
"|.	c #3E4A00",
"1.	c #212700",
"2.	c #9BB800",
"3.	c #232900",
"4.	c #3F4B00",
"5.	c #0D1000",
"6.	c #748900",
"7.	c #1E2300",
"8.	c #92AD00",
"9.	c #0F1200",
"0.	c #A3C100",
"a.	c #768C00",
"b.	c #98B500",
"c.	c #394400",
"d.	c #9FBC00",
"e.	c #1A1E00",
"f.	c #282F00",
"g.	c #839C00",
"h.	c #505F00",
"i.	c #2F3800",
"j.	c #070900",
"k.	c #8DA800",
"l.	c #1C2100",
"m.	c #050600",
"n.	c #060800",
"o.	c #516100",
"p.	c #738800",
"q.	c #5D6E00",
"r.	c #A9C800",
"s.	c #8FA900",
"t.	c #748A00",
"u.	c #6A7E00",
"v.	c #8DA700",
"w.	c #2E3700",
"x.	c #303A00",
"y.	c #2C3400",
"z.	c #030400",
"A.	c #708500",
"B.	c #7F9600",
"C.	c #343E00",
"D.	c #92AE00",
"E.	c #242B00",
"F.	c #90AC00",
"G.	c #101300",
"H.	c #7B9300",
"I.	c #0C0E00",
"J.	c #556500",
"K.	c #94B000",
"L.	c #A6C600",
"M.	c #272E00",
"N.	c #AAC900",
"O.	c #0B0E00",
"P.	c #546300",
"Q.	c #667900",
"R.	c #718600",
"S.	c #607300",
"T.	c #455200",
"U.	c #728700",
"V.	c #798F00",
"W.	c #4A5800",
"X.	c #95B100",
"Y.	c #849D00",
"Z.	c #617400",
"`.	c #98B400",
" +	c #7E9600",
".+	c #97B400",
"++	c #87A000",
"                                                                                                ",
"                                                                                                ",
"                                                                                                ",
"                                                                                                ",
"          . . . . . . . . . . . . . . . . . . . . . . . . . . . . . . . . . . . . . .           ",
"          . . . . . . . . . . . . . . . . . . . . . . . . . . . . . . . . . . . . . .           ",
"          . . . . . . . . . . . . . . . . . . . . . . . . . . . . . . . . . . . . . .           ",
"          . . . . . . . . . . . . . + @ # $ % & & * = - ; > . . . . . . . . . . . . .           ",
"          . . . . . . . . . . . , ' ) ! ~ { { { { { { { ] ^ / ( . . . . . . . . . . .           ",
"          . . . . . . . . . _ : < [ { { { { { { { { { { { { { } / | . . . . . . . . .           ",
"          . . . . . . . . 1 2 3 { { { { { { { { { { { { { { { { { 4 5 + . . . . . . .           ",
"          . . . . . . . 6 7 ~ { { { { { { { { { { { { { { { { { { { 8 9 0 . . . . . .           ",
"          . . . . . . a b { { { { { { { { c d e e f g { { { { { { { { } h _ . . . . .           ",
"          . . . . . i j ~ { { { { { { d k l m n n o p q r } { { { { { { s ; . . . . .           ",
"          . . . . . ' [ { { { { { } t | _ . . . . . . . u v w x { { { { { y z . . . .           ",
"          . . . . z A { { { { { ! B _ . . . . . . . . + . . C D ~ { { { { { E . . . .           ",
"          . . . . k { { { { { F G . . . . . . . . . 1 H G . . + j ~ { { { { I J . . .           ",
"          . . . K L { { { { ~ M . . . . . . . . . N O { P Q . . N R { { { { { S . . .           ",
"          . . . T 3 { { { { * U . . . . . . . . V W ~ { { X G . . Y Z { { { { ` z . .           ",
"          . . .  .{ { { { ~ ... . . . . . . . +.@.[ { { { { P #.. $.%.{ { { { &.: . .           ",
"          . . , *.{ { { { =.-.. . . . . . . ;.@.>.{ { { { { { ,._ . '.{ { { { { 9 . .           ",
"          . . ).!.{ { { { O _ . . . . . . ;.O { { { { { { ~ ~.{.. . @ ].{ { { { ^.. .           ",
"          . . /.(.{ { { { _.. . . . . . ;.,.{ { { { { { ~ :.> . . . o ` { { { { b . .           ",
"          . . <.[.{ { { { }.. . . . . N |.x { { { { { { 1.2.. . . . i 3.{ { { { b . .           ",
"          . . <.[.{ { { { }.. . . . N 4.[ { { { { { { { 5.6._ . . . 1 7.{ { { { b . .           ",
"          . . 8.9.{ { { { H . . . 0.4.[ { { { { { { { { { ! a.. . . b.L { { { { c.. .           ",
"          . . d.e.{ { { { f.C . , 4.~ { { { { { { { { { { { (.5 . . g.] { { { { h.. .           ",
"          . . . i.{ { { { j.k.. m l.{ { { { { ~ m.{ { { { { { n.5 _ o.{ { { { ~ p.. .           ",
"          . . . q.x { { { { S r.. s.f { { { ~ i.t.4 { { { { { { I u.=.{ { { { g @ . .           ",
"          . . . ( Z { { { { I v.. . v.f { x w.2.. #.P { { { { { { ] { { { { { x.i . .           ",
"          . . . r.b { { { { { f.V . . k.l.y.-.. . . g.9.{ { { { { { { { { { z.A.. . .           ",
"          . . . . B.3 { { { { { C.V . . D.a . . . . . Y 9.{ { { { { { { { { E.1 . . .           ",
"          . . . . _ W { { { { { x w F._ . . . . . . . . Y G.{ { { { { { { 3 H.. . . .           ",
"          . . . . . | d { { { { { { I.J.K.L.. . . . . +.: M.{ { { { { { { m.H.N.. . .           ",
"          . . . . . . G O.{ { { { { { { I b P.Q.R.S.T.*.3 { { { { { { { { { 5.5 _ . .           ",
"          . . . . . . _ U.I.{ { { { { { { { { { { { { { { { { { { { { { { { { 9.V._ .           ",
"          . . . . . . . r.; d { { { { { { { { { { { { { { { { { { { { { { { { ~ W.+ .           ",
"          . . . . . . . . . X.7 { { { { { { { { { { { { { { { { (.W.g { { { ~ W +.. .           ",
"          . . . . . . . . . . + 5 f.] { { { { { { { { { { ~ I  .b._ Q 9.{ ~ W ;.. . .           ",
"          . . . . . . . . . . . . i Y.2 e 9.8 } } } I L :.Z.`.. . . .  +A ,., . . . .           ",
"          . . . . . . . . . . . . . . . . .+++: : : v.+.. . . . . . . . /.0.. . . . .           ",
"          . . . . . . . . . . . . . . . . . . . . . . . . . . . . . . . . . . . . . .           ",
"          . . . . . . . . . . . . . . . . . . . . . . . . . . . . . . . . . . . . . .           ",
"          . . . . . . . . . . . . . . . . . . . . . . . . . . . . . . . . . . . . . .           ",
"                                                                                                ",
"                                                                                                ",
"                                                                                                ",
"                                                                                                "};
