/* XPM */
static char * qt4_xpm[] = {
"48 48 411 2",
"  	c None",
". 	c #00481B",
"+ 	c #277125",
"@ 	c #56A031",
"# 	c #64AE35",
"$ 	c #66B036",
"% 	c #66AF36",
"& 	c #024B1B",
"* 	c #014B1C",
"= 	c #287226",
"- 	c #60AA34",
"; 	c #65AF35",
"> 	c #65B035",
", 	c #65B036",
"' 	c #024C1C",
") 	c #014B1B",
"! 	c #0D571F",
"~ 	c #61AB34",
"{ 	c #66B035",
"] 	c #00491B",
"^ 	c #347E29",
"/ 	c #6AB437",
"( 	c #024C1B",
"_ 	c #00471A",
": 	c #519B30",
"< 	c #67B136",
"[ 	c #549E31",
"} 	c #67B135",
"| 	c #64AF33",
"1 	c #68B236",
"2 	c #68B235",
"3 	c #4D9A29",
"4 	c #4E9A2B",
"5 	c #6FB148",
"6 	c #75B849",
"7 	c #5FAC2C",
"8 	c #61AD2F",
"9 	c #024B1C",
"0 	c #5DA733",
"a 	c #307929",
"b 	c #3D7552",
"c 	c #C0D1CA",
"d 	c #FFFFFF",
"e 	c #FEFFFE",
"f 	c #C3E0B0",
"g 	c #7ABA50",
"h 	c #62AC34",
"i 	c #67AF39",
"j 	c #68B139",
"k 	c #65AF36",
"l 	c #59A332",
"m 	c #145D22",
"n 	c #8DAD9B",
"o 	c #F7FBF5",
"p 	c #A3CF86",
"q 	c #60AC2E",
"r 	c #216E1D",
"s 	c #9CC293",
"t 	c #C6E2B3",
"u 	c #A0CE83",
"v 	c #6BB537",
"w 	c #115B1E",
"x 	c #69947A",
"y 	c #FDFDFD",
"z 	c #FEFEFE",
"A 	c #F6F8F7",
"B 	c #96C876",
"C 	c #61AD30",
"D 	c #5CA633",
"E 	c #024C1A",
"F 	c #E0E9E4",
"G 	c #D4E8C6",
"H 	c #6BB33D",
"I 	c #69B336",
"J 	c #3C862B",
"K 	c #11552B",
"L 	c #DBE6DF",
"M 	c #F6FAF3",
"N 	c #75B352",
"O 	c #0C5C11",
"P 	c #518463",
"Q 	c #F3F8EF",
"R 	c #6DB340",
"S 	c #4B952E",
"T 	c #23613D",
"U 	c #EDF2EF",
"V 	c #D3E8C5",
"W 	c #0F5A1D",
"X 	c #4C815F",
"Y 	c #FEFEFF",
"Z 	c #90C56D",
"` 	c #62AE30",
" .	c #5FA934",
"..	c #004C12",
"+.	c #7CA28A",
"@.	c #FDFEFC",
"#.	c #A2CE86",
"$.	c #216F1B",
"%.	c #4C7F61",
"&.	c #F8FAF9",
"*.	c #D1E7C2",
"=.	c #64AF34",
"-.	c #004C15",
";.	c #AEC6B6",
">.	c #EDF5E7",
",.	c #71B645",
"'.	c #267025",
").	c #1D5F36",
"!.	c #FCFDFD",
"~.	c #AFC8B4",
"{.	c #07531A",
"].	c #DCE7DD",
"^.	c #DDE7E0",
"/.	c #EAF4E4",
"(.	c #B0D697",
"_.	c #A2CF84",
":.	c #76B84B",
"<.	c #428C2C",
"[.	c #004612",
"}.	c #F3F6F4",
"|.	c #D7EACA",
"1.	c #6CB33F",
"2.	c #428C2D",
"3.	c #10552B",
"4.	c #D9E5DD",
"5.	c #D7E3DB",
"6.	c #044D1E",
"7.	c #9FCD80",
"8.	c #347F27",
"9.	c #12572A",
"0.	c #CBE4BB",
"a.	c #6AB23B",
"b.	c #509A31",
"c.	c #095025",
"d.	c #BED1C5",
"e.	c #FBFCFC",
"f.	c #165C2A",
"g.	c #DAE4DE",
"h.	c #F5F7F6",
"i.	c #FBFCFD",
"j.	c #F8F8FC",
"k.	c #F9F9FB",
"l.	c #A1CF83",
"m.	c #297523",
"n.	c #356F4B",
"o.	c #C0DEAB",
"p.	c #67B037",
"q.	c #064D23",
"r.	c #B4CABC",
"s.	c #6FAE51",
"t.	c #165830",
"u.	c #BBCEC2",
"v.	c #D7EACB",
"w.	c #72B14F",
"x.	c #6BAC49",
"y.	c #69AF3E",
"z.	c #226D20",
"A.	c #4D805F",
"B.	c #BDDDA8",
"C.	c #024A1F",
"D.	c #A3BEAC",
"E.	c #86BE66",
"F.	c #054D21",
"G.	c #B5CBBD",
"H.	c #6CB33D",
"I.	c #63AD35",
"J.	c #1E6A1F",
"K.	c #5E8D6F",
"L.	c #014A1F",
"M.	c #A4BEAD",
"N.	c #92C477",
"O.	c #044C20",
"P.	c #1D6A1E",
"Q.	c #6A967A",
"R.	c #96C67C",
"S.	c #1F6B1F",
"T.	c #548666",
"U.	c #95C67B",
"V.	c #FEFBFC",
"W.	c #246F21",
"X.	c #487D5B",
"Y.	c #BCDCA7",
"Z.	c #88BE69",
"`.	c #F8DDE0",
" +	c #F5D1D6",
".+	c #FEFCFC",
"++	c #2B7624",
"@+	c #326D48",
"#+	c #C5E1B3",
"$+	c #054D22",
"%+	c #B3C9BB",
"&+	c #78B654",
"*+	c #064D22",
"=+	c #F1CFD2",
"-+	c #E8ADB3",
";+	c #E7ACB2",
">+	c #EDC2C7",
",+	c #368028",
"'+	c #085021",
")+	c #CDE5BD",
"!+	c #529C31",
"~+	c #084F24",
"{+	c #B9CEC1",
"]+	c #71B34A",
"^+	c #F3F5F5",
"/+	c #E2CDD0",
"(+	c #DEA8AE",
"_+	c #DDA6AD",
":+	c #DDA5AB",
"<+	c #E6BEC3",
"[+	c #FDFCFC",
"}+	c #448E2D",
"|+	c #00440F",
"1+	c #F3F7F4",
"2+	c #DBECD0",
"3+	c #6DB440",
"4+	c #47912E",
"5+	c #0E5329",
"6+	c #D1DED6",
"7+	c #F0F7EA",
"8+	c #6DB145",
"9+	c #F3F3ED",
"0+	c #E4E6E8",
"a+	c #E3E7E8",
"b+	c #D0C0C3",
"c+	c #D3A1A8",
"d+	c #D49FA7",
"e+	c #D39EA6",
"f+	c #E5C6CB",
"g+	c #559F31",
"h+	c #004C16",
"i+	c #A8C1B1",
"j+	c #F1F8ED",
"k+	c #72B646",
"l+	c #69B337",
"m+	c #337D28",
"n+	c #15592F",
"o+	c #F0F4F1",
"p+	c #67AE3D",
"q+	c #D2E8C4",
"r+	c #FAF371",
"s+	c #F1EB42",
"t+	c #E2E4E6",
"u+	c #CDCFD0",
"v+	c #C7C9C9",
"w+	c #C6B6B9",
"x+	c #CB99A1",
"y+	c #CB98A1",
"z+	c #E8D2D6",
"A+	c #0C571C",
"B+	c #538665",
"C+	c #8AC266",
"D+	c #3E7652",
"E+	c #B6DA9E",
"F+	c #DCEDD1",
"G+	c #6CB143",
"H+	c #63AA3B",
"I+	c #69B03D",
"J+	c #65AF34",
"K+	c #FFFEFD",
"L+	c #FBF58D",
"M+	c #F6EC06",
"N+	c #F7EA05",
"O+	c #E6D44F",
"P+	c #C9C9C2",
"Q+	c #C3C5C5",
"R+	c #AEB4B5",
"S+	c #B6A5A9",
"T+	c #DDC1C5",
"U+	c #3A842B",
"V+	c #0D5329",
"W+	c #E3EBE6",
"X+	c #E2EFD8",
"Y+	c #69B13B",
"Z+	c #33821F",
"`+	c #0B5322",
" @	c #D3E0D8",
".@	c #F9FCF7",
"+@	c #87C162",
"@@	c #6BB536",
"#@	c #044E1E",
"$@	c #9DBAA7",
"%@	c #FFFFFE",
"&@	c #BBD3B9",
"*@	c #AEC3BB",
"=@	c #9FC88B",
"-@	c #6CB33E",
";@	c #ECF6F4",
">@	c #F6EC05",
",@	c #F7EA06",
"'@	c #F9D502",
")@	c #FCCB00",
"!@	c #E6C14C",
"~@	c #B0B2B5",
"{@	c #ACAFB3",
"]@	c #D9DBDC",
"^@	c #7CA18A",
"/@	c #FFFEFF",
"(@	c #E2EDDF",
"_@	c #93B49B",
":@	c #DBE5DF",
"<@	c #CDE5BC",
"[@	c #226D23",
"}@	c #5F8D72",
"|@	c #B5D99E",
"1@	c #67B038",
"2@	c #CCE5C6",
"3@	c #FAF373",
"4@	c #FAD201",
"5@	c #FBCB00",
"6@	c #FAC300",
"7@	c #F7AC01",
"8@	c #E3AB31",
"9@	c #DCDAD7",
"0@	c #FDFEFE",
"a@	c #0B5421",
"b@	c #C4D5CA",
"c@	c #ECF5E5",
"d@	c #5EA833",
"e@	c #125D1E",
"f@	c #9AB9A0",
"g@	c #EFF6EC",
"h@	c #F2F8EF",
"i@	c #F0F7EB",
"j@	c #CEE6C0",
"k@	c #7FBC56",
"l@	c #C4E1B1",
"m@	c #FFF991",
"n@	c #FAC500",
"o@	c #F7AC02",
"p@	c #F6A902",
"q@	c #FBCE6E",
"r@	c #4A942D",
"s@	c #206629",
"t@	c #88A998",
"u@	c #F0F4F2",
"v@	c #F5FAF2",
"w@	c #C1DFAD",
"x@	c #70B543",
"y@	c #4D9B28",
"z@	c #5AA335",
"A@	c #76B84C",
"B@	c #5DAB2A",
"C@	c #F6A801",
"D@	c #FBD88B",
"E@	c #5FA933",
"F@	c #1B612C",
"G@	c #B0C7B9",
"H@	c #CAE3B9",
"I@	c #FBF474",
"J@	c #FFFEFC",
"K@	c #558666",
"L@	c #FACE70",
"M@	c #3D872B",
"N@	c #F4F7F5",
"O@	c #DAEBCE",
"P@	c #5FAC2D",
"Q@	c #568768",
"R@	c #5DA734",
"S@	c #165F22",
"T@	c #7AA283",
"U@	c #E9F1E8",
"V@	c #F3F8F1",
"W@	c #FAFCF8",
"X@	c #5DAB2B",
"Y@	c #4D9A28",
"Z@	c #59A037",
"`@	c #79B755",
" #	c #84BF5D",
".#	c #74B748",
"+#	c #6DB33F",
"@#	c #CCE5C1",
"##	c #FFF992",
"$#	c #ABD497",
"%#	c #F4ECAC",
"&#	c #F7ED00",
"*#	c #74B749",
"=#	c #E8EFDD",
"-#	c #E2CCBC",
";#	c #EBD864",
">#	c #F9D601",
",#	c #014C1B",
"'#	c #F3E8DE",
")#	c #E1CAB0",
"!#	c #E0C8B1",
"~#	c #EDCA5E",
"{#	c #FAC100",
"]#	c #FDFBF9",
"^#	c #E7D5C1",
"/#	c #E0C9AF",
"(#	c #E0C9B0",
"_#	c #E0CAB1",
":#	c #EBBD62",
"<#	c #F7A700",
"[#	c #F3EEE9",
"}#	c #E0C7AC",
"|#	c #E2CFBC",
"1#	c #F4DBAA",
"2#	c #83807D",
"3#	c #C2AF99",
"4#	c #E0C8AD",
"5#	c #E8D7C3",
"6#	c #F2E8DD",
"7#	c #FBF9F6",
"8#	c #CCCCCD",
"9#	c #3A3B3D",
"0#	c #8C8987",
"a#	c #F5F1EC",
"b#	c #FDFBFA",
"c#	c #9C9D9E",
"d#	c #D6D6D7",
"                                                                                                ",
"        . + @ # $ $ %                                                                           ",
"    & * = - $ $ ; ; > > % > $ % , $                                                             ",
"  ' ) ! ~ $ $ $ $ $ $ $ $ $ $ % , ; % > > { $                                                   ",
"  & ] ^ / ; $ $ $ $ $ $ $ $ $ $ $ $ $ $ $ $ $ % > % { $ %                                       ",
"* ( _ : < $ $ $ $ $ $ $ $ $ $ $ $ $ $ $ $ $ $ $ $ $ $ ; > $ $ $ > % >                           ",
"' ' _ [ < $ $ $ $ $ $ $ $ $ $ $ $ $ $ $ $ $ $ $ $ $ $ $ $ $ $ $ $ $ {                           ",
"& ' _ [ < $ $ $ $ $ $ $ $ < } | | ; $ $ $ $ $ $ $ $ $ $ $ $ $ $ $ $ $                           ",
"' ' _ [ < $ $ $ $ ; $ 1 2 3 4 5 6 7 8 ; $ $ $ $ $ $ $ $ $ $ $ $ $ $ $                           ",
"9 ' _ [ < $ $ $ ; $ 0 a b c d d d e f g ; $ $ $ ; h i j ; ; $ $ $ $ $                           ",
"& ' _ [ < $ $ k $ l m n d d d d d d d o p q $ $ ~ r s t u j $ $ $ $ $                           ",
"' ' _ [ < $ $ ; v w x y d z d d A d z d d B C k D E F d G H $ $ $ $ $                           ",
"9 ' _ [ < $ ; I J K L d z d M N O P z d z Q R { S T U d V H $ $ $ $ $                           ",
"& ' _ [ < $ $ < W X d Y d d Z `  ...+.d z @.#.} $.%.&.d *.$ 8 =.$ $ $                           ",
"' ' _ [ < $ $ [ -.;.d z d >.,.$ / '.).!.d d ~.{.].^.d d /.(._.:.; $ $                           ",
"9 ' _ [ < $ $ <.[.}.d d d |.1.$ 1 2.3.4.d d 5.6.d d z z d d d 7.=.$ $                           ",
"& ' _ [ < $ < 8.9.d z d d 0.a.$ < b.c.d.d d e.f.g.h.d d i.j.k.l.=.$ $                           ",
"' ' _ [ < $ ; m.n.d d d d o.p.$ $  .q.r.d d d s.t.u.d d v.w.x.y.> $ $                           ",
"9 ' _ [ < $ # z.A.d d d d B.$ $ $ - C.D.d d d E.F.G.d d V H.$ $ ; $ $                           ",
"& ' _ [ < $ I.J.K.d d d d B.$ $ $ 1 L.M.d d d N.O.G.d d V H $ $ $ $ $                           ",
"' ' _ [ < $ I.P.Q.d d d d B.$ $ ; v L.M.d d d R.O.G.d d V H $ $ $ $ $                           ",
"9 ' _ [ < $ I.S.T.d d d d B.$ $ $ / L.M.d d d U.O.G.d d V H $ $ $ $ $                 V.        ",
"& ' _ [ < $ # W.X.d d d d Y.$ $ $  .C.D.d d d Z.F.G.d d V H $ $ $ $ $             d `. +.+      ",
"' ' _ [ < $ $ ++@+d d d d #+j $ $ ~ $+%+d z d &+*+G.d d V H $ $ $ $ $           d =+-+;+>+d     ",
"9 ' _ [ < $ < ,+'+d d d d )+a.$ < !+~+{+d d d ]+q.G.d d V H $ $ $ $ $         Y ^+/+(+_+:+<+[+  ",
"& ' _ [ < $ $ }+|+1+d d d 2+3+$ 1 4+5+6+d d 7+8+q.G.d d V H $ $ $ $ $       d 9+0+a+b+c+d+e+f+  ",
"' ' _ [ < $ $ g+h+i+d d d j+k+$ l+m+n+o+d d |.p+q.G.d d q+H $ $ $ $ $     d r+s+t+u+v+w+x+y+z+  ",
"9 ' _ [ < $ $ < A+B+d d Y d C+| l+W D+d d d E+~ $+r.d d F+G+H+I+; $ J+  K+L+M+N+O+P+Q+R+S+T+d   ",
"& ' _ [ < $ ; I U+V+W+d z d X+Y+Z+`+ @d z .@+@@@#@$@d d %@&@*@=@=.J+-@;@L+>@,@'@)@!@~@{@]@d     ",
"' ' _ [ < $ $ $ < ! ^@/@z %@d (@_@:@d z d <@8 I [@}@z z d d d |@| 1@2@3@M+,@4@5@6@7@8@9@0@      ",
"9 ' _ [ < $ $ $ $ g+a@b@d d z d d d d d c@> ; k d@e@f@g@h@i@j@k@p.l@m@M+,@'@5@n@o@p@q@d         ",
"& ' _ [ < $ $ $ ; $ r@s@t@u@d z d d v@w@x@=.$ ; $ < y@z@A@; B@a.2@m@>@,@'@5@6@o@C@D@d           ",
"' ' _ [ < $ $ $ $ $ $ E@b.F@G@d d d H@C ; $ $ $ ; $ $ { ; $ 1@2@I@M+,@4@5@6@o@p@D@J@            ",
"9 ' _ [ < $ $ $ $ $ $ ; # J.K@d z z j+:.H.; $ $ $ $ $ $ J+1@l@m@M+,@'@5@n@o@p@L@d               ",
"& ' _ [ < $ $ $ $ $ $ $ $ M@) N@d z d c@O@P@$ $ $ $ $ J+-@2@m@>@,@'@5@6@o@C@D@d                 ",
"' ' _ [ < $ $ $ $ $ $ $ $ I.A+Q@d d d d d B@$ $ $ $ $ 1@2@I@M+,@4@5@6@o@p@D@J@                  ",
"9 ' _ [ < $ $ $ $ $ $ $ ; < R@S@T@U@V@v@W@X@$ $ $ J+1@l@m@M+,@'@5@n@o@p@L@d                     ",
"& ' _ [ < $ $ $ $ $ $ $ $ ; $ I Y@Z@`@ #.#; $ $ ; +#@###>@,@'@5@6@o@C@D@d                       ",
"' ' _ [ < $ $ $ $ $ $ $ $ $ k $ $ { ; J+; $ $ $ J+$#%#&#,@4@5@6@o@p@D@J@                        ",
") ' _ [ < $ $ $ $ $ $ $ $ % $ > % > $ ; $ ; % $ *#=#-#;#>#5@n@o@p@L@d                           ",
"  ,#_ [ < $ $ $ $ % > ; % > > $ > %               '#)#!#~#{#o@C@D@d                             ",
"    _ [ < $ > $ ; > % $                         ]#^#/#(#_#:#<#D@J@                              ",
"      !+< ; p.                                  [#}#/#/#)#|#1#d                                 ",
"                                              d 2#3#4#5#6#7#                                    ",
"                                              8#9#0#a#b#                                        ",
"                                            d c#d#d                                             ",
"                                                                                                ",
"                                                                                                "};
