/* XPM */
static char * randr_xpm[] = {
"48 48 796 2",
"  	c None",
". 	c #B4B7B0",
"+ 	c #B3B6AF",
"@ 	c #B2B5AE",
"# 	c #B0B3AD",
"$ 	c #AFB2AB",
"% 	c #AEB1AA",
"& 	c #ADB0A9",
"* 	c #ACAFA8",
"= 	c #ABADA7",
"- 	c #A9ACA6",
"; 	c #A8ABA5",
"> 	c #A7AAA4",
", 	c #A6A9A3",
"' 	c #A6A7A2",
") 	c #A5A6A1",
"! 	c #A3A5A0",
"~ 	c #A2A49E",
"{ 	c #A1A39D",
"] 	c #A0A29B",
"^ 	c #9EA19A",
"/ 	c #9CA099",
"( 	c #9B9E98",
"_ 	c #9A9D97",
": 	c #999C96",
"< 	c #989B95",
"[ 	c #979993",
"} 	c #959892",
"| 	c #949791",
"1 	c #939690",
"2 	c #92958F",
"3 	c #91938E",
"4 	c #90928C",
"5 	c #8E918B",
"6 	c #8D908A",
"7 	c #8C8F89",
"8 	c #8B8D88",
"9 	c #8A8C87",
"0 	c #898B86",
"a 	c #878A84",
"b 	c #868983",
"c 	c #858882",
"d 	c #848681",
"e 	c #838580",
"f 	c #EEEFEE",
"g 	c #F4F5F3",
"h 	c #F5F5F4",
"i 	c #F6F6F5",
"j 	c #F6F6F6",
"k 	c #F6F7F6",
"l 	c #F7F7F6",
"m 	c #F7F8F7",
"n 	c #F8F8F7",
"o 	c #F8F8F8",
"p 	c #F9F9F8",
"q 	c #F4F4F3",
"r 	c #F2F3F1",
"s 	c #F1F1F1",
"t 	c #F0F1EF",
"u 	c #EFEFED",
"v 	c #EDEEEC",
"w 	c #EBECEB",
"x 	c #EAEBE9",
"y 	c #E8E9E7",
"z 	c #E6E8E5",
"A 	c #E5E5E3",
"B 	c #E3E4E1",
"C 	c #E1E2E0",
"D 	c #DFE0DD",
"E 	c #DDDEDA",
"F 	c #DADBD8",
"G 	c #D8DAD5",
"H 	c #D5D8D3",
"I 	c #D3D5D0",
"J 	c #D0D3CE",
"K 	c #CED0CB",
"L 	c #CCCEC9",
"M 	c #CACDC8",
"N 	c #C9CBC6",
"O 	c #C1C4BE",
"P 	c #7F817C",
"Q 	c #D9DBD7",
"R 	c #DBDCD9",
"S 	c #DDDEDB",
"T 	c #E1E2DF",
"U 	c #E5E6E3",
"V 	c #E7E7E5",
"W 	c #E9E9E7",
"X 	c #EBEBE8",
"Y 	c #ECECEA",
"Z 	c #EAEBE8",
"` 	c #DFE0DC",
" .	c #DBDCD8",
"..	c #D9DAD6",
"+.	c #D7D9D4",
"@.	c #D5D7D2",
"#.	c #D1D3CE",
"$.	c #CFD1CC",
"%.	c #CDCFCA",
"&.	c #CBCDC8",
"*.	c #CACCC6",
"=.	c #C8CAC4",
"-.	c #C6C8C2",
";.	c #C4C6C0",
">.	c #C2C4BE",
",.	c #C0C2BC",
"'.	c #BEC0BA",
").	c #BCBFB8",
"!.	c #BABDB6",
"~.	c #CACDC7",
"{.	c #7D7F7A",
"].	c #092C5A",
"^.	c #7C7E79",
"/.	c #F3F4F2",
"(.	c #275899",
"_.	c #265899",
":.	c #255798",
"<.	c #245698",
"[.	c #235597",
"}.	c #225497",
"|.	c #215496",
"1.	c #205396",
"2.	c #1F5296",
"3.	c #3A67A2",
"4.	c #3865A1",
"5.	c #3765A1",
"6.	c #34629F",
"7.	c #32619E",
"8.	c #305F9D",
"9.	c #2E5E9D",
"0.	c #194E93",
"a.	c #184D92",
"b.	c #4C75AB",
"c.	c #4B75AB",
"d.	c #4A74AA",
"e.	c #4973AA",
"f.	c #4772A9",
"g.	c #4570A8",
"h.	c #446FA7",
"i.	c #436EA7",
"j.	c #426EA6",
"k.	c #7A7D78",
"l.	c #1E5195",
"m.	c #416CA5",
"n.	c #3E6AA4",
"o.	c #3D69A4",
"p.	c #3563A0",
"q.	c #1D5195",
"r.	c #174C92",
"s.	c #3F6BA4",
"t.	c #4872A9",
"u.	c #4671A8",
"v.	c #416DA6",
"w.	c #D4D6D2",
"x.	c #797B76",
"y.	c #ADAFA9",
"z.	c #F1F2F1",
"A.	c #2F5E9D",
"B.	c #3B68A3",
"C.	c #3664A0",
"D.	c #2B5B9B",
"E.	c #164B91",
"F.	c #D7D9D5",
"G.	c #787A75",
"H.	c #ABAEA8",
"I.	c #F1F1EF",
"J.	c #1C5094",
"K.	c #3966A2",
"L.	c #154B91",
"M.	c #406BA5",
"N.	c #3C68A3",
"O.	c #DADCD9",
"P.	c #777974",
"Q.	c #AAADA6",
"R.	c #1B4F94",
"S.	c #33619F",
"T.	c #DEE0DC",
"U.	c #757873",
"V.	c #A9ACA5",
"W.	c #EDEDEB",
"X.	c #1A4E93",
"Y.	c #144A90",
"Z.	c #747671",
"`.	c #A8AAA4",
" +	c #EBEBE9",
".+	c #2C5C9C",
"++	c #134990",
"@+	c #31609E",
"#+	c #E4E5E2",
"$+	c #737570",
"%+	c #E9EAE7",
"&+	c #1C5095",
"*+	c #1B5095",
"=+	c #3463A1",
"-+	c #3865A2",
";+	c #3664A1",
">+	c #3463A0",
",+	c #32629F",
"'+	c #305F9F",
")+	c #225598",
"!+	c #174D93",
"~+	c #174D92",
"{+	c #164C92",
"]+	c #31619F",
"^+	c #3362A0",
"/+	c #2D5D9C",
"(+	c #E7E8E5",
"_+	c #72746F",
":+	c #A5A8A1",
"<+	c #E6E7E5",
"[+	c #1E5295",
"}+	c #1E5396",
"|+	c #1F5397",
"1+	c #1F5497",
"2+	c #1F5398",
"3+	c #205498",
"4+	c #1F5498",
"5+	c #21569A",
"6+	c #3B69A5",
"7+	c #3967A4",
"8+	c #3766A3",
"9+	c #3564A2",
"0+	c #3464A2",
"a+	c #3061A0",
"b+	c #1D5297",
"c+	c #1B5096",
"d+	c #1A5096",
"e+	c #194F95",
"f+	c #26589B",
"g+	c #3565A2",
"h+	c #3262A0",
"i+	c #3261A0",
"j+	c #2F5F9E",
"k+	c #2D5E9D",
"l+	c #2A5B9B",
"m+	c #295A9A",
"n+	c #70736E",
"o+	c #A4A7A0",
"p+	c #205397",
"q+	c #215498",
"r+	c #215499",
"s+	c #225599",
"t+	c #23569A",
"u+	c #23579A",
"v+	c #23579B",
"w+	c #24589B",
"x+	c #2D5EA0",
"y+	c #3B6AA6",
"z+	c #3968A6",
"A+	c #3868A5",
"B+	c #3766A4",
"C+	c #3666A4",
"D+	c #295C9E",
"E+	c #20559A",
"F+	c #1F549A",
"G+	c #1F539A",
"H+	c #1E5399",
"I+	c #3565A3",
"J+	c #3665A4",
"K+	c #3464A3",
"L+	c #3262A1",
"M+	c #2F609F",
"N+	c #2E5E9E",
"O+	c #2D5D9E",
"P+	c #2B5C9D",
"Q+	c #2A5B9C",
"R+	c #27599B",
"S+	c #27589A",
"T+	c #ECEDEB",
"U+	c #6F716D",
"V+	c #A3A59F",
"W+	c #E2E3E0",
"X+	c #235699",
"Y+	c #24579A",
"Z+	c #24589A",
"`+	c #25589B",
" @	c #26599C",
".@	c #26599D",
"+@	c #265A9E",
"@@	c #265B9E",
"#@	c #275B9E",
"$@	c #275B9F",
"%@	c #3666A6",
"&@	c #3C6CA9",
"*@	c #3B6AA8",
"=@	c #3B6AA7",
"-@	c #3767A6",
";@	c #25599E",
">@	c #23589D",
",@	c #23579D",
"'@	c #2D5FA1",
")@	c #3867A6",
"!@	c #3666A5",
"~@	c #3465A4",
"{@	c #3364A3",
"]@	c #3363A2",
"^@	c #3161A2",
"/@	c #3060A1",
"(@	c #2E60A0",
"_@	c #2C5E9F",
":@	c #2A5B9D",
"<@	c #285A9B",
"[@	c #27599A",
"}@	c #EEEFED",
"|@	c #6E706B",
"1@	c #A1A49E",
"2@	c #E0E0DD",
"3@	c #275A9D",
"4@	c #285C9F",
"5@	c #295C9F",
"6@	c #2A5D9F",
"7@	c #2A5DA0",
"8@	c #2A5EA1",
"9@	c #2A5DA1",
"0@	c #2B5EA1",
"a@	c #2B5FA2",
"b@	c #3D6CAA",
"c@	c #3F6DAB",
"d@	c #3D6DAA",
"e@	c #3C6CAA",
"f@	c #3A6BAA",
"g@	c #3265A6",
"h@	c #285DA2",
"i@	c #285DA1",
"j@	c #285BA0",
"k@	c #275CA1",
"l@	c #3868A8",
"m@	c #3969A8",
"n@	c #3868A7",
"o@	c #3667A6",
"p@	c #3566A6",
"q@	c #3364A5",
"r@	c #3264A4",
"s@	c #3163A3",
"t@	c #3062A3",
"u@	c #2E60A1",
"v@	c #2B5E9F",
"w@	c #2A5C9E",
"x@	c #285A9D",
"y@	c #6D6F6A",
"z@	c #A0A39D",
"A@	c #DDDFDA",
"B@	c #2A5EA0",
"C@	c #2B5EA0",
"D@	c #2C5FA1",
"E@	c #2C5FA2",
"F@	c #2D60A3",
"G@	c #2E61A4",
"H@	c #2F62A5",
"I@	c #3063A5",
"J@	c #3265A7",
"K@	c #4170AD",
"L@	c #3F6FAD",
"M@	c #3E6DAD",
"N@	c #3D6EAC",
"O@	c #3C6CAC",
"P@	c #3063A6",
"Q@	c #2C61A5",
"R@	c #2C60A4",
"S@	c #2B60A4",
"T@	c #3466A8",
"U@	c #3A6BAB",
"V@	c #396BAA",
"W@	c #3869A9",
"X@	c #3667A7",
"Y@	c #3466A7",
"Z@	c #3365A6",
"`@	c #3163A5",
" #	c #3063A4",
".#	c #2F61A3",
"+#	c #2E60A2",
"@#	c #275A9E",
"##	c #24579B",
"$#	c #F1F1F0",
"%#	c #6B6E69",
"&#	c #9FA29B",
"*#	c #DADCD8",
"=#	c #2E61A3",
"-#	c #2F62A4",
";#	c #3062A5",
">#	c #3163A6",
",#	c #3163A7",
"'#	c #3164A7",
")#	c #3264A7",
"!#	c #3265A8",
"~#	c #3366A9",
"{#	c #396BAC",
"]#	c #4372B0",
"^#	c #4171AF",
"/#	c #4070AF",
"(#	c #406FAF",
"_#	c #3A6CAC",
":#	c #3266A9",
"<#	c #3164A9",
"[#	c #3064A8",
"}#	c #3C6DAD",
"|#	c #396AAB",
"1#	c #3869AA",
"2#	c #3668A9",
"3#	c #3567A8",
"4#	c #2B5EA2",
"5#	c #295DA0",
"6#	c #26599E",
"7#	c #23589C",
"8#	c #6A6C68",
"9#	c #9EA09A",
"0#	c #3164A6",
"a#	c #3366A8",
"b#	c #3467A9",
"c#	c #3568AA",
"d#	c #3669AB",
"e#	c #376AAC",
"f#	c #4071B0",
"g#	c #4373B1",
"h#	c #4272B2",
"i#	c #4172B1",
"j#	c #386BAD",
"k#	c #3669AC",
"l#	c #3568AC",
"m#	c #396CAD",
"n#	c #3D6EAF",
"o#	c #3B6EAF",
"p#	c #3B6DAE",
"q#	c #3A6BAC",
"r#	c #396AAC",
"s#	c #376AAB",
"t#	c #3466A9",
"u#	c #2D61A4",
"v#	c #2B5FA3",
"w#	c #295EA1",
"x#	c #275BA0",
"y#	c #265A9F",
"z#	c #23589E",
"A#	c #696B66",
"B#	c #9C9F99",
"C#	c #DADBD7",
"D#	c #3064A5",
"E#	c #3568A9",
"F#	c #3769AC",
"G#	c #396BAD",
"H#	c #396CAE",
"I#	c #3A6CAF",
"J#	c #3A6DAE",
"K#	c #4675B4",
"L#	c #4575B4",
"M#	c #4475B4",
"N#	c #4072B3",
"O#	c #3C6EB0",
"P#	c #3B6DB0",
"Q#	c #396DB0",
"R#	c #3A6DB0",
"S#	c #3F70B1",
"T#	c #3E70B1",
"U#	c #3E6FB1",
"V#	c #3D6FB0",
"W#	c #3B6DAF",
"X#	c #3A6CAE",
"Y#	c #366AAD",
"Z#	c #3568AB",
"`#	c #3366AA",
" $	c #3165A8",
".$	c #2F63A7",
"+$	c #2D61A6",
"@$	c #2A5EA3",
"#$	c #245AA0",
"$$	c #22579E",
"%$	c #EFF0EE",
"&$	c #686A65",
"*$	c #DADAD6",
"=$	c #386AAC",
"-$	c #3C6FB0",
";$	c #3E70B2",
">$	c #4173B4",
",$	c #4878B7",
"'$	c #4778B7",
")$	c #4677B7",
"!$	c #3F71B3",
"~$	c #3E71B3",
"{$	c #3F73B4",
"]$	c #4173B5",
"^$	c #4073B4",
"/$	c #3F71B2",
"($	c #3C6FB1",
"_$	c #3B6EB0",
":$	c #396CAF",
"<$	c #386BAE",
"[$	c #3569AD",
"}$	c #3367AB",
"|$	c #3166AA",
"1$	c #2E63A7",
"2$	c #2B60A6",
"3$	c #285EA4",
"4$	c #265CA2",
"5$	c #21579F",
"6$	c #EDEEEB",
"7$	c #666864",
"8$	c #9A9C96",
"9$	c #3769AB",
"0$	c #3D6FB1",
"a$	c #4072B4",
"b$	c #4676B7",
"c$	c #4979B8",
"d$	c #4979B9",
"e$	c #4879B9",
"f$	c #4376B7",
"g$	c #4275B7",
"h$	c #4375B7",
"i$	c #4174B6",
"j$	c #3F72B5",
"k$	c #3E71B4",
"l$	c #3C70B3",
"m$	c #3B6FB2",
"n$	c #386BAF",
"o$	c #356AAE",
"p$	c #3367AD",
"q$	c #3166AB",
"r$	c #2E63A9",
"s$	c #2C62A8",
"t$	c #295EA5",
"u$	c #265BA3",
"v$	c #245AA2",
"w$	c #2258A0",
"x$	c #EBEBEA",
"y$	c #656763",
"z$	c #999B95",
"A$	c #D8DAD6",
"B$	c #3C6EAF",
"C$	c #3D6EB1",
"D$	c #4274B5",
"E$	c #4375B6",
"F$	c #4476B7",
"G$	c #4576B8",
"H$	c #497ABA",
"I$	c #4A7BBB",
"J$	c #4A7CBC",
"K$	c #4A7BBC",
"L$	c #497BBB",
"M$	c #477ABB",
"N$	c #487ABC",
"O$	c #487ABB",
"P$	c #4678BA",
"Q$	c #4477B9",
"R$	c #4377B9",
"S$	c #4275B8",
"T$	c #4173B7",
"U$	c #3D71B4",
"V$	c #3A6EB2",
"W$	c #396DB1",
"X$	c #366BB0",
"Y$	c #346AAE",
"Z$	c #3267AD",
"`$	c #2F65AA",
" %	c #2D63A9",
".%	c #2A61A7",
"+%	c #285FA6",
"@%	c #265DA4",
"#%	c #245BA3",
"$%	c #2259A1",
"%%	c #E8E9E6",
"&%	c #646662",
"*%	c #979A94",
"=%	c #3E71B2",
"-%	c #3F72B3",
";%	c #4174B5",
">%	c #4577B8",
",%	c #4778BA",
"'%	c #487ABA",
")%	c #4B7CBC",
"!%	c #4C7DBD",
"~%	c #4D7EBE",
"{%	c #4C7EBE",
"]%	c #4C7EBF",
"^%	c #4D7EBF",
"/%	c #4B7DBF",
"(%	c #4A7DBE",
"_%	c #487BBD",
":%	c #477ABC",
"<%	c #4679BA",
"[%	c #4175B8",
"}%	c #4073B7",
"|%	c #3D72B5",
"1%	c #3B70B4",
"2%	c #396DB2",
"3%	c #3469AE",
"4%	c #3167AD",
"5%	c #2F65AB",
"6%	c #2B61A8",
"7%	c #295FA6",
"8%	c #E5E6E4",
"9%	c #636560",
"0%	c #969993",
"a%	c #386CAD",
"b%	c #4678B9",
"c%	c #4779BA",
"d%	c #4A7CBD",
"e%	c #4D7EC0",
"f%	c #4E80C1",
"g%	c #4F81C1",
"h%	c #5082C2",
"i%	c #5182C3",
"j%	c #5082C3",
"k%	c #4F81C2",
"l%	c #4D7FC0",
"m%	c #4B7EBF",
"n%	c #497BBD",
"o%	c #4478BB",
"p%	c #4276B9",
"q%	c #4073B8",
"r%	c #3E71B6",
"s%	c #3B6FB3",
"t%	c #356BB0",
"u%	c #3369AE",
"v%	c #3167AC",
"w%	c #2F64AB",
"x%	c #2C62A9",
"y%	c #2A60A7",
"z%	c #285EA5",
"A%	c #265CA4",
"B%	c #E2E4E0",
"C%	c #61635F",
"D%	c #959792",
"E%	c #4677B9",
"F%	c #4779B9",
"G%	c #4E7FC0",
"H%	c #5183C3",
"I%	c #5384C4",
"J%	c #5485C5",
"K%	c #5586C6",
"L%	c #5686C7",
"M%	c #5183C4",
"N%	c #4B7EC0",
"O%	c #487CBE",
"P%	c #4579BC",
"Q%	c #4377BB",
"R%	c #3F73B6",
"S%	c #3B70B5",
"T%	c #396EB3",
"U%	c #376CB1",
"V%	c #356AAF",
"W%	c #3268AD",
"X%	c #3066AC",
"Y%	c #2E64AA",
"Z%	c #275DA5",
"`%	c #60625E",
" &	c #949690",
".&	c #D6D8D4",
"+&	c #3A6DAF",
"@&	c #3C6EB1",
"#&	c #3F72B4",
"$&	c #4274B6",
"%&	c #4477B8",
"&&	c #4A7CBE",
"*&	c #4E80C0",
"=&	c #5081C2",
"-&	c #5485C6",
";&	c #5687C7",
">&	c #5789C8",
",&	c #5A8BCA",
"'&	c #588ACA",
")&	c #5688C8",
"!&	c #5486C6",
"~&	c #5182C5",
"{&	c #4E81C3",
"]&	c #497CBF",
"^&	c #467ABC",
"/&	c #4175B9",
"(&	c #3E73B7",
"_&	c #3C71B5",
":&	c #3A6FB3",
"<&	c #356AB0",
"[&	c #3368AE",
"}&	c #2960A7",
"|&	c #275EA5",
"1&	c #DCDEDA",
"2&	c #5F615D",
"3&	c #D6D7D4",
"4&	c #5E605B",
"5&	c #91948E",
"6&	c #D6D7D3",
"7&	c #CBCDC7",
"8&	c #D0D2CD",
"9&	c #D2D3CF",
"0&	c #D4D5D0",
"a&	c #D7D8D4",
"b&	c #DCDDD9",
"c&	c #DEDFDC",
"d&	c #E1E1DE",
"e&	c #E2E2DF",
"f&	c #E2E3DF",
"g&	c #E0E1DE",
"h&	c #D2D3CE",
"i&	c #CACCC7",
"j&	c #C8CBC5",
"k&	c #C7C9C3",
"l&	c #C5C7C1",
"m&	c #C3C5BF",
"n&	c #C1C4BD",
"o&	c #BFC2BB",
"p&	c #BDC0B9",
"q&	c #5C5E5A",
"r&	c #90928E",
"s&	c #CECFCC",
"t&	c #D6D8D3",
"u&	c #D8D9D4",
"v&	c #DFDFDC",
"w&	c #DFE1DD",
"x&	c #E4E4E1",
"y&	c #E4E4E3",
"z&	c #E6E7E4",
"A&	c #E7E8E4",
"B&	c #E8E8E5",
"C&	c #E8E9E5",
"D&	c #E4E5E3",
"E&	c #E4E4E2",
"F&	c #E3E4E0",
"G&	c #DEDFDB",
"H&	c #DCDDDA",
"I&	c #D8D9D5",
"J&	c #D7D9D3",
"K&	c #D5D7D3",
"L&	c #969894",
"M&	c #959794",
"N&	c #D3D5D1",
"O&	c #C9CAC7",
"P&	c #5D5F5B",
"Q&	c #8B8E88",
"R&	c #888A85",
"S&	c #828480",
"T&	c #818380",
"U&	c #80827F",
"V&	c #80817D",
"W&	c #7F807C",
"X&	c #7E807B",
"Y&	c #7B7E79",
"Z&	c #767873",
"`&	c #747772",
" *	c #737671",
".*	c #727470",
"+*	c #71736E",
"@*	c #70726D",
"#*	c #6F716C",
"$*	c #6D706B",
"%*	c #6C6E6A",
"&*	c #6B6D69",
"**	c #6A6C67",
"=*	c #676A65",
"-*	c #666964",
";*	c #636561",
">*	c #565853",
",*	c #575955",
"'*	c #5E605C",
")*	c #555753",
"!*	c #565854",
"~*	c #6A6D68",
"{*	c #585A56",
"]*	c #575855",
"^*	c #888B85",
"/*	c #5C5F5A",
"(*	c #A6A8A2",
"_*	c #6C6F69",
":*	c #8C8E89",
"<*	c #B6B8B2",
"[*	c #F9F9F9",
"}*	c #FCFCFB",
"|*	c #FAFAF9",
"1*	c #FBFBFA",
"2*	c #B6B8B1",
"3*	c #9FA19C",
"4*	c #A2A49F",
"5*	c #AAABA7",
"6*	c #B7B9B6",
"7*	c #C9C9C8",
"8*	c #CDCECD",
"9*	c #C4C5C4",
"0*	c #C2C3C2",
"a*	c #CBCCCB",
"b*	c #BCBDBB",
"c*	c #ABADA9",
"d*	c #A3A49F",
"e*	c #A0A29C",
"f*	c #9FA19B",
"g*	c #959791",
"h*	c #70716D",
"i*	c #A8A9A6",
"j*	c #F5F6F5",
"k*	c #E9EBE8",
"l*	c #DDE0DB",
"m*	c #D1D5CD",
"n*	c #CFD3CB",
"o*	c #D8DBD5",
"p*	c #E6E8E4",
"q*	c #D6D6D5",
"r*	c #303230",
"s*	c #52544F",
"t*	c #535551",
"u*	c #3F403E",
"                                                                                                ",
"                                                                                                ",
"                                                                                                ",
"                                                                                                ",
"                                                                                                ",
"    . + @ # $ % & * = - ; > , ' ) ! ~ { ] ^ / ( _ : < [ } | 1 2 3 4 5 6 7 8 9 0 a b c d e e     ",
"  + f g h i i j k l m n o p n l j i h q r s t u v w x y z A B C D E F G H I J K L M N N N O P   ",
"  @ q Q R S D T B U V W X Y Y Z W V A B T ` E  ...+.@.I #.$.%.&.*.=.-.;.>.,.'.).!.!.!.!.!.~.{.  ",
"  # q ].].].].].].].].].].].].].].].].].].].].].].].].].].].].].].].].].].].].].].].].].].K ^.  ",
"  $ /.].(._._.:.:.<.<.[.}.}.|.|.1.1.2.2.2.3.4.5.6.7.8.9.:.0.0.a.a.:.b.c.d.e.f.f.g.h.i.j.].#.k.  ",
"  % r ]._.:.:.<.<.[.[.}.|.|.1.1.2.2.l.l._.m.n.o.3.4.p.7.q.a.a.r.r.s.e.t.t.u.u.h.i.j.v.m.].w.x.  ",
"  y.z.].:.<.<.[.[.}.}.|.|.1.1.2.l.l.q.q.A.s.o.B.4.C.6.D.a.r.r.E.:.g.g.h.h.i.i.v.m.m.s.s.].F.G.  ",
"  H.I.].<.[.[.}.}.|.|.1.1.2.l.l.q.q.J.J.5.o.B.K.C.p.7.q.r.E.E.L.B.j.v.m.m.M.s.s.o.o.N.N.].O.P.  ",
"  Q.f ].[.}.}.|.|.1.1.2.2.l.q.q.J.J.R.q.N.B.K.5.6.S.D.r.E.L.L.[.s.s.n.n.o.N.N.B.B.K.K.4.].T.U.  ",
"  V.W.].}.|.|.1.1.2.2.l.l.q.q.J.R.R.X.:.3.K.C.p.7.8.l.E.L.Y.L.p.B.B.3.3.K.4.4.5.5.C.p.6.].T Z.  ",
"  `. +].|.1.1.2.2.l.l.q.q.J.R.R.X.X.0..+4.C.6.7.8.D.L.Y.Y.++}.5.5.5.5.p.p.6.6.S.S.7.@+8.].#+$+  ",
"  , %+].1.2.2.l.l.q.q.J.J.&+&+&+&+&+*+=+-+;+>+,+'+)+!+~+{+{+]+^+^+7.7.@+@+8.8.A.A.9.9./+].(+_+  ",
"  :+<+].2.l.l.[+2.}+|+|+1+2+3+4+3+2+5+6+7+8+9+0+a+b+c+d+e+f+g+=+=+h+i+'+j+k+/+D.D.l+m+m+].Z n+  ",
"  o+A ].p+p+q+r+s+s+t+u+u+v+w+v+w+v+x+y+z+A+B+C+D+E+F+G+H+I+J+I+K+L+L+a+M+N+O+P+Q+R+S+:.].T+U+  ",
"  V+W+].X+Y+Z+`+ @ @.@.@+@@@#@$@$@$@%@&@*@=@z+-@+@;@>@,@'@)@-@!@~@{@]@^@/@(@_@P+:@<@[@X+].}@|@  ",
"  1@2@]. @3@#@#@4@5@6@7@8@9@0@a@a@a@b@c@d@e@f@g@h@i@j@k@l@m@n@o@p@q@r@s@t@u@'@v@w@x@ @u+].t y@  ",
"  z@A@].D+6@B@C@D@E@F@F@G@G@H@H@I@J@K@L@M@N@O@P@Q@R@S@T@U@V@W@W@X@Y@Z@`@ #.#+#C@6@@#.@##].$#%#  ",
"  &#*#].D@F@=#-#;#;#>#,#'#)#!#~#~#{#]#^#/#(#_#:#<#<#[#}#_#U@|#1#2#3#T@)#I@G@F@4#5#$@6#7#].s 8#  ",
"  9#*#]..#I@I@0#J@J@a#b#c#c#d#d#e#f#g#g#h#i#j#k#l#l#m#n#o#p#q#r#s#c#t#!#'#H@u#v#w#x#y#z#].$#A#  ",
"  B#C#].D#J@a#b#E#c#F#e#G#H#I#J#o#K#L#L#M#N#O#P#Q#R#S#T#U#V#W#X#j#Y#Z#`# $.$+$S@@$k@#$$$].%$&$  ",
"  ( *$].a#E#c#s#=$j#X#W#O#-$T#;$>$,$'$)$)$>$!$!$~${$]$^$/$;$($_$:$<$[$}$|$[#1$2$3$4$#$5$].6$7$  ",
"  8$..].E#9$=$G#X#W#0$T#/$a$]$]$b$c$d$e$e$f$f$f$g$h$g$i$j$k$l$m$Q#n$o$p$q$r$s$2$t$u$v$w$].x$y$  ",
"  z$A$].9$G#X#B$C$;$!$a$D$E$F$G$H$I$J$K$L$M$N$O$P$P$Q$R$S$T$j$U$V$W$X$Y$Z$`$ %.%+%@%#%$%].%%&%  ",
"  *%G ].=$X#W#0$=%-%;%D$F$>%,%'%)%!%~%{%]%^%]%]%/%(%_%:%<%Q$[%}%|%1%2%X$3%4%5% %6%7%@%#%].8%9%  ",
"  0%F.].a%W#-$=%-%>$E$F$b%c%L$d%{%e%f%g%h%i%i%j%k%f%l%m%n%:%o%p%q%r%s%2%t%u%v%w%x%y%z%A%].B%C%  ",
"  D%+.].m#o#($~$N#D$h$E%F%O$d%/%G%g%H%I%J%K%L%K%J%M%j%f%N%O%P%Q%[%R%S%T%U%V%W%X%Y%6%7%Z%].2@`%  ",
"   &.&].<$+&@&;$#&$&f$%&c%N$&&^%*&=&I%-&;&>&,&'&)&!&~&{&N%]&^&o%/&(&_&:&U%<&[&X%Y%s$}&|&].1&2&  ",
"  2 3&].].].].].].].].].].].].].].].].].].].].].].].].].].].].].].].].].].].].].].].].].].C#4&  ",
"  5&6&7&L K 8&9&0&@.a&..C#b&E c&2@d&T e&f&e&T g&D c&E b&C#A$a&@.I h&8&K L i&j&k&l&m&n&o&p&.&q&  ",
"  r&s&t&u&..*#b&S v&w&T B%x&y&8%z&A&B&%%%%%%C&(+z&8%D&E&F&f&g&` G&H&R Q I&u&J&t&K&L&q&M&N&O&P&  ",
"    5 7 Q&9 0 R&b c d e S&T&U&V&W&X&{.Y&k.x.G.P.Z&`& *.*+*@*#*$*%*&***A#=*-*y$&%;*>*P ,*'*2&    ",
"                                  )*)*)*)*)*)*)*)*)*)*)*)*)*)*                                  ",
"                                  !*~*%#%#%#%#%#%#%#%#%#%#%#{*                                  ",
"                                  ]*c ^*^*^*^*^*^*^*^*^*^*^*/*                                  ",
"                                  &%~ (*(*(*(*(*(*(*(*(*(*(*_*                                  ",
"                                  :*i&I&K K K K K K K K K&#.|                                   ",
"                                <*>.[*}*l l l l l l l l |*1*w.2*                                ",
"                        3*] 4*5*6*7*8*9*0*0*0*0*0*0*0*0*0*a*a*b*c*d*e*f*g*                      ",
"                      h*i*j*k*l*m*n*n*n*n*n*n*n*n*n*n*n*n*n*n*n*o*p*/.q*Z.                      ",
"                      r*s*)*)*)*)*)*)*)*)*)*)*)*)*)*)*)*)*)*)*)*)*)*)*t*u*                      ",
"                                                                                                ",
"                                                                                                ",
"                                                                                                "};
