/* XPM */
static char * rapidsvn_xpm[] = {
"48 48 126 2",
"  	c None",
". 	c #000000",
"+ 	c #0C0C0C",
"@ 	c #686868",
"# 	c #7A7A7A",
"$ 	c #363636",
"% 	c #A9A9A9",
"& 	c #FFFFFF",
"* 	c #B2B2B2",
"= 	c #080808",
"- 	c #060606",
"; 	c #9F9F9F",
"> 	c #F6F6F6",
", 	c #F7F7F7",
"' 	c #525252",
") 	c #131313",
"! 	c #FBFBFB",
"~ 	c #ABABAB",
"{ 	c #070707",
"] 	c #262626",
"^ 	c #7F7F7F",
"/ 	c #D9D9D9",
"( 	c #ACACAC",
"_ 	c #3F3F3F",
": 	c #373737",
"< 	c #B3B3B3",
"[ 	c #F0F0F0",
"} 	c #C5C5C5",
"| 	c #313131",
"1 	c #3A3A3A",
"2 	c #0F0F0F",
"3 	c #020202",
"4 	c #030303",
"5 	c #1D1D1D",
"6 	c #6F6F6F",
"7 	c #DEDEDE",
"8 	c #F3F3F3",
"9 	c #CBCBCB",
"0 	c #434343",
"a 	c #D5D5D5",
"b 	c #999999",
"c 	c #696969",
"d 	c #424242",
"e 	c #242424",
"f 	c #0E0E0E",
"g 	c #010101",
"h 	c #181818",
"i 	c #303030",
"j 	c #4E4E4E",
"k 	c #727272",
"l 	c #9C9C9C",
"m 	c #CDCDCD",
"n 	c #D1D1D1",
"o 	c #888888",
"p 	c #393939",
"q 	c #FCFCFC",
"r 	c #ECECEC",
"s 	c #E7E7E7",
"t 	c #E4E4E4",
"u 	c #E3E3E3",
"v 	c #E5E5E5",
"w 	c #E9E9E9",
"x 	c #EFEFEF",
"y 	c #8E8E8E",
"z 	c #535353",
"A 	c #050505",
"B 	c #6C6C6C",
"C 	c #DBDBDB",
"D 	c #5C5C5C",
"E 	c #151515",
"F 	c #5E5E5E",
"G 	c #414141",
"H 	c #949494",
"I 	c #929292",
"J 	c #FEFEFE",
"K 	c #6B6B6B",
"L 	c #2D2D2D",
"M 	c #282828",
"N 	c #EEEEEE",
"O 	c #E0E0E0",
"P 	c #171717",
"Q 	c #CFCFCF",
"R 	c #707070",
"S 	c #252525",
"T 	c #656565",
"U 	c #1C1C1C",
"V 	c #2B2B2B",
"W 	c #F9F9F9",
"X 	c #898989",
"Y 	c #585858",
"Z 	c #EDEDED",
"` 	c #A3A3A3",
" .	c #F2F2F2",
"..	c #646464",
"+.	c #040404",
"@.	c #474747",
"#.	c #7D7D7D",
"$.	c #989898",
"%.	c #9B9B9B",
"&.	c #353535",
"*.	c #0D0D0D",
"=.	c #1B1B1B",
"-.	c #191919",
";.	c #141414",
">.	c #0B0B0B",
",.	c #0A0A0A",
"'.	c #717171",
").	c #C7C7C7",
"!.	c #BEBEBE",
"~.	c #868686",
"{.	c #2E2E2E",
"].	c #F4F4F4",
"^.	c #6D6D6D",
"/.	c #F5F5F5",
"(.	c #494949",
"_.	c #979797",
":.	c #292929",
"<.	c #D7D7D7",
"[.	c #2A2A2A",
"}.	c #C1C1C1",
"|.	c #DFDFDF",
"1.	c #9D9D9D",
"2.	c #3E3E3E",
"3.	c #BCBCBC",
"4.	c #A2A2A2",
"5.	c #383838",
"                                                                                                ",
"                                                                                                ",
"                                                                                                ",
"                                                                                                ",
"                                                                                                ",
"                                                                                                ",
"                    . . . . . . . . . . . . . . . . . . . . . . . . . + @ #                     ",
"                . . . . . . . . . . . . . . . . . . . . . . . . . . $ % & & * =                 ",
"              . . . . . . . . . . . . . . . . . . . . . . . . . - ; > & , ' - . .               ",
"            . . . . . . . . . . . . . . . . . . . . . . . . ) @ ! & , ~ { . . . . .             ",
"            . . . . . . . . . . . . . . . . . . . . . . ] ^ / & & ( _ . . . . . . .             ",
"            . . . . . . . . . . . . . . . . . . . . : < [ & & } | { . . . . . . . .             ",
"            1 2 3 . . . . . . . . . . . . 4 2 5 6 7 & & 8 9 0 . . . . . . . . . . .             ",
"            & a b c d e f g . . { h i j k l m & & & n o p . . . . . . . . . . . . .             ",
"            & & & q 8 r s t u u v w x > & & & [ y | 2 . . . . . . . . . . . . . . .             ",
"            & & & & & & & & & & & & & & & & & z . . . . . . . . . A B C a D 3 . . .             ",
"            & & & & & & & & & & & & & & & & r E . . . . . . . . . F & & & & G . . .             ",
"            & & & & & & & & & & & & & & & & H 3 . . . . . . . . . I & J J & K . . .             ",
"            & J & & & & & & & & & & & J & r L . . . . . . . . . . M N q q O P . . .             ",
"            Q & J & & & & & & & & & J J & R . . . . . . . . . . . . S c T U . . . .             ",
"            V W & & & & & & & & & & J & X . . . . . . . . . . . . . . . . . . . . .             ",
"            . Y Z & & & & & & J & & q b 3 . . . . . . . . . . . . . . . . . . . . .             ",
"            . . $ `  .& & & & & & Q ... . . . . . . . . . . . . . . . . . . . . . .             ",
"            . . . +.P @.#.$.%.# &.2 . . . . . . . . . . . . . . . . . . . . . . . .             ",
"            . . . . . . . . . . . . . . . . . . . . . . . . . . . . . . . . . . . .             ",
"            . . . . . . . . . . . . . . . . . . . . . . . . . . . . . . . . . . . .             ",
"            . . . . . . . . . . . . . . . . . . . . . . . . . . . . . . . . . . . .             ",
"            . . . . . . . . . . . . *.P =.=.-.;.>.. . . . . . . . . . . . . . . . .             ",
"            . . . . . . . . . . ,.'.).[ & & W u !.~.{.. . . . . . . . . . . . . . .             ",
"            . . . . . . . . . - l & & & & & & & & & ].^.. . . . . . . . . . . . . .             ",
"            . . . . . . . . . h 8 & & & & & & & & & J  .S . . . . . . . . . . . . .             ",
"            . . . . . . . . . E s & & & & & & & & & & /.(.. . . . . . . . . . . . .             ",
"            . . . . . . . . . 3 _.& & & & & & & & & J N :.. . . . . . . . . . . . .             ",
"            . . . . . . . . . . =.7 & J & & & & & & & <.. . . . . . . . . . . . . .             ",
"            . . . . . . . . . . . [.<.& J & & & & J & T . . . . . . . . . . . . . .             ",
"            . . . . . . . . . . . . -.}.& J & & J & |.. . . . . . . . . . . . . . .             ",
"            . . . . . . . . . . . . . . 1./.& & & 8 [.. . . . . . . . . . . . . . .             ",
"            . . . . . . . . . . . . . . . 2.$.3.4.5.. . . . . . . . . . . . . . . .             ",
"              . . . . . . . . . . . . . . . 3 >.A . . . . . . . . . . . . . . . .               ",
"              . . . . . . . . . . . . . . . . . . . . . . . . . . . . . . . . . .               ",
"                . . . . . . . . . . . . . . . . . . . . . . . . . . . . . . . .                 ",
"                                                                                                ",
"                                                                                                ",
"                                                                                                ",
"                                                                                                ",
"                                                                                                ",
"                                                                                                ",
"                                                                                                "};
