/* XPM */
static char * rdesktop_xpm[] = {
"48 48 703 2",
"  	c None",
". 	c #555753",
"+ 	c #70726E",
"@ 	c #777875",
"# 	c #5C5E5A",
"$ 	c #565752",
"% 	c #7F807D",
"& 	c #CCCDCB",
"* 	c #EBEBE9",
"= 	c #E9E9E7",
"- 	c #EEEEEC",
"; 	c #B9BAB8",
"> 	c #575955",
", 	c #B9BAB7",
"' 	c #D5D7D2",
") 	c #BFC1BB",
"! 	c #BABDB6",
"~ 	c #C1C4BD",
"{ 	c #999C97",
"] 	c #575855",
"^ 	c #5A5C58",
"/ 	c #C5C6C3",
"( 	c #E6E6E4",
"_ 	c #C4C6C0",
": 	c #BEC1BB",
"< 	c #BDC0B9",
"[ 	c #BCBFB8",
"} 	c #BBBEB7",
"| 	c #D0D1CC",
"1 	c #E4E5E2",
"2 	c #6F716C",
"3 	c #575A55",
"4 	c #5D5F5B",
"5 	c #CFCFCD",
"6 	c #E3E4E1",
"7 	c #C4C7C1",
"8 	c #C1C4BE",
"9 	c #C0C3BC",
"0 	c #BFC2BB",
"a 	c #BEC1BA",
"b 	c #EBEBE8",
"c 	c #A8ABA4",
"d 	c #BBBCB9",
"e 	c #C6C9C3",
"f 	c #C3C6BF",
"g 	c #C2C4BE",
"h 	c #C1C3BD",
"i 	c #C0C2BC",
"j 	c #C4C6C1",
"k 	c #ECECEA",
"l 	c #60625E",
"m 	c #8A8B88",
"n 	c #CBCDC9",
"o 	c #C7C9C4",
"p 	c #C6C8C2",
"q 	c #C5C7C1",
"r 	c #C3C5BF",
"s 	c #C0C3BD",
"t 	c #C4C7C0",
"u 	c #EDEDEB",
"v 	c #777A75",
"w 	c #545652",
"x 	c #666864",
"y 	c #D6D7D3",
"z 	c #CACCC7",
"A 	c #C9CBC5",
"B 	c #C8CAC4",
"C 	c #C7C9C3",
"D 	c #C5C8C2",
"E 	c #C3C6C0",
"F 	c #C2C5BE",
"G 	c #CDCFC9",
"H 	c #E7E7E5",
"I 	c #8E918B",
"J 	c #595B57",
"K 	c #CCCCCA",
"L 	c #E1E2DE",
"M 	c #CDCFCA",
"N 	c #CCCEC8",
"O 	c #CBCDC7",
"P 	c #C9CCC6",
"Q 	c #C8CAC5",
"R 	c #C6C8C3",
"S 	c #D9DAD6",
"T 	c #DADBD7",
"U 	c #A3A6A0",
"V 	c #565854",
"W 	c #7C7D7A",
"X 	c #D1D2CE",
"Y 	c #CFD0CB",
"Z 	c #CCCEC9",
"` 	c #CBCDC8",
" .	c #AFB1AC",
"..	c #7B7D79",
"+.	c #70726F",
"@.	c #6F716E",
"#.	c #6E6F6C",
"$.	c #6F716D",
"%.	c #71736F",
"&.	c #737471",
"*.	c #747673",
"=.	c #767874",
"-.	c #787A76",
";.	c #7A7B78",
">.	c #7B7C79",
",.	c #7C7E7B",
"'.	c #7E807C",
").	c #80827E",
"!.	c #82837F",
"~.	c #828480",
"{.	c #848682",
"].	c #868883",
"^.	c #888985",
"/.	c #898B87",
"(.	c #8A8C88",
"_.	c #8C8E89",
":.	c #8D8F8A",
"<.	c #CFD0CD",
"[.	c #E1E1DE",
"}.	c #D1D3CE",
"|.	c #D0D2CD",
"1.	c #CFD1CC",
"2.	c #CED0CB",
"3.	c #CACCC6",
"4.	c #C8CBC5",
"5.	c #737571",
"6.	c #F2F3F2",
"7.	c #FCFCFB",
"8.	c #FCFCFC",
"9.	c #FCFDFC",
"0.	c #FBFBFB",
"a.	c #FBFBFA",
"b.	c #FAFBFA",
"c.	c #FAFAFA",
"d.	c #FAFAF9",
"e.	c #F9F9F9",
"f.	c #F9F9F8",
"g.	c #F8F8F8",
"h.	c #F8F8F7",
"i.	c #F7F8F7",
"j.	c #F7F7F6",
"k.	c #F6F7F6",
"l.	c #8B8E88",
"m.	c #747572",
"n.	c #D3D5D0",
"o.	c #D2D4CF",
"p.	c #CECFCA",
"q.	c #696B67",
"r.	c #29518B",
"s.	c #234C88",
"t.	c #244D88",
"u.	c #244D89",
"v.	c #F3F5F6",
"w.	c #91938E",
"x.	c #C1C2BE",
"y.	c #E4E5E1",
"z.	c #D5D6D2",
"A.	c #D4D5D1",
"B.	c #D3D4D0",
"C.	c #D2D3CE",
"D.	c #6B6D68",
"E.	c #254E89",
"F.	c #3F6398",
"G.	c #3E6297",
"H.	c #3D6297",
"I.	c #3C6196",
"J.	c #3B6096",
"K.	c #3B6095",
"L.	c #3A5F95",
"M.	c #395E94",
"N.	c #5475A4",
"O.	c #5272A2",
"P.	c #4F70A0",
"Q.	c #45689B",
"R.	c #345A92",
"S.	c #335A91",
"T.	c #3E6196",
"U.	c #607DA9",
"V.	c #5E7DA9",
"W.	c #5E7CA8",
"X.	c #5C7BA7",
"Y.	c #5A79A6",
"Z.	c #5978A6",
"`.	c #284F8A",
" +	c #F3F4F5",
".+	c #939490",
"++	c #DBDCD8",
"@+	c #D8D9D5",
"#+	c #D7D8D4",
"$+	c #D4D6D1",
"%+	c #BDBFBA",
"&+	c #8F908C",
"*+	c #6A6C68",
"=+	c #254D89",
"-+	c #3C6096",
";+	c #395E95",
">+	c #385E94",
",+	c #375D94",
"'+	c #5475A3",
")+	c #5172A1",
"!+	c #4D6FA0",
"~+	c #335991",
"{+	c #325891",
"]+	c #5273A2",
"^+	c #5979A6",
"/+	c #5878A6",
"(+	c #5877A5",
"_+	c #5676A4",
":+	c #5575A4",
"<+	c #5474A3",
"[+	c #264F8A",
"}+	c #F3F4F6",
"|+	c #949792",
"1+	c #565754",
"2+	c #80817E",
"3+	c #EAEAE8",
"4+	c #D8DAD6",
"5+	c #D7D9D4",
"6+	c #D6D8D3",
"7+	c #B6B8B4",
"8+	c #BABCB8",
"9+	c #676964",
"0+	c #395F95",
"a+	c #385E95",
"b+	c #4F71A1",
"c+	c #5374A4",
"d+	c #5071A2",
"e+	c #46699D",
"f+	c #355B93",
"g+	c #345B93",
"h+	c #42669A",
"i+	c #5675A5",
"j+	c #5575A3",
"k+	c #5373A3",
"l+	c #5172A2",
"m+	c #5071A1",
"n+	c #4F71A0",
"o+	c #4E6FA0",
"p+	c #264E8A",
"q+	c #979993",
"r+	c #A6A7A4",
"s+	c #E8E9E6",
"t+	c #DCDDDA",
"u+	c #DBDCD9",
"v+	c #CDCFCB",
"w+	c #797B77",
"x+	c #E6E7E4",
"y+	c #656762",
"z+	c #3E6399",
"A+	c #3E6499",
"B+	c #3E649A",
"C+	c #40679C",
"D+	c #5779A8",
"E+	c #5576A6",
"F+	c #5275A5",
"G+	c #3F659A",
"H+	c #3A6198",
"I+	c #3B6399",
"J+	c #5476A6",
"K+	c #5577A6",
"L+	c #5475A5",
"M+	c #5274A4",
"N+	c #5073A3",
"O+	c #4F72A3",
"P+	c #4D6FA1",
"Q+	c #4B6DA0",
"R+	c #F4F5F6",
"S+	c #999B96",
"T+	c #D1D2CF",
"U+	c #DEDFDC",
"V+	c #DDDEDA",
"W+	c #DCDDD9",
"X+	c #D7D9D5",
"Y+	c #ABADA9",
"Z+	c #D8D8D6",
"`+	c #B3B4AF",
" @	c #42689D",
".@	c #42699E",
"+@	c #43699F",
"@@	c #436A9F",
"#@	c #4C72A4",
"$@	c #587BAA",
"%@	c #5779A9",
"&@	c #4F74A6",
"*@	c #40689E",
"=@	c #3F689E",
"-@	c #4E71A5",
";@	c #5678A8",
">@	c #5577A8",
",@	c #5376A7",
"'@	c #5276A5",
")@	c #5074A5",
"!@	c #4E73A4",
"~@	c #4D71A2",
"{@	c #4B6FA1",
"]@	c #F4F5F7",
"^@	c #9B9D97",
"/@	c #E8E8E6",
"(@	c #E0E1DD",
"_@	c #DFE0DC",
":@	c #DEDFDB",
"<@	c #DBDDD9",
"[@	c #DADBD8",
"}@	c #C7C8C4",
"|@	c #9C9F99",
"1@	c #676965",
"2@	c #466CA1",
"3@	c #476EA2",
"4@	c #476EA3",
"5@	c #496FA4",
"6@	c #486FA4",
"7@	c #4870A4",
"8@	c #577CAC",
"9@	c #597DAD",
"0@	c #597DAC",
"a@	c #4A72A6",
"b@	c #466FA4",
"c@	c #4971A5",
"d@	c #567BAB",
"e@	c #547AAA",
"f@	c #5378A9",
"g@	c #5177A9",
"h@	c #5075A7",
"i@	c #4E74A6",
"j@	c #4C72A5",
"k@	c #4B70A2",
"l@	c #9C9E99",
"m@	c #E5E5E2",
"n@	c #E2E2DF",
"o@	c #DFE0DD",
"p@	c #DDDEDB",
"q@	c #DEDEDC",
"r@	c #9A9C97",
"s@	c #9A9C96",
"t@	c #696A65",
"u@	c #4A71A5",
"v@	c #4C73A6",
"w@	c #4C73A7",
"x@	c #4C74A8",
"y@	c #4D75A9",
"z@	c #4E75A9",
"A@	c #4F77AB",
"B@	c #5C81B0",
"C@	c #5C81B1",
"D@	c #567CAE",
"E@	c #4C75A9",
"F@	c #4B74A9",
"G@	c #557CAD",
"H@	c #577EAF",
"I@	c #547BAD",
"J@	c #547AAC",
"K@	c #5278AB",
"L@	c #5076AA",
"M@	c #4F75A8",
"N@	c #4C72A6",
"O@	c #F4F6F7",
"P@	c #9EA09B",
"Q@	c #E2E2E0",
"R@	c #E7E7E4",
"S@	c #E2E3E0",
"T@	c #E1E2DF",
"U@	c #E0E1DE",
"V@	c #E5E6E3",
"W@	c #A0A29D",
"X@	c #959892",
"Y@	c #979A94",
"Z@	c #4E75A8",
"`@	c #5078AB",
" #	c #5179AB",
".#	c #5279AD",
"+#	c #527BAD",
"@#	c #537BAE",
"##	c #587FB1",
"$#	c #5E85B4",
"%#	c #5D83B4",
"&#	c #547EB1",
"*#	c #527BAF",
"=#	c #557EB1",
"-#	c #5981B2",
";#	c #567FB1",
">#	c #567DB0",
",#	c #547CAE",
"'#	c #527AAD",
")#	c #5078AC",
"!#	c #4D77AB",
"~#	c #4972A6",
"{#	c #224B88",
"]#	c #9FA19D",
"^#	c #D4D5D2",
"/#	c #E9EAE7",
"(#	c #E3E4E0",
"_#	c #E2E3DF",
":#	c #9A9D97",
"<#	c #939590",
"[#	c #93958F",
"}#	c #656863",
"|#	c #547CAF",
"1#	c #557DB0",
"2#	c #5780B2",
"3#	c #5780B3",
"4#	c #5E86B7",
"5#	c #6087B7",
"6#	c #5D86B7",
"7#	c #5882B5",
"8#	c #5882B4",
"9#	c #5B84B6",
"0#	c #5A84B6",
"a#	c #5A82B6",
"b#	c #5981B4",
"c#	c #577FB3",
"d#	c #557EB2",
"e#	c #537DB0",
"f#	c #517AAE",
"g#	c #4F78AD",
"h#	c #4B75AB",
"i#	c #4973A8",
"j#	c #224C88",
"k#	c #A0A39E",
"l#	c #828380",
"m#	c #DCDCDA",
"n#	c #8F918C",
"o#	c #666863",
"p#	c #557EB0",
"q#	c #5881B3",
"r#	c #5982B4",
"s#	c #5A83B6",
"t#	c #5B85B7",
"u#	c #5E86B8",
"v#	c #618ABB",
"w#	c #628BBB",
"x#	c #5F8ABA",
"y#	c #5E88BB",
"z#	c #5E89BB",
"A#	c #5E88BA",
"B#	c #5C87B9",
"C#	c #5B86B9",
"D#	c #5A85B8",
"E#	c #5782B6",
"F#	c #5681B5",
"G#	c #537FB3",
"H#	c #507CB2",
"I#	c #4E7AAF",
"J#	c #4B77AD",
"K#	c #4974AB",
"L#	c #A2A59F",
"M#	c #C3C4C1",
"N#	c #E9E9E6",
"O#	c #B7B8B4",
"P#	c #898B86",
"Q#	c #898C86",
"R#	c #757772",
"S#	c #585A56",
"T#	c #6B6E6A",
"U#	c #244E8A",
"V#	c #5C86B7",
"W#	c #5E88B9",
"X#	c #6089BB",
"Y#	c #628BBC",
"Z#	c #638DBE",
"`#	c #638EBF",
" $	c #648EBF",
".$	c #648FC0",
"+$	c #648EC0",
"@$	c #638EC0",
"#$	c #618CBE",
"$$	c #5E8BBD",
"%$	c #5D88BC",
"&$	c #5A86BA",
"*$	c #5884B7",
"=$	c #5581B5",
"-$	c #527EB3",
";$	c #507CB1",
">$	c #4D79AF",
",$	c #A4A7A1",
"'$	c #71726F",
")$	c #999A96",
"!$	c #A4A5A1",
"~$	c #838580",
"{$	c #5E605C",
"]$	c #797B76",
"^$	c #6E716C",
"/$	c #F7F7F7",
"($	c #244E89",
"_$	c #5982B6",
":$	c #5D86B8",
"<$	c #5F89BB",
"[$	c #618BBC",
"}$	c #658FC0",
"|$	c #6691C2",
"1$	c #6893C3",
"2$	c #6994C5",
"3$	c #6A95C6",
"4$	c #6995C6",
"5$	c #6894C5",
"6$	c #6692C4",
"7$	c #6390C2",
"8$	c #618EBF",
"9$	c #5E8ABD",
"0$	c #5B88BB",
"a$	c #5985B9",
"b$	c #5682B7",
"c$	c #537FB4",
"d$	c #A6A8A3",
"e$	c #565753",
"f$	c #565955",
"g$	c #585955",
"h$	c #6C6E6A",
"i$	c #B2B5AE",
"j$	c #B8BBB4",
"k$	c #70716E",
"l$	c #234D88",
"m$	c #234E88",
"n$	c #244E88",
"o$	c #204A87",
"p$	c #A8AAA5",
"q$	c #747773",
"r$	c #E3E4E2",
"s$	c #F7F8FA",
"t$	c #F6F7F9",
"u$	c #F7F8F9",
"v$	c #F6F8F9",
"w$	c #A5A8A3",
"x$	c #A4A6A3",
"y$	c #E7E7E6",
"z$	c #888A87",
"A$	c #727471",
"B$	c #757774",
"C$	c #777B75",
"D$	c #7A7C77",
"E$	c #7C7E7A",
"F$	c #7D807B",
"G$	c #80827C",
"H$	c #82847E",
"I$	c #848781",
"J$	c #868A84",
"K$	c #848681",
"L$	c #858882",
"M$	c #868983",
"N$	c #878B85",
"O$	c #91938D",
"P$	c #939791",
"Q$	c #969892",
"R$	c #979994",
"S$	c #989C96",
"T$	c #9DA19B",
"U$	c #9FA29C",
"V$	c #A1A39E",
"W$	c #6F7370",
"X$	c #C6C7C6",
"Y$	c #D4D4D4",
"Z$	c #B1B2B1",
"`$	c #717472",
" %	c #BDC0BA",
".%	c #767977",
"+%	c #A5A6A4",
"@%	c #717673",
"#%	c #ACADAA",
"$%	c #E0E0DF",
"%%	c #BDBEBB",
"&%	c #80827D",
"*%	c #868783",
"=%	c #858883",
"-%	c #878A83",
";%	c #565A59",
">%	c #D4D6D3",
",%	c #B4B8B0",
"'%	c #B9BCB5",
")%	c #BEC1B9",
"!%	c #C3C6BE",
"~%	c #C8CCC4",
"{%	c #E2E2E2",
"]%	c #555A59",
"^%	c #6A6B66",
"/%	c #C9CAC7",
"(%	c #B1B4AE",
"_%	c #B4B7B0",
":%	c #B7B9B4",
"<%	c #BABDB7",
"[%	c #C2C6BF",
"}%	c #D9DAD7",
"|%	c #6B6E68",
"1%	c #7A7B76",
"2%	c #858682",
"3%	c #3E4141",
"4%	c #3B4040",
"5%	c #3B3F3F",
"6%	c #3B3E3E",
"7%	c #3A3E3E",
"8%	c #373C3C",
"9%	c #3D403D",
"0%	c #7F827D",
"a%	c #81837F",
"b%	c #828681",
"c%	c #848580",
"d%	c #838883",
"e%	c #747774",
"f%	c #747670",
"g%	c #73756F",
"h%	c #757771",
"i%	c #81837E",
"j%	c #787A75",
"k%	c #7C7E79",
"l%	c #696C69",
"m%	c #757975",
"n%	c #6C706D",
"o%	c #757875",
"p%	c #717570",
"q%	c #767975",
"r%	c #717471",
"s%	c #70746F",
"t%	c #767A75",
"u%	c #727673",
"v%	c #757976",
"w%	c #6C716D",
"x%	c #757873",
"y%	c #6E736F",
"z%	c #767A76",
"A%	c #6D706E",
"B%	c #797C77",
"C%	c #70746E",
"D%	c #6C6F6C",
"E%	c #6F716F",
"F%	c #6F726F",
"G%	c #7D7F7A",
"H%	c #787B75",
"I%	c #A0A19E",
"J%	c #838782",
"K%	c #858884",
"L%	c #818480",
"M%	c #858783",
"N%	c #848782",
"O%	c #828682",
"P%	c #828580",
"Q%	c #858782",
"R%	c #868984",
"S%	c #81847F",
"T%	c #818580",
"U%	c #A9AAA7",
"V%	c #848882",
"W%	c #7B7E79",
"X%	c #888A86",
"Y%	c #8D8E8C",
"Z%	c #BCBEBB",
"`%	c #959791",
" &	c #94958F",
".&	c #92948E",
"+&	c #8C8E88",
"@&	c #90928C",
"#&	c #8F918B",
"$&	c #8D8F89",
"%&	c #949690",
"&&	c #939690",
"*&	c #CBCBC7",
"=&	c #B3B5AF",
"-&	c #90928E",
";&	c #979995",
">&	c #ADAFAA",
",&	c #ACAEA9",
"'&	c #91948F",
")&	c #949791",
"!&	c #929690",
"~&	c #BBBDB9",
"{&	c #626561",
"]&	c #A5A7A3",
"^&	c #CBCCCA",
"/&	c #757773",
"(&	c #72746F",
"_&	c #767873",
":&	c #71746F",
"<&	c #727470",
"[&	c #727570",
"}&	c #737570",
"|&	c #747570",
"1&	c #747571",
"2&	c #787975",
"3&	c #797A76",
"4&	c #D9D9D8",
"5&	c #91938F",
"6&	c #7C7D78",
"7&	c #858881",
"8&	c #B9BAB6",
"9&	c #CACBC9",
"0&	c #A6A7A5",
"a&	c #636662",
"b&	c #D4D5D4",
"c&	c #E9E9E9",
"d&	c #E7E8E7",
"e&	c #E8E8E7",
"f&	c #E8E9E8",
"g&	c #E9EAE8",
"h&	c #E9EAE9",
"i&	c #EAEAE9",
"j&	c #EAEBEA",
"k&	c #EBEBEA",
"l&	c #EBEBEB",
"m&	c #EBECEB",
"n&	c #ECECEB",
"o&	c #ECECEC",
"p&	c #EEEEEE",
"q&	c #ECEDEC",
"r&	c #D6D7D6",
"s&	c #4B4D48",
"t&	c #4B4C49",
"                                                                                                ",
"                                                                                                ",
"                                                                                                ",
"                                                                                                ",
"                        . . + @ # . $                                                           ",
"                      . % & * = - ; .                                                           ",
"                    > , = ' ) ! ~ * { ]                                                         ",
"                  ^ / ( _ : < [ } | 1 2 3                                                       ",
"                4 5 6 7 8 9 0 a < 7 b c .                                                       ",
"              . d 6 e 7 f g h i ) j k ! l                                                       ",
"            . m * n o p q _ r 8 s t u ! v .                                                     ",
"          w x = y z A B C D 7 E F G H ! I J                                                     ",
"          . K L M N O P Q o R q _ S T ! U V                                                     ",
"        . W * X Y M Z ` z A B C  ...+.+.@.#.$.%.&.*.=.-.;.>.,.'.).!.~.{.].^./.(._.I :.          ",
"        . <.[.}.|.1.2.M N O 3.4.5.6.7.7.8.8.8.8.9.8.8.7.0.0.a.b.c.d.e.f.g.h.i.j.j.k.0.l.        ",
"        m.k y n.o.}.|.Y p.Z ` z q.a.r.s.t.u.u.u.u.u.u.u.t.s.s.s.s.s.s.s.s.s.s.s.s.s.v.w.        ",
"      . x.y.y z.A.B.C.|.1.M M Z D.c.E.F.G.H.I.J.K.L.M.I.N.O.P.Q.R.S.T.U.V.W.X.Y.Z.`. +.+        ",
"      4 u ++@+#+y $+n.o.%+# J &+*+c.=+H.I.-+K.L.;+>+,+Q.'+)+!+>+~+{+]+^+/+(+_+:+<+[+}+|+        ",
"    1+2+3+++T 4+5+6+z.A.7+. . 8+9+d.=+-+K.L.;+0+0+a+;+b+c+d+e+f+g+h+i+j+k+l+m+n+o+p+v.q+        ",
"    . r+s+t+u+T S @+#+y v+l w+x+y+e.=+z+A+A+A+A+B+B+C+D+E+F+G+H+I+J+K+L+M+N+O+P+Q+E.R+S+        ",
"    . T+1 U+V+W+++T S X+6+Y+Z+`+x f.=+ @.@.@+@@@@@+@#@$@%@&@*@=@-@;@>@,@'@)@!@~@{@t.]@^@        ",
"    . /@6 (@_@:@V+<@[@S S /@}@|@1@g.u.2@3@4@4@5@6@7@8@9@0@a@b@c@8@d@e@f@g@h@i@j@k@t.]@l@        ",
"    . x+m@n@[.o@U+p@W+++1 q@r@s@t@h.u.u@v@w@x@y@z@A@B@C@D@E@F@G@H@D@I@J@K@L@M@N@c@s.O@P@        ",
"    . Q@R@6 S@T@U@_@:@V@x+W@X@Y@q.h.u.Z@`@ #.#+#@###$#%#&#*#=#-###;#>#,#'#)#!#x@~#{#O@]#        ",
"    . ^#/#V@1 (#_#[.R@Q@:#w.<#[#}#h.u.'#|#1#;#2#3#4#5#6#7#8#9#0#a#b#c#d#e#f#g#h#i#j#]@k#        ",
"    w l#k /@( m@R@/@m#<#:.n#l.o#9+i.u.p#q#r#s#t#u#v#w#x#y#z#A#B#C#D#E#F#G#H#I#J#K#j#]@L#        ",
"      . M#u N#= R@O#_.P#Q#R#S#^ T#i.U#q#9#V#W#X#Y#Z#`# $.$+$@$`##$$$%$&$*$=$-$;$>$j#R+,$        ",
"        > '$)$!$P#~$..5.{$^ ]$I ^$/$($_$:$<$[$Z#}$|$1$2$3$3$4$5$6$7$8$9$0$a$b$c$H#j#v.d$        ",
"          e$f$V . . V g$h$i$j$j$k$/$u.l$m$n$u.u.=+u.u.u.u.u.u.u.u.u.t.s.j#j#j#j#j#o$}+p$        ",
"                        {.t+t+t+q$r$s$t$t$t$t$t$t$u$u$s$s$s$s$u$u$v$t$t$t$t$t$t$t$t$h.w$        ",
"                      w+x$y$y$y$z$A$B$C$D$E$F$G$H$I$J$K$L$M$N$Q#l.O$P$Q$R$S$^@|@T$U$V$          ",
"                      W$X$Y$Y$Y$Z$`$                ]. %D D D D E ].                            ",
"                      .%+%+%+%+%+%@%              D$#%$%$%$%$%$%$%%%D$&%L$*%].=%].].-%          ",
"                    ;%>%,%'%)%!%~%{%]%          ^%/%8+(%_%:%<%< s [%}%|%              1%2%      ",
"                      3%4%5%6%7%5%3%8%            ^ ^ ^ ^ ^ ^ ^ ^ ^ ^ 9%                L$      ",
"                                                                            2+2+0%a%b%c%        ",
"                                                                          d%e%                  ",
"                          f%g%f%h%h%f%g%f%h%h%f%g%f%h%h%f%g%    g%f%g%    i%F$                  ",
"                    j%k%l%m%n%o%W$p%q%n%q%r%s%t%n%m%u%W$v%w%x%-.y%z%A%B%C%+.D%E%F%G%H%          ",
"                    j%I%J%~$K%L%M%N%O%=%P%Q%].~.R%~$M%N%S%=%T%U%V%W%M%X%Y%{.L%L$K$V$j%          ",
"                  h$Z%`% &.&Q$n#+&_.@&P#@&_.+&n#P##&$&%&.&|+&&*&=&-&;&>&,&'&O$)&<#!&~&h$        ",
"                {&]&^&/&R#(&_&%.:&(&(&<&[&}&}&}&|&|&1&2&1&3&_&4&5&D$6&7&8&W (&_&1&5.9&0&a&      ",
"                4 b&c&d&e&e&f&f&g&g&h&i&j&j&k&l&m&n&n&o&o&o&o&p&n&m&l&k&q&j&i&h&g&g&k&r&4       ",
"                s&. V V V V V V V V V V V V V V V V V V V V V V V V V V V V V V V V V . t&      ",
"                                                                                                ",
"                                                                                                ",
"                                                                                                ",
"                                                                                                "};
