/* XPM */
static char * rdp_xpm[] = {
"48 48 603 2",
"  	c None",
". 	c #234F8D",
"+ 	c #244E8B",
"@ 	c #224C8A",
"# 	c #204B87",
"$ 	c #224D8B",
"% 	c #234C8A",
"& 	c #355D97",
"* 	c #6C90C1",
"= 	c #92B1DB",
"- 	c #A2BDE4",
"; 	c #AFC7EA",
"> 	c #B8CDEE",
", 	c #92B0DB",
"' 	c #6C8FC0",
") 	c #224E8A",
"! 	c #4E74AB",
"~ 	c #9BB8E1",
"{ 	c #AEC7EB",
"] 	c #8FB1DF",
"^ 	c #709BD3",
"/ 	c #6795B5",
"( 	c #6B9A92",
"_ 	c #70A188",
": 	c #6495AD",
"< 	c #608FCC",
"[ 	c #6F9AD2",
"} 	c #8EB0DE",
"| 	c #9BB8E0",
"1 	c #4D73AB",
"2 	c #37619A",
"3 	c #91B0DC",
"4 	c #A2BFE2",
"5 	c #729CB9",
"6 	c #5284B6",
"7 	c #5587AB",
"8 	c #84AA3B",
"9 	c #8CB029",
"0 	c #93BC31",
"a 	c #9DCB3B",
"b 	c #A1D140",
"c 	c #5D90A1",
"d 	c #4A7EC2",
"e 	c #497EC2",
"f 	c #4A7FC3",
"g 	c #6C97D0",
"h 	c #A3BFE6",
"i 	c #91B0DB",
"j 	c #224B89",
"k 	c #224D8A",
"l 	c #4E75AC",
"m 	c #A5C0E7",
"n 	c #759ED5",
"o 	c #659288",
"p 	c #7DA54C",
"q 	c #7EA649",
"r 	c #6B9776",
"s 	c #659382",
"t 	c #94BC31",
"u 	c #9ECC3C",
"v 	c #92C459",
"w 	c #4F85B7",
"x 	c #497DC1",
"y 	c #487DC1",
"z 	c #4A7DC1",
"A 	c #749CD2",
"B 	c #A5C0E6",
"C 	c #4D75AB",
"D 	c #6288BC",
"E 	c #A3BFE7",
"F 	c #6795B8",
"G 	c #6F9E7C",
"H 	c #608F8E",
"I 	c #497EC1",
"J 	c #4A7EC1",
"K 	c #598A9D",
"L 	c #608F8D",
"M 	c #8CB641",
"N 	c #6A9C8D",
"O 	c #5B93A1",
"P 	c #578EA7",
"Q 	c #487CC0",
"R 	c #5083B5",
"S 	c #80B067",
"T 	c #9AC739",
"U 	c #82AF5C",
"V 	c #608EC4",
"W 	c #A2BEE6",
"X 	c #6287BB",
"Y 	c #4C74AB",
"Z 	c #9FBDE5",
"` 	c #608FAD",
" .	c #87B148",
"..	c #609197",
"+.	c #4D81BA",
"@.	c #4B7FBD",
"#.	c #58889C",
"$.	c #759E5D",
"%.	c #4D80B7",
"&.	c #477CBF",
"*.	c #5D949C",
"=.	c #4F83B4",
"-.	c #99C848",
";.	c #88B75C",
">.	c #85B35C",
",.	c #95C13C",
"'.	c #8CB745",
").	c #709D81",
"!.	c #9FBCE4",
"~.	c #4B73A9",
"{.	c #355F99",
"].	c #9CBAE3",
"^.	c #6794AF",
"/.	c #8CB438",
"(.	c #5E8F97",
"_.	c #487DC0",
":.	c #81AF5E",
"<.	c #80AF64",
"[.	c #4F83B5",
"}.	c #477BBF",
"|.	c #629B92",
"1.	c #76B272",
"2.	c #4F84AF",
"3.	c #72A480",
"4.	c #619395",
"5.	c #84B35E",
"6.	c #99C437",
"7.	c #96C034",
"8.	c #78A276",
"9.	c #9CB9E2",
"0.	c #224E89",
"a.	c #84A7D6",
"b.	c #6F99D0",
"c.	c #7FA84D",
"d.	c #91B82F",
"e.	c #86B04B",
"f.	c #6C9B7F",
"g.	c #9BC83A",
"h.	c #75A67A",
"i.	c #477BBE",
"j.	c #467ABE",
"k.	c #467ABD",
"l.	c #477BBC",
"m.	c #5C9498",
"n.	c #629598",
"o.	c #99CA4A",
"p.	c #94C34C",
"q.	c #9CC93A",
"r.	c #99C537",
"s.	c #96C135",
"t.	c #94BD32",
"u.	c #91B92F",
"v.	c #78A196",
"w.	c #83A5D4",
"x.	c #224C89",
"y.	c #466EA7",
"z.	c #92B3DF",
"A.	c #649182",
"B.	c #8FB42C",
"C.	c #96C23B",
"D.	c #6FA07E",
"E.	c #4D80B4",
"F.	c #4579BD",
"G.	c #4579BC",
"H.	c #669A94",
"I.	c #A2D445",
"J.	c #9ECD3D",
"K.	c #97C135",
"L.	c #88AF39",
"M.	c #91B1D2",
"N.	c #456DA6",
"O.	c #234C89",
"P.	c #86A8D7",
"Q.	c #6793BC",
"R.	c #88AD32",
"S.	c #88B552",
"T.	c #5588A5",
"U.	c #4578BC",
"V.	c #4578BB",
"W.	c #487CB6",
"X.	c #92C55E",
"Y.	c #97C953",
"Z.	c #7CAD71",
"`.	c #9CCB40",
" +	c #8FB52C",
".+	c #79A16D",
"++	c #85A7D6",
"@+	c #305894",
"#+	c #93B4E1",
"$+	c #6E9969",
"%+	c #8EB42C",
"&+	c #91B82E",
"*+	c #76A46A",
"=+	c #477AB9",
"-+	c #4478BB",
";+	c #4477BA",
">+	c #609399",
",+	c #8FC35E",
"'+	c #4C7FAF",
")+	c #4377B9",
"!+	c #5487A2",
"~+	c #6D9E7C",
"{+	c #78A768",
"]+	c #95C035",
"^+	c #85AB36",
"/+	c #92B2DE",
"(+	c #305893",
"_+	c #5981B8",
":+	c #799FD4",
"<+	c #82A83E",
"[+	c #8EB42B",
"}+	c #709D6F",
"|+	c #4377BA",
"1+	c #4679B5",
"2+	c #71A481",
"3+	c #90C158",
"4+	c #86B760",
"5+	c #56899C",
"6+	c #4275B8",
"7+	c #4477B5",
"8+	c #69987A",
"9+	c #7CA1AB",
"0+	c #5980B6",
"a+	c #8C8E89",
"b+	c #888A85",
"c+	c #868D8E",
"d+	c #88A377",
"e+	c #A0CF44",
"f+	c #9FCE3E",
"g+	c #9DCA3B",
"h+	c #96C33F",
"i+	c #97C237",
"j+	c #96BF33",
"k+	c #93BB31",
"l+	c #8BB230",
"m+	c #769E70",
"n+	c #7399CB",
"o+	c #234E8A",
"p+	c #B0B1AE",
"q+	c #F6F6F5",
"r+	c #FFFFFF",
"s+	c #F5F5F4",
"t+	c #B5B8B1",
"u+	c #96B062",
"v+	c #9FCF3E",
"w+	c #99C638",
"x+	c #97C235",
"y+	c #94BD34",
"z+	c #7EA951",
"A+	c #90B72E",
"B+	c #7EA647",
"C+	c #5C8982",
"D+	c #6A947D",
"E+	c #7DA1D2",
"F+	c #8D8F8A",
"G+	c #F5F5F5",
"H+	c #EEEEEC",
"I+	c #EDEDEB",
"J+	c #ECECEA",
"K+	c #ECECE9",
"L+	c #EBEBE9",
"M+	c #EBEBE8",
"N+	c #F3F3F2",
"O+	c #F4F5F4",
"P+	c #8F9582",
"Q+	c #9CCA3B",
"R+	c #9BC739",
"S+	c #96C134",
"T+	c #689672",
"U+	c #8CB333",
"V+	c #8DB22A",
"W+	c #81A73C",
"X+	c #4778B7",
"Y+	c #84A7D7",
"Z+	c #214B88",
"`+	c #204A87",
" @	c #EAEAE9",
".@	c #99C538",
"+@	c #98C236",
"@@	c #95BF33",
"#@	c #85AE42",
"$@	c #6F9A61",
"%@	c #87AD33",
"&@	c #588685",
"*@	c #3F72B3",
"=@	c #88AADA",
"-@	c #1F4B87",
";@	c #EAEAE8",
">@	c #9BC839",
",@	c #9AC638",
"'@	c #98C336",
")@	c #94BE32",
"!@	c #92BA30",
"~@	c #78A051",
"{@	c #568487",
"]@	c #3D70B1",
"^@	c #4476B5",
"/@	c #7EA2D4",
"(@	c #89A6CC",
"_@	c #EAEAE7",
":@	c #98C436",
"<@	c #8FB52D",
"[@	c #7A9F38",
"}@	c #60895F",
"|@	c #3D6FB0",
"1@	c #4B7BB8",
"2@	c #7299CC",
"3@	c #214C8A",
"4@	c #84A2CA",
"5@	c #E9E9E7",
"6@	c #4375A9",
"7@	c #75A364",
"8@	c #80A739",
"9@	c #426760",
"0@	c #1E437A",
"a@	c #396489",
"b@	c #3C6EAF",
"c@	c #5481BD",
"d@	c #668DC3",
"e@	c #7C9EC9",
"f@	c #D0D9E3",
"g@	c #4B7D9A",
"h@	c #92BB33",
"i@	c #749B44",
"j@	c #456A5F",
"k@	c #1F4272",
"l@	c #16325C",
"m@	c #183664",
"n@	c #2C5A96",
"o@	c #3B6DAE",
"p@	c #658EC6",
"q@	c #4B74AD",
"r@	c #7699C7",
"s@	c #729FCF",
"t@	c #E3E7E9",
"u@	c #7095C4",
"v@	c #E9E9E6",
"w@	c #3564A3",
"x@	c #265089",
"y@	c #204676",
"z@	c #1D3D67",
"A@	c #122A4E",
"B@	c #0E203C",
"C@	c #0D1F3A",
"D@	c #19345F",
"E@	c #2B5793",
"F@	c #3B6DAD",
"G@	c #759CD0",
"H@	c #2B5491",
"I@	c #7095C5",
"J@	c #CCD6E2",
"K@	c #C5D1DF",
"L@	c #4374B3",
"M@	c #3E70B1",
"N@	c #2C5895",
"O@	c #183868",
"P@	c #10284B",
"Q@	c #143059",
"R@	c #132C51",
"S@	c #4F5F56",
"T@	c #C39C78",
"U@	c #E1DFDF",
"V@	c #B4BDC9",
"W@	c #648BBD",
"X@	c #668EC4",
"Y@	c #6B92C5",
"Z@	c #E6E9EA",
"`@	c #4072B4",
" #	c #305E9C",
".#	c #1A3C6D",
"+#	c #132D52",
"@#	c #677488",
"##	c #CACBCC",
"$#	c #BEDAA2",
"%#	c #A4D15C",
"&#	c #CCBA79",
"*#	c #E0D9D2",
"=#	c #D9D9DA",
"-#	c #A5ADB8",
";#	c #648EC3",
">#	c #E6E8E9",
",#	c #5985BF",
"'#	c #4174B6",
")#	c #E8E8E6",
"!#	c #3564A4",
"~#	c #1C4178",
"{#	c #17335E",
"]#	c #7B7B7B",
"^#	c #C9C9C9",
"/#	c #C3C3C3",
"(#	c #CECECE",
"_#	c #D1D2CF",
":#	c #BABABA",
"<#	c #E6E6E6",
"[#	c #F6F6F6",
"}#	c #CDCDCD",
"|#	c #969696",
"1#	c #EDEDEA",
"2#	c #5E8AC2",
"3#	c #E5E8E9",
"4#	c #5281BE",
"5#	c #4779B9",
"6#	c #4376B8",
"7#	c #C1CEDE",
"8#	c #E8E8E5",
"9#	c #396AAA",
"0#	c #1C427B",
"a#	c #18396A",
"b#	c #7B7B7C",
"c#	c #E3E3E3",
"d#	c #DFDFDF",
"e#	c #BDBDBD",
"f#	c #9F9F9F",
"g#	c #9B9B9B",
"h#	c #ABABAB",
"i#	c #9E9E9E",
"j#	c #8A8A8A",
"k#	c #6F6F6F",
"l#	c #5986C1",
"m#	c #E4E7E9",
"n#	c #4578BA",
"o#	c #386AAA",
"p#	c #1E457E",
"q#	c #BCBCBC",
"r#	c #E2E2E2",
"s#	c #DEDEDE",
"t#	c #949494",
"u#	c #7F7F7F",
"v#	c #8C8C8C",
"w#	c #AAAAAA",
"x#	c #5A5A5A",
"y#	c #5383C2",
"z#	c #3769A9",
"A#	c #295490",
"B#	c #2D5A95",
"C#	c #779451",
"D#	c #797F76",
"E#	c #898B8E",
"F#	c #DBDBDB",
"G#	c #D7D7D7",
"H#	c #C1C1C1",
"I#	c #8F8F8F",
"J#	c #979797",
"K#	c #595959",
"L#	c #4E80C1",
"M#	c #4C7FC1",
"N#	c #487CBF",
"O#	c #E7E7E5",
"P#	c #3668A8",
"Q#	c #3668A7",
"R#	c #3768A8",
"S#	c #4C79B4",
"T#	c #687F9C",
"U#	c #6A6C6E",
"V#	c #9FA0A1",
"W#	c #D5D5D5",
"X#	c #D0D0D0",
"Y#	c #838383",
"Z#	c #E4E4E4",
"`#	c #B7B7B7",
" $	c #676767",
".$	c #C2D0E1",
"+$	c #B9CADE",
"@$	c #E7E7E4",
"#$	c #3667A7",
"$$	c #3767A6",
"%$	c #4574B1",
"&$	c #5D88C1",
"*$	c #537DB7",
"=$	c #295390",
"-$	c #274571",
";$	c #5F5F5F",
">$	c #6A6A6A",
",$	c #B2B2B2",
"'$	c #7A7A7A",
")$	c #C4C4C4",
"!$	c #EBEBEB",
"~$	c #4C80C4",
"{$	c #517EB9",
"]$	c #5F89C2",
"^$	c #5580B9",
"/$	c #305C96",
"($	c #1F4883",
"_$	c #142C52",
":$	c #575757",
"<$	c #666666",
"[$	c #FEFEFE",
"}$	c #989898",
"|$	c #4D82C6",
"1$	c #3C67A2",
"2$	c #27518D",
"3$	c #204882",
"4$	c #16345C",
"5$	c #7C7C7C",
"6$	c #A0A0A0",
"7$	c #E6E6E3",
"8$	c #193663",
"9$	c #7D7D7D",
"0$	c #FBFBFB",
"a$	c #E6E6E4",
"b$	c #8C8E8A",
"c$	c #F0F0EF",
"d$	c #FFFFFE",
"e$	c #F4F4F3",
"f$	c #8A8C88",
"g$	c #F1F1F1",
"h$	c #8E8E8E",
"i$	c #8D8F89",
"j$	c #8C8E88",
"k$	c #B8B8B8",
"l$	c #D8D8D8",
"m$	c #595957",
"n$	c #737371",
"o$	c #878785",
"p$	c #8A8A89",
"q$	c #8C8C8B",
"r$	c #8E8E8D",
"s$	c #929290",
"t$	c #939392",
"u$	c #989897",
"v$	c #9B9B99",
"w$	c #9D9D9C",
"x$	c #A0A09F",
"y$	c #A2A2A1",
"z$	c #8B8B89",
"A$	c #656764",
"B$	c #AFAFAF",
"C$	c #666763",
"D$	c #979794",
"E$	c #ACACAA",
"F$	c #AFAFAD",
"G$	c #B0B0AF",
"H$	c #B2B2B1",
"I$	c #B4B4B3",
"J$	c #B6B6B5",
"K$	c #B9B9B7",
"L$	c #BBBBB9",
"M$	c #BDBDBB",
"N$	c #BFBFBD",
"O$	c #C1C1C0",
"P$	c #C3C3C2",
"Q$	c #ADAEAC",
"R$	c #767974",
"S$	c #B5B5B5",
"T$	c #898989",
"U$	c #7F807A",
"V$	c #868883",
"W$	c #CDCDCB",
"X$	c #CECECD",
"Y$	c #D0D0CE",
"Z$	c #D2D2D0",
"`$	c #D5D5D3",
" %	c #D7D7D4",
".%	c #D9D9D7",
"+%	c #DADAD8",
"@%	c #DDDDDA",
"#%	c #DFDFDC",
"$%	c #E2E2DF",
"%%	c #E3E3E1",
"&%	c #E5E5E3",
"*%	c #8F908D",
"=%	c #A1A1A0",
"-%	c #B9B9B9",
";%	c #C5C5C5",
">%	c #C6C6C6",
",%	c #C8C8C8",
"'%	c #C2C2C2",
")%	c #B3B3B3",
"!%	c #A3A3A3",
"~%	c #939393",
"{%	c #A9A9A9",
"]%	c #D9D9D9",
"^%	c #9A9A9A",
"/%	c #8C8D89",
"(%	c #9B9D99",
"_%	c #BEBFBB",
":%	c #E1E1DF",
"<%	c #DEDEDC",
"[%	c #BABBB6",
"}%	c #979995",
"|%	c #8F918C",
"1%	c #929392",
"2%	c #B4B4B4",
"3%	c #999999",
"4%	c #A1A1A1",
"5%	c #BEBEBE",
"6%	c #D3D3D3",
"7%	c #9D9D9D",
"8%	c #F2F2F2",
"9%	c #898C87",
"0%	c #6C6C6C",
"a%	c #707070",
"b%	c #757575",
"c%	c #B1B1B1",
"d%	c #CACACA",
"e%	c #8A8C86",
"f%	c #C4C4C3",
"g%	c #C0C0BF",
"h%	c #BFBFBE",
"i%	c #BEBEBD",
"j%	c #898B86",
"k%	c #878984",
"l%	c #898A86",
"                                                                                                ",
"                                                                                                ",
"                                                    . + @ # @ $ .                               ",
"                                              % & * = - ; > ; - , ' & %                         ",
"                                          ) ! ~ { ] ^ / ( _ : < [ } { | 1 )                     ",
"                                      $ 2 3 4 5 6 7 8 9 0 a b c d e f g h i 2 j                 ",
"                                    k l m n o p q r s 9 t u v w x x y y z A B C k               ",
"                                  k D E F G H I J K L 9 M N O P Q Q R S T U V W X k             ",
"                                j Y Z `  ...+.@.y y #.$.%.Q Q &.*.=.-.;.>.,.'.).!.~.j           ",
"                                {.].^./.(._.:.<.[.Q &.}.}.}.}.|.1.2.3.4.5.6.7.t 8.9.{.          ",
"                              0.a.b.c.d.e.f.6.g.h.}.i.i.j.j.k.l.m.n.o.p.q.r.s.t.u.v.w.x.        ",
"                              y.z.A.B.d.t 7.C.D.E.j.k.k.k.F.G.G.H.I.b J.q.r.K.t.u.L.M.N.        ",
"                            O.P.Q.R.B.d.t 7.S.T.F.G.G.G.G.U.V.W.X.Y.Z.`.q.r.K.t.u. +.+++x.      ",
"                            @+#+$+9 %+&+0 *+=+G.U.V.-+-+-+-+;+>+,+'+)+!+~+{+]+t.u. +^+/+(+      ",
"                            _+:+<+9 [+&+}+-+-+-+-+;+;+|+|+)+)+1+2+3+4+5+6+7+8+0 &+%+9 9+0+      ",
"      a+b+b+b+b+b+b+b+b+b+b+b+b+b+b+b+b+b+b+b+b+b+b+b+b+b+b+c+d+e+b f+g+h+i+j+k+&+l+9 m+n+o+    ",
"    p+q+r+r+r+r+r+r+r+r+r+r+r+r+r+r+r+r+r+r+r+r+r+r+r+r+r+r+s+t+u+v+u q.w+x+y+z+A+B+C+D+E+k     ",
"  F+G+q+H+H+H+H+H+H+H+H+I+I+I+I+I+I+J+J+J+J+J+K+L+L+L+L+M+M+N+O+P+J.Q+R+6.S+t.T+U+V+W+X+Y+Z+    ",
"  b+r+H+`+`+`+`+`+`+`+`+`+`+`+`+`+`+`+`+`+`+`+`+`+`+`+`+`+`+ @r+b+Q+g..@+@@@0 #@$@%@&@*@=@-@    ",
"  b+r+H+`+H+H+H+H+H+H+H+H+H+H+H+H+H+H+H+H+H+H+H+H+H+H+H+H+`+;@r+b+>@,@'@S+)@!@A+~@{@]@^@/@Z+    ",
"  b+r+H+`+(@(@(@(@(@(@(@(@(@(@(@(@(@(@(@(@(@(@(@(@(@(@(@(@`+_@r+b+.@:@K.@@0 u.<@[@}@|@1@2@3@    ",
"  b+r+H+`+4@4@4@4@4@4@4@4@4@4@4@4@4@4@4@4@4@4@4@4@4@4@4@4@`+5@r+b+6@7@@@t.!@8@9@0@a@b@c@d@k     ",
"  b+r+H+`+e@e@e@e@e@e@e@e@e@e@e@e@e@e@e@f@H+H+H+H+H+f@e@e@`+5@r+b+|@g@h@i@j@k@l@m@n@o@p@q@      ",
"  b+r+H+`+r@r@r@r@r@r@r@r@r@r@r@r@r@r@r@H+s@s@s@s@s@t@r@u@`+v@r+b+w@x@y@z@A@B@C@D@E@F@G@H@      ",
"  b+r+I+`+I@I@I@J@H+H+H+H+H+H+H+K@I@I@I@H+H+H+H+H+H+H+L@M@`+v@r+b+N@O@P@Q@R@S@T@U@V@W@X@j       ",
"  b+r+I+`+Y@Y@Y@H+s@s@s@s@s@s@s@Z@Y@Y@Y@H+H+H+H+H+H+H+`@`@`+v@r+b+ #.#+#@###$#%#&#*#=#-#        ",
"  b+r+I+`+;#;#;#H+H+H+H+H+H+H+H+>#;#;#,#H+H+H+H+H+H+H+'#'#`+)#r+b+!#~#{#]#^#/#(#_#:#<#[#}#|#    ",
"  b+r+1#`+2#2#2#H+H+H+H+H+H+H+H+3#4#5#6#7#H+H+H+H+H+7#6#6#`+8#r+b+9#0#a#b#c#d#e#f#:#g#h#i#j#k#  ",
"  b+r+J+`+l#l#l#H+H+H+H+H+H+H+H+m#n#n#n#n#n#n#n#n#n#n#n#n#`+8#r+b+o#p#0@b#q#r#s#(#t#u#]#v#w#x#  ",
"  b+r+J+`+y#y#y#H+H+H+H+H+H+H+H+m#k.k.k.k.k.k.k.k.k.k.k.k.`+8#r+b+z#A#B#C#D#E#(#F#G#H#I#g#J#K#  ",
"  b+r+J+`+L#L#M#H+H+H+H+H+H+H+H+m#N#N#N#N#N#N#N#N#N#N#N#N#`+O#r+b+P#Q#Q#R#S#T#U#V#W#X#Y#Z#`# $  ",
"  b+r+K+`+J J J .$H+H+H+H+H+H+H++$J J J J J J J J J J J J `+@$r+b+#$$$%$&$*$=$-$;$>$,$'$)$!$]#  ",
"  b+r+L+`+~$~$~$~$~$~$~$~$~$~$~$~$~$~$~$~$~$~$~$~$~$~$~$~$`+@$r+b+{$]$^$/$($_$      :$<$I#[$}$  ",
"  b+r+L+`+|$|$|$|$|$|$|$|$|$|$|$|$|$|$|$|$|$|$|$|$|$|$|$|$`+@$r+b+1$2$3$4$              5$[$6$  ",
"  b+r+L+`+`+`+`+`+`+`+`+`+`+`+`+`+`+`+`+`+`+`+`+`+`+`+`+`+`+7$r+b+8$                    9$0$f#  ",
"  b+r+K+L+L+L+ @;@;@5@5@5@v@v@v@)#)#8#8#8#8#O#O#@$@$@$@$a$7$a$r+b+                      u#[#i#  ",
"  b$c$[$[$[$[$d$d$[$r+r+r+r+r+r+r+r+r+r+r+r+r+r+r+r+r+r+r+r+r+e$f$                      t#g$h$  ",
"    i$b+b+b+b+b+b+b+b+b+b+b+b+b+b+b+b+b+b+b+b+b+b+b+b+b+b+b+b+j$                      ]#k$l$]#  ",
"                  m$n$o$p$q$r$s$t$|#u$v$w$x$y$z$A$                                    5$G#B$]#  ",
"                  C$D$E$F$G$H$I$J$K$L$M$N$O$P$Q$R$5$]#]#]#]#]#]#]#]#                ]#S$s#T$    ",
"                U$V$W$W$X$Y$Z$`$ %.%+%@%#%$%%%&%D$*%=%-%;%>%,%'%)%!%~%Y#]#]#]#  ]#]#{%]%^%]#    ",
"            /%(%_%:%;@;@;@;@;@;@;@_@_@_@_@_@_@_@<%[%}%|%1%J#}$!%)%'%}#(#>%2%!%3%4%5%6%7%]#      ",
"          i$e$r+r+r+r+r+r+r+r+r+r+r+r+r+r+r+r+r+r+r+r+8%9%0%a%b%'$]#u#v#i#c%/#d%>%c%h$]#        ",
"          e%f%g%g%g%g%g%h%h%h%h%5%5%5%5%5%5%i%i%i%i%i%g%f$              ]#]#]#]#]#]#            ",
"          j%b+b+k%k%k%b+b+b+b+b+b+j%j%j%b+b+b+j%j%j%j%j%l%                                      ",
"                                                                                                ",
"                                                                                                ",
"                                                                                                "};
