/* XPM */
static char * realvncviewer_xpm[] = {
"48 48 800 2",
"  	c None",
". 	c #5E5E5E",
"+ 	c #6C6C6C",
"@ 	c #6E6E6E",
"# 	c #6D6E6E",
"$ 	c #6D6D6E",
"% 	c #6D6D6D",
"& 	c #60605F",
"* 	c #707070",
"= 	c #C8C8C8",
"- 	c #EEEEEE",
"; 	c #EFEFEF",
"> 	c #EDEDEE",
", 	c #EDEDED",
"' 	c #ECEDED",
") 	c #EDECED",
"! 	c #EDEDEC",
"~ 	c #ECECED",
"{ 	c #ECECEC",
"] 	c #EBECEC",
"^ 	c #CFD0D0",
"/ 	c #797979",
"( 	c #5D5D5D",
"_ 	c #C6C6C6",
": 	c #FFFFFF",
"< 	c #FCFCFC",
"[ 	c #FBFBFC",
"} 	c #FBFBFB",
"| 	c #FAFBFB",
"1 	c #FAFAFB",
"2 	c #FAFAFA",
"3 	c #F9FAFA",
"4 	c #F9F9FA",
"5 	c #F9F9F9",
"6 	c #F8F9F9",
"7 	c #D7D7D7",
"8 	c #646465",
"9 	c #6B6B6B",
"0 	c #FDFDFD",
"a 	c #F8F8F9",
"b 	c #F8F8F8",
"c 	c #F7F8F8",
"d 	c #F7F7F8",
"e 	c #F7F7F7",
"f 	c #F6F7F7",
"g 	c #F6F6F7",
"h 	c #F6F6F6",
"i 	c #F5F6F6",
"j 	c #F4F5F5",
"k 	c #7A7A7A",
"l 	c #EFEFF0",
"m 	c #F2F3F3",
"n 	c #7B7B7B",
"o 	c #FCFEFE",
"p 	c #F9FFFF",
"q 	c #F8FFFF",
"r 	c #F8F9F8",
"s 	c #F8F7F8",
"t 	c #F7FAFB",
"u 	c #F6FFFF",
"v 	c #F6FDFD",
"w 	c #F7F6F6",
"x 	c #FFF9FF",
"y 	c #FFFAFF",
"z 	c #FFFBFF",
"A 	c #F9F7FA",
"B 	c #F5F5F6",
"C 	c #EDF0F0",
"D 	c #FBECEC",
"E 	c #FBA1A1",
"F 	c #FB9D9D",
"G 	c #FABABA",
"H 	c #F7FBFB",
"I 	c #F6FAFA",
"J 	c #F7E7E7",
"K 	c #FAA0A0",
"L 	c #FAA0A1",
"M 	c #FAA1A0",
"N 	c #FA9B9B",
"O 	c #F8C2C2",
"P 	c #F5FAFA",
"Q 	c #F5F5F5",
"R 	c #F6F5F6",
"S 	c #FFF8FF",
"T 	c #FBF7FC",
"U 	c #C7E8C8",
"V 	c #9CDB9C",
"W 	c #85D485",
"X 	c #8CD68C",
"Y 	c #AADFAA",
"Z 	c #E8F1E8",
"` 	c #F6F5F7",
" .	c #F3F4F4",
"..	c #F4F4F4",
"+.	c #F1F1F2",
"@.	c #EBEFEF",
"#.	c #F9EEEE",
"$.	c #FE4040",
"%.	c #FF2222",
"&.	c #FF2828",
"*.	c #FF2121",
"=.	c #FE4A4A",
"-.	c #F5F4F4",
";.	c #F5F8F8",
">.	c #F3FFFF",
",.	c #F9A3A3",
"'.	c #FF1E1E",
").	c #FF2727",
"!.	c #FF1F1F",
"~.	c #F8ACAC",
"{.	c #F3FEFE",
"].	c #F7F4F7",
"^.	c #FEF7FF",
"/.	c #AADFAB",
"(.	c #42C042",
"_.	c #02AE02",
":.	c #00AA00",
"<.	c #23B623",
"[.	c #87D488",
"}.	c #F4F3F5",
"|.	c #F9F4F9",
"1.	c #F1F2F2",
"2.	c #F4F4F5",
"3.	c #F0F0F0",
"4.	c #EAEAEB",
"5.	c #FA8C8C",
"6.	c #FF3333",
"7.	c #FF3131",
"8.	c #FF3232",
"9.	c #F6CACA",
"0.	c #F3FBFC",
"a.	c #F3F3F4",
"b.	c #F3F3F3",
"c.	c #F2F8F8",
"d.	c #FC6161",
"e.	c #FF2A2A",
"f.	c #FF3030",
"g.	c #FF3B3B",
"h.	c #F4DEDF",
"i.	c #F4F7F9",
"j.	c #F8F4F8",
"k.	c #6ACC6A",
"l.	c #00AB00",
"m.	c #00AD00",
"n.	c #00AE00",
"o.	c #00AC00",
"p.	c #46C146",
"q.	c #E7EEE8",
"r.	c #F7F3F8",
"s.	c #F2F2F3",
"t.	c #EEEEEF",
"u.	c #E8E8E9",
"v.	c #F4FEFF",
"w.	c #F6BDBD",
"x.	c #FF2B2B",
"y.	c #F98B8B",
"z.	c #F1FDFF",
"A.	c #F2F2F2",
"B.	c #F1F5F6",
"C.	c #F2E1E1",
"D.	c #FF2A29",
"E.	c #FA6F70",
"F.	c #EFF7F8",
"G.	c #FEF5FF",
"H.	c #7BD07B",
"I.	c #00A900",
"J.	c #45C146",
"K.	c #F2F0F3",
"L.	c #F3F1F3",
"M.	c #E7E7E7",
"N.	c #F3F6F6",
"O.	c #F0EBEB",
"P.	c #FD4F4F",
"Q.	c #FF2D2D",
"R.	c #FC5F5F",
"S.	c #EFF4F4",
"T.	c #F0F1F1",
"U.	c #EEFAFA",
"V.	c #F5A6A7",
"W.	c #FF2929",
"X.	c #F5A9A9",
"Y.	c #F5FCFF",
"Z.	c #C7E4C8",
"`.	c #09AF09",
" +	c #24B824",
".+	c #4AC24B",
"++	c #33BC33",
"@+	c #01AE01",
"#+	c #97D797",
"$+	c #FBF2FC",
"%+	c #EBEBEB",
"&+	c #E5E5E5",
"*+	c #EDFBFB",
"=+	c #F97E7F",
"-+	c #F1CBCB",
";+	c #EDF5F5",
">+	c #ECF8F9",
",+	c #F97474",
"'+	c #FE3C3C",
")+	c #EFD6D6",
"!+	c #FBF6FF",
"~+	c #78CE78",
"{+	c #98D599",
"]+	c #EAECEC",
"^+	c #F8F0F9",
"/+	c #F1EEF2",
"(+	c #BADFBB",
"_+	c #20B620",
":+	c #32BB33",
"<+	c #F0EEF1",
"[+	c #EAE9EB",
"}+	c #79797A",
"|+	c #E3E3E4",
"1+	c #F0F0F1",
"2+	c #ECF6F6",
"3+	c #F2B8B8",
"4+	c #FF2E2E",
"5+	c #F49FA0",
"6+	c #EBF8F9",
"7+	c #EBEFF0",
"8+	c #EDE0E0",
"9+	c #FD4646",
"0+	c #FF2F2F",
"a+	c #F96B6B",
"b+	c #EBF4F7",
"c+	c #EDECEE",
"d+	c #32BB32",
"e+	c #7DCF7E",
"f+	c #FFF0FF",
"g+	c #EDEBEE",
"h+	c #EBEBED",
"i+	c #FCEFFD",
"j+	c #B3DCB5",
"k+	c #08AE08",
"l+	c #10B210",
"m+	c #D7E6D9",
"n+	c #EBE8EC",
"o+	c #E1E1E2",
"p+	c #EDEEEF",
"q+	c #EAEDEE",
"r+	c #EBE6E7",
"s+	c #FD4949",
"t+	c #F96767",
"u+	c #E9EFF0",
"v+	c #E9EBEB",
"w+	c #E9EAEB",
"x+	c #E8F4F4",
"y+	c #F0B2B2",
"z+	c #F29A9B",
"A+	c #ECF5F9",
"B+	c #D5E4D6",
"C+	c #0EB20F",
"D+	c #0EB20E",
"E+	c #D0E3D2",
"F+	c #EEEAF0",
"G+	c #E7E8E9",
"H+	c #E9E8EA",
"I+	c #EFEAF0",
"J+	c #B5DCB6",
"K+	c #EEE7EF",
"L+	c #6C6C6D",
"M+	c #E0E0E0",
"N+	c #E8E9EA",
"O+	c #E7F1F2",
"P+	c #F77575",
"Q+	c #FE3A39",
"R+	c #EBD4D5",
"S+	c #E7EDEE",
"T+	c #E6F3F4",
"U+	c #F58485",
"V+	c #FE3D3D",
"W+	c #E9D5D6",
"X+	c #ECEDF2",
"Y+	c #CBE0CC",
"Z+	c #09B009",
"`+	c #33BB33",
" @	c #EBE8ED",
".@	c #E7E6E9",
"+@	c #E6E6E7",
"@@	c #E5E6E7",
"#@	c #F2E9F4",
"$@	c #58C358",
"%@	c #A0D6A1",
"&@	c #EEE6F0",
"*@	c #787979",
"=@	c #DEDEDF",
"-@	c #E7E7E8",
";@	c #E5F0F1",
">@	c #EDB6B7",
",@	c #EEACAD",
"'@	c #E4F0F1",
")@	c #E5E8E9",
"!@	c #E6DFE0",
"~@	c #FC4A4A",
"{@	c #F95D5D",
"]@	c #E4EAEB",
"^@	c #C9DFCB",
"/@	c #0AB10A",
"(@	c #3CBC3C",
"_@	c #ECE7EE",
":@	c #E5E5E7",
"<@	c #E4E4E5",
"[@	c #E3E4E5",
"}@	c #F0E7F2",
"|@	c #65C665",
"1@	c #96D297",
"2@	c #ECE5EE",
"3@	c #787878",
"4@	c #DCDDDE",
"5@	c #E5E5E6",
"6@	c #E4E9EA",
"7@	c #E6D8D9",
"8@	c #FD4141",
"9@	c #F76A6B",
"0@	c #E2ECED",
"a@	c #E4E5E6",
"b@	c #E2EBEC",
"c@	c #E9C1C2",
"d@	c #EF9B9B",
"e@	c #E1EEEF",
"f@	c #E9E5EB",
"g@	c #C8DDC9",
"h@	c #0AB00A",
"i@	c #3BBC3B",
"j@	c #EAE5EC",
"k@	c #E3E3E5",
"l@	c #E2E3E4",
"m@	c #EFE5F0",
"n@	c #63C564",
"o@	c #8DD08E",
"p@	c #EBE3ED",
"q@	c #DADBDC",
"r@	c #E3E4E4",
"s@	c #E1EDEE",
"t@	c #F47677",
"u@	c #FC4646",
"v@	c #E3DBDC",
"w@	c #E1E5E6",
"x@	c #E2E2E3",
"y@	c #E1E2E3",
"z@	c #DFECED",
"A@	c #F0898A",
"B@	c #FF3536",
"C@	c #E5C9CA",
"D@	c #E0E7E8",
"E@	c #E7E3E9",
"F@	c #C7DBC8",
"G@	c #3ABB3A",
"H@	c #E8E3EA",
"I@	c #E1E1E3",
"J@	c #E0E1E2",
"K@	c #EDE3EE",
"L@	c #62C463",
"M@	c #98D19A",
"N@	c #E8E0EA",
"O@	c #777878",
"P@	c #D7D7D9",
"Q@	c #DFE1E2",
"R@	c #DFE0E1",
"S@	c #DEEAEB",
"T@	c #EAA6A7",
"U@	c #E9ADAE",
"V@	c #DEE9EA",
"W@	c #DFE2E3",
"X@	c #F95454",
"Y@	c #FF2C2C",
"Z@	c #F75D5D",
"`@	c #DEE2E3",
" #	c #DEE1E2",
".#	c #E5E0E6",
"+#	c #C5D9C6",
"@#	c #39BA3A",
"##	c #E6E1E8",
"$#	c #DFDFE1",
"%#	c #DEDFE0",
"&#	c #DDDEDF",
"*#	c #EAE1EC",
"=#	c #98D099",
"-#	c #E6DEE8",
";#	c #777777",
">#	c #E0E0E1",
",#	c #E9EAEA",
"'#	c #E7ECEC",
")#	c #E9D9DA",
"!#	c #FD4343",
"~#	c #F27879",
"{#	c #DBE9EA",
"]#	c #DCE3E4",
"^#	c #E2C6C7",
"/#	c #FE3838",
"(#	c #EC9495",
"_#	c #E3DEE4",
":#	c #C3D8C4",
"<#	c #39BA39",
"[#	c #E4DFE6",
"}#	c #DDDDDF",
"|#	c #DCDCDD",
"1#	c #DBDCDD",
"2#	c #E8DFEA",
"3#	c #5DC25E",
"4#	c #96CE98",
"5#	c #E4DCE6",
"6#	c #EDF9F9",
"7#	c #F97374",
"8#	c #F95151",
"9#	c #DEDDDE",
"0#	c #DBDDDF",
"a#	c #D9E6E7",
"b#	c #EC8D8E",
"c#	c #FE3434",
"d#	c #E1BCBD",
"e#	c #D9E2E3",
"f#	c #E0DDE3",
"g#	c #C1D6C2",
"h#	c #38BA39",
"i#	c #E2DDE4",
"j#	c #DBDBDD",
"k#	c #E4DDE7",
"l#	c #52BF53",
"m#	c #95CD96",
"n#	c #E2DAE4",
"o#	c #767777",
"p#	c #EFEEEF",
"q#	c #F5A8A8",
"r#	c #F0BEBF",
"s#	c #E5EEF0",
"t#	c #D9DADB",
"u#	c #D8D9DA",
"v#	c #D7E1E3",
"w#	c #F46465",
"x#	c #F65C5C",
"y#	c #D7DEDF",
"z#	c #D8DADB",
"A#	c #D9D9DB",
"B#	c #DFDAE1",
"C#	c #BFD4C0",
"D#	c #08B008",
"E#	c #37B937",
"F#	c #E0DBE2",
"G#	c #D8D8DA",
"H#	c #E2DAE5",
"I#	c #50BE51",
"J#	c #93CC95",
"K#	c #E0D8E2",
"L#	c #767677",
"M#	c #EEF2F3",
"N#	c #EFE2E3",
"O#	c #FE4343",
"P#	c #F59595",
"Q#	c #DCE2E3",
"R#	c #DBC4C6",
"S#	c #FD3C3C",
"T#	c #EB8485",
"U#	c #D4E2E3",
"V#	c #D6D7D8",
"W#	c #DCD8DE",
"X#	c #BDD2BF",
"Y#	c #0BB00B",
"Z#	c #01AD01",
"`#	c #01AC01",
" $	c #38B939",
".$	c #DED8E0",
"+$	c #D6D7D9",
"@$	c #D5D7D8",
"#$	c #D5D6D8",
"$$	c #E0D8E3",
"%$	c #52BE53",
"&$	c #93CB94",
"*$	c #DDD6E0",
"=$	c #767676",
"-$	c #EEF5F6",
";$	c #FA6868",
">$	c #FC5859",
",$	c #EBEDEE",
"'$	c #EAF6F7",
")$	c #EFA7A7",
"!$	c #FE3636",
"~$	c #DCBBBC",
"{$	c #D3DBDC",
"]$	c #D4D5D6",
"^$	c #D5D5D8",
"/$	c #D0D4D2",
"($	c #AECEB0",
"_$	c #ACCEAE",
":$	c #ACCDAE",
"<$	c #B6CFB8",
"[$	c #D7D7D5",
"}$	c #DAD9D4",
"|$	c #DCD9D6",
"1$	c #C2D4BC",
"2$	c #B2D1AC",
"3$	c #B2D1AB",
"4$	c #C9D4C9",
"5$	c #D2D2D5",
"6$	c #E8E8E8",
"7$	c #F0EFF0",
"8$	c #F5AEAF",
"9$	c #FF3535",
"0$	c #EFD1D1",
"a$	c #EBF2F3",
"b$	c #EAF5F6",
"c$	c #F87878",
"d$	c #F75051",
"e$	c #D2D5D6",
"f$	c #D2D4D6",
"g$	c #D2D3D5",
"h$	c #D3D3D6",
"i$	c #DAD5DC",
"j$	c #DAD5DD",
"k$	c #DAD4DD",
"l$	c #DCD6D9",
"m$	c #DDDBD1",
"n$	c #D8D7D3",
"o$	c #C4CAD7",
"p$	c #B3BEDA",
"q$	c #AEBBDB",
"r$	c #AFBCDB",
"s$	c #B3BCE0",
"t$	c #B6BDE2",
"u$	c #B6BCE2",
"v$	c #B5BCE2",
"w$	c #C8CBD9",
"x$	c #D4D5D4",
"y$	c #EFF4F5",
"z$	c #F1DADB",
"A$	c #FF393A",
"B$	c #F4A1A2",
"C$	c #EBF7F8",
"D$	c #ECF0F0",
"E$	c #EDDEDF",
"F$	c #FE4141",
"G$	c #E68182",
"H$	c #CDDADB",
"I$	c #D0D1D2",
"J$	c #D0D1D3",
"K$	c #D9D7D0",
"L$	c #C3C9D5",
"M$	c #6C8EE8",
"N$	c #386AF3",
"O$	c #1353FB",
"P$	c #064AFE",
"Q$	c #0349FE",
"R$	c #0449FE",
"S$	c #0343FE",
"T$	c #8FA6E1",
"U$	c #E6E3DC",
"V$	c #E9E9E9",
"W$	c #F1F1F1",
"X$	c #EFF6F7",
"Y$	c #FA6D6D",
"Z$	c #FB6161",
"`$	c #ECF2F3",
" %	c #EBF5F7",
".%	c #F1BEBF",
"+%	c #DFBABB",
"@%	c #CCD6D7",
"#%	c #CCCDCF",
"$%	c #CECFD0",
"%%	c #CDCED0",
"&%	c #D9D6CE",
"*%	c #9DAFDC",
"=%	c #1A56F9",
"-%	c #003DFF",
";%	c #0040FF",
">%	c #0044FF",
",%	c #0045FF",
"'%	c #0046FF",
")%	c #003FFF",
"!%	c #98AFEB",
"~%	c #EDEAE1",
"{%	c #E9E9EA",
"]%	c #EFFCFC",
"^%	c #F6A6A7",
"/%	c #EFDFE0",
"(%	c #EBFAFB",
"_%	c #F77D7D",
":%	c #FF2928",
"<%	c #FC5152",
"[%	c #ECE8E9",
"}%	c #E3E5E6",
"|%	c #D5D6D7",
"1%	c #CBCCCE",
"2%	c #CACBCD",
"3%	c #D3D2CC",
"4%	c #A5B4D8",
"5%	c #0C4CFC",
"6%	c #0041FF",
"7%	c #0047FF",
"8%	c #003EFF",
"9%	c #9DB3F0",
"0%	c #EAEAEA",
"a%	c #F0F6F7",
"b%	c #F2D7D7",
"c%	c #FE3A3A",
"d%	c #F4A8A9",
"e%	c #FC4F4E",
"f%	c #F59090",
"g%	c #E9F7F7",
"h%	c #EBEBEC",
"i%	c #CBCCCC",
"j%	c #CCCCCB",
"k%	c #2E66F3",
"l%	c #0147FD",
"m%	c #0349FD",
"n%	c #044AFF",
"o%	c #0443FF",
"p%	c #9EB5EF",
"q%	c #EDEAE2",
"r%	c #F0F8F9",
"s%	c #FB6A6A",
"t%	c #F87D7D",
"u%	c #F0D1D2",
"v%	c #F0BFC0",
"w%	c #EAF3F4",
"x%	c #EEEBE3",
"y%	c #A0B4E9",
"z%	c #3369F9",
"A%	c #9AB0E7",
"B%	c #BBC7E5",
"C%	c #BFCBEA",
"D%	c #C1CCEC",
"E%	c #C1CDEC",
"F%	c #C0CCEB",
"G%	c #BFCAEB",
"H%	c #DADEE8",
"I%	c #E4E4E4",
"J%	c #787879",
"K%	c #F0FCFD",
"L%	c #F79C9C",
"M%	c #FC5353",
"N%	c #F87E7E",
"O%	c #FC5555",
"P%	c #EBEAEB",
"Q%	c #EBECEE",
"R%	c #F8F4EA",
"S%	c #6890F7",
"T%	c #4979F8",
"U%	c #EBEAE9",
"V%	c #F6F2E8",
"W%	c #F1EEE9",
"X%	c #F0EEE9",
"Y%	c #EFEDE8",
"Z%	c #EEECE7",
"`%	c #EEEBE6",
" &	c #EDEBE6",
".&	c #E8E8E7",
"+&	c #F1F6F7",
"@&	c #F3DBDB",
"#&	c #FF3838",
"$&	c #F78384",
"%&	c #ECEBEB",
"&&	c #E8E9EB",
"*&	c #2963FC",
"=&	c #0547FF",
"-&	c #C0CCED",
";&	c #F4F0E8",
">&	c #E6E7E8",
",&	c #F1F6F6",
"'&	c #FC5D5E",
")&	c #F1C0C1",
"!&	c #EBF4F5",
"~&	c #EFEEEB",
"{&	c #D3DAED",
"]&	c #0C50FE",
"^&	c #2B65FC",
"/&	c #EAEAE9",
"(&	c #6E6E6D",
"_&	c #F1FDFD",
":&	c #F7A0A1",
"<&	c #FD4E4E",
"[&	c #EDEBEC",
"}&	c #ECEFEF",
"|&	c #F1EFEA",
"1&	c #CED6ED",
"2&	c #094DFE",
"3&	c #3C71FA",
"4&	c #F2EFE9",
"5&	c #EAE9EA",
"6&	c #F2F9F9",
"7&	c #F4D6D6",
"8&	c #F87F80",
"9&	c #ECF7F8",
"0&	c #F0EFEB",
"a&	c #D4DBED",
"b&	c #0C4FFE",
"c&	c #0043FF",
"d&	c #1A59FD",
"e&	c #DFE2EB",
"f&	c #EDECEA",
"g&	c #F3F4F5",
"h&	c #F2F4F5",
"i&	c #FC5E5E",
"j&	c #F2C3C3",
"k&	c #EDF6F7",
"l&	c #EAEBEC",
"m&	c #2C66FC",
"n&	c #92ADF2",
"o&	c #FEF7E8",
"p&	c #EBEAEA",
"q&	c #E7E8E8",
"r&	c #F2FFFF",
"s&	c #F89E9E",
"t&	c #FD4747",
"u&	c #EFE5E6",
"v&	c #EEF1F2",
"w&	c #FAF5EB",
"x&	c #7599F6",
"y&	c #003CFF",
"z&	c #0F4FFE",
"A&	c #9FB5F1",
"B&	c #F6F2E9",
"C&	c #F5F1E8",
"D&	c #F4F1E8",
"E&	c #ECEBE9",
"F&	c #F3FBFB",
"G&	c #F5CECE",
"H&	c #F88586",
"I&	c #EEFAFB",
"J&	c #F3F0EB",
"K&	c #CAD4EE",
"L&	c #0C4CFE",
"M&	c #366CFA",
"N&	c #5884F7",
"O&	c #5F89F7",
"P&	c #608AF6",
"Q&	c #5F89F6",
"R&	c #5E85F6",
"S&	c #BECBEF",
"T&	c #ECEAE6",
"U&	c #F3F8F8",
"V&	c #FC5F60",
"W&	c #F5B7B7",
"X&	c #EFF9FA",
"Y&	c #FAF6EB",
"Z&	c #779BF5",
"`&	c #003BFF",
" *	c #0036FF",
".*	c #9CB3F2",
"+*	c #F2EEE6",
"@*	c #FA9292",
"#*	c #FF2323",
"$*	c #FD4B4B",
"%*	c #F1EAEB",
"&*	c #F0F3F3",
"**	c #EFEEED",
"=*	c #EFEEEC",
"-*	c #5280F9",
";*	c #003AFF",
">*	c #A0B6F2",
",*	c #FDFDFE",
"'*	c #F4F8F9",
")*	c #F5E5E6",
"!*	c #FE5050",
"~*	c #FF2424",
"{*	c #FF2525",
"]*	c #F6AEAF",
"^*	c #F0FBFB",
"/*	c #F1EFEC",
"(*	c #789BF5",
"_*	c #114FFE",
":*	c #0037FF",
"<*	c #F3EEE6",
"[*	c #FEFEFE",
"}*	c #F5F4F5",
"|*	c #F4FAFB",
"1*	c #F5E5E5",
"2*	c #F99999",
"3*	c #FA8485",
"4*	c #F5C7C7",
"5*	c #F1F9F9",
"6*	c #F8F4EB",
"7*	c #D4DBEE",
"8*	c #A1B6F2",
"9*	c #6B91F6",
"0*	c #5582F8",
"a*	c #4D7DF8",
"b*	c #5885F7",
"c*	c #5984F7",
"d*	c #5780F7",
"e*	c #BCC9EF",
"f*	c #F2FBFB",
"g*	c #F7F4EB",
"h*	c #F9F5EB",
"i*	c #F6F2EA",
"j*	c #F4F1EA",
"k*	c #F5F1E9",
"l*	c #EDECEB",
"m*	c #D3D3D3",
"n*	c #EFEFF1",
"o*	c #D5D5D6",
"p*	c #676767",
"q*	c #DEDEDE",
"r*	c #F7F7F6",
"s*	c #D7D7D8",
"t*	c #7E7E7E",
"u*	c #7D7D7D",
"v*	c #7C7C7C",
"w*	c #7B7B7C",
"x*	c #7A7A7B",
"y*	c #696969",
"    . + @ @ @ @ @ @ @ @ @ @ @ @ @ @ @ @ # # $ $ $ % % % % % % % % % % % % % % % % % % @ % &     ",
"  * = - ; - - - - - - - - - > > > , , , , ' , ) , , ! , , , ' ' ' ' ~ ~ { { { { ] ] ] ] ] ^ /   ",
"( _ : < < < < < < < < < < < [ [ [ } } } } | | 1 1 1 2 2 2 2 2 2 3 3 3 4 4 4 5 5 5 5 6 6 6 : 7 8 ",
"9 { 0 5 5 5 5 5 5 5 5 5 5 5 5 6 a a a b b b b c d d d e e e e e e f f f g g g h h h h i i c j k ",
"@ l < 5 5 5 5 5 5 5 5 5 5 5 5 5 6 a a a b b b b c d d d e e e e e e f f f g g g h h h h i c m n ",
"@ - o p q q q q q b a a a a a b r b b a b b s t u u u u u v w f f h d x y z y y A i i h B d m n ",
"@ C D E E E E F G H d e e e e e e e f g g g I J K K L M N O P Q R S T U V W X Y Z S `  ...i +.n ",
"% @.#.$.%.&.&.*.=.-.;.B B B B B B Q Q Q Q j >.,.'.).&.).!.~.{.].^./.(._.:.:.:.:.<.[.}.|.1.2.3.n ",
"% 4.u 5.).6.6.7.8.9.0.a.a.a.a.a.a.a.a.a.b. .c.d.e.6.6.f.g.h.i.j.k.l.:.m.n.n.n.n.o.:.p.q.r.s.t.k ",
"% u.v.w.x.6.6.6.).y.z.A.+.+.+.+.+.+.+.+.+.B.C.$.f.6.6.D.E.F.G.H.I.m.n.n.o.l.o.m.n.n.I.J.K.L.' k ",
"% M.N.O.P.Q.6.6.x.R.S.T.3.3.3.3.3.3.3.3.l U.V.W.6.6.6.&.X.Y.Z.`.m.n.m.o. +.+++@+o.n.n.:.#+$+%+k ",
"% &+1.*+=+).6.6.8.6.-+;+t.t.t.t.t.t.t.t.> >+,+&.6.6.f.'+)+!+~+:.n.m.`.{+]+^+/+(+_+o.n.l.:+<+[+}+",
"% |+1+2+3+4+6.6.6.&.5+6+~ ~ ~ ~ ~ ~ ~ ~ 7+8+9+0+6.6.D.a+b+c+d+o.n.l.e+f+g+4.h+i+j+k+m.m.l+m+n+/ ",
"% o+p+q+r+s+4+6.6.e.t+u+v+w+w+w+w+w+w+w+x+y+e.6.6.6.W.z+A+B+C+m.m.D+E+F+u.G+G+H+I+d+o.n.m.J+K+/ ",
"L+M+~ N+O+P+W.6.6.7.Q+R+S+u.u.u.u.u.G+G+T+U+&.6.6.f.V+W+X+Y+Z+m.o.`+ @.@+@+@+@@@#@$@l.n.o.%@&@*@",
"+ =@w+-@;@>@Q.8.6.6.x.,@'@+@+@+@+@+@+@)@!@~@4+6.6.x.{@]@ @^@/@m.l.(@_@:@<@[@<@[@}@|@l.n.o.1@2@3@",
"+ 4@G+5@6@7@8@0+6.6.e.9@0@a@<@[@[@[@[@b@c@7.8.6.6.e.d@e@f@g@h@m.o.i@j@k@l@l@l@l@m@n@l.n.l.o@p@3@",
"+ q@@@|+r@s@t@D.6.6.0+u@v@w@x@y@y@y@y@z@A@W.6.6.7.B@C@D@E@F@h@m.o.G@H@I@J@J@J@J@K@L@l.n.o.M@N@O@",
"+ P@x@Q@R@S@T@D.6.6.8.4+U@V@R@R@R@R@Q@W@X@Y@6.6.Y@Z@`@ #.#+#h@m.o.@###$#%#=@&#&#*#L@l.n.o.=#-#;#",
"% >#~ ,#N+'#)#!#0+6.6.&.~#{#&#&#&#&#]#^#/#7.6.6.&.(#{#&#_#:#h@m.o.<#[#}#4@|#|#1#2#3#l.n.o.4#5#;#",
"% M.a.1+3.l 6#7#&.6.6.Q.8#9#0#q@1#1#a#b#&.6.6.8.c#d#e#1#f#g#h@m.o.h#i#j#q@q@q@q@k#l#o.n.o.m#n#o#",
"% +@b.3.l p#6#q#e.6.6.8.0+r#s#R@t#u#v#w#e.6.6.Y@x#y#z#A#B#C#D#m.o.E#F#A#u#u#u#G#H#I#o.n.o.J#K#L#",
"% M.a.1+3.l M#N#O#0+6.6.&.P#6+~ -@Q#R#S#f.6.6.&.T#U#V#V#W#X#Y#Z#`# $.$+$@$@$#$@$$$%$`#@+`#&$*$=$",
"% -@..1+1+l l -$;$e.6.6.Y@>$~ ,$~ '$)$W.6.6.7.!$~${$]$]$^$/$($_$:$<$^$]$[$}$}$}$|$1$2$2$3$4$5$=$",
"% 6$2.+.1+1+7$U.8$e.6.6.7.9$0$a$] b$c$W.6.6.Q.d$e$f$g$g$g$h$i$j$k$l$m$n$o$p$q$r$q$s$t$u$v$w$x$3@",
"% u.Q +.+.1+1+y$z$A$f.6.6.W.B$C$D$E$F$0+6.6.e.G$H$I$I$J$J$J$J$J$K$L$M$N$O$P$Q$R$R$R$R$R$S$T$U$/ ",
"% V$B A.+.W$1+1+X$Y$e.6.6.e.Z$`$ %.%Q.8.6.8.8.+%@%#%$%$%$%$%%%&%*%=%-%;%>%,%'%,%'%'%'%'%)%!%~%3@",
"% {%h s.s.+.+.1+]%^%&.6.6.0+$./%(%_%:%6.6.Q.<%[%}%|%1%2%1%1%3%4%5%6%7%7%7%'%,%,%,%,%,%,%8%9%~%3@",
"% 0%g b.s.A.+.+.a%b%c%7.6.6.W.d%2+e%Q.6.6.&.f%g%h%h%l@G#%%i%j%k%)%7%7%6%;%l%m%n%n%n%n%n%o%p%q%3@",
"% 4.e a.b.s.A.+.+.r%s%D.6.6.&.t%u%8.8.6.8.4+v%w%4.4.h%~ u.x%y%;%7%7%;%z%A%B%C%D%E%F%F%F%G%H%I%J%",
"% %+d ..a.b.s.s.+.K%L%).6.6.4+M%N%e.6.6.Q.O%P%Q%h%%+4.4.4.R%S%-%7%;%T%U%V%W%X%Y%Z%Z%Z%`% &.&l@J%",
"% h%b Q ..a.b.s.A.+&@&'+f.6.6.6.#&8.6.6.).$&6+h%h%h%%+4.%&&&*&6%'%=&-&;&u.u.u.u.u.-@-@>&+@-@|+J%",
"$ { a B Q ..a.b.s.m ,&'&x.6.6.8.7.6.6.8.f.)&!&~ h%h%h%%+~&{&]&>%6%^&0%/&u.u.u.u.u.G+-@-@>&-@[@*@",
"(&~ 4 B B 2...a.b.s._&:&W.6.6.6.6.6.6.Q.<&[&}&~ ~ { h%h%|&1&2&,%;%3&4&5&{%u.u.u.u.u.u.-@-@G+<@/ ",
"$ , 2 g B B Q ..a.b.6&7&9$7.6.6.6.6.6.&.8&9&> , ~ ~ h%h%0&a&b&>%c&d&e&f&{%{%u.u.u.u.u.u.-@u.<@/ ",
"@ > 2 e h B B Q ..a.g&h&i&x.6.6.6.6.8.4+j&k&> > , ~ ~ h%! l&m&6%7%;%n&o&p&{%V$u.u.u.u.u.q&u.5@/ ",
"@ - } d e g B B 2...a.r&s&).6.6.6.6.4+t&u&v&t.> > , ~ ~ h%w&x&y&7%>%z&A&X%B&B&C&D&D&D&D&D&E&a@/ ",
"@ - [ b d e g B B Q ..F&G&6.8.6.6.6.&.H&I&; t.- > > , ~ ~ J&K&L&>%7%>%c&M&N&O&P&Q&Q&Q&Q&R&S&T&/ ",
"@ ; < a b e e h B B Q j U&V&x.6.6.6.e.W&X&l ; t.- > > , ~ ~ Y&Z&`&'%7%'%;%8%8%8%8%8%8%8% *.*+*/ ",
"@ 3.0 5 a b d e g B B 2.>.@*#*6.6.x.$*%*&*3.l ; t.t.> > , ~ **=*-*;*c&7%7%7%7%7%7%7%7%7%;%>*+*/ ",
"@ 3.,*2 5 a b d e g B B '*)*!*~*{*4+]*^*1+1+3.l ; t.- > > , ~ /*! (*_*)%-%8%)%8%8%8%8%8%:*.*<*/ ",
"@ W$[*1 2 5 a b e e h B }*|*1*2*3*4*5*+.W$1+1+l l ; t.- > > ~ ~ **6*7*8*9*0*a*b*c*N&N&N&d*e* &/ ",
"@ +.: } 1 2 5 a b d e g B Q '*>.>.f*s.A.+.+.1+1+3.l ; t.t.> > , ~ ~ /*g*h*i*j*i*i*k*k*k*k*l*@@/ ",
"@ b.: [ } 1 2 5 a b d e g B B j ..a.b.s.A.+.+.1+1+3.l ; t.- > > , ~ ~ h%h%h%%+4.4.4.{%{%{%4.+@/ ",
"% A.: < [ } 1 2 5 a b e e h B B Q ..a.b.s.A.+.W$1+1+l l ; t.- > > , ~ ~ h%h%h%%+4.4.4.{%{%4.{%/ ",
". m*: : [*,*0 < < } 1 2 5 a b d e h h B 2.2.a.a.b.s.A.+.1+3.n*3.; l t.> - > ~ , ~ h%h+h%4.s.o*p*",
"  k q*} 2 5 5 b b e r*h Q Q ....a.s.A.+.+.W$1+l l ; t.- > , ~ ~ { h%h%4.4.4.{%{%{%u.u.u.{%s*t*  ",
"    p*n u*v*v*v*v*v*v*v*v*w*n n n n n n n n n n n x*k k k k k k k k k k k k k }+}+/ / }+k y*    "};
