/* XPM */
static char * regex_xpm[] = {
"48 48 460 2",
"  	c None",
". 	c #CBC9C6",
"+ 	c #B2AFAC",
"@ 	c #96928C",
"# 	c #8F8B85",
"$ 	c #949089",
"% 	c #ABA6A2",
"& 	c #C6C2C0",
"* 	c #EFEEED",
"= 	c #F2F1F1",
"- 	c #DCDCDA",
"; 	c #D7D5D3",
"> 	c #D4D2D0",
", 	c #D3D1D0",
"' 	c #D3D2D0",
") 	c #D3D2CF",
"! 	c #D3D1CF",
"~ 	c #D2D0CF",
"{ 	c #D2D0CE",
"] 	c #D9D9D6",
"^ 	c #EEEEEE",
"/ 	c #CECCCA",
"( 	c #F1F1EF",
"_ 	c #C6C4C2",
": 	c #CAC8C6",
"< 	c #CBC9C7",
"[ 	c #CBC8C6",
"} 	c #F3F2F0",
"| 	c #D6D4D1",
"1 	c #B6B3AE",
"2 	c #D5D4D2",
"3 	c #C6C5C2",
"4 	c #C7C5C3",
"5 	c #D6D5D3",
"6 	c #BEBCB9",
"7 	c #96908C",
"8 	c #CAC9C6",
"9 	c #C3C1BD",
"0 	c #C3C1BE",
"a 	c #CDCBCA",
"b 	c #99948F",
"c 	c #8A8782",
"d 	c #C1C0BD",
"e 	c #BDBBB9",
"f 	c #BCBBB9",
"g 	c #C9C7C5",
"h 	c #8A8680",
"i 	c #888580",
"j 	c #BBBAB7",
"k 	c #BAB8B5",
"l 	c #BAB8B4",
"m 	c #C5C3C0",
"n 	c #88847E",
"o 	c #88847F",
"p 	c #B6B3B1",
"q 	c #B5B2B0",
"r 	c #B4B2AF",
"s 	c #B4B1AF",
"t 	c #B2AFAD",
"u 	c #B1B0AC",
"v 	c #C0BEBC",
"w 	c #86837C",
"x 	c #86827D",
"y 	c #B0AEAB",
"z 	c #AFAEAB",
"A 	c #AFADAA",
"B 	c #ADABA8",
"C 	c #CFCECD",
"D 	c #DBDBD9",
"E 	c #E9E8E7",
"F 	c #ABA9A6",
"G 	c #84817C",
"H 	c #84817B",
"I 	c #AAA8A4",
"J 	c #ABA8A6",
"K 	c #A6A3A0",
"L 	c #FFFFFF",
"M 	c #A5A3A0",
"N 	c #B7B4B2",
"O 	c #827F7A",
"P 	c #827F79",
"Q 	c #A3A09D",
"R 	c #A5A29F",
"S 	c #BCB9B8",
"T 	c #9B9995",
"U 	c #9F9C99",
"V 	c #A6A2A0",
"W 	c #B0AEAC",
"X 	c #807D78",
"Y 	c #817E79",
"Z 	c #9D9B98",
"` 	c #A19E9B",
" .	c #A09D99",
"..	c #C4C2C0",
"+.	c #A9A6A4",
"@.	c #A09D9A",
"#.	c #A19E9A",
"$.	c #7E7B77",
"%.	c #7F7C78",
"&.	c #989592",
"*.	c #9B9895",
"=.	c #999693",
"-.	c #C2C0BE",
";.	c #9E9A98",
">.	c #7C7975",
",.	c #7D7A76",
"'.	c #93908C",
").	c #969490",
"!.	c #94928E",
"~.	c #FBFCFC",
"{.	c #989693",
"].	c #969390",
"^.	c #959390",
"/.	c #A19E9C",
"(.	c #8F8C89",
"_.	c #7B7874",
":.	c #8C8A86",
"<.	c #908E8A",
"[.	c #8E8C88",
"}.	c #B8B7B4",
"|.	c #F7F7F6",
"1.	c #93918D",
"2.	c #8F8D89",
"3.	c #8A8885",
"4.	c #73706C",
"5.	c #777470",
"6.	c #7D7A75",
"7.	c #797672",
"8.	c #878381",
"9.	c #8B8885",
"0.	c #898681",
"a.	c #BDBBBA",
"b.	c #F3F2F2",
"c.	c #86827F",
"d.	c #86827E",
"e.	c #898682",
"f.	c #918E8B",
"g.	c #898684",
"h.	c #746F6C",
"i.	c #75726E",
"j.	c #76736F",
"k.	c #787570",
"l.	c #817E7C",
"m.	c #85827F",
"n.	c #84817E",
"o.	c #827F7C",
"p.	c #7F7C79",
"q.	c #7F7B78",
"r.	c #E0DFDE",
"s.	c #DDDBD9",
"t.	c #7E7A77",
"u.	c #85827E",
"v.	c #918E8A",
"w.	c #878481",
"x.	c #DEDEDC",
"y.	c #E2E0E0",
"z.	c #7A7874",
"A.	c #696662",
"B.	c #6E6B67",
"C.	c #74716D",
"D.	c #77736F",
"E.	c #787571",
"F.	c #858380",
"G.	c #888582",
"H.	c #888583",
"I.	c #A7A5A2",
"J.	c #D1D1D0",
"K.	c #E2E1E0",
"L.	c #DBDBD8",
"M.	c #898683",
"N.	c #8A8785",
"O.	c #868481",
"P.	c #868380",
"Q.	c #83807D",
"R.	c #817E7A",
"S.	c #706D69",
"T.	c #6D6A66",
"U.	c #D2D1CF",
"V.	c #DCDBDA",
"W.	c #716E6A",
"X.	c #726F6B",
"Y.	c #77746F",
"Z.	c #75716D",
"`.	c #706D68",
" +	c #6F6B67",
".+	c #6E6B66",
"++	c #6C6965",
"@+	c #908E8B",
"#+	c #C5C3C1",
"$+	c #D5D4D3",
"%+	c #CBCAC9",
"&+	c #807D7A",
"*+	c #6B6864",
"=+	c #706C68",
"-+	c #CCCBC9",
";+	c #D7D5D4",
">+	c #C5C4C2",
",+	c #92908D",
"'+	c #6F6C68",
")+	c #75726D",
"!+	c #736F6C",
"~+	c #6E6B68",
"{+	c #6E6A68",
"]+	c #686361",
"^+	c #676460",
"/+	c #CAC9C7",
"(+	c #C9C8C6",
"_+	c #676260",
":+	c #716D6A",
"<+	c #6C6966",
"[+	c #6A6664",
"}+	c #D2D2D0",
"|+	c #686562",
"1+	c #6E6C68",
"2+	c #6A6864",
"3+	c #686662",
"4+	c #8F8E8B",
"5+	c #6D6967",
"6+	c #676360",
"7+	c #C6C4C3",
"8+	c #676562",
"9+	c #666460",
"0+	c #65635F",
"a+	c #807E7B",
"b+	c #BFBDBB",
"c+	c #6F6D69",
"d+	c #686561",
"e+	c #64625E",
"f+	c #64625F",
"g+	c #666360",
"h+	c #666461",
"i+	c #787673",
"j+	c #BAB8B6",
"k+	c #787674",
"l+	c #6A6764",
"m+	c #6B6966",
"n+	c #6C6A66",
"o+	c #6C6A67",
"p+	c #6B6866",
"q+	c #797674",
"r+	c #BAB9B7",
"s+	c #787573",
"t+	c #676461",
"u+	c #65625F",
"v+	c #62605C",
"w+	c #63605D",
"x+	c #696663",
"y+	c #B5B3B2",
"z+	c #8F8D8A",
"A+	c #666462",
"B+	c #6E6C6A",
"C+	c #706C69",
"D+	c #6F6C69",
"E+	c #686461",
"F+	c #B5B4B2",
"G+	c #6D6A68",
"H+	c #6A6865",
"I+	c #696764",
"J+	c #656260",
"K+	c #63615E",
"L+	c #615E5B",
"M+	c #625F5C",
"N+	c #63625F",
"O+	c #65645F",
"P+	c #696763",
"Q+	c #6B6865",
"R+	c #6D6B68",
"S+	c #A2A19F",
"T+	c #AFAEAC",
"U+	c #AFAEAD",
"V+	c #AEADAB",
"W+	c #6F6C6A",
"X+	c #72716D",
"Y+	c #73716E",
"Z+	c #72716E",
"`+	c #A3A19F",
" @	c #6B6965",
".@	c #676662",
"+@	c #615F5B",
"@@	c #62605B",
"#@	c #62605D",
"$@	c #686663",
"%@	c #6E6D69",
"&@	c #706E6B",
"*@	c #716E6B",
"=@	c #858381",
"-@	c #908E8C",
";@	c #9A9896",
">@	c #777472",
",@	c #777572",
"'@	c #777571",
")@	c #73716F",
"!@	c #9A9996",
"~@	c #716E6C",
"{@	c #676561",
"]@	c #605D5A",
"^@	c #656360",
"/@	c #676663",
"(@	c #6B6A66",
"_@	c #6D6C69",
":@	c #6F6E6B",
"<@	c #726F6D",
"[@	c #757270",
"}@	c #767471",
"|@	c #777573",
"1@	c #787676",
"2@	c #7A7976",
"3@	c #7B7976",
"4@	c #7B7975",
"5@	c #787776",
"6@	c #757370",
"7@	c #74716F",
"8@	c #72706D",
"9@	c #716D6B",
"0@	c #5D5A57",
"a@	c #656460",
"b@	c #6E6C69",
"c@	c #706E6C",
"d@	c #726F6E",
"e@	c #757371",
"f@	c #797774",
"g@	c #7A7876",
"h@	c #7C7A77",
"i@	c #7C7A79",
"j@	c #7E7C79",
"k@	c #7F7D7B",
"l@	c #7E7D7A",
"m@	c #7D7B7A",
"n@	c #7D7B79",
"o@	c #7C7A78",
"p@	c #797775",
"q@	c #767472",
"r@	c #74726F",
"s@	c #73716D",
"t@	c #666561",
"u@	c #5B5855",
"v@	c #666562",
"w@	c #6A6866",
"x@	c #6D6B69",
"y@	c #71706E",
"z@	c #747270",
"A@	c #767572",
"B@	c #7B7876",
"C@	c #7E7B79",
"D@	c #827F7E",
"E@	c #82817E",
"F@	c #83807E",
"G@	c #83807F",
"H@	c #83817E",
"I@	c #81807E",
"J@	c #817F7D",
"K@	c #7E7C7A",
"L@	c #7D7B78",
"M@	c #797675",
"N@	c #777473",
"O@	c #6B6967",
"P@	c #696664",
"Q@	c #676563",
"R@	c #5B5954",
"S@	c #686865",
"T@	c #6B6A67",
"U@	c #716F6C",
"V@	c #73726F",
"W@	c #787774",
"X@	c #7B7877",
"Y@	c #7D7C79",
"Z@	c #7E7E7B",
"`@	c #80807D",
" #	c #848380",
".#	c #858481",
"+#	c #868483",
"@#	c #868683",
"##	c #878582",
"$#	c #868482",
"%#	c #848381",
"&#	c #83817F",
"*#	c #81807D",
"=#	c #807D7B",
"-#	c #7B7A77",
";#	c #71706D",
">#	c #6F6D6A",
",#	c #6C6A68",
"'#	c #696865",
")#	c #5B5956",
"!#	c #605E5C",
"~#	c #757471",
"{#	c #7A7977",
"]#	c #807E7C",
"^#	c #82817F",
"/#	c #868583",
"(#	c #888785",
"_#	c #898886",
":#	c #8A8987",
"<#	c #8A8886",
"[#	c #878583",
"}#	c #807F7D",
"|#	c #686764",
"1#	c #706F6C",
"2#	c #62605E",
"3#	c #585755",
"4#	c #5F5E5C",
"5#	c #646260",
"6#	c #676564",
"7#	c #6D6C6A",
"8#	c #706E6D",
"9#	c #737270",
"0#	c #767573",
"a#	c #797876",
"b#	c #7E7D7C",
"c#	c #82807F",
"d#	c #848281",
"e#	c #878685",
"f#	c #868584",
"g#	c #848382",
"h#	c #807E7D",
"i#	c #767574",
"j#	c #747371",
"k#	c #70706E",
"l#	c #6E6C6B",
"m#	c #6A6968",
"n#	c #676664",
"o#	c #646361",
"p#	c #605F5D",
"q#	c #7A7978",
"r#	c #646362",
"s#	c #605F5C",
"t#	c #605F5E",
"u#	c #686765",
"v#	c #6C6B6A",
"w#	c #706F6D",
"x#	c #777674",
"y#	c #7B7A79",
"z#	c #7F7F7C",
"A#	c #838280",
"B#	c #8A8988",
"C#	c #8D8C8B",
"D#	c #8A8A89",
"E#	c #747372",
"F#	c #6D6C6B",
"G#	c #686866",
"H#	c #656462",
"I#	c #61605F",
"J#	c #605E5D",
"K#	c #636262",
"L#	c #807E7E",
"M#	c #7C7B7A",
"N#	c #535352",
"O#	c #41403F",
"P#	c #2D2B29",
"Q#	c #262524",
"R#	c #262523",
"S#	c #252423",
"T#	c #242322",
"U#	c #232221",
"V#	c #232220",
"W#	c #222120",
"X#	c #222220",
"Y#	c #2A2827",
"Z#	c #3B3939",
"`#	c #4F4E4D",
"                                                                                                ",
"                                                                                                ",
"                                                                                                ",
"                                                                                                ",
"                                                                                                ",
"                                                                                                ",
"                . + @ # # # # # # # # # # # # # # # # # # # # # # # # # # $ % &                 ",
"              * = - ; > > > > , ' ' ' ' ) ! ! ! ! ! ! ~ ~ ~ { { { { { { { ' ] ^ *               ",
"            / ( _ : < < < < < < < < < < < < < < < < < < < < < < < < < < < < [ _ } |             ",
"            1 2 3 4 4 4 4 4 4 4 4 4 4 4 4 4 4 4 4 4 4 4 4 4 4 4 4 4 4 4 4 4 4 3 5 6             ",
"            7 8 9 0 0 0 0 0 0 0 0 0 0 0 0 0 0 0 0 0 0 0 0 0 0 0 0 0 0 0 0 0 0 9 a b             ",
"            c d e e e e e e e e e e e e e e e e e e e e e e e e e e e e e e e f g h             ",
"            i j k k k k k k k k k k k k k k k k k k k k k k k k k k k k k k k l m n             ",
"            o p q q q q q q q q q r s t u s q q q q s u t s r q q q q q q q q q v w             ",
"            x y z z z z z z z z A B C D E F z z z z F E D C B A z z z z z z z z j G             ",
"            H I J J J J J J J J K L L L L M J J J J M L L L L K J J J J J J J J N O             ",
"            P Q K K K K K K K R S L : T U R K K K K R U T : L S R K K K K K K V W X             ",
"            Y Z ` ` ` ` ` ` `  ...L +.@.` ` ` ` ` ` ` ` @.+.L .. .` ` ` ` ` ` #.F $.            ",
"            %.&.*.*.*.*.*.*.*.=.-.L ;.*.*.*.*.*.*.*.*.*.*.;.L -.=.*.*.*.*.*.*.*.M >.            ",
"            ,.'.).).).).).).).!.e ~.{.).).).).).).).).).).{.~.e !.).).).).].^./.(.,.            ",
"            _.:.<.<.<.<.<.<.<.[.}.|.1.<.<.<.<.<.<.<.<.<.<.1.|.}.[.<.<.2.{.^.3.4.5.6.            ",
"            7.8.9.9.9.9.9.9.9.0.a.b.c.9.9.9.9.9.9.9.9.9.9.d.b.e e.&.f.g.7.h.i.j.j._.            ",
"            k.l.m.m.m.m.n.o.p.q.r.s.t.u.m.m.m.m.n.n.n.m.v.w.x.y.z.A.B.4.C.C.C.C.C.7.            ",
"            D.E.%.F.w.G.H.I.J.K.L.*.M.N.M.G.O.P.m.Q.R.$.S.T.u.U.V.8 ^.W.X.X.X.X.X.Y.            ",
"            Z.`. +B..+T.++@+#+$+%+&+*+T.T.T.B.B.B.=+=+`.S.B.o.-+;+>+,+'+S.S.S.S.S.)+            ",
"            !+~+~+~+~+~+{+*+]+^+/+(+_+~+~+~+~+~+~+~+~+~+~+_+(+/+^+]+*+{+~+~+~+~+~+!+            ",
"            :+<+<+<+<+<+<+<+<+[+Z }+|+<+<+<+<+<+<+<+<+<+<+|+}+Z [+<+<+<+<+<+<+<+<+:+            ",
"            1+2+2+2+2+2+2+2+2+3+4+-+5+2+2+2+2+2+2+2+2+2+2+5+-+4+3+2+2+2+2+2+2+2+2+1+            ",
"            <+|+|+|+|+|+|+|+|+6+3.7+<+|+|+|+|+|+|+|+|+|+8+<+7+3.6+|+|+|+|+|+|+|+|+<+            ",
"            2+9+9+9+9+9+9+9+9+0+a+b+c+9+d+|+|+3+3+3+|+d+^+c+b+a+0+9+9+9+9+9+9+9+9+2+            ",
"            3+e+e+e+e+e+f+0+g+h+i+j+k+l+m+m+n+o+o+n+m+p+l+q+r+s+t+h+0+u+e+e+e+e+e+3+            ",
"            9+v+v+v+w+u+^+|+x+2+{+y+z+A+l+B+C+D+c+C+B+l+E+4+F+G+H+I+3+t+J+K+w+v+v+9+            ",
"            e+L+M+N+O+d+P+Q+n+R+H+S+T+U+V+W+X+Y+Y+Z+W+V+U+U+`+Q+~+o+ @l+.@h+f+v++@e+            ",
"            @@#@f+^+$@2+<+R+%@&@*@&@=@-@;@Y+>@,@,@'@)@!@-@=@&@~@*@W+R+o+Q+$@{@0+w+@@            ",
"            ]@f+^@/@H+(@_@:@<@Y+[@}@}@,@|@1@2@3@3@4@5@s+|@}@}@6@7@8@9@W+G+m+x+h+f+]@            ",
"            0@a@8+2+m+b@c@d@7@e@s+f@g@h@i@j@j@k@k@l@m@n@o@3@p@i+q@r@s@~@B+R+H+3+t@0@            ",
"            u@v@$@w@x@&@y@z@A@f@B@o@C@k@l.D@E@F@G@H@I@J@k@K@L@2@M@N@e@s@c@x@O@P@Q@u@            ",
"            R@S@I+T@B+U@V@q@W@X@Y@Z@`@H@ #.#+#@#@###$#%#&#*#=#j@-#W@A@z@;#>#,#'#m+)#            ",
"            !#B+$@m+_@c@)@~#W@{#Y@]#^#%#/#(#_#:#:#<#(#[#=@&#}#K@-#p@A@V@U@B+m+|#1#^@            ",
"            2#I@3#4#5#6#w@7#8#9#0#a#i@b#c#d#/#e#e#f#g#c#h#m@a#i#j#k#l#m#n#o#p#3#+#Q@            ",
"              q#&#r#s#t#r#u#v#w#j#x#y#z#A#f#B#C#C#D#e#%#}#y#5@E#k#F#G#H#I#J#K#L#M#              ",
"                N#O#P#Q#R#S#S#S#T#T#T#T#U#U#V#W#W#X#U#U#T#T#T#T#S#S#S#S#Q#Y#Z#`#                ",
"                                                                                                ",
"                                                                                                ",
"                                                                                                ",
"                                                                                                ",
"                                                                                                ",
"                                                                                                "};
