/* XPM */
static char * remmina_xpm[] = {
"48 48 865 2",
"  	c None",
". 	c #B4B7B0",
"+ 	c #B4B6B0",
"@ 	c #6EA33B",
"# 	c #8BAA6C",
"$ 	c #AFB3AB",
"% 	c #AFB2AB",
"& 	c #AEB1AA",
"* 	c #ADB0A9",
"= 	c #ACAEA8",
"- 	c #AAADA7",
"; 	c #A9ACA6",
"> 	c #A8ABA4",
", 	c #A7AAA3",
"' 	c #A6A8A2",
") 	c #A4A6A1",
"! 	c #A2A5A0",
"~ 	c #A1A49F",
"{ 	c #A1A39D",
"] 	c #A0A29C",
"^ 	c #9FA19B",
"/ 	c #9DA09A",
"( 	c #9C9F99",
"_ 	c #9A9D97",
": 	c #999C96",
"< 	c #989A94",
"[ 	c #979993",
"} 	c #959892",
"| 	c #949791",
"1 	c #939690",
"2 	c #92958F",
"3 	c #91938E",
"4 	c #90928C",
"5 	c #8E918B",
"6 	c #8D908A",
"7 	c #8B8E88",
"8 	c #8A8C87",
"9 	c #898B86",
"0 	c #888A85",
"a 	c #868983",
"b 	c #858882",
"c 	c #848681",
"d 	c #838580",
"e 	c #828480",
"f 	c #838480",
"g 	c #B3B6AF",
"h 	c #EFEFEF",
"i 	c #F4F4F3",
"j 	c #4E9A06",
"k 	c #76B33B",
"l 	c #75B03C",
"m 	c #DDE8D2",
"n 	c #F6F7F6",
"o 	c #F7F7F6",
"p 	c #F8F8F7",
"q 	c #F9F9F8",
"r 	c #F8F8F8",
"s 	c #F6F6F6",
"t 	c #F5F6F4",
"u 	c #F3F3F2",
"v 	c #F1F2F0",
"w 	c #F0F1F0",
"x 	c #F0F0EE",
"y 	c #EEEEEC",
"z 	c #ECEDEA",
"A 	c #EAEBE9",
"B 	c #E9EAE7",
"C 	c #E7E8E5",
"D 	c #E5E6E4",
"E 	c #E4E4E2",
"F 	c #E2E3E0",
"G 	c #DFE1DE",
"H 	c #DDDFDB",
"I 	c #DBDCD9",
"J 	c #D9DBD6",
"K 	c #D6D9D3",
"L 	c #D4D6D1",
"M 	c #D2D3CF",
"N 	c #CFD1CC",
"O 	c #CDCFCA",
"P 	c #CCCEC8",
"Q 	c #CBCDC7",
"R 	c #CACCC7",
"S 	c #C2C5BF",
"T 	c #7F817C",
"U 	c #B2B5AE",
"V 	c #D2D5D3",
"W 	c #D3EDBA",
"X 	c #A6D27C",
"Y 	c #5AA119",
"Z 	c #96BC73",
"` 	c #DCDFDB",
" .	c #E0E1E1",
"..	c #E2E3E3",
"+.	c #E4E5E4",
"@.	c #E5E6E6",
"#.	c #E3E5E4",
"$.	c #DEDFDF",
"%.	c #DCDEDD",
"&.	c #DADCDB",
"*.	c #D8DAD8",
"=.	c #D6D8D6",
"-.	c #D4D6D4",
";.	c #D2D4D2",
">.	c #D0D3D0",
",.	c #CED1CE",
"'.	c #CCCFCC",
").	c #CACDCB",
"!.	c #C9CBC9",
"~.	c #C7CAC7",
"{.	c #C5C8C5",
"].	c #C4C7C3",
"^.	c #C2C5C1",
"/.	c #C0C3BF",
"(.	c #BEC1BD",
"_.	c #BCBFBB",
":.	c #BABDB9",
"<.	c #B8BBB7",
"[.	c #B6BAB5",
"}.	c #B4B8B3",
"|.	c #CACDC7",
"1.	c #7D7F7A",
"2.	c #B0B3AD",
"3.	c #2F471D",
"4.	c #B8D6A9",
"5.	c #97C481",
"6.	c #AED19A",
"7.	c #6DAB3F",
"8.	c #478D13",
"9.	c #1B474A",
"0.	c #334B21",
"a.	c #334A20",
"b.	c #324A20",
"c.	c #CED0CB",
"d.	c #7C7E79",
"e.	c #F3F4F2",
"f.	c #B8DBAD",
"g.	c #64B04C",
"h.	c #79BA66",
"i.	c #AED5A1",
"j.	c #99C77F",
"k.	c #589E1C",
"l.	c #3E8041",
"m.	c #58763E",
"n.	c #587B3F",
"o.	c #597B3D",
"p.	c #567A3C",
"q.	c #6B8A54",
"r.	c #6A8953",
"s.	c #698852",
"t.	c #67874F",
"u.	c #65854D",
"v.	c #64844C",
"w.	c #62824A",
"x.	c #5A7D41",
"y.	c #517636",
"z.	c #507535",
"A.	c #5B7E42",
"B.	c #789563",
"C.	c #789462",
"D.	c #779361",
"E.	c #769361",
"F.	c #75915F",
"G.	c #73915D",
"H.	c #728F5D",
"I.	c #718F5B",
"J.	c #718E5A",
"K.	c #D1D3CE",
"L.	c #7A7D78",
"M.	c #F2F3F1",
"N.	c #B4D8A8",
"O.	c #63AE4B",
"P.	c #63AE4A",
"Q.	c #66AE4E",
"R.	c #8FC47E",
"S.	c #B0D6A2",
"T.	c #7AB354",
"U.	c #4C9513",
"V.	c #54783A",
"W.	c #55793B",
"X.	c #5C7D43",
"Y.	c #6F8D59",
"Z.	c #6D8B57",
"`.	c #6D8C56",
" +	c #6F8C58",
".+	c #759260",
"++	c #74905E",
"@+	c #D4D6D2",
"#+	c #797B76",
"$+	c #ADAFA9",
"%+	c #F1F2F1",
"&+	c #B1D7A5",
"*+	c #63AD4A",
"=+	c #61AC4A",
"-+	c #60AC4A",
";+	c #6FB45B",
">+	c #A3CD96",
",+	c #9ECA89",
"'+	c #5DA127",
")+	c #418631",
"!+	c #678650",
"~+	c #66864E",
"{+	c #5F8046",
"]+	c #4F7434",
"^+	c #D7D9D5",
"/+	c #787A75",
"(+	c #ABAEA8",
"_+	c #F0F1EF",
":+	c #ADD4A1",
"<+	c #60AB49",
"[+	c #60AA49",
"}+	c #82BD71",
"|+	c #ACD29F",
"1+	c #81B85F",
"2+	c #4F9912",
"3+	c #56783A",
"4+	c #537739",
"5+	c #507333",
"6+	c #6C8B55",
"7+	c #DADCD9",
"8+	c #777974",
"9+	c #AAADA6",
"0+	c #EEEFED",
"a+	c #AAD39E",
"b+	c #60AA48",
"c+	c #5FAA48",
"d+	c #5EA848",
"e+	c #5DA848",
"f+	c #66AD52",
"g+	c #98C78A",
"h+	c #A2CB90",
"i+	c #63A634",
"j+	c #458D24",
"k+	c #688850",
"l+	c #597C40",
"m+	c #DEE0DC",
"n+	c #757873",
"o+	c #A9ACA5",
"p+	c #EDEDEB",
"q+	c #A7D09B",
"r+	c #5DA747",
"s+	c #5DA647",
"t+	c #5DA646",
"u+	c #5CA646",
"v+	c #77B565",
"w+	c #A5CE99",
"x+	c #88BD6C",
"y+	c #529D16",
"z+	c #6A8652",
"A+	c #63834B",
"B+	c #4F7232",
"C+	c #E1E2DF",
"D+	c #747671",
"E+	c #A8AAA4",
"F+	c #EBEBE9",
"G+	c #A3CE96",
"H+	c #5DA748",
"I+	c #60A84B",
"J+	c #5BA645",
"K+	c #5AA545",
"L+	c #5EA64B",
"M+	c #8ABE7C",
"N+	c #A3CC94",
"O+	c #6DAA42",
"P+	c #4C951A",
"Q+	c #4D7331",
"R+	c #E4E5E2",
"S+	c #737570",
"T+	c #A6A9A3",
"U+	c #A0CC93",
"V+	c #74B362",
"W+	c #69AD54",
"X+	c #5BA546",
"Y+	c #5AA445",
"Z+	c #59A445",
"`+	c #59A344",
" @	c #6BAD5A",
".@	c #A0CB92",
"+@	c #92C378",
"@@	c #589F1E",
"#@	c #657D4B",
"$@	c #64854B",
"%@	c #587C3E",
"&@	c #527535",
"*@	c #517434",
"=@	c #66854D",
"-@	c #628349",
";@	c #618248",
">@	c #72746F",
",@	c #A5A8A1",
"'@	c #E6E7E5",
")@	c #9CCA90",
"!@	c #5CA647",
"~@	c #5CA746",
"{@	c #7AB669",
"]@	c #6FAE51",
"^@	c #76B464",
"/@	c #62A94F",
"(@	c #59A345",
"_@	c #62AB4B",
":@	c #86BC73",
"<@	c #A5CD95",
"[@	c #76B050",
"}@	c #4E9713",
"|@	c #547939",
"1@	c #557A3A",
"2@	c #547737",
"3@	c #5C7F43",
"4@	c #698850",
"5@	c #63844A",
"6@	c #628248",
"7@	c #5E8145",
"8@	c #5D8044",
"9@	c #EAEBE8",
"0@	c #70736E",
"a@	c #A4A7A0",
"b@	c #E5E5E3",
"c@	c #9AC88C",
"d@	c #5CA547",
"e@	c #7EB86E",
"f@	c #5FA330",
"g@	c #7DB76A",
"h@	c #72B261",
"i@	c #5DA649",
"j@	c #5CA546",
"k@	c #61A947",
"l@	c #60A747",
"m@	c #6BAE54",
"n@	c #98C689",
"o@	c #96C481",
"p@	c #5CA026",
"q@	c #43892E",
"r@	c #587D3D",
"s@	c #577C3C",
"t@	c #698A50",
"u@	c #68894F",
"v@	c #66874D",
"w@	c #65854B",
"x@	c #64844A",
"y@	c #618448",
"z@	c #608147",
"A@	c #ECEDEB",
"B@	c #6F716D",
"C@	c #A3A59F",
"D@	c #98C789",
"E@	c #5CA747",
"F@	c #84BC74",
"G@	c #65894B",
"H@	c #519A13",
"I@	c #72B151",
"J@	c #83BB74",
"K@	c #69AC55",
"L@	c #5BA445",
"M@	c #5EA647",
"N@	c #60A848",
"O@	c #60A748",
"P@	c #5FA748",
"Q@	c #5EA648",
"R@	c #7BB569",
"S@	c #9EC993",
"T@	c #7AB35A",
"U@	c #4E9811",
"V@	c #63864A",
"W@	c #6B8B53",
"X@	c #6B8C52",
"Y@	c #6A8B51",
"Z@	c #69894F",
"`@	c #68884E",
" #	c #67884E",
".#	c #65884C",
"+#	c #65864C",
"@#	c #638448",
"##	c #618147",
"$#	c #5F8246",
"%#	c #597D3F",
"&#	c #6E706B",
"*#	c #A1A49E",
"=#	c #E0E0DD",
"-#	c #95C586",
";#	c #88BE79",
">#	c #4A9122",
",#	c #5DA22C",
"'#	c #85BC71",
")#	c #7EB86F",
"!#	c #65AA4F",
"~#	c #60A749",
"{#	c #5FA648",
"]#	c #5BA345",
"^#	c #5FA54C",
"/#	c #89BD7C",
"(#	c #96C486",
"_#	c #63A434",
":#	c #4B9224",
"<#	c #6C8D53",
"[#	c #6B8B51",
"}#	c #698A4E",
"|#	c #67884C",
"1#	c #628549",
"2#	c #628347",
"3#	c #618246",
"4#	c #5C7E40",
"5#	c #6D6F6A",
"6#	c #A0A39D",
"7#	c #DDDFDA",
"8#	c #91C483",
"9#	c #5EA849",
"0#	c #5EA748",
"a#	c #5DA648",
"b#	c #8DC17E",
"c#	c #4F9A11",
"d#	c #74B150",
"e#	c #94C584",
"f#	c #77B464",
"g#	c #5EA547",
"h#	c #58A245",
"i#	c #57A145",
"j#	c #6DAD5D",
"k#	c #9AC68D",
"l#	c #85B965",
"m#	c #539C17",
"n#	c #6C8A52",
"o#	c #698C50",
"p#	c #688B4F",
"q#	c #66894D",
"r#	c #64874B",
"s#	c #5E8244",
"t#	c #5D8143",
"u#	c #5B7F41",
"v#	c #F1F1F0",
"w#	c #6B6E69",
"x#	c #9FA29B",
"y#	c #DADCD8",
"z#	c #8FC280",
"A#	c #5EA749",
"B#	c #92C383",
"C#	c #678A4E",
"D#	c #698D4F",
"E#	c #498F32",
"F#	c #5BA124",
"G#	c #8DC075",
"H#	c #90C180",
"I#	c #5CA447",
"J#	c #59A246",
"K#	c #59A145",
"L#	c #58A145",
"M#	c #5EA649",
"N#	c #83B972",
"O#	c #99C589",
"P#	c #6BA840",
"Q#	c #4C9619",
"R#	c #6A8D51",
"S#	c #688A4C",
"T#	c #638749",
"U#	c #648648",
"V#	c #628446",
"W#	c #F1F1F1",
"X#	c #6A6C68",
"Y#	c #9EA09A",
"Z#	c #8CC07C",
"`#	c #96C687",
" $	c #6D8E52",
".$	c #6E9052",
"+$	c #6C9052",
"@$	c #6F9054",
"#$	c #4F9814",
"$$	c #73B04B",
"%$	c #9EC98F",
"&$	c #80B870",
"*$	c #5CA349",
"=$	c #5AA246",
"-$	c #59A245",
";$	c #5AA346",
">$	c #69A957",
",$	c #91C084",
"'$	c #88BC6F",
")$	c #569D1D",
"!$	c #45893F",
"~$	c #6A834F",
"{$	c #66884A",
"]$	c #628648",
"^$	c #638646",
"/$	c #5F8345",
"($	c #5C8141",
"_$	c #696B66",
":$	c #DADBD7",
"<$	c #89BF7A",
"[$	c #9AC78E",
"}$	c #4F9A0D",
"|$	c #58A01A",
"1$	c #8EBF76",
"2$	c #9DC891",
"3$	c #6DAE5C",
"4$	c #59A146",
"5$	c #5BA347",
"6$	c #5AA147",
"7$	c #5AA146",
"8$	c #5AA145",
"9$	c #79B269",
"0$	c #95C388",
"a$	c #72AD4B",
"b$	c #4D9912",
"c$	c #6A8C4E",
"d$	c #668A4C",
"e$	c #658A4A",
"f$	c #658749",
"g$	c #628747",
"h$	c #5F8444",
"i$	c #5E8343",
"j$	c #5B8040",
"k$	c #EFF0EE",
"l$	c #686A65",
"m$	c #9B9E98",
"n$	c #DADAD6",
"o$	c #87BD76",
"p$	c #9FCB93",
"q$	c #9AC68A",
"r$	c #9AC88B",
"s$	c #9BC78B",
"t$	c #9DC88D",
"u$	c #9DC98F",
"v$	c #9EC990",
"w$	c #A2CC93",
"x$	c #A3CB94",
"y$	c #A4CC96",
"z$	c #A4CC97",
"A$	c #ACD1A3",
"B$	c #8CBE7E",
"C$	c #60A44C",
"D$	c #59A045",
"E$	c #58A045",
"F$	c #589F44",
"G$	c #60A34E",
"H$	c #87BB7A",
"I$	c #8ABB76",
"J$	c #5BA027",
"K$	c #687D4B",
"L$	c #658848",
"M$	c #618444",
"N$	c #5F8242",
"O$	c #5B813F",
"P$	c #EDEEEB",
"Q$	c #666864",
"R$	c #9A9C96",
"S$	c #D9DAD6",
"T$	c #84BB73",
"U$	c #5FA649",
"V$	c #64AB51",
"W$	c #65AA51",
"X$	c #65AB52",
"Y$	c #66AA52",
"Z$	c #65AB53",
"`$	c #66AB52",
" %	c #67AC53",
".%	c #67AB52",
"+%	c #66AB51",
"@%	c #66AA51",
"#%	c #64A851",
"$%	c #64A751",
"%%	c #64A750",
"&%	c #63A750",
"*%	c #5EA54B",
"=%	c #59A046",
"-%	c #58A046",
";%	c #579F44",
">%	c #569D43",
",%	c #569D44",
"'%	c #6DAA5E",
")%	c #91BF84",
"!%	c #75AF55",
"~%	c #4F9A12",
"{%	c #608545",
"]%	c #5E8442",
"^%	c #5C8240",
"/%	c #EBEBEA",
"(%	c #656763",
"_%	c #999B95",
":%	c #D8DAD6",
"<%	c #80BA70",
"[%	c #5FA749",
"}%	c #5EA74A",
"|%	c #5FA74A",
"1%	c #5EA64A",
"2%	c #5FA64A",
"3%	c #5DA44A",
"4%	c #5DA449",
"5%	c #5CA449",
"6%	c #58A146",
"7%	c #589F45",
"8%	c #579F45",
"9%	c #559C43",
"0%	c #539C42",
"a%	c #589D48",
"b%	c #7CB26F",
"c%	c #8ABA7A",
"d%	c #60A233",
"e%	c #499221",
"f%	c #628545",
"g%	c #5F8543",
"h%	c #5D8341",
"i%	c #E8E9E6",
"j%	c #646662",
"k%	c #979A94",
"l%	c #D8DAD5",
"m%	c #7EB86D",
"n%	c #5EA548",
"o%	c #5DA749",
"p%	c #5FA74B",
"q%	c #5FA74C",
"r%	c #61A84D",
"s%	c #62A94D",
"t%	c #64A94E",
"u%	c #64A94F",
"v%	c #65AA52",
"w%	c #66AB53",
"x%	c #66AA54",
"y%	c #67AB54",
"z%	c #68AB55",
"A%	c #68AB56",
"B%	c #69AA56",
"C%	c #69AA57",
"D%	c #69AB57",
"E%	c #68A956",
"F%	c #67A856",
"G%	c #66A755",
"H%	c #65A754",
"I%	c #64A554",
"J%	c #63A453",
"K%	c #63A353",
"L%	c #61A352",
"M%	c #71AA63",
"N%	c #92BF89",
"O%	c #7FB465",
"P%	c #628143",
"Q%	c #636560",
"R%	c #969993",
"S%	c #7BB568",
"T%	c #59A336",
"U%	c #59A236",
"V%	c #59A237",
"W%	c #5AA339",
"X%	c #61A74D",
"Y%	c #62A84E",
"Z%	c #5DA43B",
"`%	c #63A950",
" &	c #63A850",
".&	c #5EA43D",
"+&	c #64A952",
"@&	c #64A852",
"#&	c #5FA53D",
"$&	c #65A853",
"%&	c #66A954",
"&&	c #5FA440",
"*&	c #65A755",
"=&	c #65A855",
"-&	c #5FA33F",
";&	c #65A655",
">&	c #66A656",
",&	c #5FA23F",
"'&	c #64A355",
")&	c #62A355",
"!&	c #5CA03E",
"~&	c #63A255",
"{&	c #7FB375",
"]&	c #7FB462",
"^&	c #67A641",
"/&	c #4C9516",
"(&	c #E2E4E0",
"_&	c #61635F",
":&	c #959792",
"<&	c #D7D9D4",
"[&	c #77B466",
"}&	c #74B364",
"|&	c #69AC48",
"1&	c #76B365",
"2&	c #78B466",
"3&	c #6CAD4B",
"4&	c #7AB569",
"5&	c #6DAE4D",
"6&	c #7CB66C",
"7&	c #7DB66D",
"8&	c #70AE4F",
"9&	c #7FB96F",
"0&	c #7FB870",
"a&	c #72B050",
"b&	c #81B871",
"c&	c #81B972",
"d&	c #73B153",
"e&	c #84BB74",
"f&	c #85BB77",
"g&	c #75B155",
"h&	c #87BB79",
"i&	c #76B258",
"j&	c #89BC7C",
"k&	c #88BB7C",
"l&	c #78B15A",
"m&	c #8ABB7F",
"n&	c #8BBB80",
"o&	c #78B25C",
"p&	c #8CBC81",
"q&	c #8EBB83",
"r&	c #7BB25E",
"s&	c #8FBC84",
"t&	c #90BC85",
"u&	c #95BE8B",
"v&	c #82B56C",
"w&	c #549C1C",
"x&	c #387721",
"y&	c #D2DACA",
"z&	c #60625E",
"A&	c #949690",
"B&	c #D6D8D4",
"C&	c #4E9711",
"D&	c #509912",
"E&	c #509A12",
"F&	c #519B13",
"G&	c #529B13",
"H&	c #529B14",
"I&	c #529B15",
"J&	c #529C15",
"K&	c #539C15",
"L&	c #539C16",
"M&	c #539B16",
"N&	c #539A16",
"O&	c #529A16",
"P&	c #529A17",
"Q&	c #519A16",
"R&	c #509911",
"S&	c #7DB04B",
"T&	c #5F615D",
"U&	c #D6D7D4",
"V&	c #354721",
"W&	c #364523",
"X&	c #374523",
"Y&	c #384624",
"Z&	c #384824",
"`&	c #374624",
" *	c #374723",
".*	c #374622",
"+*	c #D4D8CD",
"@*	c #5D605B",
"#*	c #91948E",
"$*	c #D6D7D3",
"%*	c #CCCEC9",
"&*	c #D0D2CD",
"**	c #D4D5D0",
"=*	c #D5D7D2",
"-*	c #D7D8D4",
";*	c #DCDDD9",
">*	c #DDDEDA",
",*	c #DEDFDC",
"'*	c #E1E1DE",
")*	c #E2E2DF",
"!*	c #E2E3DF",
"~*	c #E0E1DE",
"{*	c #DFE0DD",
"]*	c #D3D5D0",
"^*	c #D2D3CE",
"/*	c #C8CBC5",
"(*	c #C7C9C3",
"_*	c #C5C7C1",
":*	c #C3C5BF",
"<*	c #C1C4BD",
"[*	c #BFC2BB",
"}*	c #BDC0B9",
"|*	c #5C5E5A",
"1*	c #90928D",
"2*	c #CDCFCB",
"3*	c #D5D6D2",
"4*	c #D8D9D5",
"5*	c #DCDDDA",
"6*	c #DDDEDB",
"7*	c #E4E5E1",
"8*	c #E5E5E2",
"9*	c #E5E5E4",
"0*	c #E5E6E5",
"a*	c #E3E4E0",
"b*	c #DADBD8",
"c*	c #D5D7D3",
"d*	c #D4D5D1",
"e*	c #D4D4D0",
"f*	c #939591",
"g*	c #5B5D59",
"h*	c #929491",
"i*	c #D1D4CF",
"j*	c #C7C8C5",
"k*	c #5D5E5B",
"l*	c #8E918C",
"m*	c #8C8F89",
"n*	c #8B8D88",
"o*	c #878A84",
"p*	c #858782",
"q*	c #81847F",
"r*	c #80837D",
"s*	c #7F827C",
"t*	c #7E807C",
"u*	c #7C7E7A",
"v*	c #7D7E7A",
"w*	c #7B7E79",
"x*	c #767873",
"y*	c #747772",
"z*	c #737671",
"A*	c #727470",
"B*	c #71736E",
"C*	c #70726D",
"D*	c #6E716C",
"E*	c #6D706B",
"F*	c #6C6E6A",
"G*	c #6B6D69",
"H*	c #6A6C67",
"I*	c #676A65",
"J*	c #636561",
"K*	c #565854",
"L*	c #7D7F7B",
"M*	c #5D5F5B",
"N*	c #5E605C",
"O*	c #555753",
"P*	c #555653",
"Q*	c #585A56",
"R*	c #575855",
"S*	c #898C86",
"T*	c #5C5F5A",
"U*	c #646762",
"V*	c #A2A59E",
"W*	c #A6A9A2",
"X*	c #6C706A",
"Y*	c #8D8F8A",
"Z*	c #CBCDC8",
"`*	c #D9DBD7",
" =	c #D2D4CF",
".=	c #B7B9B3",
"+=	c #C3C5C0",
"@=	c #FAFAF9",
"#=	c #FCFCFC",
"$=	c #FBFBFA",
"%=	c #FCFCFB",
"&=	c #D7D8D5",
"*=	c #B7B8B2",
"==	c #A4A8A1",
"-=	c #ABADAA",
";=	c #B8B9B7",
">=	c #C8C9C7",
",=	c #CCCCCB",
"'=	c #C3C4C2",
")=	c #C1C2C0",
"!=	c #C9CAC8",
"~=	c #CACBC9",
"{=	c #BCBDBA",
"]=	c #ADB0AC",
"^=	c #A2A59F",
"/=	c #A1A39E",
"(=	c #959791",
"_=	c #6F706C",
":=	c #A5A6A4",
"<=	c #E5E7E3",
"[=	c #D9DCD7",
"}=	c #CDD1CA",
"|=	c #CCCFC8",
"1=	c #D4D7D1",
"2=	c #E1E3DF",
"3=	c #D3D3D2",
"4=	c #737571",
"5=	c #2F2F2E",
"6=	c #50534F",
"7=	c #525450",
"8=	c #3E3F3D",
"                                                                                                ",
"                                                                                                ",
"                                                                                                ",
"                                                                                                ",
"                                                                                                ",
"    . + @ # $ % & * = - ; > , ' ) ! ~ { ] ^ / ( _ : < [ } | 1 2 3 4 5 6 7 8 9 0 a b c d e f     ",
"  g h i j k l m n o p p q q r p o s t i u v w x y z A B C D E F G H I J K L M N O P Q R R S T   ",
"  U i V j W X Y Z `  ...+.@.@.#... .$.%.&.*.=.-.;.>.,.'.).!.~.{.].^./.(._.:.<.[.}.}.}.}.}.|.1.  ",
"  2.i 3.j 4.5.6.7.8.9.0.0.0.0.0.0.0.0.0.0.0.0.0.0.0.a.a.b.b.b.b.b.b.0.0.0.0.0.0.0.0.0.0.3.c.d.  ",
"  % e.3.j f.g.h.i.j.k.l.m.n.o.o.p.p.p.p.p.q.r.s.t.u.v.w.x.y.y.z.z.A.B.C.D.E.F.F.G.H.I.J.3.K.L.  ",
"  & M.3.j N.O.P.Q.R.S.T.U.V.p.p.p.p.W.W.X.Y.Z.`.r.s.t.v.V.z.z.z.z. +E..+.+++++H.I.J.J.Y.3.@+#+  ",
"  $+%+3.j &+*+=+=+-+;+>+,+'+)+V.W.W.V.V.w. +`.q.s.!+~+{+z.z.z.]+A.G.G.H.H.I.J.J.Y.Y. + +3.^+/+  ",
"  (+_+3.j :+=+-+<+[+[+[+}+|+1+2+V.3+4+4+s.`.q.r.!+t.v.V.z.]+]+5+6+J.J.Y.Y.Y. + +`.`.6+6+3.7+8+  ",
"  9+0+3.j a+<+[+[+b+c+d+e+f+g+h+i+j+V.V.`.q.r.k+~+v.{+z.]+5+5+l+ +Z.Z.`.`.6+6+q.q.r.r.s.3.m+n+  ",
"  o+p+3.j q+[+b+c+d+e+r+s+t+u+v+w+x+y+~+z+r.!+t.v.A+W.]+5+B+5+!+q.r.r.r.r.s.s.k+k+!+t.~+3.C+D+  ",
"  E+F+3.j G+c+d+H+r+I+t+u+J+K+K+L+M+N+O+P+k+~+v.A+{+5+B+B+Q+n.k+k+k+!+t.t.~+~+u.u.v.v.A+3.R+S+  ",
"  T+B 3.j U+H+r+s+t+V+W+X+K+Y+Z+Y+`+ @.@+@@@~+#@$@%@y.&@*@z.=@~+~+v.v.v.v.A+A+w.w.-@-@;@3.C >@  ",
"  ,@'@3.j )@t+t+!@~@{@]@^@/@X+Y+Y+(@Z+_@:@<@[@}@|@1@|@|@2@3@4@t.t.=@u.$@5@6@;@{+{+7@8@8@3.9@0@  ",
"  a@b@3.j c@r+r+!@d@e@j f@g@h@i@Z+Y+j@k@l@m@n@o@p@q@|@r@s@4@t@4@u@v@v@w@x@-@y@z@7@3@3@l+3.A@B@  ",
"  C@F 3.j D@r+s+E@E@F@j G@H@I@J@K@L@M@N@O@P@Q@R@S@T@U@|@V@W@X@Y@Z@`@ #.#+#x@@###$#8@3@%#3.0+&#  ",
"  *#=#3.j -#H+H+H+s+;#j G@G@>#,#'#)#!#~#P@{#Q@]#^#/#(#_#:#k+<#[#Y@}#u@|#.#V@1#2#3#7@3@4#3._+5#  ",
"  6#7#3.j 8#9#0#a#s+b#j .#G@.#G@c#d#e#f#P@M@g#(@h#i#j#k#l#m#k+n#X@o#p#q#|#r#V@@#2#s#t#u#3.v#w#  ",
"  x#y#3.j z#A#0#H+H+B#j C#p#p#D#G@E#F#G#H#K@I#J#K#K#L#M#N#O#P#Q#k+R#o#}#S#r#T#U#V#s#t#u#3.W#X#  ",
"  Y#y#3.j Z#e+d+0#0#`#j  $ $.$+$@$G@G@#$$$%$&$*$=$-$=$;$=$>$,$'$)$!$~$p#C#G@{$]$^$/$s#($3.v#_$  ",
"  ( :$3.j <$0#0#0#M#[$j U@U@U@U@U@U@U@}$j |$1$2$3$4$5$6$7$8$7$9$0$a$b$k+c$d$e$f$g$h$i$j$3.k$l$  ",
"  m$n$3.j o$A#A#A#A#p$q$r$s$t$u$v$.@w$x$y$y$z$A$A$B$C$=$=$D$E$F$G$H$I$J$k+K$S#L$^$M$N$O$3.P$Q$  ",
"  R$S$3.j T$A#A#A#U$V$W$W$X$Y$Z$`$ %.%+%@%#%#%$%%%&%*%=$=%-%;%;%>%,%'%)%!%~%k+U#g${%]%^%3./%(%  ",
"  _%:%3.j <%A#[%A#M#[%}%|%}%1%2%~#|%|%1%1%3%4%5%5%5$6$6$4$6%7%8%,%9%0%a%b%c%d%e%k+f%g%h%3.i%j%  ",
"  k%l%3.j m%n%M#o%A#p%q%r%s%t%u%W$v%w%x%y%y%z%A%B%C%D%D%B%E%F%G%H%I%J%K%L%M%N%O%m#k+P%g%3.D Q%  ",
"  R%^+3.j S%a#T%M#i@U%1%[%V%|%L+W%X%Y%Z%`% &.&+&@&#&$&%&&&*&=&-&;&>&,&'&)&!&~&{&]&^&/&k+3.(&_&  ",
"  :&<&3.j [&}&|&1&2&3&4&R@5&6&7&8&9&0&a&b&c&d&e&f&g&h&h&i&j&k&l&m&n&o&p&q&r&s&t&]&u&v&w&x&y&z&  ",
"  A&B&3.C&D&E&E&E&E&F&F&G&G&H&H&I&I&J&J&J&K&K&K&K&K&K&L&L&L&I&I&I&M&M&M&N&N&O&P&P&Q&Q&R&j S&T&  ",
"  2 U&a.V&W&W&W&W&W&W&W&W&W&W&X&Y&Y&Y&Z&Z&Z&`&`&`& * *W&W&W&W&W&W&W&W&W&W&W&W&W&W&W&W&.*W&+*@*  ",
"  #*$*Q %*c.&*M **=*-*S$:$;*>*,*=#'*C+)*!*)*C+~*{*,*>*;*:$:%-*=*]*^*&*c.%*R /*(*_*:*<*[*}*B&|*  ",
"  1*2*3*B&4*S$y#5*6*H {*~*C+F 7*8*b@9*0*0*0*D 9*b@R+a*F ~*=#,*>*;*b*S$^+U&c*@+d*e*f*g*h*i*j*k*  ",
"    l*6 m*n*8 9 o*a p*c d q*r*s*t*u*v*w*L.#+/+8+x*y*z*A*B*C*D*E*F*G*H*_$I*Q$(%j%J*K*L*K*M*N*    ",
"                                  O*O*O*O*O*O*O*O*O*O*O*O*O*P*                                  ",
"                                  K*G*F*F*F*F*F*F*F*F*F*F*F*Q*                                  ",
"                                  R*a S*S*S*S*S*S*S*S*S*S*S*T*                                  ",
"                                  U*V*W*W*W*W*W*W*W*W*W*W*W*X*                                  ",
"                                  Y*Z*`*N N N N N N N N <& =:&                                  ",
"                                .=+=@=#=p p p p p p p p $=%=&=*=                                ",
"                        x#! ==-=;=>=,='=)=)=)=)=)=)=)=)=)=!=~={=]=) ^=/=(=                      ",
"                      _=:=w <=[=}=|=|=|=|=|=|=|=|=|=|=|=|=|=|=|=1=2=0+3=4=                      ",
"                      5=6=O*O*O*O*O*O*O*O*O*O*O*O*O*O*O*O*O*O*O*O*O*O*7=8=                      ",
"                                                                                                ",
"                                                                                                ",
"                                                                                                "};
