/* XPM */
static char * roxterm_xpm[] = {
"48 48 378 2",
"  	c None",
". 	c #040404",
"+ 	c #000000",
"@ 	c #030303",
"# 	c #6C6C6C",
"$ 	c #C7C7C7",
"% 	c #C8C8C8",
"& 	c #C9C9C9",
"* 	c #CACACA",
"= 	c #CBCBCB",
"- 	c #CCCCCC",
"; 	c #CDCDCD",
"> 	c #CECECE",
", 	c #CFCFCF",
"' 	c #D0D0D0",
") 	c #D1D1D1",
"! 	c #D2D2D2",
"~ 	c #D3D3D3",
"{ 	c #D4D4D4",
"] 	c #D5D5D5",
"^ 	c #C1C1C1",
"/ 	c #161616",
"( 	c #F9F9F9",
"_ 	c #F8F8F8",
": 	c #F7F7F7",
"< 	c #F6F6F6",
"[ 	c #F5F5F5",
"} 	c #F4F4F4",
"| 	c #F3F3F3",
"1 	c #F2F2F2",
"2 	c #F1F1F1",
"3 	c #F0F0F0",
"4 	c #777777",
"5 	c #0E0E0E",
"6 	c #EFEFEF",
"7 	c #878787",
"8 	c #AFB0B1",
"9 	c #969899",
"0 	c #989A9A",
"a 	c #9A9B9C",
"b 	c #9C9D9E",
"c 	c #9E9FA0",
"d 	c #9FA0A1",
"e 	c #A1A2A3",
"f 	c #A3A4A5",
"g 	c #A5A6A7",
"h 	c #A7A7A9",
"i 	c #A9A9AB",
"j 	c #AAABAC",
"k 	c #ABACAE",
"l 	c #AEAFB0",
"m 	c #AFB0B0",
"n 	c #B0B1B2",
"o 	c #B3B4B5",
"p 	c #B4B5B6",
"q 	c #B5B6B7",
"r 	c #B7B8B8",
"s 	c #B9BABB",
"t 	c #BABBBC",
"u 	c #BBBCBD",
"v 	c #BEBFBF",
"w 	c #BFC1C1",
"x 	c #C0C1C2",
"y 	c #C2C3C4",
"z 	c #C3C4C5",
"A 	c #C5C6C7",
"B 	c #C8C9C9",
"C 	c #CACBCC",
"D 	c #CCCCCD",
"E 	c #CCCDCE",
"F 	c #CECECF",
"G 	c #CFD0D1",
"H 	c #CFCFD0",
"I 	c #8A8A8A",
"J 	c #8E8F91",
"K 	c #060606",
"L 	c #0A0A0A",
"M 	c #0D0D0D",
"N 	c #111111",
"O 	c #151515",
"P 	c #191919",
"Q 	c #1C1C1C",
"R 	c #202020",
"S 	c #242424",
"T 	c #282828",
"U 	c #2C2C2C",
"V 	c #303030",
"W 	c #343434",
"X 	c #383838",
"Y 	c #3C3C3C",
"Z 	c #3E3E3E",
"` 	c #424242",
" .	c #464646",
"..	c #4A4A4A",
"+.	c #4E4E4E",
"@.	c #535353",
"#.	c #565656",
"$.	c #595959",
"%.	c #5D5D5D",
"&.	c #616161",
"*.	c #656565",
"=.	c #696969",
"-.	c #6D6D6D",
";.	c #707070",
">.	c #747474",
",.	c #7B7B7B",
"'.	c #808080",
").	c #848484",
"!.	c #B3B3B3",
"~.	c #E8E8E8",
"{.	c #8C8C8C",
"].	c #101010",
"^.	c #D6D6D6",
"/.	c #919294",
"(.	c #070707",
"_.	c #0B0B0B",
":.	c #0F0F0F",
"<.	c #131313",
"[.	c #222C37",
"}.	c #55A4FF",
"|.	c #2A3543",
"1.	c #262626",
"2.	c #2A2A2A",
"3.	c #2E2E2E",
"4.	c #313131",
"5.	c #353535",
"6.	c #393939",
"7.	c #3D3D3D",
"8.	c #414141",
"9.	c #454545",
"0.	c #484848",
"a.	c #4C4C4C",
"b.	c #505050",
"c.	c #545454",
"d.	c #585858",
"e.	c #5C5C5C",
"f.	c #606060",
"g.	c #636363",
"h.	c #676767",
"i.	c #6B6B6B",
"j.	c #6F6F6F",
"k.	c #737373",
"l.	c #7E7E7E",
"m.	c #828282",
"n.	c #868686",
"o.	c #B2B2B2",
"p.	c #E9E9E9",
"q.	c #EEEEEE",
"r.	c #8E8E8E",
"s.	c #D7D7D7",
"t.	c #959697",
"u.	c #121212",
"v.	c #253242",
"w.	c #2C3C4F",
"x.	c #292929",
"y.	c #2D2D2D",
"z.	c #404040",
"A.	c #444444",
"B.	c #5B5B5B",
"C.	c #5F5F5F",
"D.	c #767676",
"E.	c #7A7A7A",
"F.	c #909090",
"G.	c #D8D8D8",
"H.	c #98999B",
"I.	c #141719",
"J.	c #3E6EA7",
"K.	c #4F97EA",
"L.	c #5198EA",
"M.	c #37577B",
"N.	c #575757",
"O.	c #6E6E6E",
"P.	c #727272",
"Q.	c #858585",
"R.	c #B3B3B4",
"S.	c #EDEDED",
"T.	c #949494",
"U.	c #D9D9D9",
"V.	c #9B9C9E",
"W.	c #020202",
"X.	c #427ABB",
"Y.	c #3E6FA9",
"Z.	c #3B6493",
"`.	c #4D8FDC",
" +	c #2F3A47",
".+	c #4B4B4B",
"++	c #4F4F4F",
"@+	c #666666",
"#+	c #6A6A6A",
"$+	c #7D7D7D",
"%+	c #818181",
"&+	c #B4B5B5",
"*+	c #EAEAEA",
"=+	c #959595",
"-+	c #DADADA",
";+	c #9EA0A1",
">+	c #101113",
",+	c #519CF1",
"'+	c #365C88",
")+	c #2B3B4E",
"!+	c #375476",
"~+	c #2F3D4C",
"{+	c #434343",
"]+	c #474747",
"^+	c #5A5A5A",
"/+	c #5E5E5E",
"(+	c #626262",
"_+	c #4D4D4D",
":+	c #8D8E8E",
"<+	c #ECECEC",
"[+	c #979797",
"}+	c #141414",
"|+	c #DCDCDC",
"1+	c #A2A3A4",
"2+	c #090909",
"3+	c #16212D",
"4+	c #4F98EB",
"5+	c #4E95E5",
"6+	c #2E435C",
"7+	c #3B3B3B",
"8+	c #3F3F3F",
"9+	c #525252",
"0+	c #555555",
"a+	c #757676",
"b+	c #EBEBEB",
"c+	c #999999",
"d+	c #010101",
"e+	c #050505",
"f+	c #11161C",
"g+	c #427CBD",
"h+	c #54A3FE",
"i+	c #4C8CD7",
"j+	c #2D3742",
"k+	c #333333",
"l+	c #373737",
"m+	c #494949",
"n+	c #787979",
"o+	c #9D9D9D",
"p+	c #DDDDDD",
"q+	c #A9AAAB",
"r+	c #345D8C",
"s+	c #4887CE",
"t+	c #4E8FDB",
"u+	c #2B2B2B",
"v+	c #2F2F2F",
"w+	c #363636",
"x+	c #1E1E1E",
"y+	c #7A7B7B",
"z+	c #9E9E9E",
"A+	c #DEDEDE",
"B+	c #ACADAE",
"C+	c #080808",
"D+	c #0C0C0C",
"E+	c #121417",
"F+	c #2D4A6C",
"G+	c #355984",
"H+	c #4B8CD7",
"I+	c #539EF6",
"J+	c #2E343B",
"K+	c #1F1F1F",
"L+	c #7C7D7D",
"M+	c #9F9F9F",
"N+	c #DFDFDF",
"O+	c #4375B1",
"P+	c #529CF2",
"Q+	c #344150",
"R+	c #7E7F7F",
"S+	c #A2A2A2",
"T+	c #E0E0E0",
"U+	c #B4B4B5",
"V+	c #1E2935",
"W+	c #4E92E0",
"X+	c #324E6E",
"Y+	c #2F4259",
"Z+	c #4472A7",
"`+	c #4A86CB",
" @	c #1E2226",
".@	c #808081",
"+@	c #A6A6A6",
"@@	c #171717",
"#@	c #E1E1E1",
"$@	c #B7B8B9",
"%@	c #1B1B1B",
"&@	c #252D37",
"*@	c #4170A6",
"=@	c #4C8BD4",
"-@	c #539EF3",
";@	c #529CF1",
">@	c #4376B1",
",@	c #325278",
"'@	c #181818",
")@	c #1A1A1A",
"!@	c #828283",
"~@	c #A7A7A7",
"{@	c #E2E2E2",
"]@	c #222222",
"^@	c #252525",
"/@	c #2D2F31",
"(@	c #3C5573",
"_@	c #436791",
":@	c #395C84",
"<@	c #2E4259",
"[@	c #212121",
"}@	c #232323",
"|@	c #848485",
"1@	c #A8A8A8",
"2@	c #BDBEBE",
"3@	c #323232",
"4@	c #354252",
"5@	c #324255",
"6@	c #878788",
"7@	c #ABABAB",
"8@	c #E3E3E3",
"9@	c #37404A",
"0@	c #446B99",
"a@	c #38434F",
"b@	c #898A8A",
"c@	c #AEAEAE",
"d@	c #E4E4E4",
"e@	c #3F4245",
"f@	c #44576D",
"g@	c #8B8C8C",
"h@	c #AFAFAF",
"i@	c #E5E5E5",
"j@	c #C7C8C8",
"k@	c #494B4E",
"l@	c #4E75A1",
"m@	c #4D6D91",
"n@	c #4E6E92",
"o@	c #4E6F94",
"p@	c #4C5D71",
"q@	c #8C8D8D",
"r@	c #E6E6E6",
"s@	c #CBCCCC",
"t@	c #515151",
"u@	c #8D8D8E",
"v@	c #CECFD0",
"w@	c #B6B6B6",
"x@	c #E7E7E7",
"y@	c #D2D3D3",
"z@	c #646464",
"A@	c #686868",
"B@	c #B8B8B8",
"C@	c #1D1D1D",
"D@	c #D5D6D6",
"E@	c #717171",
"F@	c #B9B9B9",
"G@	c #787878",
"H@	c #797979",
"I@	c #7C7C7C",
"J@	c #BBBBBB",
"K@	c #DCDCDD",
"L@	c #8E8E8F",
"M@	c #BEBEBE",
"N@	c #DFE0E0",
"O@	c #989999",
"P@	c #BFBFBF",
"Q@	c #EAEAEB",
"R@	c #EDEDEE",
"S@	c #F3F4F4",
"T@	c #F6F7F7",
"U@	c #FAFAFA",
"V@	c #FCFCFC",
"W@	c #FDFDFE",
"X@	c #FEFEFE",
"Y@	c #FFFFFF",
"Z@	c #C3C3C3",
"`@	c #C6C6C6",
" #	c #B7B7B7",
".#	c #A5A5A5",
"+#	c #8F8F8F",
"@#	c #939393",
"##	c #969696",
"$#	c #ADADAD",
"%#	c #BCBCBC",
"&#	c #BABABA",
"*#	c #BDBDBD",
"=#	c #C0C0C0",
"                                                                                                ",
"    . + + + + + + + + + + + + + + + + + + + + + + + + + + + + + + + + + + + + + + + + + + + @   ",
"  @ # $ % % & & & & * * = - - - - - ; ; > > > > > , ' ' ) ) ' ) ! ! ! ! ! ~ { { ] ] ] ] ] ^ /   ",
"  . { ( ( ( _ _ _ _ : : : : : < < < < [ [ [ [ [ } } } } | | | | 1 1 1 1 1 2 2 2 2 3 3 3 3 [ 4 + ",
"  5 { ( _ _ _ ( ( _ _ _ _ : : : : : < < < < [ [ [ [ } } } } } | | | | 1 1 1 1 1 1 1 1 2 6 | 7 + ",
"  5 ] _ ( 8 9 0 a b c d e f g h i j k l m n o p q r s t u v w x y z A $ B C D E F G H 3 6 | I + ",
"  5 ] _ ( J K L M N O P Q R S T U V W X Y Z `  ...+.@.#.$.%.&.*.=.-.;.>.4 ,.'.).7 I !.~.6 1 {.+ ",
"  ].^.: _ /.+ @ (._.:.<./ [.}.|.1.2.3.4.5.6.7.8.9.0.a.b.c.d.e.f.g.h.i.j.k.4 ,.l.m.n.o.p.q.1 r.+ ",
"  ].s.: _ t.+ @ (._.5 u./ v.}.w.1.x.y.4.5.6.7.z.A.0.a.b.c.d.B.C.g.h.i.j.k.D.E.l.m.n.!.p.q.1 F.+ ",
"  u.G.: : H.+ @ K L 5 I.J.K.}.L.M.x.y.4.5.X Y z.A.0.a.b.@.N.B.C.g.h.i.O.P.D.E.l.m.Q.R.p.S.1 T.+ ",
"  u.U.< : V.+ W.K L 5 X.}.Y.}.Z.`. +y.V W X Y z.A.0..+++@.N.B.C.g.@+#+O.P.D.E.$+%+Q.&+*+S.1 =++ ",
"  u.-+< : ;++ W.K L >+,+}.'+}.)+!+~+U V W X Y z.{+]+.+++@.N.^+/+(+@+#+-.g.d._+` Y X :+*+<+1 [++ ",
"  }+|+[ < 1++ W.K 2+3+4+}.5+}.6+S T U V W X 7+8+{+]+.+++9+#.0+9.5.S }+@ + + + + + + a+b+<+1 c++ ",
"  }+|+[ < g + d+e+2+f+g+}.}.}.h+i+j+U V k+l+7+8+{+]+m+Y 1.N d++ + + + + + + + + + + n+*+<+2 o++ ",
"  }+p+} < q++ d+e+2+M r+s+}.}.}.}.t+u+v+k+l+7+8+w+x+2++ + + + + + + + + + + + + + + y+b+b+2 z++ ",
"  / A+} < B++ d+e+C+D+E+F+G+}.H+}.I+J+v+k+k+K+L + + + + + + + + + + + + + + + + + + L+b+b+2 M++ ",
"  / N+} [ n + d+e+2+M u./ v.}.O+}.P+Q+y.P K @ . . . . . . e+e+e+e+e+e+K K K K K K d+R+<+*+2 S++ ",
"  / T+| [ U++ C+:.<.V+W+X+Y+}.Z+}.`+ @5 M M M M 5 5 5 5 5 5 :.:.:.:.:.:.].].].].].W..@<+*+2 +@+ ",
"  @@#@| [ $@+ 5 P %@&@*@=@-@}.;@>@,@/ @@@@@@@@@@@@'@'@'@'@'@'@P P P P P P )@)@)@)@@ !@<+*+3 ~@+ ",
"  @@{@1 } t + }+]@^@x./@(@_@}.:@<@R R R [@[@[@[@[@[@]@]@]@]@]@]@}@}@}@}@}@}@S S S . |@S.*+2 1@+ ",
"  @@{@1 } 2@+ %@u+v+3@w+w+4@}.5@2.2.2.2.2.u+u+u+u+u+u+U U U U U U y.y.y.y.y.y.3.3.K 6@q.*+1 7@+ ",
"  P 8@1 | x + ]@W X 7+7+W 9@0@a@W W W W W W 5.5.5.5.5.5.w+w+w+w+w+w+l+l+l+l+l+l+X (.b@6 *+2 c@+ ",
"  P d@2 | z + x.Z 8.8+7.7.7.7.7.7.Z e@}.}.}.}.}.}.}.}.f@8+z.z.z.z.z.z.8.8.8.8.8.8.C+g@6 b+1 h@+ ",
"  P i@2 | j@+ V ]+]+ . .]+]+]+]+]+]+k@l@m@m@m@m@n@n@o@p@m+m+.............+.+.+.+.+2+q@3 <+1 o.+ ",
"  %@r@3 | s@+ l+b.b.b.b.b.t@t@t@t@t@t@9+9+9+9+9+9+@.@.@.@.@.@.c.c.c.c.c.c.0+0+0+0+L u@3 <+| !.+ ",
"  %@r@3 | v@+ 7.^+^+^+^+^+^+B.B.B.B.B.B.e.e.e.e.e.e.%.%.%.%.%.%./+/+/+/+/+/+C.C.C.D+u@3 <+| w@+ ",
"  %@x@3 1 y@+ A.g.z@z@z@z@z@z@*.*.*.*.*.*.@+@+@+@+@+@+h.h.h.h.h.h.A@A@A@A@A@A@=.=.M :+3 <+} B@+ ",
"  C@~.6 1 D@+ ..-.-.O.O.O.O.O.O.j.j.j.j.j.j.;.;.;.;.;.;.E@E@E@E@E@E@P.P.P.P.P.P.k.5 :+2 S.[ F@+ ",
"  C@p.6 2 U.+ t@4 4 4 G@G@G@G@G@G@H@H@H@H@H@H@E.E.E.E.E.E.,.,.,.,.,.,.I@I@I@I@I@I@:.r.2 q.[ J@+ ",
"  K+p.q.2 K@+ 3@m+m+m+m+.........................+.+.+.+.+.+a.a.a.a.a.a.a.a.a.a.a.2+L@2 q.< M@+ ",
"  K+*+q.2 N@O O O / / / / / / @@@@@@@@@@@@'@'@'@'@'@'@'@'@'@'@'@'@'@'@'@'@'@'@'@'@'@O@1 6 < P@+ ",
"  K+b+S.2 6 Q@<+R@6 3 2 | S@[ T@_ ( U@V@W@X@Y@Y@Y@Y@Y@Y@Y@Y@Y@Y@Y@Y@Y@Y@Y@Y@Y@Y@Y@Y@Y@: 3 : ^ + ",
"  [@<+S.S.6 q.q.q.q.q.S.S.S.S.S.S.S.q.S.S.q.q.q.q.q.6 6 q.6 6 6 6 6 3 3 2 3 2 2 1 2 1 2 3 : Z@+ ",
"  [@S.S.<+<+<+<+<+b+b+b+b+b+b+b+<+<+b+<+<+<+<+<+S.S.<+S.S.q.q.q.q.q.6 q.6 6 3 3 3 3 2 2 2 : `@+ ",
"  [@S.<+<+<+<+b+b+b+b+b+b+b+<+<+<+<+<+<+<+<+S.S.S.S.S.q.q.q.q.q.6 6 6 6 3 3 3 3 2 2 2 2 1 : $ + ",
"  D+1 <+<+b+b+b+<+b+b+b+<+<+<+<+<+S.<+<+S.S.S.S.S.q.q.q.q.6 6 6 6 6 3 3 3 3 2 2 1 2 1 1 | U@ #+ ",
"  W..#6 3 2 2 2 2 1 1 1 | | | } } } } } [ [ [ [ < < < < : : : : : _ _ _ _ ( ( ( ( ( U@U@U@3 u+  ",
"    . + + + + + + + + + + + + + + + + + + + + + + + + + + + + + + + + + + + + + + + + + + d+W.  ",
"                                  Q =.;.>.4 l.n.{.+#+#F.@###c.                                  ",
"                                  S '.c+$#B@%#%#%#%#%#%#J@&##+                                  ",
"                                  T B@% % % % % % % % % % & H@                                  ",
"                                ].I@{ { { { { { { ] ] ] ] ] *#^@e+                              ",
"                        _.7.k.c@s.T+T+T+T+#@#@#@#@#@#@#@#@#@#@N+Z@r.t@K+                        ",
"                        H@, ) ) ) ! ! ! ! ! ! ! ! ! ! ! ! ! ! ! ! ! ) =#)@                      ",
"                        . 2+2+2+L L L _._._.D+D+M M M 5 5 5 :.:.:.].].:.D+                      ",
"                                                                                                ",
"                                                                                                ",
"                                                                                                "};
