/* XPM */
static char * screenshoot_xpm[] = {
"48 48 588 2",
"  	c None",
". 	c #2C538C",
"+ 	c #2C548E",
"@ 	c #2E568E",
"# 	c #2E568F",
"$ 	c #2E578F",
"% 	c #2D548D",
"& 	c #93A6BB",
"* 	c #99ACBE",
"= 	c #96AABD",
"- 	c #96ABBE",
"; 	c #98ACC0",
"> 	c #98ADC2",
", 	c #99AEC3",
"' 	c #9AAFC4",
") 	c #9AB0C5",
"! 	c #9BB1C7",
"~ 	c #9CB2C9",
"{ 	c #9CB3CA",
"] 	c #9DB4CB",
"^ 	c #9EB5CC",
"/ 	c #9EB6CD",
"( 	c #9FB7CE",
"_ 	c #A0B8D0",
": 	c #A0B9D1",
"< 	c #A1B9D1",
"[ 	c #94A7BB",
"} 	c #2D548E",
"| 	c #99ABBD",
"1 	c #3A5F82",
"2 	c #3A6085",
"3 	c #3C6287",
"4 	c #3D648A",
"5 	c #3F668D",
"6 	c #40688F",
"7 	c #426A92",
"8 	c #436C95",
"9 	c #446E97",
"0 	c #46709A",
"a 	c #47729D",
"b 	c #49749F",
"c 	c #4A76A2",
"d 	c #4B78A4",
"e 	c #4D7AA7",
"f 	c #4E7CA9",
"g 	c #4F7DAC",
"h 	c #507FAD",
"i 	c #507FAE",
"j 	c #4B78A5",
"k 	c #B1C0D0",
"l 	c #9FB2C4",
"m 	c #9DB0C2",
"n 	c #9AACBE",
"o 	c #95A8BB",
"p 	c #395E82",
"q 	c #3B6085",
"r 	c #3C6288",
"s 	c #406890",
"t 	c #456F98",
"u 	c #46719B",
"v 	c #48739D",
"w 	c #4975A0",
"x 	c #4A77A3",
"y 	c #4C79A5",
"z 	c #4D7BA8",
"A 	c #4F7DAB",
"B 	c #5281B0",
"C 	c #5383B3",
"D 	c #9DB1C4",
"E 	c #FEFEFE",
"F 	c #8199B1",
"G 	c #95ABBF",
"H 	c #91A7BC",
"I 	c #9AADC0",
"J 	c #94A8BA",
"K 	c #395D81",
"L 	c #3A5F84",
"M 	c #3B6186",
"N 	c #3D6389",
"O 	c #3E658C",
"P 	c #40678E",
"Q 	c #416991",
"R 	c #426B93",
"S 	c #446D96",
"T 	c #4974A0",
"U 	c #4C79A6",
"V 	c #4E7BA9",
"W 	c #2D558E",
"X 	c #EAEBE9",
"Y 	c #D8D9D6",
"Z 	c #D8D9D7",
"` 	c #D8DAD7",
" .	c #D7D9D6",
"..	c #D4D6D4",
"+.	c #EDEDEB",
"@.	c #DDDDD9",
"#.	c #CDCDCA",
"$.	c #AAAAAA",
"%.	c #A6A6A6",
"&.	c #A7A7A7",
"*.	c #C4C4C2",
"=.	c #BCBCBA",
"-.	c #A5A5A5",
";.	c #A3A3A3",
">.	c #A4A4A4",
",.	c #AEAFAE",
"'.	c #A8A8A8",
").	c #C8C8C5",
"!.	c #D0D0CD",
"~.	c #B7B8B5",
"{.	c #EAEAE8",
"].	c #B9BCB5",
"^.	c #BABDB6",
"/.	c #B8BBB5",
"(.	c #D7D7D4",
"_.	c #DEDEDA",
":.	c #DCDCD8",
"<.	c #B8BBB4",
"[.	c #B9BCB6",
"}.	c #E6E6E4",
"|.	c #E9E9E7",
"1.	c #B7BAB4",
"2.	c #B6B9B3",
"3.	c #D6D6D4",
"4.	c #DFDFDB",
"5.	c #B5B8B2",
"6.	c #B7BAB3",
"7.	c #E8E8E6",
"8.	c #AEAEAD",
"9.	c #A6A6A5",
"0.	c #A4A5A4",
"a.	c #D9D9D6",
"b.	c #DFDFDC",
"c.	c #DDDDDA",
"d.	c #B2B2B2",
"e.	c #EEEEEC",
"f.	c #E0E0DC",
"g.	c #EFEFED",
"h.	c #D0D1CC",
"i.	c #BCBFB8",
"j.	c #E1E1DD",
"k.	c #DBDBD7",
"l.	c #494948",
"m.	c #D1D1CD",
"n.	c #F6F6F6",
"o.	c #FFFFFF",
"p.	c #E1E1DE",
"q.	c #575756",
"r.	c #000000",
"s.	c #424241",
"t.	c #E0E0DD",
"u.	c #F0F0ED",
"v.	c #E2E2DE",
"w.	c #F0F0EE",
"x.	c #E3E3DF",
"y.	c #ABBDCD",
"z.	c #749CC6",
"A.	c #E3E3E0",
"B.	c #6494C6",
"C.	c #5C90C7",
"D.	c #F1F1EF",
"E.	c #E4E4E1",
"F.	c #263549",
"G.	c #4F4F4F",
"H.	c #545552",
"I.	c #909090",
"J.	c #BCBCBC",
"K.	c #FDFDFD",
"L.	c #F5F5F5",
"M.	c #E5E5E1",
"N.	c #323333",
"O.	c #959695",
"P.	c #9A9A9A",
"Q.	c #ADAEAC",
"R.	c #C8C9C8",
"S.	c #D8D8D8",
"T.	c #919393",
"U.	c #2D2F30",
"V.	c #343839",
"W.	c #6A6B6B",
"X.	c #CECECE",
"Y.	c #919191",
"Z.	c #7C7C7D",
"`.	c #656565",
" +	c #545455",
".+	c #3B3F41",
"++	c #363A3C",
"@+	c #35393B",
"#+	c #34383A",
"$+	c #333739",
"%+	c #323638",
"&+	c #323637",
"*+	c #303436",
"=+	c #3A3E3F",
"-+	c #949697",
";+	c #F8F9F9",
">+	c #E5E5E2",
",+	c #F1F1F0",
"'+	c #434343",
")+	c #D1D1D1",
"!+	c #DDDDDD",
"~+	c #E4E4E2",
"{+	c #E3E3E2",
"]+	c #DEDEDE",
"^+	c #DBDBDB",
"/+	c #848484",
"(+	c #8E8E8E",
"_+	c #8B8B8B",
":+	c #EFEFEF",
"<+	c #777777",
"[+	c #9E9E9E",
"}+	c #A1A1A1",
"|+	c #898989",
"1+	c #787878",
"2+	c #737373",
"3+	c #8A8A8A",
"4+	c #999999",
"5+	c #939494",
"6+	c #838484",
"7+	c #454545",
"8+	c #999A9B",
"9+	c #E6E6E3",
"0+	c #6093C6",
"a+	c #F2F2F0",
"b+	c #818181",
"c+	c #B9B9B9",
"d+	c #969696",
"e+	c #EAEAEA",
"f+	c #E3E3E3",
"g+	c #E2E2E2",
"h+	c #ADADAD",
"i+	c #9C9C9C",
"j+	c #C4C4C4",
"k+	c #D7D7D7",
"l+	c #979797",
"m+	c #A9A9A9",
"n+	c #585858",
"o+	c #B6B6B6",
"p+	c #CFCFCF",
"q+	c #ABABAB",
"r+	c #858585",
"s+	c #DADADA",
"t+	c #E0E0E0",
"u+	c #DFDFDF",
"v+	c #CDCDCD",
"w+	c #90A9BE",
"x+	c #6694C6",
"y+	c #F2F2F1",
"z+	c #7C7C7C",
"A+	c #C2C2C2",
"B+	c #A9ACAD",
"C+	c #929495",
"D+	c #C5C6C5",
"E+	c #919190",
"F+	c #9B9C9D",
"G+	c #A1A3A4",
"H+	c #A2A4A4",
"I+	c #BCBEBE",
"J+	c #C5C6C7",
"K+	c #BEBFC0",
"L+	c #D2D3D3",
"M+	c #D4D5D6",
"N+	c #E0E1E1",
"O+	c #E2E2E3",
"P+	c #C2C4C4",
"Q+	c #B3B5B5",
"R+	c #9A9E9E",
"S+	c #979A9B",
"T+	c #949899",
"U+	c #757879",
"V+	c #898D8D",
"W+	c #C5C5C6",
"X+	c #767676",
"Y+	c #F3F3F3",
"Z+	c #E7E7E4",
"`+	c #BFBFBF",
" @	c #5B6162",
".@	c #4B4F50",
"+@	c #515455",
"@@	c #5F6364",
"#@	c #606364",
"$@	c #656768",
"%@	c #D3D3D3",
"&@	c #C8C8C8",
"*@	c #F1F1F1",
"=@	c #BBBBBB",
"-@	c #7D7E7E",
";@	c #8C8F90",
">@	c #A3A5A6",
",@	c #A5A7A8",
"'@	c #AAACAD",
")@	c #A7A9A9",
"!@	c #A1A5A5",
"~@	c #A3A6A7",
"{@	c #939697",
"]@	c #4B5153",
"^@	c #252626",
"/@	c #595959",
"(@	c #282828",
"_@	c #C3C3C3",
":@	c #7A7A7A",
"<@	c #E8E8E5",
"[@	c #F3F3F1",
"}@	c #C9C9C9",
"|@	c #575F61",
"1@	c #404445",
"2@	c #363B3C",
"3@	c #424647",
"4@	c #44494A",
"5@	c #777778",
"6@	c #97999A",
"7@	c #CFD0D0",
"8@	c #EBEBEB",
"9@	c #D4D4D4",
"0@	c #9FA0A0",
"a@	c #656869",
"b@	c #818384",
"c@	c #989B9C",
"d@	c #959898",
"e@	c #1E1E1E",
"f@	c #111111",
"g@	c #121212",
"h@	c #CACBCB",
"i@	c #7D7D7D",
"j@	c #F3F3F2",
"k@	c #5A6264",
"l@	c #2E3436",
"m@	c #2F3537",
"n@	c #7C7D7D",
"o@	c #F0F0F0",
"p@	c #E2E3E3",
"q@	c #BBBCBC",
"r@	c #959697",
"s@	c #77797A",
"t@	c #9C9D9E",
"u@	c #5E6060",
"v@	c #1B1C1C",
"w@	c #303333",
"x@	c #7E7E7E",
"y@	c #DCDCDC",
"z@	c #5B6365",
"A@	c #2F3638",
"B@	c #313739",
"C@	c #676A6B",
"D@	c #7E8182",
"E@	c #C5C5C5",
"F@	c #DBDCDC",
"G@	c #E6E7E7",
"H@	c #F7F7F7",
"I@	c #E9E9E9",
"J@	c #D7D8D7",
"K@	c #CECFD0",
"L@	c #B2B4B4",
"M@	c #7D8081",
"N@	c #707374",
"O@	c #3A4244",
"P@	c #7F7F7F",
"Q@	c #EAEAE7",
"R@	c #BDBFB9",
"S@	c #F4F4F2",
"T@	c #E6E6E6",
"U@	c #5E6567",
"V@	c #404547",
"W@	c #6E7171",
"X@	c #A5A6A7",
"Y@	c #D9D9D9",
"Z@	c #DDDEDE",
"`@	c #FCFCFC",
" #	c #ECECEB",
".#	c #D5D6D4",
"+#	c #BFC0BF",
"@#	c #B7B8B8",
"##	c #AEAFAF",
"$#	c #7C7E7F",
"%#	c #878989",
"&#	c #4E5456",
"*#	c #E8E9E9",
"=#	c #D4D5D1",
"-#	c #BFC2BB",
";#	c #F4F4F3",
">#	c #606769",
",#	c #484C4E",
"'#	c #616464",
")#	c #CCCCCC",
"!#	c #ECECEC",
"~#	c #E7E7E7",
"{#	c #DFDFDE",
"]#	c #CFCFCE",
"^#	c #C7C8C7",
"/#	c #C6C7C6",
"(#	c #BCBDBB",
"_#	c #A8AAA8",
":#	c #A1A2A3",
"<#	c #8C8E8F",
"[#	c #8F9191",
"}#	c #525758",
"|#	c #838383",
"1#	c #EBEBE9",
"2#	c #626A6B",
"3#	c #464B4D",
"4#	c #575B5D",
"5#	c #5B5F61",
"6#	c #4E5355",
"7#	c #3B4141",
"8#	c #484C4D",
"9#	c #6A6D6D",
"0#	c #D5D6D6",
"a#	c #D8D9D9",
"b#	c #C7C7C7",
"c#	c #AFAFAF",
"d#	c #B1B1B1",
"e#	c #BEBEBE",
"f#	c #A9AAA8",
"g#	c #909292",
"h#	c #959696",
"i#	c #838586",
"j#	c #505455",
"k#	c #F8F8F8",
"l#	c #BDC0B8",
"m#	c #ECECE9",
"n#	c #5A5A59",
"o#	c #474746",
"p#	c #EBEBE8",
"q#	c #F5F5F3",
"r#	c #2D558D",
"s#	c #B4B6B5",
"t#	c #B5B5B5",
"u#	c #BDBDBD",
"v#	c #989A9A",
"w#	c #4D5051",
"x#	c #C9CACA",
"y#	c #494A4A",
"z#	c #444444",
"A#	c #444445",
"B#	c #444545",
"C#	c #8C8D8E",
"D#	c #8B8C8B",
"E#	c #888989",
"F#	c #7C7F7F",
"G#	c #F0F1F1",
"H#	c #B4B7B1",
"I#	c #BDC0B9",
"J#	c #D5D6D2",
"K#	c #ECECEA",
"L#	c #4D4D4C",
"M#	c #DDDDDB",
"N#	c #2C538D",
"O#	c #6C6F70",
"P#	c #555656",
"Q#	c #4A4B4B",
"R#	c #4E4E4E",
"S#	c #797979",
"T#	c #6F7070",
"U#	c #4D5152",
"V#	c #353839",
"W#	c #6A6C6C",
"X#	c #BABCBC",
"Y#	c #D2D2D2",
"Z#	c #02070D",
"`#	c #04439F",
" $	c #0C3571",
".$	c #07152B",
"+$	c #5D6062",
"@$	c #777878",
"#$	c #878889",
"$$	c #3F4344",
"%$	c #EAEAE9",
"&$	c #F5F5F4",
"*$	c #F3F3F4",
"=$	c #B4C1D3",
"-$	c #294B7D",
";$	c #2F3334",
">$	c #404242",
",$	c #ACACAD",
"'$	c #7B7C7C",
")$	c #0A192D",
"!$	c #0B326B",
"~$	c #08244D",
"{$	c #050F1E",
"]$	c #454648",
"^$	c #6B6D6D",
"/$	c #909191",
"($	c #33383A",
"_$	c #E1E2E2",
":$	c #7A7C7D",
"<$	c #35598C",
"[$	c #284B7E",
"}$	c #596163",
"|$	c #2C3133",
"1$	c #1F2222",
"2$	c #A3A3A4",
"3$	c #868788",
"4$	c #03070D",
"5$	c #0B192F",
"6$	c #050F1D",
"7$	c #4F5254",
"8$	c #6D6E6F",
"9$	c #686969",
"0$	c #D9DADA",
"a$	c #565E60",
"b$	c #303638",
"c$	c #1D2021",
"d$	c #535555",
"e$	c #979999",
"f$	c #0C0C0C",
"g$	c #6F7274",
"h$	c #7E8080",
"i$	c #282B2C",
"j$	c #363E40",
"k$	c #535B5D",
"l$	c #2D3234",
"m$	c #181B1C",
"n$	c #848585",
"o$	c #B1B2B2",
"p$	c #AEB3B4",
"q$	c #D5D6D7",
"r$	c #D3D5D6",
"s$	c #D6D8D9",
"t$	c #D7D9D9",
"u$	c #B5B8BB",
"v$	c #F4F4F4",
"w$	c #666867",
"x$	c #4F5051",
"y$	c #2D3335",
"z$	c #384042",
"A$	c #C8C9C9",
"B$	c #AEAEAE",
"C$	c #51595B",
"D$	c #262B2D",
"E$	c #1F2122",
"F$	c #6A6C6D",
"G$	c #CACACA",
"H$	c #E1E1E1",
"I$	c #BCBDBD",
"J$	c #3C3F3F",
"K$	c #AA7319",
"L$	c #D68F1E",
"M$	c #D89529",
"N$	c #BEBEBD",
"O$	c #747474",
"P$	c #303739",
"Q$	c #242829",
"R$	c #555758",
"S$	c #D0D0D0",
"T$	c #C6C6C6",
"U$	c #828384",
"V$	c #26292A",
"W$	c #2B3032",
"X$	c #BA7B18",
"Y$	c #E59C27",
"Z$	c #BBBAB6",
"`$	c #9F9F9F",
" %	c #696F71",
".%	c #2F3536",
"+%	c #262A2C",
"@%	c #2D3132",
"#%	c #3B3E3E",
"$%	c #646666",
"%%	c #535455",
"&%	c #2C2F2F",
"*%	c #212425",
"=%	c #32393B",
"-%	c #A6711D",
";%	c #D08C1F",
">%	c #D6952D",
",%	c #C2C1BF",
"'%	c #717171",
")%	c #686868",
"!%	c #525252",
"~%	c #CCCCCD",
"{%	c #D5D5D5",
"]%	c #D8D8D9",
"^%	c #BABABB",
"/%	c #C3C5C5",
"(%	c #CDCECE",
"_%	c #C4C5C5",
":%	c #6D6D6D",
"<%	c #4B4B4B",
"[%	c #2C2C2C",
"}%	c #262626",
"|%	c #252525",
"1%	c #242424",
"2%	c #212121",
"3%	c #1F1F1F",
"4%	c #1D1D1D",
"5%	c #1C1C1C",
"6%	c #222222",
"7%	c #3A3A3A",
"                                                                                                ",
"                                                                                                ",
"              . + @ @ @ @ @ @ # # # # $ $ $ $ $ $ $ $ $ $ $ $ $ $ $ # # # # @ @ @ @ @ @ + .     ",
"            % & * = - ; > , ' ) ! ~ { ] ^ / ( _ _ : < : _ _ ( / ^ ] { ~ ! ) ' , > ; - = * [ %   ",
"            } | 1 2 3 4 5 6 7 8 9 0 a b c d e f g h i h g f e j c b a 0 9 8 7 6 5 k l m 1 n }   ",
"            @ o p q r 4 5 s 7 8 t u v w x y z A i B C B i A z y x w v u t 8 7 s 5 D E F p o @   ",
"            @ o p 2 3 4 5 6 7 8 9 0 a b c d e f A h i h A f e d c b a 0 9 8 7 6 5 G H I p o @   ",
"            @ J K L M N O P Q R S t u v T c d U e z V z e U d c T v u t S R Q P O N M L K J @   ",
"            W X Y Y Y Y Y Y Y Z Z Z Z ` ` ` ` ` ` `  ...............Z Z Z Z Y Y Y Y Y Y Y X W   ",
"            W +.@.@.@.@.@.@.@.@.@.@.@.@.@.@.@.@.@.#.$.%.%.%.%.%.%.%.&.*.@.@.@.@.@.@.@.@.@.+.W   ",
"            W +.=.-.;.;.;.;.;.>.,.>.;.;.;.;.;.;.>.'.).@.@.@.@.@.@.@.!.&.-.;.;.;.;.;.;.>.~.+.W   ",
"            W {.>.].^.^.^.^.^./.>.].^.^.^.^.^.^.].>.(._._._._._._._.:.>.<.^.^.^.^.^.^.[.%.}.W   ",
"            W |.-.<.].].].].].1.;.2.1.1.1.1.1.1.2.>.3.4.4.4.4.4.4.4.@.;.5.1.1.1.1.1.1.6.-.7.W   ",
"            @ 8.9.>.>.>.>.>.>.>.-.0.>.>.>.>.>.>.0.-.a.b.b.b.b.b.b.b.c.>.>.>.>.>.>.>.>.;.>.d.W   ",
"            W e.f.f.f.f.f.f.f.f.f.f.f.f.f.f.f.f.f.f.f.f.f.f.f.f.f.f.f.f.f.f.f.f.f.f.f.f.f.e.W   ",
"            W g.h.i.^.^.^.^.^.^.^.^.^.^.^.^.^.^.^.^.^.^.^.^.^.^.^.^.^.^.^.^.i.h.j.k.l.m.j.g.W   ",
"            W g.i.n.o.o.o.o.o.o.o.o.o.o.o.o.o.o.o.o.o.o.o.o.o.o.o.o.o.o.o.o.n.i.p.q.r.s.t.g.W   ",
"            W u.^.o.o.o.o.o.o.o.o.o.o.o.o.o.o.o.o.o.o.o.o.o.o.o.o.o.o.o.o.o.o.^.v.v.v.v.v.u.W   ",
"            W w.^.o.o.o.o.o.o.o.o.o.o.o.o.o.o.o.o.o.o.o.o.o.o.o.o.o.o.o.o.o.o.^.x.y.z.y.x.w.W   ",
"            W w.^.o.o.o.o.o.o.o.o.o.o.o.o.o.o.o.o.o.o.o.o.o.o.o.o.o.o.o.o.o.o.^.A.B.C.B.A.w.W   ",
"            W D.^.o.o.o.o.o.o.o.o.o.o.o.o.o.o.o.o.o.o.o.o.o.o.o.o.o.o.o.o.o.o.^.E.C.C.C.E.D.W   ",
"            F.G.H.I.J.K.o.o.o.L.o.o.o.o.o.o.o.o.o.o.o.o.o.o.o.o.o.o.o.o.o.o.o.^.M.C.C.C.M.D.W   ",
"        N.O.P.Q.R.S.T.U.V.W.X.Y.Z.`. +.+++@+#+$+%+&+*+=+-+;+o.o.o.o.o.o.o.o.o.^.>+C.C.C.>+,+W   ",
"      '+;.)+!+~+{+]+^+/+(+_+:+<+[+}+|+1+2+I.3+;.[+4+5+6+7+8+o.o.o.o.o.o.o.o.o.^.9+0+C.0+9+a+W   ",
"    b+c+d.d+e+f+g+h+i+j+k+l+m+n+}+o+p+q+r+s+S.t+u+]+]+]+v+(+E o.o.o.o.o.o.o.o.^.}.w+x+w+}.y+W   ",
"    z+A+B+C+D+E+3+F+G+H+G+I+J+K+L+M+N+O+N+P+Q+R+S+T+U+V+W+X+Y+o.o.o.o.o.o.o.o.^.Z+^.^.^.Z+y+W   ",
"    z+`+ @.@+@@@#@$@%@&@*@=@-@;@>@,@'@)@G+!@~@{@]@^@/@(@_@:@Y+o.o.o.o.o.o.o.o.^.<@^.^.^.<@[@W   ",
"    z+}@|@1@2@3@4@5@%@&@*@=@r+6@7@8@9@=@0@a@b@c@d@e@f@g@h@i@Y+o.o.o.o.o.o.o.o.^.7.^.^.^.7.j@W   ",
"    z+%@k@l@l@m@m@#@z+z+n@b+Y.o+n.o@p@N+s+q@r@s@t@u@v@w@k+x@Y+o.o.o.o.o.o.o.o.^.|.^.^.^.|.j@W   ",
"    z+y@z@l@l@m@m@m@A@B@C@D@X.E@F@g+G@H@I@J@K@L@M@C+N@O@t+P@Y+o.o.o.o.o.o.o.o.^.Q@R@^.R@Q@S@W   ",
"    z+T@U@l@l@m@m@m@A@V@W@X@Y@u+Z@S.e+`@ #.#+#@###$#%#&#*#b+Y+o.o.o.o.o.o.o.o.^.{.=#-#=#{.;#W   ",
"    z+:+>#l@l@m@m@m@A@,#'#)#k+!#o@~#{#]#^#/#(#_#:#<#[#}#*@|#Y+o.o.o.o.o.o.o.o.^.1#1#1#1#1#;#W   ",
"    z+H@2#3#4#5#6#7#A@8#9#p+0#a#!#k+b#c#d#`+e#f#g#h#i#j#k#|#Y+o.o.o.o.o.o.o.n.l#m#n#r.o#p#q#r#  ",
"    z+o@s#t#u#o+`+-.v#w#n@p+x#E@^+y#z#A#B#B#C#t#D#E#F#+@G#b+H#^.^.^.^.^.^.^.I#J#K#~+L#M#K#Y+N#  ",
"    z+g+O#P#Q#R#S#T#U#V#W#p+X#Y#h+Z#`# $.$r.+$=@i+@$#$$$I@b+%$&$&$&$&$&$&$&$&$&$&$&$&$&$*$=$-$  ",
"    z+^+z@l@l@m@m@m@A@;$>$p+,$Y#'$)$!$~${$r.]$o+h+^$/$($_$:$<$r#r#r#r#r#r#r#r#r#r#r#r#r#+ [$    ",
"    z+Y#}$l@l@m@m@m@A@|$1$q@2$p+3$4$5$6$r.r.7$c+c+8$9$m@0$S#                                    ",
"    z+&@a$l@l@m@m@m@A@b$c$d$e$)#q+f$r.r.r.r.g$)+m+h$i$j$Y#1+                                    ",
"    z+J.k$l@l@m@m@m@A@b$l$m$n$o$b#p$q$r$s$t$u$v$w$x$y$z$A$X+                                    ",
"    z+B$C$l@l@m@m@m@A@b$b$D$E$F$G$j+&.P.i+;.H$I$J$K$L$M$N$O$                                    ",
"    z+'.C$l@l@m@m@m@A@b$b$P$|$Q$R$c+S$9@^+T$U$V$W$X$L$Y$Z$O$                                    ",
"    z+`$ %b$l@m@m@m@A@b$b$b$b$.%+%@%#%$%%%&%*%b$=%-%;%>%,%'%                                    ",
"    )%!%l+m+m+c#c+_@~%{%^+y@Y@]%!+H$!+^%/%Y#(%&@E@_%T$A+:%)%                                    ",
"      <%[%}%}%}%|%|%|%|%1%2%3%4%4%4%4%5%5%5%5%5%4%e@2%6%7%                                      ",
"                                                                                                ",
"                                                                                                ",
"                                                                                                ",
"                                                                                                "};
