/* XPM */
static char * scribus_xpm[] = {
"44 44 912 2",
"  	c None",
". 	c #247CB3",
"+ 	c #267DB4",
"@ 	c #287EB5",
"# 	c #2B80B6",
"$ 	c #428EBF",
"% 	c #5F9FC9",
"& 	c #72ABD0",
"* 	c #77AED2",
"= 	c #7AB0D2",
"- 	c #448FBF",
"; 	c #287FB5",
"> 	c #287EB4",
", 	c #297DB3",
"' 	c #297FB5",
") 	c #5499C5",
"! 	c #8EBCD9",
"~ 	c #BDD7E9",
"{ 	c #C9DFED",
"] 	c #CADFED",
"^ 	c #CAE0ED",
"/ 	c #CBE0ED",
"( 	c #8DBBD9",
"_ 	c #5298C4",
": 	c #2A7FB5",
"< 	c #267CB3",
"[ 	c #5097C4",
"} 	c #A1C7DF",
"| 	c #BED8E9",
"1 	c #BDD8E9",
"2 	c #A2C7DE",
"3 	c #818285",
"4 	c #8A8C8E",
"5 	c #2379AF",
"6 	c #2A7FB6",
"7 	c #7CB0D3",
"8 	c #B3D1E5",
"9 	c #B1D1E5",
"0 	c #B2D1E5",
"a 	c #B3D2E5",
"b 	c #B8CFDE",
"c 	c #C8C7C7",
"d 	c #D1CFCF",
"e 	c #818283",
"f 	c #272F34",
"g 	c #287FB6",
"h 	c #80B4D4",
"i 	c #A6CAE1",
"j 	c #A5CAE1",
"k 	c #A4CAE0",
"l 	c #A7CAE1",
"m 	c #B2C4D0",
"n 	c #C5C4C4",
"o 	c #E1E0DF",
"p 	c #939393",
"q 	c #2D2E2F",
"r 	c #2378AF",
"s 	c #257DB5",
"t 	c #67A5CC",
"u 	c #98C2DC",
"v 	c #99C3DD",
"w 	c #99C3DC",
"x 	c #B1BAC0",
"y 	c #CBC9C9",
"z 	c #CFCECD",
"A 	c #9B9B9B",
"B 	c #6A6A6A",
"C 	c #2A2B2C",
"D 	c #273035",
"E 	c #2779AE",
"F 	c #3B8ABD",
"G 	c #8ABAD7",
"H 	c #8BBAD7",
"I 	c #8CBAD6",
"J 	c #AEAEAF",
"K 	c #ADADAD",
"L 	c #8E8E8E",
"M 	c #8D8D8D",
"N 	c #3D3D3D",
"O 	c #2A2C2D",
"P 	c #434E55",
"Q 	c #2073A8",
"R 	c #257CB3",
"S 	c #267EB6",
"T 	c #599DC7",
"U 	c #7FB3D3",
"V 	c #81B4D4",
"W 	c #80B3D3",
"X 	c #80B3D4",
"Y 	c #87B0CA",
"Z 	c #AAA8A8",
"` 	c #CECDCC",
" .	c #8C8C8C",
"..	c #828282",
"+.	c #5D5D5D",
"@.	c #363636",
"#.	c #55595C",
"$.	c #306F97",
"%.	c #2276AB",
"&.	c #64A3CA",
"*.	c #73ACCF",
"=.	c #74ACCF",
"-.	c #74ADD0",
";.	c #75ADD0",
">.	c #86A5B9",
",.	c #B1AEAE",
"'.	c #B2B1B1",
").	c #777777",
"!.	c #767676",
"~.	c #676767",
"{.	c #484848",
"].	c #47687D",
"^.	c #257AB0",
"/.	c #1E6FA2",
"(.	c #2277AB",
"_.	c #247BB1",
":.	c #5E9FC8",
"<.	c #67A5CB",
"[.	c #6AA6CC",
"}.	c #6BA6CC",
"|.	c #69A6CC",
"1.	c #68A5CB",
"2.	c #69A5CC",
"3.	c #879AA8",
"4.	c #B5B3B2",
"5.	c #8E8D8D",
"6.	c #696969",
"7.	c #525557",
"8.	c #317CAC",
"9.	c #2476AA",
"0.	c #1F6A9A",
"a.	c #2274A7",
"b.	c #2478AC",
"c.	c #2377AC",
"d.	c #277BB2",
"e.	c #4F95C2",
"f.	c #5A9CC6",
"g.	c #5B9DC7",
"h.	c #5C9DC7",
"i.	c #5B9EC7",
"j.	c #5A9DC7",
"k.	c #5C9EC7",
"l.	c #878E93",
"m.	c #6C6B6B",
"n.	c #5E5E5E",
"o.	c #666666",
"p.	c #3F6780",
"q.	c #297FB7",
"r.	c #2479B0",
"s.	c #3A7CA8",
"t.	c #2577AA",
"u.	c #2678AC",
"v.	c #2377AB",
"w.	c #3A86B6",
"x.	c #4E94C1",
"y.	c #5196C2",
"z.	c #5096C2",
"A.	c #4E95C2",
"B.	c #4F96C2",
"C.	c #5297C3",
"D.	c #5197C4",
"E.	c #5297C4",
"F.	c #4F96C3",
"G.	c #5097C3",
"H.	c #5197C3",
"I.	c #5395BE",
"J.	c #8E8B8C",
"K.	c #918F8E",
"L.	c #595858",
"M.	c #535353",
"N.	c #575757",
"O.	c #5B6064",
"P.	c #2B7CAF",
"Q.	c #2A80B7",
"R.	c #287DB4",
"S.	c #2071A5",
"T.	c #4F8CB4",
"U.	c #4F8FBA",
"V.	c #2A7AAC",
"W.	c #2778AB",
"X.	c #2879AC",
"Y.	c #297AAC",
"Z.	c #4089B7",
"`.	c #468EBD",
" +	c #458FBE",
".+	c #468FBE",
"++	c #438EBE",
"@+	c #438FBE",
"#+	c #4690BF",
"$+	c #4790C0",
"%+	c #4891C0",
"&+	c #428FBE",
"*+	c #4791C0",
"=+	c #538BAF",
"-+	c #959086",
";+	c #AEA790",
">+	c #736C5B",
",+	c #484747",
"'+	c #474747",
")+	c #555555",
"!+	c #3C6A88",
"~+	c #277FB6",
"{+	c #2B80B7",
"]+	c #2C81B8",
"^+	c #277EB6",
"/+	c #236A98",
"(+	c #3C79A1",
"_+	c #5490B9",
":+	c #5A96BE",
"<+	c #5392BB",
"[+	c #2F7CAE",
"}+	c #2376AA",
"|+	c #2275A9",
"1+	c #3481B1",
"2+	c #3484B6",
"3+	c #3585B8",
"4+	c #3686B8",
"5+	c #3586B8",
"6+	c #3686B9",
"7+	c #3586B9",
"8+	c #3687B9",
"9+	c #3787BA",
"0+	c #3687BA",
"a+	c #3788BB",
"b+	c #3688BA",
"c+	c #3E85B2",
"d+	c #D9D1AB",
"e+	c #F0E1AD",
"f+	c #A07D3D",
"g+	c #726144",
"h+	c #4F4F4F",
"i+	c #434C52",
"j+	c #216B9B",
"k+	c #1D5477",
"l+	c #1C5477",
"m+	c #417EA7",
"n+	c #5A95BB",
"o+	c #5D97BE",
"p+	c #5B96BE",
"q+	c #5D97BF",
"r+	c #4187B4",
"s+	c #2375A9",
"t+	c #2879AB",
"u+	c #2C7DB1",
"v+	c #2C7FB4",
"w+	c #2D80B5",
"x+	c #2C80B5",
"y+	c #2E81B6",
"z+	c #2F82B7",
"A+	c #2E82B7",
"B+	c #2D81B7",
"C+	c #2A80B6",
"D+	c #4488B0",
"E+	c #F8ECB8",
"F+	c #D4BD83",
"G+	c #926E2D",
"H+	c #93743A",
"I+	c #433F39",
"J+	c #377095",
"K+	c #2980B7",
"L+	c #2570A0",
"M+	c #1A5073",
"N+	c #1D5274",
"O+	c #1A5376",
"P+	c #4683AB",
"Q+	c #5C96BC",
"R+	c #5E97BE",
"S+	c #5F99BF",
"T+	c #6099C0",
"U+	c #4C8EB9",
"V+	c #2777AA",
"W+	c #2576A9",
"X+	c #2676AA",
"Y+	c #2779AD",
"Z+	c #287CB3",
"`+	c #2A7EB4",
" @	c #2B7FB6",
".@	c #277DB5",
"+@	c #7FA2A6",
"@@	c #EEDEA8",
"#@	c #AB8A48",
"$@	c #9F824A",
"%@	c #775E29",
"&@	c #34759F",
"*@	c #287FB7",
"=@	c #2877AA",
"-@	c #194F70",
";@	c #1C5071",
">@	c #195175",
",@	c #4985AD",
"'@	c #5994BB",
")@	c #5B95BD",
"!@	c #5C96BD",
"~@	c #5D96BE",
"{@	c #5692BC",
"]@	c #2F7CAD",
"^@	c #2274A8",
"/@	c #2174A8",
"(@	c #2275A8",
"_@	c #2276AA",
":@	c #2479AF",
"<@	c #247AB1",
"[@	c #257BB1",
"}@	c #257BB2",
"|@	c #277CB3",
"1@	c #BCB893",
"2@	c #D8C38A",
"3@	c #906922",
"4@	c #A1844D",
"5@	c #4E6E73",
"6@	c #277EB5",
"7@	c #1A5276",
"8@	c #164A6B",
"9@	c #174C6D",
"0@	c #1A4D6D",
"a@	c #174D70",
"b@	c #346B8F",
"c@	c #4E88AF",
"d@	c #5C95BB",
"e@	c #5F97BD",
"f@	c #5D95BC",
"g@	c #6198BE",
"h@	c #6299BE",
"i@	c #5F97BE",
"j@	c #6098BE",
"k@	c #6199BF",
"l@	c #3F85B2",
"m@	c #2676A8",
"n@	c #2877A9",
"o@	c #2676A9",
"p@	c #2979AB",
"q@	c #2A7CB0",
"r@	c #2A7DB1",
"s@	c #2D7FB3",
"t@	c #2E80B4",
"u@	c #2D7FB4",
"v@	c #548EAB",
"w@	c #E1CF9A",
"x@	c #C5AB6E",
"y@	c #967435",
"z@	c #927238",
"A@	c #347DAA",
"B@	c #2C81B6",
"C@	c #2776A7",
"D@	c #1B4A68",
"E@	c #1C4C6B",
"F@	c #1C4E6D",
"G@	c #1D4D6C",
"H@	c #184D6F",
"I@	c #336A8E",
"J@	c #5089B0",
"K@	c #6197BD",
"L@	c #6399BE",
"M@	c #6298BE",
"N@	c #6499BE",
"O@	c #659BBF",
"P@	c #6499BF",
"Q@	c #639ABF",
"R@	c #669CC0",
"S@	c #498BB5",
"T@	c #2A79A9",
"U@	c #2D7BAB",
"V@	c #307FB0",
"W@	c #3382B3",
"X@	c #3483B4",
"Y@	c #3584B4",
"Z@	c #3584B5",
"`@	c #3483B5",
" #	c #3283B4",
".#	c #9FB2A6",
"+#	c #ECDDA8",
"@#	c #A2813F",
"##	c #A98F5C",
"$#	c #796435",
"%#	c #2C81B5",
"&#	c #2D81B6",
"*#	c #2D80B4",
"=#	c #215B7F",
"-#	c #1C4B68",
";#	c #1D4D6B",
">#	c #1E4F6E",
",#	c #21516E",
"'#	c #1F5070",
")#	c #32698C",
"!#	c #5089AF",
"~#	c #6298BC",
"{#	c #659ABE",
"]#	c #669BBF",
"^#	c #679CC0",
"/#	c #679DC0",
"(#	c #5692B9",
"_#	c #347EAC",
":#	c #357FAD",
"<#	c #3781AE",
"[#	c #3A83AF",
"}#	c #3D87B4",
"|#	c #3F89B7",
"1#	c #4089B8",
"2#	c #3F89B8",
"3#	c #478AB4",
"4#	c #ECE2B7",
"5#	c #DECB96",
"6#	c #926E2C",
"7#	c #B19B6E",
"8#	c #6D6A4D",
"9#	c #3082B6",
"0#	c #2F7EAF",
"a#	c #235777",
"b#	c #1F4A65",
"c#	c #204C68",
"d#	c #214F6B",
"e#	c #22516E",
"f#	c #265471",
"g#	c #1E5272",
"h#	c #21516F",
"i#	c #336688",
"j#	c #4F87AD",
"k#	c #669ABD",
"l#	c #699CBF",
"m#	c #6B9EC0",
"n#	c #699DC0",
"o#	c #689DC0",
"p#	c #6B9DC0",
"q#	c #6D9FC1",
"r#	c #70A1C3",
"s#	c #4388B2",
"t#	c #4589B3",
"u#	c #488BB4",
"v#	c #4A8EB8",
"w#	c #4B90BB",
"x#	c #4C90BB",
"y#	c #4B90BC",
"z#	c #4A8FBB",
"A#	c #8BACB4",
"B#	c #DFD3A7",
"C#	c #BFA66F",
"D#	c #A2844C",
"E#	c #AE996D",
"F#	c #6D725D",
"G#	c #3584B6",
"H#	c #3077A3",
"I#	c #25516C",
"J#	c #234A63",
"K#	c #244D66",
"L#	c #244F69",
"M#	c #275470",
"N#	c #295876",
"O#	c #236188",
"P#	c #275B7B",
"Q#	c #30607F",
"R#	c #4580A7",
"S#	c #6699BC",
"T#	c #6A9CBF",
"U#	c #6A9DBF",
"V#	c #6B9EC1",
"W#	c #6FA0C2",
"X#	c #72A1C3",
"Y#	c #75A4C4",
"Z#	c #79A6C6",
"`#	c #7DA9C7",
" $	c #75A5C5",
".$	c #5291B7",
"+$	c #5290B7",
"@$	c #5593B9",
"#$	c #5693B9",
"$$	c #5895BD",
"%$	c #5998C0",
"&$	c #5696BF",
"*$	c #5797C0",
"=$	c #AAB1A1",
"-$	c #DACCA1",
";$	c #A78951",
">$	c #B8A378",
",$	c #AB9972",
"'$	c #767760",
")$	c #346889",
"!$	c #294B61",
"~$	c #284B61",
"{$	c #284E64",
"]$	c #295067",
"^$	c #2B5976",
"/$	c #3777A0",
"($	c #3678A2",
"_$	c #3781B0",
":$	c #2771A0",
"<$	c #206795",
"[$	c #387DA8",
"}$	c #4687B0",
"|$	c #548FB6",
"1$	c #6398BC",
"2$	c #6EA0C1",
"3$	c #6FA0C1",
"4$	c #74A2C3",
"5$	c #78A5C5",
"6$	c #7BA7C6",
"7$	c #80AAC8",
"8$	c #83ADCA",
"9$	c #86AFCB",
"0$	c #7FABC8",
"a$	c #5E97BC",
"b$	c #5E98BC",
"c$	c #5F99BD",
"d$	c #619ABE",
"e$	c #619CC1",
"f$	c #609CC2",
"g$	c #629CC1",
"h$	c #DED7B7",
"i$	c #D9C79A",
"j$	c #9F8049",
"k$	c #C2B28E",
"l$	c #9D804C",
"m$	c #81704A",
"n$	c #345264",
"o$	c #305063",
"p$	c #2C4E63",
"q$	c #2C5065",
"r$	c #336787",
"s$	c #3C87B6",
"t$	c #3F8ABA",
"u$	c #3E8ABA",
"v$	c #3985B5",
"w$	c #236E9D",
"x$	c #1B618E",
"y$	c #3579A5",
"z$	c #3A7FAA",
"A$	c #3A7FAB",
"B$	c #4083AD",
"C$	c #4F8DB4",
"D$	c #6599BC",
"E$	c #7AA6C5",
"F$	c #80AAC7",
"G$	c #84ADC9",
"H$	c #87AFCB",
"I$	c #8BB1CC",
"J$	c #8CB3CE",
"K$	c #90B5CF",
"L$	c #8AB2CD",
"M$	c #6BA0C1",
"N$	c #6CA1C1",
"O$	c #6CA1C2",
"P$	c #699FC1",
"Q$	c #6BA2C5",
"R$	c #7EA9C2",
"S$	c #ECE2BE",
"T$	c #C0A87A",
"U$	c #A78B58",
"V$	c #A78B59",
"W$	c #8F7A52",
"X$	c #626964",
"Y$	c #3E596A",
"Z$	c #3A5768",
"`$	c #345466",
" %	c #386B8B",
".%	c #418BB9",
"+%	c #448DBB",
"@%	c #468EBB",
"#%	c #418BBA",
"$%	c #3A83B2",
"%%	c #216693",
"&%	c #1C5B84",
"*%	c #3577A2",
"=%	c #3F82AB",
"-%	c #4183AC",
";%	c #4183AD",
">%	c #4685AE",
",%	c #518DB3",
"'%	c #659ABC",
")%	c #7CA8C6",
"!%	c #8FB4CE",
"~%	c #92B6CF",
"{%	c #95B8D1",
"]%	c #99BBD3",
"^%	c #8EB5CF",
"/%	c #74A5C4",
"(%	c #73A5C4",
"_%	c #75A6C5",
":%	c #74A6C5",
"<%	c #9DBBC6",
"[%	c #E5D8B3",
"}%	c #B19767",
"|%	c #A68A59",
"1%	c #817F6E",
"2%	c #516572",
"3%	c #4A606F",
"4%	c #455D6D",
"5%	c #3F5A6C",
"6%	c #3C5E73",
"7%	c #468CB8",
"8%	c #448CBA",
"9%	c #468DBA",
"0%	c #478EBB",
"a%	c #377FAC",
"b%	c #245F85",
"c%	c #295978",
"d%	c #2C709B",
"e%	c #4383AB",
"f%	c #4686AE",
"g%	c #4585AE",
"h%	c #4B89B0",
"i%	c #538EB4",
"j%	c #5992B6",
"k%	c #5D95B9",
"l%	c #6A9EBE",
"m%	c #82ADC9",
"n%	c #96B9D1",
"o%	c #9BBCD3",
"p%	c #9FBFD5",
"q%	c #A2C1D6",
"r%	c #94B9D1",
"s%	c #7DABC8",
"t%	c #7FACC8",
"u%	c #7EACC8",
"v%	c #B2C4C4",
"w%	c #D6C49F",
"x%	c #AE9466",
"y%	c #87908A",
"z%	c #5B6E7A",
"A%	c #566976",
"B%	c #516674",
"C%	c #4C6271",
"D%	c #465F6F",
"E%	c #49738E",
"F%	c #4D90BB",
"G%	c #488EBA",
"H%	c #4A90BB",
"I%	c #2C74A1",
"J%	c #325B74",
"K%	c #1F6490",
"L%	c #4182AC",
"M%	c #4A8AB3",
"N%	c #4C8BB3",
"O%	c #4C8BB2",
"P%	c #4E8AB1",
"Q%	c #518CB2",
"R%	c #5A92B6",
"S%	c #5F96B8",
"T%	c #6499BB",
"U%	c #699DBE",
"V%	c #6DA0BF",
"W%	c #76A5C3",
"X%	c #8FB5CE",
"Y%	c #A3C2D6",
"Z%	c #A7C4D8",
"`%	c #A9C6D9",
" &	c #96BAD1",
".&	c #8AB3CD",
"+&	c #88B1CC",
"@&	c #C4CBC0",
"#&	c #C4AF87",
"$&	c #979D95",
"%&	c #677A85",
"&&	c #60717C",
"*&	c #5C717F",
"=&	c #5E8095",
"-&	c #5E8BA7",
";&	c #5B91B4",
">&	c #5491B8",
",&	c #5494BD",
"'&	c #5193BC",
")&	c #5193BD",
"!&	c #4588B2",
"~&	c #226691",
"{&	c #235A7D",
"]&	c #3477A1",
"^&	c #4B8BB2",
"/&	c #4F8EB5",
"(&	c #4E8DB5",
"_&	c #518FB6",
":&	c #5691B7",
"<&	c #5C95B8",
"[&	c #6197B9",
"}&	c #669BBB",
"|&	c #6C9EBE",
"1&	c #70A2C0",
"2&	c #7BA9C5",
"3&	c #84AEC9",
"4&	c #9BBDD3",
"5&	c #AEC9DB",
"6&	c #B0CBDC",
"7&	c #95BAD1",
"8&	c #8DB4CE",
"9&	c #CCC8B4",
"0&	c #ACA894",
"a&	c #738793",
"b&	c #6B7A84",
"c&	c #6D90A6",
"d&	c #6EA2C3",
"e&	c #6AA1C4",
"f&	c #649EC2",
"g&	c #5E9AC0",
"h&	c #5A98BF",
"i&	c #5594BD",
"j&	c #5393BC",
"k&	c #5394BD",
"l&	c #4F90BA",
"m&	c #367AA5",
"n&	c #2C5B7A",
"o&	c #445966",
"p&	c #1F638F",
"q&	c #4886AD",
"r&	c #528FB6",
"s&	c #5490B7",
"t&	c #5A94B9",
"u&	c #6199BC",
"v&	c #679DBF",
"w&	c #6B9FC0",
"x&	c #70A1C1",
"y&	c #75A4C2",
"z&	c #7BA8C4",
"A&	c #7EAAC6",
"B&	c #85AFC9",
"C&	c #8AB2CB",
"D&	c #94B9D0",
"E&	c #AAC7D9",
"F&	c #ACC8DA",
"G&	c #91B6CE",
"H&	c #C6BCA3",
"I&	c #85969F",
"J&	c #768A97",
"K&	c #7BA5C0",
"L&	c #77A9C9",
"M&	c #73A6C7",
"N&	c #6EA3C5",
"O&	c #69A0C3",
"P&	c #639DC1",
"Q&	c #5A97BE",
"R&	c #5796BE",
"S&	c #5695BD",
"T&	c #4A8AB2",
"U&	c #236690",
"V&	c #2B5977",
"W&	c #2F719C",
"X&	c #528EB3",
"Y&	c #5994B9",
"Z&	c #5A94B8",
"`&	c #5E97BA",
" *	c #659BBE",
".*	c #6A9FC0",
"+*	c #6FA2C2",
"@*	c #73A4C4",
"#*	c #79A8C6",
"$*	c #7CA9C6",
"%*	c #81ACC7",
"&*	c #8BB3CB",
"**	c #8EB5CD",
"=*	c #91B7CF",
"-*	c #9DBED4",
";*	c #9EBCCE",
">*	c #A6ABA6",
",*	c #839EB0",
"'*	c #83AEC9",
")*	c #7FADCA",
"!*	c #79AAC9",
"~*	c #76A8C8",
"{*	c #72A5C6",
"]*	c #629CC0",
"^*	c #5E99BF",
"/*	c #5C99BF",
"(*	c #5492B9",
"_*	c #3275A0",
":*	c #355A72",
"<*	c #1E5B82",
"[*	c #3E7DA4",
"}*	c #5490B5",
"|*	c #5F97BA",
"1*	c #649ABC",
"2*	c #699EBF",
"3*	c #6EA1C1",
"4*	c #72A4C3",
"5*	c #77A7C5",
"6*	c #7CAAC7",
"7*	c #80ADC9",
"8*	c #86AFC9",
"9*	c #89B1CA",
"0*	c #8BB2CB",
"a*	c #8BB2CC",
"b*	c #90B2C7",
"c*	c #8BAEC4",
"d*	c #80ACC8",
"e*	c #79A9C8",
"f*	c #75A7C7",
"g*	c #70A4C5",
"h*	c #6BA1C3",
"i*	c #679EC1",
"j*	c #629BC0",
"k*	c #5D99BE",
"l*	c #5694BB",
"m*	c #3F7FA8",
"n*	c #265D81",
"o*	c #475863",
"p*	c #1D608B",
"q*	c #4784AB",
"r*	c #669CBE",
"s*	c #6FA2C1",
"t*	c #73A4C3",
"u*	c #7BAAC7",
"v*	c #7FACC9",
"w*	c #82AFCA",
"x*	c #85B0CA",
"y*	c #87B0C9",
"z*	c #88B1CA",
"A*	c #83ADC8",
"B*	c #7FABC7",
"C*	c #7CA9C5",
"D*	c #71A5C5",
"E*	c #6DA2C4",
"F*	c #689FC2",
"G*	c #649DC0",
"H*	c #5C97BC",
"I*	c #4785AD",
"J*	c #22618A",
"K*	c #405868",
"L*	c #1E628E",
"M*	c #4A86AC",
"N*	c #689DBF",
"O*	c #6CA0C1",
"P*	c #70A3C2",
"Q*	c #78A8C5",
"R*	c #81AEC9",
"S*	c #83AFCA",
"T*	c #85B0CB",
"U*	c #85AEC8",
"V*	c #76A8C7",
"W*	c #72A5C5",
"X*	c #6EA3C4",
"Y*	c #6AA0C2",
"Z*	c #4986AD",
"`*	c #22638C",
" =	c #495963",
".=	c #415867",
"+=	c #1E618B",
"@=	c #4783A9",
"#=	c #6298BA",
"$=	c #6CA0C0",
"%=	c #71A3C3",
"&=	c #78A7C5",
"*=	c #7BA9C7",
"==	c #82AECA",
"-=	c #84AFCA",
";=	c #7FABC6",
">=	c #7DAAC5",
",=	c #73A6C6",
"'=	c #6399BC",
")=	c #4683AA",
"!=	c #226189",
"~=	c #495862",
"{=	c #1F5C83",
"]=	c #3978A0",
"^=	c #5F95B7",
"/=	c #6EA0C0",
"(=	c #75A5C4",
"_=	c #78A8C6",
":=	c #81ADC9",
"<=	c #81AECA",
"[=	c #81ADC8",
"}=	c #80ABC6",
"|=	c #7AA8C4",
"1=	c #77A6C3",
"2=	c #76A8C6",
"3=	c #6096B8",
"4=	c #3979A1",
"5=	c #255D80",
"6=	c #4F595F",
"7=	c #54585B",
"8=	c #2D5975",
"9=	c #236791",
"0=	c #4B85AA",
"a=	c #679ABB",
"b=	c #73A4C2",
"c=	c #79A8C5",
"d=	c #78A6C2",
"e=	c #71A1BE",
"f=	c #4A85AB",
"g=	c #256791",
"h=	c #355A71",
"i=	c #495962",
"j=	c #275A7A",
"k=	c #266893",
"l=	c #4581A7",
"m=	c #6396B7",
"n=	c #6FA0BF",
"o=	c #7AA8C5",
"p=	c #7DAAC7",
"q=	c #75A3C0",
"r=	c #6D9DBB",
"s=	c #6093B3",
"t=	c #437DA3",
"u=	c #266891",
"v=	c #2C5A78",
"w=	c #4D5860",
"x=	c #325973",
"y=	c #225D83",
"z=	c #276A94",
"A=	c #38779F",
"B=	c #4681A7",
"C=	c #4F88AC",
"D=	c #548CAF",
"E=	c #37769E",
"F=	c #276891",
"G=	c #245C80",
"H=	c #35596F",
"I=	c #51595D",
"J=	c #585858",
"K=	c #51585D",
"L=	c #415968",
"M=	c #36596F",
"N=	c #2F5A74",
"O=	c #2C5A77",
"P=	c #305A74",
"Q=	c #38596E",
"R=	c #435966",
"S=	c #53595C",
"                                                                                        ",
"                                                                                        ",
"                                          . +                                           ",
"                                @ # $ % & * = & % - ; >                                 ",
"                          , ' ) ! ~ { ] ] ^ / ^ ^ { ~ ( _ :                             ",
"                        < [ } | | | 1 | 1 1 1 | | 1 | 1 | 2 3 4                         ",
"                    5 6 7 8 9 9 0 a 0 a a 0 9 a a a a a a b c d e f                     ",
"                  5 g h i j k k i i i i i i i i l j k k k m n o p q f                   ",
"                r s t u v w u u w w v v w v w v v w u u u x y z A B C D                 ",
"              E 6 F G H H H H H H H H H H H H H H H H H I J z K L M N O P               ",
"            Q R S T U V h V h V h V W V V V W W X V U h Y Z `  .....+.@.#.$.            ",
"            %.S S &.*.=.-.;.=.=.=.-.=.-.-.=.*.*.=.;.*.=.>.,.'.).!.!.~.{.].^.            ",
"          /.(._.s :.<.[.[.}.[.}.|.1.[.}.[.}.}.1.2.}.[.[.3.4.5.B B B 6.7.8.6 9.          ",
"        0.a.b.c.d.e.f.g.h.i.j.i.k.k.k.i.j.i.k.k.k.k.i.g.l.4.m.n.n.n.o.p.S q.r.          ",
"        s.t.u.v.u.w.x.y.y.z.A.B.C.D.E.D.F.G.E.H.E.D.E.I.J.K.L.M.M.N.O.P.S Q.R.S.        ",
"        T.U.V.W.X.Y.Z.`. +.+.+.+++@+#+$+%+#+&+- *+$+$+=+-+;+>+,+'+)+!+~+{+]+^+/+        ",
"      (+_+:+<+[+}+|+V.1+2+3+3+4+5+6+7+8+9+0+0+a+a+a+b+c+d+e+f+g+h+i+, S ^+g j+k+l+      ",
"      m+n+o+p+q+r+s+|+t+V.u+v+v+w+w+> x+y+' y+z+A+B+C+D+E+F+G+H+I+J+K+^+{+L+M+N+O+      ",
"      P+Q+R+p+S+T+U+V+W+X+V+Y+, Z+Z+`+R.R.: :  @.@ @{++@@@#@$@%@&@]+*@{+=@-@-@;@>@      ",
"      ,@'@)@)@!@o+~@{@]@^@/@(@_@:@<@[@<@}@}@< < < R |@1@2@3@4@5@^+^+g 6@7@8@9@0@a@      ",
"    b@c@d@e@f@g@h@i@j@k@l@m@n@o@p@q@r@r@s@s@t@s@t@u@v@w@x@y@z@A@z+B@B+C@D@E@F@G@H@      ",
"    I@J@K@L@M@N@O@P@Q@R@R@S@n@n@T@U@V@W@X@Y@Z@Z@`@ #.#+#@###$#x+%#&#*#=#-#;#>#,#;@'#    ",
"    )#!#~#N@N@{#]#]#]#^#^#/#(#_#:#<#[#}#|#1#1#2#2#3#4#5#6#7#8#9#9#0#a#b#c#d#e#f#g#h#    ",
"    i#j#k#l#l#m#m#n#o#n#p#q#r#]#s#s#t#u#v#w#x#y#z#A#B#C#D#E#F#G#H#I#J#K#L#I#M#N#O#P#    ",
"    Q#R#S#l#T#U#m#V#q#W#X#Y#Z#`# $.$+$@$#$$$%$&$*$=$-$;$>$,$'$)$!$~${$]$^$/$($_$:$      ",
"      <$[$}$|$1$q#2$3$4$5$6$7$8$9$0$a$b$c$d$e$f$g$h$i$j$k$l$m$n$o$p$q$r$s$t$u$v$w$      ",
"      x$y$z$z$A$B$C$D$E$F$G$H$I$J$K$L$M$N$O$P$Q$R$S$T$U$V$W$X$Y$Z$`$ %.%+%@%#%$%%%      ",
"      &%*%=%-%-%;%;%>%,%'%)%I$!%~%{%]%^%/%(%_%:%<%[%}%|%1%2%3%4%5%6%7%8%9%0%8%a%b%      ",
"      c%d%e%f%g%f%>%h%i%j%k%l%m%n%o%p%q%r%s%t%u%v%w%x%y%z%A%B%C%D%E%F%G%H%y#7%I%J%      ",
"        K%L%M%N%O%P%Q%R%S%T%U%V%W%X%Y%Z%`% &.&+&@&#&$&%&&&*&=&-&;&>&,&'&)&)&!&~&        ",
"        {&]&^&/&(&_&:&<&[&}&|&1&W%2&3&4&5&6&7&8&9&0&a&b&c&d&e&f&g&h&i&j&k&l&m&n&        ",
"        o&p&q&r&s&:&t&u&v&w&x&y&z&A&B&C&D&E&F&G&H&I&J&K&L&M&N&O&P&g&Q&R&S&T&U&          ",
"          V&W&X&Y&Z&`& *.*+*@*#*$*%*Y &***=*-*;*>*,*'*)*!*~*{*N&O&]*^*/*(*_*:*          ",
"            <*[*}*Z&|*1*2*3*4*5*6*7*'*8*9*0*a*b*c*3&d*6*e*f*g*h*i*j*k*l*m*n*            ",
"            o*p*q*Z&u&r*.*s*t*5*u*v*w*x*y*z*z*Y B&A*B*C*e*f*D*E*F*G*H*I*J*              ",
"              K*L*M*|*N*O*P*/%Q*u*u%R*S*T*x*B&U*A*%*A&z&#*V*W*X*Y*u&Z*`* =              ",
"                .=+=@=#=$=%=/%&=*=s%7*==S*-='*A*%*;=>=z&&=V*,=d&'=)=!=~=                ",
"                  ~={=]=^=/=(=_=*=s%v*:=<=====[=}=A&C*|=1=2=+*3=4=5=6=                  ",
"                    7=8=9=0=a=b=c=6*s%t%7*7*7*7*B*>=z&d=e=a=f=g=h=                      ",
"                        i=j=k=l=m=n=W%o=$*p=p=$*o=q=r=s=t=u=v=6=                        ",
"                            w=x=y=z=A=B=C=D=D=C=l=E=F=G=H=I=                            ",
"                                J=K=L=M=N=O=O=P=Q=R=S=J=                                ",
"                                                                                        ",
"                                                                                        "};
