/* XPM */
static char * seahorse_xpm[] = {
"48 48 779 2",
"  	c None",
". 	c #E67307",
"+ 	c #E46E03",
"@ 	c #E27006",
"# 	c #E87406",
"$ 	c #E67205",
"% 	c #E88122",
"& 	c #F3B879",
"* 	c #FBE0BB",
"= 	c #FEF8ED",
"- 	c #FCE8CA",
"; 	c #EB9D51",
"> 	c #DD6A02",
", 	c #F47D06",
"' 	c #F69331",
") 	c #F9B76C",
"! 	c #FBCB8F",
"~ 	c #FBC688",
"{ 	c #F9AC56",
"] 	c #F58517",
"^ 	c #F57F08",
"/ 	c #E97404",
"( 	c #E97708",
"_ 	c #E87911",
": 	c #F1AF66",
"< 	c #F9DAAF",
"[ 	c #FEF6E5",
"} 	c #FFFBF4",
"| 	c #FEF0D4",
"1 	c #F9D7A2",
"2 	c #F0B86E",
"3 	c #E8A865",
"4 	c #E19857",
"5 	c #DB6A06",
"6 	c #F47C05",
"7 	c #F8A34B",
"8 	c #FEE8C9",
"9 	c #FFF9EE",
"0 	c #FEF2D4",
"a 	c #FEEEC7",
"b 	c #FEF1CD",
"c 	c #FFF8E2",
"d 	c #FFFDF7",
"e 	c #FDE2B8",
"f 	c #F79430",
"g 	c #F17D07",
"h 	c #EB790A",
"i 	c #E97507",
"j 	c #F1A351",
"k 	c #F8D4A1",
"l 	c #FDF2DB",
"m 	c #FFFDF8",
"n 	c #FEF7E1",
"o 	c #FAE4B8",
"p 	c #F3C684",
"q 	c #EBAA5B",
"r 	c #E39442",
"s 	c #E08D39",
"t 	c #E69A47",
"u 	c #EDAD5D",
"v 	c #F6E1CC",
"w 	c #D96D0F",
"x 	c #F47D08",
"y 	c #FDE3C0",
"z 	c #FFF7E8",
"A 	c #FEE3AB",
"B 	c #FDD782",
"C 	c #FDD986",
"D 	c #FDDB8B",
"E 	c #FDDF90",
"F 	c #FDE295",
"G 	c #FEE8A2",
"H 	c #FEF2CA",
"I 	c #FFFCF5",
"J 	c #F7B369",
"K 	c #EF7B07",
"L 	c #EE7A0A",
"M 	c #EC7605",
"N 	c #F09438",
"O 	c #F8CC93",
"P 	c #FDEED1",
"Q 	c #FFFAE9",
"R 	c #FEEFC6",
"S 	c #F4D190",
"T 	c #EDB35F",
"U 	c #E49A42",
"V 	c #E08D33",
"W 	c #E49539",
"X 	c #EBA648",
"Y 	c #F3B656",
"Z 	c #FBC560",
"` 	c #FDC861",
" .	c #FCC762",
"..	c #FFFAF2",
"+.	c #DB7720",
"@.	c #F57C03",
"#.	c #FCDCB3",
"$.	c #FEF0D5",
"%.	c #FDD481",
"&.	c #FDD684",
"*.	c #FDD889",
"=.	c #FDDC8F",
"-.	c #FDDE93",
";.	c #FDE198",
">.	c #FDE49D",
",.	c #FEE7A0",
"'.	c #FEEAA5",
").	c #FEF0B9",
"!.	c #FFFDF4",
"~.	c #FBE1BC",
"{.	c #FCE7C3",
"].	c #FFFCF2",
"^.	c #FFFEF3",
"/.	c #FFF8D5",
"(.	c #F9E5A7",
"_.	c #F3CA75",
":.	c #EAAE53",
"<.	c #E3963B",
"[.	c #E29437",
"}.	c #E9A649",
"|.	c #F1BA5B",
"1.	c #F9CB6C",
"2.	c #FDD472",
"3.	c #FDD57B",
"4.	c #FEE5AF",
"5.	c #FDD584",
"6.	c #FDC760",
"7.	c #FDDC9E",
"8.	c #FAE2C1",
"9.	c #D36305",
"0.	c #FBC88F",
"a.	c #FEF2DD",
"b.	c #FDD488",
"c.	c #FDD688",
"d.	c #FED98D",
"e.	c #FEDC92",
"f.	c #FEDE96",
"g.	c #FEE19B",
"h.	c #FEE49F",
"i.	c #FEE6A4",
"j.	c #FEE9A7",
"k.	c #FEEAAA",
"l.	c #FEEBAB",
"m.	c #FDEEA8",
"n.	c #FEF5C4",
"o.	c #FDF3BE",
"p.	c #FAE89C",
"q.	c #F5D780",
"r.	c #F0C26A",
"s.	c #ECB65D",
"t.	c #EEBA60",
"u.	c #F2C469",
"v.	c #F8D378",
"w.	c #FEEFC2",
"x.	c #FFFAEA",
"y.	c #FFF6DF",
"z.	c #FDE094",
"A.	c #FDD574",
"B.	c #FFF8E9",
"C.	c #F8DBB7",
"D.	c #FEF8EC",
"E.	c #FEEBC5",
"F.	c #FFF6E7",
"G.	c #E3954E",
"H.	c #F57D06",
"I.	c #FFF9EF",
"J.	c #FDD894",
"K.	c #FDD68C",
"L.	c #FEDB98",
"M.	c #FEDE9F",
"N.	c #FEDF9A",
"O.	c #FEE19E",
"P.	c #FDE3A2",
"Q.	c #FDE5A5",
"R.	c #FEE6A8",
"S.	c #FEE7A9",
"T.	c #FDE499",
"U.	c #FDDF85",
"V.	c #FDE388",
"W.	c #FBE58D",
"X.	c #F8DE86",
"Y.	c #F7DC86",
"Z.	c #F7DE87",
"`.	c #FAE38B",
" +	c #FDEB91",
".+	c #FEEA90",
"++	c #FEE68B",
"@+	c #FEF0BE",
"#+	c #FCECD5",
"$+	c #E49041",
"%+	c #EBAC6C",
"&+	c #FFFBF2",
"*+	c #FEEDC6",
"=+	c #FAE6C6",
"-+	c #D46303",
";+	c #D5690F",
">+	c #F3CA9B",
",+	c #F7D8B2",
"'+	c #D06103",
")+	c #F4A757",
"!+	c #FEE0A9",
"~+	c #FFFDF9",
"{+	c #FFF9EB",
"]+	c #FEEABB",
"^+	c #FEE5AA",
"/+	c #FEE4A9",
"(+	c #FDE099",
"_+	c #FDD97D",
":+	c #FDD879",
"<+	c #FDDA7B",
"[+	c #FCDB7E",
"}+	c #FDE992",
"|+	c #FDF099",
"1+	c #FEF5A0",
"2+	c #FEF39D",
"3+	c #FEF2AD",
"4+	c #FFFBEC",
"5+	c #FFF8DB",
"6+	c #FEEA9E",
"7+	c #FFF7DE",
"8+	c #E9A460",
"9+	c #D76707",
"0+	c #EDB77D",
"a+	c #DC802F",
"b+	c #D16206",
"c+	c #D06307",
"d+	c #D6812A",
"e+	c #FCD7A9",
"f+	c #FEEDD0",
"g+	c #F9BF78",
"h+	c #E7811A",
"i+	c #ED7B0D",
"j+	c #F5B66D",
"k+	c #FFFCF6",
"l+	c #FEEEC3",
"m+	c #FDDE98",
"n+	c #FDD070",
"o+	c #FCD271",
"p+	c #FCD473",
"q+	c #FCD576",
"r+	c #FCD778",
"s+	c #FDE58B",
"t+	c #FEF29C",
"u+	c #FEF29E",
"v+	c #FFFDF0",
"w+	c #EFB77A",
"x+	c #F3C892",
"y+	c #FFFCF4",
"z+	c #FFFEFC",
"A+	c #DA731A",
"B+	c #D36406",
"C+	c #D26306",
"D+	c #D16306",
"E+	c #C88746",
"F+	c #FCD9AB",
"G+	c #FAF9F9",
"H+	c #D7BF9F",
"I+	c #BDB3A1",
"J+	c #BABDB6",
"K+	c #A6ADB0",
"L+	c #CD8138",
"M+	c #F7C587",
"N+	c #FEF8E8",
"O+	c #FCCF6E",
"P+	c #FCCC6A",
"Q+	c #FCCE6B",
"R+	c #FCD170",
"S+	c #FCD171",
"T+	c #FDE286",
"U+	c #FEF6A8",
"V+	c #FFF9D1",
"W+	c #FBEDD1",
"X+	c #D96A07",
"Y+	c #D86908",
"Z+	c #DB741B",
"`+	c #E8A96A",
" @	c #D36304",
".@	c #8A8D88",
"+@	c #C49262",
"@@	c #F2CC9E",
"#@	c #C5C7C1",
"$@	c #CCCEC9",
"%@	c #E7E8E5",
"&@	c #E3E4E0",
"*@	c #C4C6C1",
"=@	c #A4A4A2",
"-@	c #E67A14",
";@	c #FDD270",
">@	c #FCC864",
",@	c #FCCA66",
"'@	c #FCCB68",
")@	c #FBCD6B",
"!@	c #FCDD80",
"~@	c #FEF7C0",
"{@	c #FFFEF8",
"]@	c #FAEACD",
"^@	c #DC8332",
"/@	c #979994",
"(@	c #BEA082",
"_@	c #C0BEB3",
":@	c #DEDFDB",
"<@	c #E3E4E1",
"[@	c #C5C8C2",
"}@	c #CDCFCA",
"|@	c #CECFCC",
"1@	c #B2AFA5",
"2@	c #E58A30",
"3@	c #FDD676",
"4@	c #FBC45F",
"5@	c #FBC561",
"6@	c #FBC663",
"7@	c #FBC864",
"8@	c #FBC865",
"9@	c #FDE48C",
"0@	c #E08839",
"a@	c #D5843E",
"b@	c #B2927B",
"c@	c #749FCD",
"d@	c #7AA5D1",
"e@	c #BFBFBC",
"f@	c #B8BAB3",
"g@	c #DCDDD9",
"h@	c #E1E2DF",
"i@	c #BEC0B9",
"j@	c #D18F4F",
"k@	c #C0B098",
"l@	c #BFBBB0",
"m@	c #D48236",
"n@	c #F7D3A5",
"o@	c #FDDD7D",
"p@	c #FBC25C",
"q@	c #FBC15B",
"r@	c #FBC25E",
"s@	c #FBC460",
"t@	c #FEF3B8",
"u@	c #FCF4DE",
"v@	c #D87F30",
"w@	c #F2F3F3",
"x@	c #F9F9F9",
"y@	c #FEFFFF",
"z@	c #F1F5FA",
"A@	c #CEDDEE",
"B@	c #93B6D9",
"C@	c #76A2D0",
"D@	c #7AA4D0",
"E@	c #BDC2BA",
"F@	c #D9DAD6",
"G@	c #E5E6E3",
"H@	c #C3C3BB",
"I@	c #F0F1F0",
"J@	c #FCE7CB",
"K@	c #EDB374",
"L@	c #E69C52",
"M@	c #FADFB6",
"N@	c #FFFAED",
"O@	c #FDDD85",
"P@	c #FDDE7F",
"Q@	c #FBC763",
"R@	c #FBBC55",
"S@	c #FABD56",
"T@	c #FABE58",
"U@	c #FCD577",
"V@	c #FFFCE7",
"W@	c #ECBE88",
"X@	c #D3A885",
"Y@	c #DAE5F2",
"Z@	c #DCE7F3",
"`@	c #E4EDF6",
" #	c #F1F5F9",
".#	c #FEFEFE",
"+#	c #FFFFFF",
"@#	c #FDFEFE",
"##	c #E9F0F7",
"$#	c #C1D5E9",
"%#	c #84ABD5",
"&#	c #79A3D0",
"*#	c #78A2D0",
"=#	c #ACAEA8",
"-#	c #EDEEEC",
";#	c #C5C7C2",
">#	c #DE9D5E",
",#	c #FFFDFB",
"'#	c #FEF6E6",
")#	c #FFF6E3",
"!#	c #FEEBBF",
"~#	c #FDDA82",
"{#	c #FDDB7B",
"]#	c #FEDE80",
"^#	c #FAB850",
"/#	c #FAB851",
"(#	c #FBC764",
"_#	c #FEF6C8",
":#	c #FBF0D9",
"<#	c #D2711E",
"[#	c #E2E2E6",
"}#	c #E3EDF6",
"|#	c #DBE6F2",
"1#	c #CCDDED",
"2#	c #BDD2E8",
"3#	c #B8CFE7",
"4#	c #C4D7EB",
"5#	c #D6E4F1",
"6#	c #EEF3F9",
"7#	c #F9FBFD",
"8#	c #DFE8F3",
"9#	c #ACC4E0",
"0#	c #729CCB",
"a#	c #719ACA",
"b#	c #6996C7",
"c#	c #C7C9C2",
"d#	c #EEEFED",
"e#	c #D5D6D3",
"f#	c #A0B5C8",
"g#	c #E49044",
"h#	c #EEB273",
"i#	c #FFFAF3",
"j#	c #FEDB91",
"k#	c #FDD16E",
"l#	c #FDD573",
"m#	c #FDD877",
"n#	c #FDDB7C",
"o#	c #FEDF81",
"p#	c #FAB64F",
"q#	c #FCD272",
"r#	c #FFF5CC",
"s#	c #FEFAEE",
"t#	c #D67A2D",
"u#	c #CEBCB0",
"v#	c #DAE5F1",
"w#	c #DFE9F3",
"x#	c #E7EFF7",
"y#	c #E5EDF6",
"z#	c #E2EBF5",
"A#	c #D5E3F1",
"B#	c #C3D6EA",
"C#	c #ADC7E3",
"D#	c #A2C0DF",
"E#	c #ABC6E2",
"F#	c #C3D6EB",
"G#	c #DCE6F3",
"H#	c #F4F8FA",
"I#	c #FEFEFF",
"J#	c #F4F7FA",
"K#	c #D1DEED",
"L#	c #79A0CB",
"M#	c #E6E7E4",
"N#	c #D7D9D4",
"O#	c #83A5C6",
"P#	c #C9D4E1",
"Q#	c #DB914F",
"R#	c #E79D57",
"S#	c #FFFBF3",
"T#	c #FEEEC8",
"U#	c #FEE098",
"V#	c #FDD87A",
"W#	c #FDDC7D",
"X#	c #FEDF82",
"Y#	c #FEE48B",
"Z#	c #FEEEB5",
"`#	c #FFFBEA",
" $	c #FBEFD6",
".$	c #D27321",
"+$	c #D0AB91",
"@$	c #D5E2EE",
"#$	c #DFE9F4",
"$$	c #F2F6FA",
"%$	c #FAFBFD",
"&$	c #DAE7F3",
"*$	c #DCE7F2",
"=$	c #F5F8FB",
"-$	c #E6EDF6",
";$	c #C9DAED",
">$	c #B9CFE6",
",$	c #A6C3E0",
"'$	c #B1CAE4",
")$	c #C8D9EC",
"!$	c #E1EAF5",
"~$	c #F7FAFC",
"{$	c #FBFCFD",
"]$	c #6B93C3",
"^$	c #D3D4CF",
"/$	c #F4F4F3",
"($	c #D4D6D2",
"_$	c #EBECEA",
":$	c #BBC2C5",
"<$	c #79A2CD",
"[$	c #DAE3EC",
"}$	c #D29A6A",
"|$	c #DB7B27",
"1$	c #F0C491",
"2$	c #FDF1DE",
"3$	c #FFFBF1",
"4$	c #FFFEFA",
"5$	c #FFFFFE",
"6$	c #FBECD3",
"7$	c #E1A365",
"8$	c #CE6915",
"9$	c #E3CBB9",
"0$	c #DDE5EF",
"a$	c #EEF4F9",
"b$	c #9EBBDB",
"c$	c #628FC3",
"d$	c #D8E4F1",
"e$	c #EFF4F9",
"f$	c #E5EDF5",
"g$	c #ADC4DF",
"h$	c #EBF0F7",
"i$	c #DAE6F2",
"j$	c #DCE8F3",
"k$	c #D3E0F0",
"l$	c #C3D7EA",
"m$	c #B4CCE5",
"n$	c #A5C1E0",
"o$	c #A4C1E0",
"p$	c #BAD0E8",
"q$	c #AFC6E1",
"r$	c #EBEBEA",
"s$	c #E7E8E6",
"t$	c #C4C7C2",
"u$	c #C5C6C3",
"v$	c #F0F0EF",
"w$	c #9CA5AD",
"x$	c #7CA4CF",
"y$	c #E4E9F0",
"z$	c #D6CDC7",
"A$	c #BE906E",
"B$	c #CC6D1E",
"C$	c #D47525",
"D$	c #D47627",
"E$	c #CF6711",
"F$	c #CE6108",
"G$	c #C6722B",
"H$	c #C5A58F",
"I$	c #E9E9E9",
"J$	c #9CB8D6",
"K$	c #648FC1",
"L$	c #6291C4",
"M$	c #5E8CC1",
"N$	c #6B94C5",
"O$	c #E7EEF6",
"P$	c #5B8ABE",
"Q$	c #6A92C2",
"R$	c #FAFCFD",
"S$	c #DDE8F3",
"T$	c #D7E4F1",
"U$	c #D9E5F2",
"V$	c #D0DFEF",
"W$	c #CEDEEE",
"X$	c #7499C6",
"Y$	c #D9DBD7",
"Z$	c #F7F7F7",
"`$	c #DFE0DC",
" %	c #8C8D89",
".%	c #E4E5E3",
"+%	c #E5E6E4",
"@%	c #92A0AD",
"#%	c #6E99C7",
"$%	c #AAC2DD",
"%%	c #E9EEF3",
"&%	c #D8E1E9",
"*%	c #BEBFC5",
"=%	c #B4BDC7",
"-%	c #BAC9D9",
";%	c #CDD8E5",
">%	c #EAEDF0",
",%	c #D6E1ED",
"'%	c #83A6CE",
")%	c #6985A6",
"!%	c #5383B9",
"~%	c #6D94C3",
"{%	c #5B87BA",
"]%	c #4D7CB4",
"^%	c #F4F8FB",
"/%	c #EAF0F7",
"(%	c #B4C9E0",
"_%	c #F6F9FC",
":%	c #4070AB",
"<%	c #D2D6D1",
"[%	c #EEEEED",
"}%	c #E1E2DE",
"|%	c #90928C",
"1%	c #ECECEB",
"2%	c #B1B6B4",
"3%	c #8198B0",
"4%	c #658FC0",
"5%	c #9BB8D8",
"6%	c #B5CAE2",
"7%	c #C8D8EA",
"8%	c #BED1E7",
"9%	c #A5BEDB",
"0%	c #779CC6",
"a%	c #6A8FBA",
"b%	c #B8C5D5",
"c%	c #9FA29E",
"d%	c #4A78B0",
"e%	c #A5BCDA",
"f%	c #9AB5D5",
"g%	c #4272AC",
"h%	c #4170AC",
"i%	c #CEDBEB",
"j%	c #E8EFF7",
"k%	c #F0F5FA",
"l%	c #E6EDF5",
"m%	c #527CB2",
"n%	c #DBDBD8",
"o%	c #FAFAFA",
"p%	c #EAEBE7",
"q%	c #A5A59F",
"r%	c #92938E",
"s%	c #CECFCD",
"t%	c #E6E6E5",
"u%	c #C7CBCB",
"v%	c #9FB0C1",
"w%	c #8EA5BC",
"x%	c #7B97B8",
"y%	c #7F9AB7",
"z%	c #90A3B6",
"A%	c #A2ACB3",
"B%	c #B3B4B0",
"C%	c #D8D9D6",
"D%	c #8B8D88",
"E%	c #3C6CA8",
"F%	c #3B6BA8",
"G%	c #4C77AE",
"H%	c #ECF1F7",
"I%	c #B5C8E0",
"J%	c #3B6AA7",
"K%	c #E7E7E5",
"L%	c #E7E9E5",
"M%	c #BBBEB7",
"N%	c #DFDFDC",
"O%	c #A3A49F",
"P%	c #8F918C",
"Q%	c #C0C1BE",
"R%	c #E0E0DE",
"S%	c #E0E1DF",
"T%	c #E9E9E8",
"U%	c #E5E5E4",
"V%	c #C6C6C3",
"W%	c #C8C9C4",
"X%	c #C3C5C0",
"Y%	c #C1C4BE",
"Z%	c #F5F6F5",
"`%	c #C1C3BF",
" &	c #3A69A7",
".&	c #3A6AA7",
"+&	c #DCDCDB",
"@&	c #BBBEB6",
"#&	c #D0D2CD",
"$&	c #8C8D88",
"%&	c #8E8F8B",
"&&	c #8B8C88",
"*&	c #ECEDEB",
"=&	c #ECEDEA",
"-&	c #D9DAD7",
";&	c #D2D3CF",
">&	c #CECFCB",
",&	c #BABCB8",
"'&	c #D3D4D0",
")&	c #F9F9F8",
"!&	c #90928D",
"~&	c #E7E8E4",
"{&	c #C6C9C3",
"]&	c #EAEAE8",
"^&	c #C2C5BF",
"/&	c #9FA09D",
"(&	c #E2E3E1",
"_&	c #F8F8F8",
":&	c #DCDCD9",
"<&	c #C4C5C1",
"[&	c #B9BBB6",
"}&	c #D7D8D5",
"|&	c #8D8F8A",
"1&	c #DCDDDA",
"2&	c #C6C8C3",
"3&	c #EEEEEC",
"4&	c #CFD1CC",
"5&	c #8D918B",
"6&	c #ECECEA",
"7&	c #D3D4D1",
"8&	c #B5B7B2",
"9&	c #C7C9C5",
"0&	c #FBFBFB",
"a&	c #9C9D99",
"b&	c #D5D6D2",
"c&	c #C5C6C1",
"d&	c #C7CAC3",
"e&	c #BBBDB7",
"f&	c #8E908B",
"g&	c #E8E9E6",
"h&	c #D8D9D5",
"i&	c #C8C8C5",
"j&	c #AFB1AC",
"k&	c #E8E8E6",
"l&	c #8D8F89",
"m&	c #D2D5CE",
"n&	c #EEEFEE",
"o&	c #DDDEDA",
"p&	c #D6D8D4",
"q&	c #DBDCD8",
"r&	c #8C8E87",
"s&	c #EBECE9",
"t&	c #E8E9E7",
"u&	c #DDDEDB",
"v&	c #B2B3AF",
"w&	c #BDBEBA",
"x&	c #B1B2AE",
"y&	c #C7CAC5",
"z&	c #D9DBD6",
"A&	c #E9EAE8",
"B&	c #E4E5E1",
"C&	c #BABDB5",
"D&	c #D6D7D4",
"E&	c #A9AAA6",
"F&	c #F5F5F4",
"G&	c #8C8E8A",
"H&	c #C1C3BC",
"I&	c #BEC1BA",
"J&	c #BABCB6",
"K&	c #B9BDB6",
"L&	c #8F928C",
"M&	c #8E918B",
"N&	c #C2C3C0",
"O&	c #B9BBB7",
"P&	c #B8B9B5",
"Q&	c #F8F8F7",
"R&	c #C9CAC7",
"S&	c #ADB0AB",
"T&	c #DADAD7",
"U&	c #ACADA9",
"V&	c #D8D8D5",
"W&	c #92948F",
"X&	c #8C8F8A",
"Y&	c #E3E3E0",
"Z&	c #C5C6C2",
"`&	c #B4B5B2",
" *	c #F2F3F1",
".*	c #DEDFDD",
"+*	c #8D8F8B",
"@*	c #898B87",
"#*	c #C2C4C0",
"$*	c #F0F0EE",
"%*	c #E2E2E0",
"&*	c #B2B4B0",
"**	c #FCFCFC",
"=*	c #A0A29E",
"-*	c #8F918B",
";*	c #C9CBC7",
">*	c #EAEBE9",
",*	c #EFF0EE",
"'*	c #D2D2CF",
")*	c #B1B3AF",
"!*	c #8D8E8A",
"~*	c #8B8D89",
"{*	c #CCCDCA",
"]*	c #F6F7F5",
"^*	c #E9EAE7",
"/*	c #BCBDBA",
"(*	c #C5C6C4",
"_*	c #B7BAB6",
":*	c #E8E9E8",
"<*	c #ECECE9",
"[*	c #DFE0DD",
"}*	c #B0B2AE",
"|*	c #D6D7D5",
"1*	c #EFEFEE",
"2*	c #EDEDEB",
"3*	c #CACBC8",
"4*	c #C3C4C2",
"5*	c #898B86",
"6*	c #F2F3F2",
"7*	c #F1F1F0",
"8*	c #A7A8A4",
"9*	c #898C87",
"0*	c #80817D",
"a*	c #888B86",
"b*	c #8B8C87",
"c*	c #8D8F88",
"d*	c #6B6D69",
"                                                                                                ",
"                                                                                                ",
"                                                                              . + @             ",
"                                                                      # $ % & * = - ; >         ",
"                          , ' ) ! ~ { ] ^                     / ( _ : < [ } | 1 2 3 4 5         ",
"                      6 7 8 9 0 a b c d e f g           h i j k l m n o p q r s t u v w         ",
"                    x y z A B C D E F G H I J K L M N O P m Q R S T U V W X Y Z `  ...+.        ",
"                  @.#.$.%.&.*.=.-.;.>.,.'.).!.~.{.].^./.(._.:.<.[.}.|.1.2.3.4.5.6.7.8.9.        ",
"                6 0.a.b.c.d.e.f.g.h.i.j.k.l.m.n.o.p.q.r.s.t.u.v.w.x.y.z.A.B.C.D.E.F.G.          ",
"                H.I.J.K.L.M.N.O.P.Q.R.S.T.U.V.W.X.Y.Z.`. +.+++@+#+$+%+&+*+=+-+;+>+,+'+          ",
"                )+a.!+[ ~+d {+]+^+/+(+_+:+<+[+}+|+1+2+3+4+5+6+7+8+  9+0+~+a+    b+c+            ",
"              d+e+f+} g+h+i+j+k+l+m+n+o+p+q+r+s+t+1+u+v+w+x+y+z+A+    B+C+D+                    ",
"              E+F+G+H+I+J+K+L+M+N+O+P+Q+O+R+S+T+2+U+V+W+X+Y+Z+`+ @                              ",
"            .@+@@@#@$@%@&@*@=@-@m ;@>@,@'@P+)@!@~@{@]@^@                                        ",
"            /@(@_@:@<@[@}@|@1@2@d 3@4@5@6@7@8@9@{@0@a@b@c@d@                                    ",
"            e@f@g@h@i@j@k@l@m@n@b o@p@q@p@r@s@t@u@v@w@x@y@z@A@B@C@D@                            ",
"            E@F@G@H@I@J@K@L@M@N@O@P@Q@R@S@T@U@V@W@X@Y@Z@`@ #.#+#@###$#%#&#*#                    ",
"          =#}@-#;#>#,#'#9 )#!#~#{#]#O+^#/#(#_#:#<#[#}#|#1#2#3#4#5#6#+#+#7#8#9#0#a#b#            ",
"          c#d#e#f#g#h#i#j#k#l#m#n#o#<+p#q#r#s#t#u#v#w#x#y#z#A#B#C#D#E#F#G#H#I#+#J#K#L#          ",
"        [@<@M#N#O#P#Q#R#S#T#U#V#W#X#Y#Z#`# $.$+$@$#$7#$$%$&$*$6#=$-$;$>$,$D#'$)$!$~${$]$        ",
"        ^$/$($_$:$<$[$}$|$1$2$I 3$4$5$6$7$8$9$0$a$$$b$c$d$##e$f$g$h$6#i$j$k$l$m$n$o$p$q$        ",
"      }@r$s$t$u$v$w$x$y$z$A$B$C$D$E$F$G$H$I$J$K$L$M$    N${$O$P$  Q$R$A@z#a$S$T$U$V$W$X$        ",
"      Y$Z$`$   %.%+%@%#%$%%%&%*%=%-%;%>%,%'%)%          !%~%{%    ]%~$^%/%(%%$A@A@x#_%:%        ",
"    <%[%[%}%    |%1%1%2%3%4%5%6%7%8%9%0%a%b%c%                    d%e%f%g%h%i%j%k%l%m%          ",
"    n%o%p%      q%r%s%o%t%u%v%w%x%y%z%A%B%C%v$D%                    E%F%    G%H%I%J%            ",
"    K%x@L%      M%N%O%P%Q%R%S%T%U%V%W%}@X%Y%Z%`%                               &.&              ",
"  +&x@/$      @&#&h@J+    $&%&&&*&=&-&;&>&,&'&)&!&                                              ",
"  ~&+#o%      {&]&^&            /&(&_&)&:&<&[&d#}&|&                                            ",
"  1&o%M#    2&3&4&J+              5&D%C%6&7&8&9&0&a&                                            ",
"  F@Z$b&c&d&3&`$e&                  f&t%g&h&i&j&k&s$l&                                          ",
"  m&n&o&p&r$q&J+                    r&o%s&t&u&v&w&0&x&                                          ",
"  y&z&A&B&#@C&                      D%t&r$s$0&D&E&S%F&G&                                        ",
"    H&I&J&K&                          L&M& %N&Z$O&P&Q&R&D%                                      ",
"                                            S&x@T&U&V&0&W&                                      ",
"                                          X&F&[%Y&Z&`& *.*+*                                    ",
"                                        @*#*.#$*t&%*&*|@**=*                                    ",
"                                          -*;*>***,*'*)**&[%!*                                  ",
"                                              ~*{*]*^*/*(*0&_*                                  ",
"                                              !*:*/$<*[*}*K%|*                                  ",
"                                              ~*0&/$1*2*3*4*(*                                  ",
"                                              5*|*6*0&+#7*8*9*                                  ",
"                                                0*a*b*P%c*d*                                    ",
"                                                                                                ",
"                                                                                                ",
"                                                                                                ",
"                                                                                                ",
"                                                                                                ",
"                                                                                                "};
