/* XPM */
static char * seamonkey_xpm[] = {
"48 48 900 2",
"  	c None",
". 	c #00007E",
"+ 	c #000080",
"@ 	c #000079",
"# 	c #040479",
"$ 	c #06067A",
"% 	c #0D0D7E",
"& 	c #171787",
"* 	c #20208D",
"= 	c #242491",
"- 	c #252591",
"; 	c #242490",
"> 	c #23238F",
", 	c #1F1F8D",
"' 	c #181887",
") 	c #0E0E80",
"! 	c #040477",
"~ 	c #0A0A7E",
"{ 	c #191987",
"] 	c #2D2D97",
"^ 	c #303099",
"/ 	c #2F2F97",
"( 	c #2C2C96",
"_ 	c #2C2C95",
": 	c #2A2A94",
"< 	c #292994",
"[ 	c #282894",
"} 	c #272792",
"| 	c #1D1D8C",
"1 	c #141485",
"2 	c #0C0C80",
"3 	c #000078",
"4 	c #020278",
"5 	c #22228E",
"6 	c #2E2E96",
"7 	c #2E2E97",
"8 	c #282892",
"9 	c #262692",
"0 	c #232390",
"a 	c #22228F",
"b 	c #20208E",
"c 	c #1A1A8A",
"d 	c #08087C",
"e 	c #000077",
"f 	c #0D0D7F",
"g 	c #2B2B95",
"h 	c #292995",
"i 	c #282893",
"j 	c #272793",
"k 	c #20208F",
"l 	c #1F1F8E",
"m 	c #1E1E8D",
"n 	c #1B1B8B",
"o 	c #19198A",
"p 	c #19188B",
"q 	c #1A1A8B",
"r 	c #0E0E83",
"s 	c #020279",
"t 	c #04047B",
"u 	c #1C1C8A",
"v 	c #313198",
"w 	c #2D2D96",
"x 	c #2B2B94",
"y 	c #171789",
"z 	c #181889",
"A 	c #5752A5",
"B 	c #8281BD",
"C 	c #858AC6",
"D 	c #8483BF",
"E 	c #312F95",
"F 	c #101083",
"G 	c #06067C",
"H 	c #21218F",
"I 	c #1C1C8C",
"J 	c #101186",
"K 	c #4D4AA2",
"L 	c #CCD2EB",
"M 	c #63A7FA",
"N 	c #5CA6FF",
"O 	c #78B3FF",
"P 	c #5BA5FF",
"Q 	c #C4DBF9",
"R 	c #1A1989",
"S 	c #111185",
"T 	c #06067B",
"U 	c #010177",
"V 	c #21218D",
"W 	c #222290",
"X 	c #1B1B8C",
"Y 	c #6362B0",
"Z 	c #B1D4FF",
"` 	c #499DFF",
" .	c #CCE4FF",
"..	c #D3E9FF",
"+.	c #C5E1FF",
"@.	c #9FCCFF",
"#.	c #6FB5FF",
"$.	c #6661AC",
"%.	c #0B0B82",
"&.	c #04047A",
"*.	c #1E1E8C",
"=.	c #2B2B96",
"-.	c #1E1E8E",
";.	c #1A1A8C",
">.	c #17178A",
",.	c #3C3C9C",
"'.	c #96C0F9",
").	c #8CC1FF",
"!.	c #D1E7FF",
"~.	c #ACD4FF",
"{.	c #A8D2FF",
"].	c #A5D1FF",
"^.	c #499EFF",
"/.	c #B6DBFF",
"(.	c #201E8A",
"_.	c #0D0D83",
":.	c #0D0D82",
"<.	c #161687",
"[.	c #18188A",
"}.	c #070780",
"|.	c #BAC5E9",
"1.	c #79B9FF",
"2.	c #B9DBFF",
"3.	c #AAD4FF",
"4.	c #A3D0FF",
"5.	c #66AEFF",
"6.	c #70B7FF",
"7.	c #5F62AF",
"8.	c #08087F",
"9.	c #0C0C81",
"0.	c #0B0B81",
"a.	c #09097F",
"b.	c #010179",
"c.	c #07077E",
"d.	c #6F6CB1",
"e.	c #7CBCFF",
"f.	c #AED4FF",
"g.	c #A9D3FF",
"h.	c #A0CFFF",
"i.	c #96C9FF",
"j.	c #8BC3FF",
"k.	c #2286FF",
"l.	c #959CCF",
"m.	c #121283",
"n.	c #0A0A81",
"o.	c #0B0B80",
"p.	c #0A0A80",
"q.	c #1D1D8D",
"r.	c #171788",
"s.	c #151586",
"t.	c #141486",
"u.	c #151384",
"v.	c #B2C5EC",
"w.	c #5FA8FF",
"x.	c #B9DCFF",
"y.	c #9ACBFF",
"z.	c #8FC6FF",
"A.	c #6EB2FC",
"B.	c #74B5FB",
"C.	c #53A1FC",
"D.	c #95BFF4",
"E.	c #899CD5",
"F.	c #29268C",
"G.	c #03037C",
"H.	c #08087E",
"I.	c #07077D",
"J.	c #06067E",
"K.	c #151587",
"L.	c #131386",
"M.	c #131385",
"N.	c #101084",
"O.	c #5F59A6",
"P.	c #4895FB",
"Q.	c #C2E0FF",
"R.	c #92C7FF",
"S.	c #8DC4FF",
"T.	c #82BFFF",
"U.	c #5DA8FB",
"V.	c #6DAFF7",
"W.	c #6CADF7",
"X.	c #8CBFF7",
"Y.	c #89BDF9",
"Z.	c #ABC1EB",
"`.	c #1F1C88",
" +	c #05057D",
".+	c #04047C",
"++	c #000076",
"@+	c #030378",
"#+	c #121285",
"$+	c #7783C6",
"%+	c #63AAFF",
"&+	c #AED6FF",
"*+	c #86C1FF",
"=+	c #80BEFF",
"-+	c #78B9FF",
";+	c #63ADFD",
">+	c #86BDF9",
",+	c #94C5F9",
"'+	c #A9D0FA",
")+	c #DAEAFA",
"!+	c #93C6FC",
"~+	c #767BBD",
"{+	c #05057C",
"]+	c #03037B",
"^+	c #02027A",
"/+	c #0E0E81",
"(+	c #19198B",
"_+	c #0F0F84",
":+	c #1A1988",
"<+	c #6D98E4",
"[+	c #7EBCFF",
"}+	c #7BBBFF",
"|+	c #73B6FF",
"1+	c #6CB3FF",
"2+	c #53A3FC",
"3+	c #66ACF7",
"4+	c #71B1F8",
"5+	c #81BAF8",
"6+	c #AFD2F7",
"7+	c #BCDAF8",
"8+	c #7F9CDB",
"9+	c #0F0E7F",
"0+	c #03037A",
"a+	c #000071",
"b+	c #161688",
"c+	c #0F0F83",
"d+	c #22238C",
"e+	c #89C1FF",
"f+	c #99C9FF",
"g+	c #72B6FF",
"h+	c #6EB4FF",
"i+	c #67AFFF",
"j+	c #5FACFF",
"k+	c #52A2FD",
"l+	c #7AB7F9",
"m+	c #89BFF9",
"n+	c #99C8F9",
"o+	c #C5DFFA",
"p+	c #C3DEFA",
"q+	c #AECDF6",
"r+	c #1A1A81",
"s+	c #030379",
"t+	c #030375",
"u+	c #4D53A9",
"v+	c #89C6FF",
"w+	c #74B7FF",
"x+	c #68B1FF",
"y+	c #61ADFF",
"z+	c #59A9FF",
"A+	c #53A5FF",
"B+	c #459BFD",
"C+	c #65ABF8",
"D+	c #73B2F8",
"E+	c #82BBF9",
"F+	c #B6D6F9",
"G+	c #C0DCF9",
"H+	c #C1E2FF",
"I+	c #21238A",
"J+	c #06067D",
"K+	c #121284",
"L+	c #0D0D81",
"M+	c #0C0C82",
"N+	c #000073",
"O+	c #B1BCE4",
"P+	c #63ADFF",
"Q+	c #67B0FF",
"R+	c #5CAAFF",
"S+	c #54A6FF",
"T+	c #4EA2FF",
"U+	c #4BA1FF",
"V+	c #4B9FFD",
"W+	c #70B1F9",
"X+	c #79B6F8",
"Y+	c #80B9F8",
"Z+	c #A9CFF8",
"`+	c #B8DFFF",
" @	c #363A96",
".@	c #05057B",
"+@	c #04047E",
"@@	c #2B2B99",
"#@	c #36369E",
"$@	c #3B3BA1",
"%@	c #3D3DA3",
"&@	c #3E3EA5",
"*@	c #3E3EA6",
"=@	c #3939A3",
"-@	c #2E2E9A",
";@	c #1C1984",
">@	c #AFD8FF",
",@	c #5BA7FF",
"'@	c #59A8FF",
")@	c #50A3FF",
"!@	c #4DA1FF",
"~@	c #4CA1FF",
"{@	c #499FFF",
"]@	c #4C9FFB",
"^@	c #77B5F9",
"/@	c #85BDF9",
"(@	c #98C7FA",
"_@	c #C0DCFA",
":@	c #C7E0F8",
"<@	c #B8DEFF",
"[@	c #393D99",
"}@	c #030377",
"|@	c #09087E",
"1@	c #1C1D93",
"2@	c #000075",
"3@	c #282899",
"4@	c #7375D9",
"5@	c #8D8FF8",
"6@	c #9799FF",
"7@	c #9697FF",
"8@	c #9494FF",
"9@	c #8C8CFB",
"0@	c #7C7EE6",
"a@	c #6868CC",
"b@	c #5A5BBB",
"c@	c #5959BA",
"d@	c #5858B9",
"e@	c #5A5ABA",
"f@	c #5959B9",
"g@	c #4B4BB0",
"h@	c #31319C",
"i@	c #141487",
"j@	c #18188F",
"k@	c #B2ADD7",
"l@	c #3C95FF",
"m@	c #6AB2FF",
"n@	c #4CA0FF",
"o@	c #519FFA",
"p@	c #5FA7F8",
"q@	c #6BAEF7",
"r@	c #8ABEF9",
"s@	c #B7D7F9",
"t@	c #C5DEF9",
"u@	c #C0E4FF",
"v@	c #363A97",
"w@	c #16178B",
"x@	c #4242B3",
"y@	c #7273E2",
"z@	c #9092FF",
"A@	c #000070",
"B@	c #4F50C0",
"C@	c #9899FF",
"D@	c #8F90FF",
"E@	c #8E8EFE",
"F@	c #8D8DFE",
"G@	c #8C8DFE",
"H@	c #8D8EFF",
"I@	c #8888F8",
"J@	c #797AE6",
"K@	c #6F70DA",
"L@	c #6969D1",
"M@	c #6566CE",
"N@	c #6666CE",
"O@	c #6A6AD3",
"P@	c #7273DF",
"Q@	c #6B6CDE",
"R@	c #6868DA",
"S@	c #6966CB",
"T@	c #AACBF9",
"U@	c #4196FF",
"V@	c #58A8FF",
"W@	c #4EA1FF",
"X@	c #52A3FF",
"Y@	c #4199FE",
"Z@	c #74B4FA",
"`@	c #91C3FA",
" #	c #8AC0FA",
".#	c #96C6F8",
"+#	c #A8CEF8",
"@#	c #B4D5F8",
"##	c #B9DDFF",
"$#	c #5256BD",
"%#	c #6262D5",
"&#	c #8C8DFC",
"*#	c #9394FF",
"=#	c #8E8FFF",
"-#	c #8D8EFE",
";#	c #9696FF",
">#	c #01017B",
",#	c #000064",
"'#	c #5656C9",
")#	c #8C8DFF",
"!#	c #8788FE",
"~#	c #8A8BFE",
"{#	c #9193FE",
"]#	c #9292FE",
"^#	c #8B8CFE",
"/#	c #898AFE",
"(#	c #888AFF",
"_#	c #8889FF",
":#	c #8787FD",
"<#	c #8586FC",
"[#	c #8485FC",
"}#	c #8586FD",
"|#	c #8586FF",
"1#	c #8484FF",
"2#	c #BEBBFD",
"3#	c #348FFF",
"4#	c #75B7FF",
"5#	c #4FA2FF",
"6#	c #51A3FF",
"7#	c #5AA9FF",
"8#	c #3B94FB",
"9#	c #61A9F8",
"0#	c #82BCF9",
"a#	c #B8D8FA",
"b#	c #C7E0FA",
"c#	c #ACD0F7",
"d#	c #AFD3FB",
"e#	c #999BFD",
"f#	c #9495FF",
"g#	c #8E8FFE",
"h#	c #A4A5FF",
"i#	c #0B0B83",
"j#	c #000062",
"k#	c #3838C9",
"l#	c #5C5DFF",
"m#	c #5859FD",
"n#	c #5657FD",
"o#	c #5454FD",
"p#	c #5A5BFD",
"q#	c #6768FD",
"r#	c #7576FE",
"s#	c #8282FE",
"t#	c #8687FE",
"u#	c #8586FE",
"v#	c #8485FE",
"w#	c #8484FE",
"x#	c #8384FE",
"y#	c #8A8AFE",
"z#	c #9DBFFE",
"A#	c #5AA8FF",
"B#	c #50A2FF",
"C#	c #55A5FF",
"D#	c #5FABFF",
"E#	c #3894FD",
"F#	c #79B6F9",
"G#	c #83BCFA",
"H#	c #64AAF7",
"I#	c #80BBF9",
"J#	c #B8D8F9",
"K#	c #C2DDF9",
"L#	c #CDE4FA",
"M#	c #9CB8FD",
"N#	c #4F4EFD",
"O#	c #4343FE",
"P#	c #4847FE",
"Q#	c #4848FE",
"R#	c #4949FE",
"S#	c #4A4AFE",
"T#	c #5454FF",
"U#	c #060684",
"V#	c #00005B",
"W#	c #3536BF",
"X#	c #6465FF",
"Y#	c #5D5EFE",
"Z#	c #5C5DFD",
"`#	c #5B5CFD",
" $	c #5A5CFE",
".$	c #5B5BFE",
"+$	c #5A5BFF",
"@$	c #4A4AFA",
"#$	c #3F3FF2",
"$$	c #4243EF",
"%$	c #5F60F4",
"&$	c #8383FD",
"*$	c #8788FF",
"=$	c #7D7EFE",
"-$	c #AAADFF",
";$	c #6EB3FF",
">$	c #59A7FF",
",$	c #54A5FF",
"'$	c #62AEFF",
")$	c #5AA8FE",
"!$	c #4B9CF9",
"~$	c #6BAFF9",
"{$	c #87BFF9",
"]$	c #86BCFA",
"^$	c #9BC9F8",
"/$	c #ABD0F8",
"($	c #BEDAF9",
"_$	c #B2D5FA",
":$	c #7B8AF3",
"<$	c #201FE8",
"[$	c #2A2AED",
"}$	c #3838F2",
"|$	c #4B4BFA",
"1$	c #5858FF",
"2$	c #5D5DFF",
"3$	c #02027D",
"4$	c #0F0FAC",
"5$	c #3131F3",
"6$	c #4243F4",
"7$	c #4A4BF8",
"8$	c #494AF8",
"9$	c #4343F6",
"0$	c #3131EF",
"a$	c #1716E6",
"b$	c #0A0AE2",
"c$	c #0505DF",
"d$	c #0203DE",
"e$	c #0708DF",
"f$	c #0F0FE1",
"g$	c #2E2EE8",
"h$	c #5D5FF4",
"i$	c #7D7EFD",
"j$	c #898CFF",
"k$	c #C5DFFF",
"l$	c #3894FF",
"m$	c #53A4FF",
"n$	c #57A8FF",
"o$	c #68B0FF",
"p$	c #489CFA",
"q$	c #78B6F9",
"r$	c #5FA8F7",
"s$	c #6DB0F9",
"t$	c #A4CDF9",
"u$	c #BEDCFA",
"v$	c #A8CEF7",
"w$	c #C7DDF7",
"x$	c #7AB5FB",
"y$	c #5652EA",
"z$	c #1010E1",
"A$	c #1212E2",
"B$	c #1515E2",
"C$	c #1919E3",
"D$	c #2121E7",
"E$	c #3636EF",
"F$	c #4848F8",
"G$	c #000072",
"H$	c #030399",
"I$	c #0808E6",
"J$	c #0303DE",
"K$	c #0101DE",
"L$	c #0303DF",
"M$	c #0404DE",
"N$	c #0202DE",
"O$	c #0000DE",
"P$	c #0000DD",
"Q$	c #0000DC",
"R$	c #0504E0",
"S$	c #BCBCF8",
"T$	c #3792FF",
"U$	c #57A6FF",
"V$	c #5DAAFF",
"W$	c #66AFFF",
"X$	c #6FB4FF",
"Y$	c #4A9EFC",
"Z$	c #5CA6F8",
"`$	c #78B6F8",
" %	c #70B1F7",
".%	c #ABD1F8",
"+%	c #C3DDF9",
"@%	c #7BB8F8",
"#%	c #B8BFF9",
"$%	c #0A09E0",
"%%	c #1414E2",
"&%	c #1616E2",
"*%	c #1717E2",
"=%	c #1818E3",
"-%	c #1A1AE3",
";%	c #1616DB",
">%	c #000067",
",%	c #010187",
"'%	c #0707E4",
")%	c #0606E0",
"!%	c #0505E0",
"~%	c #5A57E8",
"{%	c #65AAFE",
"]%	c #439BFF",
"^%	c #6BB2FF",
"/%	c #4C9EFB",
"(%	c #6EB0F8",
"_%	c #73B3F7",
":%	c #5EA7F7",
"<%	c #96C6F9",
"[%	c #9CC8F7",
"}%	c #A9CEF7",
"|%	c #BCD9F9",
"1%	c #B0D5FA",
"2%	c #B9D4FD",
"3%	c #2B28E5",
"4%	c #1B1BE3",
"5%	c #1C1CE3",
"6%	c #1E1EE6",
"7%	c #1414C3",
"8%	c #000056",
"9%	c #010173",
"0%	c #0505D4",
"a%	c #0404DF",
"b%	c #1211E0",
"c%	c #97B8FB",
"d%	c #3B96FF",
"e%	c #6DB4FF",
"f%	c #71B6FF",
"g%	c #7CBBFF",
"h%	c #7ABBFF",
"i%	c #5AA6FA",
"j%	c #70B0F6",
"k%	c #6CAFF8",
"l%	c #82BAF6",
"m%	c #AFD3F8",
"n%	c #B2D4F8",
"o%	c #A9CFF6",
"p%	c #B0D2F7",
"q%	c #B1D8FE",
"r%	c #4545E8",
"s%	c #1313E1",
"t%	c #1D1DE3",
"u%	c #1F1FE3",
"v%	c #2222EB",
"w%	c #0B0BA2",
"x%	c #000053",
"y%	c #0202BB",
"z%	c #9AA5F5",
"A%	c #479FFF",
"B%	c #77B9FF",
"C%	c #7FBDFF",
"D%	c #6CB2FE",
"E%	c #5EA8F9",
"F%	c #75B4F7",
"G%	c #7CB7F8",
"H%	c #58A3F6",
"I%	c #AAD0F8",
"J%	c #9BC7F6",
"K%	c #B1D3F9",
"L%	c #C4DDF9",
"M%	c #A1CBF6",
"N%	c #91C1FC",
"O%	c #706DED",
"P%	c #1E1EE3",
"Q%	c #1F1FE4",
"R%	c #2121E4",
"S%	c #2222E4",
"T%	c #040483",
"U%	c #0101A1",
"V%	c #0202DD",
"W%	c #8D8AEF",
"X%	c #64B2FF",
"Y%	c #84C0FF",
"Z%	c #77B8FF",
"`%	c #66ADFC",
" &	c #5EA6F6",
".&	c #88BFF8",
"+&	c #6CAEF7",
"@&	c #A5CEF9",
"#&	c #9CC7F5",
"$&	c #BDDAF9",
"%&	c #A7CDF6",
"&&	c #A8CEF6",
"*&	c #AED8FD",
"=&	c #9AB8F9",
"-&	c #625BEA",
";&	c #0D0DE2",
">&	c #2020E4",
",&	c #2424E5",
"'&	c #1A1AC9",
")&	c #02025D",
"!&	c #00006D",
"~&	c #0000DB",
"{&	c #6E6AEB",
"]&	c #5FA6FD",
"^&	c #459BFF",
"/&	c #89C2FF",
"(&	c #58A6FD",
"_&	c #54A1F8",
":&	c #80B8F6",
"<&	c #A5CDF6",
"[&	c #C3DEF9",
"}&	c #A8CDF6",
"|&	c #C2DCF8",
"1&	c #7AB7F8",
"2&	c #ACD6FD",
"3&	c #9297F2",
"4&	c #2727E5",
"5&	c #2323E4",
"6&	c #2525E4",
"7&	c #1111A8",
"8&	c #00003D",
"9&	c #0000B4",
"0&	c #0000E2",
"a&	c #0101DF",
"b&	c #3F3EE6",
"c&	c #91C2FE",
"d&	c #3995FF",
"e&	c #85BFFE",
"f&	c #55A3FA",
"g&	c #7EB7F7",
"h&	c #9AC6F6",
"i&	c #C3DDF8",
"j&	c #B9D6F7",
"k&	c #C8DFF9",
"l&	c #C8E0F9",
"m&	c #98C6F8",
"n&	c #8BBCFB",
"o&	c #C2C7F9",
"p&	c #4B48E8",
"q&	c #0B0CE1",
"r&	c #2424E4",
"s&	c #2626E4",
"t&	c #2525DD",
"u&	c #03036B",
"v&	c #00006B",
"w&	c #0000D7",
"x&	c #0000E0",
"y&	c #554FE8",
"z&	c #A0C7FD",
"A&	c #2B8EFF",
"B&	c #59A7FD",
"C&	c #74B3F8",
"D&	c #B6D5F7",
"E&	c #D1E4F7",
"F&	c #D3E4F6",
"G&	c #B1D4F8",
"H&	c #9BCBF8",
"I&	c #B8DFFD",
"J&	c #B5D9FC",
"K&	c #92AFF8",
"L&	c #7883F1",
"M&	c #514DE9",
"N&	c #0E0EE1",
"O&	c #1515E3",
"P&	c #2626E5",
"Q&	c #2828E6",
"R&	c #2D2DED",
"S&	c #0F0FA3",
"T&	c #000030",
"U&	c #000093",
"V&	c #0101E3",
"W&	c #0102DF",
"X&	c #5650E7",
"Y&	c #93BDFC",
"Z&	c #1A82FF",
"`&	c #57A2FA",
" *	c #D9E9F9",
".*	c #C6DCF5",
"+*	c #93C1FA",
"@*	c #8CC3FB",
"#*	c #A1D0FE",
"$*	c #D9F3FF",
"%*	c #BDC5F9",
"&*	c #7075EE",
"**	c #2D2FE6",
"=*	c #2322E4",
"-*	c #2929E6",
";*	c #2D2DEB",
">*	c #1E1EC8",
",*	c #00005A",
"'*	c #000045",
")*	c #0101B3",
"!*	c #413FE7",
"~*	c #A1CAFE",
"{*	c #1B82FF",
"]*	c #4899FC",
"^*	c #94C1FA",
"/*	c #87B6FC",
"(*	c #97B9FC",
"_*	c #C8C8F8",
":*	c #9491F1",
"<*	c #5551E9",
"[*	c #0E0DE1",
"}*	c #1111E2",
"|*	c #2828E5",
"1*	c #2A2AE6",
"2*	c #2D2DE7",
"3*	c #2929DD",
"4*	c #000065",
"5*	c #0404C6",
"6*	c #0505E5",
"7*	c #0605DF",
"8*	c #7B78EE",
"9*	c #8CC3FE",
"0*	c #2E91FF",
"a*	c #97C4FF",
"b*	c #807EEE",
"c*	c #413CE6",
"d*	c #2824E3",
"e*	c #0F0DE0",
"f*	c #0202DF",
"g*	c #0808E1",
"h*	c #1818E2",
"i*	c #2525E5",
"j*	c #2C2CE6",
"k*	c #2D2DE5",
"l*	c #2D2DE6",
"m*	c #0D0D91",
"n*	c #000022",
"o*	c #00006E",
"p*	c #0908C6",
"q*	c #A5A9F7",
"r*	c #4F9EFE",
"s*	c #288BFF",
"t*	c #B1C5FB",
"u*	c #3332E5",
"v*	c #1313E2",
"w*	c #2626E6",
"x*	c #2E2EE6",
"y*	c #3333ED",
"z*	c #0E0E98",
"A*	c #000037",
"B*	c #5D5D60",
"C*	c #B9C9EB",
"D*	c #459DFF",
"E*	c #479CFF",
"F*	c #BCBEF7",
"G*	c #1C1AE2",
"H*	c #2727E6",
"I*	c #2B2BE6",
"J*	c #2F2FE8",
"K*	c #3030E7",
"L*	c #0C0C93",
"M*	c #000038",
"N*	c #DDE7F3",
"O*	c #7DBAFF",
"P*	c #3996FF",
"Q*	c #89B7F2",
"R*	c #7574CC",
"S*	c #0B0AE8",
"T*	c #0E0EE2",
"U*	c #2C2CDB",
"V*	c #0D0D8D",
"W*	c #000033",
"X*	c #FFFFFF",
"Y*	c #A3CEFE",
"Z*	c #2386FF",
"`*	c #8DC5FF",
" =	c #C6CDD7",
".=	c #383733",
"+=	c #000049",
"@=	c #05059D",
"#=	c #1515E4",
"$=	c #2E2EE7",
"%=	c #3535F0",
"&=	c #2020C2",
"*=	c #030372",
"==	c #000018",
"-=	c #E3EFFF",
";=	c #C4DFFF",
">=	c #4698FF",
",=	c #509CF9",
"'=	c #D4DFE8",
")=	c #7B766E",
"!=	c #00001F",
"~=	c #010176",
"{=	c #1111C8",
"]=	c #1717E0",
"^=	c #1A1AE4",
"/=	c #1B1BE4",
"(=	c #3030E8",
"_=	c #3030E6",
":=	c #2E2EDD",
"<=	c #10109A",
"[=	c #00004F",
"}=	c #F6FAFD",
"|=	c #A9CDFC",
"1=	c #7EA6E0",
"2=	c #A4AEB8",
"3=	c #887F74",
"4=	c #060680",
"5=	c #0F0FB5",
"6=	c #1818D4",
"7=	c #2020E8",
"8=	c #2222EA",
"9=	c #2323E7",
"0=	c #2B2BE7",
"a=	c #2D2DE8",
"b=	c #2F2FEB",
"c=	c #3232EE",
"d=	c #2D2DE2",
"e=	c #2121C7",
"f=	c #14149D",
"g=	c #010158",
"h=	c #00001D",
"i=	c #000027",
"j=	c #02025C",
"k=	c #050587",
"l=	c #0E0EA9",
"m=	c #1818C4",
"n=	c #1F1FD6",
"o=	c #2929E8",
"p=	c #2A2AE8",
"q=	c #2C2CE8",
"r=	c #2929DE",
"s=	c #2424CE",
"t=	c #1A1AB9",
"u=	c #0B0B96",
"v=	c #050570",
"w=	c #02023E",
"x=	c #000012",
"y=	c #00003F",
"z=	c #00004E",
"A=	c #00005D",
"B=	c #000060",
"C=	c #000061",
"D=	c #000054",
"E=	c #000046",
"F=	c #00002C",
"G=	c #000000",
"                                                                                                ",
"                                                                                                ",
"                                            . + + + @                                           ",
"                                  # $ % & * = - ; > , ' ) $ !                                   ",
"                              ~ { > ] ^ / ( _ : < [ } } } - | 1 2 3                             ",
"                          4 5 6 7 7 ( _ : < [ 8 9 - = 0 0 a b b | c d e                         ",
"                        f 7 / ( _ g h < i j - - = 0 a k l l m n o p q r s                       ",
"                    t u v w ( x : [ j } 9 ; ; a a k b m m y z A B C D E F G                     ",
"                  s a w g : < j } - - ; > a H l , m | I J K L M N O P Q R S T                   ",
"                U V w : [ j 9 9 - ; W H b b , m | X X o Y Z `  ...+.@.#.$.%.S &.                ",
"              s *.=.i j 9 - = 0 a H b , -.| I I ;.q >.,.'.).!.~.{.].^./.(._.r :.t               ",
"              <.[ 9 - - ; 0 a b l , m | X n n o [.[.}.|.1.2.3.].4.5.6.7.8.:.9.0.a.b.            ",
"            c.i - - ; 0 H b l , m | I n q q [.y y r d.e.f.g.h.i.j.k.l.m.n.0.o.p.a.T 3           ",
"          e b - 0 a b b , m q.I X q c [.[.r.<.s.t.u.v.w.x.y.z.A.B.C.D.E.F.G.8.H.I.J.s           ",
"          t.; a b l , | | I n q o [.y r.K.t.L.M.N.O.P.Q.R.S.T.U.V.W.X.Y.Z.`. + + +.+t ++        ",
"        @+b b l , m I I n q o [.y r.K.t.L.M.#+S N.$+%+&+*+=+-+;+>+,+'+)+!+~+.+{+t ]+t ^+        ",
"        /+, *.| I n q (+z y r.<.t.1 #+#+S N._+r :+<+].[+}+|+1+2+3+4+5+6+7+8+9+]+0+t t 0+a+      ",
"        M.| X n q o [.y b+K.s.L.M.S N.N.c+r :.9.d+e+f+g+h+i+j+k+l+m+n+o+p+q+r+s+0+.+{+ +b.      ",
"      t+z n q [.y y <.K.t.M.#+#+N.N.c+:.:.:.0.c.u+v+w+x+y+z+A+B+C+D+E+F+G+H+I+]+{+ +J+H.]+      ",
"      .+q [.r.t.K+F F r L+M+:.r r r 9.9.o.p.p.N+O+P+Q+R+S+T+U+V+W+X+Y+Z+6+`+ @G.J+c.8.a..@      ",
"      +@#+m.[.@@#@$@%@&@*@=@-@-.:.J+8.p.a.H.G.;@>@,@'@)@!@~@{@]@^@/@(@_@:@<@[@ +H.I.}@|@1@2@    ",
"      3@4@5@6@7@8@9@0@a@b@c@d@e@f@g@h@i@_._.j@k@l@m@n@~@!@!@!@o@p@q@r@s@t@u@v@n.w@x@y@z@6@A@    ",
"      B@C@D@E@F@G@G@H@D@I@J@K@L@M@N@O@P@Q@R@S@T@U@V@!@!@W@X@Y@Z@`@ #.#+#@###$#%#&#*#=#-#;#>#    ",
"    ,#'#)#!#~#{#]#-#^#/#/#(#_#:#<#[#}#|#|#1#2#3#4#{@T+5#6#7#8#9#0#0#a#b#c#d#e#f#G@G@F@g#h#i#    ",
"    j#k#l#m#n#o#p#q#r#s#t#!#!#t#u#v#v#w#x#y#z#A#B#5#)@C#D#E#F#G#H#I#J#K#L#M#N#O#P#Q#R#S#T#U#    ",
"    V#W#X#Y#Z#`# $.$+$@$#$$$%$&$H@*$w#x#=$-$;$>$W@,$A#'$)$!$~${$]$^$/$($_$:$<$[$}$|$1$1$2$3$    ",
"      4$5$6$7$8$9$0$a$b$c$d$e$f$g$h$i$j$~#k$l$m$n$j+o$;$p$q$r$s$t$u$v$w$x$y$z$A$B$C$D$E$F$G$    ",
"      H$I$J$K$K$K$L$M$M$J$N$N$N$O$P$Q$R$S$T$U$V$W$X$w+Y$Z$F#`$ %.%($+%@%#%$%%%&%*%=%C$-%;%>%    ",
"      ,%'%)%!%c$M$J$N$J$K$K$O$O$O$O$O$~%{%]%Q+^%4#|+/%(%_%:%<%[%}%|%1%2%3%A$&%=%-%4%5%6%7%8%    ",
"      9%0%a%M$J$N$N$K$K$O$O$O$O$O$K$b%c%d%e%f%g%h%i%_%j%k%l%m%n%o%p%q%r%s%*%=%4%4%t%u%v%w%      ",
"      x%y%L$J$N$K$K$O$O$O$O$O$K$K$P$z%A%Q+B%C%D%E%F%G%H%I%J%K%L%M%N%O%%%C$-%4%5%P%Q%R%S%T%      ",
"        U%V%K$O$O$O$O$O$O$O$K$N$P$W%X%W@Y%Z%`% &.&+&@&#&$&%&&&*&=&-&;&-%4%t%P%Q%>&S%,&'&)&      ",
"        !&~&O$O$O$O$O$K$K$N$J$N${&]&^&/&(&_& %:&J#<&[&}&|&1&2&3&4&*%4%5%P%u%>&S%5&6&6&7&        ",
"        8&9&0&O$O$O$K$N$N$M$a&b&c&d&e&f&g&h&i&j&k&c#l&m&n&o&p&q&-%4%t%u%Q%R%S%r&s&4&t&u&        ",
"          v&w&x&O$N$N$J$a%O$y&z&A&B&C&D&E&F&G&H&I&J&K&L&M&N&O&5%t%P%>&R%S%r&6&P&Q&R&S&T&        ",
"            U&V&N$J$M$!%W&X&Y&Z&`& *.*+*@*#*$*%*&***=*=%=%4%5%P%Q%>&S%r&6&P&Q&-*;*>*,*          ",
"            '*)*a%M$!%!%!*~*{*]*^*/*(*_*:*<*[*)%}*=%C$-%5%t%P%>&R%S%r&6&|*-*1*2*3*}@            ",
"              4*5*6*7*8*9*0*a*b*c*d*e*f*g*z$&%h*C$-%5%t%P%>&R%5&r&i*P&Q&1*j*k*l*m*n*            ",
"                o*p*q*r*s*t*u*N&f$}*v*%%&%*%=%C$4%5%P%Q%>&S%r&6&w*Q&1*j*j*x*y*z*A*              ",
"                B*C*D*E*F*G*N&}*v*%%B$*%*%-%4%5%t%Q%>&S%5&6&6&H*-*I*j*l*J*K*L*M*                ",
"              N*O*P*Q*R*S*T*A$%%B$&%=%C$-%5%P%P%>&R%5&r&P&4&-*I*j*l*x*y*U*V*W*                  ",
"          X*Y*Z*`* =.=+=@=%%#=&%*%C$-%4%t%P%Q%>&5&r&6&H*Q&1*j*j*$=K*%=&=*===                    ",
"      -=;=>=,='=)=      !=~={=]=^=/=t%P%Q%>&S%r&6&P&Q&-*I*j*$=(=_=:=<=[=                        ",
"    }=|=1=2=3=              8&4=5=6=7=8=9=,&i*P&H*1*0=a=b=c=d=e=f=g=h=                          ",
"                                i=j=k=l=m=n=s&o=p=q=r=s=t=u=v=w=x=                              ",
"                                      ==y=z=A=B=B=C=D=E=F=G=                                    ",
"                                                                                                ",
"                                                                                                "};
