/* XPM */
static char * sound_xpm[] = {
"48 48 899 2",
"  	c None",
". 	c #FBE749",
"+ 	c #FAE747",
"@ 	c #F9E544",
"# 	c #F9E543",
"$ 	c #F9E541",
"% 	c #F9E43F",
"& 	c #F8E43D",
"* 	c #F8E33C",
"= 	c #F8E33A",
"- 	c #F7E339",
"; 	c #F7E238",
"> 	c #F7E237",
", 	c #F7E235",
"' 	c #F8E448",
") 	c #FAE645",
"! 	c #F9E542",
"~ 	c #F9E540",
"{ 	c #F4DF3E",
"] 	c #DFCD3E",
"^ 	c #D1BF3D",
"/ 	c #C3B33B",
"( 	c #CCBB3C",
"_ 	c #E7D438",
": 	c #F6E134",
"< 	c #F6E133",
"[ 	c #F6E132",
"} 	c #F6E131",
"| 	c #F6E030",
"1 	c #F6E02F",
"2 	c #F5DF2E",
"3 	c #F5DF2B",
"4 	c #F6E247",
"5 	c #F9E648",
"6 	c #FAE646",
"7 	c #EAD73F",
"8 	c #968732",
"9 	c #7B6B20",
"0 	c #726317",
"a 	c #766825",
"b 	c #7B6E2F",
"c 	c #7F7339",
"d 	c #817533",
"e 	c #81741F",
"f 	c #837513",
"g 	c #897C1A",
"h 	c #958828",
"i 	c #A49533",
"j 	c #B2A438",
"k 	c #CABB38",
"l 	c #F3DC2B",
"m 	c #F5DF2A",
"n 	c #F5DF29",
"o 	c #F4DE27",
"p 	c #F4DD24",
"q 	c #FAE644",
"r 	c #A19232",
"s 	c #695A18",
"t 	c #70674B",
"u 	c #7C7575",
"v 	c #817E8B",
"w 	c #868290",
"x 	c #938F9C",
"y 	c #9A98A4",
"z 	c #9A97A3",
"A 	c #9D9AA7",
"B 	c #A29EAB",
"C 	c #A29FA3",
"D 	c #9F9A8E",
"E 	c #9D9678",
"F 	c #9A9162",
"G 	c #948842",
"H 	c #8D801A",
"I 	c #A29532",
"J 	c #CDBB36",
"K 	c #F2DC27",
"L 	c #F4DE26",
"M 	c #F4DD25",
"N 	c #F3DC21",
"O 	c #F1DA1C",
"P 	c #F6E143",
"Q 	c #F9E643",
"R 	c #AB9C32",
"S 	c #625732",
"T 	c #6A676E",
"U 	c #7B7883",
"V 	c #A19DA7",
"W 	c #A09EA8",
"X 	c #A09CA7",
"Y 	c #97939F",
"Z 	c #8F8C99",
"` 	c #93909D",
" .	c #9B98A4",
"..	c #A3A0AC",
"+.	c #AAA7B3",
"@.	c #B2B0BA",
"#.	c #B8B6BF",
"$.	c #BDBBC4",
"%.	c #C2C0C9",
"&.	c #C2BFC5",
"*.	c #ACA78B",
"=.	c #978D45",
"-.	c #8E811B",
";.	c #A59734",
">.	c #D0BE35",
",.	c #F3DC23",
"'.	c #F3DD24",
").	c #F2DA1D",
"!.	c #EED716",
"~.	c #CBB120",
"{.	c #F4E03C",
"].	c #615529",
"^.	c #5F5C64",
"/.	c #87858D",
"(.	c #99979F",
"_.	c #7E7A87",
":.	c #807C8A",
"<.	c #837F8D",
"[.	c #898593",
"}.	c #8C8896",
"|.	c #928F9B",
"1.	c #A3A0AB",
"2.	c #ABA8B3",
"3.	c #BAB8C1",
"4.	c #C1BEC7",
"5.	c #C6C5CD",
"6.	c #CBC9D0",
"7.	c #CFCED5",
"8.	c #CECCD0",
"9.	c #B3AE8F",
"0.	c #998F45",
"a.	c #90821C",
"b.	c #AA9C36",
"c.	c #E7D129",
"d.	c #F3DC20",
"e.	c #EFD81A",
"f.	c #D3BA25",
"g.	c #F8E33B",
"h.	c #CEBF37",
"i.	c #535054",
"j.	c #716F76",
"k.	c #8D8C92",
"l.	c #6F6B77",
"m.	c #787481",
"n.	c #7F7B89",
"o.	c #827E8C",
"p.	c #85818F",
"q.	c #888492",
"r.	c #8B8795",
"s.	c #8E8A98",
"t.	c #9793A0",
"u.	c #A09CA9",
"v.	c #A8A4B0",
"w.	c #AFADB7",
"x.	c #B6B4BE",
"y.	c #BEBCC5",
"z.	c #C5C2CB",
"A.	c #CBC9D1",
"B.	c #D1CFD6",
"C.	c #D4D3D9",
"D.	c #D8D6DC",
"E.	c #DDDCE1",
"F.	c #DBDADB",
"G.	c #B5AF8B",
"H.	c #928528",
"I.	c #B0A235",
"J.	c #EDD721",
"K.	c #F2DB1E",
"L.	c #EDD617",
"M.	c #CDB31E",
"N.	c #C0B139",
"O.	c #504E54",
"P.	c #919094",
"Q.	c #626069",
"R.	c #6B6873",
"S.	c #75717E",
"T.	c #7E7A88",
"U.	c #817D8B",
"V.	c #84808E",
"W.	c #878391",
"X.	c #898693",
"Y.	c #8C8996",
"Z.	c #93909C",
"`.	c #A4A0AC",
" +	c #ABA8B4",
".+	c #B3B0BA",
"++	c #C7C5CD",
"@+	c #CDCBD3",
"#+	c #D3D1D8",
"$+	c #D8D7DD",
"%+	c #DDDBE1",
"&+	c #DFDEE2",
"*+	c #E2E1E5",
"=+	c #E3E2E4",
"-+	c #B0AA81",
";+	c #918525",
">+	c #BAAB32",
",+	c #F1D91E",
"'+	c #F1D91D",
")+	c #EBD316",
"!+	c #C0A414",
"~+	c #E0CD32",
"{+	c #4B494F",
"]+	c #868589",
"^+	c #5F5C65",
"/+	c #68656F",
"(+	c #716E79",
"_+	c #7A7684",
":+	c #96939F",
"<+	c #9E9CA7",
"[+	c #A6A3AF",
"}+	c #ADABB5",
"|+	c #B5B2BC",
"1+	c #BBB9C2",
"2+	c #C8C7CE",
"3+	c #CECCD3",
"4+	c #D4D2D9",
"5+	c #E1E0E4",
"6+	c #E2E2E5",
"7+	c #DCDBDC",
"8+	c #A79F6E",
"9+	c #938724",
"0+	c #C5B52E",
"a+	c #F2DC1E",
"b+	c #EFD71B",
"c+	c #E8CE14",
"d+	c #B19409",
"e+	c #F5DF2D",
"f+	c #595546",
"g+	c #89888B",
"h+	c #5B5961",
"i+	c #64616B",
"j+	c #6D6A75",
"k+	c #76727F",
"l+	c #868390",
"m+	c #918D9B",
"n+	c #9896A2",
"o+	c #A19DA9",
"p+	c #A8A5B0",
"q+	c #AFACB7",
"r+	c #B6B3BD",
"s+	c #BCBAC3",
"t+	c #C2C0C8",
"u+	c #C8C6CE",
"v+	c #CDCCD3",
"w+	c #D3D1D7",
"x+	c #D7D5DB",
"y+	c #DAD9DF",
"z+	c #DEDDE2",
"A+	c #E0DFE3",
"B+	c #DCDBE0",
"C+	c #D0CECD",
"D+	c #9E955B",
"E+	c #988B29",
"F+	c #E1CD2A",
"G+	c #F1DB1E",
"H+	c #E8CF15",
"I+	c #DBC321",
"J+	c #F4DF29",
"K+	c #A29534",
"L+	c #7F7E82",
"M+	c #57555C",
"N+	c #605D66",
"O+	c #696570",
"P+	c #716E7A",
"Q+	c #7A7683",
"R+	c #878491",
"S+	c #8A8694",
"T+	c #8D8997",
"U+	c #9A96A3",
"V+	c #A19EAA",
"W+	c #A8A6B0",
"X+	c #BCB9C3",
"Y+	c #C1BFC7",
"Z+	c #C6C5CC",
"`+	c #CFCDD5",
" @	c #D3D2D8",
".@	c #D6D5DB",
"+@	c #D9D7DD",
"@@	c #DAD9DE",
"#@	c #D9D8DE",
"$@	c #D5D3D9",
"%@	c #BBB6A9",
"&@	c #91842B",
"*@	c #D0BD2F",
"=@	c #EBD218",
"-@	c #B39709",
";@	c #F4DE25",
">@	c #EBD624",
",@	c #76736A",
"'@	c #737277",
")@	c #64616A",
"!@	c #6D6974",
"~@	c #7D7987",
"{@	c #A19DAA",
"]@	c #AEABB6",
"^@	c #B4B2BB",
"/@	c #BAB7C1",
"(@	c #C4C1CA",
"_@	c #D0CFD5",
":@	c #D2D0D7",
"<@	c #CAC9CF",
"[@	c #C5C4CA",
"}@	c #C0BEBF",
"|@	c #91873B",
"1@	c #BAAA2F",
"2@	c #F2DB1D",
"3@	c #EED61C",
"4@	c #E2C712",
"5@	c #A18300",
"6@	c #D8BF19",
"7@	c #F3DD22",
"8@	c #B8A828",
"9@	c #9E9EA1",
"0@	c #5C5960",
"a@	c #5F5D65",
"b@	c #706C78",
"c@	c #83808D",
"d@	c #888592",
"e@	c #918E9B",
"f@	c #9996A3",
"g@	c #A5A3AE",
"h@	c #ABA9B3",
"i@	c #B1AEB9",
"j@	c #B6B4BD",
"k@	c #BBB8C2",
"l@	c #BFBCC5",
"m@	c #C3C0C9",
"n@	c #C5C3CB",
"o@	c #C8C5CD",
"p@	c #C9C7CF",
"q@	c #CAC9D0",
"r@	c #CAC8D0",
"s@	c #CAC8CF",
"t@	c #C5C3CA",
"u@	c #B5B3BA",
"v@	c #BAB8C0",
"w@	c #948B5A",
"x@	c #A49529",
"y@	c #E1C512",
"z@	c #A58702",
"A@	c #E7D01A",
"B@	c #F2DB1B",
"C@	c #F1DA17",
"D@	c #9D9349",
"E@	c #959397",
"F@	c #5A575F",
"G@	c #6A6772",
"H@	c #726F7B",
"I@	c #908C9A",
"J@	c #9D9AA6",
"K@	c #A2A0AB",
"L@	c #ADAAB5",
"M@	c #B1AFB9",
"N@	c #B5B3BC",
"O@	c #BEBCC4",
"P@	c #C0BEC6",
"Q@	c #C1BFC8",
"R@	c #A8A7AE",
"S@	c #B2B0B8",
"T@	c #98917D",
"U@	c #958625",
"V@	c #ECD51E",
"W@	c #EED51C",
"X@	c #E0C412",
"Y@	c #B09509",
"Z@	c #EED718",
"`@	c #F0D913",
" #	c #EED611",
".#	c #A09B7D",
"+#	c #6F6D73",
"@#	c #5D5A62",
"##	c #65626B",
"$#	c #6C6974",
"%#	c #74707D",
"&#	c #7B7785",
"*#	c #8A8794",
"=#	c #8E8B98",
"-#	c #9E9BA7",
";#	c #A3A1AC",
">#	c #A7A5B0",
",#	c #B2AFBA",
"'#	c #B4B2BC",
")#	c #B7B5BE",
"!#	c #9A979F",
"~#	c #A7A5AE",
"{#	c #97928A",
"]#	c #8F822F",
"^#	c #EFDA21",
"/#	c #ECD41C",
"(#	c #9A800E",
"_#	c #BCA00A",
":#	c #EED511",
"<#	c #EFD70C",
"[#	c #EAD30A",
"}#	c #A6A073",
"|#	c #636169",
"1#	c #66636D",
"2#	c #6E6A75",
"3#	c #7C7886",
"4#	c #66646E",
"5#	c #52515A",
"6#	c #4A4B53",
"7#	c #51515A",
"8#	c #55565F",
"9#	c #66646F",
"0#	c #7D7B86",
"a#	c #9794A0",
"b#	c #A19FAA",
"c#	c #A5A1AD",
"d#	c #A7A5AF",
"e#	c #AAA7B2",
"f#	c #ACAAB4",
"g#	c #AEABB5",
"h#	c #AAA8B2",
"i#	c #8A8790",
"j#	c #9B98A2",
"k#	c #8B836F",
"l#	c #9D8F3B",
"m#	c #F2DC1F",
"n#	c #E5CB17",
"o#	c #948024",
"p#	c #BC9F06",
"q#	c #EBD30A",
"r#	c #EED505",
"s#	c #EDD401",
"t#	c #B7AF7C",
"u#	c #6E6D72",
"v#	c #67646E",
"w#	c #6E6B76",
"x#	c #7C7885",
"y#	c #676671",
"z#	c #4D4D56",
"A#	c #575762",
"B#	c #5F5F6A",
"C#	c #62636E",
"D#	c #62626E",
"E#	c #5E5E69",
"F#	c #565661",
"G#	c #53535D",
"H#	c #75737D",
"I#	c #96929F",
"J#	c #9A97A4",
"K#	c #A09CA8",
"L#	c #A4A1AC",
"M#	c #A39FAB",
"N#	c #A19EA9",
"O#	c #9F9BA7",
"P#	c #9D99A5",
"Q#	c #76747C",
"R#	c #817856",
"S#	c #B8A839",
"T#	c #DFC313",
"U#	c #91802F",
"V#	c #BDA10A",
"W#	c #E6CD0A",
"X#	c #ECD300",
"Y#	c #EAD102",
"Z#	c #BEB476",
"`#	c #7D7A7D",
" $	c #74717D",
".$	c #7B7784",
"+$	c #64636E",
"@$	c #5E5F6A",
"#$	c #6B6B78",
"$$	c #757481",
"%$	c #7A7987",
"&$	c #7A7886",
"*$	c #747381",
"=$	c #6A6A77",
"-$	c #5D5D68",
";$	c #4E4E57",
">$	c #504F58",
",$	c #868491",
"'$	c #928E9B",
")$	c #94919D",
"!$	c #9693A0",
"~$	c #9895A1",
"{$	c #9995A2",
"]$	c #95919E",
"^$	c #898793",
"/$	c #6A6870",
"($	c #7D7346",
"_$	c #DFCA24",
":$	c #F0DA20",
"<$	c #D9BC10",
"[$	c #8F7F33",
"}$	c #B79B0E",
"|$	c #DEC415",
"1$	c #E9CF00",
"2$	c #E7CD00",
"3$	c #C4B444",
"4$	c #85807E",
"5$	c #73707C",
"6$	c #706D7A",
"7$	c #6F6F7C",
"8$	c #7F7E8C",
"9$	c #8C8998",
"0$	c #928F9E",
"a$	c #8A8897",
"b$	c #7E7C8A",
"c$	c #6D6D7A",
"d$	c #5C5C67",
"e$	c #4A4A52",
"f$	c #43444B",
"g$	c #807D8A",
"h$	c #8B8895",
"i$	c #8E8A97",
"j$	c #65626D",
"k$	c #787581",
"l$	c #807D88",
"m$	c #938533",
"n$	c #DEC314",
"o$	c #888A83",
"p$	c #8C8045",
"q$	c #A48A0E",
"r$	c #D6BD2A",
"s$	c #E6CB04",
"t$	c #E4C900",
"u$	c #CFB81B",
"v$	c #8E876B",
"w$	c #626068",
"x$	c #65636C",
"y$	c #7C7A88",
"z$	c #A19DAD",
"A$	c #AAA5B5",
"B$	c #A9A5B5",
"C$	c #A09CAB",
"D$	c #908D9C",
"E$	c #7C7B89",
"F$	c #686874",
"G$	c #54545E",
"H$	c #3F3F46",
"I$	c #4A4950",
"J$	c #56545D",
"K$	c #78705C",
"L$	c #E2CD23",
"M$	c #EFD81F",
"N$	c #D9BB10",
"O$	c #8A8460",
"P$	c #937C10",
"Q$	c #D0B837",
"R$	c #E2C824",
"S$	c #E1C500",
"T$	c #E0C400",
"U$	c #B6A650",
"V$	c #868175",
"W$	c #63606A",
"X$	c #696670",
"Y$	c #6F6C77",
"Z$	c #928E9D",
"`$	c #B4AFBF",
" %	c #C2BBCC",
".%	c #C1BACC",
"+%	c #B2ADBD",
"@%	c #9E9AA9",
"#%	c #878594",
"$%	c #70707D",
"%%	c #5A5A65",
"&%	c #45454D",
"*%	c #2F3035",
"=%	c #7B7885",
"-%	c #7F7C89",
";%	c #58565F",
">%	c #76737E",
",%	c #736F7A",
"'%	c #B4A32A",
")%	c #D9BC11",
"!%	c #888774",
"~%	c #88751E",
"{%	c #B09926",
"]%	c #DAC652",
"^%	c #DFC413",
"/%	c #DDC000",
"(%	c #D7BB10",
"_%	c #A89C5C",
":%	c #7A7673",
"<%	c #948F9D",
"[%	c #D0C8DB",
"}%	c #D4CCDE",
"|%	c #BDB7C8",
"1%	c #A5A1B1",
"2%	c #8D8A99",
"3%	c #484850",
"4%	c #323237",
"5%	c #797582",
"6%	c #7A7784",
"7%	c #777380",
"8%	c #615D67",
"9%	c #605D67",
"0%	c #A4963B",
"a%	c #D9BD12",
"b%	c #8A8B86",
"c%	c #878057",
"d%	c #897418",
"e%	c #C9B75C",
"f%	c #DDC953",
"g%	c #DBBE08",
"h%	c #D9BA00",
"i%	c #CCB317",
"j%	c #9C8F5B",
"k%	c #706C70",
"l%	c #726E79",
"m%	c #9E9AA8",
"n%	c #ACA8B7",
"o%	c #A39FAF",
"p%	c #747380",
"q%	c #47484F",
"r%	c #5C5A64",
"s%	c #797683",
"t%	c #59565E",
"u%	c #5A5760",
"v%	c #615F68",
"w%	c #B1A337",
"x%	c #F2DB1C",
"y%	c #DCC012",
"z%	c #888A84",
"A%	c #9C9F99",
"B%	c #868783",
"C%	c #888981",
"D%	c #827846",
"E%	c #97832C",
"F%	c #D4C67C",
"G%	c #E3D067",
"H%	c #D8BB0F",
"I%	c #D5B500",
"J%	c #C1A920",
"K%	c #908459",
"L%	c #716D70",
"M%	c #65626C",
"N%	c #706D79",
"O%	c #74707C",
"P%	c #6A6773",
"Q%	c #716D79",
"R%	c #75727E",
"S%	c #726E7A",
"T%	c #6B6872",
"U%	c #48464C",
"V%	c #5C5962",
"W%	c #CCB926",
"X%	c #D2B60F",
"Y%	c #858784",
"Z%	c #969894",
"`%	c #7B7C77",
" &	c #6F716C",
".&	c #858782",
"+&	c #828276",
"@&	c #7C7036",
"#&	c #97852F",
"$&	c #DED297",
"%&	c #E8D983",
"&&	c #D6B817",
"*&	c #D1B000",
"=&	c #CAAC0C",
"-&	c #A69440",
";&	c #897E5B",
">&	c #6C696C",
",&	c #6A6771",
"'&	c #6C6873",
")&	c #6A6671",
"!&	c #56545B",
"~&	c #454449",
"{&	c #545258",
"]&	c #857B3D",
"^&	c #F0D914",
"/&	c #F1DA19",
"(&	c #CAAE0C",
"_&	c #858681",
":&	c #828480",
"<&	c #A0A29D",
"[&	c #4D504D",
"}&	c #4C4F4B",
"|&	c #70736F",
"1&	c #80827D",
"2&	c #7B7A69",
"3&	c #766827",
"4&	c #9B8834",
"5&	c #E0D59B",
"6&	c #E8D98F",
"7&	c #D9C03D",
"8&	c #CFAE02",
"9&	c #CEAD00",
"0&	c #C4A716",
"a&	c #A39140",
"b&	c #867D5B",
"c&	c #6E6A6E",
"d&	c #625F68",
"e&	c #615E67",
"f&	c #5B5860",
"g&	c #58565D",
"h&	c #4D4C52",
"i&	c #454348",
"j&	c #4E4C52",
"k&	c #79703A",
"l&	c #E5CE11",
"m&	c #DEC411",
"n&	c #7F817D",
"o&	c #868984",
"p&	c #8B8E89",
"q&	c #383936",
"r&	c #4D4F4C",
"s&	c #72736F",
"t&	c #7A7C78",
"u&	c #76735A",
"v&	c #726426",
"w&	c #7C6815",
"x&	c #B7A656",
"y&	c #DBCC85",
"z&	c #DCC864",
"A&	c #D2B51F",
"B&	c #CEAC00",
"C&	c #CFAE00",
"D&	c #C6AA0E",
"E&	c #A08F40",
"F&	c #8C8153",
"G&	c #81795C",
"H&	c #767065",
"I&	c #6A666B",
"J&	c #63616A",
"K&	c #5E5C64",
"L&	c #5B5861",
"M&	c #59575E",
"N&	c #525056",
"O&	c #4C4A4F",
"P&	c #4D4B4A",
"Q&	c #756C36",
"R&	c #BAA917",
"S&	c #EED608",
"T&	c #EFD70D",
"U&	c #EAD10F",
"V&	c #A89107",
"W&	c #7C807B",
"X&	c #797C78",
"Y&	c #8A8D88",
"Z&	c #838682",
"`&	c #2E2F2D",
" *	c #323431",
".*	c #50514E",
"+*	c #71736E",
"@*	c #757772",
"#*	c #71726B",
"$*	c #6E6848",
"%*	c #6B5E23",
"&*	c #806D1D",
"**	c #B9A752",
"=*	c #D2BE63",
"-*	c #D6BE49",
";*	c #D4B724",
">*	c #D1B307",
",*	c #D3B300",
"'*	c #D5B600",
")*	c #D6B702",
"!*	c #CEB312",
"~*	c #C1AA1C",
"{*	c #AF9C26",
"]*	c #9D8E2E",
"^*	c #928530",
"/*	c #A4931E",
"(*	c #B09D18",
"_*	c #C1AD10",
":*	c #E5CC02",
"<*	c #ECD200",
"[*	c #EDD402",
"}*	c #D5BC08",
"|*	c #8D7804",
"1*	c #777A76",
"2*	c #747773",
"3*	c #7E817D",
"4*	c #888C88",
"5*	c #3E403D",
"6*	c #252624",
"7*	c #282928",
"8*	c #464744",
"9*	c #5D5E5A",
"0*	c #6B6D6A",
"a*	c #6C6E69",
"b*	c #686962",
"c*	c #666142",
"d*	c #645821",
"e*	c #725F10",
"f*	c #A18A24",
"g*	c #C3AA34",
"h*	c #CDB32F",
"i*	c #D3B521",
"j*	c #D4B510",
"k*	c #D6B606",
"l*	c #D9BB01",
"m*	c #DDBF00",
"n*	c #DFC200",
"o*	c #E3C700",
"p*	c #E5CA00",
"q*	c #E8CE00",
"r*	c #C7B002",
"s*	c #9F8902",
"t*	c #594A01",
"u*	c #717471",
"v*	c #6E716E",
"w*	c #747774",
"x*	c #858986",
"y*	c #626562",
"z*	c #2F3130",
"A*	c #1F201E",
"B*	c #232422",
"C*	c #272726",
"D*	c #2C2D2B",
"E*	c #404240",
"F*	c #555653",
"G*	c #636461",
"H*	c #626460",
"I*	c #5F605A",
"J*	c #5E593D",
"K*	c #5E5321",
"L*	c #5D4F11",
"M*	c #665407",
"N*	c #846D08",
"O*	c #988007",
"P*	c #A88D03",
"Q*	c #AF9303",
"R*	c #B3980A",
"S*	c #B79E0F",
"T*	c #B8A011",
"U*	c #AB950E",
"V*	c #9A860A",
"W*	c #887502",
"X*	c #645400",
"Y*	c #6C6F6C",
"Z*	c #696C69",
"`*	c #676B68",
" =	c #707471",
".=	c #787C79",
"+=	c #595D5B",
"@=	c #2F312F",
"#=	c #1B1C1B",
"$=	c #1D1E1C",
"%=	c #212220",
"&=	c #292A29",
"*=	c #3C3D3B",
"==	c #4C4E4A",
"-=	c #515450",
";=	c #535551",
">=	c #545652",
",=	c #555753",
"'=	c #565549",
")=	c #56533B",
"!=	c #565134",
"~=	c #555031",
"{=	c #554F2E",
"]=	c #544D29",
"^=	c #524C25",
"/=	c #51491F",
"(=	c #666A67",
"_=	c #636764",
":=	c #606362",
"<=	c #5D6261",
"[=	c #666A68",
"}=	c #686E6C",
"|=	c #626765",
"1=	c #4B4E4C",
"2=	c #333636",
"3=	c #282B2A",
"4=	c #262827",
"5=	c #242624",
"6=	c #272927",
"7=	c #2E302F",
"8=	c #323635",
"9=	c #353B3C",
"0=	c #333839",
"a=	c #616463",
"b=	c #5D615F",
"c=	c #5A5E5D",
"d=	c #575B5A",
"e=	c #545857",
"f=	c #535756",
"g=	c #545858",
"h=	c #535858",
"i=	c #4F5555",
"j=	c #4B5151",
"k=	c #474C4D",
"l=	c #424648",
"m=	c #3B4142",
"n=	c #373C3E",
"o=	c #32393A",
"p=	c #595C5B",
"q=	c #555958",
"r=	c #515655",
"s=	c #4E5352",
"t=	c #4B4F4F",
"u=	c #474C4C",
"v=	c #444949",
"w=	c #414646",
"x=	c #3D4343",
"y=	c #3A3F40",
"z=	c #33393B",
"A=	c #484D4D",
"B=	c #454A4A",
"C=	c #424747",
"D=	c #3F4444",
"E=	c #3B4041",
"F=	c #373D3F",
"                                                                                                ",
"                                                                                                ",
"                                                                                                ",
"                                                                                                ",
"            . + @ # $ % & * = - ; > ,                                                           ",
"        ' + ) ! ~ { ] ^ / ( _ : < [ } | 1 2 3                                                   ",
"    4 5 6 # 7 8 9 0 a b c d e f g h i j k l m n o p                                             ",
"    + q $ r s t u v w x y z A B C D E F G H I J K L M N O                                       ",
"  P Q ~ R S T U V W X Y Z `  ...+.@.#.$.%.&.*.=.-.;.>.,.'.).!.                                  ",
"~.# % {.].^./.(._.:.<.w [.}.|.z 1.2.@.3.4.5.6.7.8.9.0.a.b.c.d.e.                                ",
"f.% g.h.i.j.k.l.m.n.o.p.q.r.s.t.u.v.w.x.y.z.A.B.C.D.E.F.G.H.I.J.K.L.                            ",
"M.g.; N.O.P.Q.R.S.T.U.V.W.X.Y.Z. .`. +.+3.4.++@+#+$+%+&+*+=+-+;+>+,+'+)+                        ",
"!+> : ~+{+]+^+/+(+_+n.o.p.q.r.s.:+<+[+}+|+1+%.2+3+4+$+E.5+5+6+7+8+9+0+a+b+c+                    ",
"d+: | e+f+g+h+i+j+k+T.U.V.l+[.}.m+n+o+p+q+r+s+t+u+v+w+x+y+z+A+E.B+C+D+E+F+G+H+                  ",
"  I+e+J+K+L+M+N+O+P+Q+n.o.p.R+S+T+|.U+V+W+q+r+X+Y+Z+6.`+ @.@+@@@#@w+$@%@&@*@a+=@                ",
"  -@J+;@>@,@'@h+)@!@S.~@:.<.w q.r.T+|.U+{@p+]@^@/@y.(@++A.3+_@:@w+w+<@[@}@|@1@2@3@4@            ",
"  5@6@7@a+8@9@0@a@/+b@m.T.U.c@w d@r.T+e@f@u.g@h@i@j@k@l@m@n@o@p@q@r@s@t@u@v@w@x@'+3@y@          ",
"    z@A@B@C@D@E@F@Q.G@H@_+n.U.V.w [.r.T+I@t.J@K@p+L@M@N@#.X+O@P@Q@Y+Y+P@O@R@S@T@U@V@W@X@        ",
"      Y@Z@`@ #.#+#@###$#%#&#n.o.V.w q.*#Y.=#` n+-#;#>#h@w.,#'#j@)##.#.)#j@^@!#~#{#]#^#/#        ",
"      (#_#:#<#[#}#|#^.1#2#S.3#n.o.V.4#5#6#7#8#9#0#a#J@b#c#d#e#f#}+]@g#g#f#h#p+i#j#k#l#m#n#      ",
"        o#p#q#r#s#t#u#N+v#w#S.x#n.y#z#A#B#C#D#E#F#G#H#I#J#J@K#V+..L#L#L#M#N#O#P#Q#|.R#S#d.T#    ",
"          U#V#W#X#Y#Z#`#N+v#w# $.$+$@$#$$$%$&$*$=$-$;$>$,$'$)$!$~$~${$~$~$t.]$x ^$/$q.($_$:$<$  ",
"            [$}$|$1$2$3$4$N+v#j+5$6$7$8$9$0$0$a$b$c$d$e$f$g$r.h$Y.T+i$T+T+}.S+q.w j$k$l$m$d.n$  ",
"            o$p$q$r$s$t$u$v$w$x$R.(+y$0$z$A$B$C$D$E$F$G$H$I$q.q.q.q.q.W.l+w p.V.<.:.J$T.K$L$M$N$",
"                O$P$Q$R$S$T$U$V$W$X$Y$Z$`$ %.%+%@%#%$%%%&%*%=%p.p.p.V.V.<.<.o.U.-%T.;%>%,%'%d.)%",
"                  !%~%{%]%^%/%(%_%:%1#R.<%[%}%|%1%2%$$E#3%4%5%v v U.U.U.:.n.T.T.6%7%8%9%G@0%a+a%",
"                    b%c%d%e%f%g%h%i%j%k%1#l%m%n%o%9$p%-$q%r%T.T.T.T.T.~@&#s%7% $(+2#t%u%v%w%x%y%",
"                  z%A%B%C%D%E%F%G%H%I%J%K%L%M%/+N%O%N%P%Q% $R%k+k+R% $5$S%b@2#T%/+##U%V%t%W%B@X%",
"                  Y%Z%`% &.&+&@&#&$&%&&&*&=&-&;&>&i+1#/+,&T%'&$#$#R.T%)&/+1#i+v%^.!&~&{&]&^&/&(&",
"                  _&:&<&[&}&|&1&2&3&4&5&6&7&8&9&0&a&b&c&d&e&d&d&d&d&e&N+^.@#f&g&h&i&j&k&l&`@m&  ",
"                    n&o&p&q&q&r&s&t&u&v&w&x&y&z&A&B&C&D&E&F&G&H&I&J&K&L&M&!&N&O&P&Q&R&S&T&U&V&  ",
"                    W&X&Y&Z&q&`& *.*+*@*#*$*%*&***=*-*;*>*,*'*)*!*~*{*]*^*/*(*_*:*<*[*S&}*|*    ",
"                      1*2*3*4*5*6*7*`&8*9*0*a*b*c*d*e*f*g*h*i*j*k*l*m*n*S$o*p*2$1$q*r*s*t*      ",
"                        u*v*w*x*y*z*A*B*C*D*E*F*G*H*I*J*K*L*M*N*O*P*Q*R*S*T*U*V*W*X*            ",
"                          Y*Z*`* =.=+=@=#=$=%=6*&=*===-=;=>=,='=)=!=~={=]=^=/=                  ",
"                            (=_=:=<=[=}=|=1=2=3=4=5=6=7=8=9=0=                                  ",
"                              a=b=c=d=e=f=g=h=i=j=k=l=m=n=o=                                    ",
"                                  p=q=r=s=t=u=v=w=x=y=n=z=                                      ",
"                                          A=B=C=D=E=F=                                          ",
"                                                                                                ",
"                                                                                                ",
"                                                                                                ",
"                                                                                                ",
"                                                                                                ",
"                                                                                                ",
"                                                                                                ",
"                                                                                                ",
"                                                                                                "};
