/* XPM */
static char * sound_volume_xpm[] = {
"48 48 289 2",
"  	c None",
". 	c #5C5D5A",
"+ 	c #5E615C",
"@ 	c #5A5D59",
"# 	c #565854",
"$ 	c #60635E",
"% 	c #5D5F5A",
"& 	c #585A55",
"* 	c #5B5D5A",
"= 	c #5D5F5B",
"- 	c #595B57",
"; 	c #595C57",
"> 	c #7A7E78",
", 	c #A0A29D",
"' 	c #B2B5AF",
") 	c #C6CAC4",
"! 	c #D6DAD2",
"~ 	c #DADCD6",
"{ 	c #D7D9D2",
"] 	c #CBCFC7",
"^ 	c #B6BAB1",
"/ 	c #A1A59B",
"( 	c #8D9188",
"_ 	c #5F615D",
": 	c #5A5C57",
"< 	c #868A83",
"[ 	c #C5C8C2",
"} 	c #E1E3DE",
"| 	c #EAEBE8",
"1 	c #EEEEEC",
"2 	c #EAEAE8",
"3 	c #E2E3DE",
"4 	c #CBCEC7",
"5 	c #9BA096",
"6 	c #6B6D67",
"7 	c #5A5C56",
"8 	c #5B5C58",
"9 	c #585B56",
"0 	c #828480",
"a 	c #CFD1CA",
"b 	c #E4E5E1",
"c 	c #EDEDEB",
"d 	c #E3E4E1",
"e 	c #C9CEC4",
"f 	c #A8AEA2",
"g 	c #AAB0A3",
"h 	c #B9BEB2",
"i 	c #BCC1B5",
"j 	c #858A80",
"k 	c #585A56",
"l 	c #5C5E5A",
"m 	c #858782",
"n 	c #D8DBD4",
"o 	c #ECECE9",
"p 	c #ECECEA",
"q 	c #CBCFC6",
"r 	c #878C82",
"s 	c #585C57",
"t 	c #828580",
"u 	c #D9DCD5",
"v 	c #EDEDEA",
"w 	c #ECEDEA",
"x 	c #B5BBAD",
"y 	c #898E84",
"z 	c #656963",
"A 	c #D2D6CE",
"B 	c #EBEBE8",
"C 	c #DCDED9",
"D 	c #AFB6A7",
"E 	c #8C9086",
"F 	c #4F6070",
"G 	c #586065",
"H 	c #A4A7A0",
"I 	c #D9DCD4",
"J 	c #8E9287",
"K 	c #50606F",
"L 	c #3465A4",
"M 	c #3465A3",
"N 	c #585D5E",
"O 	c #C4C7BF",
"P 	c #E0E2DD",
"Q 	c #B8BEB0",
"R 	c #909489",
"S 	c #50606E",
"T 	c #3564A1",
"U 	c #575A57",
"V 	c #DEE1DB",
"W 	c #B3BAAC",
"X 	c #92988D",
"Y 	c #53606A",
"Z 	c #3365A4",
"` 	c #3C6291",
" .	c #696E6C",
"..	c #D3D7CF",
"+.	c #DADDD7",
"@.	c #EFEFEE",
"#.	c #E3E5E0",
"$.	c #B3BAAB",
"%.	c #A2A99B",
"&.	c #575B5A",
"*.	c #3363A1",
"=.	c #3365A3",
"-.	c #3466A4",
";.	c #445F7D",
">.	c #8D8F8B",
",.	c #DBDFD8",
"'.	c #F4F4F3",
").	c #EFEFED",
"!.	c #F1F1EF",
"~.	c #EAECE8",
"{.	c #B0B7A8",
"].	c #ADB4A5",
"^.	c #595C59",
"/.	c #355D90",
"(.	c #32619D",
"_.	c #3364A2",
":.	c #31619D",
"<.	c #5D605E",
"[.	c #AAADA7",
"}.	c #EDEFEB",
"|.	c #FBFBFA",
"1.	c #F0F0EE",
"2.	c #F3F3F1",
"3.	c #FBFBFB",
"4.	c #C7CCC1",
"5.	c #6B6F69",
"6.	c #3D5775",
"7.	c #2F5C96",
"8.	c #315F9B",
"9.	c #3363A0",
"0.	c #305F9B",
"a.	c #5A5B58",
"b.	c #C6CAC2",
"c.	c #F2F2F0",
"d.	c #F6F6F4",
"e.	c #FCFCFB",
"f.	c #C5CBC0",
"g.	c #B2B9AA",
"h.	c #83887D",
"i.	c #4D504D",
"j.	c #294F80",
"k.	c #2F5B94",
"l.	c #315F9A",
"m.	c #32629F",
"n.	c #31609B",
"o.	c #E5E7E2",
"p.	c #FBFCFB",
"q.	c #FAFAFA",
"r.	c #F6F6F5",
"s.	c #FDFDFB",
"t.	c #EFF0ED",
"u.	c #C3C9BE",
"v.	c #B4BBAD",
"w.	c #93998B",
"x.	c #575954",
"y.	c #294F82",
"z.	c #33629F",
"A.	c #787B76",
"B.	c #FDFDFD",
"C.	c #F9F9F9",
"D.	c #F7F7F6",
"E.	c #F5F5F4",
"F.	c #F6F6F6",
"G.	c #F7F8F6",
"H.	c #FAFBF9",
"I.	c #E6E8E3",
"J.	c #C6CBC0",
"K.	c #B9BFB2",
"L.	c #B6BDAF",
"M.	c #9FA697",
"N.	c #575955",
"O.	c #2C558A",
"P.	c #3464A3",
"Q.	c #305C96",
"R.	c #50514E",
"S.	c #979A94",
"T.	c #D6DAD3",
"U.	c #DCDFD8",
"V.	c #DFE3DD",
"W.	c #E4E7E2",
"X.	c #EBEDE9",
"Y.	c #E6E8E4",
"Z.	c #D5D9D1",
"`.	c #CCD0C7",
" +	c #C1C7BB",
".+	c #BDC3B7",
"++	c #BBC1B4",
"@+	c #ABB2A2",
"#+	c #2E5990",
"$+	c #32609C",
"%+	c #595C58",
"&+	c #AFB3AC",
"*+	c #CFD4CB",
"=+	c #CDD2C9",
"-+	c #C9CDC3",
";+	c #C6CBC1",
">+	c #C4C9BE",
",+	c #C2C7BC",
"'+	c #BFC5B9",
")+	c #2C548A",
"!+	c #2F5A93",
"~+	c #315E99",
"{+	c #C8CCC3",
"]+	c #6B6F67",
"^+	c #373935",
"/+	c #264979",
"(+	c #305D97",
"_+	c #3462A2",
":+	c #315E9A",
"<+	c #5C5E5B",
"[+	c #7B8077",
"}+	c #424441",
"|+	c #2D578E",
"1+	c #3464A4",
"2+	c #305E99",
"3+	c #737670",
"4+	c #8A8F84",
"5+	c #50514D",
"6+	c #2D578D",
"7+	c #2F5B93",
"8+	c #7A7C78",
"9+	c #8C9186",
"0+	c #50544F",
"a+	c #3565A5",
"b+	c #31609A",
"c+	c #666864",
"d+	c #80857A",
"e+	c #454643",
"f+	c #C3C8C0",
"g+	c #62645E",
"h+	c #353533",
"i+	c #C90000",
"j+	c #CC0000",
"k+	c #4F514E",
"l+	c #8B8E89",
"m+	c #979D90",
"n+	c #565855",
"o+	c #2D5991",
"p+	c #B8BBB5",
"q+	c #AAB0A2",
"r+	c #60635D",
"s+	c #3B3D39",
"t+	c #A10000",
"u+	c #5E605D",
"v+	c #C6C9C2",
"w+	c #AEB5A6",
"x+	c #6F726C",
"y+	c #4E4F4C",
"z+	c #CB0000",
"A+	c #4A4C47",
"B+	c #BCBFB8",
"C+	c #AEB4A6",
"D+	c #6A6E67",
"E+	c #535451",
"F+	c #90938D",
"G+	c #C9CDC6",
"H+	c #92978D",
"I+	c #5E605B",
"J+	c #4B4D4A",
"K+	c #51534E",
"L+	c #5A5C58",
"M+	c #878983",
"N+	c #C2C6BE",
"O+	c #B6BCB0",
"P+	c #8C9087",
"Q+	c #5C5E59",
"R+	c #535652",
"S+	c #4A4D48",
"T+	c #5A5B57",
"U+	c #797B77",
"V+	c #9C9F99",
"W+	c #AEB2AA",
"X+	c #BFC2BB",
"Y+	c #CCD1C8",
"Z+	c #C5CAC0",
"`+	c #B7BDB2",
" @	c #A6ABA2",
".@	c #959A91",
"+@	c #80847D",
"@@	c #595B56",
"#@	c #52534F",
"$@	c #414341",
"%@	c #51524F",
"&@	c #595A56",
"*@	c #5D5F5C",
"=@	c #6B6D68",
"-@	c #61635F",
";@	c #515450",
">@	c #444643",
"                                                                                                ",
"                                                                                                ",
"                                                                                                ",
"                                                                                                ",
"                                                                                                ",
"                                                                                                ",
"                                . + @ # $ % & * = -                                             ",
"                          - ; > , ' ) ! ~ { ] ^ / ( _ *                                         ",
"                      . : < [ } | 1 1 1 1 1 1 1 2 3 4 5 6 7 8 - & 9                             ",
"                    . 0 a b c 1 1 1 1 1 1 1 1 1 1 1 1 d e f g h i j k                           ",
"                  l m n o 1 1 1 1 1 1 1 1 1 1 1 1 1 1 1 1 p 1 1 q r s                           ",
"                l t u v 1 1 1 1 1 1 1 1 1 1 1 1 1 1 1 1 1 1 1 w x y 8                           ",
"                z A B 1 1 1 1 1 1 1 1 1 1 1 1 1 1 1 1 1 1 1 1 C D E F                           ",
"              G H I 1 1 1 1 1 1 1 1 1 1 1 1 1 1 1 1 1 1 1 1 1 b D J K L M                       ",
"            M N O P 1 1 1 1 1 1 1 1 1 1 1 1 1 1 1 1 1 1 1 1 1 1 Q R S L L L L                   ",
"          L T U A V 1 1 1 1 1 1 1 1 1 1 1 1 1 1 1 1 1 1 1 1 1 c W X Y L L L L L                 ",
"        Z L `  ...+.@.1 1 1 1 1 1 1 1 1 1 1 1 1 1 1 1 1 1 1 1 #.$.%.&.*.L L L L L =.            ",
"      -.L L ;.>...,.'.).1 1 1 1 1 1 1 1 1 1 1 1 1 1 1 1 1 1 !.~.{.].^./.(._.L L L L -.          ",
"      L L :.<.[.....}.|.1.1 1 1 1 1 1 1 1 1 1 1 1 1 1 1 1 2.3.4.D ].5.6.7.8.9.L L L L           ",
"    M L 0.  a.b.......| 3.c.1 1 1 1 1 1 1 1 1 1 1 1 1 ).d.e.f.g.D ].h.i.j.k.l.m.L L L L         ",
"  L L n.    _ ..........o.p.q.'.1 1 1 1 1 1 1 1 1 1.r.s.t.u.v.g.D ].w.x.  y.k.l.z.L L L Z       ",
"  L 9.      A...............} d.B.C.D.r.'.E.F.G.H.B.I.J.K.L.v.g.D ].M.N.    O.k.l.*.L L L       ",
"  P.Q.    R.S...................T.U.V.W.X.Y.V Z.`. +.+++K.L.v.g.D ].@+#       #+Q.$+M L L L     ",
"  z.      %+&+....................A *+=+q -+;+>+,+'+.+++K.L.v.g.D ].@++       )+!+~+9.L L L     ",
"-.8.      k {+....................A *+=+q -+;+>+,+'+.+++K.L.v.g.D ].@+]+^+    /+#+(+(.L L L L   ",
"_+:+      <+......................A *+=+q -+;+>+,+'+.+++K.L.v.g.D ].@+[+}+      |+k.n.M L L 1+  ",
"  2+      3+......................A *+=+q -+;+>+,+'+.+++K.L.v.g.D ].@+4+5+      6+7+l._.L L L   ",
"  2+      8+......................A *+=+q -+;+>+,+'+.+++K.L.v.g.D ].@+9+0+              =.=.a+  ",
"  b+      c+......................A *+=+q -+;+>+,+'+.+++K.L.v.g.D ].@+d+e+                      ",
"  l.      - f+....................A *+=+q -+;+>+,+'+.+++K.L.v.g.D ].@+g+h+    i+j+j+j+j+j+j+    ",
"    6+    k+l+....................A *+=+q -+;+>+,+'+.+++K.L.v.g.D ].m+n+      j+j+j+j+j+j+j+j+j+",
"    o+      : p+..................A *+=+q -+;+>+,+'+.+++K.L.v.g.D q+r+s+    t+j+j+j+j+j+j+j+j+j+",
"              u+v+................A *+=+q -+;+>+,+'+.+++K.L.v.g.w+x+y+          i+j+j+j+j+j+j+z+",
"              A++ B+..............A *+=+q -+;+>+,+'+.+++K.L.v.C+D+E+              j+j+j+j+j+j+j+",
"                  8 F+G+..........A *+=+q -+;+>+,+'+.+++K.v.H+I+J+                    j+j+j+j+  ",
"                    K+L+M+N+......A *+=+q -+;+>+,+'+.+O+P+Q+R+                          j+j+j+  ",
"                        S+T+U+V+W+X+Y+=+q -+Z+`+ @.@+@@@#@                                  j+  ",
"                            $@%@&@L+# *@=@-@N.@@k ;@>@                                          ",
"                                                                                                ",
"                                                                                                ",
"                                                                                                ",
"                                                                                                ",
"                                                                                                ",
"                                                                                                ",
"                                                                                                ",
"                                                                                                ",
"                                                                                                ",
"                                                                                                "};
