/* XPM */
static char * sqlitebrowser_xpm[] = {
"48 48 134 2",
"  	c None",
". 	c #333333",
"+ 	c #646464",
"@ 	c #777777",
"# 	c #8C8C8C",
"$ 	c #A5A5A5",
"% 	c #BABABA",
"& 	c #CBCBCB",
"* 	c #D9D9D9",
"= 	c #E4E4E4",
"- 	c #EAEAEA",
"; 	c #EEEEEE",
"> 	c #4A4A4A",
", 	c #989898",
"' 	c #C5C5C5",
") 	c #EBEBEB",
"! 	c #FBFBFB",
"~ 	c #F6F6F6",
"{ 	c #F1F1F1",
"] 	c #EDEDED",
"^ 	c #E7E7E7",
"/ 	c #E1E1E1",
"( 	c #DFDFDF",
"_ 	c #DEDEDE",
": 	c #6A6A6A",
"< 	c #929292",
"[ 	c #A8A8A8",
"} 	c #C3C3C3",
"| 	c #E8E8E8",
"1 	c #E2E2E2",
"2 	c #E0E0E0",
"3 	c #585858",
"4 	c #BCBCBC",
"5 	c #D7D7D7",
"6 	c #969696",
"7 	c #7B7B7B",
"8 	c #F7F7F7",
"9 	c #FFFFFF",
"0 	c #595959",
"a 	c #FDFDFD",
"b 	c #EFEFEF",
"c 	c #5D5D5D",
"d 	c #AFAFAF",
"e 	c #F5F5F5",
"f 	c #ECECEC",
"g 	c #E9E9E9",
"h 	c #E6E6E6",
"i 	c #E3E3E3",
"j 	c #484848",
"k 	c #FEFEFE",
"l 	c #FCFCFC",
"m 	c #F9F9F9",
"n 	c #F4F4F4",
"o 	c #F2F2F2",
"p 	c #F0F0F0",
"q 	c #5B5B5B",
"r 	c #A7A7A7",
"s 	c #B1B1B1",
"t 	c #787878",
"u 	c #A3A3A3",
"v 	c #B9B9B9",
"w 	c #D1D1D1",
"x 	c #BDBDBD",
"y 	c #B5B5B5",
"z 	c #868686",
"A 	c #959595",
"B 	c #A1A1A1",
"C 	c #A6A6A6",
"D 	c #B8B8B8",
"E 	c #C8C8C8",
"F 	c #E5E5E5",
"G 	c #878787",
"H 	c #DDDDDD",
"I 	c #D5D5D5",
"J 	c #B4B4B4",
"K 	c #B2B2B2",
"L 	c #B3B3B3",
"M 	c #AEAEAE",
"N 	c #A9A9A9",
"O 	c #AAAAAA",
"P 	c #9A9A9A",
"Q 	c #909090",
"R 	c #858585",
"S 	c #737373",
"T 	c #6C6C6C",
"U 	c #686868",
"V 	c #D6D6D6",
"W 	c #C9C9C9",
"X 	c #B7B7B7",
"Y 	c #B6B6B6",
"Z 	c #C4C4C4",
"` 	c #D8D8D8",
" .	c #CFCFCF",
"..	c #C1C1C1",
"+.	c #BFBFBF",
"@.	c #BEBEBE",
"#.	c #DCDCDC",
"$.	c #3D3D3D",
"%.	c #838383",
"&.	c #D0D0D0",
"*.	c #F8F8F8",
"=.	c #F3F3F3",
"-.	c #828282",
";.	c #ADADAD",
">.	c #8D8D8D",
",.	c #9B9B9B",
"'.	c #616161",
").	c #DADADA",
"!.	c #797979",
"~.	c #8B8B8B",
"{.	c #9F9F9F",
"].	c #CECECE",
"^.	c #CDCDCD",
"/.	c #ABABAB",
"(.	c #9C9C9C",
"_.	c #7F7F7F",
":.	c #727272",
"<.	c #676767",
"[.	c #606060",
"}.	c #DBDBDB",
"|.	c #D3D3D3",
"1.	c #CCCCCC",
"2.	c #C6C6C6",
"3.	c #B0B0B0",
"4.	c #D4D4D4",
"5.	c #CACACA",
"6.	c #C7C7C7",
"7.	c #FAFAFA",
"8.	c #4C4C4C",
"9.	c #323232",
"0.	c #636363",
"a.	c #767676",
"b.	c #8A8A8A",
"c.	c #A4A4A4",
"                                                                                                ",
"                                                                                                ",
"                                                                                                ",
"                                                                                                ",
"                                                                                                ",
"                                                                                                ",
"                                                                                                ",
"                                                                                                ",
"                                                                                                ",
"                                                                                                ",
"                                                                                                ",
"                          . + @ # $ % & * = - ; ; - = * & % $ # @ + .                           ",
"                > @ , ' ) ! ~ { ] - ^ = / ( _ _ _ _ ( / = ^ - ] { ~ ! ) ' , @ >                 ",
"        : < [ } | ] ^ 1 ( _ _ ( ( ( ( ( ( ( ( 2 2 ( ( ( ( ( ( ( ( _ _ ( 1 ^ ] | } [ < :         ",
"    3 4 5 _ 1 2 ( ( ( ( 2 2 2 2 2 2 2 2 2 2 2 2 2 2 2 2 2 2 2 2 2 2 2 2 ( ( ( ( 2 1 _ 5 4 3     ",
"  6 = / ( 2 2 2 2 2 2 2 2 2 2 2 2 2 2 2 2 2 2 2 2 2 2 2 2 2 2 2 2 2 2 2 2 2 2 2 2 2 2 ( / = 6   ",
"7 8 ( ( 2 2 2 2 2 2 2 2 2 2 2 2 2 2 2 2 2 2 2 2 2 2 2 2 2 2 2 2 2 2 2 2 2 2 2 2 2 2 2 2 ( ( 8 7 ",
"# 9 ; ( ( ( 2 2 2 2 2 2 2 2 2 2 2 2 2 2 2 2 2 2 2 2 2 2 2 2 2 2 2 2 2 2 2 2 2 2 2 2 ( ( ( ; 9 # ",
"0 - 9 a b = 1 / 2 ( ( ( ( ( ( 2 2 2 2 2 2 2 2 2 2 2 2 2 2 2 2 2 2 ( ( ( ( ( ( 2 / 1 = b a 9 - 0 ",
"  c d e 9 9 ! e { f g h i / _ _ _ _ _ _ _ _ ( ( ( ( _ _ _ _ _ _ _ _ / i h g f { e ! 9 9 e d c   ",
"      j < g 9 9 9 k k a l ! ! m ~ n o p b ] ] ] ] ] ] b p o n ~ m ! ! l a k k 9 9 9 g < j       ",
"    q r s @ t u _ ; { 8 k 9 9 9 9 9 9 9 9 9 9 9 9 9 9 9 9 9 9 9 9 9 9 k 8 { ; _ u t @ s r q     ",
"  v w x s y y $ z # A B C s D 4 E 5 F p m 9 9 9 9 9 9 m p F 5 E 4 D s C B A # z $ y y s x w v   ",
"G ! 2 H I ' J s K L K M N [ O O $ P Q R 7 S T U U T S 7 R Q P $ O O [ N M K L K s J ' I H 2 ! G ",
"z 9 n = / / / V W x X Y y L K K L J J y Y X X X X X X Y y J J L K K L y Y X x W V / / / = n 9 z ",
"  Z 9 9 ~ b g = / 2 _ ` I  .& W ' ..+.@.x x x x x x x x @.+...' W &  .I ` _ 2 / = g b ~ 9 9 Z   ",
"    @ h 9 9 a l ! ~ o f ^ i ( _ _ H #.#.#.#.#.#.#.#.#.#.#.#.H _ _ ( i ^ f o ~ ! l a 9 9 h @     ",
"      $.%.&.b e k 9 9 9 9 9 9 k l m *.e n =.o o o o =.n e *.m l k 9 9 9 9 9 9 k e b &.%.$.      ",
"  0 -.;.L >.>.,.[ X Z 1 a 9 9 9 9 9 9 9 9 9 9 9 9 9 9 9 9 9 9 9 9 9 9 a 1 Z X [ ,.>.>.L ;.-.0   ",
"'.H ).Z K K L d [ O C < @ !.R ~.{.D ].2 p ! 9 9 9 9 ! p 2 ].D {.~.R !.@ < C O [ d L K K Z ).H '.",
"# 9 1 / H ^.4 Y J L K J Y Y Y y /.(.>._.:.<.[.q q [.<.:._.>.(./.y Y Y Y J K L J Y 4 ^.H / 1 9 # ",
"7 9 m ] F 2 2 }.|.1.2.+.4 Y K 3.s K L J y Y Y X X Y Y y J L K s 3.K Y 4 +.2.1.|.}.2 2 F ] m 9 7 ",
"  (.9 9 l m { | / _ _ H #.}.).).4.].5.6.2.' ' ' ' ' ' 2.6.5.].4.).).}.#.H _ _ / | { m l 9 9 (.  ",
"    3 & o l 9 9 9 l 8 { f | F i i i i i i i i i i i i i i i i i i F | f { 8 l 9 9 9 l o & 3     ",
"        : ,.y I k 9 9 9 9 9 9 9 k l ! 7.m *.*.*.*.*.*.m 7.! l k 9 9 9 9 9 9 9 k I y ,.:         ",
"                8.!.,.5.n 9 9 9 9 9 9 9 9 9 9 9 9 9 9 9 9 9 9 9 9 9 9 n 5.,.!.8.                ",
"                          9.0.a.b.c.v 5.` 1 | f f | 1 ` 5.v c.b.a.0.9.                          ",
"                                                                                                ",
"                                                                                                ",
"                                                                                                ",
"                                                                                                ",
"                                                                                                ",
"                                                                                                ",
"                                                                                                ",
"                                                                                                ",
"                                                                                                ",
"                                                                                                ",
"                                                                                                "};
