/* XPM */
static char * startup_apps_xpm[] = {
"48 48 314 2",
"  	c None",
". 	c #879898",
"+ 	c #9AA597",
"@ 	c #9EA795",
"# 	c #9FA796",
"$ 	c #9FA896",
"% 	c #A0A897",
"& 	c #A0A997",
"* 	c #A0A998",
"= 	c #A1A998",
"- 	c #9DA899",
"; 	c #85989A",
"> 	c #8B9B9B",
", 	c #ACB3A7",
"' 	c #C4C5BD",
") 	c #CACAC4",
"! 	c #CBCBC5",
"~ 	c #CCCCC6",
"{ 	c #CCCCC7",
"] 	c #CDCDC7",
"^ 	c #CDCDC8",
"/ 	c #CECEC8",
"( 	c #CECEC9",
"_ 	c #CFCFC9",
": 	c #CFCFCA",
"< 	c #D0D0CA",
"[ 	c #D0D0CB",
"} 	c #CBCCC5",
"| 	c #B5BBB0",
"1 	c #899EA4",
"2 	c #AFB7AC",
"3 	c #D9DBD5",
"4 	c #D7D7D2",
"5 	c #D5D5D0",
"6 	c #D5D5D1",
"7 	c #D6D6D1",
"8 	c #D6D6D2",
"9 	c #D7D7D3",
"0 	c #D8D8D3",
"a 	c #D8D8D4",
"b 	c #D9D9D4",
"c 	c #D9D9D5",
"d 	c #DADAD5",
"e 	c #DADAD6",
"f 	c #DBDBD6",
"g 	c #DBDBD7",
"h 	c #DCDCD8",
"i 	c #DDDDDA",
"j 	c #E0E0DC",
"k 	c #B6BEB5",
"l 	c #BBC1BA",
"m 	c #EDEEEB",
"n 	c #E3E3E0",
"o 	c #E0E0DD",
"p 	c #E1E1DD",
"q 	c #E1E1DE",
"r 	c #E2E2DE",
"s 	c #E2E2DF",
"t 	c #E3E3DF",
"u 	c #E4E4E0",
"v 	c #E4E4E1",
"w 	c #E5E5E1",
"x 	c #E5E5E2",
"y 	c #E6E6E3",
"z 	c #E6E6E4",
"A 	c #E7E7E4",
"B 	c #E7E7E5",
"C 	c #E9E9E7",
"D 	c #F1F2F0",
"E 	c #C2C9C3",
"F 	c #8598A9",
"G 	c #E3E6E2",
"H 	c #FAFAF9",
"I 	c #FCFCFC",
"J 	c #FBFBFA",
"K 	c #E5E8E4",
"L 	c #8296A9",
"M 	c #386093",
"N 	c #94A6B5",
"O 	c #CDD2CD",
"P 	c #D3D7CF",
"Q 	c #97A9B7",
"R 	c #355E92",
"S 	c #3767A4",
"T 	c #5C85B2",
"U 	c #597DA2",
"V 	c #56789D",
"W 	c #658DB7",
"X 	c #3363A1",
"Y 	c #3869A7",
"Z 	c #6995C8",
"` 	c #719DCD",
" .	c #709DCC",
"..	c #739ECE",
"+.	c #3465A4",
"@.	c #6A98CA",
"#.	c #739FCF",
"$.	c #729FCF",
"%.	c #75A1D0",
"&.	c #6D99CB",
"*.	c #73A0CF",
"=.	c #8998A7",
"-.	c #8D8D8D",
";.	c #77A2D1",
">.	c #6F9BCC",
",.	c #FDFDFD",
"'.	c #FFFFFF",
").	c #7AA4D2",
"!.	c #719CCC",
"~.	c #74A0D0",
"{.	c #889EBF",
"].	c #879EBF",
"^.	c #7CA6D2",
"/.	c #739ECD",
"(.	c #74A1D0",
"_.	c #6783AD",
":.	c #7EA7D3",
"<.	c #759FCE",
"[.	c #FEFEFE",
"}.	c #46699B",
"|.	c #45689B",
"1.	c #80A9D4",
"2.	c #77A0CE",
"3.	c #83AAD5",
"4.	c #79A2CF",
"5.	c #FAFAFA",
"6.	c #85ACD5",
"7.	c #7CA4D0",
"8.	c #FBFBFB",
"9.	c #F7F7F7",
"0.	c #F4F4F4",
"a.	c #87ADD6",
"b.	c #7DA5D1",
"c.	c #76A2D0",
"d.	c #F5F5F5",
"e.	c #F2F2F2",
"f.	c #898A87",
"g.	c #8AAFD7",
"h.	c #7FA6D1",
"i.	c #F9F9F9",
"j.	c #F3F3F3",
"k.	c #F0F0F0",
"l.	c #898A88",
"m.	c #555753",
"n.	c #8BB0D8",
"o.	c #81A8D2",
"p.	c #76A2D1",
"q.	c #EDEDED",
"r.	c #888987",
"s.	c #B4B5B4",
"t.	c #5E605C",
"u.	c #8EB2D8",
"v.	c #83A9D3",
"w.	c #878886",
"x.	c #B3B4B3",
"y.	c #60625E",
"z.	c #EEEEEE",
"A.	c #F6F6F6",
"B.	c #90B4D9",
"C.	c #86ABD4",
"D.	c #8C8C8C",
"E.	c #E7E7E7",
"F.	c #ECECEC",
"G.	c #93B5DA",
"H.	c #88ACD4",
"I.	c #78A3D1",
"J.	c #6B6C6A",
"K.	c #B4B5B3",
"L.	c #E4E4E4",
"M.	c #EAEAEA",
"N.	c #95B7DB",
"O.	c #8AADD5",
"P.	c #B1B1B0",
"Q.	c #747572",
"R.	c #5F615D",
"S.	c #5D5F5B",
"T.	c #5D5F5C",
"U.	c #5C5F5C",
"V.	c #626A6D",
"W.	c #647380",
"X.	c #6A8DAE",
"Y.	c #97B8DC",
"Z.	c #8CAFD6",
"`.	c #C9CAC9",
" +	c #656967",
".+	c #74828E",
"++	c #8EB0D7",
"@+	c #79A4D1",
"#+	c #EBEBEB",
"$+	c #E5E5E5",
"%+	c #E9E9E9",
"&+	c #EFEFEF",
"*+	c #F1F1F1",
"=+	c #F8F8F8",
"-+	c #D2D2D2",
";+	c #666966",
">+	c #3F6088",
",+	c #90B2D7",
"'+	c #D3D3D3",
")+	c #9D9D9C",
"!+	c #545C62",
"~+	c #92B3D8",
"{+	c #868785",
"]+	c #B4B4B3",
"^+	c #D1D1D1",
"/+	c #B2B2B2",
"(+	c #555956",
"_+	c #94B4D9",
":+	c #858684",
"<+	c #B8B8B8",
"[+	c #96B6DA",
"}+	c #DBDBDB",
"|+	c #7B7C7A",
"1+	c #B2B3B1",
"2+	c #98B7DA",
"3+	c #7AA5D2",
"4+	c #E3E3E3",
"5+	c #AEAEAE",
"6+	c #717270",
"7+	c #B1B2B1",
"8+	c #9AB9DB",
"9+	c #7BA5D2",
"0+	c #E0E0E0",
"a+	c #D8D8D8",
"b+	c #BFBFBF",
"c+	c #A4A4A4",
"d+	c #70716F",
"e+	c #9CBADC",
"f+	c #DFDFDF",
"g+	c #D6D6D6",
"h+	c #787A77",
"i+	c #646662",
"j+	c #878A89",
"k+	c #AAADAB",
"l+	c #CDCDCC",
"m+	c #9EBBDC",
"n+	c #CBCBCB",
"o+	c #AFAFAF",
"p+	c #737472",
"q+	c #A5A5A5",
"r+	c #A3A3A3",
"s+	c #616161",
"t+	c #4F6E8F",
"u+	c #4F6E8E",
"v+	c #506A85",
"w+	c #556572",
"x+	c #666767",
"y+	c #A0BDDD",
"z+	c #8897A6",
"A+	c #878787",
"B+	c #787878",
"C+	c #686868",
"D+	c #5F605E",
"E+	c #B0B1B0",
"F+	c #696969",
"G+	c #65717C",
"H+	c #55769A",
"I+	c #547699",
"J+	c #547598",
"K+	c #517194",
"L+	c #556674",
"M+	c #6A6C6A",
"N+	c #A3BFDE",
"O+	c #729ECE",
"P+	c #6D98C6",
"Q+	c #6187B0",
"R+	c #5A646B",
"S+	c #B0B1B1",
"T+	c #6993BF",
"U+	c #6C96C4",
"V+	c #6A94C1",
"W+	c #668FBA",
"X+	c #5E84AB",
"Y+	c #55779A",
"Z+	c #636868",
"`+	c #A4C0DF",
" @	c #7DA6D3",
".@	c #B1B2B2",
"+@	c #6F9BC9",
"@@	c #6E99C7",
"#@	c #658EB8",
"$@	c #78838D",
"%@	c #3768A6",
"&@	c #A7C2DF",
"*@	c #5B656D",
"=@	c #6F9BCA",
"-@	c #709CCB",
";@	c #9FB1C6",
">@	c #3666A1",
",@	c #9BB8D9",
"'@	c #8DB1D8",
")@	c #58799E",
"!@	c #596771",
"~@	c #82AAD4",
"{@	c #ACC4E0",
"]@	c #37649D",
"^@	c #5881B6",
"/@	c #AAC4DF",
"(@	c #BCD1E8",
"_@	c #BBD0E7",
":@	c #B5C9DF",
"<@	c #A5B8CC",
"[@	c #A6B8CD",
"}@	c #B8CDE3",
"|@	c #B0C8E3",
"1@	c #688FBD",
"2@	c #2D588D",
"3@	c #2B5185",
"4@	c #3665A1",
"5@	c #3465A3",
"6@	c #3363A0",
"7@	c #32619E",
"8@	c #3565A2",
"9@	c #2C5589",
"                                                                                                ",
"                                                                                                ",
"                                                                                                ",
"      . + @ @ @ @ @ @ @ @ @ @ @ @ @ @ @ @ @ @ @ @ @ @ @ @ @ @ @ @ # $ $ $ % & & & * = - ;       ",
"    > , ' ) ) ) ) ) ! ! ! ! ! ~ ~ ~ ~ ~ { ] ] ] ] ^ / / / / ( ( _ _ _ : : < < < [ [ [ } | 1     ",
"    2 3 4 5 5 6 7 7 7 7 8 4 4 4 4 9 9 0 0 0 a a b b c c c c d e e e e f g g g g g h h i j k     ",
"    l m n o p p q q q r r s s s s t n n n n u v v v v w x x x x x y y y y y z A A A B C D E     ",
"    F G H I I I I I I I I I I I I I I I I I I I I I I I I I I I I I I I I I I I I I I J K L     ",
"    M N O P P P P P P P P P P P P P P P P P P P P P P P P P P P P P P P P P P P P P P O Q R     ",
"    S T U V V V V V V V V V V V V V V V V V V V V V V V V V V V V V V V V V V V V V V U W X     ",
"    Y Z `  . . . . . . . . . . . . . . . . . . . . . . . . . . . . . . . . . . . . . .` ..+.    ",
"    Y @.#.$.$.$.$.$.$.$.$.$.$.$.$.$.$.$.$.$.$.$.$.$.$.$.$.$.$.$.$.$.$.$.$.$.$.$.$.$.$.$.%.+.    ",
"    Y &.*.$.$.$.$.$.$.$.$.$.$.=.-.-.-.-.-.-.-.-.-.-.-.-.-.-.-.-.-.-.-.-.-.=.$.$.$.$.$.$.;.+.    ",
"    Y >.*.$.$.$.$.$.$.$.$.$.$.-.,.'.'.'.'.'.'.'.'.'.'.'.'.'.'.'.'.'.'.'.,.-.$.$.$.$.$.$.).+.    ",
"    Y !.~.$.$.$.$.$.$.$.$.$.$.-.'.{.].].].].].].].].].].].].].].].].].{.'.-.$.$.$.$.$.$.^.+.    ",
"    Y /.(.$.$.$.$.$.$.$.$.$.$.-.'._._._._._._._._._._._._._._._._._._._.'.-.$.$.$.$.$.$.:.+.    ",
"    Y <.(.$.$.$.$.$.$.$.$.$.$.-.[.}.|.|.|.|.|.|.|.|.|.|.|.|.|.|.|.|.|.}.[.-.$.$.$.$.$.$.1.+.    ",
"    Y 2.%.=.-.-.-.-.-.-.-.-.-.-.,.I I I I I I I I I I I I I I I I I I I ,.-.$.$.$.$.$.$.3.+.    ",
"    Y 4.%.-.,.'.'.'.'.'.'.'.'.-.I 5.5.5.5.5.5.5.5.5.5.5.5.5.5.5.5.5.5.5.I -.$.$.$.$.$.$.6.+.    ",
"    Y 7.%.-.'.{.].].].].].].].-.8.9.9.9.0.9.9.9.9.9.9.9.9.9.9.9.9.9.9.9.8.-.$.$.$.$.$.$.a.+.    ",
"    Y b.c.-.'._._._._._._._._.-.5.d.d.e.f.d.d.d.d.d.d.d.d.d.d.d.d.d.d.d.5.-.$.$.$.$.$.$.g.+.    ",
"    Y h.c.-.[.}.|.|.|.|.|.|.|.-.i.j.k.l.m.j.j.j.j.j.j.j.j.j.j.j.j.j.j.j.i.-.$.$.$.$.$.$.n.+.    ",
"    Y o.p.-.,.I I I I I I I I -.9.q.r.s.t.k.k.k.k.k.k.k.k.k.k.k.k.k.k.k.9.-.$.$.$.$.$.$.u.+.    ",
"    Y v.p.-.I 5.5.5.5.5.5.5.5.-.j.w.x.'.y.q.z.z.z.z.z.z.z.z.z.z.z.z.z.z.A.-.$.$.$.$.$.$.B.+.    ",
"    Y C.;.-.8.9.9.9.9.9.9.9.9.D.l.x.8.[.y.E.F.F.F.F.F.F.F.F.F.F.F.F.F.F.d.-.$.$.$.$.$.$.G.+.    ",
"    Y H.I.-.5.d.d.d.d.d.d.d.e.J.K.8.E.,.y.L.M.M.M.M.M.M.M.M.M.M.M.M.M.M.0.-.$.$.$.$.$.$.N.+.    ",
"    Y O.I.-.i.j.j.j.j.j.j.k.l.P.8.E.L.,.Q.R.R.R.R.R.R.R.R.R.R.R.R.R.R.R.R.S.T.T.U.V.W.X.Y.+.    ",
"    Y Z.I.-.9.k.k.k.k.k.q.r.x.8.E.L.L.k.,.[.[.[.[.[.[.[.[.[.[.[.'.'.'.'.'.'.'.'.'.0.`. +.++.    ",
"    Y ++@+-.A.z.z.z.z.#+w.x.8.E.L.L.L.L.L.L.L.L.L.$+E.%+#+q.&+*+j.d.A.=+5.I [.[.[.[.q.-+;+>+    ",
"    Y ,+@+-.d.F.F.F.%+w.x.8.E.L.L.L.L.L.L.L.L.L.L.$+E.%+#+q.&+*+j.d.A.=+5.I [.[.[.[.%+'+)+!+    ",
"    Y ~+@+-.0.M.M.E.{+]+8.E.L.L.L.L.L.L.L.L.L.L.L.$+E.%+#+q.&+*+j.d.A.=+5.I [.[.[.[.%+^+/+(+    ",
"    Y _+).-.e.E.E.L.:+]+8.E.L.L.L.L.L.L.L.L.L.L.L.$+E.%+#+q.&+*+j.d.A.=+5.I [.[.[.[.%+^+<+m.    ",
"    Y [+).-.*+$+$+$+}+|+1+8.E.L.L.L.L.L.L.L.L.L.L.$+E.%+#+q.&+*+j.d.A.=+5.I [.[.[.[.%+^+<+m.    ",
"    Y 2+3+-.k.4+4+4+-+5+6+7+8.E.L.L.L.L.L.L.L.L.L.$+E.%+#+q.&+*+j.d.A.=+5.I [.[.[.[.%+^+<+m.    ",
"    Y 8+9+-.&+0+0+0+a+b+c+d+7+8.E.L.L.&+I ,.,.,.,.,.[.[.[.[.[.[.[.[.[.'.'.'.'.'.'.'.z.-+<+m.    ",
"    Y e+9+-.&+0+0+0+f+g+b+c+d+7+8.E.L.I h+y.y.y.y.y.y.y.y.y.y.y.y.y.y.y.y.y.y.y.i+j+k+l+<+m.    ",
"    Y m+9+-.F.&+&+&+&+z.$+n+o+p+7+8.E.,.y.q+q+q+q+q+r+s+t+t+t+t+t+t+t+t+t+t+t+t+u+v+w+x+o+m.    ",
"    Y y+^.z+-.-.-.-.-.-.D.A+B+C+D+E+8.[.y.F+F+F+F+F+F+G+H+H+H+H+H+H+H+H+H+H+H+H+I+J+K+L+M+m.    ",
"    Y N+^.$.$.$.$.$.$.$.$.O+P+Q+J+R+S+'.y.T+U+U+U+U+U+U+U+U+U+U+U+U+U+U+U+U+U+U+V+W+X+Y+Z+m.    ",
"    Y `+ @$.$.$.$.$.$.$.$.$.O+P+Q+J+R+.@t.+@$.$.$.$.$.$.$.$.$.$.$.$.$.$.$.$.$.$.O+` @@#@$@m.    ",
"    %@&@ @$.$.$.$.$.$.$.$.$.$.O+P+Q+J+*@m.=@$.$.$.$.$.$.$.$.$.$.$.$.$.$.$.$.$.$.$.$.$.-@;@m.    ",
"    >@,@'@$.$.$.$.$.$.$.$.$.$.$.O+P+Q+)@!@=@$.$.$.$.$.$.$.$.$.$.$.$.$.$.$.$.$.$.$.$.$.~@{@]@    ",
"      ^@/@(@(@(@(@(@(@(@(@(@(@(@(@_@:@<@[@}@(@(@(@(@(@(@(@(@(@(@(@(@(@(@(@(@(@(@(@(@(@|@1@2@    ",
"      3@4@+.+.+.+.+.+.+.+.+.+.+.+.+.5@6@7@5@+.+.+.+.+.+.+.+.+.+.+.+.+.+.+.+.+.+.+.+.+.8@9@      ",
"                                                                                                ",
"                                                                                                ",
"                                                                                                ",
"                                                                                                "};
