/* XPM */
static char * sweep_xpm[] = {
"48 48 303 2",
"  	c None",
". 	c #A8B1B7",
"+ 	c #8F918D",
"@ 	c #404545",
"# 	c #BCC1C1",
"$ 	c #3B4040",
"% 	c #949491",
"& 	c #646660",
"* 	c #488C08",
"= 	c #3B4042",
"- 	c #999996",
"; 	c #676863",
"> 	c #6F8FB0",
", 	c #448705",
"' 	c #6EA935",
") 	c #478C08",
"! 	c #3B3F40",
"~ 	c #9B9D99",
"{ 	c #6A6D66",
"] 	c #7491AF",
"^ 	c #E3F8CF",
"/ 	c #C4E4A6",
"( 	c #4F9114",
"_ 	c #393E40",
": 	c #3E4343",
"< 	c #6B6F69",
"[ 	c #7E99B5",
"} 	c #D8F5BB",
"| 	c #DAF5BF",
"1 	c #ECF9DF",
"2 	c #89B959",
"3 	c #373E3F",
"4 	c #999B97",
"5 	c #6E716C",
"6 	c #88A2BB",
"7 	c #D5F4B7",
"8 	c #85DF2E",
"9 	c #B4EB7F",
"0 	c #F1FCE8",
"a 	c #CAE6AE",
"b 	c #4E9012",
"c 	c #353B3C",
"d 	c #383E3E",
"e 	c #95ABC2",
"f 	c #D4F3B5",
"g 	c #83DD2B",
"h 	c #84DE2C",
"i 	c #90E141",
"j 	c #D8F4BB",
"k 	c #E5F6D4",
"l 	c #80B44E",
"m 	c #32393A",
"n 	c #A2B6CB",
"o 	c #D3F2B4",
"p 	c #81DC29",
"q 	c #82DC2A",
"r 	c #84DD2C",
"s 	c #ADE972",
"t 	c #E1F7CD",
"u 	c #B7DD92",
"v 	c #4D8F10",
"w 	c #303638",
"x 	c #31373A",
"y 	c #B0C2D3",
"z 	c #D2F2B3",
"A 	c #A3E463",
"B 	c #92E046",
"C 	c #81DB28",
"D 	c #82DC29",
"E 	c #83DD2A",
"F 	c #8CDF3B",
"G 	c #C6F09F",
"H 	c #D3F0B7",
"I 	c #77B041",
"J 	c #2D3436",
"K 	c #BFCEDC",
"L 	c #D1F1B1",
"M 	c #90CC57",
"N 	c #ABE176",
"O 	c #A0E45E",
"P 	c #83DC2D",
"Q 	c #80DB28",
"R 	c #A2E660",
"S 	c #D2F3B2",
"T 	c #AAD87E",
"U 	c #4B8E0E",
"V 	c #D2DAE4",
"W 	c #CBEFA7",
"X 	c #498D0A",
"Y 	c #85C647",
"Z 	c #A4E466",
"` 	c #8BDE3A",
" .	c #7FDA26",
"..	c #80DB27",
"+.	c #81DC28",
"@.	c #89DE36",
"#.	c #B9EC88",
"$.	c #C7ECA3",
"%.	c #71AC38",
"&.	c #E1E9EE",
"*.	c #BFEB95",
"=.	c #478B06",
"-.	c #5CA01D",
";.	c #94D851",
">.	c #93DF48",
",.	c #81DB29",
"'.	c #9BE355",
").	c #C8F0A3",
"!.	c #A1D471",
"~.	c #458806",
"{.	c #6E706C",
"].	c #F4F7F9",
"^.	c #B8E989",
"/.	c #478B08",
"(.	c #76BE30",
"_.	c #96E04D",
":.	c #87DC35",
"<.	c #7ED924",
"[.	c #7FDA25",
"}.	c #85DC30",
"|.	c #D3F3B4",
"1.	c #B2E67E",
"2.	c #559C14",
"3.	c #8AD442",
"4.	c #92DE45",
"5.	c #7FD927",
"6.	c #7DD924",
"7.	c #7EDA25",
"8.	c #D2F2B4",
"9.	c #729FCF",
"0.	c #ACE475",
"a.	c #478B07",
"b.	c #73BC2E",
"c.	c #9BE158",
"d.	c #8ADC3A",
"e.	c #7CD822",
"f.	c #D1F2B2",
"g.	c #77A2D0",
"h.	c #A6E26B",
"i.	c #488C06",
"j.	c #589D18",
"k.	c #97D957",
"l.	c #9CE159",
"m.	c #999B96",
"n.	c #6D706A",
"o.	c #85ACD5",
"p.	c #A0E161",
"q.	c #83C445",
"r.	c #D0F1B0",
"s.	c #93B6DA",
"t.	c #9BDF58",
"u.	c #458706",
"v.	c #CFF0AF",
"w.	c #A2BFDF",
"x.	c #95DD4F",
"y.	c #CDEFAC",
"z.	c #999A96",
"A.	c #6D6F6A",
"B.	c #B0C9E4",
"C.	c #90DB46",
"D.	c #C7EDA3",
"E.	c #BED3E9",
"F.	c #8AD93C",
"G.	c #C2EB9A",
"H.	c #CCDCED",
"I.	c #85D833",
"J.	c #BCEA90",
"K.	c #DCE6F2",
"L.	c #C0D5C6",
"M.	c #577C35",
"N.	c #437D0E",
"O.	c #45830A",
"P.	c #448706",
"Q.	c #498A0C",
"R.	c #427B0F",
"S.	c #478A05",
"T.	c #7FD62A",
"U.	c #B7E887",
"V.	c #E9EFF7",
"W.	c #DFE9E9",
"X.	c #7CAC56",
"Y.	c #629E2B",
"Z.	c #8DC25A",
"`.	c #A6D975",
" +	c #BAE590",
".+	c #CBEEAA",
"++	c #CAECA9",
"@+	c #B0DD84",
"#+	c #90C858",
"$+	c #71B136",
"%+	c #59A414",
"&+	c #79D421",
"*+	c #B1E67E",
"=+	c #F7F9FC",
"-+	c #82B159",
";+	c #8ABD58",
">+	c #CEEEAE",
",+	c #BBE98D",
"'+	c #B8E889",
")+	c #B4E782",
"!+	c #AAE471",
"~+	c #A0E061",
"{+	c #9ADE56",
"]+	c #8EDB44",
"^+	c #84D833",
"/+	c #7ED528",
"(+	c #74D218",
"_+	c #48890C",
":+	c #CAEAAA",
"<+	c #A7E36C",
"[+	c #ACE474",
"}+	c #BFEA94",
"|+	c #CCEFAB",
"1+	c #C1EB98",
"2+	c #AFE579",
"3+	c #9CDF5A",
"4+	c #89D93A",
"5+	c #75D319",
"6+	c #73D216",
"7+	c #6FCD14",
"8+	c #458805",
"9+	c #989A97",
"0+	c #6C6E68",
"a+	c #55934A",
"b+	c #87BC58",
"c+	c #CDEEAD",
"d+	c #B5E783",
"e+	c #ADE576",
"f+	c #A3E166",
"g+	c #98DE54",
"h+	c #85D834",
"i+	c #73D217",
"j+	c #71CF15",
"k+	c #539F0A",
"l+	c #468D06",
"m+	c #9A9B97",
"n+	c #6A6B66",
"o+	c #76A1CE",
"p+	c #739FC2",
"q+	c #569249",
"r+	c #5E9B29",
"s+	c #88C052",
"t+	c #93D157",
"u+	c #94D754",
"v+	c #8FD946",
"w+	c #7ED32A",
"x+	c #6CC814",
"y+	c #66BE11",
"z+	c #58A80C",
"A+	c #488E06",
"B+	c #9C9C9B",
"C+	c #686B67",
"D+	c #84AAD2",
"E+	c #77A3AC",
"F+	c #537B2F",
"G+	c #468908",
"H+	c #478C06",
"I+	c #448904",
"J+	c #9C9F9B",
"K+	c #666963",
"L+	c #90B1D4",
"M+	c #A0A09D",
"N+	c #9DB8D6",
"O+	c #A2A3A0",
"P+	c #646760",
"Q+	c #A9BFD9",
"R+	c #468906",
"S+	c #A5A7A4",
"T+	c #626662",
"U+	c #B4C7DA",
"V+	c #5D9B22",
"W+	c #8EC45A",
"X+	c #A4A4A3",
"Y+	c #BFCEDD",
"Z+	c #89BD56",
"`+	c #2F3537",
" @	c #A2A4A2",
".@	c #2F3437",
"+@	c #CCD6E1",
"@@	c #468907",
"#@	c #70CD16",
"$@	c #D7DEE3",
"%@	c #458A06",
"&@	c #88BD56",
"*@	c #458906",
"=@	c #313638",
"-@	c #313838",
";@	c #E3E6E9",
">@	c #438306",
",@	c #5C9922",
"'@	c #87C051",
")@	c #58A70C",
"!@	c #488D06",
"~@	c #438206",
"{@	c #387103",
"]@	c #448506",
"^@	c #458705",
"/@	c #438406",
"(@	c #386F03",
"_@	c #313939",
":@	c #333A3A",
"<@	c #96B4D3",
"[@	c #9AB5CF",
"                                                                                                ",
"                                                                                                ",
"                                                                                                ",
"                                                                                                ",
"                  . . . . . . . . . . . .                                                       ",
"        + @   @   # # # # # # # # # # # #   @   @ +                                             ",
"      $ % & & & & & & & & & & & & & & & & & & & & % $     *                                     ",
"      = - @ = @ ; > > > > > > > > > > > > ; @ = @ - =     , ' )                                 ",
"      ! ~ !   ! { ] ] ] ] ] ] ] ] ] ] ] ] { !   ! ~ !     , ^ / (                               ",
"      _ ~ : _ : < [ [ [ [ [ [ [ [ [ [ [ [ < : _ : ~ _     , } | 1 2 )                           ",
"      3 4 5 5 5 5 6 6 6 6 6 6 6 6 6 6 6 6 5 5 5 5 4 3     , 7 8 9 0 a b                         ",
"      c 4 d c d 5 e e e e e e e e e e e e 5 d c d 4 c     , f g h i j k l )                     ",
"      m 4 m   m 5 n n n n n n n n n n n n 5 m   m 4 m     , o p q g r s t u v                   ",
"      w 4 x w x 5 y y y y y y y y y y y y 5 x w x 4 w     , z A B C D E F G H I )               ",
"      J 4 5 5 5 5 K K K K K K K K K K K K 5 5 5 5 4 J     , L M N O P Q p q R S T U             ",
"      J 4 J J J 5 V V V V V V V V V V V V 5 J J J 4 J     , W , X Y Z `  ...+.@.#.$.%.)         ",
"      J 4 J   J 5 &.&.&.&.&.&.&.&.&.&.&.&.5 J   J 4 J     , *.,   =.-.;.>.,. ...C '.).!.~.      ",
"      J 4 J J J {.].].].].].].].].].].].].{.J J J 4 J     , ^.,       /.(._.:.<.[. .}.|.,       ",
"      J 4 {.{.{.{.{.{.{.{.{.{.{.{.{.{.{.{.{.{.{.{.4 J     , 1.,         =.2.3.4.5.6.7.8.,       ",
"      J 4 J J J {.9.9.9.9.9.9.9.9.9.9.9.9.{.J J J 4 J     , 0.,             a.b.c.d.e.f.,       ",
"      J 4 J   J {.g.g.g.g.g.g.g.g.g.g.g.g.{.J   J 4 J     , h.,               i.j.k.l.L ,       ",
"      J m.J J J n.o.o.o.o.o.o.o.o.o.o.o.o.n.J J J m.J     , p.,                   /.q.r.,       ",
"      J m.n.n.n.n.s.s.s.s.s.s.s.s.s.s.s.s.n.n.n.n.m.J     , t.,                     u.v.,       ",
"      J m.J J J n.w.w.w.w.w.w.w.w.w.w.w.w.n.J J J m.J     , x.,                     , y.,       ",
"      J z.J   J A.B.B.B.B.B.B.B.B.B.B.B.B.A.J   J z.J     , C.,                     , D.,       ",
"      J z.J J J A.E.E.E.E.E.E.E.E.E.E.E.E.A.J J J z.J     , F.,                     , G.,       ",
"      J z.A.A.A.A.H.H.H.H.H.H.H.H.H.H.H.H.A.A.A.A.z.J     , I.,                     , J.,       ",
"      J z.J J J A.K.K.K.K.K.K.K.K.K.K.K.L.M.N.O.P.Q.R.S.  , T.,                     , U.,       ",
"      J z.J   J A.V.V.V.V.V.V.V.V.V.W.X.Y.Z.`. +.+++@+#+$+%+&+,                     , *+,       ",
"      J z.J J J A.=+=+=+=+=+=+=+=+=+-+;+>+,+'+)+!+~+{+]+^+/+(+,                     , 0.,       ",
"      J z.A.A.A.A.A.A.A.A.A.A.A.A.A._+:+<+[+}+|+1+2+3+4+5+6+7+8+                    , h.,       ",
"      J 9+J J J 0+9.9.9.9.9.9.9.9.9.a+b+c+d+e+f+g+C.h+i+6+j+k+l+                    , p.,       ",
"      J m+J   J n+o+o+o+o+o+o+o+o+o+p+q+r+s+t+u+v+w+x+y+z+A+=.                      , t.,       ",
"      J B+J J J C+D+D+D+D+D+D+D+D+D+D+D+E+F+N.O.P.G+O.H+I+                          , x.,       ",
"      J J+K+K+K+K+L+L+L+L+L+L+L+L+L+L+L+L+K+K+K+K+J+J                               , C.,       ",
"      J M+J J J K+N+N+N+N+N+N+N+N+N+N+N+N+K+J J J M+J                               , F.,       ",
"      J O+J   J P+Q+Q+Q+Q+Q+Q+Q+Q+Q+Q+Q+Q+P+J   J O+J               I+H+=.8+R+H+S.  , I.,       ",
"      J S+J J J T+U+U+U+U+U+U+U+U+U+U+U+U+T+J J J S+J           =.V+W+`. +.+++@+#+$+%+T.,       ",
"      J X+        Y+Y+Y+Y+Y+Y+Y+Y+Y+Y+Y+Y+        X+J         l+Z+>+,+'+)+!+~+{+]+^+/+&+,       ",
"      `+ @.@`+.@  +@+@+@+@+@+@+@+@+@+@+@+@  .@`+.@ @`+        @@:+<+[+}+|+1+2+3+4+5+6+#@8+      ",
"      .@  .@  .@  $@$@$@$@$@$@$@$@$@$@$@$@  .@  .@  .@        %@&@c+d+e+f+g+C.h+i+6+j+k+*@      ",
"      =@  -@=@-@  ;@;@;@;@;@;@;@;@;@;@;@;@  -@=@-@  =@          >@,@'@t+u+v+w+x+y+)@!@~@        ",
"      =@                                            =@              {@]@^@, , ^@/@(@            ",
"      _@  :@_@:@  <@<@<@<@<@<@<@<@<@<@<@<@  :@_@:@  _@                                          ",
"                  [@[@[@[@[@[@[@[@[@[@[@[@                                                      ",
"                                                                                                ",
"                                                                                                ",
"                                                                                                "};
