/* XPM */
static char * sysmon_xpm[] = {
"48 48 799 2",
"  	c None",
". 	c #636660",
"+ 	c #61635D",
"@ 	c #646660",
"# 	c #636560",
"$ 	c #8E8F8D",
"% 	c #A0A0A0",
"& 	c #8A8B88",
"* 	c #646661",
"= 	c #626460",
"- 	c #D2D2D2",
"; 	c #D3D3D3",
"> 	c #D5D5D5",
", 	c #D8D8D8",
"' 	c #DADADA",
") 	c #DCDCDC",
"! 	c #DFDFDF",
"~ 	c #E1E1E1",
"{ 	c #E3E3E3",
"] 	c #E6E6E6",
"^ 	c #E8E8E8",
"/ 	c #EAEAEA",
"( 	c #EDEDED",
"_ 	c #EFEFEF",
": 	c #F1F1F1",
"< 	c #F4F4F4",
"[ 	c #F6F6F6",
"} 	c #F8F8F8",
"| 	c #FBFBFB",
"1 	c #FDFDFD",
"2 	c #FEFEFE",
"3 	c #FCFCFC",
"4 	c #F9F9F9",
"5 	c #F7F7F7",
"6 	c #F5F5F5",
"7 	c #F3F3F3",
"8 	c #F0F0F0",
"9 	c #EEEEEE",
"0 	c #ECECEC",
"a 	c #E7E7E7",
"b 	c #E5E5E5",
"c 	c #E0E0E0",
"d 	c #DEDEDE",
"e 	c #D9D9D9",
"f 	c #D7D7D7",
"g 	c #D1D1D1",
"h 	c #62635E",
"i 	c #D0D0D0",
"j 	c #A1A1A1",
"k 	c #A2A2A2",
"l 	c #A3A3A3",
"m 	c #A5A5A5",
"n 	c #5F625B",
"o 	c #61625D",
"p 	c #CFCFCF",
"q 	c #9A9A9A",
"r 	c #171A1A",
"s 	c #181B1B",
"t 	c #5E615A",
"u 	c #60625C",
"v 	c #959595",
"w 	c #121515",
"x 	c #172509",
"y 	c #010101",
"z 	c #020201",
"A 	c #020401",
"B 	c #192809",
"C 	c #030601",
"D 	c #040701",
"E 	c #2C2F2A",
"F 	c #596949",
"G 	c #4B4D48",
"H 	c #474944",
"I 	c #42443F",
"J 	c #495939",
"K 	c #363833",
"L 	c #070A03",
"M 	c #050801",
"N 	c #192B09",
"O 	c #070904",
"P 	c #424441",
"Q 	c #4E5E3F",
"R 	c #3D3D3C",
"S 	c #383837",
"T 	c #323232",
"U 	c #3C4A2E",
"V 	c #282828",
"W 	c #222222",
"X 	c #1D1D1D",
"Y 	c #2A381C",
"Z 	c #CECECE",
"` 	c #5D5F59",
" .	c #5F615B",
"..	c #949494",
"+.	c #000000",
"@.	c #010200",
"#.	c #020400",
"$.	c #030500",
"%.	c #040700",
"&.	c #040800",
"*.	c #050900",
"=.	c #050A00",
"-.	c #070D01",
";.	c #444C3C",
">.	c #555A51",
",.	c #50544C",
"'.	c #4B5047",
").	c #464B42",
"!.	c #41473D",
"~.	c #2B3126",
"{.	c #070E01",
"].	c #060D00",
"^.	c #060C00",
"/.	c #272C22",
"(.	c #4E514A",
"_.	c #484B44",
":.	c #41443E",
"<.	c #3B3E39",
"[.	c #353733",
"}.	c #30312E",
"|.	c #292A28",
"1.	c #232323",
"2.	c #181818",
"3.	c #CDCDCD",
"4.	c #5C5E58",
"5.	c #5E605A",
"6.	c #030600",
"7.	c #060B00",
"8.	c #080F01",
"9.	c #081001",
"0.	c #111E04",
"a.	c #7CA059",
"b.	c #5A6551",
"c.	c #50574A",
"d.	c #4B5345",
"e.	c #474F41",
"f.	c #434A3C",
"g.	c #192311",
"h.	c #0A1301",
"i.	c #091301",
"j.	c #0C1504",
"k.	c #4D5247",
"l.	c #4E5349",
"m.	c #484D43",
"n.	c #42483E",
"o.	c #3C4037",
"p.	c #363B32",
"q.	c #31342D",
"r.	c #2A2E27",
"s.	c #252722",
"t.	c #1E201C",
"u.	c #181917",
"v.	c #CCCCCC",
"w.	c #5B5D58",
"x.	c #5C5E59",
"y.	c #979797",
"z.	c #070F01",
"A.	c #081101",
"B.	c #091201",
"C.	c #0B1501",
"D.	c #0C1701",
"E.	c #20370A",
"F.	c #A7DF6F",
"G.	c #647552",
"H.	c #515A48",
"I.	c #4C5543",
"J.	c #47513E",
"K.	c #3E4935",
"L.	c #0E1B02",
"M.	c #0D1901",
"N.	c #0C1801",
"O.	c #2C3723",
"P.	c #535B4C",
"Q.	c #4D5546",
"R.	c #475041",
"S.	c #3D4437",
"T.	c #363D31",
"U.	c #31372C",
"V.	c #2C3127",
"W.	c #252A20",
"X.	c #1F231B",
"Y.	c #181B15",
"Z.	c #595B57",
"`.	c #1B2E08",
" +	c #1E3509",
".+	c #0B1601",
"++	c #213A09",
"@+	c #132303",
"#+	c #4C7723",
"$+	c #ACEA6F",
"%+	c #779F50",
"&+	c #525E44",
"*+	c #4B5640",
"=+	c #46523B",
"-+	c #3D5624",
";+	c #101F01",
">+	c #243F0B",
",+	c #4E5944",
"'+	c #515C48",
")+	c #4C5743",
"!+	c #52683C",
"~+	c #424C39",
"{+	c #3D4534",
"]+	c #37402F",
"^+	c #3E542A",
"/+	c #2B3324",
"(+	c #252C1F",
"_+	c #1E2519",
":+	c #2B3D18",
"<+	c #CBCBCB",
"[+	c #585A56",
"}+	c #5A5C57",
"|+	c #9D9D9D",
"1+	c #091101",
"2+	c #0D1A01",
"3+	c #0E1B01",
"4+	c #0F1D01",
"5+	c #102001",
"6+	c #1B3206",
"7+	c #7CBD3C",
"8+	c #ABE96D",
"9+	c #82AC59",
"0+	c #526242",
"a+	c #4A573C",
"b+	c #465438",
"c+	c #1D2E0C",
"d+	c #132501",
"e+	c #303F21",
"f+	c #546048",
"g+	c #505C44",
"h+	c #4B573F",
"i+	c #45523A",
"j+	c #414E36",
"k+	c #3C4831",
"l+	c #37412C",
"m+	c #313B27",
"n+	c #2A3421",
"o+	c #252E1C",
"p+	c #1F2717",
"q+	c #192012",
"r+	c #121615",
"s+	c #A7A7A7",
"t+	c #575955",
"u+	c #595B56",
"v+	c #A0A1A0",
"w+	c #112101",
"x+	c #122301",
"y+	c #122401",
"z+	c #142801",
"A+	c #29470B",
"B+	c #95DF4C",
"C+	c #A2DE65",
"D+	c #8ABD59",
"E+	c #536740",
"F+	c #485939",
"G+	c #3E502E",
"H+	c #162B02",
"I+	c #182D04",
"J+	c #4E5E40",
"K+	c #526143",
"L+	c #4F5F40",
"M+	c #4B5A3C",
"N+	c #445436",
"O+	c #3F4D31",
"P+	c #3A482D",
"Q+	c #354328",
"R+	c #303D23",
"S+	c #2A371E",
"T+	c #243019",
"U+	c #1E2914",
"V+	c #18220F",
"W+	c #AAAAAA",
"X+	c #CACACA",
"Y+	c #565854",
"Z+	c #585A55",
"`+	c #A2A3A2",
" @	c #0F1E01",
".@	c #112201",
"+@	c #132601",
"@@	c #142802",
"#@	c #152A02",
"$@	c #1B3304",
"%@	c #4B7F19",
"&@	c #96DC52",
"*@	c #8DC359",
"=@	c #92CC59",
"-@	c #536A3C",
";@	c #465934",
">@	c #2E4419",
",@	c #193102",
"'@	c #32471E",
")@	c #526441",
"!@	c #51653F",
"~@	c #678946",
"{@	c #55703D",
"]@	c #435532",
"^@	c #3D4F2E",
"/@	c #384929",
"(@	c #334424",
"_@	c #2E3E1F",
":@	c #28381A",
"<@	c #233115",
"[@	c #1D2A10",
"}@	c #18240C",
"|@	c #ACACAC",
"1@	c #565753",
"2@	c #A6A7A6",
"3@	c #233F09",
"4@	c #142702",
"5@	c #28460A",
"6@	c #162C02",
"7@	c #172D02",
"8@	c #182F02",
"9@	c #345B0E",
"0@	c #70B929",
"a@	c #83BC4C",
"b@	c #7DAB4E",
"c@	c #95D953",
"d@	c #526D36",
"e@	c #445A2F",
"f@	c #213C08",
"g@	c #2D520A",
"h@	c #1C3702",
"i@	c #1E3904",
"j@	c #4C6138",
"k@	c #59783A",
"l@	c #57713E",
"m@	c #91CD55",
"n@	c #658E40",
"o@	c #4E6E2F",
"p@	c #3B4F29",
"q@	c #374A25",
"r@	c #314420",
"s@	c #3B581F",
"t@	c #273917",
"u@	c #223311",
"v@	c #1C2C0D",
"w@	c #294410",
"x@	c #131615",
"y@	c #AFAFAF",
"z@	c #C9C9C9",
"A@	c #545552",
"B@	c #555752",
"C@	c #AAAAA9",
"D@	c #1A3302",
"E@	c #1D3702",
"F@	c #31550B",
"G@	c #85DB33",
"H@	c #678E42",
"I@	c #689041",
"J@	c #9BE157",
"K@	c #517233",
"L@	c #3A5521",
"M@	c #1F3D02",
"N@	c #334E19",
"O@	c #4F6639",
"P@	c #4E6836",
"Q@	c #6D9844",
"R@	c #9FE657",
"S@	c #72A640",
"T@	c #435C2A",
"U@	c #395024",
"V@	c #344A1F",
"W@	c #30451B",
"X@	c #2B4017",
"Y@	c #263A13",
"Z@	c #20340E",
"`@	c #1A2D09",
" #	c #142604",
".#	c #B2B2B2",
"+#	c #535550",
"@#	c #545651",
"##	c #ACACAB",
"$#	c #152902",
"%#	c #1A3402",
"&#	c #1B3602",
"*#	c #1C3802",
"=#	c #234304",
"-#	c #548F1A",
";#	c #81D033",
">#	c #537335",
",#	c #557833",
"'#	c #9BE453",
")#	c #547A31",
"!#	c #2F4F11",
"~#	c #224303",
"{#	c #234404",
"]#	c #48632E",
"^#	c #4C6632",
"/#	c #537234",
"(#	c #8FD250",
"_#	c #9BE552",
":#	c #7AB541",
"<#	c #415F25",
"[#	c #36501E",
"}#	c #314B1A",
"|#	c #2D4616",
"1#	c #284012",
"2#	c #243B0E",
"3#	c #192E05",
"4#	c #152903",
"5#	c #B5B5B5",
"6#	c #C9C9C8",
"7#	c #52544F",
"8#	c #AFAFAE",
"9#	c #172E02",
"0#	c #193002",
"a#	c #1D3902",
"b#	c #1E3B02",
"c#	c #2C5008",
"d#	c #76C32B",
"e#	c #6BAB2C",
"f#	c #4B6A2C",
"g#	c #4E732D",
"h#	c #94DC4C",
"i#	c #619231",
"j#	c #2A4E07",
"k#	c #254903",
"l#	c #345615",
"m#	c #4A672D",
"n#	c #4B6A2D",
"o#	c #669539",
"p#	c #97E34F",
"q#	c #89CD46",
"r#	c #7FC03F",
"s#	c #406121",
"t#	c #335018",
"u#	c #2F4B14",
"v#	c #2A4610",
"w#	c #27410D",
"x#	c #213C09",
"y#	c #1C3504",
"z#	c #183002",
"A#	c #172D03",
"B#	c #B8B8B8",
"C#	c #C8C8C8",
"D#	c #51534E",
"E#	c #B2B2B1",
"F#	c #2B4E0A",
"G#	c #1B3502",
"H#	c #1C3902",
"I#	c #1E3C02",
"J#	c #30590A",
"K#	c #204102",
"L#	c #234504",
"M#	c #39670E",
"N#	c #87DD33",
"O#	c #4D7D20",
"P#	c #436423",
"Q#	c #4A7026",
"R#	c #89D340",
"S#	c #67A52D",
"T#	c #2D5606",
"U#	c #284F03",
"V#	c #38670B",
"W#	c #446724",
"X#	c #476827",
"Y#	c #4D752A",
"Z#	c #88D043",
"`#	c #7FC140",
" $	c #77B739",
".$	c #83CA3D",
"+$	c #4A781F",
"@$	c #315013",
"#$	c #2D4D10",
"$$	c #28480B",
"%$	c #335B0E",
"&$	c #1F3D03",
"*$	c #2B4D0B",
"=$	c #BABABA",
"-$	c #C8C8C7",
";$	c #50524D",
">$	c #B5B5B4",
",$	c #1E3B03",
"'$	c #2C4F09",
")$	c #31570B",
"!$	c #325A0B",
"~$	c #335C0C",
"{$	c #345F0C",
"]$	c #39670D",
"^$	c #61A41F",
"/$	c #7CCD2D",
"($	c #416C19",
"_$	c #3D621C",
":$	c #446D1E",
"<$	c #7DC239",
"[$	c #6EB62A",
"}$	c #325F07",
"|$	c #2E5A05",
"1$	c #427016",
"2$	c #527D29",
"3$	c #527E27",
"4$	c #649C30",
"5$	c #92E146",
"6$	c #558726",
"7$	c #66A22D",
"8$	c #86D43C",
"9$	c #3F6A16",
"0$	c #386013",
"a$	c #3A6412",
"b$	c #36610F",
"c$	c #30570B",
"d$	c #2C5009",
"e$	c #1E3A05",
"f$	c #131715",
"g$	c #BEBEBE",
"h$	c #C7C7C7",
"i$	c #4F514C",
"j$	c #4F514D",
"k$	c #B9BAB8",
"l$	c #131815",
"m$	c #294D08",
"n$	c #88E135",
"o$	c #8AE235",
"p$	c #8BE235",
"q$	c #8AE234",
"r$	c #89E233",
"s$	c #62A61F",
"t$	c #3D6616",
"u$	c #3A6115",
"v$	c #406B17",
"w$	c #6FB12C",
"x$	c #76C429",
"y$	c #386A0A",
"z$	c #457B11",
"A$	c #92E344",
"B$	c #95E547",
"C$	c #94E445",
"D$	c #93E442",
"E$	c #79BF34",
"F$	c #437017",
"G$	c #579021",
"H$	c #88DB38",
"I$	c #477916",
"J$	c #7ECF30",
"K$	c #8AE134",
"L$	c #8BE135",
"M$	c #2D530B",
"N$	c #141815",
"O$	c #C1C1C1",
"P$	c #C7C7C6",
"Q$	c #4D4F4B",
"R$	c #4E504C",
"S$	c #BDBEBC",
"T$	c #224203",
"U$	c #30560A",
"V$	c #36610C",
"W$	c #37640C",
"X$	c #38660C",
"Y$	c #39690C",
"Z$	c #38690B",
"`$	c #326007",
" %	c #396211",
".%	c #386310",
"+%	c #3B6710",
"@%	c #5C9C1E",
"#%	c #7FD22F",
"$%	c #42790D",
"%%	c #6CB428",
"&%	c #86D03B",
"*%	c #52871E",
"=%	c #4A7D19",
"-%	c #3F6F12",
";%	c #37640E",
">%	c #497E15",
",%	c #89DF35",
"'%	c #538F17",
")%	c #88E033",
"!%	c #4A8214",
"~%	c #38680B",
"{%	c #35610C",
"]%	c #345E0C",
"^%	c #2F570A",
"/%	c #224205",
"(%	c #C4C4C4",
"_%	c #4C4E4A",
":%	c #C1C2C0",
"<%	c #325B0B",
"[%	c #234503",
"}%	c #254A03",
"|%	c #274D03",
"1%	c #2A5403",
"2%	c #2B5703",
"3%	c #2D5A03",
"4%	c #3D710C",
"5%	c #34620A",
"6%	c #356309",
"7%	c #356608",
"8%	c #559617",
"9%	c #86DD31",
"0%	c #4E8A12",
"a%	c #86D737",
"b%	c #6DB427",
"c%	c #3F710F",
"d%	c #386B0A",
"e%	c #366808",
"f%	c #42780D",
"g%	c #326405",
"h%	c #3E760B",
"i%	c #88E133",
"j%	c #77C52A",
"k%	c #7DCF2D",
"l%	c #376709",
"m%	c #2B5303",
"n%	c #264D03",
"o%	c #C6C6C6",
"p%	c #4B4D49",
"q%	c #C5C6C4",
"r%	c #274C03",
"s%	c #285003",
"t%	c #2A5303",
"u%	c #2C5703",
"v%	c #2E5A04",
"w%	c #2F5D04",
"x%	c #316004",
"y%	c #326304",
"z%	c #336504",
"A%	c #346704",
"B%	c #437C0B",
"C%	c #88E032",
"D%	c #68B121",
"E%	c #87DC33",
"F%	c #48820D",
"G%	c #376E05",
"H%	c #366B04",
"I%	c #366A04",
"J%	c #356904",
"K%	c #3F770A",
"L%	c #86DC32",
"M%	c #87DD32",
"N%	c #66AD22",
"O%	c #336206",
"P%	c #254803",
"Q%	c #C6C6C5",
"R%	c #4A4C48",
"S%	c #C7C8C6",
"T%	c #244803",
"U%	c #264C03",
"V%	c #2E5B04",
"W%	c #305E04",
"X%	c #316104",
"Y%	c #336404",
"Z%	c #376C04",
"`%	c #437D0A",
" &	c #84DA30",
".&	c #83D930",
"+&	c #74C226",
"@&	c #417B08",
"#&	c #3A7204",
"$&	c #397104",
"%&	c #397004",
"&&	c #386E04",
"*&	c #40790A",
"=&	c #81D730",
"-&	c #8AE334",
";&	c #488311",
">&	c #326005",
",&	c #264B03",
"'&	c #244704",
")&	c #C5C5C5",
"!&	c #494B47",
"~&	c #494B48",
"{&	c #CACBCA",
"]&	c #264A03",
"^&	c #284E03",
"/&	c #2A5203",
"(&	c #2C5603",
"_&	c #316204",
":&	c #386F04",
"<&	c #397204",
"[&	c #44800A",
"}&	c #7FD32D",
"|&	c #589D15",
"1&	c #3F7B06",
"2&	c #3D7805",
"3&	c #3C7705",
"4&	c #3C7605",
"5&	c #3B7405",
"6&	c #407B09",
"7&	c #7ACC2B",
"8&	c #7ED32F",
"9&	c #3E750A",
"0&	c #316304",
"a&	c #264904",
"b&	c #C4C5C4",
"c&	c #474946",
"d&	c #484A46",
"e&	c #CECFCD",
"f&	c #37650B",
"g&	c #295103",
"h&	c #2B5503",
"i&	c #2D5903",
"j&	c #3D720B",
"k&	c #447F0B",
"l&	c #3A7304",
"m&	c #4F9110",
"n&	c #75C627",
"o&	c #81D52F",
"p&	c #4A8B0B",
"q&	c #4D8F0C",
"r&	c #407E05",
"s&	c #3F7D05",
"t&	c #3E7B05",
"u&	c #498A0C",
"v&	c #417D08",
"w&	c #71C026",
"x&	c #6CB924",
"y&	c #3B7007",
"z&	c #37630B",
"A&	c #D4D4D4",
"B&	c #464844",
"C&	c #474945",
"D&	c #D2D3D1",
"E&	c #306004",
"F&	c #356804",
"G&	c #448408",
"H&	c #69B61F",
"I&	c #68B51D",
"J&	c #478908",
"K&	c #438405",
"L&	c #428205",
"M&	c #418005",
"N&	c #3E7A05",
"O&	c #407D08",
"P&	c #64AC1E",
"Q&	c #48860E",
"R&	c #396E05",
"S&	c #346804",
"T&	c #326404",
"U&	c #305F04",
"V&	c #284D04",
"W&	c #C3C4C3",
"X&	c #454743",
"Y&	c #D6D7D5",
"Z&	c #295003",
"`&	c #2B5403",
" *	c #346604",
".*	c #438406",
"+*	c #559D11",
"@*	c #4C8F0A",
"#*	c #478A06",
"$*	c #468A05",
"%*	c #468905",
"&*	c #458705",
"**	c #438505",
"=*	c #3F7C06",
"-*	c #44830B",
";*	c #3C7505",
">*	c #336604",
",*	c #284E04",
"'*	c #444642",
")*	c #DADBD9",
"!*	c #2B5603",
"~*	c #3B7505",
"{*	c #3D7905",
"]*	c #418105",
"^*	c #458505",
"/*	c #468B06",
"(*	c #478C05",
"_*	c #488F06",
":*	c #499006",
"<*	c #458905",
"[*	c #294F04",
"}*	c #C3C3C3",
"|*	c #434541",
"1*	c #434542",
"2*	c #DEDFDD",
"3*	c #40780B",
"4*	c #376D04",
"5*	c #48870C",
"6*	c #407F05",
"7*	c #428305",
"8*	c #50960C",
"9*	c #4B9406",
"0*	c #56A20D",
"a*	c #50950C",
"b*	c #48860C",
"c*	c #40770B",
"d*	c #38660B",
"e*	c #C2C2C2",
"f*	c #414340",
"g*	c #E2E3E1",
"h*	c #131616",
"i*	c #40423F",
"j*	c #E6E9E4",
"k*	c #E7E9E4",
"l*	c #E7EAE4",
"m*	c #E7EBE4",
"n*	c #E8EBE4",
"o*	c #E8ECE4",
"p*	c #E8EDE4",
"q*	c #E9EDE4",
"r*	c #E7E9E5",
"s*	c #3F413E",
"t*	c #BFBFBF",
"u*	c #3D3F3D",
"v*	c #252623",
"w*	c #1B1B1A",
"x*	c #050505",
"                                                                                                ",
"                                                                                                ",
"                                                                                                ",
"                                                                                                ",
"                                                                                                ",
"                                                                                                ",
"        . + + + + + + + + + + + + + + + + + + + + + + + + + + + + + + + + + + + + + @           ",
"      # $ % % % % % % % % % % % % % % % % % % % % % % % % % % % % % % % % % % % % % & *         ",
"      = - ; > , ' ) ! ~ { ] ^ / ( _ : < [ } | 1 2 3 4 5 6 7 8 9 0 / a b { c d ) e f g +         ",
"      h i j j k k k k k k k k k k l l l l l l l l l l l l l l l k k k k k k k k k m i n         ",
"      o p q r r r r r r r r r r r r r r r r r r r r r r r r r r r r r r r r r r s k i t         ",
"      u p v w x y y y x y z A B C D E F G H I J K L M N D O P Q R S T U V W X Y w j Z `         ",
"       .Z ..w +.+.+.@.#.$.%.&.*.=.-.;.>.,.'.).!.~.{.-.].^./.(._.:.<.[.}.|.1.X 2.w % 3.4.        ",
"      5.Z ..w @.#.6.&.*.7.^.{.8.9.0.a.b.c.d.e.f.g.h.h.i.j.k.l.m.n.o.p.q.r.s.t.u.w % v.w.        ",
"      x.Z y.w %.*.7.-.z.A.B.h.C.D.E.F.G.H.I.J.K.L.M.M.N.O.P.Q.R.f.S.T.U.V.W.X.Y.w k v.Z.        ",
"      w.Z q w `.{.9.B. +.+N.M.++@+#+$+%+&+*+=+-+;+;+;+>+,+'+)+!+~+{+]+^+/+(+_+:+w m <+[+        ",
"      }+Z |+w 1+h..+N.2+3+4+;+5+6+7+8+9+0+a+b+c+d+d+d+e+f+g+h+i+j+k+l+m+n+o+p+q+r+s+<+t+        ",
"      u+3.v+r+.+N.3+4+;+w+x+y+z+A+B+C+D+E+F+G+H+H+H+I+J+K+L+M+N+O+P+Q+R+S+T+U+V+r+W+X+Y+        ",
"      Z+3.`+r+3+ @5+.@y++@@@#@$@%@&@*@=@-@;@>@,@,@,@'@)@!@~@{@]@^@/@(@_@:@<@[@}@r+|@X+1@        ",
"      Y+v.2@r+3@.@d+4@5@6@7@8@9@0@a@b@c@d@e@f@g@h@i@j@k@l@m@n@o@p@q@r@s@t@u@v@w@x@y@z@A@        ",
"      B@3.C@r+y+4@#@6@8@,@D@E@F@G@H@I@J@K@L@M@M@M@N@O@P@Q@R@S@T@U@V@W@X@Y@Z@`@ #x@.#z@+#        ",
"      @#3.##x@$#6@8@,@%#&#*#=#-#;#>#,#'#)#!#~#~#{#]#^#/#(#_#:#<#[#}#|#1#2# +3#4#x@5#6#7#        ",
"      +#v.8#x@9#0#D@&#a#b#M@c#d#e#f#g#h#i#j#k#k#l#m#n#o#p#q#r#s#t#u#v#w#x#y#z#A#x@B#C#D#        ",
"      7#v.E#x@F#G#H#I#J#K#L#M#N#O#P#Q#R#S#T#U#V#W#X#Y#Z#`# $.$+$@$#$$$%$&$H#G#*$x@=$-$;$        ",
"      D#v.>$x@,$'$)$!$~${$]$^$/$($_$:$<$[$}$|$1$2$3$4$5$6$7$8$9$0$a$b$~$!$c$d$e$f$g$h$i$        ",
"      j$v.k$l$m$n$o$p$p$p$q$r$s$t$u$v$w$x$y$z$A$B$C$D$E$F$G$H$I$J$K$q$p$p$L$q$M$N$O$P$Q$        ",
"      R$v.S$f$T$U${$V$W$X$Y$Z$`$ %.%+%@%#%$%%%&%*%=%I$-%;%>%,%'%)%!%~%W${%]%^%/%f$(%P$_%        ",
"      Q$v.:%f$<%[%}%|%V#1%2%3%4%5%6%7%8%9%0%a%b%c%d%e%f%g%h%i%j%k%l%m%V#n%k#[%!$f$h$o%p%        ",
"      _%v.q%f$[%k#r%s%t%u%v%w%x%y%z%A%B%C%D%E%F%G%H%I%J%A%K%L%M%N%O%u%t%s%r%P%=#f$X+Q%R%        ",
"      p%<+S%f$T%U%U#t%u%V%W%X%Y%A%I%Z%`% &.&+&@&#&$&%&&&Z%*&=&-&;&>&v%u%t%U#,&'&f$Z )&!&        ",
"      ~&<+{&f$]&^&/&(&v%W%_&z%J%Z%:&<&[&}&q$|&1&2&3&4&5&$&6&7&8&9&0&W%v%(&/&^&a&f$g b&c&        ",
"      d&<+e&f$f&g&h&i&j&X%z%J%k&%&l&4&m&n&o&p&q&r&s&t&u&4&v&w&x&y&z%X%j&i&h&g&z&f$A&(%B&        ",
"      C&<+D&f$U#t%u%V%E&Y%F&Z%%&5&3&t&G&H&I&J&K&K&L&M&r&N&O&P&Q&R&S&T&U&V%u%t%V&f$, W&X&        ",
"      B&<+Y&f$Z&`&i&w%_& *I%&&l&3&t&r&.*+*@*#*$*%*&***L&r&=*-*;*:&I%>*X%w%i&`&,*f$) W&'*        ",
"      X&<+)*f$g&!*v%U&y%A%Z%%&~*{*s&]*^*/*(*_*:*_*(*<***]*s&N&5&%&H%A%y%W%3%h&[*f$! }*|*        ",
"      1*<+2*f$Z$(&V%U&3*F&4*$&5*N&6*7*8*(*:*9*0*9*:*(*a*7*r&N&b*$&Z%F&c*U&v%!*d*f${ e*f*        ",
"      P X+g*h*h*h*h*h*h*h*h*h*h*h*h*h*h*h*h*h*h*h*h*h*h*h*h*h*h*h*h*h*h*h*h*h*h*f$] e*i*        ",
"      f*<+7 j*k*k*l*l*l*m*m*n*n*o*o*o*o*p*q*q*q*q*q*p*o*o*o*o*n*n*m*l*l*l*l*k*k*r*/ O$s*        ",
"      f*t*A&A&A&A&A&A&A&A&A&A&A&A&A&A&A&A&A&A&A&A&A&A&A&A&A&A&A&A&A&A&A&A&A&A&A&A&; B#u*        ",
"      v*1*P P P P P P P P P P P P P P P P P P P P P P P P P P P P P P P P P P P P P P w*+.      ",
"      +.y x*x*x*x*x*x*x*x*x*x*x*x*x*x*x*x*x*x*x*x*x*x*x*x*x*x*x*x*x*x*x*x*x*x*x*x*x*y +.+.      ",
"          +.+.+.+.+.+.+.+.+.+.+.+.+.+.+.+.+.+.+.+.+.+.+.+.+.+.+.+.+.+.+.+.+.+.+.+.+.+.          ",
"                                                                                                ",
"                                                                                                ",
"                                                                                                ",
"                                                                                                ",
"                                                                                                ",
"                                                                                                "};
