/* XPM */
static char * sysnotifications_xpm[] = {
"48 48 94 2",
"  	c None",
". 	c #383F42",
"+ 	c #313639",
"@ 	c #2E3436",
"# 	c #576982",
"$ 	c #81A0CD",
"% 	c #87A8D8",
"& 	c #D2DFED",
"* 	c #C9D5E1",
"= 	c #7A838B",
"- 	c #33393C",
"; 	c #81A0CF",
"> 	c #6792D1",
", 	c #608DD0",
"' 	c #C8DAED",
") 	c #CADBED",
"! 	c #C9D6E2",
"~ 	c #313638",
"{ 	c #C7D9ED",
"] 	c #C7D9EC",
"^ 	c #C6D9EC",
"/ 	c #C5D8EC",
"( 	c #C4D7EC",
"_ 	c #C1D6EB",
": 	c #BFD4EA",
"< 	c #BCD2E9",
"[ 	c #B9D0E8",
"} 	c #B7CFE7",
"| 	c #B6CEE7",
"1 	c #B7CEE7",
"2 	c #B8D0E8",
"3 	c #BAD0E8",
"4 	c #BBD2E9",
"5 	c #CADAEA",
"6 	c #7EA1D5",
"7 	c #5F8DD0",
"8 	c #C2D6EB",
"9 	c #C0D5EA",
"0 	c #BDD3E9",
"a 	c #BAD1E8",
"b 	c #C5D7E9",
"c 	c #6590CE",
"d 	c #4278C7",
"e 	c #4E81CB",
"f 	c #5283CC",
"g 	c #4B7ECA",
"h 	c #4379C8",
"i 	c #3C74C5",
"j 	c #346EC3",
"k 	c #2E6AC1",
"l 	c #628ECD",
"m 	c #2D69C1",
"n 	c #303638",
"o 	c #5E87C4",
"p 	c #3770C3",
"q 	c #B9CFE7",
"r 	c #BCCDDE",
"s 	c #303538",
"t 	c #363D40",
"u 	c #485F7D",
"v 	c #5F88C5",
"w 	c #618DCD",
"x 	c #C5D6E8",
"y 	c #C3D6E8",
"z 	c #BCD1E8",
"A 	c #C4D6E8",
"B 	c #C5D7E8",
"C 	c #BDCEDF",
"D 	c #76808A",
"E 	c #2E3437",
"F 	c #31373A",
"G 	c #6D797F",
"H 	c #C3D5E9",
"I 	c #C0D1E3",
"J 	c #50595E",
"K 	c #313739",
"L 	c #2C3033",
"M 	c #758089",
"N 	c #C2D5E8",
"O 	c #B8CFE8",
"P 	c #C3D5E8",
"Q 	c #677179",
"R 	c #31383B",
"S 	c #2C3234",
"T 	c #7E8892",
"U 	c #C1D4E8",
"V 	c #84919C",
"W 	c #333A3C",
"X 	c #87919A",
"Y 	c #9FADBB",
"Z 	c #32393C",
"` 	c #2F3537",
" .	c #33393B",
"..	c #1B1F21",
"                                                                                                ",
"                                                                                                ",
"                                                                                                ",
"                                                                                                ",
"                                                                                                ",
"                                                                                                ",
"                                                                                                ",
"                                                                                                ",
"                                                                                                ",
"                                                                                                ",
"                                                                                                ",
"                                                                                                ",
"            . + @ @ @ @ @ @ @ @ @ @ @ @ @ @ @ @ @ @ @ @ @ @ @ @ @ @ @ @ @ @ @ @ + .             ",
"          . # $ % % % % % % % & & & & & & & & & & & & & & & & & & & & & & & & & * = -           ",
"          + ; > , , , , , , , ' ' ' ' ' ' ' ' ' ' ' ' ' ' ' ' ' ' ' ' ' ' ' ' ' ) ! ~           ",
"          @ % , , , , , , , , ' ' ' ' ' ' ' ' ' ' ' ' ' ' ' ' ' ' ' ' ' ' ' ' ' ' & @           ",
"          @ % , , , , , , , , ' ' ' ' ' ' ' ' ' ' ' ' ' ' ' ' ' ' ' ' ' ' ' ' ' ' & @           ",
"          @ % , , , , , , , , ' ' ' ' ' ' ' ' ' ' ' ' ' ' ' ' ' ' ' ' ' ' ' ' ' ' & @           ",
"          @ % , , , , , , , , ' ' ' ' ' ' ' ' ' ' ' ' ' ' ' ' ' ' ' ' ' ' ' ' ' ' & @           ",
"          @ % , , , , , , , , ' ' ' ' ' ' ' ' ' ' ' ' ' ' ' ' ' ' ' ' ' ' ' ' ' ' & @           ",
"          @ % , , , , , , , , ' ' ' ' ' ' ' ' ' ' ' ' ' ' ' ' ' ' ' ' ' ' ' ' ' ' & @           ",
"          @ % , , , , , , , , ' ' ' ' ' ' ' ' ' ' ' ' ' { ] ^ / / / ( / ] ' ' ' ' & @           ",
"          @ % , , , , , , , , ' ' ' ' ' ' ] ( _ : < [ } | | | | | | | | | 1 2 3 4 5 @           ",
"          @ 6 , , , , , , , 7 / 8 9 0 a } | | | | | | | | | | | | | | | | | | | | b @           ",
"          @ c d e f g h i j k | | | | | | | | | | | | | | | | | | | | | | | | | | b @           ",
"          @ l m m m m m m m m | | | | | | | | | | | | | | | | | | | | | | | | | | b @           ",
"          @ l m m m m m m m m | | | | | | | | | | | | | | | | | | | | | | | | | | b @           ",
"          @ l m m m m m m m m | | | | | | | | | | | | | | | | | | | | | | | | | | b @           ",
"          @ l m m m m m m m m | | | | | | | | | | | | | | | | | | | | | | | | | | b @           ",
"          @ l m m m m m m m m | | | | | | | | | | | | | | | | | | | | | | | | | | b @           ",
"          @ l m m m m m m m m | | | | | | | | | | | | | | | | | | | | | | | | | | b @           ",
"          @ l m m m m m m m m | | | | | | | | | | | | | | | | | | | | | | | | | | b @           ",
"          n o p m m m m m m m | | | | | | | | | | | | | | | | | | | | | | | | | q r s           ",
"          t u v w w w w w w w x x x x x x x x x x x x x x x x y } | | | | z A B C D E           ",
"            F n n n n n n n n n n n n n n n n n n n n n n n n G H } | | q I J K s E             ",
"                                                              L M N } O P Q R                   ",
"                                                                S T U N V W                     ",
"                                                                  @ X Y Z                       ",
"                                                                    `  .                        ",
"                                                                      ..                        ",
"                                                                                                ",
"                                                                                                ",
"                                                                                                ",
"                                                                                                ",
"                                                                                                ",
"                                                                                                ",
"                                                                                                ",
"                                                                                                "};
