/* XPM */
static char * terminal_xpm[] = {
"48 48 409 2",
"  	c None",
". 	c #AEB2B5",
"+ 	c #C6C9CD",
"@ 	c #D0D3D6",
"# 	c #CFD2D5",
"$ 	c #CED1D5",
"% 	c #CFD3D6",
"& 	c #CFD3D5",
"* 	c #C7CACD",
"= 	c #ADB1B5",
"- 	c #CDCFD3",
"; 	c #E9EDF0",
"> 	c #F9FDFF",
", 	c #F5FCFF",
"' 	c #F4FAFF",
") 	c #F4F9FF",
"! 	c #F5FAFF",
"~ 	c #F5FBFF",
"{ 	c #F6FCFF",
"] 	c #CED0D2",
"^ 	c #E6E8EA",
"/ 	c #F1F7FD",
"( 	c #ECF3FC",
"_ 	c #ECF4FD",
": 	c #FAFFFF",
"< 	c #F9FFFF",
"[ 	c #F8FEFF",
"} 	c #F7FEFF",
"| 	c #F7FDFF",
"1 	c #EDF4FD",
"2 	c #F0F6FD",
"3 	c #E6E9EA",
"4 	c #C8CBCF",
"5 	c #EEF4FB",
"6 	c #E9F0F9",
"7 	c #E8EFF8",
"8 	c #B8BCBE",
"9 	c #484A4B",
"0 	c #1F1F1E",
"a 	c #1E1E1D",
"b 	c #1E1E1E",
"c 	c #1F1E1D",
"d 	c #48494A",
"e 	c #B7BBBE",
"f 	c #E9EFF7",
"g 	c #EDF3FB",
"h 	c #C8CBCE",
"i 	c #E5EAF0",
"j 	c #E7EDF6",
"k 	c #7E8082",
"l 	c #2F2F2F",
"m 	c #444444",
"n 	c #494949",
"o 	c #484848",
"p 	c #4A4A4A",
"q 	c #444343",
"r 	c #302F2F",
"s 	c #E7EEF7",
"t 	c #E5EAEF",
"u 	c #A0A4A9",
"v 	c #EEF4FC",
"w 	c #E5ECF6",
"x 	c #B7BCBF",
"y 	c #303030",
"z 	c #424242",
"A 	c #434343",
"B 	c #454545",
"C 	c #B7BBBF",
"D 	c #BBC0C5",
"E 	c #E6EDF6",
"F 	c #F1F8FF",
"G 	c #4C4D4D",
"H 	c #404040",
"I 	c #414141",
"J 	c #424141",
"K 	c #E6EEF8",
"L 	c #C1C8CE",
"M 	c #E1E8F1",
"N 	c #EFF6FD",
"O 	c #262524",
"P 	c #3D3D3D",
"Q 	c #3C3C3C",
"R 	c #EFF5FD",
"S 	c #E1E8F2",
"T 	c #C1C8CF",
"U 	c #BFC5CD",
"V 	c #DEE6EF",
"W 	c #EBF2F9",
"X 	c #242423",
"Y 	c #3F3F3F",
"Z 	c #393939",
"` 	c #3A3A3A",
" .	c #3E3E3E",
"..	c #EBF1F8",
"+.	c #DFE5EF",
"@.	c #BEC5CD",
"#.	c #BBC2CA",
"$.	c #DCE3EC",
"%.	c #E8EEF7",
"&.	c #232221",
"*.	c #3B3B3B",
"=.	c #373737",
"-.	c #363636",
";.	c #353535",
">.	c #D5D5D5",
",.	c #636363",
"'.	c #343434",
").	c #232121",
"!.	c #E8EFF7",
"~.	c #DBE2EB",
"{.	c #BDC3CB",
"].	c #B9BFC7",
"^.	c #D8DFE8",
"/.	c #E6EDF4",
"(.	c #20201F",
"_.	c #383838",
":.	c #333333",
"<.	c #707070",
"[.	c #BCBCBC",
"}.	c #C4C4C4",
"|.	c #7D7D7D",
"1.	c #21201F",
"2.	c #E5ECF4",
"3.	c #B6BCC5",
"4.	c #D5DCE5",
"5.	c #E2E9F2",
"6.	c #1E1E1C",
"7.	c #535353",
"8.	c #B4B4B4",
"9.	c #DBDBDB",
"0.	c #2D2D2D",
"a.	c #313131",
"b.	c #1E1D1C",
"c.	c #E3E9F1",
"d.	c #D5DBE4",
"e.	c #B6BCC4",
"f.	c #B3B9C2",
"g.	c #D1D8E2",
"h.	c #DFE6EF",
"i.	c #1C1C1B",
"j.	c #2C2C2C",
"k.	c #323232",
"l.	c #505050",
"m.	c #B0B0B0",
"n.	c #D9D9D9",
"o.	c #6E6E6E",
"p.	c #2A2A2A",
"q.	c #1B1B1A",
"r.	c #DFE6ED",
"s.	c #D1D9E2",
"t.	c #B4BAC2",
"u.	c #B0B6BE",
"v.	c #CDD5DE",
"w.	c #DCE3EB",
"x.	c #1A1918",
"y.	c #2E2E2E",
"z.	c #292929",
"A.	c #282828",
"B.	c #6A6A6A",
"C.	c #BABABA",
"D.	c #C0C0C0",
"E.	c #747474",
"F.	c #2B2B2B",
"G.	c #262626",
"H.	c #DBE3EB",
"I.	c #CED5DE",
"J.	c #AFB5BD",
"K.	c #ADB3BB",
"L.	c #CBD1DA",
"M.	c #D9E0E9",
"N.	c #181717",
"O.	c #252525",
"P.	c #D0D0D0",
"Q.	c #555555",
"R.	c #242424",
"S.	c #171716",
"T.	c #CAD1DA",
"U.	c #ACB3BA",
"V.	c #A9AEB7",
"W.	c #C6CDD6",
"X.	c #D5DCE6",
"Y.	c #151514",
"Z.	c #272727",
"`.	c #232323",
" +	c #222222",
".+	c #181818",
"++	c #F8F8F8",
"@+	c #F0F0F0",
"#+	c #EFEFEF",
"$+	c #F7F7F7",
"%+	c #A9AFB8",
"&+	c #A6ACB4",
"*+	c #C3C9D2",
"=+	c #D0D7E1",
"-+	c #141312",
";+	c #202020",
">+	c #212121",
",+	c #242425",
"'+	c #131312",
")+	c #C3CAD3",
"!+	c #A2A8B0",
"~+	c #BFC6CF",
"{+	c #CCD5DE",
"]+	c #121111",
"^+	c #1D1D1D",
"/+	c #1C1C1C",
"(+	c #121011",
"_+	c #CED4DE",
":+	c #9FA5AD",
"<+	c #BBC2CB",
"[+	c #C9D0D9",
"}+	c #0F0F0E",
"|+	c #191919",
"1+	c #1B1B1B",
"2+	c #1A1A1A",
"3+	c #1F1F1F",
"4+	c #CAD1DB",
"5+	c #BCC3CC",
"6+	c #9FA5AE",
"7+	c #9CA3AB",
"8+	c #B8BFC8",
"9+	c #090908",
"0+	c #171717",
"a+	c #161616",
"b+	c #080807",
"c+	c #C6CED7",
"d+	c #B7BEC7",
"e+	c #9CA2AA",
"f+	c #989FA6",
"g+	c #B3BAC4",
"h+	c #C2CAD3",
"i+	c #050505",
"j+	c #100F0F",
"k+	c #0C0C0C",
"l+	c #0E0E0E",
"m+	c #111111",
"n+	c #151515",
"o+	c #141414",
"p+	c #989FA7",
"q+	c #959BA4",
"r+	c #B0B8C0",
"s+	c #BEC6CE",
"t+	c #050504",
"u+	c #0F0F0F",
"v+	c #0B0B0B",
"w+	c #0A0A0A",
"x+	c #0D0D0D",
"y+	c #121212",
"z+	c #131313",
"A+	c #101010",
"B+	c #BDC5CE",
"C+	c #B0B7C0",
"D+	c #959CA4",
"E+	c #9198A0",
"F+	c #ACB3BC",
"G+	c #BAC2CC",
"H+	c #060505",
"I+	c #BAC1CB",
"J+	c #ADB4BD",
"K+	c #8E949D",
"L+	c #A8AFB8",
"M+	c #B5BEC7",
"N+	c #B6BEC7",
"O+	c #A8AFB9",
"P+	c #8D949C",
"Q+	c #8A9199",
"R+	c #A5ACB5",
"S+	c #B3B9C4",
"T+	c #B2B9C3",
"U+	c #A5ACB6",
"V+	c #8B9299",
"W+	c #878D95",
"X+	c #A1A8B1",
"Y+	c #AFB6BF",
"Z+	c #AFB5C0",
"`+	c #A1A8B0",
" @	c #878E96",
".@	c #838A92",
"+@	c #9DA4AD",
"@@	c #A9B2BB",
"#@	c #060605",
"$@	c #A9B1BA",
"%@	c #9DA4AE",
"&@	c #848A92",
"*@	c #81878F",
"=@	c #99A0A9",
"-@	c #A7AEB8",
";@	c #A6AFB8",
">@	c #9AA1AA",
",@	c #80868F",
"'@	c #7E848C",
")@	c #969DA6",
"!@	c #A3AAB4",
"~@	c #090909",
"{@	c #050605",
"]@	c #A2AAB4",
"^@	c #979DA7",
"/@	c #7D848C",
"(@	c #798088",
"_@	c #939AA3",
":@	c #9FA6B1",
"<@	c #060606",
"[@	c #9FA6B0",
"}@	c #9299A2",
"|@	c #7A8189",
"1@	c #777E86",
"2@	c #8F969F",
"3@	c #9CA3AD",
"4@	c #9BA3AC",
"5@	c #777D85",
"6@	c #747A84",
"7@	c #8C939C",
"8@	c #979FA8",
"9@	c #989FA9",
"0@	c #8B929B",
"a@	c #747A83",
"b@	c #717880",
"c@	c #899099",
"d@	c #969CA7",
"e@	c #080808",
"f@	c #949CA5",
"g@	c #71777F",
"h@	c #6E747C",
"i@	c #868D96",
"j@	c #929AA2",
"k@	c #9199A3",
"l@	c #6F757D",
"m@	c #6C727B",
"n@	c #838A93",
"o@	c #9098A1",
"p@	c #090808",
"q@	c #9097A1",
"r@	c #6B717A",
"s@	c #626870",
"t@	c #838992",
"u@	c #88909A",
"v@	c #2C2E30",
"w@	c #828993",
"x@	c #626770",
"y@	c #494E55",
"z@	c #858C95",
"A@	c #7A818A",
"B@	c #72787F",
"C@	c #0C0B0B",
"D@	c #73797F",
"E@	c #858B94",
"F@	c #494F55",
"G@	c #26292E",
"H@	c #787F87",
"I@	c #7C848C",
"J@	c #525559",
"K@	c #0D0D0C",
"L@	c #0D0C0C",
"M@	c #0B0B0A",
"N@	c #52555A",
"O@	c #7B838C",
"P@	c #7A828B",
"Q@	c #787E87",
"R@	c #25282D",
"S@	c #5A5F66",
"T@	c #797F89",
"U@	c #767D87",
"V@	c #7A818B",
"W@	c #787C84",
"X@	c #333436",
"Y@	c #0B0A0A",
"Z@	c #080707",
"`@	c #080708",
" #	c #080907",
".#	c #333537",
"+#	c #797E85",
"@#	c #787F88",
"##	c #777E87",
"$#	c #595E66",
"%#	c #757C85",
"&#	c #727982",
"*#	c #838B94",
"=#	c #9098A2",
"-#	c #8F97A1",
";#	c #9199A2",
">#	c #919AA2",
",#	c #9198A2",
"'#	c #9199A1",
")#	c #9099A2",
"!#	c #929AA3",
"~#	c #838A94",
"{#	c #717881",
"]#	c #767D86",
"^#	c #6E757C",
"/#	c #15181B",
"(#	c #52575E",
"_#	c #70767F",
":#	c #737A84",
"<#	c #747B84",
"[#	c #737983",
"}#	c #737A83",
"|#	c #7B828B",
"1#	c #70777F",
"2#	c #52585E",
"3#	c #1B1D21",
"4#	c #383E44",
"5#	c #4D555C",
"6#	c #575D66",
"7#	c #575E66",
"8#	c #575E65",
"9#	c #585E66",
"0#	c #565E65",
"a#	c #575D65",
"b#	c #4E555C",
"                                                                                                ",
"                                                                                                ",
"                                                                                                ",
"                . + @ # # $ # # # $ % $ # # # # # # # # # # # # # # & # # @ * =                 ",
"            - ; > , ' ' ) ' ! ! ! ! ) ! ) ) ! ! ) ' ' ' ! ' ' ' ~ ! ' ~ ) ! { > ; ]             ",
"          ^ / ( _ : < [ } [ } [ [ | } | } } [ | } [ [ [ | [ } } | [ } [ } < : 1 ( 2 3           ",
"        4 5 6 7 8 9 0 a a b c a a a a a c a a a a a b a a a a a a a a a a 0 d e f 6 g h         ",
"        i 7 j k l m n n n n n o n n n n n n n n n p n n n n n n n n n n n n q r k j s t         ",
"      u v w x y m z z z z A z A A z z z z z z z z z z z z z z z A z z z z z z B y C w v u       ",
"      D E F G z H H H H H H H H H H H H H H H H H H H I H H H H H H H I H H H H J G F K D       ",
"      L M N O z P P P P P Q Q P P P P P P P P Q P Q P P P P P P P P P P P P P P z O R S T       ",
"      U V W X Y Z Z Z Q y Z Z ` Z Z Z Z ` ` Z Z Z Z Z Z Z Z Z ` Z Z Z Z Z Z Z Z  .X ..+.@.      ",
"      #.$.%.&.*.=.-.;.;.>.,.Y '.-.=.=.-.-.-.-.=.=.=.=.=.-.=.=.=.=.=.=.=.=.=.=.;.*.).!.~.{.      ",
"      ].^./.(._.'.:.'.:.<.[.}.|.;.y '.:.'.'.'.'.:.'.:.:.'.'.'.'.'.'.'.'.'.'.'.:.Z 1.2.^.].      ",
"      3.4.5.6.;.l l y y l -.7.8.9.<.0.y y y y l y l y y y y y a.l y y y l y l l '.b.c.d.e.      ",
"      f.g.h.i.a.j.0.0.0.j.k.l.m.n.o.p.j.0.0.0.0.0.j.j.0.0.0.0.0.0.j.0.0.0.0.0.0.a.q.r.s.t.      ",
"      u.v.w.x.y.z.p.z.A.B.C.D.E.F.G.z.A.z.A.A.A.z.z.z.z.z.z.p.z.z.z.z.z.z.z.z.z.y.x.H.I.J.      ",
"      K.L.M.N.F.G.G.G.O.P.Q.l O.G.z.R.G.G.G.G.R.p.G.G.G.G.G.G.G.G.G.G.G.G.G.G.G.F.S.^.T.U.      ",
"      V.W.X.Y.Z.`.`. +O..+`. +`. +b ++@+#+#+@+$+b `.`.`.`.`.`.`.`.`.`.`.`.`.`.`.Z.Y.X.W.%+      ",
"      &+*+=+-+R.;+;+;+;+;+;+;+;+;+>+`.O.O.O.R.`.>+;+;+;+;+;+;+;+;+;+;+;+;+;+;+;+,+'+g.)+&+      ",
"      !+~+{+]+>+^+/+^+^+/+^+^+/+/+^+^+^+^+/+^+/+^+^+^+^+^+/+/+/+^+^+^+^+/+^+^+/+>+(+_+~+!+      ",
"      :+<+[+}+b |+1+1+2+1+2+1+2+2+2+1+2+2+1+1+1+1+1+2+2+1+2+1+1+1+2+1+1+2+2+2+1+3+}+4+5+6+      ",
"      7+8+W.9+0+0+.+.+.+0+0+0+0+0+.+0+0+0+0+0+0+0+0+0+0+0+0+0+0+0+0+0+0+.+.+|+a+0+b+c+d+e+      ",
"      f+g+h+i+j+k+l+m+n+a+a+a+n+n+n+n+n+a+a+n+a+n+n+n+n+a+a+n+n+n+n+a+0+o+m+l+k+j+i+)+g+p+      ",
"      q+r+s+t+u+v+v+v+w+v+x+u+m+y+o+o+z+z+z+z+z+z+z+z+z+z+o+o+y+m+A+x+v+v+v+v+v+u+i+B+C+D+      ",
"      E+F+G+i+u+w+v+v+v+w+v+w+w+w+w+v+v+k+k+k+k+k+k+k+k+k+v+w+w+w+w+v+v+w+w+w+v+u+H+I+J+E+      ",
"      K+L+M+t+l+w+w+w+v+w+w+w+w+w+w+w+w+w+v+w+w+w+w+w+w+w+w+w+w+w+w+w+w+w+w+w+w+l+t+N+O+P+      ",
"      Q+R+S+H+l+w+w+w+w+w+w+w+w+w+w+w+v+v+v+v+w+w+v+w+w+w+v+w+w+w+w+w+w+w+w+w+w+l+H+T+U+V+      ",
"      W+X+Y+H+l+w+v+w+v+w+w+w+w+w+w+w+v+w+w+v+w+w+w+w+w+w+w+w+w+w+w+w+v+w+w+w+w+l+H+Z+`+ @      ",
"      .@+@@@H+l+w+w+w+w+w+w+w+w+w+w+w+w+w+w+v+w+w+w+w+w+w+w+w+w+w+w+w+w+w+w+w+w+l+#@$@%@&@      ",
"      *@=@-@#@x+w+w+w+w+w+w+w+w+w+w+w+w+w+w+w+w+w+w+w+w+w+w+w+w+w+w+w+w+w+w+w+w+l+#@;@>@,@      ",
"      '@)@!@#@l+w+w+w+w+w+w+w+w+w+w+w+w+w+w+w+w+w+w+~@w+w+w+w+w+w+~@w+w+w+w+w+w+l+{@]@^@/@      ",
"      (@_@:@<@l+w+w+w+w+w+~@w+w+w+w+w+w+w+w+w+w+w+w+w+w+w+w+w+w+w+w+w+w+w+w+w+w+x+<@[@}@|@      ",
"      1@2@3@<@l+w+w+w+w+~@w+w+w+w+w+w+w+w+w+w+w+w+w+w+w+w+w+w+w+w+w+w+w+w+w+w+w+l+<@4@2@5@      ",
"      6@7@8@<@l+~@w+w+~@w+~@w+~@~@w+~@w+~@~@~@w+~@w+~@w+w+w+~@w+w+w+w+w+w+w+w+~@x+<@9@0@a@      ",
"      b@c@d@#@x+~@~@~@~@~@~@~@~@~@~@~@e@~@~@w+~@~@~@~@~@~@~@~@~@~@~@~@~@~@~@~@~@x+<@f@c@g@      ",
"      h@i@j@H+x+~@~@~@~@~@~@~@~@~@~@~@~@~@~@~@~@~@~@~@~@~@~@~@~@~@~@~@~@~@~@~@~@x+#@k@i@l@      ",
"      m@n@o@e@l+~@~@~@~@~@~@~@~@~@~@~@~@~@~@~@~@~@~@~@~@~@~@~@~@~@~@~@~@~@~@~@~@l+p@q@n@r@      ",
"      s@t@u@v@k+~@~@~@~@~@~@~@~@~@~@~@~@~@~@~@~@~@~@~@~@~@~@~@~@~@~@~@~@~@~@~@~@k+v@u@w@x@      ",
"      y@z@A@B@C@v+~@~@~@~@~@~@~@e@~@~@~@~@~@~@~@~@e@~@~@~@~@~@~@~@~@~@~@~@~@~@v+v+D@A@E@F@      ",
"      G@H@A@I@J@v+k+x+x+x+x+K@L@x+x+x+x+k+x+k+x+x+x+k+x+x+x+x+x+x+x+k+x+k+x+v+M@N@O@P@Q@R@      ",
"        S@T@U@V@W@X@Y@Z@e@Z@`@e@ #b+e@Z@e@Z@e@b+b+b+e@b+Z@p@Z@Z@`@Z@e@b+Z@Y@.#+#A@@###$#        ",
"          l@##%#&#*#=#-#;#>#,#'#,#;#;#,#=#)#)#;#o@;#;#o@;#;#;#k@!#)#;#,#;#,#~#{#]###^#          ",
"          /#(#_#P@]#:#<#[#}#:#:#}#}#:#}#}#:#6@[#<#}#}#<#<#}#:#}#}#<#a@}#}#}#]#|#1#2#/#          ",
"              3#4#5#6#7#8#9#6#7#7#8#7#7#7#6#0#7#7#7#a#7#7#7#7#7#8#8#0#a#7#6#b#4#3#              ",
"                                                                                                ",
"                                                                                                ",
"                                                                                                "};
