/* XPM */
static char * tigervncviewer_xpm[] = {
"48 48 779 2",
"  	c None",
". 	c #000000",
"+ 	c #020201",
"@ 	c #050403",
"# 	c #060504",
"$ 	c #040303",
"% 	c #060403",
"& 	c #060402",
"* 	c #060302",
"= 	c #010101",
"- 	c #020100",
"; 	c #060301",
"> 	c #050301",
", 	c #040201",
"' 	c #010100",
") 	c #050404",
"! 	c #151312",
"~ 	c #4E443D",
"{ 	c #917C6E",
"] 	c #A98E7B",
"^ 	c #B2917A",
"/ 	c #A88972",
"( 	c #6C6560",
"_ 	c #927460",
": 	c #B4815E",
"< 	c #B17B56",
"[ 	c #B1774F",
"} 	c #B17248",
"| 	c #B06E40",
"1 	c #B06939",
"2 	c #B36632",
"3 	c #201813",
"4 	c #070707",
"5 	c #42220B",
"6 	c #B45A1E",
"7 	c #AF571D",
"8 	c #AF581D",
"9 	c #AE571D",
"0 	c #A6531C",
"a 	c #864316",
"b 	c #3F1F0A",
"c 	c #100803",
"d 	c #030201",
"e 	c #191818",
"f 	c #756D68",
"g 	c #EAD5C8",
"h 	c #FFF0DE",
"i 	c #FFE3CC",
"j 	c #FFDABE",
"k 	c #FFD4B2",
"l 	c #FFCDA8",
"m 	c #A8998E",
"n 	c #C5A189",
"o 	c #FFB988",
"p 	c #FFB47E",
"q 	c #FFAE74",
"r 	c #FFA769",
"s 	c #FFA15E",
"t 	c #FF9B54",
"u 	c #F58D46",
"v 	c #1A1918",
"w 	c #0C0C0B",
"x 	c #A2511B",
"y 	c #FF842B",
"z 	c #FF812B",
"A 	c #FF822B",
"B 	c #FF832B",
"C 	c #FF872D",
"D 	c #DB6E25",
"E 	c #5E2F10",
"F 	c #120903",
"G 	c #313131",
"H 	c #BBBAB9",
"I 	c #FFFEF7",
"J 	c #FFECDD",
"K 	c #FFDBC3",
"L 	c #FFCCAA",
"M 	c #FFBB8D",
"N 	c #FFB07C",
"O 	c #FFB277",
"P 	c #9E785F",
"Q 	c #916E56",
"R 	c #ED985F",
"S 	c #FF9E5C",
"T 	c #FF9A56",
"U 	c #FF964F",
"V 	c #FF9249",
"W 	c #FF9144",
"X 	c #97562B",
"Y 	c #100F0F",
"Z 	c #17100A",
"` 	c #F47A28",
" .	c #FF7F2A",
"..	c #FF882D",
"+.	c #AA551C",
"@.	c #241206",
"#.	c #323231",
"$.	c #DADBDB",
"%.	c #FDFEFE",
"&.	c #EADFD7",
"*.	c #FFC299",
"=.	c #FF9046",
"-.	c #FF7A21",
";.	c #FF7B23",
">.	c #FF8126",
",.	c #A14D15",
"'.	c #512509",
").	c #D4671E",
"!.	c #FF7F27",
"~.	c #FF7D26",
"{.	c #FF7D27",
"].	c #FF7E28",
"^.	c #FC7D28",
"/.	c #2A1405",
"(.	c #743A12",
"_.	c #FF802A",
":.	c #C16020",
"<.	c #231206",
"[.	c #1B1918",
"}.	c #C6C0BB",
"|.	c #FFFFFF",
"1.	c #C8CCCF",
"2.	c #896C5A",
"3.	c #E66C1A",
"4.	c #FF7E27",
"5.	c #DF6F25",
"6.	c #3B1E0A",
"7.	c #BC5E1F",
"8.	c #A1501B",
"9.	c #0B0602",
"0.	c #E47226",
"a.	c #EF7727",
"b.	c #E06F25",
"c.	c #D76B23",
"d.	c #CF6722",
"e.	c #CE6722",
"f.	c #D26823",
"g.	c #DA6D24",
"h.	c #E17025",
"i.	c #F07828",
"j.	c #FF892D",
"k.	c #A3521B",
"l.	c #766D68",
"m.	c #FFFFF9",
"n.	c #ECE0D7",
"o.	c #625953",
"p.	c #010000",
"q.	c #9C4E1A",
"r.	c #FF852C",
"s.	c #673311",
"t.	c #BF5F20",
"u.	c #FB7E2A",
"v.	c #2F1708",
"w.	c #663311",
"x.	c #F57A28",
"y.	c #D46A23",
"z.	c #AC561C",
"A.	c #713812",
"B.	c #40200B",
"C.	c #0D0702",
"D.	c #070401",
"E.	c #140A03",
"F.	c #46230C",
"G.	c #743A14",
"H.	c #B1581D",
"I.	c #E07025",
"J.	c #542A0E",
"K.	c #030101",
"L.	c #F0BB97",
"M.	c #723107",
"N.	c #50280D",
"O.	c #DE6F25",
"P.	c #EE7727",
"Q.	c #FF842C",
"R.	c #954B19",
"S.	c #D56A23",
"T.	c #E57226",
"U.	c #BB5D1F",
"V.	c #7E3F15",
"W.	c #2D1608",
"X.	c #49240C",
"Y.	c #CB6522",
"Z.	c #0C0602",
"`.	c #FF9247",
" +	c #D1661F",
".+	c #0D0602",
"++	c #211105",
"@+	c #BD5E1F",
"#+	c #E57326",
"$+	c #201005",
"%+	c #572B0F",
"&+	c #F97C29",
"*+	c #582C0F",
"=+	c #0F0702",
"-+	c #090909",
";+	c #242424",
">+	c #363636",
",+	c #444444",
"'+	c #4E4E4E",
")+	c #484848",
"!+	c #3A3A3A",
"~+	c #232323",
"{+	c #080909",
"]+	c #0B0100",
"^+	c #D8661A",
"/+	c #2D1403",
"(+	c #FF7B21",
"_+	c #ED7627",
":+	c #653311",
"<+	c #7F4015",
"[+	c #FF862C",
"}+	c #7F3F15",
"|+	c #1B0E04",
"1+	c #D96C24",
"2+	c #FE7F2A",
"3+	c #C46220",
"4+	c #0B0A0A",
"5+	c #3B3B3B",
"6+	c #656565",
"7+	c #8E8E8E",
"8+	c #B6B6B6",
"9+	c #D1D1D1",
"0+	c #E8E8E8",
"a+	c #F6F6F6",
"b+	c #EDEDED",
"c+	c #D9D9D9",
"d+	c #CACACA",
"e+	c #B4B4B4",
"f+	c #8D8D8D",
"g+	c #6D6D6C",
"h+	c #454B4F",
"i+	c #C99776",
"j+	c #6B4A35",
"k+	c #030202",
"l+	c #AA8E7B",
"m+	c #FF7A22",
"n+	c #623110",
"o+	c #FF7B24",
"p+	c #FF7C24",
"q+	c #FF8229",
"r+	c #874316",
"s+	c #361B09",
"t+	c #AD561D",
"u+	c #FE7B23",
"v+	c #C75E18",
"w+	c #3A2C23",
"x+	c #444546",
"y+	c #6A6A6A",
"z+	c #989898",
"A+	c #D4D4D4",
"B+	c #EFEFEF",
"C+	c #898582",
"D+	c #040404",
"E+	c #B3917A",
"F+	c #FFD3B2",
"G+	c #B75B1E",
"H+	c #5C2E0F",
"I+	c #FF862B",
"J+	c #FF893B",
"K+	c #FF9B59",
"L+	c #FFA264",
"M+	c #FFA162",
"N+	c #FF9854",
"O+	c #FF8938",
"P+	c #E46E1F",
"Q+	c #CD5F15",
"R+	c #FF7A1E",
"S+	c #FF781E",
"T+	c #FF8432",
"U+	c #FF9E5E",
"V+	c #FFBD90",
"W+	c #D7C6BA",
"X+	c #DADADB",
"Y+	c #FDFDFD",
"Z+	c #929293",
"`+	c #050505",
" @	c #B68E74",
".@	c #FFAD75",
"+@	c #B95C1E",
"@@	c #602C09",
"#@	c #FF892F",
"$@	c #FFC39C",
"%@	c #FFD9BF",
"&@	c #FFEADA",
"*@	c #FFEDE0",
"=@	c #FFEBDD",
"-@	c #FFE4D2",
";@	c #FFD7BB",
">@	c #FFCFAC",
",@	c #FFC89F",
"'@	c #FFC9A5",
")@	c #FFD4B7",
"!@	c #FFE9DA",
"~@	c #E0E0E0",
"{@	c #9E9E9E",
"]@	c #C9C9C9",
"^@	c #FAFAFA",
"/@	c #949494",
"(@	c #B58A6E",
"_@	c #FFC79D",
":@	c #FFA96F",
"<@	c #AC551C",
"[@	c #6A4E3B",
"}@	c #FFD9B5",
"|@	c #FFEDE1",
"1@	c #E2E5E7",
"2@	c #F0F3F5",
"3@	c #EAEAEA",
"4@	c #C4C4C4",
"5@	c #AEAEAE",
"6@	c #A5A5A5",
"7@	c #A1A1A1",
"8@	c #A3A3A3",
"9@	c #ACACAC",
"0@	c #A8A8A8",
"a@	c #7D7D7D",
"b@	c #3F3F3F",
"c@	c #0E0E0E",
"d@	c #5C5C5C",
"e@	c #E4E4E4",
"f@	c #B58566",
"g@	c #FFC093",
"h@	c #FFA568",
"i@	c #FF7D25",
"j@	c #803F14",
"k@	c #000002",
"l@	c #7D7A79",
"m@	c #9D9D9D",
"n@	c #CCCCCC",
"o@	c #B3B3B3",
"p@	c #787779",
"q@	c #464548",
"r@	c #363638",
"s@	c #2A2A2A",
"t@	c #1F1F1F",
"u@	c #1A1A1A",
"v@	c #181818",
"w@	c #191919",
"x@	c #1E1E1E",
"y@	c #212121",
"z@	c #222222",
"A@	c #1B1B1B",
"B@	c #6F6F6F",
"C@	c #F0F0F0",
"D@	c #B5815F",
"E@	c #FFBA89",
"F@	c #FF7E26",
"G@	c #4D250A",
"H@	c #0D1215",
"I@	c #9E9E9F",
"J@	c #6C6C6C",
"K@	c #B5B5B5",
"L@	c #9C9C9C",
"M@	c #3D3B3E",
"N@	c #141216",
"O@	c #23251D",
"P@	c #4F5439",
"Q@	c #343625",
"R@	c #4F4F4F",
"S@	c #949495",
"T@	c #B47C57",
"U@	c #FF9D5C",
"V@	c #D36923",
"W@	c #0F0500",
"X@	c #222425",
"Y@	c #BBBBBB",
"Z@	c #525252",
"`@	c #A0A0A0",
" #	c #E7E8E7",
".#	c #535353",
"+#	c #0C080D",
"@#	c #2C3822",
"##	c #7B9C63",
"$#	c #9FC57F",
"%#	c #BCDD93",
"&#	c #C1D593",
"*#	c #797F5A",
"=#	c #020202",
"-#	c #6D6D6D",
";#	c #FFCFAA",
">#	c #945B36",
",#	c #B47950",
"'#	c #B75B1F",
")#	c #2F2F2F",
"!#	c #CECECE",
"~#	c #757575",
"{#	c #5B5B5B",
"]#	c #EEEEEE",
"^#	c #CFCFCF",
"/#	c #363637",
"(#	c #030302",
"_#	c #628452",
":#	c #8FCB7C",
"<#	c #98E186",
"[#	c #9DE68A",
"}#	c #AAE890",
"|#	c #C2F09D",
"1#	c #CCE59D",
"2#	c #6D7250",
"3#	c #292929",
"4#	c #ABABAB",
"5#	c #F5F5F5",
"6#	c #FFE0CB",
"7#	c #FF8B39",
"8#	c #944917",
"9#	c #050201",
"0#	c #B47349",
"a#	c #FF974F",
"b#	c #F47825",
"c#	c #814115",
"d#	c #E3E3E3",
"e#	c #252525",
"f#	c #262626",
"g#	c #393A39",
"h#	c #141316",
"i#	c #0F100B",
"j#	c #7FA569",
"k#	c #92DA82",
"l#	c #7EDC7B",
"m#	c #6FDD75",
"n#	c #70DB75",
"o#	c #80DB7B",
"p#	c #9EE489",
"q#	c #C3F09D",
"r#	c #C4D593",
"s#	c #1A1A14",
"t#	c #DDDDDD",
"u#	c #FFBE93",
"v#	c #FF8D41",
"w#	c #FF812A",
"x#	c #944A18",
"y#	c #B46F41",
"z#	c #FF9349",
"A#	c #EA7324",
"B#	c #383838",
"C#	c #E2E2E2",
"D#	c #C6C6C6",
"E#	c #40442F",
"F#	c #A8C784",
"G#	c #A4E38C",
"H#	c #7DDA7A",
"I#	c #55C462",
"J#	c #22582A",
"K#	c #276631",
"L#	c #5FD26B",
"M#	c #85DC7C",
"N#	c #AEE992",
"O#	c #C8E69C",
"P#	c #5D6044",
"Q#	c #737373",
"R#	c #FFB889",
"S#	c #FF8534",
"T#	c #FF7E29",
"U#	c #B46A39",
"V#	c #FF8F43",
"W#	c #E77224",
"X#	c #4C250C",
"Y#	c #111111",
"Z#	c #5A5A5A",
"`#	c #5E5E5E",
" $	c #0A0A0A",
".$	c #A8B37D",
"+$	c #C7F09E",
"@$	c #9BE388",
"#$	c #6FDA73",
"$$	c #276430",
"%$	c #020502",
"&$	c #020603",
"*$	c #368741",
"=$	c #77DB78",
"-$	c #A4E68D",
";$	c #C6E99C",
">$	c #7A805A",
",$	c #898989",
"'$	c #FFCAA7",
")$	c #FF893A",
"!$	c #FF9549",
"~$	c #FF8C3D",
"{$	c #E87325",
"]$	c #51280E",
"^$	c #030303",
"/$	c #A5B07B",
"($	c #C7EF9E",
"_$	c #9DE389",
":$	c #72D874",
"<$	c #327F3E",
"[$	c #000100",
"}$	c #43A551",
"|$	c #79DA79",
"1$	c #A6E78D",
"2$	c #A7C784",
"3$	c #0F0F0A",
"4$	c #0C0C0D",
"5$	c #8A8A8A",
"6$	c #FFF0E6",
"7$	c #FF9C5B",
"8$	c #FF7C25",
"9$	c #934A18",
"0$	c #B3612A",
"a$	c #FF8E3F",
"b$	c #FF8737",
"c$	c #F37827",
"d$	c #7C3D14",
"e$	c #757B57",
"f$	c #C9E89D",
"g$	c #ABE890",
"h$	c #83DC7D",
"i$	c #62D26D",
"j$	c #41A14F",
"k$	c #47AE55",
"l$	c #68D46F",
"m$	c #8BDE81",
"n$	c #8FC078",
"o$	c #151A11",
"p$	c #020102",
"q$	c #FFC39B",
"r$	c #FF8433",
"s$	c #F67B29",
"t$	c #FA7D2A",
"u$	c #8E4717",
"v$	c #B35D23",
"w$	c #FF8734",
"x$	c #FF8330",
"y$	c #C46221",
"z$	c #393939",
"A$	c #C5C5C5",
"B$	c #AAAAAA",
"C$	c #919191",
"D$	c #171717",
"E$	c #1E1E15",
"F$	c #CADC98",
"G$	c #C4F09D",
"H$	c #A1E58C",
"I$	c #87DC7E",
"J$	c #79D878",
"K$	c #7AD878",
"L$	c #8ADB7F",
"M$	c #76A866",
"N$	c #0C0E09",
"O$	c #2C2C2C",
"P$	c #EBEBEB",
"Q$	c #FFF4EC",
"R$	c #FFA163",
"S$	c #EE7728",
"T$	c #B3591E",
"U$	c #FF822C",
"V$	c #FF802B",
"W$	c #844216",
"X$	c #000101",
"Y$	c #FEFEFE",
"Z$	c #999999",
"`$	c #4B4E38",
" %	c #9BAE77",
".%	c #A6CC85",
"+%	c #98CB7F",
"@%	c #89C276",
"#%	c #74A464",
"$%	c #3F5534",
"%%	c #202020",
"&%	c #C8C8C8",
"*%	c #FFCCAB",
"=%	c #FF8839",
"-%	c #E07026",
";%	c #854216",
">%	c #070301",
",%	c #2D2D2D",
"'%	c #787878",
")%	c #F8F8F8",
"!%	c #202021",
"~%	c #040305",
"{%	c #010002",
"]%	c #0B0B0B",
"^%	c #DADADA",
"/%	c #FFF6EF",
"(%	c #FFA66A",
"_%	c #D36924",
":%	c #783C14",
"<%	c #381C09",
"[%	c #050200",
"}%	c #E1E1E1",
"|%	c #B7B7B7",
"1%	c #7B7B7B",
"2%	c #4C4C4C",
"3%	c #424242",
"4%	c #636363",
"5%	c #B0B0B0",
"6%	c #FFC6A1",
"7%	c #D26923",
"8%	c #C76322",
"9%	c #713913",
"0%	c #F87B29",
"a%	c #8B4617",
"b%	c #C7C7C7",
"c%	c #FFDCC5",
"d%	c #FF944D",
"e%	c #CA6521",
"f%	c #BA5C1F",
"g%	c #6A3511",
"h%	c #5F3010",
"i%	c #110903",
"j%	c #141414",
"k%	c #A9A9A9",
"l%	c #FFDFCB",
"m%	c #FF9956",
"n%	c #FF7920",
"o%	c #653210",
"p%	c #A5521B",
"q%	c #331909",
"r%	c #707070",
"s%	c #DCDCDC",
"t%	c #E7E7E7",
"u%	c #FFF7F1",
"v%	c #FFD2B4",
"w%	c #FF9148",
"x%	c #FF7F2B",
"y%	c #B85C1F",
"z%	c #9C4E1B",
"A%	c #D66B24",
"B%	c #532A0E",
"C%	c #030506",
"D%	c #313334",
"E%	c #3F4244",
"F%	c #505356",
"G%	c #7B7F82",
"H%	c #AAAEB0",
"I%	c #CFD2D3",
"J%	c #F7FBFD",
"K%	c #FFFDFB",
"L%	c #FFDEC8",
"M%	c #FF802C",
"N%	c #F17828",
"O%	c #743A13",
"P%	c #2E1708",
"Q%	c #1C0E05",
"R%	c #170B02",
"S%	c #1D0B00",
"T%	c #281000",
"U%	c #3B1901",
"V%	c #431A00",
"W%	c #361300",
"X%	c #604737",
"Y%	c #D9B9A4",
"Z%	c #FFC59F",
"`%	c #FFA56A",
" &	c #7A3D14",
".&	c #A9541C",
"+&	c #A4521B",
"@&	c #B95C1F",
"#&	c #D06822",
"$&	c #F87C29",
"%&	c #F77B28",
"&&	c #CE631D",
"*&	c #E36C1D",
"=&	c #FF781D",
"-&	c #FF771D",
";&	c #C46121",
">&	c #1D0F05",
",&	c #B35A1E",
"'&	c #D16823",
")&	c #301808",
"!&	c #FB7D29",
"~&	c #FA7C29",
"{&	c #3B1D0A",
"]&	c #EA7427",
"^&	c #8A4517",
"/&	c #613110",
"(&	c #AB551C",
"_&	c #B2581D",
":&	c #321908",
"<&	c #0A0501",
"[&	c #E67226",
"}&	c #52290E",
"|&	c #180C04",
"1&	c #6A3512",
"2&	c #DB6D24",
"3&	c #1B0E05",
"4&	c #1E0F05",
"5&	c #FE7E2A",
"6&	c #C36120",
"7&	c #351B09",
"8&	c #331A09",
"9&	c #894417",
"0&	c #E87426",
"a&	c #D86C24",
"b&	c #824116",
"c&	c #3A1D0A",
"d&	c #381B0A",
"e&	c #CC6621",
"f&	c #4C260C",
"g&	c #391C0A",
"h&	c #804015",
"i&	c #F17928",
"j&	c #A9551C",
"k&	c #311808",
"l&	c #090402",
"m&	c #1B0D04",
"n&	c #261306",
"o&	c #251206",
"p&	c #E67326",
"q&	c #8D4617",
"r&	c #190D05",
"s&	c #0B0502",
"t&	c #2A1507",
"u&	c #52290D",
"v&	c #944A19",
"w&	c #D16822",
"x&	c #FF872C",
"y&	c #FF862D",
"z&	c #EB7527",
"A&	c #A8541C",
"B&	c #693512",
"C&	c #1A0D04",
"D&	c #552B0E",
"E&	c #4C260D",
"F&	c #1D0E05",
"G&	c #713813",
"H&	c #0A0502",
"I&	c #341A08",
"J&	c #4B260D",
"K&	c #6F3713",
"L&	c #854316",
"M&	c #8B4517",
"N&	c #814116",
"O&	c #2C1607",
"P&	c #4E270D",
"Q&	c #1F1005",
"R&	c #0C0603",
"S&	c #0C0502",
"T&	c #F27828",
"U&	c #773C14",
"V&	c #080401",
"W&	c #0E0702",
"X&	c #341A09",
"Y&	c #C06020",
"Z&	c #231106",
"`&	c #F37928",
" *	c #E47225",
".*	c #9E4E1A",
"+*	c #030100",
"@*	c #281406",
"#*	c #42210B",
"$*	c #723913",
"%*	c #683312",
"&*	c #592C0F",
"**	c #44220B",
"=*	c #291407",
"-*	c #53290E",
";*	c #CD6622",
">*	c #F77B29",
",*	c #EF7728",
"'*	c #BA5D1F",
")*	c #864216",
"!*	c #613010",
"~*	c #45230B",
"{*	c #3E1F0A",
"]*	c #552A0E",
"^*	c #703713",
"/*	c #864317",
"(*	c #874317",
"_*	c #7D3F16",
":*	c #753B14",
"<*	c #6D3613",
"[*	c #613111",
"}*	c #45220C",
"|*	c #6D3612",
"1*	c #924918",
"2*	c #954A18",
"3*	c #914918",
"4*	c #8C4717",
"5*	c #7D3E14",
"6*	c #763B13",
"7*	c #703812",
"8*	c #6B3612",
"9*	c #5D2E0F",
"0*	c #562B0E",
"a*	c #4F280D",
"b*	c #48240C",
"c*	c #41210B",
"d*	c #1F1006",
"                . . . . . . . . . . . . . . . . . . . . . . . . . . . . . . . .                 ",
"            . . . + @ # # # $ @ % % % & & * * = . - ; ; ; ; ; ; ; ; ; ; > , ' . . .             ",
"        . . . ) ! ~ { ] ^ / ( _ : < [ } | 1 2 3 4 5 6 7 7 7 7 7 7 7 8 9 0 a b c d . . .         ",
"      . . . e f g h i j k l m n o p q r s t u v w x y z z z z z z z z z A B C D E F . . .       ",
"    . . . G H I J K L M N O P Q R S T U V W X Y Z `  . . . . . . . . . . . . .z ..+.@.. . .     ",
"    . . #.$.%.&.*.=.-.-.;.>.,.'.).!.~.{.].^./.. (.A  . . . . . ._.z z z z z z _._.C :.<.. .     ",
"  . . [.}.|.1.2.3.4. . . .z 5.6.7.A  . .B 8.' 9.0. . . . ._.z _.a.b.c.d.e.f.g.h.i._.j.k.c . .   ",
"  . ) l.m.n.o.p.q.r. . . . .r.s.t.z  ._.u.v.. w.A  . .z A x.y.z.A.B.@.C.D.E.v.F.G.H.I...J.K..   ",
". . ! g J L.M.. N. ._. . . .z O.P. . .Q.R., ' S. . .A T.U.V.W.. . . . . . . . . . . X.t.Y.Z.. . ",
". + ~ h K `. +.+++@+B  . . . .z _. ._.#+$+. %+z  .&+9 *+=+. . . -+;+>+,+'+)+!+G ~+{+. ]+^+/+p.. ",
". @ { i L (+_+:+. <+[+ . . . . . . .Q.}+. |+1+ .2+3+. . . 4+5+6+7+8+9+0+a+b+c+d+e+f+g+h+i+j+k+. ",
". # l+j M m+2+8.. n+C  . .{.o+;.;.p+q+r+s+t+_.].u+v+w+x+y+z+A+|.|.|.|.|.|.|.|.|.|.|.|.B+|.C+D+. ",
". # E+F+N ;.A G+. H+I+m+-.J+K+L+M+N+O+P+Q+R+S+T+U+V+W+X+Y+|.|.|.|.|.|.|.|.|.|.|.|.|.|.|.|.Z+`+. ",
". #  @l .@o+A +@. @@#@L+$@%@&@*@=@-@;@>@,@*.'@)@!@|.|.|.|.|.|.|.|.|.|.|.|.~@{@]@^@|.|.|.|./@`+. ",
". # (@_@:@p+_.<@. [@}@|@|.|.1@2@|.|.|.|.|.|.|.|.|.|.3@4@5@6@7@8@9@e+e+0@a@b@c@d@e@|.|.|.|./@`+. ",
". % f@g@h@i@` j@k@l@|.|.|.|.m@n@|.|.|.|.|.|.|.o@p@q@r@s@t@u@v@w@x@y@z@A@`+. . B@C@|.|.|.|./@`+. ",
". % D@E@M+F@T.G@H@I@|.|.|.|.J@K@|.|.|.|.|.L@M@N@O@P@Q@. . . . . . . . . . . R@c+|.|.|.|.|.S@`+. ",
". % T@p U@!.V@W@X@Y@|.|.|.|.Z@`@|.|.|. #.#+#@###$#%#&#*#. . . . . . . . =#-#~@|.|.|.|.|.;#>#> . ",
". % ,#q T {.'#. )#!#|.|.|.|.~#{#]#|.^#/#(#_#:#<#[#}#|#1#2#. . . . . . 3#4#5#|.|.|.|.6#M+7#8#9#. ",
". & 0#r a#b#c#. !+d#|.|.|.|.o@e#f#g#h#i#j#k#l#m#n#o#p#q#r#s#. . . . {#t#Y+|.|.|.|.u#v# .w#x#9#. ",
". & y#s z#A#*+. B#C#|.|.D#y+t@= . . E#F#G#H#I#J#K#L#M#N#O#P#. . `+Q#a+|.|.|.|.|.R#S#T# .A x#9#. ",
". & U#t V#W#X#. Y#Z#`#u@ $`+. . . . .$+$@$#$$$%$&$*$=$-$;$>$. c@,$|.|.|.|.|.|.'$)$]. . .A x#9#. ",
". * 2 !$~${$]$. . ^$^$. . . . . . . /$($_$:$<$. [$}$|$1$2$3$4$5$|.|.|.|.|.|.6$7$8$ . .2+A 9$9#. ",
". ; 0$a$b$c$d$. . . . . . . . . . . e$f$g$h$i$j$k$l$m$n$o$p$`#|.|.|.|.|.|.|.q$r$]. . .s$t$u$9#. ",
". ; v$w$x$_.y$[$. z$A$^#B$C${#D$= . E$F$G$H$I$J$K$L$M$N$. O$P$|.|.|.|.|.|.Q$R$;. . ._._+S$r+, . ",
". ; T$U$V$_.` W$. X$R@A+Y$Y$|.Y+Z$y@. `$ %.%+%@%#%$%. . %%&%|.|.|.|.|.|.|.*%=%]. . ._.0.-%<+, . ",
". ; T$z  . ._.x.;%>%. . ,%'%!#^@|.)%f+!%~%. . . . {%]%5+^%|.|.|.|.|.|.|./%(%-. . . ._.D _%:%, . ",
". ; T$z  . . ._.z 7.<%[%. . . Q#}%|.|.|.|%1%2%z$3%4%5%|.|.|.|.|.|.|.|.|.6%T+]. . . .z 7%8%9%, . ",
". ; T$z  . . . . .B 0%a%<., . . z$b%Y+|.|.|.|.|.|.|.|.|.|.|.|.|.|.|.|.c%d%o+ . . . .z e%f%g%d . ",
". ; T$z  . . . . . ._.[+5.h%i%. . j%k%C@|.|.|.|.|.|.|.|.|.|.|.|.|.|.l%m%n% . . . . .z :.t+o%d . ",
". ; T$z  . . . . . . . .A A p%q%= . . r%&%s%}%t%5#|.|.|.|.|.|.|.u%v%w%n%x% . . . . .A y%z%N.- . ",
". ; T$z  . . . . . . . . . .C A%B%> . . C%D%E%F%G%H%I%J%|.K%6$L%N M%o+ . . . . . . .B 7 h%c . . ",
". ; T$z  . . . . . . . . . .2+Q.N%O%P%Q%R%S%T%U%V%W%X%Y%;@Z%`%r$S+T# . . . . . . . .r. &; . . . ",
". ; T$z  . . . . . . . . . . . .z B e..&+&@&#&$&C %&&&*&=&-&m+]. . . . . . . . . .r.;&>&. . . . ",
". ; ,&z  . . . . ._._. . . . . . . .A Q.Q.B A _. ._.A _. . . . . . . . . . . . .r.'&)&. . . . . ",
". ; H.z  . . . ._.!&~&Q._. . . . . . . . . . . . . . . . . . . . . . . . . ._.r.e%{&. . . . . . ",
". > 0 A  . . ._.]&^&/&(&$&y  . . . . . . . . . . . . . . . . . . . . . . .B z _&:&. . . . <&. . ",
". , a B  . . .z [&}&. |&1&S.Q.z  . . . . . . . . . . . . . . . . . . .A r.2& &3&. . . . 4&|&p.. ",
". ' b C  . . . .5&6&7&. . 8&9&0&r.A  . . . . . . . . . . . . . .z r.Q.a&b&c&, . . . . |&d&Z.. . ",
". . c D z  . . ._. .e&f&. . Z.g&h&V@Q.r.A _. . . . . . . .z Q.[+i&j&w.k&l&. . . . m&|+n&o&- . . ",
"  . d E .. . . . ._._.p&q&r&. . s&t&u&v&w&_.C [+r.r.r.x&y&z&A&B&7&C&' . . . . . D&E&>&F&9.. .   ",
"  . . F +.C 2+ . . . .z 0%d.G&H&. . . F o&I&J&K&L&M&N&w.b O&|&9#. . . . . . P&.&G&Q&R&S&' . .   ",
"    . . @.:.C  . . . . ._.w#T&e.U&i%. . . . . V&C.W&Z.> . . . . . . . X&M&Y&0 H+Z&Z.; - . .     ",
"    . . . <.k.x&z  . . . . ._._.`& *.*J&+*. . . . . . . . . . s&@*#*n+$*%*&***=*Q%Z.- . . .     ",
"      . . . c -*;*r.Q.A A A A A B B _.>*,*'*)*!*~*{*F.]*h%^*/*(*_*:*<*[*-*}*c&@.9.' . . .       ",
"        . . . K.Z.P%|*9&1*x#x#x#x#x#x#2*2*3*4*)*5*6*7*8*w./&9*0*a*b*c*<%P%d*9.- . . . .         ",
"            . . . p.d , 9#9#9#9#9#9#9#9#9#9#9#9#9#, , , , d +*+*+*- - - ' p.. . . .             ",
"                . . . . . . . . . . . . . . . . . . . . . . . . . . . . . . . .                 "};
