/* XPM */
static char * uterminal_xpm[] = {
"48 48 279 2",
"  	c None",
". 	c #9E9E9E",
"+ 	c #A2A2A2",
"@ 	c #A3A3A3",
"# 	c #959595",
"$ 	c #ADADAD",
"% 	c #DBDBDB",
"& 	c #EEEEEE",
"* 	c #F2F2F2",
"= 	c #F1F1F1",
"- 	c #F0F0F0",
"; 	c #EDEDED",
"> 	c #AAAAAA",
", 	c #FAFAFA",
"' 	c #F4F4F4",
") 	c #ECECEC",
"! 	c #EBEBEB",
"~ 	c #EAEAEA",
"{ 	c #E9E9E9",
"] 	c #F9F9F9",
"^ 	c #939393",
"/ 	c #F6F6F6",
"( 	c #E8E8E8",
"_ 	c #E7E7E7",
": 	c #E6E6E6",
"< 	c #E5E5E5",
"[ 	c #E4E4E4",
"} 	c #E3E3E3",
"| 	c #E2E2E2",
"1 	c #A4A4A4",
"2 	c #F5F5F5",
"3 	c #D0D2D1",
"4 	c #BBBAB9",
"5 	c #B1ABAB",
"6 	c #B1ACAB",
"7 	c #B1ABA9",
"8 	c #B0AAA8",
"9 	c #AFA9A7",
"0 	c #B7B6B5",
"a 	c #CBCDCC",
"b 	c #E1E1E1",
"c 	c #A9A9A9",
"d 	c #D1D3D2",
"e 	c #998685",
"f 	c #602A2A",
"g 	c #612B2B",
"h 	c #968484",
"i 	c #CCCECD",
"j 	c #A8A8A8",
"k 	c #BCBBBA",
"l 	c #722828",
"m 	c #7B2B2B",
"n 	c #B8B7B6",
"o 	c #DEDEDE",
"p 	c #F3F3F3",
"q 	c #A7A7A7",
"r 	c #B3AEAD",
"s 	c #5F2B2B",
"t 	c #792B2B",
"u 	c #782A2A",
"v 	c #DCDCDC",
"w 	c #B4AFAE",
"x 	c #762A2A",
"y 	c #5E2A2A",
"z 	c #A6A6A6",
"A 	c #B5B0AF",
"B 	c #5D2B2B",
"C 	c #752929",
"D 	c #DADADA",
"E 	c #A5A5A5",
"F 	c #732929",
"G 	c #B2ADAC",
"H 	c #D9D9D9",
"I 	c #E0E0E0",
"J 	c #B6B1B0",
"K 	c #5C2A2A",
"L 	c #D8D8D8",
"M 	c #DFE0DE",
"N 	c #B7B2B1",
"O 	c #5A2A2A",
"P 	c #D7D8D6",
"Q 	c #EFEFEF",
"R 	c #702828",
"S 	c #D6D6D6",
"T 	c #DDDDDD",
"U 	c #B8B3B2",
"V 	c #6F2727",
"W 	c #6D2727",
"X 	c #592929",
"Y 	c #D5D5D5",
"Z 	c #A1A1A1",
"` 	c #B9B4B3",
" .	c #773535",
"..	c #B89B9A",
"+.	c #7F4343",
"@.	c #6F2929",
"#.	c #D4D4D4",
"$.	c #A0A0A0",
"%.	c #6C2626",
"&.	c #763636",
"*.	c #E1DBD9",
"=.	c #EBEAE9",
"-.	c #B79C9B",
";.	c #814545",
">.	c #692525",
",.	c #572929",
"'.	c #D3D3D3",
").	c #BAB5B4",
"!.	c #6A2626",
"~.	c #E2DCDA",
"{.	c #E7E4E3",
"].	c #B39595",
"^.	c #D2D2D2",
"/.	c #9F9F9F",
"(.	c #BBB6B5",
"_.	c #854F4F",
":.	c #CBBBBB",
"<.	c #E5E2E1",
"[.	c #F2F4F3",
"}.	c #956767",
"|.	c #6F2F2F",
"1.	c #562828",
"2.	c #D1D1D1",
"3.	c #D7D7D7",
"4.	c #BCB7B6",
"5.	c #672525",
"6.	c #652323",
"7.	c #7F4949",
"8.	c #AB8A89",
"9.	c #D6CACA",
"0.	c #F7FBFA",
"a.	c #F6F8F8",
"b.	c #CCBCBC",
"c.	c #692727",
"d.	c #552929",
"e.	c #D0D0D0",
"f.	c #9D9D9D",
"g.	c #6F3131",
"h.	c #875757",
"i.	c #CDBDBD",
"j.	c #E1DCDB",
"k.	c #763C3C",
"l.	c #CECECE",
"m.	c #9C9C9C",
"n.	c #BDB8B7",
"o.	c #662424",
"p.	c #6E3030",
"q.	c #E0DBDA",
"r.	c #753B3B",
"s.	c #542828",
"t.	c #CDCDCD",
"u.	c #9B9B9B",
"v.	c #632323",
"w.	c #602222",
"x.	c #7D4747",
"y.	c #A98A89",
"z.	c #D6CBCA",
"A.	c #916767",
"B.	c #652525",
"C.	c #CCCCCC",
"D.	c #9A9A9A",
"E.	c #BEB9B8",
"F.	c #7F4D4D",
"G.	c #CABBBA",
"H.	c #916565",
"I.	c #692D2D",
"J.	c #622222",
"K.	c #522828",
"L.	c #CBCBCB",
"M.	c #999999",
"N.	c #BFBAB9",
"O.	c #6D3333",
"P.	c #AF9493",
"Q.	c #CACACA",
"R.	c #DFDFDF",
"S.	c #512727",
"T.	c #6A3232",
"U.	c #B39A99",
"V.	c #784242",
"W.	c #5F2121",
"X.	c #989898",
"Y.	c #C0BBBA",
"Z.	c #693131",
"`.	c #B29998",
" +	c #733F3F",
".+	c #612525",
"++	c #C9C9C9",
"@+	c #979797",
"#+	c #969696",
"$+	c #CFCFCF",
"%+	c #C1BCBB",
"&+	c #4F2727",
"*+	c #5D2121",
"=+	c #5C2020",
"-+	c #C8C8C8",
";+	c #C2BDBC",
">+	c #602424",
",+	c #6E3A3A",
"'+	c #6F3B3B",
")+	c #713D3D",
"!+	c #4F2827",
"~+	c #BDB9B9",
"{+	c #C7C7C7",
"]+	c #949494",
"^+	c #6D3939",
"/+	c #D8D0D0",
"(+	c #E3DEDD",
"_+	c #571F1F",
":+	c #C5C5C5",
"<+	c #C2BEBE",
"[+	c #4E2626",
"}+	c #5A2020",
"|+	c #6B3939",
"1+	c #EAE9E8",
"2+	c #561E1E",
"3+	c #C4C4C4",
"4+	c #C3BFBF",
"5+	c #591F1F",
"6+	c #5B2323",
"7+	c #6A3838",
"8+	c #6C3A3A",
"9+	c #6D3B3B",
"0+	c #4C2626",
"a+	c #C3C3C3",
"b+	c #929292",
"c+	c #C2C2C2",
"d+	c #909090",
"e+	c #919191",
"f+	c #C4C0C0",
"g+	c #4B2525",
"h+	c #C0BCBC",
"i+	c #C1C1C1",
"j+	c #D0CFCE",
"k+	c #4E2828",
"l+	c #4E1C1C",
"m+	c #531D1D",
"n+	c #4C2828",
"o+	c #CCCBCA",
"p+	c #C0C0C0",
"q+	c #8F8F8F",
"r+	c #B2A8A8",
"s+	c #3A1414",
"t+	c #3B1515",
"u+	c #4A2524",
"v+	c #AFA5A5",
"w+	c #BDBDBD",
"x+	c #C6C6C6",
"y+	c #8E8E8E",
"z+	c #8B8B8B",
"A+	c #E0E2E1",
"B+	c #E2E4E4",
"C+	c #E2E4E3",
"D+	c #E1E3E3",
"E+	c #E1E3E2",
"F+	c #E0E2E2",
"G+	c #DFE1E0",
"H+	c #DEE0E0",
"I+	c #DDDFDF",
"J+	c #BCBCBC",
"K+	c #8A8A8A",
"L+	c #7E7E7E",
"M+	c #BBBBBB",
"N+	c #BFBFBF",
"O+	c #BEBEBE",
"P+	c #BABABA",
"Q+	c #B6B6B6",
"R+	c #7D7D7D",
"S+	c #B9B9B9",
"T+	c #898989",
"U+	c #797979",
"V+	c #888888",
"W+	c #B7B7B7",
"X+	c #B3B3B3",
"Y+	c #787878",
"Z+	c #747474",
"`+	c #828282",
" @	c #868686",
".@	c #858585",
"+@	c #818181",
"                                                                                                ",
"                                                                                                ",
"                                                                                                ",
"        . + @ @ @ @ @ @ @ @ @ @ @ @ @ @ @ @ @ @ @ @ @ @ @ @ @ @ @ @ @ @ @ @ @ @ @ @ + .         ",
"    # $ % & * * * * * * * * * * * * * * * * * = = = = = = = = = = = = = = = = = - - ; % $ #     ",
"    > , ' & & & & & & & & & & & & ; ; ; ; ; ) ) ) ) ) ) ! ! ! ! ! ~ ~ ~ ~ ~ { { { { { - ] >     ",
"  ^ { / ! ! { ( ( ( ( ( ( _ _ _ _ _ : : : : : < < < < < < [ [ [ [ [ } } } } } | | } < < = ( ^   ",
"  1 2 ; ( 3 4 5 6 6 6 6 6 7 7 7 7 7 7 7 7 7 7 7 7 7 7 7 8 8 8 8 8 8 8 8 8 8 8 9 9 0 a b < ' 1   ",
"  c 2 ~ d e f g g g g g g g g g g g g g g g g g g g g g g g g g g g g g g g g g g f h i b ' c   ",
"  j ' : k f l m m m m m m m m m m m m m m m m m m m m m m m m m m m m m m m m m m l f n o p j   ",
"  q ' [ r s t u u u u u u u u u u u u u u u u u u u u u u u u u u u u u u u u u u t s 8 v p q   ",
"  q p } w s u x x x x x x x x x x x x x x x x x x x x x x x x x x x x x x x x x x t y 5 % = z   ",
"  z * | A B x C C C C C C C C C C C C C C C C C C C C C C C C C C C C C C C C C C x B 6 D = E   ",
"  E * b A B C F F F F F F C C C C C C C C C C C C C C C C C C C C C C C C C C C C x B G H - E   ",
"  1 = I J K F l l l l l l l l l l l l l l l l l l l l l l l l l l l l l l l l l l C K r L & 1   ",
"  1 - M N K F l l l l l l l l l l l l l l l l l l l l l l l l l l l l l l l l l l F O r P & @   ",
"  @ Q o N O l R R R R R R R R R R R R R R R R R R R R R R R R R R R R R R R R R R l O w S ; +   ",
"  + & T U O R V V V W V V V V V V V V V V V V V V V V V V V V V V V V V V V V V V R X w Y ! Z   ",
"  Z ; v ` X V W W  ...+.@.W W W W W W W W W W W W W W W W W W W W W W W W W W W W V X J #.~ $.  ",
"  $.! % ` X W %.%.&.*.=.-.;.>.%.%.%.%.%.%.%.%.%.%.%.%.%.%.%.%.%.%.%.%.%.%.%.%.%.%.W ,.J '.{ $.  ",
"  $.~ D ).,.%.!.!.&.~.- & {.].>.!.!.!.!.!.!.!.!.!.!.!.!.!.!.!.!.!.!.!.!.!.!.!.!.!.%.,.J ^._ /.  ",
"  /.{ L (.,.!.>.>.>._.:.<.; [.{.}.|.>.!.!.!.!.!.!.!.!.!.!.!.!.!.!.!.!.!.!.!.!.!.!.%.1.U 2.: .   ",
"  . _ 3.4.,.!.5.5.5.5.6.7.8.9.0.a.b.}.c.5.5.5.5.5.5.5.5.5.5.5.5.5.5.5.5.5.5.5.5.5.!.d.U e.[ f.  ",
"  f.: S 4.d.>.5.5.5.5.5.5.5.g.h.i.& j.k.5.5.5.5.5.5.5.5.5.5.5.5.5.5.5.5.5.5.5.5.5.>.d.` l.} m.  ",
"  m.< Y n.d.5.o.o.o.o.o.6.o.p.h.i.& q.r.6.o.o.o.o.o.o.o.o.o.o.o.o.o.o.o.o.o.o.o.o.5.s.).t.b u.  ",
"  u.} Y n.s.o.6.6.6.v.w.x.y.z.0.a.:.A.B.6.6.6.6.6.6.6.6.6.6.6.6.6.6.6.6.6.6.6.6.6.o.s.).C.I D.  ",
"  D.| #.E.s.6.v.v.v.F.G.<.; [.{.H.I.J.v.v.v.v.v.v.v.v.v.v.v.v.v.v.v.v.v.v.v.v.v.v.6.K.).L.o D.  ",
"  M.b '.N.K.v.J.J.O.q.- & {.P.w.w.J.J.J.J.J.J.J.J.J.J.J.J.J.J.J.J.J.J.J.J.J.J.J.J.v.K.(.Q.v M.  ",
"  M.R.^.N.S.J.w.w.T.q.=.U.V.W.w.J.J.J.J.J.J.J.J.J.J.J.J.J.J.J.J.J.J.J.J.J.J.J.J.J.J.S.4.Q.D X.  ",
"  X.T 2.Y.S.w.W.W.Z.`. +.+W.W.W.W.W.W.W.W.W.W.W.W.W.W.W.W.W.W.W.W.W.W.W.W.W.W.W.W.w.S.4.++L @+  ",
"  #+% $+%+&+w.W.W.*+=+W.W.W.W.W.W.W.W.W.*+*+*+*+*+*+*+*+*+*+W.W.W.W.W.W.W.W.W.W.W.w.&+n.-+3.#+  ",
"  #+D l.;+&+W.*+*+*+*+*+*+*+*+*+*+*+*+>+,+'+'+'+'+'+'+'+'+)+=+*+*+*+*+*+*+*+*+*+*+W.!+~+{+Y ]+  ",
"  ]+L t.;+&+*+=+=+=+=+=+=+=+=+=+=+=+=+^+/+(+(+(+(+(+(+(+(+=._+=+=+=+=+=+=+=+=+=+=+*+&+N.:+'.^   ",
"  ]+S C.<+[+=+}+}+}+}+}+}+}+}+}+}+}+}+|+/+(+(+(+(+(+(+(+(+1+2+}+}+}+}+}+}+}+}+}+}+=+[+N.3+2.^   ",
"  ^ #.L.4+[+}+5+5+5+5+5+5+5+5+5+5+5+5+6+7+8+8+8+8+8+8+8+8+9+5+5+5+5+5+5+5+5+5+5+5+}+0+Y.a+$+b+  ",
"  b+^.Q.4+0+5+_+_+_+_+_+_+_+_+_+_+_+_+_+_+_+_+_+_+_+_+_+_+_+_+_+_+_+_+_+_+_+_+_+_+5+0+%+c+C.d+  ",
"  e+e.++f+g+_+2+2+2+2+2+_+_+_+_+_+_+_+_+_+_+_+_+_+_+_+_+_+_+_+_+_+_+_+_+_+_+_+_+_+5+g+h+i+L.d+  ",
"  d+$+-+j+k+l+m+m+m+m+m+m+m+m+m+m+m+m+m+m+m+m+m+m+m+m+m+m+m+m+m+m+m+m+m+m+m+m+m+m+l+n+o+p+-+q+  ",
"  q+C.:+'.r+g+s+t+t+t+t+t+t+t+t+t+t+t+t+t+t+t+t+t+t+t+t+t+t+t+t+t+t+t+t+t+t+t+t+s+u+v+l.w+x+y+  ",
"  z+++3+3+Y A+B+B+B+C+D+D+D+D+D+D+D+D+D+E+E+E+E+E+E+F+F+F+F+F+A+A+F+F+F+A+G+G+G+H+I+e.w+J+a+K+  ",
"  L+M+++c+i+3+:+:+:+:+:+:+:+3+3+3+3+a+a+a+a+a+a+c+c+c+c+i+i+i+i+i+i+i+p+p+p+p+N+N+O+P+M+i+Q+R+  ",
"    K+++{+c+i+i+i+p+p+p+p+p+N+N+N+N+N+O+O+O+O+O+w+w+w+w+w+J+J+J+J+J+M+M+M+M+M+P+S+S+M+p+a+T+    ",
"    U+V+W+c+a+c+c+c+c+c+c+i+i+i+i+i+i+p+p+p+p+p+p+N+N+N+N+N+N+N+O+O+O+O+O+O+O+O+O+O+O+X+V+Y+    ",
"        Z+`+ @ @ @ @ @ @ @ @ @ @ @ @ @.@.@.@.@.@.@.@.@.@.@.@.@.@.@.@.@.@.@.@.@.@.@ @+@Z+        ",
"                                                                                                ",
"                                                                                                ",
"                                                                                                ",
"                                                                                                "};
