/* XPM */
static char * vidalia_xpm[] = {
"48 48 186 2",
"  	c None",
". 	c #F7FBED",
"+ 	c #E5F1BF",
"@ 	c #CEE586",
"# 	c #D2E78E",
"$ 	c #D0E689",
"% 	c #D3E891",
"& 	c #BEDD5E",
"* 	c #71AF4B",
"= 	c #C0DE62",
"- 	c #C0DE64",
"; 	c #BEDD5D",
"> 	c #C1DE65",
", 	c #B1D63D",
"' 	c #69AB37",
") 	c #62A734",
"! 	c #A5CF3B",
"~ 	c #77B43A",
"{ 	c #B1D63C",
"] 	c #85BC2F",
"^ 	c #ABD330",
"/ 	c #58A22F",
"( 	c #26842F",
"_ 	c #7CB72F",
": 	c #1D7E2F",
"< 	c #72B12F",
"[ 	c #42942F",
"} 	c #6FAF2F",
"| 	c #14792F",
"1 	c #398F2F",
"2 	c #559F2F",
"3 	c #A9D12F",
"4 	c #6BAC2F",
"5 	c #2F892F",
"6 	c #388E2F",
"7 	c #A6CF2F",
"8 	c #519C2E",
"9 	c #25822E",
"0 	c #97C42E",
"a 	c #31882E",
"b 	c #1A7C2E",
"c 	c #73AA2C",
"d 	c #72A228",
"e 	c #53942A",
"f 	c #448628",
"g 	c #3A8329",
"h 	c #5C8F26",
"i 	c #9F9F6A",
"j 	c #2C7928",
"k 	c #21772A",
"l 	c #457A23",
"m 	c #88885A",
"n 	c #E0E095",
"o 	c #51683C",
"p 	c #136627",
"q 	c #296721",
"r 	c #EFEF9F",
"s 	c #7B7D59",
"t 	c #88877D",
"u 	c #BEBCBE",
"v 	c #B3B377",
"w 	c #A4A777",
"x 	c #B2AFA5",
"y 	c #F8EEFA",
"z 	c #AFA7A3",
"A 	c #F1DFF6",
"B 	c #D1D18B",
"C 	c #9B9487",
"D 	c #EACFF1",
"E 	c #453C48",
"F 	c #808055",
"G 	c #979772",
"H 	c #D5B2DE",
"I 	c #D5B1DE",
"J 	c #79647F",
"K 	c #6E6E49",
"L 	c #DBDF9F",
"M 	c #8A7388",
"N 	c #DCACE8",
"O 	c #A17DAA",
"P 	c #77774F",
"Q 	c #969571",
"R 	c #C596D3",
"S 	c #D29FE1",
"T 	c #B78BC4",
"U 	c #3E2F42",
"V 	c #3B3B27",
"W 	c #8B718D",
"X 	c #C697D7",
"Y 	c #B98DC9",
"Z 	c #5A4462",
"` 	c #636342",
" .	c #96996D",
"..	c #827C6C",
"+.	c #B98FCE",
"@.	c #54415E",
"#.	c #959563",
"$.	c #888B63",
"%.	c #BFC38B",
"&.	c #8E6DA0",
"*.	c #AE87C5",
"=.	c #624C6F",
"-.	c #706170",
";.	c #A37FBD",
">.	c #4A3A56",
",.	c #C2C281",
"'.	c #868073",
").	c #9978B5",
"!.	c #453752",
"~.	c #868659",
"{.	c #866AA2",
"].	c #8F71AD",
"^.	c #856AA2",
"/.	c #231C2A",
"(.	c #5F5F3F",
"_.	c #5C4972",
":.	c #856BA5",
"<.	c #63507C",
"[.	c #756A77",
"}.	c #7C659E",
"|.	c #31283F",
"1.	c #B1B581",
"2.	c #6F6B61",
"3.	c #745F98",
"4.	c #4A3D61",
"5.	c #8B8B5C",
"6.	c #81806B",
"7.	c #6C5A92",
"8.	c #51436D",
"9.	c #A4A46D",
"0.	c #65558C",
"a.	c #4B3F69",
"b.	c #5E5087",
"c.	c #463C65",
"d.	c #59593B",
"e.	c #574C82",
"f.	c #413961",
"g.	c #CDD195",
"h.	c #52487D",
"i.	c #342E50",
"j.	c #8D8F6A",
"k.	c #4C4479",
"l.	c #26223C",
"m.	c #7F7F6D",
"n.	c #474176",
"o.	c #433D6E",
"p.	c #545259",
"q.	c #433E72",
"r.	c #2D294C",
"s.	c #2B294C",
"t.	c #3F3B6F",
"u.	c #3B3868",
"v.	c #AFAF74",
"w.	c #6D6F4F",
"x.	c #8C8E6A",
"y.	c #3C396D",
"z.	c #19182D",
"A.	c #383749",
"B.	c #39376B",
"C.	c #1A1931",
"D.	c #555642",
"E.	c #343262",
"F.	c #373569",
"G.	c #191830",
"H.	c #52533B",
"I.	c #444531",
"J.	c #323251",
"K.	c #353468",
"L.	c #28274E",
"M.	c #121122",
"N.	c #565639",
"O.	c #242437",
"P.	c #343467",
"Q.	c #27274D",
"R.	c #17172E",
"S.	c #8F8F5F",
"T.	c #1B1B13",
"U.	c #202130",
"V.	c #333366",
"W.	c #292952",
"X.	c #212041",
"Y.	c #111122",
"Z.	c #1D1D13",
"`.	c #47472F",
" +	c #080811",
".+	c #16162D",
"                                                                                                ",
"                                                                .                               ",
"                                                              +                                 ",
"                                                          @ #     $ %                           ",
"                                                  &     * = - ; = >                             ",
"                                                  ,   ' ) ! ~ { ,                               ",
"                                                ] ^ / ( _ : < ^                                 ",
"                                                [ } | 1 | 2 3                                   ",
"                                              4 5 : | | 6 7                                     ",
"                                              8 | | | 9 0                                       ",
"                                              a | | b c                                         ",
"                                            d | | | e                                           ",
"                                            f | | g h                                           ",
"                                        i   j | k l                                             ",
"                                        m n o p q                                               ",
"                                          r r s t u                                             ",
"                                          v r w x y                                             ",
"                                          v r w z A                                             ",
"                                          B r w C D E                                           ",
"                                        F r r w G H I J                                         ",
"                                      K r r r w L M N N O                                       ",
"                                  P B r r r r w L Q R S S T U                                   ",
"                              V v r r r r r r w L L W X X X Y Z                                 ",
"                            ` n r r r r r r r  .L L ..+.+.+.+.+.@.                              ",
"                          K r r r r r n #.r r  .$.L %.&.*.*.*.*.*.=.                            ",
"                        ` r r r r r v #.r r n w w %.L -.;.;.;.;.;.;.>.                          ",
"                      V n r r r r #.,.r r r v L L $.L '.).).).).).).).!.                        ",
"                      v r r r r ~.n r r r r v L L w %.w {.].].].].].].^./.                      ",
"                    (.r r r r ~.n r r r r n v  .L L $.L _.:.:.:.:.:.:.:.<.                      ",
"                    v r r r #.n r r r r #.v v w %.L  .L [.}.}.}.}.}.}.}.}.|.                    ",
"                    r r r v ,.r r r r ~.n r v L $.L %.1.2.3.3.3.3.3.3.3.3.4.                    ",
"                  5.r r r #.r r r r ~.n r r v L w %.L  .6.7.7.7.7.7.7.7.7.8.                    ",
"                  i r r 9.B r r r #.n r r r v L L $.L  .w 0.0.0.0.0.0.0.0.a.                    ",
"                  v r r 9.r r r v ,.r r r r v %.L  .L w w b.b.b.b.b.b.b.b.c.                    ",
"                  v r r v r r n #.r r r r r d.$.L 1.%.w w e.e.e.e.e.e.e.e.f.                    ",
"                  9.r r 9.r r 9.r r r r r #.9. .g.L  .w w h.h.h.h.h.h.h.h.i.                    ",
"                  5.r r 9.r r 9.r r r r B v v L  .L w w j.k.k.k.k.k.k.k.k.l.                    ",
"                    r r v n r 9.r r r r #.r v L w L w  .m.n.n.n.n.n.n.n.o.                      ",
"                    v r r 9.r 9.r r r r 9.r v L  .L w  .p.q.q.q.q.q.q.q.r.                      ",
"                    (.r r #.r ,.B r r r #.r v L w L $. .s.t.t.t.t.t.t.u.                        ",
"                      v.r n #.r #.r r r 9.r v L w %.w.x.y.y.y.y.y.y.y.z.                        ",
"                        ,.r v ,.v ,.r r 9.r v L w  .$.A.B.B.B.B.B.B.C.                          ",
"                          ,.r #.n #.n r n 9.v L  .w.D.E.F.F.F.F.E.G.                            ",
"                            v.r #.,.~.B r #.9.g.H.I.J.K.K.K.K.L.M.                              ",
"                              N.B v #.v ~.n d.s I.O.P.P.P.Q.R.                                  ",
"                                  (.S.~.v 9.~.T.U.V.W.X.Y.                                      ",
"                                        Z.`.`  +.+                                              ",
"                                                                                                "};
