/* XPM */
static char * virt_manager_xpm[] = {
"48 48 433 2",
"  	c None",
". 	c #83888E",
"+ 	c #82878D",
"@ 	c #83898E",
"# 	c #82878E",
"$ 	c #83888F",
"% 	c #84888F",
"& 	c #82888E",
"* 	c #83888D",
"= 	c #81858B",
"- 	c #70414F",
"; 	c #814B5A",
"> 	c #79404F",
", 	c #7E7981",
"' 	c #7E777F",
") 	c #743142",
"! 	c #804252",
"~ 	c #69293B",
"{ 	c #84898C",
"] 	c #C8CACC",
"^ 	c #C2C5C7",
"/ 	c #BABCBE",
"( 	c #939597",
"_ 	c #949598",
": 	c #77797C",
"< 	c #81868B",
"[ 	c #8F9496",
"} 	c #CACCCE",
"| 	c #C3C6C7",
"1 	c #B3B6B7",
"2 	c #929495",
"3 	c #7C7F81",
"4 	c #82888C",
"5 	c #77656F",
"6 	c #6A1D31",
"7 	c #681C2F",
"8 	c #7C8086",
"9 	c #6D3B4B",
"0 	c #614B54",
"a 	c #6D7477",
"b 	c #C6C9CA",
"c 	c #A8ACAE",
"d 	c #A8ADAF",
"e 	c #6C6F72",
"f 	c #606265",
"g 	c #5F6264",
"h 	c #5D6062",
"i 	c #73767C",
"j 	c #7D8086",
"k 	c #73797D",
"l 	c #697173",
"m 	c #C7CACA",
"n 	c #A7ACAE",
"o 	c #626568",
"p 	c #898A8F",
"q 	c #7B8086",
"r 	c #767880",
"s 	c #6A2336",
"t 	c #691C30",
"u 	c #6A1E32",
"v 	c #76787E",
"w 	c #75767D",
"x 	c #691C31",
"y 	c #691D30",
"z 	c #64686D",
"A 	c #636A6D",
"B 	c #BFC3C4",
"C 	c #B8BCBD",
"D 	c #B0B4B6",
"E 	c #B5B9BA",
"F 	c #A3A6A7",
"G 	c #797C7E",
"H 	c #707375",
"I 	c #6A6D6F",
"J 	c #6A6D71",
"K 	c #767B80",
"L 	c #767A80",
"M 	c #646C70",
"N 	c #BCBFC0",
"O 	c #B7BBBC",
"P 	c #B0B4B5",
"Q 	c #96999A",
"R 	c #7A7D7F",
"S 	c #717476",
"T 	c #6B6D70",
"U 	c #959799",
"V 	c #777A81",
"W 	c #70747B",
"X 	c #6E4D58",
"Y 	c #6B2033",
"Z 	c #6E5560",
"` 	c #70737A",
" .	c #6F747A",
"..	c #6E4D5A",
"+.	c #6A3F4B",
"@.	c #686F72",
"#.	c #949A9C",
"$.	c #B2B6B7",
"%.	c #AFB4B5",
"&.	c #747778",
"*.	c #6E7173",
"=.	c #6C6F70",
"-.	c #696C6D",
";.	c #70747A",
">.	c #6F7378",
",.	c #8F9497",
"'.	c #C1C5C6",
").	c #AEB2B3",
"!.	c #7F8284",
"~.	c #909296",
"{.	c #717479",
"].	c #6A6A71",
"^.	c #6E2538",
"/.	c #6E2437",
"(.	c #6D2D3E",
"_.	c #6B6D73",
":.	c #6A6D73",
"<.	c #6E283A",
"[.	c #6C6C71",
"}.	c #6D7577",
"|.	c #71797A",
"1.	c #B6B9BA",
"2.	c #ACB1B1",
"3.	c #ACB1B2",
"4.	c #838789",
"5.	c #646769",
"6.	c #616466",
"7.	c #66696D",
"8.	c #6C7376",
"9.	c #6F7779",
"0.	c #B1B6B6",
"a.	c #75787A",
"b.	c #636668",
"c.	c #65686B",
"d.	c #C9CACB",
"e.	c #6B6E73",
"f.	c #66676C",
"g.	c #6D3E4C",
"h.	c #70283B",
"i.	c #665E65",
"j.	c #65686E",
"k.	c #685860",
"l.	c #703646",
"m.	c #737A7C",
"n.	c #868C8D",
"o.	c #A7ACAD",
"p.	c #9FA3A4",
"q.	c #5A5D5F",
"r.	c #595C5F",
"s.	c #575B5D",
"t.	c #585B5E",
"u.	c #7B8082",
"v.	c #969A9B",
"w.	c #B8B9BA",
"x.	c #6B6F74",
"y.	c #665C63",
"z.	c #7A3748",
"A.	c #732C3E",
"B.	c #763042",
"C.	c #724552",
"D.	c #5F6267",
"E.	c #743C4A",
"F.	c #742D3F",
"G.	c #77676D",
"H.	c #787F81",
"I.	c #757C7F",
"J.	c #535758",
"K.	c #A2A6A8",
"L.	c #686B6D",
"M.	c #4F5355",
"N.	c #4E5254",
"O.	c #4D5152",
"P.	c #64686A",
"Q.	c #696F6F",
"R.	c #4C5152",
"S.	c #A1A6A8",
"T.	c #5A5E5F",
"U.	c #787B7C",
"V.	c #8C8E91",
"W.	c #5E6267",
"X.	c #5A5B61",
"Y.	c #814C5A",
"Z.	c #7A3647",
"`.	c #773143",
" +	c #844655",
".+	c #5D5E63",
"++	c #595C61",
"@+	c #625E64",
"#+	c #803F4F",
"$+	c #763445",
"%+	c #7E8386",
"&+	c #7E8486",
"*+	c #63686B",
"=+	c #414447",
"-+	c #8B8F92",
";+	c #9DA1A3",
">+	c #9CA1A3",
",+	c #8C9193",
"'+	c #474A4D",
")+	c #46494C",
"!+	c #4B4E51",
"~+	c #7E8385",
"{+	c #4E5154",
"]+	c #868B8C",
"^+	c #7A7D81",
"/+	c #4A4D50",
"(+	c #ABACAE",
"_+	c #585B60",
":+	c #53565A",
"<+	c #705B62",
"[+	c #874B5A",
"}+	c #783445",
"|+	c #844656",
"1+	c #745B64",
"2+	c #805B65",
"3+	c #7F3E4E",
"4+	c #7D5D66",
"5+	c #838A8B",
"6+	c #4B4F50",
"7+	c #45484A",
"8+	c #686B6E",
"9+	c #9DA2A4",
"0+	c #9EA3A5",
"a+	c #9EA2A4",
"b+	c #545759",
"c+	c #4B4E50",
"d+	c #727879",
"e+	c #7C8486",
"f+	c #636769",
"g+	c #9BA0A2",
"h+	c #4D5052",
"i+	c #87898A",
"j+	c #545659",
"k+	c #53565B",
"l+	c #525257",
"m+	c #966471",
"n+	c #7E3C4D",
"o+	c #7F3D4E",
"p+	c #946471",
"q+	c #66656A",
"r+	c #955F6D",
"s+	c #7C394A",
"t+	c #7B3849",
"u+	c #898A8B",
"v+	c #898F91",
"w+	c #7A8182",
"x+	c #484C4E",
"y+	c #4C5052",
"z+	c #9DA3A5",
"A+	c #A2A7A9",
"B+	c #828789",
"C+	c #525658",
"D+	c #616567",
"E+	c #656A6D",
"F+	c #4A4E50",
"G+	c #9A9FA0",
"H+	c #6D7072",
"I+	c #626668",
"J+	c #5E6366",
"K+	c #4E5054",
"L+	c #484B4E",
"M+	c #84666E",
"N+	c #8E5665",
"O+	c #7D3C4D",
"P+	c #864A5A",
"Q+	c #926671",
"R+	c #834555",
"S+	c #81535F",
"T+	c #8E9496",
"U+	c #606366",
"V+	c #4C4F52",
"W+	c #595B5E",
"X+	c #969899",
"Y+	c #ACAFB0",
"Z+	c #A6ABAC",
"`+	c #A4A8A9",
" @	c #5C5E60",
".@	c #5A5D60",
"+@	c #505356",
"@@	c #525558",
"#@	c #848589",
"$@	c #A9ADAE",
"%@	c #A6AAAB",
"&@	c #9B9FA1",
"*@	c #505256",
"=@	c #575156",
"-@	c #A37581",
";@	c #804151",
">@	c #804050",
",@	c #8F858A",
"'@	c #93999B",
")@	c #8E9697",
"!@	c #515456",
"~@	c #505355",
"{@	c #55585A",
"]@	c #7D8081",
"^@	c #585A5C",
"/@	c #BBBFBF",
"(@	c #ACB0B1",
"_@	c #AAAFB0",
":@	c #ABAFB0",
"<@	c #818586",
"[@	c #626566",
"}@	c #606365",
"|@	c #5A5C5E",
"1@	c #6D6F71",
"2@	c #515355",
"3@	c #AFB2B3",
"4@	c #ABB0B1",
"5@	c #707173",
"6@	c #636567",
"7@	c #6B6E70",
"8@	c #6C6D6E",
"9@	c #3D3D42",
"0@	c #97747D",
"a@	c #905866",
"b@	c #834454",
"c@	c #854C5C",
"d@	c #989DA0",
"e@	c #999EA0",
"f@	c #787B7D",
"g@	c #727476",
"h@	c #727376",
"i@	c #3C3E41",
"j@	c #999C9D",
"k@	c #B8BCBC",
"l@	c #ADB2B2",
"m@	c #AEB3B3",
"n@	c #696B6D",
"o@	c #66696B",
"p@	c #65686A",
"q@	c #6B6C6E",
"r@	c #828587",
"s@	c #B5BABA",
"t@	c #ADB1B2",
"u@	c #95999B",
"v@	c #696C6E",
"w@	c #676A6C",
"x@	c #66686A",
"y@	c #787A7C",
"z@	c #48494D",
"A@	c #605358",
"B@	c #9A6E7A",
"C@	c #7A4251",
"D@	c #856F76",
"E@	c #919697",
"F@	c #909697",
"G@	c #55585B",
"H@	c #8F9192",
"I@	c #47494D",
"J@	c #363739",
"K@	c #58585B",
"L@	c #C5C8C9",
"M@	c #ABB0B0",
"N@	c #737778",
"O@	c #636669",
"P@	c #636568",
"Q@	c #5B5E61",
"R@	c #818386",
"S@	c #4A4C4E",
"T@	c #363839",
"U@	c #A5A8A9",
"V@	c #6E7072",
"W@	c #36373A",
"X@	c #353538",
"Y@	c #8C6D75",
"Z@	c #714450",
"`@	c #6B3C48",
" #	c #6C3D49",
".#	c #484A4C",
"+#	c #5E5F61",
"@#	c #7D7E7F",
"##	c #2F3033",
"$#	c #313134",
"%#	c #B5B8B9",
"&#	c #A5AAAA",
"*#	c #9EA3A3",
"=#	c #8E9192",
"-#	c #5E6163",
";#	c #7F8181",
">#	c #303134",
",#	c #A0A3A4",
"'#	c #A1A6A7",
")#	c #6F7374",
"!#	c #5D5E60",
"~#	c #5E6062",
"{#	c #808282",
"]#	c #37383A",
"^#	c #242527",
"/#	c #4D4144",
"(#	c #6F565D",
"_#	c #71575E",
":#	c #725960",
"<#	c #76666B",
"[#	c #818384",
"}#	c #828484",
"|#	c #838485",
"1#	c #848686",
"2#	c #6F7172",
"3#	c #696A6B",
"4#	c #6B6B6C",
"5#	c #6E6F6F",
"6#	c #414143",
"7#	c #1D1F21",
"8#	c #212123",
"9#	c #5F6062",
"0#	c #9D9E9F",
"a#	c #9E9FA0",
"b#	c #9EA0A0",
"c#	c #9D9F9F",
"d#	c #7E8081",
"e#	c #7C7D7E",
"f#	c #7C7C7D",
"g#	c #48494A",
"h#	c #1F1F21",
"i#	c #1E1E20",
"j#	c #525355",
"k#	c #969999",
"l#	c #949898",
"m#	c #949798",
"n#	c #8E9091",
"o#	c #707273",
"p#	c #707272",
"q#	c #6F6F71",
"r#	c #464648",
"s#	c #232526",
"t#	c #1B1B1D",
"u#	c #1A1B1C",
"v#	c #1B1C1D",
"w#	c #1A1B1B",
"x#	c #191A1B",
"y#	c #1B1C1C",
"z#	c #1F2021",
"                                                                                                ",
"                                                                                                ",
"                                                                                                ",
"                                                                                                ",
"                                                                                                ",
"                                                                                                ",
"                                                                                                ",
"                                                                                                ",
"                                                                                                ",
"                                                                                                ",
"                                                                                                ",
"                                                                                                ",
"                                                                                                ",
"                                                                                                ",
"                                                                                                ",
"                                                                                                ",
"                                                                                                ",
". + + + + .               @ . . . . # $ $ $ $ # # # # %     & * $ + . . . . . . .               ",
"= - ; ; > ,               ' ) ! ! ~ { ] ^ ^ / ( _ _ : <     < [ } | | 1 2 2 2 3 4               ",
"  5 6 6 7 - 8           8 9 7 6 6 0 a b c c d e f g h i j j k l m n c d o f g h p q             ",
"  r s t t u v           w x t t y z A B C D E F G H I J K L M A N O P E Q R S T U V             ",
"  W X Y Y Y Z `        ...Y Y Y +.@.@.#.^ D $.%.&.*.=.-.;.>.@.@.,.'.D $.).S *.=.!.~.{.          ",
"    ].^././.(._.      :.<./././.[.}.}.|.1.2.3.3.4.5.o 6.7.8.}.}.9.0.2.3.3.a.5.b.c.d.e.          ",
"    f.g.h.h.h.i.    j.k.h.h.h.l.m.m.m.m.n.o.o.o.p.q.r.s.t.|.m.m.m.u.o.o.o.v.q.r.t.w.x.          ",
"      y.z.A.B.C.D.  D.E.F.A.A.G.H.H.H.I.J.K.K.K.K.L.M.N.O.P.H.H.Q.R.S.K.K.K.T.M.N.U.V.W.        ",
"      X.Y.Z.`. +.+++@+#+B.B.$+%+&+&+&+*+=+-+;+;+>+,+'+)+)+!+~+&+{+=+]+;+;+>+^+'+)+/+(+_+        ",
"      :+<+[+}+|+1+:+2+3+}+}+4+5+5+5+5+6+7+8+9+0+0+a+b+c+c+c+d+e+7+7+f+9+9+0+g+h+c+c+i+j+k+      ",
"        l+m+n+o+p+q+r+s+t+t+u+v+v+v+w+x+x+y+z+K.A+A+B+C+C+C+D+E+x+x+F+G+K.A+A+H+C+C+I+J+K+      ",
"        L+M+N+O+P+Q+R+O+O+S+T+T+T+T+U+V+V+W+X+Y+Z+Z+`+ @.@.@.@+@V+V+@@#@$@%@Z+&@.@.@.@e *@      ",
"          =@-@;@>@>@>@>@>@,@'@'@'@)@!@~@{@]@^@/@(@_@:@<@b.[@}@|@~@!@1@2@3@4@_@:@5@b.6@7@8@=+    ",
"          9@0@a@b@b@b@b@c@d@e@e@e@f@b+b+g@h@i@j@k@l@m@%@n@o@5.6@{@p@q@i@r@s@t@).u@v@w@x@y@z@    ",
"            A@B@C@C@C@C@D@E@E@E@F@G@~@!@H@I@J@K@L@M@4@(@N@5.O@P@Q@R@S@T@z@/@%@%@U@5.6.}@V@-.W@  ",
"            X@Y@Z@`@`@ #]@<@<@<@*..#.#+#@###  $#%#&#*#*#=#g -#-#v@;#>#  ##,#'#G+G+)#!# @~#{#]#  ",
"            ^#/#(#_#:#<#[#}#|#1#2#3#4#5#6#7#  8#9#0#a#b#c#d#e#f#e#g#h#  i#j#k#l#m#n#o#p#q#5#r#s#",
"              t#u#u#v#v#v#v#v#v#v#v#v#v#u#      w#w#w#w#w#w#w#w#w#x#      x#w#w#w#w#w#w#w#w#y#z#",
"                                                                                                ",
"                                                                                                ",
"                                                                                                ",
"                                                                                                ",
"                                                                                                ",
"                                                                                                ",
"                                                                                                ",
"                                                                                                ",
"                                                                                                ",
"                                                                                                ",
"                                                                                                ",
"                                                                                                ",
"                                                                                                "};
