/* XPM */
static char * vkeyboard_xpm[] = {
"48 48 390 2",
"  	c None",
". 	c #000000",
"+ 	c #EED680",
"@ 	c #565248",
"# 	c #E0B6AF",
"$ 	c #AE852D",
"% 	c #B2872B",
"& 	c #B68929",
"* 	c #BB8C27",
"= 	c #BF8E25",
"- 	c #C49123",
"; 	c #C89320",
"> 	c #CD951E",
", 	c #D1981C",
"' 	c #AFAFAF",
") 	c #AA412C",
"! 	c #AF402A",
"~ 	c #B34029",
"{ 	c #B73F28",
"] 	c #BB3F26",
"^ 	c #BF3E25",
"/ 	c #C33E24",
"( 	c #C73E22",
"_ 	c #CB3D21",
": 	c #CF3D20",
"< 	c #D33C1E",
"[ 	c #D73C1D",
"} 	c #DB3B1C",
"| 	c #DF3B1A",
"1 	c #E33A19",
"2 	c #E73A18",
"3 	c #B3872B",
"4 	c #B78A29",
"5 	c #C08F24",
"6 	c #C49122",
"7 	c #C99320",
"8 	c #CD961E",
"9 	c #D2981C",
"0 	c #D69A1A",
"a 	c #AD402B",
"b 	c #B1402A",
"c 	c #B53F28",
"d 	c #B93F27",
"e 	c #BD3F26",
"f 	c #C13E24",
"g 	c #C53E23",
"h 	c #C93D22",
"i 	c #CD3D20",
"j 	c #D13C1F",
"k 	c #D53C1E",
"l 	c #D93B1C",
"m 	c #DD3B1B",
"n 	c #E13B1A",
"o 	c #E53A18",
"p 	c #E93A17",
"q 	c #B3882B",
"r 	c #B88A28",
"s 	c #BB8B25",
"t 	c #6C5014",
"u 	c #1B1404",
"v 	c #030200",
"w 	c #0C0901",
"x 	c #382907",
"y 	c #D79B19",
"z 	c #DB9D17",
"A 	c #C73D22",
"B 	c #EC3916",
"C 	c #BD8D26",
"D 	c #694E13",
"E 	c #59410E",
"F 	c #AE7F18",
"G 	c #AC7D16",
"H 	c #6E4F0C",
"I 	c #DC9D17",
"J 	c #E0A015",
"K 	c #DE3B1B",
"L 	c #E23B1A",
"M 	c #E63A18",
"N 	c #EA3A17",
"O 	c #EE3916",
"P 	c #C28F24",
"Q 	c #181204",
"R 	c #211805",
"S 	c #CF971D",
"T 	c #D3991B",
"U 	c #D89B19",
"V 	c #DC9E17",
"W 	c #E1A015",
"X 	c #E5A213",
"Y 	c #D43C1E",
"Z 	c #D83C1D",
"` 	c #DC3B1C",
" .	c #E03B1A",
"..	c #E43A19",
"+.	c #E83A18",
"@.	c #F03915",
"#.	c #C29023",
"$.	c #C79221",
"%.	c #402E08",
"&.	c #D4991B",
"*.	c #C89017",
"=.	c #090600",
"-.	c #523A06",
";.	c #EAA510",
">.	c #CA3D22",
",.	c #CE3D20",
"'.	c #D23C1F",
").	c #D63C1E",
"!.	c #DA3B1C",
"~.	c #F23914",
"{.	c #CC951F",
"].	c #1B1403",
"^.	c #211804",
"/.	c #D99C18",
"(.	c #DC9C15",
"_.	c #C28A11",
":.	c #4C3505",
"<.	c #EFA80E",
"[.	c #B73F27",
"}.	c #BC3F26",
"|.	c #C03E25",
"1.	c #C43E23",
"2.	c #C83D22",
"3.	c #CC3D21",
"4.	c #D03D1F",
"5.	c #DC3B1B",
"6.	c #E83A17",
"7.	c #F43813",
"8.	c #D1971C",
"9.	c #7B590F",
"0.	c #594008",
"a.	c #BD8610",
"b.	c #C0880F",
"c.	c #4E3604",
"d.	c #F4AA0B",
"e.	c #BA3F27",
"f.	c #BE3F25",
"g.	c #C23E24",
"h.	c #C63E23",
"i.	c #CA3D21",
"j.	c #D63C1D",
"k.	c #E23A19",
"l.	c #EE3915",
"m.	c #F63813",
"n.	c #DA9C18",
"o.	c #87600D",
"p.	c #271B03",
"q.	c #040300",
"r.	c #0A0700",
"s.	c #302102",
"t.	c #986A06",
"u.	c #F9AD09",
"v.	c #D03C1F",
"w.	c #F83812",
"x.	c #DB9D18",
"y.	c #DF9F15",
"z.	c #E4A113",
"A.	c #E8A411",
"B.	c #EDA60F",
"C.	c #F1A90D",
"D.	c #F6AB0B",
"E.	c #FAAD09",
"F.	c #FFB007",
"G.	c #BE3E25",
"H.	c #EF3915",
"I.	c #F33914",
"J.	c #F73813",
"K.	c #060606",
"L.	c #2B2B2B",
"M.	c #C5D2C8",
"N.	c #6484A1",
"O.	c #6786A3",
"P.	c #6A89A5",
"Q.	c #6D8BA7",
"R.	c #6F8DA9",
"S.	c #7290AB",
"T.	c #7592AD",
"U.	c #7895AF",
"V.	c #7B97B1",
"W.	c #7E9AB3",
"X.	c #819CB5",
"Y.	c #849EB7",
"Z.	c #87A1B9",
"`.	c #89A3BB",
" +	c #8CA6BD",
".+	c #8FA8BF",
"++	c #92ABC1",
"@+	c #95ADC3",
"#+	c #98AFC5",
"$+	c #9BB2C7",
"%+	c #9EB4C9",
"&+	c #A1B7CB",
"*+	c #A3B9CD",
"=+	c #A6BCCF",
"-+	c #A9BED1",
";+	c #ACC0D3",
">+	c #AFC3D5",
",+	c #B2C5D7",
"'+	c #B5C8D9",
")+	c #B8CADB",
"!+	c #BBCDDD",
"~+	c #BECFDF",
"{+	c #C0D1E1",
"]+	c #6584A2",
"^+	c #6887A4",
"/+	c #6A89A6",
"(+	c #6D8CA8",
"_+	c #708EAA",
":+	c #7391AC",
"<+	c #7693AE",
"[+	c #7995B0",
"}+	c #7C98B2",
"|+	c #7F9AB4",
"1+	c #829DB6",
"2+	c #859FB8",
"3+	c #87A2BA",
"4+	c #8AA4BC",
"5+	c #8DA6BE",
"6+	c #90A9C0",
"7+	c #93ABC2",
"8+	c #96AEC4",
"9+	c #99B0C6",
"0+	c #9CB3C8",
"a+	c #9FB5CA",
"b+	c #A1B7CC",
"c+	c #A4BACE",
"d+	c #A7BCD0",
"e+	c #AABFD2",
"f+	c #ADC1D4",
"g+	c #B0C4D6",
"h+	c #B3C6D8",
"i+	c #B6C8DA",
"j+	c #B9CBDC",
"k+	c #BBCDDE",
"l+	c #BED0E0",
"m+	c #C1D2E2",
"n+	c #6685A3",
"o+	c #6888A5",
"p+	c #6B8AA7",
"q+	c #6E8CA9",
"r+	c #718FAB",
"s+	c #7491AD",
"t+	c #7794AF",
"u+	c #7A96B1",
"v+	c #7D99B3",
"w+	c #7E99B3",
"x+	c #445260",
"y+	c #101316",
"z+	c #020202",
"A+	c #101416",
"B+	c #4B5965",
"C+	c #94ACC3",
"D+	c #323940",
"E+	c #9CB3C9",
"F+	c #6D7D8C",
"G+	c #030304",
"H+	c #2D3338",
"I+	c #A2B7CA",
"J+	c #ABBFD2",
"K+	c #AEC2D4",
"L+	c #B1C4D6",
"M+	c #B4C7D8",
"N+	c #B7C9DA",
"O+	c #B9CCDC",
"P+	c #BCCEDE",
"Q+	c #BFD0E0",
"R+	c #C2D3E2",
"S+	c #6686A3",
"T+	c #6988A5",
"U+	c #6C8BA7",
"V+	c #7894AF",
"W+	c #42515E",
"X+	c #475663",
"Y+	c #768CA1",
"Z+	c #495663",
"`+	c #4D5A66",
" @	c #030404",
".@	c #2C3237",
"+@	c #A0B5C8",
"@@	c #B4C7D9",
"#@	c #B7CADB",
"$@	c #BACCDD",
"%@	c #BDCFDF",
"&@	c #C3D4E3",
"*@	c #6787A4",
"=@	c #6D8BA8",
"-@	c #7390AC",
";@	c #7B98B2",
">@	c #7E9AB4",
",@	c #0F1215",
"'@	c #181D22",
")@	c #87A1BA",
"!@	c #191E22",
"~@	c #111417",
"{@	c #95ADC4",
"]@	c #141719",
"^@	c #2A3035",
"/@	c #9EB3C6",
"(@	c #AABED2",
"_@	c #B0C3D6",
":@	c #B2C6D8",
"<@	c #B5C8DA",
"[@	c #B8CBDC",
"}@	c #BECFE0",
"|@	c #C4D4E4",
"1@	c #6B8AA6",
"2@	c #6E8CA8",
"3@	c #718FAA",
"4@	c #7491AC",
"5@	c #7793AE",
"6@	c #7996B0",
"7@	c #7F9BB4",
"8@	c #293239",
"9@	c #88A2BA",
"0@	c #8BA4BC",
"a@	c #8EA7BE",
"b@	c #2C343B",
"c@	c #020203",
"d@	c #798A99",
"e@	c #A5BACE",
"f@	c #A8BDD0",
"g@	c #ADC2D4",
"h@	c #B6C9DA",
"i@	c #C5D5E4",
"j@	c #6C8AA7",
"k@	c #728FAB",
"l@	c #7492AD",
"m@	c #7A97B1",
"n@	c #809BB5",
"o@	c #191E23",
"p@	c #8CA5BD",
"q@	c #1A1F23",
"r@	c #97AFC5",
"s@	c #1D2125",
"t@	c #0D0E10",
"u@	c #0A0B0C",
"v@	c #8596A6",
"w@	c #A9BDD1",
"x@	c #ABC0D3",
"y@	c #AEC2D5",
"z@	c #B1C5D7",
"A@	c #BDCEDF",
"B@	c #C3D3E3",
"C@	c #C5D5E5",
"D@	c #7290AC",
"E@	c #7592AE",
"F@	c #7895B0",
"G@	c #7B97B2",
"H@	c #43515E",
"I@	c #4B5865",
"J@	c #798FA3",
"K@	c #4C5A66",
"L@	c #4E5A66",
"M@	c #98B0C5",
"N@	c #333A41",
"O@	c #8496A7",
"P@	c #0C0E10",
"Q@	c #0B0D0E",
"R@	c #899AA9",
"S@	c #ACC1D3",
"T@	c #C0D2E1",
"U@	c #6B89A6",
"V@	c #839DB6",
"W@	c #45535F",
"X@	c #4C5965",
"Y@	c #94ACC2",
"Z@	c #A2B8CC",
"`@	c #8698A8",
" #	c #0C0E0F",
".#	c #8E9EAE",
"+#	c #BCCDDE",
"@#	c #C4D5E4",
"##	c #6E8DA9",
"$#	c #839EB7",
"%#	c #85A0B9",
"&#	c #88A2BB",
"*#	c #8BA5BD",
"=#	c #8EA7BF",
"-#	c #91AAC1",
";#	c #9AB1C7",
">#	c #9DB3C9",
",#	c #9FB6CB",
"'#	c #A2B8CD",
")#	c #A5BBCF",
"!#	c #A8BDD1",
"~#	c #B1C4D7",
"{#	c #B7C9DB",
"]#	c #BCCEDF",
"^#	c #BFD0E1",
"/#	c #C2D3E3",
"                                                                                                ",
"                                                                                                ",
"                                                                                                ",
"                                                                                                ",
"                                                                                                ",
"                                                                                                ",
"          . . . . . . . . . . . . . .   . . . . . . . . . . . . . . . . . . . . .               ",
"        + + + + + + + + + + + + + + @ . . # # # # # # # # # # # # # # # # # # # # @ .           ",
"      . + + + + + + + + + + + + + @ @ . . # # # # # # # # # # # # # # # # # # # @ @ .           ",
"      . + + $ $ % & * = - ; > , ' @ @ . . # # ) ! ~ { ] ^ / ( _ : < [ } | 1 2 ' @ @ .           ",
"      . + + $ 3 4 * 5 6 7 8 9 0 ' @ @ . . # # a b c d e f g h i j k l m n o p ' @ @ .           ",
"      . + + q r s t u v w x y z ' @ @ . . # # ! ~ { ] ^ / A _ : < [ } | 1 2 B ' @ @ .           ",
"      . + + r C D . E F G H I J ' @ @ . . # # b c d e f g h i j k l K L M N O ' @ @ .           ",
"      . + + C P Q R S T U V W X ' @ @ . . # # ~ { ] ^ / A _ : Y Z `  ...+.B @.' @ @ .           ",
"      . + + #.$.v %.&.*.=.=.-.;.' @ @ . . # # c d e f g >.,.'.).!.K L M N O ~.' @ @ .           ",
"      . + + $.{.].^./.(._.. :.<.' @ @ . . # # [.}.|.1.2.3.4.Y Z 5. ...6.B @.7.' @ @ .           ",
"      . + + {.8.9.. 0.a.b.. c.d.' @ @ . . # # e.f.g.h.i.,.'.j.!.K k.M N l.~.m.' @ @ .           ",
"      . + + , 0 n.o.p.q.r.s.t.u.' @ @ . . # # }.|.1.2.3.v.Y Z 5. ...6.B @.7.w.' @ @ .           ",
"      . + + 0 x.y.z.A.B.C.D.E.F.' @ @ . . # # G.g.h.i.,.'.j.!.K k.M N H.I.J.w.' @ @ .           ",
"      . + + ' ' ' ' ' ' ' ' ' ' ' @ @ . . # # ' ' ' ' ' ' ' ' ' ' ' ' ' ' ' ' ' @ @ .           ",
"      . + @ @ @ @ @ @ @ @ @ @ @ @ @ @ . . # @ @ @ @ @ @ @ @ @ @ @ @ @ @ @ @ @ @ @ @ .           ",
"        @ @ @ @ @ @ @ @ @ @ @ @ @ @ @ . . @ @ @ @ @ @ @ @ @ @ @ @ @ @ @ @ @ @ @ @ @ .           ",
"        . . . . . . . . . . . . . . . . . . . . . . . . . . . . . . . . . . . . . . .           ",
"        . . . . . . . . . . . . . . . . . . . . . K.L.. . . . . . . . . . . . . . . .           ",
"        M.M.M.M.M.M.M.M.M.M.M.M.M.M.M.M.M.M.M.M.M.M.M.M.M.M.M.M.M.M.M.M.M.M.M.M.M.@ .           ",
"      . M.M.M.M.M.M.M.M.M.M.M.M.M.M.M.M.M.M.M.M.M.M.M.M.M.M.M.M.M.M.M.M.M.M.M.M.@ @ .           ",
"      . M.M.N.O.P.Q.R.S.T.U.V.W.X.Y.Z.`. +.+++@+#+$+%+&+*+=+-+;+>+,+'+)+!+~+{+' @ @ .           ",
"      . M.M.]+^+/+(+_+:+<+[+}+|+1+2+3+4+5+6+7+8+9+0+a+b+c+d+e+f+g+h+i+j+k+l+m+' @ @ .           ",
"      . M.M.n+o+p+q+r+s+t+u+v+w+x+y+z+A+B+6+C+. D+E+F+G+H+I+J+K+L+M+N+O+P+Q+R+' @ @ .           ",
"      . M.M.S+T+U+R.S.T.V+V.w+W+. X+Y+Z+. `+@+. D+F+ @.@+@-+;+>+,+@@#@$@%@{+&@' @ @ .           ",
"      . M.M.*@/+=@_+-@<+[+;@>@,@'@)@4+5+!@~@{@. ]@ @^@/@d+(@f+_@:@<@[@k+}@m+|@' @ @ .           ",
"      . M.M.^+1@2@3@4@5@6@}+7@z+8@9@0@a@b@c@8+. . . d@e@f@J+g@g+h+h@j+P+Q+R+i@' @ @ .           ",
"      . M.M.T+j@R.k@l@t+m@v+n@,@o@`.p@.+q@~@r@. s@t@u@v@w@x@y@z@@@#@$@A@{+B@C@' @ @ .           ",
"      . M.M./+=@_+D@E@F@G@>@X.H@. I@J@K@. L@M@. N@O@P@Q@R@S@>+,+'+)+!+~+T@&@C@' @ @ .           ",
"      . M.M.U@(+_+:+<+6@}+|+1+V@W@y+z+y+X@Y@9+. N@Z@`@ # #.#g+h+h@j++#l+m+@#C@' @ @ .           ",
"      . M.M.p+##r+s+t+u+v+n@$#%#&#*#=#-#C+r@;#>#,#'#)#!#x@y@~#@@{#$@]#^#/#C@C@' @ @ .           ",
"      . M.M.' ' ' ' ' ' ' ' ' ' ' ' ' ' ' ' ' ' ' ' ' ' ' ' ' ' ' ' ' ' ' ' ' ' @ @ .           ",
"      . M.@ @ @ @ @ @ @ @ @ @ @ @ @ @ @ @ @ @ @ @ @ @ @ @ @ @ @ @ @ @ @ @ @ @ @ @ @ .           ",
"        @ @ @ @ @ @ @ @ @ @ @ @ @ @ @ @ @ @ @ @ @ @ @ @ @ @ @ @ @ @ @ @ @ @ @ @ @ @ .           ",
"        . . . . . . . . . . . . . . . . . . . . . . . . . . . . . . . . . . . . . . .           ",
"                                                                                                ",
"                                                                                                ",
"                                                                                                ",
"                                                                                                ",
"                                                                                                ",
"                                                                                                ",
"                                                                                                ",
"                                                                                                "};
