/* XPM */
static char * vptk_xpm[] = {
"48 48 96 2",
"  	c None",
". 	c #51537E",
"+ 	c #5C5E85",
"@ 	c #52547E",
"# 	c #575983",
"$ 	c #555780",
"% 	c #53557F",
"& 	c #65678D",
"* 	c #616389",
"= 	c #5A5C84",
"- 	c #6D6F92",
"; 	c #6B6D91",
"> 	c #51537D",
", 	c #62648A",
"' 	c #6F7193",
") 	c #545680",
"! 	c #6F7194",
"~ 	c #565882",
"{ 	c #555781",
"] 	c #67698D",
"^ 	c #6E7093",
"/ 	c #585A82",
"( 	c #585A83",
"_ 	c #575982",
": 	c #565881",
"< 	c #595B84",
"[ 	c #595B83",
"} 	c #6A6C90",
"| 	c #5C5E86",
"1 	c #5D5E86",
"2 	c #5B5D85",
"3 	c #5A5C85",
"4 	c #585A84",
"5 	c #63658B",
"6 	c #717395",
"7 	c #5E6087",
"8 	c #5E5F87",
"9 	c #5D5F86",
"0 	c #717396",
"a 	c #606188",
"b 	c #5F6188",
"c 	c #686A8E",
"d 	c #747698",
"e 	c #63648A",
"f 	c #606289",
"g 	c #616289",
"h 	c #5F6088",
"i 	c #5D5F87",
"j 	c #747598",
"k 	c #65678C",
"l 	c #66678D",
"m 	c #64668C",
"n 	c #62638A",
"o 	c #5D6087",
"p 	c #767899",
"q 	c #68698E",
"r 	c #67698E",
"s 	c #66688D",
"t 	c #606389",
"u 	c #737597",
"v 	c #696B90",
"w 	c #686A8F",
"x 	c #67688E",
"y 	c #65668C",
"z 	c #64668B",
"A 	c #63648B",
"B 	c #6C6E92",
"C 	c #6C6D91",
"D 	c #6B6C91",
"E 	c #6A6B90",
"F 	c #696B8F",
"G 	c #64658B",
"H 	c #77799A",
"I 	c #6E6F93",
"J 	c #696A8F",
"K 	c #7B7D9C",
"L 	c #707394",
"M 	c #707295",
"N 	c #707194",
"O 	c #6F7093",
"P 	c #6D6F93",
"Q 	c #6E6F92",
"R 	c #676A8E",
"S 	c #63658A",
"T 	c #626389",
"U 	c #727496",
"V 	c #727596",
"W 	c #737496",
"X 	c #727395",
"Y 	c #54567F",
"Z 	c #797B9B",
"` 	c #757698",
" .	c #747697",
"..	c #5F6187",
"+.	c #787A9B",
"@.	c #50527C",
"                                                                                                ",
"                                              . +                                               ",
"                                              @ #                                               ",
"                                              @ $                                               ",
"                                            @ @ % &                                             ",
"                                            @ @ @ *                                             ",
"                                          @ @ @ @ = -                                           ",
"                                          @ @ @ @ % ;                                           ",
"                                        @ @ @ @ @ > , '                                         ",
"                                        ) % % @ @ @ $ !                                         ",
"                                        ~ $ { ) ) % > ] ^                                       ",
"                                      / ( ( _ ~ : $ $ < !                                       ",
"                                      = < < [ ( _ _ : _ }                                       ",
"                                    | 1 + 2 = 3 [ 4 ( _ 5 6                                     ",
"                                      7 7 8 9 | 2 2 = < 2 0                                     ",
"                                  *     a b 7 8 9 9 2 2 = c d                                   ",
"                                  5 e     f g f b h 7 i | + j                                   ",
"                                k l k m 5   n n n f f a 7 o l p                                 ",
"                                q r s s k m 5 , 5 , n * f a t u                                 ",
"                              } } v c w r x s & y z m e A , g ; p                               ",
"                              B C ; D E F F q q r s l k m G 5 , H                               ",
"                            I I I B B C D } E F w q q s s k k G J K                             ",
"                            L M N O ^ P I Q ; R y S , T e z s r k U                             ",
"                          V W W 6 6 X ! z = $ Y % % % % % Y ) _ | k Z                           ",
"                          `  . .U O ..@ > @ @ @ @ @ @ @ @ @ @ @ @ > b                           ",
"                        H H +.; 7 @ > @ @ @ @ @ @ @ @ @ @ @ @ @ @ @ . z                         ",
"                        K ` 2 % @ @ @     @ @ @         @ @ @ @ @ @ @ Y ]                       ",
"                      Z J @ @ @ @         @ @           @ @ @ @ @ @ @ @ :                       ",
"                      ( @.@ @ @ @ @       @               @ @ @ @ @ @ @ @ Y                     ",
"                    @ @ @ @ @ @ @ @       @               @ @ @ @ @ @ @ @ @                     ",
"                    @ @ @ @ @ @ @ @                         @ @ @ @ @ @ @ @ @                   ",
"                  @ @ @ @ @ @ @ @ @                           @ @ @ @ @ @ @ @                   ",
"                @ @ @ @ @ @ @ @ @ @ @                     @   @ @ @ @ @ @ @ @ @                 ",
"                @ @ @ @ @ @ @ @ @ @ @ @                   @   @ @ @ @ @ @ @ @ @                 ",
"              @ @ @ @ @ @ @ @ @ @ @ @ @ @ @   @       @ @   @ @ @ @ @ @ @ @ @ @ @               ",
"              @ @ @ @ @ @ @ @ @ @ @ @ @ @ @   @   @   @ @ @ @ @ @ @ @ @ @   @ @ @               ",
"            @ @ @ @ @ @ @ @ @ @ @ @ @ @ @ @   @   @   @ @   @ @ @ @ @ @ @ @ @   @ @             ",
"            @ @ @ @ @ @ @ @ @ @ @ @ @ @ @ @ @ @ @   @ @ @ @ @ @ @ @ @ @ @ @ @ @                 ",
"          @ @ @ @ @ @ @ @ @ @ @ @ @ @ @ @ @ @ @ @   @ @ @ @ @ @ @ @ @ @ @ @ @ @ @               ",
"          @ @ @ @ @ @ @ @ @ @ @ @ @ @ @ @             @ @   @ @ @ @ @ @ @ @ @ @ @ @ @           ",
"        @ @ @ @ @ @ @ @ @ @ @ @                                 @ @ @ @ @ @ @ @ @ @ @ @         ",
"        @ @ @ @ @ @ @ @ @                                             @ @ @ @ @ @ @ @ @         ",
"      @ @ @ @ @ @ @ @                                                     @ @ @ @ @ @ @ @       ",
"    @ @ @ @ @ @                                                               @ @ @ @ @ @ @     ",
"    @ @ @ @                                                                         @ @ @ @     ",
"  @ @ @ @                                                                             @ @ @ @   ",
"  @ @                                                                                     @ @   ",
"                                                                                                "};
