/* XPM */
static char * vtcl_xpm[] = {
"48 48 549 2",
"  	c None",
". 	c #D3D3D3",
"+ 	c #D9D9D9",
"@ 	c #DCDCDC",
"# 	c #E2E2E2",
"$ 	c #E4E4E4",
"% 	c #E5E5E5",
"& 	c #DDDDDD",
"* 	c #CCCCCC",
"= 	c #D2D2D1",
"- 	c #E3E3E3",
"; 	c #EAEAEA",
"> 	c #E8E8E8",
", 	c #ECECEC",
"' 	c #EEEEEE",
") 	c #F1F1F1",
"! 	c #EDEDED",
"~ 	c #F3F3F3",
"{ 	c #E0E0E0",
"] 	c #718DBD",
"^ 	c #CBCDCF",
"/ 	c #E6E6E6",
"( 	c #E9E9E9",
"_ 	c #F2F2F2",
": 	c #F8F8F8",
"< 	c #819CC9",
"[ 	c #A5BBDE",
"} 	c #2C4B84",
"| 	c #B2B7C1",
"1 	c #DDDCDC",
"2 	c #EBEBEB",
"3 	c #F7F7F7",
"4 	c #F9F9F9",
"5 	c #F6F6F6",
"6 	c #4566A6",
"7 	c #91ADD8",
"8 	c #AAC3E5",
"9 	c #5675AB",
"0 	c #8995AA",
"a 	c #DEDEDC",
"b 	c #E1E1E1",
"c 	c #F0F0F0",
"d 	c #F5F5F5",
"e 	c #4D70AF",
"f 	c #8BABD9",
"g 	c #9DB9E2",
"h 	c #9CB7DE",
"i 	c #4A6391",
"j 	c #E9E7E3",
"k 	c #D1D1D1",
"l 	c #CACACA",
"m 	c #F4F4F4",
"n 	c #779BD0",
"o 	c #8CACDA",
"p 	c #A2BFE8",
"q 	c #6E8DBD",
"r 	c #AEB5C1",
"s 	c #CFCFCE",
"t 	c #D7D7D7",
"u 	c #DEDEDE",
"v 	c #CBCBCB",
"w 	c #6A8EC6",
"x 	c #85A8DB",
"y 	c #8BABDB",
"z 	c #A0BDE7",
"A 	c #6E87B1",
"B 	c #C5C7CB",
"C 	c #D6D6D6",
"D 	c #BDBDBD",
"E 	c #B7B7B7",
"F 	c #EFEFEF",
"G 	c #D8D8D8",
"H 	c #4D71AF",
"I 	c #82A4D9",
"J 	c #87A9DB",
"K 	c #8DADDD",
"L 	c #92B0DC",
"M 	c #758AAD",
"N 	c #C3C3C4",
"O 	c #CECECE",
"P 	c #B9B9B9",
"Q 	c #BCBCBC",
"R 	c #EAE9E9",
"S 	c #B8B9BB",
"T 	c #6F92C8",
"U 	c #81A3D5",
"V 	c #85A7D8",
"W 	c #89AADA",
"X 	c #85A5D3",
"Y 	c #7787A5",
"Z 	c #C7C7C6",
"` 	c #A3A3A3",
" .	c #BBBBBB",
"..	c #CDCDCD",
"+.	c #EEEEED",
"@.	c #E6E5E3",
"#.	c #CCCCCD",
"$.	c #818EA5",
"%.	c #2B4D91",
"&.	c #6788BD",
"*.	c #7596C8",
"=.	c #7597CB",
"-.	c #7FA0D1",
";.	c #82A3D5",
">.	c #6988BC",
",.	c #8993A6",
"'.	c #979797",
").	c #C6C6C6",
"!.	c #D2D2D2",
"~.	c #D4D4D4",
"{.	c #DEDEDD",
"].	c #F0F0EE",
"^.	c #DFDEDB",
"/.	c #6C7B94",
"(.	c #27457C",
"_.	c #46659E",
":.	c #395A93",
"<.	c #2A4C8C",
"[.	c #6181B5",
"}.	c #7797C7",
"|.	c #6D90C5",
"1.	c #7496C9",
"2.	c #7C9ED0",
"3.	c #4D689B",
"4.	c #8C8F95",
"5.	c #BABCBF",
"6.	c #C8CACF",
"7.	c #C4C7CD",
"8.	c #B9BDC5",
"9.	c #96A0AF",
"0.	c #657592",
"a.	c #425C89",
"b.	c #335592",
"c.	c #6583B9",
"d.	c #A2BCE4",
"e.	c #7A97C7",
"f.	c #36558E",
"g.	c #416093",
"h.	c #1E4082",
"i.	c #6787B7",
"j.	c #6A8ABC",
"k.	c #698BC0",
"l.	c #6688BE",
"m.	c #7D99C5",
"n.	c #596E93",
"o.	c #476190",
"p.	c #4C6899",
"q.	c #496799",
"r.	c #44639A",
"s.	c #4466A1",
"t.	c #4D71AC",
"u.	c #6B8BBF",
"v.	c #88A6D5",
"w.	c #9BB8E5",
"x.	c #ABC8EF",
"y.	c #B0CBF1",
"z.	c #809CCA",
"A.	c #294985",
"B.	c #3E5B8B",
"C.	c #3A5A90",
"D.	c #204284",
"E.	c #6281B1",
"F.	c #5B7EB1",
"G.	c #6081B3",
"H.	c #7895C0",
"I.	c #637798",
"J.	c #466599",
"K.	c #4B6A9D",
"L.	c #5A79A9",
"M.	c #7490BD",
"N.	c #8DA7D0",
"O.	c #A8BFDF",
"P.	c #AEC5E6",
"Q.	c #A0BBE2",
"R.	c #9DBAE6",
"S.	c #A7C6F0",
"T.	c #A5C1EB",
"U.	c #84A0CE",
"V.	c #22427F",
"W.	c #3F5A87",
"X.	c #3F5D8B",
"Y.	c #37568E",
"Z.	c #234583",
"`.	c #5675A6",
" +	c #5578AF",
".+	c #627CA7",
"++	c #7789A7",
"@+	c #47679B",
"#+	c #4E70A5",
"$+	c #5678AF",
"%+	c #5E81B7",
"&+	c #6589BF",
"*+	c #7496C8",
"=+	c #8CAAD6",
"-+	c #A8C0E4",
";+	c #B4CCEE",
">+	c #A1BFEA",
",+	c #94B3DF",
"'+	c #90AEDC",
")+	c #34507F",
"!+	c #506B98",
"~+	c #3E5988",
"{+	c #38578B",
"]+	c #1F4182",
"^+	c #456495",
"/+	c #708BB7",
"(+	c #8492AB",
"_+	c #405E8F",
":+	c #446498",
"<+	c #4B6B9E",
"[+	c #5575A8",
"}+	c #6586B7",
"|+	c #7E9BC7",
"1+	c #98B1D7",
"2+	c #A6BDE0",
"3+	c #9FBAE2",
"4+	c #90B0E0",
"5+	c #92B3E3",
"6+	c #9BBBE9",
"7+	c #6080B9",
"8+	c #223D70",
"9+	c #3F5A86",
"0+	c #556F9B",
"a+	c #395582",
"b+	c #3A5887",
"c+	c #1E4183",
"d+	c #5F7AA5",
"e+	c #8D98AD",
"f+	c #385687",
"g+	c #3D5C8F",
"h+	c #456595",
"i+	c #5673A2",
"j+	c #6E8AB5",
"k+	c #86A0C7",
"l+	c #93ADD2",
"m+	c #8EA9D2",
"n+	c #7D9ECF",
"o+	c #7A9DD1",
"p+	c #97B8E8",
"q+	c #9DBEED",
"r+	c #5B7CB8",
"s+	c #2B4572",
"t+	c #445E8A",
"u+	c #49638D",
"v+	c #36517F",
"w+	c #355383",
"x+	c #35548D",
"y+	c #919FB6",
"z+	c #3A5582",
"A+	c #385585",
"B+	c #4A689A",
"C+	c #5776A8",
"D+	c #6180B2",
"E+	c #6F8EBE",
"F+	c #7F9BC9",
"G+	c #95B0D8",
"H+	c #A3BDE4",
"I+	c #99B7E5",
"J+	c #7598CE",
"K+	c #4064A5",
"L+	c #223E77",
"M+	c #354D77",
"N+	c #46608A",
"O+	c #354F7B",
"P+	c #324E7B",
"Q+	c #2D4B7B",
"R+	c #9EABC0",
"S+	c #4F6487",
"T+	c #27467F",
"U+	c #345389",
"V+	c #3D5C93",
"W+	c #4A6AA0",
"X+	c #5A79AD",
"Y+	c #6280B3",
"Z+	c #5E7EB3",
"`+	c #4E72AC",
" @	c #3C60A1",
".@	c #35599A",
"+@	c #2A4D91",
"@@	c #1E396D",
"#@	c #384F79",
"$@	c #465F89",
"%@	c #253E6B",
"&@	c #274474",
"*@	c #A3AEC0",
"=@	c #546582",
"-@	c #284373",
";@	c #2F4D7D",
">@	c #294A86",
",@	c #274886",
"'@	c #274988",
")@	c #315492",
"!@	c #375B9A",
"~@	c #5073B0",
"{@	c #7194CB",
"]@	c #7EA1D7",
"^@	c #ACB3C4",
"/@	c #1C3665",
"(@	c #364E78",
"_@	c #3C5580",
":@	c #1F3965",
"<@	c #687A99",
"[@	c #707B8E",
"}@	c #203B6A",
"|@	c #2D4875",
"1@	c #395481",
"2@	c #4C6793",
"3@	c #647EA6",
"4@	c #7D94B9",
"5@	c #8BA2C4",
"6@	c #8DA5C8",
"7@	c #8AA5CD",
"8@	c #84A3D0",
"9@	c #7C9ED1",
"0@	c #688CC4",
"a@	c #9C9A98",
"b@	c #8A98B3",
"c@	c #1C335F",
"d@	c #2F4974",
"e@	c #2A426A",
"f@	c #828C9C",
"g@	c #28406B",
"h@	c #294470",
"i@	c #344E7B",
"j@	c #415C87",
"k@	c #516B96",
"l@	c #5E77A1",
"m@	c #637DA8",
"n@	c #6682AE",
"o@	c #6684B3",
"p@	c #6586B8",
"q@	c #6F91C6",
"r@	c #6B8EC5",
"s@	c #AFAEAC",
"t@	c #8694AE",
"u@	c #1B335E",
"v@	c #324A74",
"w@	c #1C3663",
"x@	c #778398",
"y@	c #405271",
"z@	c #223A67",
"A@	c #253F6C",
"B@	c #2A4572",
"C@	c #314C7B",
"D@	c #3D5986",
"E@	c #4F6B97",
"F@	c #728EB8",
"G@	c #7997C6",
"H@	c #7D9DCD",
"I@	c #6486BE",
"J@	c #666666",
"K@	c #BEBDBC",
"L@	c #919AAC",
"M@	c #19325F",
"N@	c #2A436F",
"O@	c #425474",
"P@	c #717887",
"Q@	c #1B3462",
"R@	c #2B4470",
"S@	c #3B547E",
"T@	c #4E668D",
"U@	c #62799D",
"V@	c #687FA4",
"W@	c #667FA6",
"X@	c #5B76A2",
"Y@	c #4D6C9E",
"Z@	c #5071A6",
"`@	c #385B9A",
" #	c #373737",
".#	c #9A9A9A",
"+#	c #ADADAC",
"@#	c #989EA8",
"##	c #173266",
"$#	c #344C74",
"%#	c #767B85",
"&#	c #233B67",
"*#	c #2F4771",
"=#	c #3C537B",
"-#	c #445B82",
";#	c #475E85",
">#	c #49628A",
",#	c #4A648E",
"'#	c #476495",
")#	c #3F6097",
"!#	c #436299",
"~#	c #506DA1",
"{#	c #D1D0CF",
"]#	c #484747",
"^#	c #A3A4A4",
"/#	c #14316A",
"(#	c #586479",
"_#	c #334463",
":#	c #1B325D",
"<#	c #1E355F",
"[#	c #213966",
"}#	c #233E72",
"|#	c #223F77",
"1#	c #1E3D79",
"2#	c #244480",
"3#	c #435B88",
"4#	c #77859C",
"5#	c #A6ACB8",
"6#	c #C5C6C7",
"7#	c #4F5256",
"8#	c #B2B2B2",
"9#	c #A09E9B",
"0#	c #284479",
"a#	c #5D677A",
"b#	c #3B5483",
"c#	c #475F8C",
"d#	c #576E98",
"e#	c #677A9D",
"f#	c #7987A0",
"g#	c #9199A7",
"h#	c #A3A6AB",
"i#	c #ABA9A5",
"j#	c #B8B7B4",
"k#	c #BDBEBF",
"l#	c #BFBFBF",
"m#	c #C3C3C3",
"n#	c #434342",
"o#	c #50545A",
"p#	c #A7A7A6",
"q#	c #9B9A99",
"r#	c #657187",
"s#	c #969592",
"t#	c #B0AFAB",
"u#	c #A6A5A1",
"v#	c #9F9E9B",
"w#	c #A7A5A3",
"x#	c #A9A8A6",
"y#	c #9F9E9D",
"z#	c #9B9A9A",
"A#	c #B1B1B1",
"B#	c #B3B3B3",
"C#	c #B8B8B8",
"D#	c #3D3C3C",
"E#	c #4E5157",
"F#	c #9F9F9E",
"G#	c #9E9E9E",
"H#	c #ABABAA",
"I#	c #737474",
"J#	c #B9B8B8",
"K#	c #BABABA",
"L#	c #B6B6B6",
"M#	c #949494",
"N#	c #7D7D7D",
"O#	c #9B9B9B",
"P#	c #A5A5A5",
"Q#	c #B0B0B0",
"R#	c #B4B4B4",
"S#	c #343434",
"T#	c #414345",
"U#	c #A4A4A4",
"V#	c #A7A7A7",
"W#	c #7F7F7F",
"X#	c #828282",
"Y#	c #8E8E8E",
"Z#	c #7A7A7A",
"`#	c #7B7B7B",
" $	c #8B8B8B",
".$	c #A8A8A8",
"+$	c #989898",
"@$	c #9F9F9F",
"#$	c #ACACAC",
"$$	c #28292A",
"%$	c #313232",
"&$	c #929292",
"*$	c #656565",
"=$	c #9C9C9C",
"-$	c #A6A6A6",
";$	c #939393",
">$	c #1C2330",
",$	c #201F1F",
"'$	c #AEAEAE",
")$	c #767676",
"!$	c #959595",
"~$	c #B5B5B5",
"{$	c #A9A9A9",
"]$	c #8F8F8F",
"^$	c #929291",
"/$	c #13171D",
"($	c #131B28",
"_$	c #131313",
":$	c #909090",
"<$	c #6F6F6F",
"[$	c #898989",
"}$	c #7F7F7E",
"|$	c #737373",
"1$	c #7C7C7B",
"2$	c #96989A",
"3$	c #A1A4AA",
"4$	c #96999E",
"5$	c #212C42",
"6$	c #0D121A",
"7$	c #0B0A0A",
"8$	c #696969",
"9$	c #747474",
"0$	c #A1A1A2",
"a$	c #979CA5",
"b$	c #848FA1",
"c$	c #627088",
"d$	c #3A4B68",
"e$	c #263652",
"f$	c #323335",
"g$	c #292929",
"h$	c #35373A",
"i$	c #111419",
"j$	c #050505",
"k$	c #494949",
"l$	c #1A1A1A",
"m$	c #1D1E1E",
"n$	c #1D1F21",
"o$	c #1F2126",
"p$	c #272A30",
"q$	c #37393C",
"r$	c #383839",
"s$	c #1C1C1C",
"t$	c #181818",
"u$	c #353535",
"v$	c #060605",
"w$	c #0F0F0F",
"x$	c #171819",
"y$	c #222223",
"z$	c #272727",
"A$	c #1F1F1F",
"B$	c #101011",
"C$	c #3A3A3A",
"D$	c #11141A",
"E$	c #0A1528",
"F$	c #0D1E3A",
"G$	c #0F203E",
"H$	c #121214",
"I$	c #040404",
"J$	c #111317",
"K$	c #181C22",
"L$	c #1E2127",
"M$	c #303031",
"N$	c #1D1D1C",
"O$	c #0C1422",
"P$	c #121D2F",
"Q$	c #202020",
"R$	c #0E0E0E",
"S$	c #424242",
"T$	c #3C3C3C",
"U$	c #383838",
"V$	c #2C2C2C",
"W$	c #424243",
"X$	c #363636",
"                                                                                                ",
"                                                                . + @ # $ % # & *               ",
"                                                            = - ; > , ' ) , ! ~ {               ",
"                                                      ]   ^ / ( - ; _ ) ; , : : %               ",
"                                                  < [ } | 1 - - % ~ ( - 2 3 4 5 -               ",
"                                              6 7 8 9 0 a b & { ' + + c ~ d d ~ +               ",
"                                            e f g h i j k + b b l { ! , ~ m ) /                 ",
"                                            n o p q r s t u * v @ $ ! ' ) ' > .                 ",
"                                          w x y z A B . C D E @ / % > F > 2 G                   ",
"                                        H I J K L M N O P Q u . u ; $ ( R k S                   ",
"                                        T U V W X Y Z `  ...+ # & # +.@.#.$.                    ",
"                                    %.&.*.=.-.;.>.,.'.).!.~.!.{.].^.S /.(._.                    ",
"                                  :.<.[.}.|.1.2.3.4.5.B 6.7.8.9.0.a.b.c.d.e.                    ",
"                                f.g.h.i.j.k.l.m.n.o.p.q.r.s.t.u.v.w.x.y.z.                      ",
"                              A.B.C.D.E.F.G.H.I.J.K.L.M.N.O.P.Q.R.S.T.U.                        ",
"                            V.W.X.Y.Z.`. +.+++@+#+$+%+&+*+=+-+;+>+,+'+                          ",
"                            )+!+~+{+]+^+/+(+_+:+<+[+}+|+1+2+3+4+5+6+7+                          ",
"                          8+9+0+a+b+c+d+e+f+g+h+i+j+k+l+m+n+o+p+q+r+                            ",
"                          s+t+u+v+w+x+y+z+A+_+B+C+D+E+F+G+H+I+J+K+                              ",
"                        L+M+N+O+P+Q+R+S+T+} U+V+W+X+Y+Z+`+ @.@+@                                ",
"                        @@#@$@%@&@*@=@-@;@} >@,@'@<.)@!@~@{@]@                                  ",
"                      ^@/@(@_@:@<@[@}@|@1@2@3@4@5@6@7@8@9@0@                                    ",
"                    a@b@c@M+d@e@f@g@h@i@j@k@l@m@n@o@p@q@r@                                      ",
"                    s@t@u@v@w@x@y@z@A@B@C@D@E@.+F@G@H@I@                                        ",
"                  J@K@L@M@N@O@P@Q@R@S@T@U@V@W@X@Y@Z@`@                                          ",
"                 #.#+#@###$#%#&#*#=#-#;#>#,#'#)#!#~#  {#                                        ",
"                ]#E ` ^#/#(#_#:#<#[#}#|#1#2#3#4#5#6#l                                           ",
"                7#8#` 9#0#a#b#c#d#e#f#g#h#i#j#k#l#m#                                            ",
"              n#o#p#` q#r#s#t#u#v#w#x#y#z#A#B#C#Q                                               ",
"              D#E#F#G#H#I#J#K#D L#M#N#O#8#P#Q#R#                                                ",
"              S#T#U#V#W#X#Y#Z#`# $.$B#+$@$Q##$                                                  ",
"              $$%$R#&$*$=$=$U#-$@$M#;$U#-$                                                      ",
"              >$,$'$)$!$R#~${$]$W#^$U#                                                          ",
"            /$($_$:$<$[$}$|$1$2$3$4$                                                            ",
"            5$6$7$8$9$0$a$b$c$d$e$f$g$                                                          ",
"            h$i$j$k$l$m$n$o$p$q$r$                                                              ",
"              s$t$u$v$w$x$y$z$A$                                                                ",
"              B$C$D$E$F$G$                                                                      ",
"              H$ #I$J$K$L$                                                                      ",
"              M$N$O$P$  Q$R$                                                                    ",
"              S$                                                                                ",
"              T$                                                                                ",
"              U$                                                                                ",
"              V$                                                                                ",
"            W$l$                                                                                ",
"            S$                                                                                  ",
"            X$                                                                                  ",
"                                                                                                "};
