/* XPM */
static char * wireless_xpm[] = {
"48 48 547 2",
"  	c None",
". 	c #FAFAFA",
"+ 	c #F9F9F9",
"@ 	c #FEFEFE",
"# 	c #FFFFFF",
"$ 	c #F8F8F8",
"% 	c #F6F6F6",
"& 	c #FDFDFD",
"* 	c #FEFFFF",
"= 	c #FEFEFD",
"- 	c #FFFEFE",
"; 	c #E0F1FA",
"> 	c #C1E3F6",
", 	c #AFDCF3",
"' 	c #9ED5F1",
") 	c #9ED6F2",
"! 	c #9FD6F2",
"~ 	c #B0DCF4",
"{ 	c #C2E4F6",
"] 	c #E1F1FA",
"^ 	c #FCFCFC",
"/ 	c #FDFDFE",
"( 	c #FFFFFE",
"_ 	c #ACDAF2",
": 	c #51B3E5",
"< 	c #1E9CDF",
"[ 	c #1398DD",
"} 	c #0D95DC",
"| 	c #0894DB",
"1 	c #0492DB",
"2 	c #0D96DC",
"3 	c #1498DD",
"4 	c #1D9CDF",
"5 	c #53B3E5",
"6 	c #F3F4F4",
"7 	c #FFFEFD",
"8 	c #F4F9FC",
"9 	c #D1E9F6",
"0 	c #63B8E6",
"a 	c #008CD8",
"b 	c #008AD7",
"c 	c #008DD8",
"d 	c #008FD9",
"e 	c #D1EAF6",
"f 	c #F3F3F3",
"g 	c #FCFCFD",
"h 	c #A9D6F0",
"i 	c #47ABE1",
"j 	c #008AD5",
"k 	c #0089D5",
"l 	c #008CD6",
"m 	c #008BD6",
"n 	c #49ACE1",
"o 	c #A7D6EF",
"p 	c #FBFBFB",
"q 	c #FFFFFD",
"r 	c #E1F0F8",
"s 	c #3BA2DC",
"t 	c #068BD4",
"u 	c #0088D3",
"v 	c #0089D3",
"w 	c #0086D2",
"x 	c #0083D1",
"y 	c #0188D3",
"z 	c #1D95D7",
"A 	c #41A5DD",
"B 	c #48A8DF",
"C 	c #43A6DE",
"D 	c #2298D8",
"E 	c #0288D3",
"F 	c #0082D1",
"G 	c #058BD4",
"H 	c #39A1DC",
"I 	c #DFF0F8",
"J 	c #FBFBFC",
"K 	c #FCFBFC",
"L 	c #F8FAFB",
"M 	c #98CDEB",
"N 	c #0082CF",
"O 	c #0086D0",
"P 	c #0087D1",
"Q 	c #0488D1",
"R 	c #138FD3",
"S 	c #41A3DB",
"T 	c #90C9E9",
"U 	c #DBECF6",
"V 	c #DDEDF6",
"W 	c #94CBE9",
"X 	c #148FD4",
"Y 	c #0388D1",
"Z 	c #0083CF",
"` 	c #F9FAFB",
" .	c #FAFBFB",
"..	c #FDFDFC",
"+.	c #EBF3F8",
"@.	c #54ABDC",
"#.	c #0081CD",
"$.	c #0085CE",
"%.	c #0083CD",
"&.	c #0083CE",
"*.	c #49A6DB",
"=.	c #9ACDE9",
"-.	c #E1EFF7",
";.	c #FFFFFC",
">.	c #FEFCFC",
",.	c #FEFDFC",
"'.	c #FDFCFC",
").	c #E3F0F7",
"!.	c #9ACDEA",
"~.	c #48A6DC",
"{.	c #55ACDD",
"].	c #ECF4F8",
"^.	c #FEFCFB",
"/.	c #E9F2F8",
"(.	c #2191D1",
"_.	c #0081CC",
":.	c #0082CC",
"<.	c #0083CC",
"[.	c #007DCA",
"}.	c #2994D3",
"|.	c #C5E1F1",
"1.	c #F2F6F9",
"2.	c #FDFBFB",
"3.	c #FBFBFA",
"4.	c #FDFCFB",
"5.	c #FFFEFC",
"6.	c #FAFBFA",
"7.	c #DAECF4",
"8.	c #CEE6F3",
"9.	c #D0E7F3",
"0.	c #FBFAFA",
"a.	c #C4E1F0",
"b.	c #EFEFF0",
"c.	c #F9F9FA",
"d.	c #DDEBF4",
"e.	c #1789CD",
"f.	c #007FCA",
"g.	c #0080CA",
"h.	c #007FC9",
"i.	c #0983CB",
"j.	c #84BFE2",
"k.	c #F3F6F9",
"l.	c #E3EEF6",
"m.	c #A5D0E9",
"n.	c #54A6D9",
"o.	c #0F86CC",
"p.	c #0079C7",
"q.	c #1187CD",
"r.	c #54A7D9",
"s.	c #E4EFF6",
"t.	c #82BFE2",
"u.	c #1889CD",
"v.	c #F0F4F7",
"w.	c #4AA1D5",
"x.	c #007BC6",
"y.	c #007DC7",
"z.	c #0079C5",
"A.	c #2A92CF",
"B.	c #C3DEEE",
"C.	c #FFFCFA",
"D.	c #F8F8F9",
"E.	c #FEFBFA",
"F.	c #FBFAF9",
"G.	c #A6CFE7",
"H.	c #53A5D7",
"I.	c #0A81C9",
"J.	c #0076C4",
"K.	c #007AC6",
"L.	c #007CC7",
"M.	c #0A82C9",
"N.	c #54A6D7",
"O.	c #A6CFE8",
"P.	c #FCFBF9",
"Q.	c #C1DDEE",
"R.	c #278FCF",
"S.	c #4CA2D6",
"T.	c #F2F2F2",
"U.	c #F5F5F5",
"V.	c #E7EFF5",
"W.	c #298FCC",
"X.	c #007BC4",
"Y.	c #0076C2",
"Z.	c #419AD2",
"`.	c #EDF4F6",
" +	c #FAF9F8",
".+	c #FDFBF9",
"++	c #C9E0EF",
"@+	c #2D90CD",
"#+	c #077FC6",
"$+	c #007AC4",
"%+	c #2D8FCC",
"&+	c #CAE0EE",
"*+	c #FDFAF9",
"=+	c #ECF2F6",
"-+	c #3D98D1",
";+	c #0077C3",
">+	c #2B90CD",
",+	c #E8F0F5",
"'+	c #EBEBEC",
")+	c #F7F7F8",
"!+	c #F4F5F7",
"~+	c #6FB1D9",
"{+	c #057BC3",
"]+	c #047AC3",
"^+	c #469CD1",
"/+	c #F3F5F7",
"(+	c #F6F7F8",
"_+	c #F1F4F7",
":+	c #92C2E1",
"<+	c #0076C1",
"[+	c #0078C2",
"}+	c #0079C2",
"|+	c #0078C1",
"1+	c #077CC3",
"2+	c #1081C5",
"3+	c #1583C6",
"4+	c #1784C7",
"5+	c #1884C7",
"6+	c #95C4E2",
"7+	c #F2F5F7",
"8+	c #429AD0",
"9+	c #6DB0D9",
"0+	c #DCDDDD",
"a+	c #F6F7F7",
"b+	c #F7F7F7",
"c+	c #F0F3F5",
"d+	c #A6CBE4",
"e+	c #A0C9E3",
"f+	c #EBF0F4",
"g+	c #F8F7F7",
"h+	c #F8F8F7",
"i+	c #E4EDF3",
"j+	c #52A0D1",
"k+	c #006FBC",
"l+	c #0076BF",
"m+	c #0076C0",
"n+	c #0074BE",
"o+	c #0070BD",
"p+	c #3592CC",
"q+	c #75B3DA",
"r+	c #CADFED",
"s+	c #E1EBF2",
"t+	c #E9F0F4",
"u+	c #EDF1F5",
"v+	c #E3ECF2",
"w+	c #CCDFED",
"x+	c #A7CCE5",
"y+	c #76B3DA",
"z+	c #3792CC",
"A+	c #54A1D2",
"B+	c #E5EDF2",
"C+	c #EAF0F4",
"D+	c #9DC7E3",
"E+	c #A4CBE4",
"F+	c #EFF2F5",
"G+	c #F1F2F2",
"H+	c #F5F6F6",
"I+	c #EEF2F4",
"J+	c #3990C9",
"K+	c #0072BD",
"L+	c #0073BD",
"M+	c #0074BD",
"N+	c #0070BC",
"O+	c #328DC9",
"P+	c #C5DBEB",
"Q+	c #E8EFF3",
"R+	c #F6F7F6",
"S+	c #F7F7F6",
"T+	c #C6DCEB",
"U+	c #318CC9",
"V+	c #3B91CA",
"W+	c #EAEAEA",
"X+	c #F4F4F4",
"Y+	c #F6F6F5",
"Z+	c #4393CA",
"`+	c #006CB8",
" @	c #0071BB",
".@	c #0070BA",
"+@	c #0C76BD",
"@@	c #84B7DA",
"#@	c #FEFBF7",
"$@	c #F6F5F5",
"%@	c #F7F6F5",
"&@	c #EEF1F3",
"*@	c #E4EBF1",
"=@	c #DEE8EF",
"-@	c #D7E5ED",
";@	c #D5E4ED",
">@	c #DEE9EF",
",@	c #FDFAF7",
"'@	c #83B6DA",
")@	c #0A75BC",
"!@	c #4895CB",
"~@	c #E5E6E6",
"{@	c #F4F4F5",
"]@	c #FAF8F6",
"^@	c #98C1DD",
"/@	c #0067B4",
"(@	c #006FB8",
"_@	c #006DB7",
":@	c #2E87C3",
"<@	c #C7DCE9",
"[@	c #FFFAF7",
"}@	c #FFFBF7",
"|@	c #DEE7EF",
"1@	c #8CBADB",
"2@	c #5099CC",
"3@	c #2381C1",
"4@	c #0671B9",
"5@	c #006AB6",
"6@	c #0069B5",
"7@	c #2380C0",
"8@	c #5099CB",
"9@	c #C3D9E8",
"0@	c #2A85C2",
"a@	c #0066B4",
"b@	c #9AC2DE",
"c@	c #DDDDDD",
"d@	c #FBF7F6",
"e@	c #8FBBD9",
"f@	c #0067B3",
"g@	c #006DB5",
"h@	c #006CB5",
"i@	c #1F7CBC",
"j@	c #DFE8EF",
"k@	c #F4F3F4",
"l@	c #F8F7F6",
"m@	c #7BAFD5",
"n@	c #1274B9",
"o@	c #026DB6",
"p@	c #006BB5",
"q@	c #7BB0D5",
"r@	c #F8F6F6",
"s@	c #DDE7EE",
"t@	c #1A7ABB",
"u@	c #8EBAD9",
"v@	c #F2F3F3",
"w@	c #F7F5F5",
"x@	c #3787C0",
"y@	c #0E71B6",
"z@	c #1F79BA",
"A@	c #E1E9EF",
"B@	c #F5F5F4",
"C@	c #F4F4F3",
"D@	c #DEE7ED",
"E@	c #448EC4",
"F@	c #0066B1",
"G@	c #006AB3",
"H@	c #0069B3",
"I@	c #0069B2",
"J@	c #468FC5",
"K@	c #DFE7ED",
"L@	c #F5F4F4",
"M@	c #E0E8EF",
"N@	c #1E78BA",
"O@	c #3485BF",
"P@	c #E9EAEA",
"Q@	c #F3F2F4",
"R@	c #F2F2F3",
"S@	c #F6F5F4",
"T@	c #CFDDE9",
"U@	c #F7F5F4",
"V@	c #D3E0EA",
"W@	c #2C7FBC",
"X@	c #0061AE",
"Y@	c #0067B1",
"Z@	c #0063AF",
"`@	c #227ABA",
" #	c #3B88C1",
".#	c #3987C0",
"+#	c #2179B9",
"@#	c #0062AE",
"##	c #2F80BC",
"$#	c #D5E0EB",
"%#	c #F4F3F3",
"&#	c #F1F1F2",
"*#	c #CDDCE8",
"=#	c #F6F4F3",
"-#	c #F2F2F4",
";#	c #EAEBEC",
">#	c #EEEFEF",
",#	c #F0F1F1",
"'#	c #F1F2F1",
")#	c #E0E7ED",
"!#	c #2579B8",
"~#	c #0063AE",
"{#	c #0064AE",
"]#	c #6FA4CD",
"^#	c #D2E0E9",
"/#	c #E0E8ED",
"(#	c #E4EAEE",
"_#	c #D0DEE9",
":#	c #6CA3CC",
"<#	c #277AB9",
"[#	c #E2E8ED",
"}#	c #F1F1F1",
"|#	c #E3E3E4",
"1#	c #F0F0F1",
"2#	c #EEEFF0",
"3#	c #679EC9",
"4#	c #0062AB",
"5#	c #0063AC",
"6#	c #0061AB",
"7#	c #2779B6",
"8#	c #CEDCE7",
"9#	c #F7F4F3",
"0#	c #CCDAE7",
"a#	c #2677B6",
"b#	c #6AA0CA",
"c#	c #E3E4E5",
"d#	c #ECEDED",
"e#	c #EFF0F0",
"f#	c #DFE6EB",
"g#	c #2576B4",
"h#	c #005FA9",
"i#	c #0060A9",
"j#	c #005BA6",
"k#	c #4589BE",
"l#	c #E5E9ED",
"m#	c #F5F3F2",
"n#	c #F2F2F1",
"o#	c #F7F5F3",
"p#	c #E3E8ED",
"q#	c #4387BD",
"r#	c #2677B4",
"s#	c #E6E6E6",
"t#	c #E7EAED",
"u#	c #4687BC",
"v#	c #005AA5",
"w#	c #005BA5",
"x#	c #2773B2",
"y#	c #DAE2E9",
"z#	c #EFF0EF",
"A#	c #F5F3F1",
"B#	c #C9D7E4",
"C#	c #83AACD",
"D#	c #D9E1E8",
"E#	c #2472B1",
"F#	c #4587BB",
"G#	c #E6EAED",
"H#	c #E6E6E7",
"I#	c #DADBDC",
"J#	c #EDEEEF",
"K#	c #D2DDE6",
"L#	c #4A87BB",
"M#	c #4381B8",
"N#	c #C5D5E2",
"O#	c #EFEFEF",
"P#	c #DEE5EA",
"Q#	c #4785B9",
"R#	c #0052A0",
"S#	c #0057A3",
"T#	c #00529F",
"U#	c #4986BA",
"V#	c #DFE5EA",
"W#	c #C4D4E2",
"X#	c #4180B7",
"Y#	c #4785BA",
"Z#	c #D1DCE6",
"`#	c #ECECED",
" $	c #EDEDEE",
".$	c #EFEEEF",
"+$	c #FAF5F2",
"@$	c #FAF6F2",
"#$	c #F0EFEF",
"$$	c #ECEDEE",
"%$	c #DBE2E8",
"&$	c #2A72AF",
"*$	c #00539F",
"=$	c #0058A2",
"-$	c #2B72AF",
";$	c #DCE2E8",
">$	c #F9F6F2",
",$	c #ACACAC",
"'$	c #7EA5C8",
")$	c #00569F",
"!$	c #7FA6C9",
"~$	c #EEEDEE",
"{$	c #EEEEEF",
"]$	c #ACACAD",
"^$	c #CCCDCD",
"/$	c #E2E4E3",
"($	c #E4E5E6",
"_$	c #E8E9EA",
":$	c #EBECED",
"<$	c #E3E6EA",
"[$	c #4780B4",
"}$	c #00529C",
"|$	c #00549D",
"1$	c #4881B5",
"2$	c #E3E7EA",
"3$	c #E3E4E4",
"4$	c #CDCECE",
"5$	c #E1E2E3",
"6$	c #DFE3E8",
"7$	c #3774AD",
"8$	c #005099",
"9$	c #00519A",
"0$	c #3A76AE",
"a$	c #E1E1E2",
"b$	c #DFDFE0",
"c$	c #EAEAEB",
"d$	c #E3E6E9",
"e$	c #4C80B2",
"f$	c #004D97",
"g$	c #004E98",
"h$	c #4E81B3",
"i$	c #E4E6E9",
"j$	c #DEDEDF",
"k$	c #D4D5D6",
"l$	c #E9EAEB",
"m$	c #88A8C7",
"n$	c #014D96",
"o$	c #004D96",
"p$	c #89A9C8",
"q$	c #D3D4D5",
"r$	c #C4C5C6",
"s$	c #E8E9E9",
"t$	c #E0E3E7",
"u$	c #4175AB",
"v$	c #00418E",
"w$	c #004A93",
"x$	c #4376AB",
"y$	c #E0E4E7",
"z$	c #E2E3E4",
"A$	c #E2E5E8",
"B$	c #6E93BB",
"C$	c #00428D",
"D$	c #00408C",
"E$	c #00418D",
"F$	c #7094BB",
"G$	c #E1E2E4",
"H$	c #E7E7E8",
"I$	c #E8E8E9",
"J$	c #EEECEB",
"K$	c #E1E4E7",
"L$	c #AFBED3",
"M$	c #AFBFD3",
"N$	c #DEDFE0",
"O$	c #E7E8E9",
"P$	c #ECEBEB",
"Q$	c #C2C2C3",
"R$	c #E6E7E7",
"S$	c #EAEBEB",
"T$	c #E5E6E7",
"U$	c #C1C2C2",
"V$	c #B4B5B6",
"                                                                                                ",
"                                                                                                ",
"                                                                                                ",
"                                                                                                ",
"                                            . + + .                                             ",
"                                + @ @ @ # # # # # # # # @ @ @ $                                 ",
"                          % & * * * * # # # # # # # # # # * * * * & %                           ",
"                      . = @ @ - # # # ; > , ' ) ) ! ~ { ] # # # - @ @ @ .                       ",
"                  ^ / / / @ # ( _ : < [ } | 1 1 1 1 | 2 3 4 5 _ @ # @ / / / ^                   ",
"              6 & & & 7 8 9 0 a b c d d d d d d d d d d d d c b a 0 e 8 7 & & & f               ",
"            $ & g 7 g h i j k l l l l l l m j j j j m l l l l l l k j n o g 7 g & $             ",
"          p ^ ^ q r s t u v v v v u w x y z A B B C D E F w u v v v v u G H I q ^ ^ p           ",
"        p J K L M N O P P P O Q R S T U q ( q q q q ( q V W S X Y O P P P O Z M ` K J p         ",
"       . ...+.@.#.$.$.$.%.&.*.=.-.( ;.>.p p >.,.,.>.p p '.;.( ).!.~.%.%.$.$.$.#.{.].'. . .      ",
"    + . ^./.(._.:.:.<.[.}.|.1.2.3.. 4.5.q 6.7.8.9.7.6.q 5.4.. 0.2.1.a.}.[.<.:.:._.(.+.4.. +     ",
"  b.c.c.d.e.f.g.g.h.i.j.;.0.c.0.k.l.m.n.o.p.p.p.p.p.p.q.r.m.s.k.0.c.0.;.t.i.h.g.g.f.u.d.c.c.b.  ",
"  f + v.w.x.y.y.z.A.B.C.D.E.F.G.H.I.J.K.L.y.y.y.y.y.y.L.K.J.M.N.O.P.E.D.C.Q.R.z.y.y.x.S.v.+ T.  ",
"  U.$ V.W.X.X.Y.Z.`. +$ .+++@+#+$+X.X.X.X.X.X.X.X.X.X.X.X.X.X.$+#+%+&+*+$  +=+-+;+X.X.>+,+$ 6   ",
"  '+)+!+~+{+]+^+/+(+$ _+:+<+[+}+}+}+|+|+1+2+3+4+5+3+2+1+|+|+}+}+}+[+<+6+_+$ (+7+8+]+{+9+/+)+'+  ",
"  0+a+b+c+d+e+f+g+h+i+j+k+l+m+l+n+o+p+q+d+r+s+t+u+v+w+x+y+z+o+n+l+m+l+k+A+B+h+g+C+D+E+F+b+a+0+  ",
"    G+H+H+b+b+% H+I+J+K+L+L+M+N+O+P+Q+H+b+R+% % % % R+S+H+Q+T+U+N+M+L+L+K+V+F+H+% g+b+H+H+G+    ",
"      W+T.X+U.U.Y+Z+`+ @ @.@+@@@#@Y+$@%@&@*@=@-@;@>@*@&@%@$@Y+,@'@)@.@ @ @`+!@Y+U.U.X+T.W+      ",
"          ~@{@]@^@/@(@(@_@:@<@[@{@}@|@1@2@3@4@5@6@4@7@8@1@=@[@{@}@9@0@_@(@(@a@b@]@{@~@          ",
"          c@{@d@e@f@g@h@i@j@X+k@l@m@n@o@p@h@h@h@h@h@h@p@o@n@q@r@k@X+s@t@h@h@f@u@d@{@c@          ",
"            6 v@w@x@y@z@A@B@C@D@E@F@G@G@G@G@H@I@I@H@G@G@G@G@F@J@K@C@L@M@N@y@O@w@v@6             ",
"            P@Q@R@S@T@T.f U@V@W@X@Y@Y@Y@X@Z@`@ #.#+#Z@@#Y@Y@Y@X@##$#U@%#&#*#=#R@-#;#            ",
"              >#&#,#'#,#'#)#!#~#{#{#{#~#]#^#/#(#(#/#_#:#~#{#{#{#~#<#[#}#,#'#,#}#>#              ",
"                |#'+1#1#2#3#4#5#5#6#7#8#9#1#1#1#1#1#1#9#0#a#6#5#5#4#b#2#1#1#'+c#                ",
"                    d#e#f#g#h#i#j#k#l#m#b.e#n#o#o#n#e#b.m#p#q#j#i#h#r#f#e#d#                    ",
"                    s#>#t#u#v#w#x#y#z#>#>#A#B#C#C#B#A#>#>#z#D#E#w#w#F#G#>#H#                    ",
"                    I#J#>#K#L#M#N#O#J#b.P#Q#R#S#S#T#U#V#b.J#O#W#X#Y#Z#>#J#I#                    ",
"                      `# $.$+$@$#$$$ $%$&$*$=$=$=$=$*$-$;$ $$$#$@$>$.$$$d#                      ",
"                      ,$J# $`#`#`#`# $'$)$)$)$)$)$)$)$)$!$~$`#`#`#`# ${$]$                      ",
"                          ^$/$($_$:$<$[$}$|$|$|$|$|$|$}$1$2$:$P@($3$4$                          ",
"                                5$'+6$7$8$9$9$9$9$9$9$8$0$6$'+a$                                ",
"                                b$c$d$e$f$g$g$g$g$g$g$f$h$i$c$j$                                ",
"                                k$l$'+m$n$o$o$o$o$o$o$n$p$'+l$q$                                ",
"                                r$s$P@t$u$v$w$w$w$w$v$x$y$P@s$                                  ",
"                                  z$_$l$A$B$C$D$D$E$F$A$l$_$G$                                  ",
"                                    H$I$I$J$K$L$M$K$J$I$I$H$                                    ",
"                                      N$l$O$_$P$P$_$O$l$N$                                      ",
"                                        Q$R$S$P@P@S$T$U$                                        ",
"                                              V$V$                                              ",
"                                                                                                ",
"                                                                                                ",
"                                                                                                ",
"                                                                                                ",
"                                                                                                "};
