/* XPM */
static char * xbomber_xpm[] = {
"48 48 402 2",
"  	c None",
". 	c #FFAB09",
"+ 	c #FFA021",
"@ 	c #6D7174",
"# 	c #FF9223",
"$ 	c #FF8E21",
"% 	c #FF8C21",
"& 	c #FF7F14",
"* 	c #FF790D",
"= 	c #FF8519",
"- 	c #FF9524",
"; 	c #FFA120",
"> 	c #FFAB0A",
", 	c #707478",
"' 	c #73777B",
") 	c #6C7073",
"! 	c #FF891C",
"~ 	c #FF7005",
"{ 	c #FF6100",
"] 	c #FF8F21",
"^ 	c #707377",
"/ 	c #878A8F",
"( 	c #73777A",
"_ 	c #7F8387",
": 	c #83878A",
"< 	c #FFA617",
"[ 	c #FF9D23",
"} 	c #FF8C20",
"| 	c #FF7A0F",
"1 	c #FF7105",
"2 	c #FF8116",
"3 	c #717578",
"4 	c #6A6E72",
"5 	c #64686B",
"6 	c #63686A",
"7 	c #64676A",
"8 	c #696D70",
"9 	c #97999E",
"0 	c #7C7F84",
"a 	c #7E8286",
"b 	c #B6B7BC",
"c 	c #989B9E",
"d 	c #6B6F72",
"e 	c #FF891D",
"f 	c #FF8A1E",
"g 	c #FF9122",
"h 	c #707477",
"i 	c #6A6D71",
"j 	c #4F5155",
"k 	c #3A3C3F",
"l 	c #333538",
"m 	c #323336",
"n 	c #35373A",
"o 	c #5C6063",
"p 	c #8D9095",
"q 	c #ACAEB4",
"r 	c #909297",
"s 	c #717478",
"t 	c #636569",
"u 	c #5E6165",
"v 	c #6E7275",
"w 	c #FF9A24",
"x 	c #FF9E22",
"y 	c #676A6D",
"z 	c #484B4E",
"A 	c #2B2C2F",
"B 	c #2D2E31",
"C 	c #2C2D30",
"D 	c #404246",
"E 	c #797D81",
"F 	c #A8AAB0",
"G 	c #A7A9AF",
"H 	c #86898D",
"I 	c #606266",
"J 	c #3B3D40",
"K 	c #5A5D61",
"L 	c #FFA814",
"M 	c #6D7175",
"N 	c #535659",
"O 	c #333438",
"P 	c #2A2B2E",
"Q 	c #2C2E30",
"R 	c #94979C",
"S 	c #9EA0A5",
"T 	c #777A7F",
"U 	c #515357",
"V 	c #343639",
"W 	c #494B4E",
"X 	c #2E2F32",
"Y 	c #2C2C2F",
"Z 	c #313336",
"` 	c #75797C",
" .	c #A2A4AA",
"..	c #ABADB3",
"+.	c #8F9297",
"@.	c #6A6B70",
"#.	c #414246",
"$.	c #3D3F42",
"%.	c #4D4F53",
"&.	c #2A2B2D",
"*.	c #303134",
"=.	c #3C3E41",
"-.	c #4C4D51",
";.	c #4A4D50",
">.	c #2F3033",
",.	c #919398",
"'.	c #A4A7AB",
").	c #818388",
"!.	c #5B5C61",
"~.	c #333437",
"{.	c #54575B",
"].	c #4F5154",
"^.	c #45474B",
"/.	c #525559",
"(.	c #393A3E",
"_.	c #5B5D62",
":.	c #686A6F",
"<.	c #63656A",
"[.	c #5F6265",
"}.	c #5D5F63",
"|.	c #4E5053",
"1.	c #313235",
"2.	c #3E3F43",
"3.	c #83878B",
"4.	c #73767A",
"5.	c #515256",
"6.	c #414346",
"7.	c #6A6E71",
"8.	c #404245",
"9.	c #292A2D",
"0.	c #4B4E51",
"a.	c #6F7376",
"b.	c #626669",
"c.	c #616468",
"d.	c #67686E",
"e.	c #626469",
"f.	c #5E6164",
"g.	c #5B5D61",
"h.	c #575A5D",
"i.	c #55565B",
"j.	c #393A3D",
"k.	c #4C4E51",
"l.	c #5D6064",
"m.	c #484A4D",
"n.	c #4B4D50",
"o.	c #66696D",
"p.	c #585A5E",
"q.	c #55575B",
"r.	c #525457",
"s.	c #4C4D52",
"t.	c #2E3032",
"u.	c #2D2E32",
"v.	c #44464A",
"w.	c #686C6F",
"x.	c #56585C",
"y.	c #5B5E62",
"z.	c #595A5E",
"A.	c #56575B",
"B.	c #525458",
"C.	c #4E5055",
"D.	c #4B4D52",
"E.	c #323337",
"F.	c #37383C",
"G.	c #676A6E",
"H.	c #585B5E",
"I.	c #57595E",
"J.	c #5B5F62",
"K.	c #595B5F",
"L.	c #4D4F54",
"M.	c #313236",
"N.	c #36373A",
"O.	c #3B3B3E",
"P.	c #424447",
"Q.	c #5C5E62",
"R.	c #6F7477",
"S.	c #505255",
"T.	c #5C5F62",
"U.	c #595A5F",
"V.	c #535559",
"W.	c #484A4F",
"X.	c #2F3134",
"Y.	c #3E3F42",
"Z.	c #434548",
"`.	c #54575C",
" +	c #707578",
".+	c #323437",
"++	c #3F4144",
"@+	c #5A5B60",
"#+	c #56595B",
"$+	c #4D5055",
"%+	c #4C4E53",
"&+	c #343539",
"*+	c #2F3034",
"=+	c #383A3D",
"-+	c #434447",
";+	c #47484B",
">+	c #4A4C50",
",+	c #505155",
"'+	c #545559",
")+	c #58595D",
"!+	c #6E7175",
"~+	c #717678",
"{+	c #45484A",
"]+	c #56575C",
"^+	c #505256",
"/+	c #4E5054",
"(+	c #37383B",
"_+	c #3C3D40",
":+	c #414345",
"<+	c #45484B",
"[+	c #4A4C4F",
"}+	c #525557",
"|+	c #57585E",
"1+	c #5F6165",
"2+	c #6C7074",
"3+	c #353639",
"4+	c #404346",
"5+	c #424548",
"6+	c #3B3C40",
"7+	c #303235",
"8+	c #36383B",
"9+	c #404244",
"0+	c #44474A",
"a+	c #494A4E",
"b+	c #4D4E52",
"c+	c #515358",
"d+	c #606165",
"e+	c #676A6F",
"f+	c #2F3135",
"g+	c #393B3E",
"h+	c #3F4143",
"i+	c #444548",
"j+	c #56575A",
"k+	c #5D5F64",
"l+	c #626368",
"m+	c #67696D",
"n+	c #6B6D72",
"o+	c #707276",
"p+	c #6D7275",
"q+	c #303336",
"r+	c #2D2D30",
"s+	c #343538",
"t+	c #3D3F43",
"u+	c #424446",
"v+	c #47494D",
"w+	c #4C4D50",
"x+	c #585A5F",
"y+	c #5D5E62",
"z+	c #626367",
"A+	c #65686D",
"B+	c #6A6C71",
"C+	c #6F7176",
"D+	c #72757A",
"E+	c #77797E",
"F+	c #2E2E32",
"G+	c #38393D",
"H+	c #3B3E41",
"I+	c #424346",
"J+	c #46474A",
"K+	c #4A4B4F",
"L+	c #4F5054",
"M+	c #535459",
"N+	c #57595C",
"O+	c #5C5D62",
"P+	c #616267",
"Q+	c #65666B",
"R+	c #696B70",
"S+	c #6E6F73",
"T+	c #717378",
"U+	c #75777C",
"V+	c #7A7C81",
"W+	c #7B7E83",
"X+	c #56595C",
"Y+	c #36373B",
"Z+	c #454649",
"`+	c #494B4F",
" @	c #4E4F53",
".@	c #535457",
"+@	c #5A5D60",
"@@	c #5E6065",
"#@	c #64656A",
"$@	c #6D6E73",
"%@	c #717377",
"&@	c #75777B",
"*@	c #797B80",
"=@	c #7D8085",
"-@	c #828589",
";@	c #797C80",
">@	c #35363A",
",@	c #494A4D",
"'@	c #4D4E51",
")@	c #505257",
"!@	c #5F6064",
"~@	c #636469",
"{@	c #67696E",
"]@	c #6C6D72",
"^@	c #707177",
"/@	c #73757A",
"(@	c #797A7E",
"_@	c #7C7F82",
":@	c #808388",
"<@	c #84878C",
"[@	c #898B90",
"}@	c #717579",
"|@	c #6C6F72",
"1@	c #45474A",
"2@	c #47484C",
"3@	c #505156",
"4@	c #5D5E64",
"5@	c #66686D",
"6@	c #6A6C70",
"7@	c #6F7074",
"8@	c #727579",
"9@	c #76797E",
"0@	c #7A7D82",
"a@	c #7F8186",
"b@	c #83868B",
"c@	c #878A8E",
"d@	c #8C8E93",
"e@	c #85898D",
"f@	c #606367",
"g@	c #38393C",
"h@	c #3D3E41",
"i@	c #414245",
"j@	c #46484B",
"k@	c #505054",
"l@	c #5F6166",
"m@	c #65676B",
"n@	c #6E7075",
"o@	c #727479",
"p@	c #76787D",
"q@	c #7E8086",
"r@	c #87898D",
"s@	c #8A8E92",
"t@	c #8E9196",
"u@	c #92959A",
"v@	c #6D7074",
"w@	c #46464A",
"x@	c #4A4B4E",
"y@	c #4D5053",
"z@	c #5B5C60",
"A@	c #6D6F73",
"B@	c #717277",
"C@	c #7D8084",
"D@	c #828489",
"E@	c #85888D",
"F@	c #898C91",
"G@	c #989BA0",
"H@	c #8B8D92",
"I@	c #6F7377",
"J@	c #5B5B60",
"K@	c #5F6065",
"L@	c #6F7276",
"M@	c #73767B",
"N@	c #7C7F83",
"O@	c #888B90",
"P@	c #8C8F94",
"Q@	c #95999D",
"R@	c #9B9DA3",
"S@	c #95979D",
"T@	c #6C6F73",
"U@	c #5C5E63",
"V@	c #616367",
"W@	c #6A6D72",
"X@	c #7F8187",
"Y@	c #888A8E",
"Z@	c #8B8E93",
"`@	c #8F9298",
" #	c #999BA1",
".#	c #9FA2A7",
"+#	c #93969B",
"@#	c #66696E",
"##	c #696B71",
"$#	c #6F7075",
"%#	c #717479",
"&#	c #76777D",
"*#	c #7B7C81",
"=#	c #7E8085",
"-#	c #83858A",
";#	c #86898E",
">#	c #8E9296",
",#	c #989A9F",
"'#	c #9D9FA4",
")#	c #A5A7AD",
"!#	c #74777B",
"~#	c #797C81",
"{#	c #7D8185",
"]#	c #818589",
"^#	c #898C92",
"/#	c #979A9F",
"(#	c #9C9FA4",
"_#	c #9EA1A6",
":#	c #9B9EA2",
"<#	c #7B7E82",
"[#	c #6A6F71",
"}#	c #76797D",
"|#	c #8C8F93",
"1#	c #919499",
"2#	c #95989D",
"3#	c #96989D",
"4#	c #929599",
"5#	c #8A8D92",
"                                                                                                ",
"                                                                                                ",
"                                                                                                ",
"                                                                                                ",
"                                                                                                ",
"                                                                                                ",
"                                                                                                ",
"                                                                      .                         ",
"                                                                        +                       ",
"                                                          @ @ @ @ @     # $                     ",
"                                                        @ @           % & * = - ; >             ",
"                                                @ , ' )               ! ~ { * ]                 ",
"                                              @ ^ / ( _ :         < [ } | 1 2                   ",
"                              3 3 4 5 6 7 8 @ ) 9 0 a b c d             e f g                   ",
"                          h i j k l m m m n o p q r s t u v               w x                   ",
"                      @ y z A A B B B B C D E F G H I J K                   L                   ",
"                    M N O P B B B B B B Q i R q S T U V 8                                       ",
"                  @ W X B C A Y C B B C Z `  ...+.@.#.$.) v                                     ",
"                v %.&.C *.=.-.;.J >.B B P 8 ,.'.).!.~.{.].^.@                                   ",
"              3 /.P A (._.:.<.[.}.|.1.B C 2.@ 3.4.5.6.7.8.9.0.a.                                ",
"              b.m B l c.d.e.f.g.h.i.z C B B j.o 3 @ @ k.C B *.l.                                ",
"            ) m.C B n.o.e.u g.p.q.r.s.m B B B P t.n Y Y B B u.v.d                               ",
"            w.m B >.x.<.[.y.z.A.B.C.D.V B B B B B C B B X E.F.=.G.                              ",
"          v H.P B *.I.I J.K.x.B.j L.D.E.B B B B B B B M.N.O.8.P.Q.v                             ",
"          R.6.A B >.S.T.U.x.V.j L.L.W.C B B B B B X.V k Y.Z.m.-.`.v                             ",
"           +.+C B B ++@+#+V.j L.$+%+&+C B B B *+O =+$.-+;+>+,+'+)+!+                            ",
"          ~+P B B B B {+]+^+/+C.D.&+B B B X E.(+_+:+<+[+].}+|+!.1+2+                            ",
"          i P B B B B A 3+4+5+6+X B B u.7+8+J 9+0+a+b+c+q.@+d+<.e+2+                            ",
"          h 9.B B B B B C Y A C B B f+V g+h+i+m.s.5.j+K.k+l+m+n+o+p+                            ",
"          3 q+r+B B B B B B B B >.s+g+t+u+v+w+j '+x+y+z+A+B+C+D+E+M                             ",
"          h ++Y B B B B B B F+.+G+H+I+J+K+L+M+N+O+P+Q+R+S+T+U+V+W+)                             ",
"          v X+9.B B B B X M.Y+J 9+Z+`+ @.@x.+@@@#@:.$@%@&@*@=@-@;@)                             ",
"            y *.B B B *.>@k h+i+,@'@)@i.@+!@~@{@]@^@/@(@_@:@<@[@}@@                             ",
"            |@1@B >.&+(.Y.-+2@D.3@'+U.4@l+5@6@7@8@9@0@a@b@c@d@e@v                               ",
"              f@3+g@h@i@j@[+k@'+I.y.l@m@R+n@o@p@0@q@-@r@s@t@u@;@v@                              ",
"              a.N ++w@x@y@c+x.z@d+#@:.A@B@U+*@C@D@E@F@p u@G@H@)                                 ",
"                I@M+s.5.A.J@K@~@{@n+L@M@T N@:@<@O@P@,.Q@R@S@T@                                  ",
"                  2+}.p.U@V@o.W@C+4.E+W+X@b@Y@Z@`@R  #.#+#h                                     ",
"                    @ @#Q+##$#%#&#*#=#-#;#s@>#+#,#'#)#p a.                                      ",
"                      @ M ^ !#~#{#]#E@^#t@u@/#(#_#:#<#[#                                        ",
"                        @ @ ^ }#=#E@|#1#2#3#4#5#C@v d                                           ",
"                              @ v a.h 3 3 3 a.@                                                 ",
"                                                                                                ",
"                                                                                                ",
"                                                                                                ",
"                                                                                                ",
"                                                                                                ",
"                                                                                                "};
