/* XPM */
static char * xmix_xpm[] = {
"48 48 391 2",
"  	c None",
". 	c #0F0F0F",
"+ 	c #121212",
"@ 	c #141414",
"# 	c #181818",
"$ 	c #1D1D1D",
"% 	c #1F1F1F",
"& 	c #1E1E1E",
"* 	c #191919",
"= 	c #0E0E0E",
"- 	c #151515",
"; 	c #232323",
"> 	c #2F2F2F",
", 	c #3A3A3A",
"' 	c #434343",
") 	c #494949",
"! 	c #4D4D4D",
"~ 	c #4A4A4A",
"{ 	c #444444",
"] 	c #393939",
"^ 	c #2A2A2A",
"/ 	c #131313",
"( 	c #080808",
"_ 	c #262626",
": 	c #373737",
"< 	c #404040",
"[ 	c #303030",
"} 	c #353535",
"| 	c #2E2E2E",
"1 	c #4C4C4C",
"2 	c #656565",
"3 	c #5E5E5E",
"4 	c #333333",
"5 	c #323232",
"6 	c #454545",
"7 	c #171717",
"8 	c #0B0B0B",
"9 	c #161616",
"0 	c #1A1B1A",
"a 	c #1A1A1A",
"b 	c #1C1C1C",
"c 	c #343434",
"d 	c #696969",
"e 	c #252525",
"f 	c #060606",
"g 	c #3B3B3B",
"h 	c #424342",
"i 	c #666766",
"j 	c #838483",
"k 	c #7A7B7A",
"l 	c #777877",
"m 	c #797A79",
"n 	c #858685",
"o 	c #6A6A6A",
"p 	c #454645",
"q 	c #2B2B2B",
"r 	c #777777",
"s 	c #585858",
"t 	c #313131",
"u 	c #070707",
"v 	c #3D3D3D",
"w 	c #848684",
"x 	c #7C7C7C",
"y 	c #7A7B7B",
"z 	c #7B7B7B",
"A 	c #7E7F7E",
"B 	c #7F7F7F",
"C 	c #787979",
"D 	c #767776",
"E 	c #727272",
"F 	c #676767",
"G 	c #7F807F",
"H 	c #565656",
"I 	c #2D2D2D",
"J 	c #787878",
"K 	c #5F5F5F",
"L 	c #050505",
"M 	c #212121",
"N 	c #707170",
"O 	c #787978",
"P 	c #828282",
"Q 	c #9C9E9D",
"R 	c #ABADAC",
"S 	c #BABDBB",
"T 	c #B9BCBA",
"U 	c #B6B9B7",
"V 	c #A6A9A7",
"W 	c #959695",
"X 	c #7A7A7A",
"Y 	c #696A69",
"Z 	c #5B5B5B",
"` 	c #808080",
" .	c #5D5D5D",
"..	c #272727",
"+.	c #020202",
"@.	c #808180",
"#.	c #929493",
"$.	c #BBBEBC",
"%.	c #B8BBB9",
"&.	c #B5B8B6",
"*.	c #B2B5B3",
"=.	c #B0B3B1",
"-.	c #AFB2B0",
";.	c #AEB1AF",
">.	c #888888",
",.	c #757575",
"'.	c #555555",
").	c #828382",
"!.	c #7E7E7E",
"~.	c #525252",
"{.	c #3E3E3E",
"].	c #111111",
"^.	c #848584",
"/.	c #ABACAB",
"(.	c #BEC1BF",
"_.	c #B4B7B5",
":.	c #ADB0AE",
"<.	c #AAADAB",
"[.	c #A8ABA9",
"}.	c #A7AAA8",
"|.	c #A9ACAA",
"1.	c #9A9D9B",
"2.	c #484848",
"3.	c #030303",
"4.	c #1B1B1B",
"5.	c #0C0C0C",
"6.	c #7D7E7E",
"7.	c #A1A3A1",
"8.	c #BDC0BE",
"9.	c #B7BAB8",
"0.	c #A5A8A6",
"a.	c #A2A5A3",
"b.	c #A0A3A1",
"c.	c #9EA19F",
"d.	c #9DA09E",
"e.	c #9FA2A0",
"f.	c #A1A4A2",
"g.	c #A3A6A4",
"h.	c #8D8F8E",
"i.	c #6D6E6E",
"j.	c #4D4E4D",
"k.	c #6E6E6E",
"l.	c #868686",
"m.	c #5A5A5A",
"n.	c #7A7C7B",
"o.	c #919292",
"p.	c #B1B4B2",
"q.	c #ABAEAC",
"r.	c #8A8C8B",
"s.	c #6A6B6A",
"t.	c #646665",
"u.	c #828482",
"v.	c #959896",
"w.	c #969997",
"x.	c #989B99",
"y.	c #9B9E9C",
"z.	c #505050",
"A.	c #464646",
"B.	c #707070",
"C.	c #000000",
"D.	c #636463",
"E.	c #868787",
"F.	c #B7B9B7",
"G.	c #939694",
"H.	c #121312",
"I.	c #1C1D1C",
"J.	c #363736",
"K.	c #7E807F",
"L.	c #8D908E",
"M.	c #8F9290",
"N.	c #929593",
"O.	c #757676",
"P.	c #414141",
"Q.	c #747574",
"R.	c #818181",
"S.	c #4E4E4E",
"T.	c #0D0D0D",
"U.	c #909290",
"V.	c #BCBFBD",
"W.	c #0D0E0D",
"X.	c #262826",
"Y.	c #3D403D",
"Z.	c #4F534F",
"`.	c #585C58",
" +	c #4E514E",
".+	c #363836",
"++	c #7E817F",
"@+	c #868987",
"#+	c #898C8A",
"$+	c #8E918F",
"%+	c #949795",
"&+	c #757675",
"*+	c #202020",
"=+	c #9EA09E",
"-+	c #5B5C5B",
";+	c #242624",
">+	c #414341",
",+	c #5C605C",
"'+	c #767B76",
")+	c #8D938D",
"!+	c #979C97",
"~+	c #6B706B",
"{+	c #4C4E4C",
"]+	c #7D807E",
"^+	c #818482",
"/+	c #8C8F8D",
"(+	c #7F817F",
"_+	c #454646",
":+	c #5C5D5C",
"<+	c #3C3D3C",
"[+	c #636363",
"}+	c #484948",
"|+	c #ACAFAD",
"1+	c #A4A7A5",
"2+	c #9C9F9D",
"3+	c #2E2F2F",
"4+	c #151615",
"5+	c #333533",
"6+	c #505450",
"7+	c #6E726E",
"8+	c #8C928C",
"9+	c #B9BCB9",
"0+	c #E5E6E5",
"a+	c #B4B8B4",
"b+	c #535653",
"c+	c #717472",
"d+	c #777A78",
"e+	c #848785",
"f+	c #4B4C4B",
"g+	c #242424",
"h+	c #535453",
"i+	c #7F8080",
"j+	c #141514",
"k+	c #1B1C1B",
"l+	c #383B38",
"m+	c #555955",
"n+	c #717671",
"o+	c #8F948F",
"p+	c #B6BAB6",
"q+	c #D1D4D1",
"r+	c #B0B4B0",
"s+	c #5A5E5A",
"t+	c #5E615F",
"u+	c #696C6A",
"v+	c #727573",
"w+	c #828583",
"x+	c #6B6C6C",
"y+	c #434443",
"z+	c #686868",
"A+	c #555655",
"B+	c #A8AAA9",
"C+	c #6A6E6A",
"D+	c #808680",
"E+	c #9FA49F",
"F+	c #838883",
"G+	c #545755",
"H+	c #5B5E5C",
"I+	c #666967",
"J+	c #737674",
"K+	c #7B7D7C",
"L+	c #5E5F5E",
"M+	c #424242",
"N+	c #222222",
"O+	c #656665",
"P+	c #A1A3A2",
"Q+	c #434544",
"R+	c #131413",
"S+	c #2D2F2D",
"T+	c #444744",
"U+	c #747974",
"V+	c #5F645F",
"W+	c #3B3E3B",
"X+	c #494C4A",
"Y+	c #4F5250",
"Z+	c #595C5A",
"`+	c #686B69",
" @	c #464746",
".@	c #646564",
"+@	c #969896",
"@@	c #828483",
"#@	c #1E1F1E",
"$@	c #323532",
"%@	c #505350",
"&@	c #383B39",
"*@	c #3F4240",
"=@	c #454846",
"-@	c #606361",
";@	c #737574",
">@	c #747474",
",@	c #575757",
"'@	c #848685",
")@	c #ACAEAD",
"!@	c #919492",
"~@	c #888B89",
"{@	c #6B6E6C",
"]@	c #212322",
"^@	c #1D1E1D",
"/@	c #2A2C2A",
"(@	c #343634",
"_@	c #303230",
":@	c #343735",
"<@	c #373A38",
"[@	c #3D403E",
"}@	c #363636",
"|@	c #717171",
"1@	c #686968",
"2@	c #5C5C5C",
"3@	c #999C9A",
"4@	c #6F7270",
"5@	c #474A48",
"6@	c #313331",
"7@	c #2C2E2D",
"8@	c #313432",
"9@	c #303331",
"0@	c #323533",
"a@	c #444745",
"b@	c #676868",
"c@	c #3F3F3F",
"d@	c #6E6F6E",
"e@	c #686969",
"f@	c #8A8D8B",
"g@	c #808381",
"h@	c #626563",
"i@	c #515452",
"j@	c #464947",
"k@	c #3B3E3C",
"l@	c #333634",
"m@	c #2F3230",
"n@	c #2D302E",
"o@	c #353836",
"p@	c #525452",
"q@	c #5A5B5A",
"r@	c #545454",
"s@	c #0A0A0A",
"t@	c #838684",
"u@	c #787B79",
"v@	c #676A68",
"w@	c #565957",
"x@	c #2B2E2C",
"y@	c #404341",
"z@	c #626362",
"A@	c #606060",
"B@	c #040404",
"C@	c #818281",
"D@	c #4E4F4E",
"E@	c #717271",
"F@	c #949695",
"G@	c #707371",
"H@	c #505351",
"I@	c #4C4E4D",
"J@	c #585958",
"K@	c #3B3C3B",
"L@	c #6F706F",
"M@	c #2D2E2D",
"N@	c #4A4B4A",
"O@	c #858786",
"P@	c #8B8E8C",
"Q@	c #7C7F7D",
"R@	c #6E716F",
"S@	c #525553",
"T@	c #4C4F4D",
"U@	c #4E514F",
"V@	c #3E3F3E",
"W@	c #282828",
"X@	c #535353",
"Y@	c #474747",
"Z@	c #595959",
"`@	c #3A3B3A",
" #	c #727372",
".#	c #7A7C7A",
"+#	c #747675",
"@#	c #575857",
"##	c #434444",
"$#	c #191A1A",
"%#	c #565756",
"&#	c #3C3C3C",
"*#	c #7B7C7B",
"=#	c #222323",
"-#	c #222322",
";#	c #383838",
">#	c #545554",
",#	c #4F4F4F",
"'#	c #404140",
")#	c #737473",
"!#	c #6D6E6D",
"~#	c #7C7D7C",
"{#	c #2C2C2C",
"]#	c #515151",
"^#	c #292929",
"/#	c #090909",
"(#	c #010101",
"                                                                                                ",
"                                                                                                ",
"                                                                                                ",
"                                                                                                ",
"                                                                                                ",
"                                                                                                ",
"                                                                                                ",
"                        . + @ # $ % & * + =                                                     ",
"                    + - ; > , ' ) ! ! ~ { ] ^ / (                                               ",
"                + - _ : ) < [ } [ | : } 1 2 3 ~ 4 /                                             ",
"              @ & 5 6 > $ 7 @ 8 9 0 a b a & c d 2 ) e f                                         ",
"            @ ; g 5 / - / h i j k l m n o p q a < r s t u                                       ",
"          @ ; v _ * . ~ w x y z A B C D E F G H ^ I J K t L                                     ",
"        + % , e 9 M N O P Q R S S T U V W X Y Z O , q `  ...+.                                  ",
"      = # 4 > 9 _ ` @.#.$.$.%.&.*.=.-.-.-.;.>.,.'.).{ > !.~./                                   ",
"      @ ..{.].* m ^./.(.T _.=.:.<.[.V V V }.|.1.D 2.j 5 Z E v 3.                                ",
"    = 4.] & 5.K 6.7.8.9.*.:.|.0.a.b.c.d.d.e.f.g.h.i.j.k.; l.m.9                                 ",
"    + e v ].> n.o.(.9.p.q.V f.r.s.t.u.v.v.w.x.y.e.6.z.Y A.Z B.} C.                              ",
"    - I [ 5.D.E.F.T *.q.0.G.{.+.H.I.0 J.K.L.M.N.w.x.O.P.Q.] R.S.f                               ",
"  T.4.{.# @ A U.V._.:.V d._ W.X.Y.Z.`. +.+++@+#+$+%+z I &+^ P Z @                               ",
"  . *+' T.c N =+%.=.[.f.-+( ;+>+,+'+)+!+~+{+]+^+@+/+(+_+:+<+B.[+$         C.C.C.C.C.C.C.C.C.C.  ",
"  . ; P.T.}+l }.&.|+1+2+3+4+5+6+7+8+9+0+a+b+c+d+]+e+j K f+S.[+F e C.    C.C.C.C.C.C.C.C.C.C.C.C.",
"  ].g+v 5.h+i+;.*.|.f.x.j+k+l+m+n+o+p+q+r+s+t+u+v+]+w+x+y+Z H z+q C.    C.C.C.C.C.C.C.C.C.C.C.C.",
"  . g+P.5.A+Q.B+=.}.c.v.g+0 .+6+C+D+!+E+F+ +G+H+I+J+K+L+M+'.3 2 ..C.                            ",
"  = N+6 8 ~ O+P+-.0.2+G.Q+R+S+T+s+~+'+U+V+W+X+Y+Z+`+l P.~  @z+K % C.                            ",
"  T.% M+/ : .@+@;.0.y.N.@@7 #@$@T+6+m+%@W+&@*@=@Y+-@;@7 m.4 >@,@9                               ",
"    4.[ 5 % k '@)@0.y.!@~@{@]@^@/@$@(@S+_@:@<@[@X+H+k.b Q.}@|@1 (                               ",
"    + ^ P.8 1@2@3@V 2+N.~@++4@5@6@7@_@:@8@9@0@&@a@b@<+<+F 1 [+] C.                              ",
"    T.; c@4.c d@e@e.e.%+f@g@J+h@i@j@k@l@m@n@m@o@p@q@9 1@_ k.r@$ C.                              ",
"      # | M+s@O+~.^+c.x.$+t@u@v@w@X+[@:@m@x@m@y@z@T.) }+) A@P.B@          C.C.C.C.C.C.C.C.C.C.  ",
"      5.g+g t $ C@D@E@F@G.~@++G@-@H@=@k@:@l@I@J@0 K@L@e F ! 4.C.        C.C.C.C.C.C.C.C.C.C.C.C.",
"        - ^ { N+M@).p N@O@P@e+Q@R@-@S@T@U@-+V@8 < ,.W@2 X@c +.          C.C.C.C.C.C.C.C.C.C.C.C.",
"        L b | Y@e M m Z@`@D@[+ #.#+#F @###$#..%#3 g+3 X@&#u C.                                  ",
"          u % > { : = j.*#@#`@e =#M 9 -#;#>#|@q 5 A@,#&#T.C.                                    ",
"            f b I , ! [ 7 '#)#A E@!#N ~#.@5 {#H H 2.c s@C.                                      ",
"              3.- W@4 < ]#M+c I ; ; [ } ' m.'.) {...L C.                                        ",
"                C.u a ^ 4 , < 6 S.]#~ ) 6 < ] ^ T.C.                                            ",
"                    C.f ].M ^ > 5 4 4 t ^## /#C.C.                                              ",
"                          C.(#L u u L +.C.C.                            C.C.C.C.C.C.C.C.C.C.C.C.",
"                                                                        C.C.C.C.C.C.C.C.C.C.C.C.",
"                                                                        C.C.C.C.C.C.C.C.C.C.C.C.",
"                                                                                                ",
"                                                                                                ",
"                                                                                                ",
"                                                                                                ",
"                                                                                                ",
"                                                                                                ",
"                                                                                                "};
