/* XPM */
static char * xterminal_xpm[] = {
"48 48 205 2",
"  	c None",
". 	c #B8BBB4",
"+ 	c #B6B9B2",
"@ 	c #D7D9D5",
"# 	c #FBFBFA",
"$ 	c #FDFDFC",
"% 	c #F2F2F0",
"& 	c #F0F0EE",
"* 	c #EFEFED",
"= 	c #EEEEEC",
"- 	c #F5F4F2",
"; 	c #F5F5F3",
"> 	c #F0F0ED",
", 	c #727576",
"' 	c #6B6D6E",
") 	c #6C6E6F",
"! 	c #F6F6F3",
"~ 	c #616465",
"{ 	c #717576",
"] 	c #727678",
"^ 	c #F6F6F4",
"/ 	c #5E6162",
"( 	c #757879",
"_ 	c #777A7C",
": 	c #777A7B",
"< 	c #585C5D",
"[ 	c #6A6E70",
"} 	c #6C7072",
"| 	c #555859",
"1 	c #6B6F70",
"2 	c #6E7273",
"3 	c #F7F6F4",
"4 	c #505353",
"5 	c #626668",
"6 	c #64686A",
"7 	c #F7F7F5",
"8 	c #4B4E4F",
"9 	c #636869",
"0 	c #656B6B",
"a 	c #656A6B",
"b 	c #464A4A",
"c 	c #5B5F61",
"d 	c #5D6163",
"e 	c #424646",
"f 	c #5B6061",
"g 	c #5D6263",
"h 	c #F8F8F5",
"i 	c #3D4041",
"j 	c #525658",
"k 	c #54585A",
"l 	c #F8F8F6",
"m 	c #383C3D",
"n 	c #515557",
"o 	c #53585A",
"p 	c #333838",
"q 	c #494E50",
"r 	c #4B5052",
"s 	c #2F3334",
"t 	c #4A4E50",
"u 	c #4C5153",
"v 	c #F9F9F6",
"w 	c #292E2F",
"x 	c #424749",
"y 	c #444A4C",
"z 	c #44494B",
"A 	c #43494B",
"B 	c #FAFAF7",
"C 	c #161A1C",
"D 	c #383C3E",
"E 	c #3F4446",
"F 	c #434749",
"G 	c #43484A",
"H 	c #FAFAF8",
"I 	c #131819",
"J 	c #2C3234",
"K 	c #2F3537",
"L 	c #2E3436",
"M 	c #32383A",
"N 	c #343A3C",
"O 	c #363C3E",
"P 	c #383D3F",
"Q 	c #393F41",
"R 	c #141819",
"S 	c #303638",
"T 	c #33393B",
"U 	c #353B3D",
"V 	c #262C2E",
"W 	c #3C4244",
"X 	c #CECFD0",
"Y 	c #6C7172",
"Z 	c #313739",
"` 	c #2D3335",
" .	c #B2B4B5",
"..	c #FFFFFF",
"+.	c #FCFCFC",
"@.	c #7B7F80",
"#.	c #303537",
"$.	c #5D6264",
"%.	c #F7F7F7",
"&.	c #FEFEFE",
"*.	c #7D8183",
"=.	c #2A3032",
"-.	c #2D3234",
";.	c #505557",
">.	c #F3F3F3",
",.	c #848889",
"'.	c #2D3336",
").	c #2B3234",
"!.	c #4F5456",
"~.	c #DBDCDD",
"{.	c #949798",
"].	c #EBEBEC",
"^.	c #8D9091",
"/.	c #4B5152",
"(.	c #F5F5F5",
"_.	c #FDFEFD",
":.	c #9B9D9E",
"<.	c #64696A",
"[.	c #EFEFEF",
"}.	c #FAFAFA",
"|.	c #828687",
"1.	c #272D2F",
"2.	c #464B4D",
"3.	c #4A4F51",
"4.	c #B9BBBC",
"5.	c #FDFDFD",
"6.	c #7A7E7F",
"7.	c #D8D9DA",
"8.	c #F0F0F0",
"9.	c #EFF0F0",
"0.	c #252B2D",
"a.	c #363D3F",
"b.	c #D4D5D6",
"c.	c #3D4344",
"d.	c #FAFAFB",
"e.	c #23292B",
"f.	c #282F31",
"g.	c #4A5052",
"h.	c #F9F9F7",
"i.	c #25292A",
"j.	c #2C3030",
"k.	c #D5D5D4",
"l.	c #CCCCCB",
"m.	c #CCCDCC",
"n.	c #EDEDEB",
"o.	c #B7BAB3",
"p.	c #E4E5E2",
"q.	c #F7F7F6",
"r.	c #F6F6F5",
"s.	c #B9BCB5",
"t.	c #C7C9C3",
"u.	c #C7CAC4",
"v.	c #C7C9C4",
"w.	c #C6C9C3",
"x.	c #C5C7C1",
"y.	c #C9CCC6",
"z.	c #CACDC8",
"A.	c #C4C6C0",
"B.	c #C4C6C1",
"C.	c #C6C8C3",
"D.	c #AAADA4",
"E.	c #DBDCD8",
"F.	c #ECEDEA",
"G.	c #EAEAE8",
"H.	c #E9E9E7",
"I.	c #E9EAE7",
"J.	c #A5A8A0",
"K.	c #9A9E95",
"L.	c #BABCB5",
"M.	c #DEDEDA",
"N.	c #F3F3F2",
"O.	c #F4F4F2",
"P.	c #F0F0EF",
"Q.	c #BBBCB5",
"R.	c #8D9088",
"S.	c #979B92",
"T.	c #ABAEA5",
"U.	c #BBBDB6",
"V.	c #CFD0C9",
"W.	c #EAE9E7",
"X.	c #F1F1EF",
"Y.	c #F3F3F1",
"Z.	c #BCBEB7",
"`.	c #AAACA4",
" +	c #8B8E86",
".+	c #93968E",
"++	c #A5A89F",
"@+	c #AFB1A9",
"#+	c #BABBB4",
"$+	c #C4C5BE",
"%+	c #CBCCC6",
"&+	c #D1D2CD",
"*+	c #D7D7D2",
"=+	c #D9D9D4",
"-+	c #DADAD6",
";+	c #AFB2A9",
">+	c #ABADA5",
",+	c #A2A59C",
"'+	c #848780",
")+	c #969991",
"!+	c #9DA097",
"~+	c #A0A39A",
"{+	c #9FA39A",
"]+	c #9A9D94",
"^+	c #90938B",
"                                                                                                ",
"                                                                                                ",
"      . + + + + + + + + + + + + + + + + + + + + + + + + + + + + + + + + + + + + + + + + .       ",
"    . @ # # # # # # # # # # # # # # # # # # # # # # # # # # # # # # # # # # # # # # # # @ .     ",
"    + $ % & & & & & & & & & & & & & & & & & & & & & & & & & & & & & & & & & & & & & & % $ +     ",
"    + $ * = - ; ; ; ; ; ; ; ; ; ; ; ; ; ; ; ; ; ; ; ; ; ; ; ; ; ; ; ; ; ; ; ; ; ; - = * $ +     ",
"    + $ > - , ' ) ) ) ) ) ) ) ) ) ) ) ) ) ) ) ) ) ) ) ) ) ) ) ) ) ) ) ) ) ) ) ) ' , - > $ +     ",
"    + $ > ! ~ { ] ] ] ] ] ] ] ] ] ] ] ] ] ] ] ] ] ] ] ] ] ] ] ] ] ] ] ] ] ] ] ] { ~ ! > $ +     ",
"    + $ > ^ / ( _ : : : : : : : : : : : : : : : : : : : : : : : : : : : : : : _ ( / ^ > $ +     ",
"    + $ > ^ < [ } } } } } } } } } } } } } } } } } } } } } } } } } } } } } } } } [ < ^ > $ +     ",
"    + $ > ^ | 1 2 2 2 2 2 2 2 2 2 2 2 2 2 2 2 2 2 2 2 2 2 2 2 2 2 2 2 2 2 2 2 2 1 | ^ > $ +     ",
"    + $ > 3 4 5 6 6 6 6 6 6 6 6 6 6 6 6 6 6 6 6 6 6 6 6 6 6 6 6 6 6 6 6 6 6 6 6 5 4 3 > $ +     ",
"    + $ > 7 8 9 0 a a a a a a a a a a a a a a a a a a a a a a a a a a a a a a 0 9 8 7 > $ +     ",
"    + $ > 7 b c d d d d d d d d d d d d d d d d d d d d d d d d d d d d d d d d c b 7 > $ +     ",
"    + $ > 7 e f g g g g g g g g g g g g g g g g g g g g g g g g g g g g g g g g f e 7 > $ +     ",
"    + $ > h i j k k k k k k k k k k k k k k k k k k k k k k k k k k k k k k k k j i h > $ +     ",
"    + $ > l m n o o o o o o o o o o o o o o o o o o o o o o o o o o o o o o o o n m l > $ +     ",
"    + $ > l p q r r r r r r r r r r r r r r r r r r r r r r r r r r r r r r r r q p l > $ +     ",
"    + $ > l s t u u u u u u u u u u u u u u u u u u u u u u u u u u u u u u u u t s l > $ +     ",
"    + $ > v w x y z A z z z z z z z z z z z z z z z z z z z z z z z z z z A z y x w v > $ +     ",
"    + $ > B C D E F z z z G G G G G G G G G G G G G G G G G G G G G G z z z F E D C B > $ +     ",
"    + $ > H I J K L K M N O P Q Q Q Q Q Q Q Q Q Q Q Q Q Q Q Q Q Q P O N M K L K J I H > $ +     ",
"    + $ > H R S T M M M M M M M T T N N U U U U U U U U N N T T M M M M M M M T S R H > $ +     ",
"    + $ > H I J L L L V J L L L L L L L L L L L L L L L L L L L L L L L L L L L J I H > $ +     ",
"    + $ > H R S T T W X Y Z T T T T T T T T T T T T T T T T T T T T T T T T T T S R H > $ +     ",
"    + $ > H I ` K T  ...+.@.` K K K K K K K K K K K K K K K K K K K K K K K K K ` I H > $ +     ",
"    + $ > H R #.M M $.%...&.*.=.M M M M M M M M M M M M M M M M M M M M M M M M K I H > $ +     ",
"    + $ > H I -.K K =.;.>.....,.'.K K K K K K K K K K K K K K K K K K K K K K K -.I H > $ +     ",
"    + $ > H I L S S S ).!.~.....{.N S S S S S S S S S S S S S S S S S S S S S S L I H > $ +     ",
"    + $ > H I J L L L ` z ].....^.K L L L L L L L L L L L L L L L L L L L L L L J I H > $ +     ",
"    + $ > H I L S S L /.(..._.:.V K K K K S S S S S S S S S S S S S S S S S S S L I H > $ +     ",
"    + $ > H I ` K K <.[...}.|.1.2.q q q 3.` K K K K K K K K K K K K K K K K K K ` I H > $ +     ",
"    + $ > H I L S U 4...5.6.K E 7.8.9.9.}.0.S S S S S S S S S S S S S S S S S S L I H > $ +     ",
"    + $ > H I J L ` a.b.@.0.L c.7.8.9.9.d.e.L L L L L L L L L L L L L L L L L L J I H > $ +     ",
"    + $ > H I ` K K ` S f.S K Z 2.q q q g.L K K K K K K K K K K K K K K K K K K ` I H > $ +     ",
"    + $ > H I ` K K K K K K K K L L L L L K K K K K K K K K K K K K K K K K K K ` I H > $ +     ",
"    + $ > h.i.j.j.j.j.j.j.j.j.j.j.j.j.j.j.j.j.j.j.j.j.j.j.j.j.j.j.j.j.j.j.j.j.j.j.i.h.> $ +     ",
"    + $ * * k.l.m.m.m.m.m.m.m.m.m.m.m.m.m.m.m.m.m.m.m.m.m.m.m.m.m.m.m.m.m.m.m.m.l.k.* * $ +     ",
"    + $ * n.= = = = = = = = = = = = = = = = = = = = = = = = = = = = = = = = = = = = n.* $ +     ",
"    o.p.q.r.r.r.r.r.r.r.r.r.r.r.r.r.r.r.r.r.r.r.r.r.r.r.r.r.r.r.r.r.r.r.r.r.r.r.r.r.r.q.p.o.    ",
"      s.t.u.u.u.v.w.x.y.z.z.z.z.z.z.z.z.z.z.z.z.z.z.z.z.z.z.z.z.z.z.z.z.y.A.B.C.u.u.u.t.s.      ",
"                    D.E.F.G.H.H.H.H.I.I.I.I.I.I.I.I.I.I.I.I.H.H.H.H.G.F.E.J.                    ",
"                    K.L.M.* N.O.% P.& & & * * * * * * & & & P.% O.N.* M.Q.R.                    ",
"                      S.T.U.V.M.W.n.> X.% Y.O.O.O.O.Y.% X.> n.W.M.V.Z.`. +                      ",
"                          .+++D.@+#+$+%+&+*+=+-+-+=+*+&+%+$+#+;+>+,+'+                          ",
"                                  )+!+~+~+~+~+~+~+~+~+~+{+]+^+                                  ",
"                                                                                                ",
"                                                                                                "};
